<svg width="198" height="198" viewBox="0 0 198 198" fill="none" xmlns="http://www.w3.org/2000/svg">
<g filter="url(#filter0_ddddii)">
<circle cx="97.9368" cy="97.925" r="85.925" fill="#FF6962"/>
<circle cx="97.9368" cy="97.925" r="85.925" fill="url(#paint0_linear)"/>
</g>
<path d="M63.619 98.0605C64.4873 98.3182 65.1521 98.7388 65.6133 99.3222C66.0746 99.9056 66.3053 100.625 66.3053 101.479C66.3053 102.741 65.8236 103.725 64.8604 104.43C63.9107 105.136 62.5472 105.488 60.7699 105.488H53.7489V91.243H60.3832C62.0384 91.243 63.3273 91.5618 64.2499 92.1995C65.1724 92.8371 65.6337 93.7461 65.6337 94.9265C65.6337 95.632 65.4573 96.256 65.1046 96.7987C64.7518 97.3278 64.2566 97.7484 63.619 98.0605ZM57.0254 97.1447H60.0983C60.8174 97.1447 61.3601 97.0022 61.7264 96.7173C62.0927 96.4188 62.2758 95.9847 62.2758 95.4149C62.2758 94.8586 62.0859 94.4313 61.706 94.1328C61.3397 93.8343 60.8038 93.6851 60.0983 93.6851H57.0254V97.1447ZM60.6478 103.046C62.1944 103.046 62.9678 102.436 62.9678 101.215C62.9678 100.034 62.1944 99.4443 60.6478 99.4443H57.0254V103.046H60.6478ZM75.7707 99.7903C76.4219 99.9938 76.9239 100.306 77.2767 100.726C77.643 101.147 77.8261 101.649 77.8261 102.232C77.8261 102.924 77.5887 103.535 77.1139 104.064C76.639 104.579 75.9878 104.98 75.1602 105.265C74.3326 105.55 73.3965 105.692 72.3518 105.692C71.4971 105.692 70.6559 105.604 69.8283 105.427C69.0007 105.251 68.2342 104.986 67.5287 104.634L68.3834 102.416C69.5366 102.972 70.8119 103.25 72.2093 103.25C72.9555 103.25 73.5389 103.141 73.9595 102.924C74.3937 102.694 74.6107 102.375 74.6107 101.968C74.6107 101.615 74.4615 101.35 74.163 101.174C73.8645 100.984 73.4304 100.889 72.8606 100.889H70.622V98.9152H72.5757C73.1319 98.9152 73.5593 98.827 73.8578 98.6506C74.1562 98.4743 74.3055 98.2165 74.3055 97.8773C74.3055 97.5246 74.1155 97.2532 73.7356 97.0633C73.3693 96.8733 72.8402 96.7784 72.1483 96.7784C71.0901 96.7784 69.9369 97.0294 68.6887 97.5314L67.9154 95.3335C69.4349 94.6687 70.9137 94.3363 72.3518 94.3363C73.3422 94.3363 74.2241 94.4584 74.9974 94.7026C75.7843 94.9468 76.4016 95.3063 76.8493 95.7812C77.297 96.2425 77.5209 96.7852 77.5209 97.4092C77.5209 97.9248 77.3648 98.3929 77.0528 98.8134C76.7408 99.2205 76.3134 99.5461 75.7707 99.7903ZM92.4069 102.884V107.849H89.4561V105.488H81.7635V107.849H78.8127V102.884H79.2604C79.9387 102.87 80.4068 102.47 80.6646 101.683C80.9223 100.896 81.0852 99.7767 81.153 98.325L81.2954 94.5398H90.8399V102.884H92.4069ZM84.0224 98.5489C83.9817 99.6614 83.8935 100.57 83.7579 101.276C83.6358 101.981 83.3983 102.517 83.0456 102.884H87.6652V97.1447H84.0835L84.0224 98.5489ZM105.374 94.5398L100.429 106.16C99.9266 107.422 99.3025 108.31 98.5563 108.826C97.8237 109.342 96.935 109.599 95.8904 109.599C95.3205 109.599 94.7575 109.511 94.2013 109.335C93.645 109.158 93.1905 108.914 92.8378 108.602L93.9978 106.343C94.242 106.56 94.5201 106.73 94.8321 106.852C95.1577 106.974 95.4766 107.035 95.7886 107.035C96.2228 107.035 96.5755 106.927 96.8468 106.71C97.1182 106.506 97.3624 106.16 97.5795 105.672L97.6202 105.57L92.8785 94.5398H96.1549L99.2279 101.968L102.321 94.5398H105.374ZM116.203 97.1447H112.499V105.488H109.345V97.1447H105.641V94.5398H116.203V97.1447ZM117.895 94.5398H121.05V101.052L126.382 94.5398H129.292V105.488H126.138V98.9763L120.826 105.488H117.895V94.5398ZM142.987 100.055C142.987 100.096 142.967 100.38 142.926 100.91H134.643C134.793 101.588 135.145 102.124 135.702 102.517C136.258 102.911 136.95 103.107 137.777 103.107C138.347 103.107 138.849 103.026 139.283 102.863C139.731 102.687 140.145 102.416 140.525 102.049L142.214 103.881C141.183 105.061 139.677 105.651 137.696 105.651C136.461 105.651 135.369 105.414 134.419 104.939C133.47 104.451 132.737 103.779 132.222 102.924C131.706 102.07 131.448 101.1 131.448 100.014C131.448 98.9423 131.699 97.9791 132.201 97.1243C132.717 96.256 133.415 95.5845 134.297 95.1096C135.193 94.6212 136.19 94.377 137.289 94.377C138.361 94.377 139.331 94.6076 140.199 95.0689C141.067 95.5302 141.746 96.195 142.234 97.0633C142.736 97.918 142.987 98.9152 142.987 100.055ZM137.309 96.7784C136.59 96.7784 135.986 96.9819 135.498 97.3889C135.01 97.7959 134.711 98.3522 134.603 99.0577H139.996C139.887 98.3657 139.589 97.8163 139.1 97.4092C138.612 96.9887 138.015 96.7784 137.309 96.7784Z" fill="#FFF5F3"/>
<defs>
<filter id="filter0_ddddii" x="0.0117188" y="0" width="197.85" height="197.85" filterUnits="userSpaceOnUse" color-interpolation-filters="sRGB">
<feFlood flood-opacity="0" result="BackgroundImageFix"/>
<feColorMatrix in="SourceAlpha" type="matrix" values="0 0 0 0 0 0 0 0 0 0 0 0 0 0 0 0 0 0 127 0"/>
<feOffset dx="4" dy="4"/>
<feGaussianBlur stdDeviation="5"/>
<feColorMatrix type="matrix" values="0 0 0 0 0.886275 0 0 0 0 0.121569 0 0 0 0 0.105882 0 0 0 0.9 0"/>
<feBlend mode="normal" in2="BackgroundImageFix" result="effect1_dropShadow"/>
<feColorMatrix in="SourceAlpha" type="matrix" values="0 0 0 0 0 0 0 0 0 0 0 0 0 0 0 0 0 0 127 0"/>
<feOffset dx="-4" dy="-4"/>
<feGaussianBlur stdDeviation="4"/>
<feColorMatrix type="matrix" values="0 0 0 0 0.901961 0 0 0 0 0.121569 0 0 0 0 0.105882 0 0 0 0.9 0"/>
<feBlend mode="normal" in2="effect1_dropShadow" result="effect2_dropShadow"/>
<feColorMatrix in="SourceAlpha" type="matrix" values="0 0 0 0 0 0 0 0 0 0 0 0 0 0 0 0 0 0 127 0"/>
<feOffset dx="4" dy="-4"/>
<feGaussianBlur stdDeviation="4"/>
<feColorMatrix type="matrix" values="0 0 0 0 0.886275 0 0 0 0 0.121569 0 0 0 0 0.105882 0 0 0 0.2 0"/>
<feBlend mode="normal" in2="effect2_dropShadow" result="effect3_dropShadow"/>
<feColorMatrix in="SourceAlpha" type="matrix" values="0 0 0 0 0 0 0 0 0 0 0 0 0 0 0 0 0 0 127 0"/>
<feOffset dx="-4" dy="4"/>
<feGaussianBlur stdDeviation="4"/>
<feColorMatrix type="matrix" values="0 0 0 0 0.886275 0 0 0 0 0.121569 0 0 0 0 0.105882 0 0 0 0.2 0"/>
<feBlend mode="normal" in2="effect3_dropShadow" result="effect4_dropShadow"/>
<feBlend mode="normal" in="SourceGraphic" in2="effect4_dropShadow" result="shape"/>
<feColorMatrix in="SourceAlpha" type="matrix" values="0 0 0 0 0 0 0 0 0 0 0 0 0 0 0 0 0 0 127 0" result="hardAlpha"/>
<feOffset dx="-1" dy="-1"/>
<feGaussianBlur stdDeviation="1"/>
<feComposite in2="hardAlpha" operator="arithmetic" k2="-1" k3="1"/>
<feColorMatrix type="matrix" values="0 0 0 0 0.886275 0 0 0 0 0.121569 0 0 0 0 0.105882 0 0 0 0.5 0"/>
<feBlend mode="normal" in2="shape" result="effect5_innerShadow"/>
<feColorMatrix in="SourceAlpha" type="matrix" values="0 0 0 0 0 0 0 0 0 0 0 0 0 0 0 0 0 0 127 0" result="hardAlpha"/>
<feOffset dx="1" dy="1"/>
<feGaussianBlur stdDeviation="1"/>
<feComposite in2="hardAlpha" operator="arithmetic" k2="-1" k3="1"/>
<feColorMatrix type="matrix" values="0 0 0 0 0.901961 0 0 0 0 0.121569 0 0 0 0 0.105882 0 0 0 0.3 0"/>
<feBlend mode="normal" in2="effect5_innerShadow" result="effect6_innerShadow"/>
</filter>
<linearGradient id="paint0_linear" x1="12.0117" y1="12" x2="183.862" y2="183.85" gradientUnits="userSpaceOnUse">
<stop stop-color="#EF211C"/>
<stop offset="1" stop-color="#D91D1A"/>
</linearGradient>
</defs>
</svg>
