<svg width="199" height="198" viewBox="0 0 199 198" fill="none" xmlns="http://www.w3.org/2000/svg">
<g filter="url(#filter0_ddddii)">
<circle cx="98.4309" cy="97.925" r="85.925" fill="#FF6962"/>
<circle cx="98.4309" cy="97.925" r="85.925" fill="url(#paint0_linear)"/>
</g>
<path d="M62.9565 93.9293H58.398V105.489H55.1419V93.9293H50.6037V91.2431H62.9565V93.9293ZM68.7978 105.651C67.6446 105.651 66.6067 105.414 65.6841 104.939C64.7752 104.451 64.0629 103.779 63.5473 102.924C63.0318 102.07 62.774 101.1 62.774 100.014C62.774 98.9288 63.0318 97.9588 63.5473 97.104C64.0629 96.2493 64.7752 95.5845 65.6841 95.1097C66.6067 94.6213 67.6446 94.3771 68.7978 94.3771C69.951 94.3771 70.9821 94.6213 71.8911 95.1097C72.8001 95.5845 73.5124 96.2493 74.0279 97.104C74.5435 97.9588 74.8012 98.9288 74.8012 100.014C74.8012 101.1 74.5435 102.07 74.0279 102.924C73.5124 103.779 72.8001 104.451 71.8911 104.939C70.9821 105.414 69.951 105.651 68.7978 105.651ZM68.7978 103.046C69.6118 103.046 70.2766 102.775 70.7922 102.232C71.3213 101.676 71.5858 100.937 71.5858 100.014C71.5858 99.0916 71.3213 98.359 70.7922 97.8163C70.2766 97.2601 69.6118 96.9819 68.7978 96.9819C67.9838 96.9819 67.3122 97.2601 66.7831 97.8163C66.254 98.359 65.9894 99.0916 65.9894 100.014C65.9894 100.937 66.254 101.676 66.7831 102.232C67.3122 102.775 67.9838 103.046 68.7978 103.046ZM93.6927 94.5399V105.489H76.9848V94.5399H80.1392V102.884H83.7819V94.5399H86.9363V102.884H90.5384V94.5399H93.6927ZM96.7393 94.5399H99.8936V98.8135H104.656V94.5399H107.83V105.489H104.656V101.398H99.8936V105.489H96.7393V94.5399ZM115.998 105.651C114.845 105.651 113.807 105.414 112.884 104.939C111.975 104.451 111.263 103.779 110.747 102.924C110.232 102.07 109.974 101.1 109.974 100.014C109.974 98.9288 110.232 97.9588 110.747 97.104C111.263 96.2493 111.975 95.5845 112.884 95.1097C113.807 94.6213 114.845 94.3771 115.998 94.3771C117.151 94.3771 118.182 94.6213 119.091 95.1097C120 95.5845 120.712 96.2493 121.228 97.104C121.744 97.9588 122.001 98.9288 122.001 100.014C122.001 101.1 121.744 102.07 121.228 102.924C120.712 103.779 120 104.451 119.091 104.939C118.182 105.414 117.151 105.651 115.998 105.651ZM115.998 103.046C116.812 103.046 117.477 102.775 117.992 102.232C118.521 101.676 118.786 100.937 118.786 100.014C118.786 99.0916 118.521 98.359 117.992 97.8163C117.477 97.2601 116.812 96.9819 115.998 96.9819C115.184 96.9819 114.512 97.2601 113.983 97.8163C113.454 98.359 113.189 99.0916 113.189 100.014C113.189 100.937 113.454 101.676 113.983 102.232C114.512 102.775 115.184 103.046 115.998 103.046ZM132.986 97.1448H129.282V105.489H126.128V97.1448H122.424V94.5399H132.986V97.1448ZM138.931 94.3771C140.627 94.3771 141.93 94.7841 142.839 95.5981C143.748 96.3986 144.202 97.6128 144.202 99.2409V105.489H141.231V104.125C140.634 105.143 139.522 105.651 137.894 105.651C137.052 105.651 136.32 105.509 135.696 105.224C135.085 104.939 134.617 104.546 134.292 104.044C133.966 103.542 133.803 102.972 133.803 102.334C133.803 101.317 134.183 100.516 134.943 99.9328C135.716 99.3494 136.903 99.0577 138.504 99.0577H141.028C141.028 98.3658 140.817 97.8367 140.397 97.4704C139.976 97.0905 139.345 96.9005 138.504 96.9005C137.921 96.9005 137.344 96.9955 136.774 97.1855C136.218 97.3618 135.743 97.606 135.35 97.9181L134.21 95.6999C134.807 95.2793 135.519 94.9537 136.347 94.723C137.188 94.4924 138.05 94.3771 138.931 94.3771ZM138.687 103.515C139.23 103.515 139.712 103.392 140.132 103.148C140.553 102.89 140.851 102.517 141.028 102.029V100.91H138.85C137.548 100.91 136.896 101.337 136.896 102.192C136.896 102.599 137.052 102.924 137.364 103.169C137.69 103.399 138.131 103.515 138.687 103.515Z" fill="#FFF5F3"/>
<defs>
<filter id="filter0_ddddii" x="0.505859" y="0" width="197.85" height="197.85" filterUnits="userSpaceOnUse" color-interpolation-filters="sRGB">
<feFlood flood-opacity="0" result="BackgroundImageFix"/>
<feColorMatrix in="SourceAlpha" type="matrix" values="0 0 0 0 0 0 0 0 0 0 0 0 0 0 0 0 0 0 127 0"/>
<feOffset dx="4" dy="4"/>
<feGaussianBlur stdDeviation="5"/>
<feColorMatrix type="matrix" values="0 0 0 0 0.886275 0 0 0 0 0.121569 0 0 0 0 0.105882 0 0 0 0.9 0"/>
<feBlend mode="normal" in2="BackgroundImageFix" result="effect1_dropShadow"/>
<feColorMatrix in="SourceAlpha" type="matrix" values="0 0 0 0 0 0 0 0 0 0 0 0 0 0 0 0 0 0 127 0"/>
<feOffset dx="-4" dy="-4"/>
<feGaussianBlur stdDeviation="4"/>
<feColorMatrix type="matrix" values="0 0 0 0 0.901961 0 0 0 0 0.121569 0 0 0 0 0.105882 0 0 0 0.9 0"/>
<feBlend mode="normal" in2="effect1_dropShadow" result="effect2_dropShadow"/>
<feColorMatrix in="SourceAlpha" type="matrix" values="0 0 0 0 0 0 0 0 0 0 0 0 0 0 0 0 0 0 127 0"/>
<feOffset dx="4" dy="-4"/>
<feGaussianBlur stdDeviation="4"/>
<feColorMatrix type="matrix" values="0 0 0 0 0.886275 0 0 0 0 0.121569 0 0 0 0 0.105882 0 0 0 0.2 0"/>
<feBlend mode="normal" in2="effect2_dropShadow" result="effect3_dropShadow"/>
<feColorMatrix in="SourceAlpha" type="matrix" values="0 0 0 0 0 0 0 0 0 0 0 0 0 0 0 0 0 0 127 0"/>
<feOffset dx="-4" dy="4"/>
<feGaussianBlur stdDeviation="4"/>
<feColorMatrix type="matrix" values="0 0 0 0 0.886275 0 0 0 0 0.121569 0 0 0 0 0.105882 0 0 0 0.2 0"/>
<feBlend mode="normal" in2="effect3_dropShadow" result="effect4_dropShadow"/>
<feBlend mode="normal" in="SourceGraphic" in2="effect4_dropShadow" result="shape"/>
<feColorMatrix in="SourceAlpha" type="matrix" values="0 0 0 0 0 0 0 0 0 0 0 0 0 0 0 0 0 0 127 0" result="hardAlpha"/>
<feOffset dx="-1" dy="-1"/>
<feGaussianBlur stdDeviation="1"/>
<feComposite in2="hardAlpha" operator="arithmetic" k2="-1" k3="1"/>
<feColorMatrix type="matrix" values="0 0 0 0 0.886275 0 0 0 0 0.121569 0 0 0 0 0.105882 0 0 0 0.5 0"/>
<feBlend mode="normal" in2="shape" result="effect5_innerShadow"/>
<feColorMatrix in="SourceAlpha" type="matrix" values="0 0 0 0 0 0 0 0 0 0 0 0 0 0 0 0 0 0 127 0" result="hardAlpha"/>
<feOffset dx="1" dy="1"/>
<feGaussianBlur stdDeviation="1"/>
<feComposite in2="hardAlpha" operator="arithmetic" k2="-1" k3="1"/>
<feColorMatrix type="matrix" values="0 0 0 0 0.901961 0 0 0 0 0.121569 0 0 0 0 0.105882 0 0 0 0.3 0"/>
<feBlend mode="normal" in2="effect5_innerShadow" result="effect6_innerShadow"/>
</filter>
<linearGradient id="paint0_linear" x1="12.5059" y1="12" x2="184.356" y2="183.85" gradientUnits="userSpaceOnUse">
<stop stop-color="#EF211C"/>
<stop offset="1" stop-color="#D91D1A"/>
</linearGradient>
</defs>
</svg>
