<svg width="173" height="173" viewBox="0 0 173 173" fill="none" xmlns="http://www.w3.org/2000/svg">
<g clip-path="url(#clip0)">
<path d="M86.5089 108.462C82.162 108.466 77.9119 107.179 74.2962 104.767C70.6805 102.354 67.8618 98.9225 66.1967 94.9072C64.5317 90.8918 64.0951 86.4728 64.9423 82.2093C65.7895 77.9458 67.8824 74.0295 70.9561 70.9558C74.0298 67.8821 77.9462 65.7892 82.2097 64.942C86.4732 64.0948 90.8922 64.5314 94.9075 66.1964C98.9228 67.8615 102.354 70.6802 104.767 74.2958C107.18 77.9115 108.466 82.1617 108.462 86.5086C108.453 92.3282 106.137 97.9069 102.022 102.022C97.9072 106.137 92.3285 108.453 86.5089 108.462ZM86.5089 66.3416C82.5195 66.3382 78.6187 67.5181 75.3 69.732C71.9813 71.9459 69.3938 75.0943 67.8648 78.7791C66.3357 82.4638 65.9339 86.5193 66.7101 90.4324C67.4863 94.3456 69.4057 97.9406 72.2254 100.763C75.0451 103.585 78.6385 105.507 82.551 106.287C86.4635 107.066 90.5193 106.668 94.2053 105.142C97.8914 103.616 101.042 101.031 103.259 97.7146C105.476 94.3977 106.659 90.498 106.659 86.5086C106.65 81.1657 104.524 76.044 100.748 72.2644C96.9716 68.4848 91.8517 66.3552 86.5089 66.3416Z" fill="url(#paint0_linear)"/>
<path opacity="0.9" d="M86.5088 115.643C80.7331 115.643 75.0871 113.93 70.2847 110.721C65.4823 107.512 61.7394 102.951 59.5291 97.6152C57.3188 92.2791 56.7405 86.4075 57.8673 80.7427C58.9941 75.0779 61.7754 69.8745 65.8594 65.7905C69.9435 61.7064 75.1469 58.9251 80.8117 57.7983C86.4764 56.6715 92.3481 57.2498 97.6842 59.4601C103.02 61.6704 107.581 65.4134 110.79 70.2157C113.999 75.0181 115.711 80.6641 115.711 86.4399C115.711 94.1849 112.635 101.613 107.158 107.089C101.682 112.566 94.2539 115.643 86.5088 115.643ZM86.5088 59.2642C81.1204 59.2642 75.853 60.8621 71.3727 63.8557C66.8924 66.8494 63.4004 71.1043 61.3383 76.0826C59.2763 81.0609 58.7367 86.5388 59.788 91.8237C60.8392 97.1086 63.434 101.963 67.2442 105.773C71.0543 109.583 75.9088 112.178 81.1937 113.229C86.4786 114.281 91.9565 113.741 96.9348 111.679C101.913 109.617 106.168 106.125 109.162 101.645C112.155 97.1644 113.753 91.897 113.753 86.5086C113.749 79.2843 110.877 72.3572 105.768 67.2489C100.66 62.1406 93.7331 59.2688 86.5088 59.2642Z" fill="url(#paint1_linear)"/>
<path opacity="0.8" d="M86.5083 122.806C79.3246 122.809 72.3012 120.682 66.3267 116.693C60.3522 112.704 55.695 107.033 52.9443 100.396C50.1937 93.7599 49.4731 86.4569 50.8737 79.411C52.2744 72.3651 55.7333 65.8929 60.813 60.8132C65.8927 55.7336 72.3649 52.2746 79.4108 50.874C86.4567 49.4733 93.7597 50.1939 100.396 52.9446C107.032 55.6952 112.704 60.3524 116.693 66.3269C120.682 72.3014 122.809 79.3248 122.806 86.5086C122.792 96.131 118.963 105.355 112.159 112.159C105.355 118.964 96.1307 122.792 86.5083 122.806ZM86.5083 52.1697C79.7133 52.1697 73.0709 54.1846 67.4211 57.9597C61.7713 61.7348 57.3678 67.1005 54.7674 73.3782C52.1671 79.656 51.4868 86.5638 52.8124 93.2283C54.138 99.8927 57.4101 106.014 62.2149 110.819C67.0197 115.624 73.1414 118.896 79.8058 120.222C86.4702 121.547 93.3781 120.867 99.6558 118.267C105.934 115.666 111.299 111.263 115.074 105.613C118.849 99.9631 120.864 93.3207 120.864 86.5257C120.864 77.4139 117.245 68.6753 110.802 62.2323C104.359 55.7893 95.6201 52.1697 86.5083 52.1697Z" fill="url(#paint2_linear)"/>
<path opacity="0.7" d="M86.5085 129.969C77.9079 129.972 69.4996 127.425 62.3471 122.649C55.1947 117.873 49.6194 111.083 46.3265 103.137C43.0337 95.1923 42.1712 86.4489 43.8483 78.0135C45.5253 69.5781 49.6665 61.8295 55.748 55.748C61.8295 49.6666 69.578 45.5254 78.0134 43.8483C86.4489 42.1713 95.1922 43.0337 103.137 46.3266C111.083 49.6194 117.873 55.1947 122.649 62.3472C127.425 69.4997 129.972 77.908 129.969 86.5085C129.955 98.0308 125.372 109.077 117.225 117.225C109.077 125.372 98.0307 129.955 86.5085 129.969ZM86.5085 45.0923C78.3171 45.0923 70.3097 47.5213 63.4988 52.0722C56.688 56.6231 51.3795 63.0914 48.2449 70.6592C45.1102 78.2271 44.29 86.5545 45.888 94.5884C47.4861 102.622 51.4306 110.002 57.2228 115.794C63.0149 121.586 70.3946 125.531 78.4286 127.129C86.4625 128.727 94.79 127.907 102.358 124.772C109.926 121.637 116.394 116.329 120.945 109.518C125.496 102.707 127.925 94.6999 127.925 86.5085C127.916 75.5271 123.549 64.998 115.784 57.2329C108.019 49.4678 97.4899 45.1014 86.5085 45.0923Z" fill="url(#paint3_linear)"/>
<path opacity="0.6" d="M86.5087 137.149C76.488 137.153 66.6915 134.184 58.3582 128.619C50.0249 123.054 43.5292 115.143 39.6929 105.885C35.8566 96.628 34.852 86.441 36.8061 76.6127C38.7602 66.7844 43.5852 57.7564 50.6709 50.6707C57.7566 43.585 66.7846 38.76 76.6129 36.8059C86.4412 34.8518 96.6282 35.8564 105.885 39.6927C115.143 43.5291 123.054 50.0247 128.619 58.358C134.184 66.6913 137.153 76.4879 137.15 86.5085C137.131 99.9337 131.79 112.804 122.297 122.297C112.804 131.79 99.9339 137.131 86.5087 137.149ZM86.5087 37.9978C76.9135 37.9944 67.5327 40.8366 59.5529 46.165C51.5731 51.4933 45.3527 59.0685 41.6784 67.9324C38.0041 76.7962 37.0409 86.5507 38.9108 95.962C40.7807 105.373 45.3995 114.019 52.1832 120.805C58.9668 127.591 67.6106 132.213 77.0212 134.086C86.4319 135.959 96.1867 134.999 105.052 131.328C113.917 127.657 121.494 121.439 126.826 113.461C132.157 105.484 135.002 96.1038 135.002 86.5085C134.989 73.6498 129.876 61.3215 120.785 52.2274C111.694 43.1333 99.3674 38.016 86.5087 37.9978Z" fill="url(#paint4_linear)"/>
<path opacity="0.5" d="M86.5085 144.295C75.0696 144.302 63.8857 140.916 54.3718 134.565C44.8578 128.214 37.4414 119.184 33.0608 108.617C28.6802 98.0504 27.5323 86.4217 29.7622 75.2022C31.9922 63.9828 37.4998 53.6769 45.5883 45.5884C53.6768 37.4999 63.9827 31.9922 75.2022 29.7623C86.4216 27.5323 98.0504 28.6803 108.617 33.0609C119.184 37.4415 128.214 44.8579 134.565 54.3718C140.916 63.8858 144.302 75.0696 144.295 86.5085C144.268 101.826 138.171 116.509 127.34 127.34C116.509 138.171 101.826 144.268 86.5085 144.295ZM86.5085 30.9204C75.5135 30.917 64.7644 34.1743 55.6207 40.2803C46.477 46.3864 39.3495 55.0669 35.1395 65.224C30.9295 75.3811 29.8262 86.5585 31.9692 97.3427C34.1121 108.127 39.405 118.033 47.1785 125.809C54.9519 133.585 64.8568 138.881 75.6403 141.027C86.4238 143.174 97.6016 142.074 107.76 137.867C117.918 133.66 126.601 126.535 132.71 117.393C138.819 108.252 142.079 97.5036 142.079 86.5085C142.066 71.7728 136.207 57.6443 125.789 47.2229C115.371 36.8016 101.244 30.9386 86.5085 30.9204Z" fill="url(#paint5_linear)"/>
<path opacity="0.4" d="M86.5082 151.493C73.6506 151.496 61.0808 147.687 50.3887 140.545C39.6966 133.404 31.3625 123.253 26.4405 111.374C21.5186 99.4962 20.2299 86.4251 22.7374 73.8144C25.245 61.2037 31.4362 49.62 40.5278 40.5283C49.6195 31.4366 61.2033 25.2454 73.814 22.7379C86.4247 20.2303 99.4958 21.519 111.374 26.441C123.252 31.3629 133.404 39.697 140.545 50.3891C147.686 61.0812 151.496 73.651 151.493 86.5086C151.47 103.737 144.616 120.252 132.434 132.434C120.252 144.617 103.736 151.47 86.5082 151.493ZM86.5082 23.8259C74.11 23.8225 61.9892 27.4959 51.6789 34.3815C41.3685 41.2671 33.3316 51.0556 28.5847 62.5091C23.8377 73.9625 22.594 86.5665 25.0107 98.7268C27.4273 110.887 33.3959 122.058 42.1616 130.826C50.9272 139.594 62.0962 145.566 74.2559 147.986C86.4156 150.406 99.0199 149.165 110.475 144.421C121.929 139.678 131.72 131.643 138.609 121.335C145.497 111.026 149.174 98.9068 149.174 86.5086C149.155 69.8927 142.548 53.9622 130.8 42.2114C119.053 30.4606 103.124 23.8487 86.5082 23.8259Z" fill="url(#paint6_linear)"/>
<path opacity="0.3" d="M86.5086 158.656C72.2391 158.656 58.2901 154.425 46.4255 146.497C34.5608 138.57 25.3135 127.302 19.8528 114.118C14.3921 100.935 12.9633 86.4285 15.7472 72.4332C18.531 58.4379 25.4024 45.5824 35.4925 35.4924C45.5825 25.4024 58.438 18.5309 72.4333 15.7471C86.4286 12.9633 100.935 14.392 114.118 19.8527C127.302 25.3134 138.57 34.5608 146.497 46.4254C154.425 58.2901 158.656 72.2391 158.656 86.5086C158.656 105.643 151.055 123.994 137.525 137.525C123.994 151.055 105.643 158.656 86.5086 158.656ZM86.5086 16.7486C72.7136 16.7587 59.2313 20.8588 47.7661 28.5303C36.3009 36.2018 27.3676 47.1004 22.0955 59.8482C16.8235 72.5961 15.4493 86.6209 18.1469 100.15C20.8444 113.678 27.4924 126.104 37.2506 135.855C47.0088 145.605 59.4389 152.244 72.9696 154.932C86.5003 157.619 100.524 156.235 113.268 150.953C126.012 145.672 136.904 136.731 144.567 125.26C152.23 113.789 156.32 100.304 156.32 86.5086C156.302 68.0037 148.939 50.2628 135.85 37.1827C122.76 24.1026 105.013 16.7531 86.5086 16.7486Z" fill="url(#paint7_linear)"/>
<path opacity="0.2" d="M86.5086 165.837C70.8141 165.84 55.4711 161.189 42.4202 152.472C29.3693 143.755 19.1967 131.363 13.1891 116.863C7.18153 102.364 5.60878 86.4092 8.66979 71.0161C11.7308 55.623 19.2881 41.4834 30.3857 30.3857C41.4834 19.2881 55.623 11.7308 71.0161 8.66979C86.4092 5.60878 102.364 7.18153 116.863 13.1891C131.363 19.1967 143.755 29.3693 152.472 42.4202C161.189 55.4711 165.84 70.8141 165.837 86.5086C165.809 107.539 157.443 127.701 142.572 142.572C127.701 157.443 107.539 165.809 86.5086 165.837ZM86.5086 9.65402C71.3074 9.65063 56.4467 14.1552 43.8058 22.598C31.1649 31.0408 21.3116 43.0427 15.492 57.0857C9.67241 71.1287 8.14798 86.5821 11.1115 101.492C14.075 116.401 21.3933 130.097 32.1409 140.847C42.8886 151.597 56.5827 158.918 71.4915 161.885C86.4003 164.852 101.854 163.331 115.898 157.515C129.943 151.698 141.947 141.847 150.392 129.208C158.838 116.569 163.346 101.71 163.346 86.5086C163.323 66.1354 155.221 46.603 140.817 32.1954C126.412 17.7878 106.882 9.6813 86.5086 9.65402Z" fill="url(#paint8_linear)"/>
<path opacity="0.1" d="M86.5092 173.001C69.398 173.004 52.67 167.933 38.4411 158.428C24.2122 148.924 13.1216 135.413 6.5718 119.605C0.0220393 103.797 -1.69257 86.4019 1.64484 69.6193C4.98224 52.8367 13.2217 37.4208 25.3212 25.3213C37.4207 13.2218 52.8366 4.9823 69.6192 1.6449C86.4019 -1.69251 103.797 0.0221003 119.605 6.57186C135.413 13.1216 148.924 24.2123 158.428 38.4412C167.933 52.6701 173.004 69.398 173.001 86.5093C172.973 109.44 163.852 131.423 147.638 147.638C131.423 163.852 109.44 172.973 86.5092 173.001ZM86.5092 2.57738C69.9083 2.57398 53.6793 7.49361 39.8745 16.7141C26.0697 25.9346 15.3092 39.0418 8.95401 54.378C2.59877 69.7143 0.934185 86.5907 4.17077 102.873C7.40737 119.155 15.3997 134.112 27.1371 145.852C38.8745 157.592 53.8298 165.587 70.1114 168.827C86.3931 172.067 103.27 170.406 118.607 164.054C133.945 157.702 147.054 146.944 156.278 133.141C165.501 119.338 170.424 103.11 170.424 86.5093C170.397 64.2605 161.547 42.9305 145.817 27.1966C130.086 11.4628 108.758 2.6092 86.5092 2.57738Z" fill="url(#paint9_linear)"/>
<path d="M86.5083 71.7183C83.5853 71.7285 80.7308 72.6046 78.3053 74.2359C75.8799 75.8673 73.9922 78.1808 72.8806 80.8842C71.7691 83.5877 71.4835 86.5599 72.06 89.4255C72.6365 92.2911 74.0492 94.9217 76.1197 96.985C78.1902 99.0483 80.8257 100.452 83.6933 101.018C86.5609 101.585 89.5321 101.289 92.2317 100.168C94.9312 99.0471 97.2381 97.1514 98.861 94.7203C100.484 92.2891 101.35 89.4316 101.35 86.5086C101.348 84.5626 100.962 82.6361 100.215 80.8394C99.4674 79.0426 98.3733 77.4107 96.9949 76.0371C95.6165 74.6634 93.9808 73.575 92.1814 72.8339C90.3821 72.0929 88.4543 71.7138 86.5083 71.7183Z" fill="url(#paint10_linear)"/>
</g>
<defs>
<linearGradient id="paint0_linear" x1="64.521" y1="64.5207" x2="109.667" y2="65.7956" gradientUnits="userSpaceOnUse">
<stop stop-color="#E21C1B"/>
<stop offset="1" stop-color="#E5211B"/>
</linearGradient>
<linearGradient id="paint1_linear" x1="57.3062" y1="57.2372" x2="117.313" y2="58.9317" gradientUnits="userSpaceOnUse">
<stop stop-color="#E21C1B"/>
<stop offset="1" stop-color="#E5211B"/>
</linearGradient>
<linearGradient id="paint2_linear" x1="50.1768" y1="50.177" x2="124.797" y2="52.2842" gradientUnits="userSpaceOnUse">
<stop stop-color="#E21C1B"/>
<stop offset="1" stop-color="#E5211B"/>
</linearGradient>
<linearGradient id="paint3_linear" x1="43.0137" y1="43.0137" x2="132.353" y2="45.5366" gradientUnits="userSpaceOnUse">
<stop stop-color="#E21C1B"/>
<stop offset="1" stop-color="#E5211B"/>
</linearGradient>
<linearGradient id="paint4_linear" x1="35.8335" y1="35.8333" x2="139.928" y2="38.7728" gradientUnits="userSpaceOnUse">
<stop stop-color="#E21C1B"/>
<stop offset="1" stop-color="#E5211B"/>
</linearGradient>
<linearGradient id="paint5_linear" x1="28.6528" y1="28.6529" x2="147.466" y2="32.008" gradientUnits="userSpaceOnUse">
<stop stop-color="#E21C1B"/>
<stop offset="1" stop-color="#E5211B"/>
</linearGradient>
<linearGradient id="paint6_linear" x1="21.4893" y1="21.4897" x2="155.057" y2="25.2615" gradientUnits="userSpaceOnUse">
<stop stop-color="#E21C1B"/>
<stop offset="1" stop-color="#E5211B"/>
</linearGradient>
<linearGradient id="paint7_linear" x1="14.3608" y1="14.3608" x2="162.613" y2="18.5472" gradientUnits="userSpaceOnUse">
<stop stop-color="#E21C1B"/>
<stop offset="1" stop-color="#E5211B"/>
</linearGradient>
<linearGradient id="paint8_linear" x1="7.146" y1="7.146" x2="170.188" y2="11.7501" gradientUnits="userSpaceOnUse">
<stop stop-color="#E21C1B"/>
<stop offset="1" stop-color="#E5211B"/>
</linearGradient>
<linearGradient id="paint9_linear" x1="-0.0166016" y1="-0.0165405" x2="177.745" y2="5.00323" gradientUnits="userSpaceOnUse">
<stop stop-color="#E21C1B"/>
<stop offset="1" stop-color="#E5211B"/>
</linearGradient>
<linearGradient id="paint10_linear" x1="71.7695" y1="71.7183" x2="102.161" y2="72.5765" gradientUnits="userSpaceOnUse">
<stop stop-color="#E21C1B"/>
<stop offset="1" stop-color="#E5211B"/>
</linearGradient>
<clipPath id="clip0">
<rect width="173" height="173" fill="white"/>
</clipPath>
</defs>
</svg>
