<svg width="198" height="198" viewBox="0 0 198 198" fill="none" xmlns="http://www.w3.org/2000/svg">
<g filter="url(#filter0_ddddii)">
<circle cx="97.9368" cy="97.925" r="85.925" fill="#FF6962"/>
<circle cx="97.9368" cy="97.925" r="85.925" fill="url(#paint0_linear)"/>
</g>
<path d="M72.1137 78.8065H83.6118V81.4318H75.3902V84.3623H79.3382C81.0612 84.3623 82.3704 84.7218 83.2659 85.4409C84.1749 86.1599 84.6294 87.1978 84.6294 88.5545C84.6294 89.9791 84.1274 91.0848 83.1234 91.8717C82.1195 92.6586 80.7017 93.052 78.8701 93.052H72.1137V78.8065ZM78.687 90.6099C79.5281 90.6099 80.1726 90.4471 80.6203 90.1215C81.068 89.7823 81.2919 89.2939 81.2919 88.6563C81.2919 87.4081 80.4236 86.784 78.687 86.784H75.3902V90.6099H78.687ZM92.0224 93.2148C90.8692 93.2148 89.8313 92.9774 88.9087 92.5025C87.9997 92.0141 87.2875 91.3425 86.7719 90.4878C86.2564 89.6331 85.9986 88.663 85.9986 87.5777C85.9986 86.4923 86.2564 85.5223 86.7719 84.6675C87.2875 83.8128 87.9997 83.148 88.9087 82.6732C89.8313 82.1847 90.8692 81.9405 92.0224 81.9405C93.1756 81.9405 94.2067 82.1847 95.1157 82.6732C96.0247 83.148 96.737 83.8128 97.2525 84.6675C97.7681 85.5223 98.0258 86.4923 98.0258 87.5777C98.0258 88.663 97.7681 89.6331 97.2525 90.4878C96.737 91.3425 96.0247 92.0141 95.1157 92.5025C94.2067 92.9774 93.1756 93.2148 92.0224 93.2148ZM92.0224 90.6099C92.8364 90.6099 93.5012 90.3386 94.0167 89.7959C94.5459 89.2396 94.8104 88.5002 94.8104 87.5777C94.8104 86.6551 94.5459 85.9225 94.0167 85.3798C93.5012 84.8235 92.8364 84.5454 92.0224 84.5454C91.2084 84.5454 90.5368 84.8235 90.0077 85.3798C89.4785 85.9225 89.214 86.6551 89.214 87.5777C89.214 88.5002 89.4785 89.2396 90.0077 89.7959C90.5368 90.3386 91.2084 90.6099 92.0224 90.6099ZM110.551 82.1033V93.052H107.377V84.7082H103.917L103.815 86.6415C103.761 88.0797 103.625 89.2736 103.408 90.2233C103.191 91.173 102.838 91.9191 102.35 92.4618C101.862 93.0045 101.183 93.2759 100.315 93.2759C99.8537 93.2759 99.3042 93.1945 98.6666 93.0317L98.8294 90.4268C99.0464 90.4539 99.2025 90.4675 99.2974 90.4675C99.7723 90.4675 100.125 90.2979 100.356 89.9587C100.6 89.606 100.763 89.165 100.844 88.6359C100.925 88.0932 100.987 87.3809 101.027 86.4991L101.19 82.1033H110.551ZM119.526 85.6037C120.951 85.6172 122.043 85.9428 122.803 86.5805C123.563 87.2046 123.942 88.0932 123.942 89.2464C123.942 90.4539 123.515 91.3968 122.66 92.0752C121.819 92.74 120.632 93.0724 119.099 93.0724L113.604 93.052V82.1033H116.759V85.6037H119.526ZM118.814 90.8134C119.425 90.827 119.893 90.6981 120.218 90.4268C120.544 90.1554 120.707 89.7484 120.707 89.2057C120.707 88.6766 120.544 88.2899 120.218 88.0457C119.906 87.8015 119.438 87.6726 118.814 87.6591L116.759 87.6387V90.8134H118.814ZM56.9913 112.333C58.2802 112.768 58.9246 113.636 58.9246 114.938C58.9246 115.929 58.5515 116.695 57.8054 117.238C57.0592 117.781 55.9467 118.052 54.4678 118.052H48.6272V107.103H54.2236C55.5939 107.103 56.6657 107.354 57.439 107.856C58.2124 108.345 58.599 109.037 58.599 109.932C58.599 110.475 58.4566 110.956 58.1717 111.377C57.9003 111.784 57.5069 112.103 56.9913 112.333ZM51.5374 111.601H53.9387C55.0512 111.601 55.6075 111.207 55.6075 110.421C55.6075 109.647 55.0512 109.261 53.9387 109.261H51.5374V111.601ZM54.2033 115.895C55.3701 115.895 55.9534 115.495 55.9534 114.694C55.9534 114.274 55.8178 113.968 55.5464 113.778C55.2751 113.575 54.8477 113.473 54.2643 113.473H51.5374V115.895H54.2033ZM77.897 113.9H76.3707V118.052H73.2367V113.9H71.7104L69.3905 118.052H65.6459L69.0852 112.395L65.8901 107.103H69.248L71.6697 111.357H73.2367V107.103H76.3707V111.357H77.9174L80.3595 107.103H83.7173L80.5223 112.395L83.9819 118.052H80.217L77.897 113.9ZM85.632 107.103H88.7864V113.616L94.1183 107.103H97.0284V118.052H93.8741V111.54L88.5625 118.052H85.632V107.103ZM108.444 112.333C109.733 112.768 110.378 113.636 110.378 114.938C110.378 115.929 110.005 116.695 109.258 117.238C108.512 117.781 107.4 118.052 105.921 118.052H100.08V107.103H105.677C107.047 107.103 108.119 107.354 108.892 107.856C109.665 108.345 110.052 109.037 110.052 109.932C110.052 110.475 109.91 110.956 109.625 111.377C109.353 111.784 108.96 112.103 108.444 112.333ZM102.99 111.601H105.392C106.504 111.601 107.06 111.207 107.06 110.421C107.06 109.647 106.504 109.261 105.392 109.261H102.99V111.601ZM105.656 115.895C106.823 115.895 107.406 115.495 107.406 114.694C107.406 114.274 107.271 113.968 106.999 113.778C106.728 113.575 106.301 113.473 105.717 113.473H102.99V115.895H105.656ZM117.868 118.215C116.715 118.215 115.677 117.977 114.754 117.503C113.845 117.014 113.133 116.343 112.618 115.488C112.102 114.633 111.844 113.663 111.844 112.578C111.844 111.492 112.102 110.522 112.618 109.668C113.133 108.813 113.845 108.148 114.754 107.673C115.677 107.185 116.715 106.941 117.868 106.941C119.021 106.941 120.052 107.185 120.961 107.673C121.87 108.148 122.583 108.813 123.098 109.668C123.614 110.522 123.872 111.492 123.872 112.578C123.872 113.663 123.614 114.633 123.098 115.488C122.583 116.343 121.87 117.014 120.961 117.503C120.052 117.977 119.021 118.215 117.868 118.215ZM117.868 115.61C118.682 115.61 119.347 115.339 119.862 114.796C120.392 114.24 120.656 113.5 120.656 112.578C120.656 111.655 120.392 110.922 119.862 110.38C119.347 109.824 118.682 109.545 117.868 109.545C117.054 109.545 116.383 109.824 115.853 110.38C115.324 110.922 115.06 111.655 115.06 112.578C115.06 113.5 115.324 114.24 115.853 114.796C116.383 115.339 117.054 115.61 117.868 115.61ZM134.856 109.708L131.152 109.708V118.052H127.998V109.708H124.294V107.103L134.856 107.103V109.708ZM146.735 112.618C146.735 112.659 146.714 112.944 146.674 113.473H138.391C138.54 114.151 138.893 114.687 139.449 115.081C140.005 115.474 140.697 115.671 141.525 115.671C142.095 115.671 142.597 115.59 143.031 115.427C143.479 115.25 143.892 114.979 144.272 114.613L145.961 116.444C144.93 117.625 143.424 118.215 141.444 118.215C140.209 118.215 139.117 117.977 138.167 117.503C137.217 117.014 136.485 116.343 135.969 115.488C135.454 114.633 135.196 113.663 135.196 112.578C135.196 111.506 135.447 110.543 135.949 109.688C136.464 108.82 137.163 108.148 138.045 107.673C138.94 107.185 139.938 106.941 141.037 106.941C142.108 106.941 143.078 107.171 143.947 107.632C144.815 108.094 145.493 108.759 145.982 109.627C146.484 110.482 146.735 111.479 146.735 112.618ZM141.057 109.342C140.338 109.342 139.734 109.545 139.246 109.952C138.757 110.359 138.459 110.916 138.35 111.621H143.743C143.635 110.929 143.336 110.38 142.848 109.973C142.359 109.552 141.762 109.342 141.057 109.342Z" fill="#FFF5F3"/>
<defs>
<filter id="filter0_ddddii" x="0.0117188" y="0" width="197.85" height="197.85" filterUnits="userSpaceOnUse" color-interpolation-filters="sRGB">
<feFlood flood-opacity="0" result="BackgroundImageFix"/>
<feColorMatrix in="SourceAlpha" type="matrix" values="0 0 0 0 0 0 0 0 0 0 0 0 0 0 0 0 0 0 127 0"/>
<feOffset dx="4" dy="4"/>
<feGaussianBlur stdDeviation="5"/>
<feColorMatrix type="matrix" values="0 0 0 0 0.886275 0 0 0 0 0.121569 0 0 0 0 0.105882 0 0 0 0.9 0"/>
<feBlend mode="normal" in2="BackgroundImageFix" result="effect1_dropShadow"/>
<feColorMatrix in="SourceAlpha" type="matrix" values="0 0 0 0 0 0 0 0 0 0 0 0 0 0 0 0 0 0 127 0"/>
<feOffset dx="-4" dy="-4"/>
<feGaussianBlur stdDeviation="4"/>
<feColorMatrix type="matrix" values="0 0 0 0 0.901961 0 0 0 0 0.121569 0 0 0 0 0.105882 0 0 0 0.9 0"/>
<feBlend mode="normal" in2="effect1_dropShadow" result="effect2_dropShadow"/>
<feColorMatrix in="SourceAlpha" type="matrix" values="0 0 0 0 0 0 0 0 0 0 0 0 0 0 0 0 0 0 127 0"/>
<feOffset dx="4" dy="-4"/>
<feGaussianBlur stdDeviation="4"/>
<feColorMatrix type="matrix" values="0 0 0 0 0.886275 0 0 0 0 0.121569 0 0 0 0 0.105882 0 0 0 0.2 0"/>
<feBlend mode="normal" in2="effect2_dropShadow" result="effect3_dropShadow"/>
<feColorMatrix in="SourceAlpha" type="matrix" values="0 0 0 0 0 0 0 0 0 0 0 0 0 0 0 0 0 0 127 0"/>
<feOffset dx="-4" dy="4"/>
<feGaussianBlur stdDeviation="4"/>
<feColorMatrix type="matrix" values="0 0 0 0 0.886275 0 0 0 0 0.121569 0 0 0 0 0.105882 0 0 0 0.2 0"/>
<feBlend mode="normal" in2="effect3_dropShadow" result="effect4_dropShadow"/>
<feBlend mode="normal" in="SourceGraphic" in2="effect4_dropShadow" result="shape"/>
<feColorMatrix in="SourceAlpha" type="matrix" values="0 0 0 0 0 0 0 0 0 0 0 0 0 0 0 0 0 0 127 0" result="hardAlpha"/>
<feOffset dx="-1" dy="-1"/>
<feGaussianBlur stdDeviation="1"/>
<feComposite in2="hardAlpha" operator="arithmetic" k2="-1" k3="1"/>
<feColorMatrix type="matrix" values="0 0 0 0 0.886275 0 0 0 0 0.121569 0 0 0 0 0.105882 0 0 0 0.5 0"/>
<feBlend mode="normal" in2="shape" result="effect5_innerShadow"/>
<feColorMatrix in="SourceAlpha" type="matrix" values="0 0 0 0 0 0 0 0 0 0 0 0 0 0 0 0 0 0 127 0" result="hardAlpha"/>
<feOffset dx="1" dy="1"/>
<feGaussianBlur stdDeviation="1"/>
<feComposite in2="hardAlpha" operator="arithmetic" k2="-1" k3="1"/>
<feColorMatrix type="matrix" values="0 0 0 0 0.901961 0 0 0 0 0.121569 0 0 0 0 0.105882 0 0 0 0.3 0"/>
<feBlend mode="normal" in2="effect5_innerShadow" result="effect6_innerShadow"/>
</filter>
<linearGradient id="paint0_linear" x1="12.0117" y1="12" x2="183.862" y2="183.85" gradientUnits="userSpaceOnUse">
<stop stop-color="#EF211C"/>
<stop offset="1" stop-color="#D91D1A"/>
</linearGradient>
</defs>
</svg>
