<svg width="198" height="198" viewBox="0 0 198 198" fill="none" xmlns="http://www.w3.org/2000/svg">
<g filter="url(#filter0_ddddii)">
<circle cx="97.925" cy="97.925" r="85.925" fill="#FF6962"/>
<circle cx="97.925" cy="97.925" r="85.925" fill="url(#paint0_linear)"/>
</g>
<path d="M49.8287 105.489L49.8083 96.9617L45.6161 103.983H44.1508L39.9586 97.1245V105.489H36.8653V91.2431H39.5923L44.9242 100.096L50.1746 91.2431H52.9016L52.922 105.489H49.8287ZM66.86 100.055C66.86 100.096 66.8396 100.381 66.7989 100.91H58.5162C58.6654 101.588 59.0182 102.124 59.5744 102.517C60.1307 102.911 60.8226 103.108 61.6502 103.108C62.22 103.108 62.722 103.026 63.1561 102.863C63.6039 102.687 64.0176 102.416 64.3975 102.049L66.0866 103.881C65.0555 105.061 63.5496 105.651 61.5688 105.651C60.3342 105.651 59.242 105.414 58.2923 104.939C57.3426 104.451 56.61 103.779 56.0945 102.924C55.5789 102.07 55.3211 101.1 55.3211 100.014C55.3211 98.9425 55.5721 97.9792 56.0741 97.1245C56.5897 96.2562 57.2884 95.5846 58.1702 95.1097C59.0657 94.6213 60.0628 94.3771 61.1618 94.3771C62.2336 94.3771 63.2036 94.6078 64.0719 95.069C64.9402 95.5303 65.6186 96.1951 66.107 97.0634C66.609 97.9181 66.86 98.9153 66.86 100.055ZM61.1821 96.7785C60.4631 96.7785 59.8593 96.982 59.3709 97.389C58.8825 97.796 58.584 98.3523 58.4755 99.0578H63.8684C63.7599 98.3659 63.4614 97.8164 62.973 97.4094C62.4846 96.9888 61.8876 96.7785 61.1821 96.7785ZM78.1144 97.1448H74.4105V105.489H71.2562V97.1448H67.5524V94.5399H78.1144V97.1448ZM89.9929 100.055C89.9929 100.096 89.9726 100.381 89.9319 100.91H81.6492C81.7984 101.588 82.1512 102.124 82.7074 102.517C83.2637 102.911 83.9556 103.108 84.7832 103.108C85.353 103.108 85.855 103.026 86.2891 102.863C86.7368 102.687 87.1506 102.416 87.5305 102.049L89.2196 103.881C88.1885 105.061 86.6826 105.651 84.7018 105.651C83.4672 105.651 82.375 105.414 81.4253 104.939C80.4756 104.451 79.743 103.779 79.2274 102.924C78.7119 102.07 78.4541 101.1 78.4541 100.014C78.4541 98.9425 78.7051 97.9792 79.2071 97.1245C79.7226 96.2562 80.4213 95.5846 81.3032 95.1097C82.1986 94.6213 83.1958 94.3771 84.2948 94.3771C85.3666 94.3771 86.3366 94.6078 87.2049 95.069C88.0732 95.5303 88.7516 96.1951 89.24 97.0634C89.742 97.9181 89.9929 98.9153 89.9929 100.055ZM84.3151 96.7785C83.5961 96.7785 82.9923 96.982 82.5039 97.389C82.0155 97.796 81.717 98.3523 81.6085 99.0578H87.0014C86.8929 98.3659 86.5944 97.8164 86.106 97.4094C85.6176 96.9888 85.0206 96.7785 84.3151 96.7785ZM97.5548 105.651C96.4016 105.651 95.3637 105.414 94.4412 104.939C93.5322 104.451 92.8199 103.779 92.3043 102.924C91.7888 102.07 91.531 101.1 91.531 100.014C91.531 98.9289 91.7888 97.9588 92.3043 97.1041C92.8199 96.2494 93.5322 95.5846 94.4412 95.1097C95.3637 94.6213 96.4016 94.3771 97.5548 94.3771C98.708 94.3771 99.7391 94.6213 100.648 95.1097C101.557 95.5846 102.269 96.2494 102.785 97.1041C103.3 97.9588 103.558 98.9289 103.558 100.014C103.558 101.1 103.3 102.07 102.785 102.924C102.269 103.779 101.557 104.451 100.648 104.939C99.7391 105.414 98.708 105.651 97.5548 105.651ZM97.5548 103.047C98.3688 103.047 99.0336 102.775 99.5492 102.232C100.078 101.676 100.343 100.937 100.343 100.014C100.343 99.0917 100.078 98.3591 99.5492 97.8164C99.0336 97.2601 98.3688 96.982 97.5548 96.982C96.7408 96.982 96.0692 97.2601 95.5401 97.8164C95.011 98.3591 94.7464 99.0917 94.7464 100.014C94.7464 100.937 95.011 101.676 95.5401 102.232C96.0692 102.775 96.7408 103.047 97.5548 103.047ZM112.193 94.3771C113.211 94.3771 114.133 94.6145 114.961 95.0894C115.802 95.5507 116.46 96.2087 116.935 97.0634C117.41 97.9046 117.647 98.8882 117.647 100.014C117.647 101.14 117.41 102.131 116.935 102.985C116.46 103.827 115.802 104.485 114.961 104.959C114.133 105.421 113.211 105.651 112.193 105.651C110.796 105.651 109.697 105.21 108.896 104.329V109.437L105.721 109.437V94.5399H108.754V95.8017C109.541 94.852 110.687 94.3771 112.193 94.3771ZM111.644 103.047C112.458 103.047 113.122 102.775 113.638 102.232C114.167 101.676 114.432 100.937 114.432 100.014C114.432 99.0917 114.167 98.3591 113.638 97.8164C113.122 97.2601 112.458 96.982 111.644 96.982C110.829 96.982 110.158 97.2601 109.629 97.8164C109.113 98.3591 108.855 99.0917 108.855 100.014C108.855 100.937 109.113 101.676 109.629 102.232C110.158 102.775 110.829 103.047 111.644 103.047ZM119.872 94.5399H123.026V101.052L128.358 94.5399H131.268V105.489H128.114V98.9764L122.803 105.489H119.872V94.5399ZM141.323 99.7904C141.974 99.9939 142.476 100.306 142.829 100.727C143.195 101.147 143.379 101.649 143.379 102.232C143.379 102.924 143.141 103.535 142.666 104.064C142.192 104.58 141.54 104.98 140.713 105.265C139.885 105.55 138.949 105.692 137.904 105.692C137.05 105.692 136.208 105.604 135.381 105.428C134.553 105.251 133.787 104.987 133.081 104.634L133.936 102.416C135.089 102.972 136.364 103.25 137.762 103.25C138.508 103.25 139.091 103.141 139.512 102.924C139.946 102.694 140.163 102.375 140.163 101.968C140.163 101.615 140.014 101.351 139.716 101.174C139.417 100.984 138.983 100.889 138.413 100.889H136.174V98.9153H138.128C138.684 98.9153 139.112 98.8271 139.41 98.6508C139.709 98.4744 139.858 98.2166 139.858 97.8774C139.858 97.5247 139.668 97.2533 139.288 97.0634C138.922 96.8735 138.393 96.7785 137.701 96.7785C136.643 96.7785 135.489 97.0295 134.241 97.5315L133.468 95.3336C134.987 94.6688 136.466 94.3364 137.904 94.3364C138.895 94.3364 139.777 94.4585 140.55 94.7027C141.337 94.9469 141.954 95.3065 142.402 95.7813C142.85 96.2426 143.073 96.7853 143.073 97.4094C143.073 97.9249 142.917 98.393 142.605 98.8136C142.293 99.2206 141.866 99.5462 141.323 99.7904ZM156.372 105.489V98.9357L153.096 104.43H151.752L148.557 98.9153V105.489H145.688V94.5399H149.005L152.505 100.869L156.23 94.5399H159.201L159.241 105.489H156.372Z" fill="#FFF5F3"/>
<defs>
<filter id="filter0_ddddii" x="0" y="0" width="197.85" height="197.85" filterUnits="userSpaceOnUse" color-interpolation-filters="sRGB">
<feFlood flood-opacity="0" result="BackgroundImageFix"/>
<feColorMatrix in="SourceAlpha" type="matrix" values="0 0 0 0 0 0 0 0 0 0 0 0 0 0 0 0 0 0 127 0"/>
<feOffset dx="4" dy="4"/>
<feGaussianBlur stdDeviation="5"/>
<feColorMatrix type="matrix" values="0 0 0 0 0.886275 0 0 0 0 0.121569 0 0 0 0 0.105882 0 0 0 0.9 0"/>
<feBlend mode="normal" in2="BackgroundImageFix" result="effect1_dropShadow"/>
<feColorMatrix in="SourceAlpha" type="matrix" values="0 0 0 0 0 0 0 0 0 0 0 0 0 0 0 0 0 0 127 0"/>
<feOffset dx="-4" dy="-4"/>
<feGaussianBlur stdDeviation="4"/>
<feColorMatrix type="matrix" values="0 0 0 0 0.901961 0 0 0 0 0.121569 0 0 0 0 0.105882 0 0 0 0.9 0"/>
<feBlend mode="normal" in2="effect1_dropShadow" result="effect2_dropShadow"/>
<feColorMatrix in="SourceAlpha" type="matrix" values="0 0 0 0 0 0 0 0 0 0 0 0 0 0 0 0 0 0 127 0"/>
<feOffset dx="4" dy="-4"/>
<feGaussianBlur stdDeviation="4"/>
<feColorMatrix type="matrix" values="0 0 0 0 0.886275 0 0 0 0 0.121569 0 0 0 0 0.105882 0 0 0 0.2 0"/>
<feBlend mode="normal" in2="effect2_dropShadow" result="effect3_dropShadow"/>
<feColorMatrix in="SourceAlpha" type="matrix" values="0 0 0 0 0 0 0 0 0 0 0 0 0 0 0 0 0 0 127 0"/>
<feOffset dx="-4" dy="4"/>
<feGaussianBlur stdDeviation="4"/>
<feColorMatrix type="matrix" values="0 0 0 0 0.886275 0 0 0 0 0.121569 0 0 0 0 0.105882 0 0 0 0.2 0"/>
<feBlend mode="normal" in2="effect3_dropShadow" result="effect4_dropShadow"/>
<feBlend mode="normal" in="SourceGraphic" in2="effect4_dropShadow" result="shape"/>
<feColorMatrix in="SourceAlpha" type="matrix" values="0 0 0 0 0 0 0 0 0 0 0 0 0 0 0 0 0 0 127 0" result="hardAlpha"/>
<feOffset dx="-1" dy="-1"/>
<feGaussianBlur stdDeviation="1"/>
<feComposite in2="hardAlpha" operator="arithmetic" k2="-1" k3="1"/>
<feColorMatrix type="matrix" values="0 0 0 0 0.886275 0 0 0 0 0.121569 0 0 0 0 0.105882 0 0 0 0.5 0"/>
<feBlend mode="normal" in2="shape" result="effect5_innerShadow"/>
<feColorMatrix in="SourceAlpha" type="matrix" values="0 0 0 0 0 0 0 0 0 0 0 0 0 0 0 0 0 0 127 0" result="hardAlpha"/>
<feOffset dx="1" dy="1"/>
<feGaussianBlur stdDeviation="1"/>
<feComposite in2="hardAlpha" operator="arithmetic" k2="-1" k3="1"/>
<feColorMatrix type="matrix" values="0 0 0 0 0.901961 0 0 0 0 0.121569 0 0 0 0 0.105882 0 0 0 0.3 0"/>
<feBlend mode="normal" in2="effect5_innerShadow" result="effect6_innerShadow"/>
</filter>
<linearGradient id="paint0_linear" x1="12" y1="12" x2="183.85" y2="183.85" gradientUnits="userSpaceOnUse">
<stop stop-color="#EF211C"/>
<stop offset="1" stop-color="#D91D1A"/>
</linearGradient>
</defs>
</svg>
