<svg width="199" height="198" viewBox="0 0 199 198" fill="none" xmlns="http://www.w3.org/2000/svg">
<g filter="url(#filter0_ddddii)">
<circle cx="98.4309" cy="97.925" r="85.925" fill="#FF6962"/>
<circle cx="98.4309" cy="97.925" r="85.925" fill="url(#paint0_linear)"/>
</g>
<path d="M73.2281 102.802V108.439H70.1755V105.489H60.1222V108.439H57.0696L57.09 102.802H57.6598C58.5145 102.775 59.1183 102.151 59.471 100.93C59.8238 99.7089 60.0408 97.9656 60.1222 95.6999L60.285 91.2431H71.2337V102.802H73.2281ZM63.0324 96.0051C62.9645 97.701 62.8221 99.1255 62.605 100.279C62.3879 101.418 62.0555 102.26 61.6078 102.802H67.9776V93.9293H63.0934L63.0324 96.0051ZM75.2032 94.5399H78.3575V101.052L83.6894 94.5399H86.5996V105.489H83.4452V98.9763L78.1337 105.489H75.2032V94.5399ZM93.9047 94.3771C95.6005 94.3771 96.903 94.7841 97.812 95.5981C98.721 96.3986 99.1755 97.6128 99.1755 99.2409V105.489H96.2043V104.125C95.6073 105.143 94.4948 105.651 92.8668 105.651C92.0256 105.651 91.293 105.509 90.6689 105.224C90.0584 104.939 89.5903 104.546 89.2647 104.044C88.9391 103.542 88.7763 102.972 88.7763 102.334C88.7763 101.317 89.1562 100.516 89.9159 99.9328C90.6893 99.3494 91.8764 99.0577 93.4773 99.0577H96.0008C96.0008 98.3658 95.7905 97.8367 95.3699 97.4704C94.9493 97.0905 94.3185 96.9005 93.4773 96.9005C92.8939 96.9005 92.3173 96.9955 91.7475 97.1855C91.1912 97.3618 90.7164 97.606 90.3229 97.9181L89.1833 95.6999C89.7803 95.2793 90.4925 94.9537 91.3201 94.723C92.1613 94.4924 93.0228 94.3771 93.9047 94.3771ZM93.6605 103.515C94.2031 103.515 94.6848 103.392 95.1054 103.148C95.5259 102.89 95.8244 102.517 96.0008 102.029V100.91H93.8233C92.5208 100.91 91.8696 101.337 91.8696 102.192C91.8696 102.599 92.0256 102.924 92.3377 103.169C92.6633 103.399 93.1042 103.515 93.6605 103.515ZM108.384 94.3771C109.402 94.3771 110.325 94.6145 111.152 95.0893C111.993 95.5506 112.651 96.2086 113.126 97.0633C113.601 97.9045 113.838 98.8881 113.838 100.014C113.838 101.14 113.601 102.131 113.126 102.985C112.651 103.827 111.993 104.485 111.152 104.959C110.325 105.421 109.402 105.651 108.384 105.651C106.987 105.651 105.888 105.21 105.088 104.329V109.437H101.913V94.5399H104.945V95.8016C105.732 94.8519 106.879 94.3771 108.384 94.3771ZM107.835 103.046C108.649 103.046 109.314 102.775 109.829 102.232C110.358 101.676 110.623 100.937 110.623 100.014C110.623 99.0916 110.358 98.359 109.829 97.8163C109.314 97.2601 108.649 96.9819 107.835 96.9819C107.021 96.9819 106.349 97.2601 105.82 97.8163C105.305 98.359 105.047 99.0916 105.047 100.014C105.047 100.937 105.305 101.676 105.82 102.232C106.349 102.775 107.021 103.046 107.835 103.046ZM126.707 100.055C126.707 100.096 126.687 100.381 126.646 100.91L118.363 100.91C118.512 101.588 118.865 102.124 119.421 102.517C119.978 102.911 120.67 103.107 121.497 103.107C122.067 103.107 122.569 103.026 123.003 102.863C123.451 102.687 123.865 102.416 124.244 102.049L125.934 103.881C124.902 105.061 123.397 105.651 121.416 105.651C120.181 105.651 119.089 105.414 118.139 104.939C117.19 104.451 116.457 103.779 115.941 102.924C115.426 102.07 115.168 101.1 115.168 100.014C115.168 98.9424 115.419 97.9791 115.921 97.1244C116.437 96.2561 117.135 95.5845 118.017 95.1097C118.913 94.6213 119.91 94.3771 121.009 94.3771C122.081 94.3771 123.051 94.6077 123.919 95.069C124.787 95.5303 125.466 96.1951 125.954 97.0633C126.456 97.9181 126.707 98.9153 126.707 100.055ZM121.029 96.7784C120.31 96.7784 119.706 96.9819 119.218 97.389C118.729 97.796 118.431 98.3522 118.322 99.0577L123.715 99.0577C123.607 98.3658 123.308 97.8163 122.82 97.4093C122.332 96.9887 121.735 96.7784 121.029 96.7784ZM138.57 94.5399V105.489H135.741V102.355H133.401L131.325 105.489L127.947 105.489L130.45 101.907C129.69 101.608 129.107 101.181 128.7 100.625C128.306 100.055 128.11 99.3698 128.11 98.5693C128.11 97.2804 128.571 96.29 129.494 95.5981C130.43 94.8926 131.712 94.5399 133.34 94.5399H138.57ZM133.401 97.1244C132.723 97.1244 132.207 97.2465 131.854 97.4907C131.515 97.7349 131.345 98.1284 131.345 98.6711C131.345 99.2137 131.508 99.614 131.834 99.8717C132.173 100.116 132.682 100.238 133.36 100.238H135.741V97.1244H133.401Z" fill="#FFF5F3"/>
<defs>
<filter id="filter0_ddddii" x="0.505859" y="0" width="197.85" height="197.85" filterUnits="userSpaceOnUse" color-interpolation-filters="sRGB">
<feFlood flood-opacity="0" result="BackgroundImageFix"/>
<feColorMatrix in="SourceAlpha" type="matrix" values="0 0 0 0 0 0 0 0 0 0 0 0 0 0 0 0 0 0 127 0"/>
<feOffset dx="4" dy="4"/>
<feGaussianBlur stdDeviation="5"/>
<feColorMatrix type="matrix" values="0 0 0 0 0.886275 0 0 0 0 0.121569 0 0 0 0 0.105882 0 0 0 0.9 0"/>
<feBlend mode="normal" in2="BackgroundImageFix" result="effect1_dropShadow"/>
<feColorMatrix in="SourceAlpha" type="matrix" values="0 0 0 0 0 0 0 0 0 0 0 0 0 0 0 0 0 0 127 0"/>
<feOffset dx="-4" dy="-4"/>
<feGaussianBlur stdDeviation="4"/>
<feColorMatrix type="matrix" values="0 0 0 0 0.901961 0 0 0 0 0.121569 0 0 0 0 0.105882 0 0 0 0.9 0"/>
<feBlend mode="normal" in2="effect1_dropShadow" result="effect2_dropShadow"/>
<feColorMatrix in="SourceAlpha" type="matrix" values="0 0 0 0 0 0 0 0 0 0 0 0 0 0 0 0 0 0 127 0"/>
<feOffset dx="4" dy="-4"/>
<feGaussianBlur stdDeviation="4"/>
<feColorMatrix type="matrix" values="0 0 0 0 0.886275 0 0 0 0 0.121569 0 0 0 0 0.105882 0 0 0 0.2 0"/>
<feBlend mode="normal" in2="effect2_dropShadow" result="effect3_dropShadow"/>
<feColorMatrix in="SourceAlpha" type="matrix" values="0 0 0 0 0 0 0 0 0 0 0 0 0 0 0 0 0 0 127 0"/>
<feOffset dx="-4" dy="4"/>
<feGaussianBlur stdDeviation="4"/>
<feColorMatrix type="matrix" values="0 0 0 0 0.886275 0 0 0 0 0.121569 0 0 0 0 0.105882 0 0 0 0.2 0"/>
<feBlend mode="normal" in2="effect3_dropShadow" result="effect4_dropShadow"/>
<feBlend mode="normal" in="SourceGraphic" in2="effect4_dropShadow" result="shape"/>
<feColorMatrix in="SourceAlpha" type="matrix" values="0 0 0 0 0 0 0 0 0 0 0 0 0 0 0 0 0 0 127 0" result="hardAlpha"/>
<feOffset dx="-1" dy="-1"/>
<feGaussianBlur stdDeviation="1"/>
<feComposite in2="hardAlpha" operator="arithmetic" k2="-1" k3="1"/>
<feColorMatrix type="matrix" values="0 0 0 0 0.886275 0 0 0 0 0.121569 0 0 0 0 0.105882 0 0 0 0.5 0"/>
<feBlend mode="normal" in2="shape" result="effect5_innerShadow"/>
<feColorMatrix in="SourceAlpha" type="matrix" values="0 0 0 0 0 0 0 0 0 0 0 0 0 0 0 0 0 0 127 0" result="hardAlpha"/>
<feOffset dx="1" dy="1"/>
<feGaussianBlur stdDeviation="1"/>
<feComposite in2="hardAlpha" operator="arithmetic" k2="-1" k3="1"/>
<feColorMatrix type="matrix" values="0 0 0 0 0.901961 0 0 0 0 0.121569 0 0 0 0 0.105882 0 0 0 0.3 0"/>
<feBlend mode="normal" in2="effect5_innerShadow" result="effect6_innerShadow"/>
</filter>
<linearGradient id="paint0_linear" x1="12.5059" y1="12" x2="184.356" y2="183.85" gradientUnits="userSpaceOnUse">
<stop stop-color="#EF211C"/>
<stop offset="1" stop-color="#D91D1A"/>
</linearGradient>
</defs>
</svg>
