<svg width="198" height="198" viewBox="0 0 198 198" fill="none" xmlns="http://www.w3.org/2000/svg">
<g filter="url(#filter0_ddddii)">
<circle cx="97.925" cy="97.925" r="85.925" fill="#FF6962"/>
<circle cx="97.925" cy="97.925" r="85.925" fill="url(#paint0_linear)"/>
</g>
<path d="M43.2023 102.802V108.439H40.1497V105.489H30.0965V108.439H27.0439L27.0642 102.802H27.634C28.4888 102.775 29.0925 102.151 29.4452 100.93C29.798 99.709 30.0151 97.9656 30.0965 95.6999L30.2593 91.2431H41.2079V102.802H43.2023ZM33.0066 96.0052C32.9388 97.7011 32.7963 99.1256 32.5792 100.279C32.3622 101.418 32.0298 102.26 31.5821 102.802H37.9518V93.9294H33.0677L33.0066 96.0052ZM45.1774 94.5399H48.3318V101.052L53.6636 94.5399H56.5738V105.489H53.4194V98.9764L48.1079 105.489H45.1774V94.5399ZM64.8354 105.651C63.6686 105.651 62.6171 105.414 61.681 104.939C60.7585 104.451 60.0326 103.779 59.5035 102.924C58.9879 102.07 58.7302 101.1 58.7302 100.014C58.7302 98.9289 58.9879 97.9588 59.5035 97.1041C60.0326 96.2494 60.7585 95.5846 61.681 95.1097C62.6171 94.6213 63.6686 94.3771 64.8354 94.3771C65.9886 94.3771 66.9925 94.6213 67.8473 95.1097C68.7156 95.5846 69.3464 96.2697 69.7399 97.1652L67.2775 98.488C66.7076 97.484 65.8868 96.982 64.815 96.982C63.9874 96.982 63.3023 97.2533 62.7596 97.796C62.2169 98.3387 61.9456 99.0781 61.9456 100.014C61.9456 100.95 62.2169 101.69 62.7596 102.232C63.3023 102.775 63.9874 103.047 64.815 103.047C65.9004 103.047 66.7212 102.545 67.2775 101.541L69.7399 102.884C69.3464 103.752 68.7156 104.43 67.8473 104.919C66.9925 105.407 65.9886 105.651 64.8354 105.651ZM76.4922 101.337H74.8438V105.489H71.6691V94.5399H74.8438V98.7932H76.5532L79.5244 94.5399H82.9026L79.0767 99.7904L83.1672 105.489H79.4227L76.4922 101.337ZM89.5166 105.651C88.3634 105.651 87.3255 105.414 86.4029 104.939C85.4939 104.451 84.7817 103.779 84.2661 102.924C83.7506 102.07 83.4928 101.1 83.4928 100.014C83.4928 98.9289 83.7506 97.9588 84.2661 97.1041C84.7817 96.2494 85.4939 95.5846 86.4029 95.1097C87.3255 94.6213 88.3634 94.3771 89.5166 94.3771C90.6698 94.3771 91.7009 94.6213 92.6099 95.1097C93.5189 95.5846 94.2312 96.2494 94.7467 97.1041C95.2623 97.9588 95.52 98.9289 95.52 100.014C95.52 101.1 95.2623 102.07 94.7467 102.924C94.2312 103.779 93.5189 104.451 92.6099 104.939C91.7009 105.414 90.6698 105.651 89.5166 105.651ZM89.5166 103.047C90.3306 103.047 90.9954 102.775 91.511 102.232C92.0401 101.676 92.3046 100.937 92.3046 100.014C92.3046 99.0917 92.0401 98.3591 91.511 97.8164C90.9954 97.2601 90.3306 96.982 89.5166 96.982C88.7026 96.982 88.031 97.2601 87.5019 97.8164C86.9728 98.3591 86.7082 99.0917 86.7082 100.014C86.7082 100.937 86.9728 101.676 87.5019 102.232C88.031 102.775 88.7026 103.047 89.5166 103.047ZM108.388 105.489V98.9357L105.111 104.43H103.768L100.573 98.9153V105.489L97.7036 105.489V94.5399H101.021L104.521 100.869L108.245 94.5399H111.216L111.257 105.489H108.388ZM129.419 99.9736C129.419 101.669 128.849 103.013 127.709 104.003C126.583 104.98 124.969 105.543 122.866 105.692V109.437H119.956V105.692C117.853 105.543 116.231 104.987 115.092 104.023C113.966 103.047 113.403 101.697 113.403 99.9736C113.403 98.2777 113.959 96.9617 115.071 96.0255C116.198 95.0894 117.826 94.5467 119.956 94.3975V90.3884H122.866V94.3975C124.969 94.5467 126.583 95.0962 127.709 96.0459C128.849 96.9956 129.419 98.3048 129.419 99.9736ZM116.476 99.9736C116.476 100.95 116.754 101.703 117.31 102.232C117.866 102.762 118.748 103.094 119.956 103.23V96.8599C118.748 96.982 117.866 97.3008 117.31 97.8164C116.754 98.3184 116.476 99.0374 116.476 99.9736ZM122.866 103.23C124.073 103.094 124.955 102.762 125.511 102.232C126.081 101.703 126.366 100.95 126.366 99.9736C126.366 99.0374 126.081 98.3184 125.511 97.8164C124.955 97.3008 124.073 96.982 122.866 96.8599V103.23ZM136.697 105.651C135.544 105.651 134.506 105.414 133.583 104.939C132.674 104.451 131.962 103.779 131.446 102.924C130.931 102.07 130.673 101.1 130.673 100.014C130.673 98.9289 130.931 97.9588 131.446 97.1041C131.962 96.2494 132.674 95.5846 133.583 95.1097C134.506 94.6213 135.544 94.3771 136.697 94.3771C137.85 94.3771 138.881 94.6213 139.79 95.1097C140.699 95.5846 141.411 96.2494 141.927 97.1041C142.442 97.9588 142.7 98.9289 142.7 100.014C142.7 101.1 142.442 102.07 141.927 102.924C141.411 103.779 140.699 104.451 139.79 104.939C138.881 105.414 137.85 105.651 136.697 105.651ZM136.697 103.047C137.511 103.047 138.176 102.775 138.691 102.232C139.22 101.676 139.485 100.937 139.485 100.014C139.485 99.0917 139.22 98.3591 138.691 97.8164C138.176 97.2601 137.511 96.982 136.697 96.982C135.883 96.982 135.211 97.2601 134.682 97.8164C134.153 98.3591 133.888 99.0917 133.888 100.014C133.888 100.937 134.153 101.676 134.682 102.232C135.211 102.775 135.883 103.047 136.697 103.047ZM151.335 94.3771C152.352 94.3771 153.275 94.6145 154.103 95.0894C154.944 95.5507 155.602 96.2087 156.077 97.0634C156.551 97.9046 156.789 98.8882 156.789 100.014C156.789 101.14 156.551 102.131 156.077 102.985C155.602 103.827 154.944 104.485 154.103 104.959C153.275 105.421 152.352 105.651 151.335 105.651C149.938 105.651 148.839 105.21 148.038 104.329V109.437H144.863V94.5399H147.896V95.8017C148.683 94.852 149.829 94.3771 151.335 94.3771ZM150.785 103.047C151.599 103.047 152.264 102.775 152.78 102.232C153.309 101.676 153.574 100.937 153.574 100.014C153.574 99.0917 153.309 98.3591 152.78 97.8164C152.264 97.2601 151.599 96.982 150.785 96.982C149.971 96.982 149.3 97.2601 148.771 97.8164C148.255 98.3591 147.997 99.0917 147.997 100.014C147.997 100.937 148.255 101.676 148.771 102.232C149.3 102.775 149.971 103.047 150.785 103.047ZM167.815 97.1448H164.111V105.489H160.957V97.1448H157.253V94.5399H167.815V97.1448Z" fill="#FFF5F3"/>
<defs>
<filter id="filter0_ddddii" x="0" y="0" width="197.85" height="197.85" filterUnits="userSpaceOnUse" color-interpolation-filters="sRGB">
<feFlood flood-opacity="0" result="BackgroundImageFix"/>
<feColorMatrix in="SourceAlpha" type="matrix" values="0 0 0 0 0 0 0 0 0 0 0 0 0 0 0 0 0 0 127 0"/>
<feOffset dx="4" dy="4"/>
<feGaussianBlur stdDeviation="5"/>
<feColorMatrix type="matrix" values="0 0 0 0 0.886275 0 0 0 0 0.121569 0 0 0 0 0.105882 0 0 0 0.9 0"/>
<feBlend mode="normal" in2="BackgroundImageFix" result="effect1_dropShadow"/>
<feColorMatrix in="SourceAlpha" type="matrix" values="0 0 0 0 0 0 0 0 0 0 0 0 0 0 0 0 0 0 127 0"/>
<feOffset dx="-4" dy="-4"/>
<feGaussianBlur stdDeviation="4"/>
<feColorMatrix type="matrix" values="0 0 0 0 0.901961 0 0 0 0 0.121569 0 0 0 0 0.105882 0 0 0 0.9 0"/>
<feBlend mode="normal" in2="effect1_dropShadow" result="effect2_dropShadow"/>
<feColorMatrix in="SourceAlpha" type="matrix" values="0 0 0 0 0 0 0 0 0 0 0 0 0 0 0 0 0 0 127 0"/>
<feOffset dx="4" dy="-4"/>
<feGaussianBlur stdDeviation="4"/>
<feColorMatrix type="matrix" values="0 0 0 0 0.886275 0 0 0 0 0.121569 0 0 0 0 0.105882 0 0 0 0.2 0"/>
<feBlend mode="normal" in2="effect2_dropShadow" result="effect3_dropShadow"/>
<feColorMatrix in="SourceAlpha" type="matrix" values="0 0 0 0 0 0 0 0 0 0 0 0 0 0 0 0 0 0 127 0"/>
<feOffset dx="-4" dy="4"/>
<feGaussianBlur stdDeviation="4"/>
<feColorMatrix type="matrix" values="0 0 0 0 0.886275 0 0 0 0 0.121569 0 0 0 0 0.105882 0 0 0 0.2 0"/>
<feBlend mode="normal" in2="effect3_dropShadow" result="effect4_dropShadow"/>
<feBlend mode="normal" in="SourceGraphic" in2="effect4_dropShadow" result="shape"/>
<feColorMatrix in="SourceAlpha" type="matrix" values="0 0 0 0 0 0 0 0 0 0 0 0 0 0 0 0 0 0 127 0" result="hardAlpha"/>
<feOffset dx="-1" dy="-1"/>
<feGaussianBlur stdDeviation="1"/>
<feComposite in2="hardAlpha" operator="arithmetic" k2="-1" k3="1"/>
<feColorMatrix type="matrix" values="0 0 0 0 0.886275 0 0 0 0 0.121569 0 0 0 0 0.105882 0 0 0 0.5 0"/>
<feBlend mode="normal" in2="shape" result="effect5_innerShadow"/>
<feColorMatrix in="SourceAlpha" type="matrix" values="0 0 0 0 0 0 0 0 0 0 0 0 0 0 0 0 0 0 127 0" result="hardAlpha"/>
<feOffset dx="1" dy="1"/>
<feGaussianBlur stdDeviation="1"/>
<feComposite in2="hardAlpha" operator="arithmetic" k2="-1" k3="1"/>
<feColorMatrix type="matrix" values="0 0 0 0 0.901961 0 0 0 0 0.121569 0 0 0 0 0.105882 0 0 0 0.3 0"/>
<feBlend mode="normal" in2="effect5_innerShadow" result="effect6_innerShadow"/>
</filter>
<linearGradient id="paint0_linear" x1="12" y1="12" x2="183.85" y2="183.85" gradientUnits="userSpaceOnUse">
<stop stop-color="#EF211C"/>
<stop offset="1" stop-color="#D91D1A"/>
</linearGradient>
</defs>
</svg>
