<svg width="36" height="38" viewBox="0 0 36 38" fill="none" xmlns="http://www.w3.org/2000/svg">
<path d="M0 5C0 2.23858 2.23858 0 5 0H31C33.7614 0 36 2.23858 36 5V33C36 35.7614 33.7614 38 31 38H5C2.23858 38 0 35.7614 0 33V5Z" fill="#6BC594"/>
<g clip-path="url(#clip0)">
<path d="M29.9932 18.8425C30.0023 18.7474 30.0023 18.6518 29.9932 18.5567V18.4358V18.3039C29.9698 18.2425 29.9403 18.1836 29.9053 18.1281L29.8503 18.0182C29.801 17.9511 29.7459 17.8885 29.6854 17.8313L21.2225 9.41232C20.652 8.8624 19.7487 8.8624 19.1782 9.41232C18.6178 9.97424 18.6178 10.8837 19.1782 11.4456L24.19 16.4575C24.4025 16.6742 24.3991 17.0221 24.1823 17.2346C24.0815 17.3335 23.9465 17.3897 23.8053 17.3917H7.43992C6.64472 17.3916 6.00005 18.0362 6 18.8314C5.99995 19.6266 6.64451 20.2712 7.43972 20.2713C7.43977 20.2713 7.43987 20.2713 7.43992 20.2713H23.8053C24.1088 20.2756 24.3514 20.525 24.3471 20.8285C24.3451 20.9696 24.2889 21.1047 24.19 21.2055L19.1782 26.2064C18.6166 26.772 18.6166 27.685 19.1782 28.2507C19.7487 28.8006 20.652 28.8006 21.2225 28.2507L29.6305 19.8426C29.6969 19.7759 29.7558 19.7022 29.8063 19.6228C29.8546 19.5447 29.8987 19.4639 29.9382 19.381L29.9932 19.2382C29.9953 19.1979 29.9953 19.1575 29.9932 19.1172C30.0019 19.0258 30.0019 18.9338 29.9932 18.8425Z" fill="#FFF5F3"/>
</g>
<defs>
<clipPath id="clip0">
<rect width="24" height="24" fill="white" transform="translate(6 7)"/>
</clipPath>
</defs>
</svg>
