<svg width="36" height="38" viewBox="0 0 36 38" fill="none" xmlns="http://www.w3.org/2000/svg">
<path d="M0 5C0 2.23858 2.23858 0 5 0H31C33.7614 0 36 2.23858 36 5V33C36 35.7614 33.7614 38 31 38H5C2.23858 38 0 35.7614 0 33V5Z" fill="#6BC594"/>
<g clip-path="url(#clip0)">
<path d="M6.0068 18.9891C5.99773 19.0841 5.99773 19.1798 6.0068 19.2748V19.3958V19.5276C6.03019 19.5891 6.05966 19.6479 6.09474 19.7035L6.14972 19.8134C6.19897 19.8804 6.25415 19.943 6.31458 20.0002L14.7775 28.4192C15.348 28.9691 16.2513 28.9691 16.8218 28.4192C17.3822 27.8573 17.3822 26.9479 16.8218 26.3859L11.81 21.3741C11.5975 21.1574 11.6009 20.8094 11.8177 20.5969C11.9185 20.4981 12.0535 20.4418 12.1947 20.4398H28.5601C29.3553 20.44 29.9999 19.7953 30 19.0002C30.0001 18.205 29.3555 17.5603 28.5603 17.5603C28.5602 17.5603 28.5601 17.5603 28.5601 17.5603H12.1947C11.8912 17.556 11.6486 17.3065 11.6529 17.0031C11.6549 16.8619 11.7111 16.7269 11.81 16.6261L16.8218 11.6252C17.3834 11.0595 17.3834 10.1466 16.8218 9.58088C16.2513 9.03096 15.348 9.03096 14.7775 9.58088L6.3695 17.9889C6.30314 18.0556 6.2442 18.1293 6.19366 18.2087C6.14539 18.2869 6.10134 18.3676 6.06177 18.4505L6.0068 18.5934C6.00474 18.6337 6.00474 18.674 6.0068 18.7143C5.99814 18.8057 5.99814 18.8977 6.0068 18.9891Z" fill="#FFF5F3"/>
</g>
<defs>
<clipPath id="clip0">
<rect width="24" height="24" fill="white" transform="translate(30 31) rotate(-180)"/>
</clipPath>
</defs>
</svg>
