<svg width="68" height="70" viewBox="0 0 68 70" fill="none" xmlns="http://www.w3.org/2000/svg">
<g filter="url(#filter0_d)">
<rect x="16" y="12" width="36" height="38" fill="white"/>
</g>
<g clip-path="url(#clip0)">
<path d="M45.9932 30.8426C46.0023 30.7475 46.0023 30.6518 45.9932 30.5568V30.4359V30.304C45.9698 30.2426 45.9403 30.1837 45.9053 30.1281L45.8503 30.0182C45.801 29.9512 45.7459 29.8886 45.6854 29.8314L37.2225 21.4124C36.652 20.8625 35.7487 20.8625 35.1782 21.4124C34.6178 21.9743 34.6178 22.8837 35.1782 23.4457L40.19 28.4575C40.4025 28.6742 40.3991 29.0222 40.1823 29.2347C40.0815 29.3335 39.9465 29.3898 39.8053 29.3918H23.4399C22.6447 29.3917 22.0001 30.0363 22 30.8314C21.9999 31.6266 22.6445 32.2713 23.4397 32.2713C23.4398 32.2713 23.4399 32.2713 23.4399 32.2713H39.8053C40.1088 32.2756 40.3514 32.5251 40.3471 32.8285C40.3451 32.9697 40.2889 33.1047 40.19 33.2056L35.1782 38.2064C34.6166 38.7721 34.6166 39.685 35.1782 40.2507C35.7487 40.8006 36.652 40.8006 37.2225 40.2507L45.6305 31.8427C45.6969 31.776 45.7558 31.7023 45.8063 31.6229C45.8546 31.5447 45.8987 31.464 45.9382 31.3811L45.9932 31.2382C45.9953 31.1979 45.9953 31.1576 45.9932 31.1173C46.0019 31.0259 46.0019 30.9339 45.9932 30.8426Z" fill="black"/>
</g>
<defs>
<filter id="filter0_d" x="0" y="0" width="68" height="70" filterUnits="userSpaceOnUse" color-interpolation-filters="sRGB">
<feFlood flood-opacity="0" result="BackgroundImageFix"/>
<feColorMatrix in="SourceAlpha" type="matrix" values="0 0 0 0 0 0 0 0 0 0 0 0 0 0 0 0 0 0 127 0" result="hardAlpha"/>
<feOffset dy="4"/>
<feGaussianBlur stdDeviation="8"/>
<feColorMatrix type="matrix" values="0 0 0 0 0 0 0 0 0 0 0 0 0 0 0 0 0 0 0.15 0"/>
<feBlend mode="normal" in2="BackgroundImageFix" result="effect1_dropShadow"/>
<feBlend mode="normal" in="SourceGraphic" in2="effect1_dropShadow" result="shape"/>
</filter>
<clipPath id="clip0">
<rect width="24" height="24" fill="white" transform="translate(22 19)"/>
</clipPath>
</defs>
</svg>
