<svg width="35" height="43" viewBox="0 0 35 43" fill="none" xmlns="http://www.w3.org/2000/svg">
<path d="M17.5196 42.9878C17.3504 43.0041 17.1801 43.0041 17.0109 42.9878H16.7957H16.5609C16.4516 42.9459 16.3468 42.8931 16.2479 42.8303L16.0523 42.7318C15.9329 42.6435 15.8216 42.5447 15.7197 42.4364L0.734134 27.2736C-0.244711 26.2515 -0.244711 24.633 0.734134 23.6109C1.73435 22.6069 3.3531 22.6069 4.3534 23.6109L13.2743 32.5904C13.66 32.9711 14.2794 32.965 14.6576 32.5767C14.8336 32.3961 14.9337 32.1542 14.9372 31.9012L14.9372 2.57987C14.937 1.15512 16.0844 9.23117e-05 17.4998 5.53311e-09C18.9152 -9.23006e-05 20.0627 1.15475 20.0628 2.5795C20.0628 2.57959 20.0628 2.57977 20.0628 2.57987L20.0628 31.9012C20.0704 32.4449 20.5144 32.8796 21.0546 32.8719C21.3058 32.8684 21.5462 32.7676 21.7257 32.5904L30.6271 23.6109C31.634 22.6047 33.259 22.6047 34.2659 23.6109C35.2447 24.633 35.2447 26.2515 34.2659 27.2736L19.2998 42.338C19.1811 42.4569 19.0498 42.5625 18.9085 42.653C18.7694 42.7395 18.6257 42.8184 18.4782 42.8893L18.2239 42.9878C18.1522 42.9915 18.0803 42.9915 18.0086 42.9878C17.846 43.0033 17.6822 43.0033 17.5196 42.9878Z" fill="url(#paint0_linear)"/>
<defs>
<linearGradient id="paint0_linear" x1="0" y1="0" x2="4.77186" y2="46.1271" gradientUnits="userSpaceOnUse">
<stop stop-color="#F17922"/>
<stop offset="1" stop-color="#F7A318"/>
</linearGradient>
</defs>
</svg>
