<svg width="35" height="36" viewBox="0 0 35 36" fill="none" xmlns="http://www.w3.org/2000/svg">
<g clip-path="url(#clip0)">
<path d="M26.3867 16.5728C27.1418 16.5728 27.7539 15.9606 27.7539 15.2056C27.7539 14.4505 27.1418 13.8384 26.3867 13.8384C25.6316 13.8384 25.0195 14.4505 25.0195 15.2056C25.0195 15.9606 25.6316 16.5728 26.3867 16.5728Z" fill="white"/>
<path d="M29.5312 3.58447H27.7539V2.21729C27.7539 1.46219 27.1418 0.850098 26.3867 0.850098C25.6316 0.850098 25.0195 1.46219 25.0195 2.21729V3.58447H18.7988V2.21729C18.7988 1.46219 18.1867 0.850098 17.4316 0.850098C16.6765 0.850098 16.0645 1.46219 16.0645 2.21729V3.58447H9.91211V2.21729C9.91211 1.46219 9.30002 0.850098 8.54492 0.850098C7.78982 0.850098 7.17773 1.46219 7.17773 2.21729V3.58447H5.46875C2.45328 3.58447 0 6.03775 0 9.05322V30.3813C0 33.3968 2.45328 35.8501 5.46875 35.8501H15.9277C16.6828 35.8501 17.2949 35.238 17.2949 34.4829C17.2949 33.7278 16.6828 33.1157 15.9277 33.1157H5.46875C3.96102 33.1157 2.73438 31.8891 2.73438 30.3813V9.05322C2.73438 7.54549 3.96102 6.31885 5.46875 6.31885H7.17773V7.68604C7.17773 8.44113 7.78982 9.05322 8.54492 9.05322C9.30002 9.05322 9.91211 8.44113 9.91211 7.68604V6.31885H16.0645V7.68604C16.0645 8.44113 16.6765 9.05322 17.4316 9.05322C18.1867 9.05322 18.7988 8.44113 18.7988 7.68604V6.31885H25.0195V7.68604C25.0195 8.44113 25.6316 9.05322 26.3867 9.05322C27.1418 9.05322 27.7539 8.44113 27.7539 7.68604V6.31885H29.5312C31.039 6.31885 32.2656 7.54549 32.2656 9.05322V16.8462C32.2656 17.6013 32.8777 18.2134 33.6328 18.2134C34.3879 18.2134 35 17.6013 35 16.8462V9.05322C35 6.03775 32.5467 3.58447 29.5312 3.58447Z" fill="white"/>
<path d="M26.7285 19.3071C22.1676 19.3071 18.457 23.0177 18.457 27.5786C18.457 32.1396 22.1676 35.8501 26.7285 35.8501C31.2895 35.8501 35 32.1396 35 27.5786C35 23.0177 31.2895 19.3071 26.7285 19.3071ZM26.7285 33.1157C23.6754 33.1157 21.1914 30.6318 21.1914 27.5786C21.1914 24.5254 23.6754 22.0415 26.7285 22.0415C29.7817 22.0415 32.2656 24.5254 32.2656 27.5786C32.2656 30.6318 29.7817 33.1157 26.7285 33.1157Z" fill="white"/>
<path d="M28.7109 26.2114H28.0957V24.7759C28.0957 24.0208 27.4836 23.4087 26.7285 23.4087C25.9734 23.4087 25.3613 24.0208 25.3613 24.7759V27.5786C25.3613 28.3337 25.9734 28.9458 26.7285 28.9458H28.7109C29.466 28.9458 30.0781 28.3337 30.0781 27.5786C30.0781 26.8235 29.466 26.2114 28.7109 26.2114Z" fill="white"/>
<path d="M20.4395 16.5728C21.1945 16.5728 21.8066 15.9606 21.8066 15.2056C21.8066 14.4505 21.1945 13.8384 20.4395 13.8384C19.6844 13.8384 19.0723 14.4505 19.0723 15.2056C19.0723 15.9606 19.6844 16.5728 20.4395 16.5728Z" fill="white"/>
<path d="M14.4922 22.52C15.2473 22.52 15.8594 21.9079 15.8594 21.1528C15.8594 20.3978 15.2473 19.7856 14.4922 19.7856C13.7371 19.7856 13.125 20.3978 13.125 21.1528C13.125 21.9079 13.7371 22.52 14.4922 22.52Z" fill="white"/>
<path d="M8.54492 16.5728C9.3 16.5728 9.91211 15.9606 9.91211 15.2056C9.91211 14.4505 9.3 13.8384 8.54492 13.8384C7.78985 13.8384 7.17773 14.4505 7.17773 15.2056C7.17773 15.9606 7.78985 16.5728 8.54492 16.5728Z" fill="white"/>
<path d="M8.54492 22.52C9.3 22.52 9.91211 21.9079 9.91211 21.1528C9.91211 20.3978 9.3 19.7856 8.54492 19.7856C7.78985 19.7856 7.17773 20.3978 7.17773 21.1528C7.17773 21.9079 7.78985 22.52 8.54492 22.52Z" fill="white"/>
<path d="M8.54492 28.4673C9.3 28.4673 9.91211 27.8552 9.91211 27.1001C9.91211 26.345 9.3 25.7329 8.54492 25.7329C7.78985 25.7329 7.17773 26.345 7.17773 27.1001C7.17773 27.8552 7.78985 28.4673 8.54492 28.4673Z" fill="white"/>
<path d="M14.4922 28.4673C15.2473 28.4673 15.8594 27.8552 15.8594 27.1001C15.8594 26.345 15.2473 25.7329 14.4922 25.7329C13.7371 25.7329 13.125 26.345 13.125 27.1001C13.125 27.8552 13.7371 28.4673 14.4922 28.4673Z" fill="white"/>
<path d="M14.4922 16.5728C15.2473 16.5728 15.8594 15.9606 15.8594 15.2056C15.8594 14.4505 15.2473 13.8384 14.4922 13.8384C13.7371 13.8384 13.125 14.4505 13.125 15.2056C13.125 15.9606 13.7371 16.5728 14.4922 16.5728Z" fill="white"/>
</g>
<defs>
<clipPath id="clip0">
<rect width="35" height="35" fill="white" transform="translate(0 0.850098)"/>
</clipPath>
</defs>
</svg>
