<svg width="156" height="157" viewBox="0 0 156 157" fill="none" xmlns="http://www.w3.org/2000/svg">
<path d="M68.6398 109.657C66.8552 109.551 63.4544 107.922 61.9692 110.406C64.0784 112.515 67.5852 111.03 70.8612 110.406C70.8924 109.863 69.6756 109.988 68.6398 109.657Z" fill="#FFB38A"/>
<path d="M106.155 109.657C97.7373 109.52 88.8016 107.953 80.1343 110.25C80.4026 110.556 80.1655 110.356 81.089 110.605C92.2711 112.584 103.491 110.917 114.91 110.287C112.62 109.776 108.926 109.925 106.155 109.657Z" fill="#FFB38A"/>
<path d="M40.223 111.298C43.811 111.516 49.2585 112.122 52.5657 110.175C50.3134 109.477 47.9773 109.087 45.6206 109.014C39.9609 109.414 32.9222 109.289 27.874 110.424C31.6555 110.743 35.9735 111.067 40.223 111.298Z" fill="#FFB38A"/>
<path d="M132.082 121.906C121.293 121.7 109.912 119.348 98.8979 122C108.901 124.533 122.254 122.773 132.082 121.906Z" fill="#FFB38A"/>
<path d="M78.4932 123.266C115.565 120.39 45.9266 120.77 45.0405 122.018C55.4301 122.792 67.7916 123.154 78.4932 123.266Z" fill="#FFB38A"/>
<path d="M114.816 133.631C100.027 133.419 84.4086 131.079 69.7695 133.731C70.0815 134.074 70.4684 133.931 71.7414 134.199C85.7252 135.834 101.475 134.623 114.816 133.631Z" fill="#FFB38A"/>
<path d="M60.472 133.631C50.2447 131.372 38.9128 133.107 28.2549 133.743C38.4198 134.199 50.7875 136.576 60.472 133.631Z" fill="#FFB38A"/>
<path d="M29.328 90.9432C31.5252 93.5193 34.223 95.6219 37.2576 97.1237C40.2921 98.6254 43.6002 99.4948 46.981 99.6792C119.253 96.5592 104.389 102.175 121.193 95.2052C138.528 85.0901 134.697 57.5467 115.746 52.3675C114.036 51.9619 114.261 52.1866 114.017 50.065C110.847 35.7941 97.7933 39.0202 95.6155 35.5195C80.4274 11.4581 42.1949 23.5575 45.7829 51.0509C25.9709 52.561 16.7295 75.8175 29.328 90.9432ZM29.5402 64.1112C36.9783 49.2975 55.536 51.7498 46.176 51.0259C50.9184 24.4498 80.989 16.2317 95.8339 36.8674C94.4224 36.8598 93.0117 36.9369 91.6095 37.0983C91.4347 37.3479 91.26 37.5163 92.4643 37.5538C98.1552 38.1778 103.447 39.5818 107.316 44.3491C110.342 46.6829 113.861 65.9707 114.267 52.561C134.815 61.0723 133.761 88.4784 113.799 95.9352C105.924 98.2628 95.9587 97.1271 87.6907 97.3268C69.8631 96.3346 53.2147 97.1084 43.0498 95.2738C30.42 92.0228 23.1504 75.9859 29.5527 64.08L29.5402 64.1112Z" fill="#FFB38A"/>
<path d="M56.6531 71.1624C58.7559 59.5747 65.0708 56.5296 76.0532 51.8184C65.6948 46.8077 54.5377 60.9975 56.6531 71.1624Z" fill="#FFB38A"/>
</svg>
