<svg width="254" height="254" viewBox="0 0 254 254" fill="none" xmlns="http://www.w3.org/2000/svg">
<circle opacity="0.7" cx="127" cy="127" r="126" stroke="#8C0000" stroke-width="2"/>
<circle opacity="0.7" cx="127" cy="127" r="122.5" stroke="#8C0000"/>
<circle cx="126.5" cy="127.5" r="90" stroke="#8C0000"/>
<path d="M57.0754 106.904C57.7007 107.072 58.1767 107.361 58.5034 107.772C58.8301 108.173 58.9934 108.677 58.9934 109.284C58.9934 110.143 58.6761 110.81 58.0414 111.286C57.4067 111.762 56.4874 112 55.2834 112H50.6354V102.2H55.0174C56.1187 102.2 56.9774 102.419 57.5934 102.858C58.2094 103.297 58.5174 103.917 58.5174 104.72C58.5174 105.233 58.3914 105.677 58.1394 106.05C57.8967 106.423 57.5421 106.708 57.0754 106.904ZM52.4274 106.386H54.8634C55.4514 106.386 55.8994 106.269 56.2074 106.036C56.5154 105.803 56.6694 105.457 56.6694 105C56.6694 104.543 56.5154 104.197 56.2074 103.964C55.8994 103.721 55.4514 103.6 54.8634 103.6H52.4274V106.386ZM55.2274 110.6C56.5154 110.6 57.1594 110.115 57.1594 109.144C57.1594 108.192 56.5154 107.716 55.2274 107.716H52.4274V110.6H55.2274ZM65.6727 112.098C64.9167 112.098 64.2354 111.935 63.6287 111.608C63.0221 111.281 62.5461 110.829 62.2007 110.25C61.8647 109.662 61.6967 108.999 61.6967 108.262C61.6967 107.525 61.8647 106.867 62.2007 106.288C62.5461 105.709 63.0221 105.257 63.6287 104.93C64.2354 104.603 64.9167 104.44 65.6727 104.44C66.4381 104.44 67.1241 104.603 67.7307 104.93C68.3374 105.257 68.8087 105.709 69.1447 106.288C69.4901 106.867 69.6627 107.525 69.6627 108.262C69.6627 108.999 69.4901 109.662 69.1447 110.25C68.8087 110.829 68.3374 111.281 67.7307 111.608C67.1241 111.935 66.4381 112.098 65.6727 112.098ZM65.6727 110.6C66.3167 110.6 66.8487 110.385 67.2687 109.956C67.6887 109.527 67.8987 108.962 67.8987 108.262C67.8987 107.562 67.6887 106.997 67.2687 106.568C66.8487 106.139 66.3167 105.924 65.6727 105.924C65.0287 105.924 64.4967 106.139 64.0767 106.568C63.6661 106.997 63.4607 107.562 63.4607 108.262C63.4607 108.962 63.6661 109.527 64.0767 109.956C64.4967 110.385 65.0287 110.6 65.6727 110.6ZM76.2635 112.098C75.4888 112.098 74.7935 111.935 74.1775 111.608C73.5615 111.281 73.0808 110.829 72.7355 110.25C72.3902 109.662 72.2175 108.999 72.2175 108.262C72.2175 107.525 72.3902 106.867 72.7355 106.288C73.0808 105.709 73.5568 105.257 74.1635 104.93C74.7795 104.603 75.4795 104.44 76.2635 104.44C77.0008 104.44 77.6448 104.589 78.1955 104.888C78.7555 105.187 79.1755 105.616 79.4555 106.176L78.1115 106.96C77.8968 106.615 77.6262 106.358 77.2995 106.19C76.9822 106.013 76.6322 105.924 76.2495 105.924C75.5962 105.924 75.0548 106.139 74.6255 106.568C74.1962 106.988 73.9815 107.553 73.9815 108.262C73.9815 108.971 74.1915 109.541 74.6115 109.97C75.0408 110.39 75.5868 110.6 76.2495 110.6C76.6322 110.6 76.9822 110.516 77.2995 110.348C77.6262 110.171 77.8968 109.909 78.1115 109.564L79.4555 110.348C79.1662 110.908 78.7415 111.342 78.1815 111.65C77.6308 111.949 76.9915 112.098 76.2635 112.098ZM85.7589 112.098C84.9842 112.098 84.2889 111.935 83.6729 111.608C83.0569 111.281 82.5762 110.829 82.2309 110.25C81.8856 109.662 81.7129 108.999 81.7129 108.262C81.7129 107.525 81.8856 106.867 82.2309 106.288C82.5762 105.709 83.0522 105.257 83.6589 104.93C84.2749 104.603 84.9749 104.44 85.7589 104.44C86.4962 104.44 87.1402 104.589 87.6909 104.888C88.2509 105.187 88.6709 105.616 88.9509 106.176L87.6069 106.96C87.3922 106.615 87.1216 106.358 86.7949 106.19C86.4776 106.013 86.1276 105.924 85.7449 105.924C85.0916 105.924 84.5502 106.139 84.1209 106.568C83.6916 106.988 83.4769 107.553 83.4769 108.262C83.4769 108.971 83.6869 109.541 84.1069 109.97C84.5362 110.39 85.0822 110.6 85.7449 110.6C86.1276 110.6 86.4776 110.516 86.7949 110.348C87.1216 110.171 87.3922 109.909 87.6069 109.564L88.9509 110.348C88.6616 110.908 88.2369 111.342 87.6769 111.65C87.1262 111.949 86.4869 112.098 85.7589 112.098ZM97.8153 106.008H95.1973V112H93.4473V106.008H90.8153V104.524H97.8153V106.008ZM103.341 104.44C104.442 104.44 105.282 104.706 105.861 105.238C106.449 105.761 106.743 106.554 106.743 107.618V112H105.091V111.09C104.876 111.417 104.568 111.669 104.167 111.846C103.775 112.014 103.299 112.098 102.739 112.098C102.179 112.098 101.689 112.005 101.269 111.818C100.849 111.622 100.522 111.356 100.289 111.02C100.065 110.675 99.9527 110.287 99.9527 109.858C99.9527 109.186 100.2 108.649 100.695 108.248C101.199 107.837 101.987 107.632 103.061 107.632H104.993V107.52C104.993 106.997 104.834 106.596 104.517 106.316C104.209 106.036 103.747 105.896 103.131 105.896C102.711 105.896 102.295 105.961 101.885 106.092C101.483 106.223 101.143 106.405 100.863 106.638L100.177 105.364C100.569 105.065 101.04 104.837 101.591 104.678C102.141 104.519 102.725 104.44 103.341 104.44ZM103.103 110.824C103.541 110.824 103.929 110.726 104.265 110.53C104.61 110.325 104.853 110.035 104.993 109.662V108.794H103.187C102.179 108.794 101.675 109.125 101.675 109.788C101.675 110.105 101.801 110.357 102.053 110.544C102.305 110.731 102.655 110.824 103.103 110.824ZM110.378 104.524H112.128V107.562H115.894V104.524H117.644V112H115.894V109.046H112.128V112H110.378V104.524ZM124.246 104.44C125.347 104.44 126.187 104.706 126.766 105.238C127.354 105.761 127.648 106.554 127.648 107.618V112H125.996V111.09C125.781 111.417 125.473 111.669 125.072 111.846C124.68 112.014 124.204 112.098 123.644 112.098C123.084 112.098 122.594 112.005 122.174 111.818C121.754 111.622 121.427 111.356 121.194 111.02C120.97 110.675 120.858 110.287 120.858 109.858C120.858 109.186 121.105 108.649 121.6 108.248C122.104 107.837 122.892 107.632 123.966 107.632H125.898V107.52C125.898 106.997 125.739 106.596 125.422 106.316C125.114 106.036 124.652 105.896 124.036 105.896C123.616 105.896 123.2 105.961 122.79 106.092C122.388 106.223 122.048 106.405 121.768 106.638L121.082 105.364C121.474 105.065 121.945 104.837 122.496 104.678C123.046 104.519 123.63 104.44 124.246 104.44ZM124.008 110.824C124.446 110.824 124.834 110.726 125.17 110.53C125.515 110.325 125.758 110.035 125.898 109.662V108.794H124.092C123.084 108.794 122.58 109.125 122.58 109.788C122.58 110.105 122.706 110.357 122.958 110.544C123.21 110.731 123.56 110.824 124.008 110.824ZM136.701 108.108C137.625 108.388 138.087 108.985 138.087 109.9C138.087 110.572 137.835 111.09 137.331 111.454C136.827 111.818 136.08 112 135.091 112H131.283V104.524H134.937C135.852 104.524 136.566 104.692 137.079 105.028C137.592 105.364 137.849 105.84 137.849 106.456C137.849 106.839 137.746 107.17 137.541 107.45C137.345 107.73 137.065 107.949 136.701 108.108ZM132.949 107.646H134.783C135.688 107.646 136.141 107.333 136.141 106.708C136.141 106.101 135.688 105.798 134.783 105.798H132.949V107.646ZM134.951 110.726C135.912 110.726 136.393 110.413 136.393 109.788C136.393 109.461 136.281 109.219 136.057 109.06C135.833 108.892 135.483 108.808 135.007 108.808H132.949V110.726H134.951ZM148.197 104.524V112H146.447V106.008H143.647L143.577 107.492C143.53 108.481 143.437 109.312 143.297 109.984C143.166 110.647 142.938 111.174 142.611 111.566C142.294 111.949 141.855 112.14 141.295 112.14C141.034 112.14 140.712 112.089 140.329 111.986L140.413 110.516C140.544 110.544 140.656 110.558 140.749 110.558C141.104 110.558 141.37 110.418 141.547 110.138C141.724 109.849 141.836 109.508 141.883 109.116C141.939 108.715 141.986 108.145 142.023 107.408L142.149 104.524H148.197ZM152.024 104.524H153.774V109.452L157.904 104.524H159.5V112H157.75V107.072L153.634 112H152.024V104.524ZM168.742 108.108C169.666 108.388 170.128 108.985 170.128 109.9C170.128 110.572 169.876 111.09 169.372 111.454C168.868 111.818 168.121 112 167.132 112H163.324V104.524H166.978C167.893 104.524 168.607 104.692 169.12 105.028C169.633 105.364 169.89 105.84 169.89 106.456C169.89 106.839 169.787 107.17 169.582 107.45C169.386 107.73 169.106 107.949 168.742 108.108ZM164.99 107.646H166.824C167.729 107.646 168.182 107.333 168.182 106.708C168.182 106.101 167.729 105.798 166.824 105.798H164.99V107.646ZM166.992 110.726C167.953 110.726 168.434 110.413 168.434 109.788C168.434 109.461 168.322 109.219 168.098 109.06C167.874 108.892 167.524 108.808 167.048 108.808H164.99V110.726H166.992ZM176.248 104.44C177.349 104.44 178.189 104.706 178.768 105.238C179.356 105.761 179.65 106.554 179.65 107.618V112H177.998V111.09C177.783 111.417 177.475 111.669 177.074 111.846C176.682 112.014 176.206 112.098 175.646 112.098C175.086 112.098 174.596 112.005 174.176 111.818C173.756 111.622 173.429 111.356 173.196 111.02C172.972 110.675 172.86 110.287 172.86 109.858C172.86 109.186 173.107 108.649 173.602 108.248C174.106 107.837 174.895 107.632 175.968 107.632H177.9V107.52C177.9 106.997 177.741 106.596 177.424 106.316C177.116 106.036 176.654 105.896 176.038 105.896C175.618 105.896 175.203 105.961 174.792 106.092C174.391 106.223 174.05 106.405 173.77 106.638L173.084 105.364C173.476 105.065 173.947 104.837 174.498 104.678C175.049 104.519 175.632 104.44 176.248 104.44ZM176.01 110.824C176.449 110.824 176.836 110.726 177.172 110.53C177.517 110.325 177.76 110.035 177.9 109.662V108.794H176.094C175.086 108.794 174.582 109.125 174.582 109.788C174.582 110.105 174.708 110.357 174.96 110.544C175.212 110.731 175.562 110.824 176.01 110.824ZM190.285 108.304C190.285 108.425 190.276 108.598 190.257 108.822H184.391C184.494 109.373 184.76 109.811 185.189 110.138C185.628 110.455 186.169 110.614 186.813 110.614C187.635 110.614 188.311 110.343 188.843 109.802L189.781 110.88C189.445 111.281 189.021 111.585 188.507 111.79C187.994 111.995 187.415 112.098 186.771 112.098C185.95 112.098 185.227 111.935 184.601 111.608C183.976 111.281 183.491 110.829 183.145 110.25C182.809 109.662 182.641 108.999 182.641 108.262C182.641 107.534 182.805 106.881 183.131 106.302C183.467 105.714 183.929 105.257 184.517 104.93C185.105 104.603 185.768 104.44 186.505 104.44C187.233 104.44 187.882 104.603 188.451 104.93C189.03 105.247 189.478 105.7 189.795 106.288C190.122 106.867 190.285 107.539 190.285 108.304ZM186.505 105.84C185.945 105.84 185.469 106.008 185.077 106.344C184.695 106.671 184.461 107.109 184.377 107.66H188.619C188.545 107.119 188.316 106.68 187.933 106.344C187.551 106.008 187.075 105.84 186.505 105.84ZM199.318 106.008H196.7V112H194.95V106.008H192.318V104.524H199.318V106.008ZM110.105 125.524V133H108.369V127.008H104.687V133H102.937V125.524H110.105ZM117.268 133.098C116.512 133.098 115.831 132.935 115.224 132.608C114.618 132.281 114.142 131.829 113.796 131.25C113.46 130.662 113.292 129.999 113.292 129.262C113.292 128.525 113.46 127.867 113.796 127.288C114.142 126.709 114.618 126.257 115.224 125.93C115.831 125.603 116.512 125.44 117.268 125.44C118.034 125.44 118.72 125.603 119.326 125.93C119.933 126.257 120.404 126.709 120.74 127.288C121.086 127.867 121.258 128.525 121.258 129.262C121.258 129.999 121.086 130.662 120.74 131.25C120.404 131.829 119.933 132.281 119.326 132.608C118.72 132.935 118.034 133.098 117.268 133.098ZM117.268 131.6C117.912 131.6 118.444 131.385 118.864 130.956C119.284 130.527 119.494 129.962 119.494 129.262C119.494 128.562 119.284 127.997 118.864 127.568C118.444 127.139 117.912 126.924 117.268 126.924C116.624 126.924 116.092 127.139 115.672 127.568C115.262 127.997 115.056 128.562 115.056 129.262C115.056 129.962 115.262 130.527 115.672 130.956C116.092 131.385 116.624 131.6 117.268 131.6ZM127.859 133.098C127.085 133.098 126.389 132.935 125.773 132.608C125.157 132.281 124.677 131.829 124.331 131.25C123.986 130.662 123.813 129.999 123.813 129.262C123.813 128.525 123.986 127.867 124.331 127.288C124.677 126.709 125.153 126.257 125.759 125.93C126.375 125.603 127.075 125.44 127.859 125.44C128.597 125.44 129.241 125.589 129.791 125.888C130.351 126.187 130.771 126.616 131.051 127.176L129.707 127.96C129.493 127.615 129.222 127.358 128.895 127.19C128.578 127.013 128.228 126.924 127.845 126.924C127.192 126.924 126.651 127.139 126.221 127.568C125.792 127.988 125.577 128.553 125.577 129.262C125.577 129.971 125.787 130.541 126.207 130.97C126.637 131.39 127.183 131.6 127.845 131.6C128.228 131.6 128.578 131.516 128.895 131.348C129.222 131.171 129.493 130.909 129.707 130.564L131.051 131.348C130.762 131.908 130.337 132.342 129.777 132.65C129.227 132.949 128.587 133.098 127.859 133.098ZM140.674 125.524V133H138.924V127.008H136.124L136.054 128.492C136.007 129.481 135.914 130.312 135.774 130.984C135.643 131.647 135.415 132.174 135.088 132.566C134.771 132.949 134.332 133.14 133.772 133.14C133.511 133.14 133.189 133.089 132.806 132.986L132.89 131.516C133.021 131.544 133.133 131.558 133.226 131.558C133.581 131.558 133.847 131.418 134.024 131.138C134.201 130.849 134.313 130.508 134.36 130.116C134.416 129.715 134.463 129.145 134.5 128.408L134.626 125.524H140.674ZM151.501 129.304C151.501 129.425 151.491 129.598 151.473 129.822H145.607C145.709 130.373 145.975 130.811 146.405 131.138C146.843 131.455 147.385 131.614 148.029 131.614C148.85 131.614 149.527 131.343 150.059 130.802L150.997 131.88C150.661 132.281 150.236 132.585 149.723 132.79C149.209 132.995 148.631 133.098 147.987 133.098C147.165 133.098 146.442 132.935 145.817 132.608C145.191 132.281 144.706 131.829 144.361 131.25C144.025 130.662 143.857 129.999 143.857 129.262C143.857 128.534 144.02 127.881 144.347 127.302C144.683 126.714 145.145 126.257 145.733 125.93C146.321 125.603 146.983 125.44 147.721 125.44C148.449 125.44 149.097 125.603 149.667 125.93C150.245 126.247 150.693 126.7 151.011 127.288C151.337 127.867 151.501 128.539 151.501 129.304ZM147.721 126.84C147.161 126.84 146.685 127.008 146.293 127.344C145.91 127.671 145.677 128.109 145.593 128.66H149.835C149.76 128.119 149.531 127.68 149.149 127.344C148.766 127.008 148.29 126.84 147.721 126.84ZM86.6096 160.252C85.2896 160.252 84.1016 159.976 83.0456 159.424C82.0016 158.86 81.1796 158.08 80.5796 157.084C79.9796 156.088 79.6796 154.96 79.6796 153.7C79.6796 152.44 79.9796 151.312 80.5796 150.316C81.1796 149.32 82.0016 148.546 83.0456 147.994C84.1016 147.43 85.2896 147.148 86.6096 147.148C87.7616 147.148 88.7996 147.352 89.7236 147.76C90.6476 148.168 91.4156 148.756 92.0276 149.524L89.7596 151.576C88.9436 150.592 87.9536 150.1 86.7896 150.1C86.1056 150.1 85.4936 150.25 84.9536 150.55C84.4256 150.85 84.0116 151.276 83.7116 151.828C83.4236 152.368 83.2796 152.992 83.2796 153.7C83.2796 154.408 83.4236 155.038 83.7116 155.59C84.0116 156.13 84.4256 156.55 84.9536 156.85C85.4936 157.15 86.1056 157.3 86.7896 157.3C87.9536 157.3 88.9436 156.808 89.7596 155.824L92.0276 157.876C91.4156 158.644 90.6476 159.232 89.7236 159.64C88.7996 160.048 87.7616 160.252 86.6096 160.252ZM101.597 160.252C100.265 160.252 99.065 159.97 97.997 159.406C96.941 158.842 96.107 158.062 95.495 157.066C94.895 156.07 94.595 154.948 94.595 153.7C94.595 152.452 94.895 151.33 95.495 150.334C96.107 149.338 96.941 148.558 97.997 147.994C99.065 147.43 100.265 147.148 101.597 147.148C102.929 147.148 104.123 147.43 105.179 147.994C106.247 148.558 107.081 149.338 107.681 150.334C108.293 151.33 108.599 152.452 108.599 153.7C108.599 154.948 108.293 156.07 107.681 157.066C107.081 158.062 106.247 158.842 105.179 159.406C104.123 159.97 102.929 160.252 101.597 160.252ZM101.597 157.3C102.233 157.3 102.809 157.15 103.325 156.85C103.841 156.55 104.249 156.13 104.549 155.59C104.849 155.038 104.999 154.408 104.999 153.7C104.999 152.992 104.849 152.368 104.549 151.828C104.249 151.276 103.841 150.85 103.325 150.55C102.809 150.25 102.233 150.1 101.597 150.1C100.961 150.1 100.385 150.25 99.869 150.55C99.353 150.85 98.945 151.276 98.645 151.828C98.345 152.368 98.195 152.992 98.195 153.7C98.195 154.408 98.345 155.038 98.645 155.59C98.945 156.13 99.353 156.55 99.869 156.85C100.385 157.15 100.961 157.3 101.597 157.3ZM124.696 147.4L119.296 160H115.786L110.404 147.4H114.256L117.676 155.608L121.168 147.4H124.696ZM127.324 147.4H130.888V160H127.324V147.4ZM135.313 147.4H141.271C142.651 147.4 143.875 147.658 144.943 148.174C146.011 148.69 146.839 149.422 147.427 150.37C148.015 151.318 148.309 152.428 148.309 153.7C148.309 154.972 148.015 156.082 147.427 157.03C146.839 157.978 146.011 158.71 144.943 159.226C143.875 159.742 142.651 160 141.271 160H135.313V147.4ZM141.127 157.156C142.207 157.156 143.071 156.85 143.719 156.238C144.379 155.626 144.709 154.78 144.709 153.7C144.709 152.62 144.379 151.774 143.719 151.162C143.071 150.55 142.207 150.244 141.127 150.244H138.877V157.156H141.127ZM151.714 153.556H156.97V156.184H151.714V153.556ZM165.308 147.4V160H161.744V150.154H159.404V147.4H165.308ZM173.701 147.148C175.513 147.148 176.941 147.682 177.985 148.75C179.029 149.818 179.551 151.354 179.551 153.358C179.551 154.798 179.269 156.04 178.705 157.084C178.153 158.116 177.367 158.902 176.347 159.442C175.339 159.982 174.169 160.252 172.837 160.252C172.129 160.252 171.451 160.168 170.803 160C170.155 159.844 169.603 159.622 169.147 159.334L170.443 156.778C171.055 157.21 171.829 157.426 172.765 157.426C173.665 157.426 174.391 157.18 174.943 156.688C175.507 156.184 175.837 155.458 175.933 154.51C175.213 155.122 174.271 155.428 173.107 155.428C172.315 155.428 171.589 155.266 170.929 154.942C170.269 154.606 169.741 154.138 169.345 153.538C168.961 152.926 168.769 152.23 168.769 151.45C168.769 150.598 168.985 149.848 169.417 149.2C169.861 148.54 170.455 148.036 171.199 147.688C171.955 147.328 172.789 147.148 173.701 147.148ZM173.953 152.872C174.469 152.872 174.889 152.728 175.213 152.44C175.537 152.14 175.699 151.75 175.699 151.27C175.699 150.802 175.537 150.424 175.213 150.136C174.901 149.836 174.475 149.686 173.935 149.686C173.431 149.686 173.017 149.83 172.693 150.118C172.381 150.406 172.225 150.796 172.225 151.288C172.225 151.768 172.381 152.152 172.693 152.44C173.017 152.728 173.437 152.872 173.953 152.872Z" fill="#8C0000"/>
<path d="M110.13 237.916C108.875 237.731 107.931 237.285 107.299 236.579C106.668 235.873 106.429 234.993 106.585 233.941C106.74 232.888 107.222 232.115 108.03 231.621C108.839 231.127 109.871 230.972 111.127 231.157L113.523 231.511L113.956 228.574L115.341 228.779L113.912 238.474L110.13 237.916ZM110.991 232.369C110.114 232.239 109.417 232.325 108.901 232.626C108.384 232.937 108.073 233.443 107.97 234.145C107.866 234.847 108.018 235.416 108.425 235.854C108.831 236.3 109.473 236.588 110.35 236.717L112.704 237.065L113.346 232.716L110.991 232.369Z" fill="#8C0000"/>
<path d="M93.6714 227.764C93.7003 227.665 93.7474 227.538 93.8127 227.382L99.5885 229.08C99.6921 228.429 99.5677 227.843 99.2152 227.321C98.8511 226.805 98.3198 226.445 97.6214 226.24C96.7707 225.99 96.0014 226.075 95.3136 226.495L94.8465 225.453C95.2794 225.172 95.7665 225.004 96.308 224.949C96.8405 224.892 97.4022 224.95 97.9932 225.123C98.7454 225.344 99.3678 225.693 99.8604 226.168C100.35 226.653 100.675 227.22 100.834 227.87C100.984 228.517 100.957 229.19 100.752 229.888C100.549 230.578 100.214 231.155 99.7463 231.621C99.2697 232.084 98.7181 232.389 98.0913 232.536C97.453 232.689 96.7935 232.665 96.113 232.465C95.4324 232.265 94.874 231.931 94.4378 231.462C93.99 231 93.6999 230.447 93.5676 229.805C93.4262 229.161 93.4609 228.48 93.6714 227.764ZM96.4327 231.377C97.0506 231.559 97.6252 231.523 98.1566 231.271C98.679 231.016 99.0655 230.594 99.3161 230.006L94.7492 228.664C94.6446 229.285 94.7474 229.846 95.0577 230.346C95.3565 230.852 95.8148 231.195 96.4327 231.377Z" fill="#8C0000"/>
<path d="M84.2476 223.494L85.6535 224.122L86.9335 221.259L88.1604 221.808L85.1319 228.582L83.9049 228.033L85.1849 225.17L83.7535 224.53L80.2752 226.41L78.9588 225.822L82.9848 223.711L81.8084 218.968L83.2526 219.614L84.2476 223.494Z" fill="#8C0000"/>
<path d="M73.2202 214.032C73.8468 214.42 74.3239 214.908 74.6515 215.496C74.9791 216.083 75.1356 216.708 75.1211 217.369C75.0938 218.032 74.8883 218.674 74.5047 219.292C74.121 219.911 73.6404 220.376 73.0627 220.688C72.4722 221.003 71.8435 221.14 71.1765 221.1C70.5046 221.068 69.8554 220.857 69.2287 220.469C68.6021 220.08 68.129 219.595 67.8093 219.012C67.4768 218.432 67.3242 217.811 67.3516 217.147C67.366 216.486 67.5651 215.846 67.9488 215.227C68.3324 214.609 68.8195 214.142 69.41 213.827C69.9876 213.515 70.6124 213.376 71.2843 213.408C71.9482 213.435 72.5935 213.643 73.2202 214.032ZM72.6004 215.031C72.1959 214.78 71.7784 214.648 71.348 214.634C70.9047 214.622 70.4886 214.727 70.0996 214.947C69.7056 215.175 69.3734 215.507 69.1029 215.943C68.8324 216.379 68.685 216.82 68.6609 217.267C68.6318 217.721 68.7233 218.14 68.9354 218.524C69.1396 218.903 69.4439 219.218 69.8485 219.469C70.253 219.72 70.6745 219.855 71.1128 219.874C71.5432 219.889 71.9594 219.784 72.3612 219.561C72.7503 219.341 73.08 219.013 73.3505 218.577C73.6211 218.141 73.7709 217.695 73.7999 217.241C73.8161 216.79 73.7246 216.371 73.5254 215.984C73.3133 215.6 73.005 215.282 72.6004 215.031Z" fill="#8C0000"/>
<path d="M53.1789 208.336L57.9822 202.68L58.9106 203.469L55.4033 207.599L60.4796 205.904L60.9278 206.284L60.0467 211.561L63.563 207.42L64.5021 208.218L59.6988 213.873L58.6424 212.976L59.6673 207.271L54.1393 209.152L53.1789 208.336Z" fill="#8C0000"/>
<path d="M45.0778 194.315C45.1552 194.248 45.2632 194.166 45.4021 194.069L49.361 198.604C49.7979 198.111 50.008 197.55 49.9912 196.921C49.9612 196.29 49.7068 195.701 49.228 195.152C48.645 194.484 47.9504 194.143 47.1444 194.128L47.3104 192.998C47.8266 192.993 48.3278 193.113 48.814 193.358C49.294 193.596 49.7365 193.947 50.1416 194.411C50.6572 195.001 50.9949 195.629 51.1548 196.295C51.3077 196.967 51.2766 197.62 51.0617 198.253C50.8406 198.88 50.4558 199.433 49.9073 199.912C49.3659 200.384 48.7729 200.691 48.1283 200.833C47.4776 200.967 46.8485 200.928 46.2412 200.715C45.6207 200.501 45.0772 200.126 44.6107 199.592C44.1442 199.058 43.853 198.476 43.7369 197.846C43.6077 197.215 43.6598 196.594 43.8932 195.981C44.1204 195.362 44.5153 194.806 45.0778 194.315ZM45.465 198.846C45.8885 199.331 46.3922 199.61 46.976 199.683C47.5536 199.749 48.106 199.601 48.6333 199.24L45.503 195.654C45.081 196.121 44.8666 196.649 44.8597 197.237C44.8397 197.825 45.0415 198.361 45.465 198.846Z" fill="#8C0000"/>
<path d="M37.408 190.403L36.6735 189.278L39.3113 187.556L37.0005 184.015L34.3626 185.737L33.6281 184.612L39.8418 180.556L40.5763 181.682L37.9736 183.38L40.2844 186.921L42.8871 185.222L43.6217 186.348L37.408 190.403Z" fill="#8C0000"/>
<path d="M31.8128 167.439L34.4421 166.22L34.9719 167.364L33.4096 168.088L36.0176 173.715L37.58 172.991L38.1157 174.146L35.4864 175.365L35.3215 175.009C35.096 174.589 34.6538 174.434 33.9949 174.544C33.336 174.654 32.4594 174.927 31.3649 175.362L29.0442 176.314L26.6245 171.094L32.2896 168.468L31.8128 167.439ZM30.9358 174.203C31.7983 173.844 32.5345 173.591 33.1444 173.442C33.7419 173.288 34.2282 173.294 34.6033 173.46L32.8548 169.687L28.2567 171.818L29.6107 174.74L30.9358 174.203Z" fill="#8C0000"/>
<path d="M29.5398 157.197C29.7539 157.903 29.79 158.584 29.6481 159.242C29.5063 159.899 29.2117 160.471 28.7645 160.958C28.3056 161.439 27.7278 161.785 27.0312 161.996C26.3345 162.207 25.6664 162.24 25.0267 162.092C24.3754 161.939 23.8126 161.627 23.3382 161.156C22.8549 160.688 22.5062 160.102 22.2921 159.396C22.078 158.691 22.0433 158.013 22.1878 157.365C22.3208 156.71 22.6167 156.142 23.0756 155.662C23.5228 155.175 24.0948 154.826 24.7914 154.614C25.4881 154.403 26.162 154.374 26.8133 154.528C27.453 154.675 28.0145 154.982 28.4978 155.45C28.9784 155.909 29.3257 156.491 29.5398 157.197ZM28.4145 157.538C28.2763 157.083 28.0503 156.708 27.7364 156.413C27.411 156.112 27.0295 155.915 26.5921 155.824C26.1457 155.735 25.6769 155.765 25.1857 155.914C24.6945 156.063 24.2925 156.297 23.9797 156.616C23.658 156.938 23.45 157.314 23.3557 157.742C23.2586 158.162 23.2792 158.599 23.4174 159.055C23.5556 159.51 23.783 159.89 24.0995 160.194C24.4133 160.489 24.7948 160.685 25.2439 160.783C25.6813 160.874 26.1456 160.846 26.6369 160.697C27.1281 160.548 27.5346 160.312 27.8563 159.99C28.1663 159.662 28.3744 159.287 28.4803 158.864C28.5746 158.436 28.5527 157.994 28.4145 157.538Z" fill="#8C0000"/>
<path d="M22.2775 142.659C22.3639 141.671 22.8817 141.101 23.8307 140.948C24.4757 140.844 25.0127 141.008 25.4416 141.44C25.8691 141.862 26.1601 142.553 26.3147 143.511L26.8834 147.035L19.5581 148.217L19.0095 144.817C18.8698 143.951 18.9263 143.247 19.1793 142.705C19.423 142.165 19.8443 141.846 20.4432 141.75C20.8302 141.687 21.1836 141.739 21.5034 141.905C21.8126 142.063 22.0706 142.314 22.2775 142.659ZM22.4997 146.41L22.1786 144.419C22.0968 143.913 21.943 143.545 21.7171 143.317C21.4897 143.079 21.2009 142.989 20.8508 143.045C20.1505 143.158 19.8836 143.731 20.0501 144.763L20.3713 146.753L22.4997 146.41ZM25.3075 143.773C25.2183 143.22 25.0639 142.819 24.8442 142.571C24.6246 142.323 24.3304 142.229 23.9619 142.288C23.5841 142.349 23.3239 142.523 23.1812 142.811C23.0371 143.09 23.0089 143.501 23.0966 144.044L23.4534 146.256L25.651 145.901L25.3075 143.773Z" fill="#8C0000"/>
<path d="M17.6363 131.002C17.6103 129.976 17.8423 129.186 18.3324 128.632C18.8223 128.069 19.5664 127.774 20.5648 127.749L25.0433 127.636L25.0756 128.909L24.096 128.934C24.4469 129.149 24.7209 129.464 24.9182 129.879C25.1059 130.286 25.2069 130.773 25.2214 131.342C25.2424 132.173 25.0588 132.845 24.6703 133.359C24.2817 133.864 23.7608 134.124 23.1077 134.141C22.4545 134.157 21.926 133.933 21.5221 133.467C21.1088 133.001 20.889 132.25 20.8627 131.215L20.8088 129.087L20.5429 129.094C19.9644 129.109 19.5255 129.288 19.2261 129.632C18.9267 129.975 18.7853 130.474 18.8019 131.127C18.813 131.565 18.8985 131.993 19.0584 132.409C19.209 132.825 19.4093 133.175 19.6592 133.458L18.6658 134.043C18.3482 133.669 18.1033 133.217 17.9312 132.69C17.7498 132.162 17.6515 131.6 17.6363 131.002ZM24.18 131.145C24.167 130.631 24.0438 130.191 23.8104 129.824C23.5677 129.456 23.2343 129.194 22.8101 129.037L21.7745 129.063L21.827 131.134C21.8559 132.273 22.2529 132.832 23.0179 132.813C23.3912 132.803 23.6814 132.651 23.8887 132.356C24.0959 132.062 24.193 131.658 24.18 131.145Z" fill="#8C0000"/>
<path d="M17.9452 118.94L18.0982 117.604L21.2277 117.963L21.7089 113.762L18.5794 113.404L18.7324 112.069L26.1041 112.913L25.9512 114.249L22.8634 113.895L22.3821 118.095L25.47 118.449L25.317 119.784L17.9452 118.94Z" fill="#8C0000"/>
<path d="M28.4039 102.226C28.219 102.94 27.8947 103.541 27.431 104.028C26.9673 104.515 26.4178 104.85 25.7824 105.033C25.1403 105.204 24.4669 105.198 23.7621 105.015C23.0574 104.833 22.4704 104.512 22.0012 104.053C21.5253 103.583 21.2075 103.023 21.0477 102.374C20.879 101.723 20.887 101.041 21.072 100.327C21.2569 99.6132 21.58 99.0172 22.0413 98.539C22.496 98.0493 23.0444 97.719 23.6865 97.5479C24.3219 97.3654 24.9919 97.3654 25.6967 97.548C26.4014 97.7306 26.9917 98.057 27.4676 98.5274C27.9369 98.9864 28.2559 99.5415 28.4246 100.193C28.5957 100.835 28.5888 101.513 28.4039 102.226ZM27.2655 101.932C27.3849 101.471 27.3875 101.033 27.2733 100.617C27.1524 100.191 26.9291 99.8245 26.6035 99.5184C26.2688 99.2099 25.853 98.9913 25.3561 98.8626C24.8592 98.7339 24.3941 98.7243 23.9608 98.8338C23.5184 98.9409 23.1454 99.1528 22.8416 99.4694C22.5401 99.777 22.3297 100.161 22.2104 100.622C22.091 101.083 22.0872 101.525 22.1991 101.95C22.3133 102.365 22.5365 102.731 22.8688 103.049C23.1945 103.355 23.6058 103.572 24.1027 103.701C24.5996 103.83 25.0693 103.84 25.5116 103.733C25.9473 103.615 26.3203 103.403 26.6308 103.098C26.9346 102.781 27.1461 102.392 27.2655 101.932Z" fill="#8C0000"/>
<path d="M29.4052 78.2869C29.8744 77.3737 30.4569 76.7915 31.1526 76.5404C31.8525 76.2809 32.6466 76.3794 33.5349 76.8358L37.5197 78.8833L36.9374 80.0164L36.0657 79.5686C36.2705 79.9256 36.36 80.3336 36.3341 80.7925C36.3041 81.2388 36.159 81.7151 35.8988 82.2215C35.5192 82.9604 35.0357 83.4622 34.4484 83.7271C33.8654 83.9837 33.2833 83.9627 32.7022 83.6641C32.1211 83.3655 31.765 82.9149 31.6338 82.3124C31.4944 81.7056 31.6614 80.9415 32.1349 80.02L33.1074 78.1272L32.8709 78.0056C32.3562 77.7412 31.885 77.688 31.4575 77.8461C31.03 78.0042 30.667 78.3738 30.3684 78.9549C30.1679 79.3451 30.0381 79.7611 29.979 80.2029C29.9116 80.6405 29.9197 81.0434 30.0033 81.4116L28.8508 81.449C28.7517 80.9679 28.7532 80.4545 28.8552 79.9088C28.9489 79.3588 29.1322 78.8182 29.4052 78.2869ZM35.0797 81.5488C35.3143 81.0922 35.4173 80.6467 35.3887 80.2123C35.3518 79.7736 35.1849 79.3835 34.8881 79.0422L33.9667 78.5687L33.0197 80.4117C32.4993 81.4244 32.5795 82.1057 33.2602 82.4555C33.5923 82.6261 33.9199 82.6318 34.2431 82.4726C34.5662 82.3133 34.8451 82.0054 35.0797 81.5488Z" fill="#8C0000"/>
<path d="M43.4691 69.512C43.0395 70.1341 42.5205 70.598 41.9123 70.9039C41.3093 71.202 40.6781 71.3276 40.0187 71.2805C39.3516 71.2281 38.7186 70.995 38.1196 70.5813C37.5206 70.1676 37.0823 69.6607 36.8048 69.0607C36.5196 68.4553 36.4136 67.8206 36.4866 67.1564C36.5573 66.4793 36.8075 65.8297 37.2371 65.2076C37.619 64.6547 38.0698 64.2401 38.5896 63.9639C39.1146 63.68 39.6706 63.5649 40.2574 63.6185L40.218 64.8334C39.7935 64.8238 39.4102 64.9107 39.0681 65.0941C38.7259 65.2774 38.4355 65.5419 38.1968 65.8875C37.921 66.2868 37.76 66.7088 37.7138 67.1533C37.673 67.5902 37.754 68.0148 37.957 68.4272C38.1575 68.8266 38.469 69.1722 38.8913 69.4639C39.3214 69.7609 39.7625 69.9352 40.2148 69.9866C40.6646 70.0251 41.0866 69.9479 41.4807 69.755C41.8801 69.5545 42.2177 69.2545 42.4935 68.8552C42.7322 68.5096 42.8767 68.1444 42.9271 67.7594C42.9774 67.3745 42.923 66.9853 42.7638 66.5917L43.8745 66.1168C44.1324 66.6466 44.2254 67.2099 44.1535 67.8068C44.0791 68.3907 43.851 68.9591 43.4691 69.512Z" fill="#8C0000"/>
<path d="M51.3729 59.5837C50.869 60.1474 50.2963 60.543 49.6546 60.7706C49.0192 60.9913 48.3773 61.0372 47.7289 60.9082C47.0736 60.7731 46.4745 60.4629 45.9318 59.9777C45.389 59.4925 45.0174 58.935 44.8168 58.305C44.6093 57.6689 44.5833 57.0259 44.7385 56.376C44.8931 55.7129 45.2223 55.0996 45.7261 54.536C46.174 54.035 46.673 53.6798 47.2231 53.4706C47.7795 53.2543 48.3454 53.2094 48.921 53.3358L48.7304 54.5363C48.3105 54.4739 47.9193 54.5123 47.557 54.6516C47.1946 54.7908 46.8735 55.017 46.5936 55.3302C46.2701 55.692 46.0578 56.0906 45.9566 56.5259C45.8616 56.9543 45.889 57.3857 46.039 57.8202C46.1882 58.2415 46.4541 58.6232 46.8368 58.9653C47.2265 59.3136 47.6425 59.5415 48.0847 59.6489C48.5263 59.7432 48.9546 59.7192 49.3697 59.577C49.791 59.4278 50.1633 59.1723 50.4868 58.8104C50.7667 58.4973 50.9556 58.1529 51.0536 57.7773C51.1515 57.4016 51.146 57.0086 51.0371 56.5983L52.1984 56.2656C52.3882 56.8234 52.4103 57.3939 52.2645 57.9772C52.1179 58.5472 51.8207 59.0827 51.3729 59.5837Z" fill="#8C0000"/>
<path d="M60.4023 50.7627C59.8439 51.2442 59.2354 51.5532 58.5767 51.6897C57.9181 51.8263 57.2756 51.7887 56.6494 51.5769C56.0241 51.352 55.4738 50.9638 54.9984 50.4125C54.523 49.8611 54.2231 49.2632 54.0988 48.6187C53.9754 47.961 54.0327 47.32 54.2708 46.6957C54.5028 46.0643 54.8981 45.5079 55.4565 45.0264C56.0149 44.545 56.6199 44.239 57.2715 44.1085C57.924 43.9649 58.5629 44.0056 59.1882 44.2305C59.8145 44.4423 60.3653 44.8239 60.8407 45.3752C61.316 45.9266 61.6154 46.5311 61.7388 47.1887C61.8632 47.8332 61.8094 48.4712 61.5774 49.1026C61.3524 49.7278 60.9607 50.2812 60.4023 50.7627ZM59.6344 49.872C59.9949 49.5612 60.2464 49.2026 60.389 48.7962C60.5325 48.3767 60.5576 47.9484 60.4642 47.5113C60.3647 47.0672 60.1474 46.6508 59.8122 46.262C59.477 45.8732 59.1001 45.6005 58.6815 45.4438C58.2569 45.28 57.8296 45.2417 57.3996 45.329C56.9766 45.4103 56.5849 45.6063 56.2244 45.9171C55.8639 46.2279 55.6088 46.5896 55.4592 47.002C55.3166 47.4084 55.2916 47.8367 55.384 48.2869C55.4774 48.724 55.6917 49.1369 56.0269 49.5257C56.3621 49.9145 56.742 50.1907 57.1667 50.3545C57.5923 50.5051 58.0196 50.5434 58.4486 50.4692C58.8786 50.3819 59.2739 50.1829 59.6344 49.872Z" fill="#8C0000"/>
<path d="M74.6257 38.9304L76.225 41.414L75.1539 42.1037L74.1913 40.6089L68.6002 44.2092L64.5829 37.9708L65.7129 37.2432L69.0935 42.4929L72.507 40.2947L69.1264 35.045L70.2564 34.3174L73.6369 39.5671L74.6257 38.9304Z" fill="#8C0000"/>
<path d="M78.124 29.967L79.3468 29.4093L81.5892 34.3261L83.4866 27.5213L84.5948 27.0159L87.6737 33.767L86.4509 34.3247L84.2085 29.4079L82.3238 36.2069L81.2029 36.7181L78.124 29.967Z" fill="#8C0000"/>
<path d="M95.172 23.197C96.1562 22.9049 96.9795 22.9235 97.6419 23.2527C98.3132 23.5792 98.7909 24.2212 99.075 25.1786L100.349 29.4735L99.1281 29.8359L98.8493 28.8964C98.7328 29.2912 98.4997 29.6378 98.1502 29.9362C97.8069 30.2231 97.3624 30.4474 96.8166 30.6094C96.0203 30.8457 95.3234 30.8432 94.7261 30.6018C94.1377 30.3578 93.7505 29.9226 93.5647 29.2963C93.3788 28.6699 93.4583 28.1011 93.8031 27.5899C94.1453 27.0698 94.813 26.6623 95.8062 26.3676L97.8462 25.7622L97.7706 25.5072C97.6059 24.9525 97.3188 24.5752 96.909 24.3756C96.4993 24.1759 95.9813 24.1689 95.3549 24.3548C94.9344 24.4796 94.544 24.6733 94.1839 24.936C93.821 25.1897 93.5354 25.474 93.3271 25.7889L92.5035 24.9819C92.7827 24.5777 93.1548 24.224 93.6197 23.9205C94.0819 23.6081 94.5993 23.3669 95.172 23.197ZM96.7366 29.5525C97.2287 29.4065 97.6219 29.173 97.9161 28.852C98.2076 28.5221 98.3742 28.132 98.4158 27.6815L98.121 26.6883L96.1346 27.2778C95.043 27.6017 94.6061 28.1305 94.8238 28.8642C94.93 29.2221 95.1523 29.4628 95.4908 29.5863C95.8292 29.7098 96.2445 29.6985 96.7366 29.5525Z" fill="#8C0000"/>
<path d="M115.663 25.3578L116.101 28.279L114.841 28.4682L114.577 26.7099L108.001 27.6974L106.899 20.3596L108.228 20.1601L109.156 26.3348L113.171 25.732L112.243 19.5572L113.573 19.3576L114.5 25.5324L115.663 25.3578Z" fill="#8C0000"/>
<path d="M122.533 18.6215L123.877 18.6151L123.903 24.019L128.427 18.5932L129.645 18.5873L129.68 26.0072L128.336 26.0137L128.31 20.6098L123.8 26.0355L122.569 26.0414L122.533 18.6215Z" fill="#8C0000"/>
<path d="M144.367 23.7801C144.353 23.8818 144.326 24.0147 144.285 24.1786L138.319 23.3707C138.315 24.0294 138.526 24.5902 138.953 25.053C139.391 25.5078 139.971 25.7841 140.692 25.8818C141.571 26.0008 142.318 25.8007 142.935 25.2814L143.554 26.2411C143.168 26.5845 142.712 26.8241 142.185 26.9599C141.667 27.097 141.103 27.1242 140.492 27.0415C139.716 26.9363 139.048 26.6858 138.489 26.2899C137.932 25.8848 137.526 25.3729 137.27 24.7544C137.024 24.1371 136.95 23.4678 137.048 22.7464C137.144 22.0342 137.389 21.4127 137.781 20.8819C138.182 20.3523 138.681 19.9678 139.279 19.7285C139.887 19.4812 140.542 19.4052 141.245 19.5004C141.948 19.5956 142.551 19.842 143.053 20.2396C143.565 20.6292 143.935 21.1314 144.162 21.7462C144.399 22.3622 144.467 23.0402 144.367 23.7801ZM141.093 20.6241C140.455 20.5377 139.892 20.6593 139.405 20.9888C138.927 21.3197 138.608 21.7945 138.449 22.4134L143.166 23.0523C143.176 22.4226 142.99 21.8841 142.608 21.4367C142.236 20.9814 141.731 20.7105 141.093 20.6241Z" fill="#8C0000"/>
<path d="M152.717 21.6751L154.011 22.0388L152.548 27.2412L158.391 23.2701L159.563 23.5998L157.555 30.7429L156.262 30.3792L157.724 25.1768L151.895 29.1516L150.709 28.8182L152.717 21.6751ZM156.321 21.6847C155.656 21.4978 155.183 21.1954 154.903 20.7773C154.626 20.3503 154.567 19.8345 154.728 19.23L155.604 19.4763C155.519 19.8112 155.556 20.1124 155.713 20.3796C155.882 20.6405 156.151 20.8227 156.519 20.9262C156.888 21.0298 157.212 21.0143 157.492 20.8798C157.775 20.7362 157.968 20.4995 158.07 20.1696L158.973 20.4235C158.795 21.0229 158.472 21.4314 158.003 21.6487C157.537 21.8571 156.977 21.8691 156.321 21.6847Z" fill="#8C0000"/>
<path d="M180.453 34.0354L176.822 32.0969L173.881 37.6051L172.696 36.9721L176.19 30.4265L181.007 32.998L180.453 34.0354Z" fill="#8C0000"/>
<path d="M190.261 38.5948C191.099 39.1875 191.594 39.8458 191.745 40.5699C191.903 41.2993 191.695 42.0718 191.118 42.8872L188.532 46.5454L187.492 45.8099L188.057 45.0097C187.675 45.1624 187.259 45.1937 186.808 45.1037C186.37 45.0114 185.919 44.8009 185.454 44.4723C184.776 43.9928 184.347 43.4437 184.167 42.825C183.994 42.2117 184.097 41.6384 184.474 41.1049C184.851 40.5714 185.347 40.282 185.962 40.2367C186.583 40.1838 187.316 40.4563 188.162 41.0544L189.899 42.2828L190.053 42.0656C190.387 41.5931 190.506 41.1341 190.409 40.6887C190.313 40.2432 189.998 39.8319 189.464 39.4548C189.106 39.2015 188.712 39.0147 188.283 38.8941C187.859 38.766 187.459 38.7175 187.083 38.7486L187.208 37.6023C187.698 37.5717 188.206 37.6451 188.732 37.8227C189.263 37.9926 189.773 38.25 190.261 38.5948ZM186.235 43.7556C186.654 44.052 187.081 44.2164 187.515 44.249C187.954 44.274 188.364 44.1635 188.744 43.9176L189.342 43.0716L187.65 41.8755C186.72 41.2182 186.034 41.202 185.592 41.8269C185.377 42.1318 185.325 42.4554 185.438 42.7977C185.55 43.14 185.816 43.4593 186.235 43.7556Z" fill="#8C0000"/>
<path d="M196.031 53.3997C195.476 52.8871 195.089 52.3082 194.872 51.663C194.661 51.0242 194.625 50.3817 194.764 49.7354C194.91 49.0822 195.229 48.4881 195.723 47.9531C196.217 47.418 196.78 47.0552 197.413 46.8646C198.052 46.6672 198.696 46.6512 199.343 46.8167C200.004 46.9817 200.612 47.3205 201.167 47.8332C201.661 48.2888 202.008 48.7934 202.209 49.3467C202.416 49.9064 202.452 50.473 202.317 51.0465L201.12 50.837C201.189 50.4181 201.156 50.0264 201.023 49.6619C200.889 49.2974 200.668 48.9728 200.36 48.688C200.003 48.3589 199.608 48.1403 199.174 48.0322C198.747 47.9305 198.315 47.9512 197.879 48.0942C197.455 48.2368 197.069 48.4967 196.721 48.874C196.367 49.2581 196.132 49.6704 196.018 50.111C195.917 50.551 195.934 50.9796 196.07 51.3969C196.212 51.8205 196.462 52.1968 196.818 52.5259C197.127 52.8107 197.468 53.005 197.843 53.1089C198.217 53.2127 198.61 53.2134 199.022 53.111L199.336 54.2773C198.775 54.4584 198.204 54.4715 197.624 54.3165C197.056 54.161 196.525 53.8554 196.031 53.3997Z" fill="#8C0000"/>
<path d="M211.069 60.2682L209.309 58.2004L204.555 62.2486L203.683 61.2254L208.437 57.1771L206.676 55.1093L207.572 54.3468L211.965 59.5057L211.069 60.2682Z" fill="#8C0000"/>
<path d="M218.45 68.4779C218.841 69.0808 219.058 69.7074 219.102 70.3577C219.146 71.0081 219.015 71.6213 218.71 72.1974C218.411 72.7813 217.948 73.2765 217.321 73.683C216.695 74.0894 216.05 74.3131 215.387 74.3541C214.736 74.3978 214.123 74.2672 213.547 73.9624C212.971 73.6575 212.487 73.2037 212.096 72.6008C211.807 72.1545 211.626 71.6876 211.554 71.2C211.488 70.7202 211.535 70.2445 211.696 69.7727L208.478 71.8608L207.747 70.7334L216.25 65.216L216.951 66.2964L215.964 66.9366C216.471 66.9636 216.935 67.113 217.357 67.3849C217.786 67.6517 218.15 68.016 218.45 68.4779ZM213.022 71.8667C213.281 72.266 213.602 72.5638 213.985 72.7601C214.382 72.9592 214.802 73.0421 215.248 73.0088C215.707 72.9782 216.151 72.8232 216.582 72.5438C217.013 72.2644 217.331 71.924 217.538 71.5227C217.758 71.1242 217.854 70.706 217.826 70.2681C217.802 69.8381 217.661 69.4234 217.402 69.0241C217.148 68.6327 216.823 68.3374 216.427 68.1383C216.044 67.942 215.627 67.8566 215.176 67.8821C214.73 67.9154 214.292 68.0717 213.861 68.3512C213.431 68.6306 213.106 68.9696 212.886 69.3681C212.674 69.7616 212.578 70.1798 212.598 70.6227C212.627 71.0606 212.768 71.4752 213.022 71.8667Z" fill="#8C0000"/>
<path d="M218.815 84.7637C218.503 84.0954 218.371 83.4258 218.419 82.7548C218.467 82.0839 218.678 81.4758 219.052 80.9308C219.438 80.3902 219.961 79.9662 220.621 79.6586C221.281 79.351 221.938 79.225 222.592 79.2806C223.258 79.3406 223.86 79.5701 224.396 79.969C224.94 80.3639 225.368 80.8955 225.68 81.5638C225.991 82.2321 226.121 82.8975 226.07 83.56C226.03 84.227 225.818 84.8308 225.431 85.3714C225.057 85.9165 224.54 86.3428 223.88 86.6503C223.22 86.9579 222.557 87.0817 221.891 87.0216C221.237 86.966 220.637 86.7408 220.093 86.3459C219.552 85.9594 219.126 85.432 218.815 84.7637ZM219.881 84.2669C220.082 84.6983 220.359 85.0379 220.711 85.2855C221.076 85.5377 221.481 85.6783 221.927 85.7073C222.381 85.7323 222.841 85.6364 223.306 85.4195C223.772 85.2026 224.137 84.9141 224.401 84.5539C224.674 84.1898 224.827 83.789 224.86 83.3514C224.897 82.9223 224.815 82.4921 224.614 82.0607C224.413 81.6292 224.134 81.2854 223.778 81.0293C223.426 80.7816 223.02 80.641 222.562 80.6076C222.116 80.5786 221.66 80.6726 221.195 80.8894C220.73 81.1063 220.36 81.3968 220.087 81.7609C219.827 82.1296 219.674 82.5304 219.628 82.9634C219.596 83.4009 219.68 83.8354 219.881 84.2669Z" fill="#8C0000"/>
<path d="M230.681 94.2658C230.906 94.9877 230.952 95.6868 230.821 96.3631C230.692 97.0484 230.402 97.6418 229.952 98.1434C229.502 98.645 228.934 99.0026 228.248 99.216C227.553 99.4323 226.878 99.4614 226.222 99.3036C225.567 99.1457 224.992 98.8212 224.497 98.33C224.005 97.8477 223.647 97.2456 223.422 96.5238C223.228 95.8999 223.15 95.3035 223.188 94.7345C223.229 94.1744 223.383 93.6624 223.649 93.1984L224.63 93.7142C224.246 94.4592 224.19 95.2684 224.462 96.1418C224.678 96.8369 225.059 97.3686 225.603 97.7368C226.157 98.1022 226.77 98.2341 227.442 98.1326L226.336 94.5766L227.285 94.2814L228.383 97.8106C228.961 97.5035 229.363 97.0511 229.588 96.4534C229.821 95.8529 229.833 95.214 229.622 94.5367C229.353 93.6722 228.843 93.0391 228.093 92.6372L228.595 91.6599C229.087 91.8882 229.509 92.2259 229.863 92.6729C230.217 93.1199 230.49 93.6509 230.681 94.2658Z" fill="#8C0000"/>
<path d="M233.808 106.442L234.025 107.768L230.917 108.277L231.599 112.449L234.708 111.941L234.925 113.267L227.602 114.465L227.385 113.139L230.452 112.637L229.77 108.464L226.703 108.966L226.486 107.64L233.808 106.442Z" fill="#8C0000"/>
<path d="M234.711 127.54L234.623 124.826L228.383 125.027L228.339 123.684L234.58 123.482L234.492 120.768L235.667 120.73L235.887 127.502L234.711 127.54Z" fill="#8C0000"/>
<path d="M231.305 140.94C231.203 140.931 231.069 140.909 230.904 140.875L231.461 134.881C230.802 134.904 230.251 135.139 229.806 135.585C229.37 136.041 229.119 136.632 229.051 137.356C228.969 138.239 229.201 138.978 229.745 139.572L228.812 140.231C228.453 139.86 228.195 139.414 228.037 138.893C227.878 138.382 227.827 137.819 227.884 137.206C227.957 136.425 228.179 135.748 228.551 135.173C228.933 134.599 229.427 134.172 230.034 133.891C230.641 133.619 231.306 133.517 232.031 133.584C232.747 133.651 233.378 133.869 233.925 134.238C234.471 134.617 234.876 135.1 235.14 135.687C235.412 136.284 235.516 136.936 235.45 137.642C235.385 138.348 235.164 138.96 234.788 139.478C234.42 140.007 233.934 140.397 233.329 140.65C232.723 140.913 232.049 141.01 231.305 140.94ZM234.321 137.537C234.381 136.896 234.236 136.339 233.886 135.865C233.535 135.402 233.048 135.103 232.423 134.97L231.982 139.71C232.612 139.693 233.142 139.485 233.573 139.084C234.012 138.694 234.262 138.178 234.321 137.537Z" fill="#8C0000"/>
<path d="M232.921 153.039C232.756 153.738 232.453 154.328 232.014 154.809C231.574 155.29 231.04 155.62 230.413 155.798C229.784 155.985 229.106 155.992 228.379 155.821C227.653 155.649 227.046 155.338 226.558 154.887C226.076 154.447 225.747 153.913 225.569 153.286C225.391 152.659 225.385 151.996 225.55 151.297C225.673 150.779 225.885 150.326 226.188 149.937C226.489 149.557 226.865 149.263 227.318 149.053L223.585 148.171L223.894 146.863L233.758 149.194L233.462 150.448L232.317 150.177C232.648 150.562 232.861 151.001 232.956 151.493C233.059 151.988 233.048 152.503 232.921 153.039ZM226.72 151.458C226.611 151.921 226.618 152.359 226.741 152.772C226.871 153.196 227.102 153.557 227.434 153.856C227.773 154.167 228.192 154.381 228.692 154.499C229.191 154.617 229.658 154.612 230.091 154.484C230.531 154.368 230.899 154.148 231.196 153.825C231.491 153.511 231.693 153.122 231.802 152.659C231.91 152.205 231.898 151.766 231.768 151.342C231.645 150.929 231.419 150.569 231.089 150.261C230.757 149.962 230.341 149.753 229.841 149.635C229.342 149.517 228.872 149.516 228.432 149.633C228.001 149.752 227.633 149.971 227.327 150.292C227.03 150.615 226.828 151.004 226.72 151.458Z" fill="#8C0000"/>
<path d="M221.405 164.56C221.672 163.873 222.065 163.314 222.583 162.885C223.101 162.456 223.686 162.188 224.338 162.082C224.996 161.987 225.664 162.072 226.343 162.337C227.021 162.601 227.566 162.988 227.978 163.5C228.395 164.023 228.645 164.616 228.727 165.279C228.818 165.945 228.73 166.622 228.462 167.309C228.194 167.996 227.803 168.55 227.289 168.971C226.78 169.403 226.196 169.667 225.539 169.761C224.886 169.867 224.221 169.789 223.542 169.524C222.864 169.26 222.316 168.866 221.899 168.343C221.487 167.832 221.236 167.243 221.145 166.577C221.05 165.919 221.137 165.247 221.405 164.56ZM222.501 164.987C222.328 165.43 222.274 165.865 222.338 166.29C222.408 166.728 222.586 167.118 222.874 167.461C223.17 167.807 223.557 168.073 224.035 168.259C224.514 168.445 224.974 168.51 225.418 168.452C225.869 168.398 226.265 168.231 226.604 167.952C226.939 167.682 227.193 167.326 227.366 166.882C227.539 166.439 227.595 166 227.534 165.565C227.469 165.139 227.291 164.749 226.998 164.395C226.711 164.053 226.328 163.788 225.85 163.602C225.371 163.416 224.906 163.349 224.454 163.404C224.008 163.47 223.612 163.637 223.268 163.903C222.929 164.182 222.673 164.543 222.501 164.987Z" fill="#8C0000"/>
<path d="M220.617 183.36L214.128 179.763L214.779 178.587L220.24 181.614L221.788 178.823L220.384 177.948C219.533 177.423 218.845 176.941 218.321 176.501C217.805 176.065 217.443 175.62 217.237 175.164C217.031 174.708 217.057 174.247 217.315 173.782C217.432 173.57 217.603 173.349 217.825 173.121L218.776 173.744C218.693 173.837 218.627 173.928 218.577 174.017C218.396 174.344 218.403 174.668 218.598 174.99C218.793 175.311 219.073 175.605 219.438 175.871C219.803 176.138 220.337 176.492 221.041 176.936L223.38 178.376L220.617 183.36Z" fill="#8C0000"/>
<path d="M208.188 188.409C208.628 187.818 209.156 187.385 209.769 187.109C210.382 186.833 211.018 186.73 211.675 186.801C212.334 186.885 212.955 187.145 213.539 187.58C214.123 188.015 214.545 188.534 214.806 189.136C215.069 189.751 215.152 190.389 215.055 191.05C214.965 191.717 214.7 192.346 214.259 192.937C213.819 193.528 213.294 193.958 212.687 194.227C212.081 194.508 211.448 194.607 210.789 194.523C210.132 194.452 209.511 194.199 208.928 193.764C208.344 193.329 207.921 192.803 207.658 192.188C207.397 191.586 207.311 190.951 207.4 190.285C207.484 189.626 207.747 189.001 208.188 188.409ZM209.13 189.112C208.846 189.494 208.678 189.899 208.627 190.326C208.578 190.767 208.646 191.19 208.832 191.597C209.025 192.009 209.328 192.368 209.739 192.675C210.151 192.982 210.578 193.167 211.021 193.229C211.471 193.297 211.896 193.241 212.297 193.063C212.692 192.892 213.032 192.616 213.317 192.234C213.601 191.853 213.772 191.444 213.828 191.009C213.88 190.581 213.811 190.158 213.623 189.738C213.437 189.332 213.139 188.975 212.727 188.669C212.316 188.362 211.885 188.174 211.435 188.106C210.987 188.052 210.561 188.107 210.159 188.272C209.758 188.451 209.415 188.731 209.13 189.112Z" fill="#8C0000"/>
<path d="M202.271 204.84L205.124 201.873L200.623 197.545L201.554 196.576L206.903 201.719L203.119 205.655L202.271 204.84Z" fill="#8C0000"/>
<path d="M190.635 206.671C191.208 206.207 191.826 205.918 192.489 205.802C193.151 205.686 193.792 205.744 194.411 205.975C195.029 206.22 195.567 206.625 196.025 207.191C196.483 207.757 196.764 208.364 196.868 209.012C196.97 209.674 196.893 210.312 196.635 210.929C196.383 211.553 195.971 212.096 195.398 212.56C194.824 213.024 194.21 213.311 193.555 213.42C192.898 213.543 192.26 213.483 191.643 213.238C191.023 213.007 190.485 212.608 190.027 212.042C189.569 211.476 189.289 210.862 189.186 210.201C189.082 209.553 189.156 208.917 189.408 208.293C189.653 207.675 190.061 207.135 190.635 206.671ZM191.374 207.585C191.004 207.885 190.741 208.235 190.586 208.637C190.429 209.052 190.391 209.479 190.471 209.919C190.556 210.366 190.76 210.789 191.083 211.188C191.406 211.587 191.774 211.872 192.187 212.041C192.607 212.219 193.032 212.27 193.465 212.196C193.89 212.129 194.288 211.945 194.658 211.646C195.028 211.346 195.294 210.993 195.457 210.585C195.612 210.184 195.651 209.756 195.573 209.304C195.493 208.864 195.292 208.444 194.969 208.045C194.646 207.646 194.275 207.358 193.856 207.181C193.435 207.017 193.009 206.965 192.578 207.026C192.146 207.1 191.744 207.286 191.374 207.585Z" fill="#8C0000"/>
<path d="M179.894 218.867C178.947 219.159 178.223 218.893 177.725 218.071C177.386 217.513 177.336 216.954 177.574 216.394C177.805 215.839 178.336 215.31 179.166 214.806L182.218 212.954L186.067 219.297L183.123 221.084C182.373 221.539 181.699 221.751 181.102 221.721C180.51 221.698 180.056 221.428 179.741 220.909C179.538 220.574 179.453 220.227 179.486 219.868C179.517 219.522 179.653 219.189 179.894 218.867ZM183.286 217.251L181.562 218.297C181.124 218.563 180.841 218.844 180.714 219.139C180.58 219.439 180.605 219.741 180.789 220.044C181.157 220.651 181.787 220.683 182.681 220.14L184.404 219.094L183.286 217.251ZM179.787 215.641C179.308 215.931 178.995 216.225 178.848 216.522C178.7 216.819 178.723 217.127 178.917 217.446C179.116 217.773 179.375 217.949 179.695 217.973C180.008 218.002 180.399 217.873 180.87 217.587L182.785 216.425L181.63 214.522L179.787 215.641Z" fill="#8C0000"/>
<path d="M161.416 233.633C160.211 234.031 159.168 234.057 158.286 233.71C157.404 233.362 156.796 232.684 156.462 231.673C156.128 230.663 156.211 229.756 156.712 228.951C157.212 228.147 158.065 227.545 159.27 227.146L161.57 226.386L160.638 223.568L161.967 223.128L165.045 232.432L161.416 233.633ZM159.693 228.289C158.851 228.568 158.267 228.958 157.941 229.459C157.618 229.969 157.568 230.56 157.791 231.234C158.014 231.907 158.405 232.348 158.966 232.556C159.529 232.772 160.232 232.742 161.073 232.463L163.333 231.716L161.952 227.542L159.693 228.289Z" fill="#8C0000"/>
<path d="M138.042 233.835C137.834 232.555 138.118 231.478 138.894 230.605C139.669 229.733 140.868 229.136 142.49 228.816L142.324 227.794L143.609 227.585L143.775 228.608C145.416 228.408 146.747 228.599 147.768 229.18C148.78 229.763 149.389 230.69 149.595 231.961C149.803 233.242 149.519 234.319 148.743 235.191C147.959 236.066 146.756 236.667 145.136 236.996L145.295 237.977L144.01 238.186L143.851 237.205C142.219 237.403 140.896 237.207 139.883 236.615C138.862 236.033 138.248 235.107 138.042 233.835ZM142.665 229.894C141.442 230.168 140.551 230.62 139.991 231.25C139.424 231.89 139.217 232.685 139.371 233.634C139.522 234.565 139.972 235.239 140.72 235.656C141.461 236.084 142.445 236.237 143.673 236.113L142.665 229.894ZM148.255 232.179C148.102 231.239 147.656 230.555 146.915 230.127C146.166 229.709 145.178 229.562 143.95 229.686L144.959 235.905C146.181 235.631 147.077 235.178 147.646 234.547C148.206 233.917 148.409 233.128 148.255 232.179Z" fill="#8C0000"/>
</svg>
