<svg width="245" height="245" viewBox="0 0 245 245" fill="none" xmlns="http://www.w3.org/2000/svg">
<mask id="mask0" mask-type="alpha" maskUnits="userSpaceOnUse" x="0" y="0" width="245" height="245">
<rect width="245" height="245" fill="#C4C4C4"/>
</mask>
<g mask="url(#mask0)">
<g filter="url(#filter0_f)">
<circle cx="122.5" cy="122.5" r="116.5" fill="url(#paint0_linear)"/>
</g>
<path d="M74.1922 118.232V122H61.1122V119.024L67.4002 113.144C68.0082 112.568 68.4162 112.08 68.6242 111.68C68.8322 111.264 68.9362 110.848 68.9362 110.432C68.9362 109.888 68.7522 109.464 68.3842 109.16C68.0162 108.856 67.4802 108.704 66.7762 108.704C66.1522 108.704 65.5762 108.848 65.0482 109.136C64.5362 109.408 64.1122 109.808 63.7762 110.336L60.2482 108.368C60.9042 107.28 61.8242 106.424 63.0082 105.8C64.1922 105.176 65.5922 104.864 67.2082 104.864C68.4882 104.864 69.6162 105.072 70.5922 105.488C71.5842 105.904 72.3522 106.504 72.8962 107.288C73.4562 108.056 73.7362 108.952 73.7362 109.976C73.7362 110.888 73.5362 111.752 73.1362 112.568C72.7522 113.368 72.0002 114.28 70.8802 115.304L67.7122 118.232H74.1922ZM79.0018 116.816C79.7858 116.816 80.4338 117.064 80.9458 117.56C81.4578 118.056 81.7138 118.704 81.7138 119.504C81.7138 119.872 81.6658 120.24 81.5698 120.608C81.4738 120.976 81.2578 121.528 80.9218 122.264L79.4098 125.768H76.5538L77.6818 121.856C77.2338 121.648 76.8818 121.344 76.6258 120.944C76.3858 120.528 76.2658 120.048 76.2658 119.504C76.2658 118.704 76.5218 118.056 77.0338 117.56C77.5458 117.064 78.2018 116.816 79.0018 116.816ZM90.0946 111.32C92.4466 111.32 94.1826 111.8 95.3026 112.76C96.4386 113.72 97.0066 115 97.0066 116.6C97.0066 117.64 96.7346 118.6 96.1906 119.48C95.6626 120.344 94.8466 121.04 93.7426 121.568C92.6546 122.08 91.3026 122.336 89.6866 122.336C88.5026 122.336 87.3266 122.192 86.1586 121.904C85.0066 121.616 84.0146 121.208 83.1826 120.68L84.8866 117.104C85.5586 117.552 86.2946 117.896 87.0946 118.136C87.9106 118.376 88.7266 118.496 89.5426 118.496C90.3586 118.496 91.0066 118.344 91.4866 118.04C91.9826 117.72 92.2306 117.28 92.2306 116.72C92.2306 116.16 91.9906 115.736 91.5106 115.448C91.0306 115.16 90.1826 115.016 88.9666 115.016H84.4066L85.2466 105.2H95.9506V108.872H89.1826L88.9666 111.32H90.0946ZM122.697 122L122.673 113.096L118.353 120.344H116.241L111.921 113.288V122H107.553V105.2H111.465L117.369 114.896L123.129 105.2H127.041L127.089 122H122.697ZM146.888 105.2V122H142.208V108.968H137.384L137.288 111.704C137.208 114.104 137.008 116.056 136.688 117.56C136.384 119.064 135.856 120.232 135.104 121.064C134.352 121.88 133.288 122.288 131.912 122.288C131.272 122.288 130.552 122.192 129.752 122L130.016 118.112C130.224 118.16 130.44 118.184 130.664 118.184C131.288 118.184 131.768 117.936 132.104 117.44C132.44 116.944 132.68 116.256 132.824 115.376C132.968 114.48 133.064 113.32 133.112 111.896L133.352 105.2H146.888ZM158.761 105.2C160.281 105.2 161.601 105.456 162.721 105.968C163.841 106.464 164.705 107.184 165.313 108.128C165.921 109.056 166.225 110.152 166.225 111.416C166.225 112.68 165.921 113.776 165.313 114.704C164.705 115.632 163.841 116.352 162.721 116.864C161.601 117.36 160.281 117.608 158.761 117.608H155.833V122H151.081V105.2H158.761ZM158.473 113.864C159.449 113.864 160.185 113.656 160.681 113.24C161.177 112.808 161.425 112.2 161.425 111.416C161.425 110.632 161.177 110.024 160.681 109.592C160.185 109.16 159.449 108.944 158.473 108.944H155.833V113.864H158.473ZM186.135 118.232V125.384H181.791V122H171.039V125.384H166.671V118.232H167.271C168.263 118.216 168.959 117.536 169.359 116.192C169.775 114.848 170.031 112.912 170.127 110.384L170.319 105.2H183.855V118.232H186.135ZM174.279 110.792C174.215 112.584 174.071 114.104 173.847 115.352C173.623 116.6 173.279 117.56 172.815 118.232H179.175V108.968H174.351L174.279 110.792ZM104.633 144.568H102.473V151H97.7446V134.2H102.473V140.728H104.753L108.761 134.2H113.753L108.497 142.312L113.801 151H108.449L104.633 144.568ZM124.087 151.336C122.311 151.336 120.711 150.96 119.287 150.208C117.879 149.456 116.767 148.416 115.951 147.088C115.151 145.76 114.751 144.264 114.751 142.6C114.751 140.936 115.151 139.44 115.951 138.112C116.767 136.784 117.879 135.744 119.287 134.992C120.711 134.24 122.311 133.864 124.087 133.864C125.863 133.864 127.455 134.24 128.863 134.992C130.287 135.744 131.399 136.784 132.199 138.112C133.015 139.44 133.423 140.936 133.423 142.6C133.423 144.264 133.015 145.76 132.199 147.088C131.399 148.416 130.287 149.456 128.863 150.208C127.455 150.96 125.863 151.336 124.087 151.336ZM124.087 147.4C124.935 147.4 125.703 147.2 126.391 146.8C127.079 146.4 127.623 145.84 128.023 145.12C128.423 144.384 128.623 143.544 128.623 142.6C128.623 141.656 128.423 140.824 128.023 140.104C127.623 139.368 127.079 138.8 126.391 138.4C125.703 138 124.935 137.8 124.087 137.8C123.239 137.8 122.471 138 121.783 138.4C121.095 138.8 120.551 139.368 120.151 140.104C119.751 140.824 119.551 141.656 119.551 142.6C119.551 143.544 119.751 144.384 120.151 145.12C120.551 145.84 121.095 146.4 121.783 146.8C122.471 147.2 123.239 147.4 124.087 147.4ZM150.052 147.328V151H136.564V134.2H149.74V137.872H141.268V140.704H148.732V144.256H141.268V147.328H150.052Z" fill="#FFF5F3"/>
<path d="M92.8432 79.8001V91.0001H91.2432V86.0081H84.8112V91.0001H83.2112V79.8001H84.8112V84.6161H91.2432V79.8001H92.8432ZM104.144 86.8081C104.144 86.9254 104.134 87.0801 104.112 87.2721H97.2322C97.3282 88.0187 97.6535 88.6214 98.2082 89.0801C98.7735 89.5281 99.4722 89.7521 100.304 89.7521C101.318 89.7521 102.134 89.4107 102.752 88.7281L103.6 89.7201C103.216 90.1681 102.736 90.5094 102.16 90.7441C101.595 90.9787 100.96 91.0961 100.256 91.0961C99.3602 91.0961 98.5655 90.9147 97.8722 90.5521C97.1789 90.1787 96.6402 89.6614 96.2562 89.0001C95.8829 88.3387 95.6962 87.5921 95.6962 86.7601C95.6962 85.9387 95.8775 85.1974 96.2402 84.5361C96.6135 83.8747 97.1202 83.3627 97.7602 83.0001C98.4109 82.6267 99.1415 82.4401 99.9522 82.4401C100.763 82.4401 101.483 82.6267 102.112 83.0001C102.752 83.3627 103.248 83.8747 103.6 84.5361C103.963 85.1974 104.144 85.9547 104.144 86.8081ZM99.9522 83.7361C99.2162 83.7361 98.5975 83.9601 98.0962 84.4081C97.6055 84.8561 97.3175 85.4427 97.2322 86.1681H102.672C102.587 85.4534 102.294 84.8721 101.792 84.4241C101.302 83.9654 100.688 83.7361 99.9522 83.7361ZM121.4 82.5201V91.0001H120.008V84.8081L116.84 90.0401H116.168L113.032 84.7921V91.0001H111.624V82.5201H113.208L116.536 88.2481L119.96 82.5201H121.4ZM132.454 86.8081C132.454 86.9254 132.443 87.0801 132.422 87.2721H125.542C125.638 88.0187 125.963 88.6214 126.518 89.0801C127.083 89.5281 127.782 89.7521 128.614 89.7521C129.627 89.7521 130.443 89.4107 131.062 88.7281L131.91 89.7201C131.526 90.1681 131.046 90.5094 130.47 90.7441C129.904 90.9787 129.27 91.0961 128.566 91.0961C127.67 91.0961 126.875 90.9147 126.182 90.5521C125.488 90.1787 124.95 89.6614 124.566 89.0001C124.192 88.3387 124.006 87.5921 124.006 86.7601C124.006 85.9387 124.187 85.1974 124.55 84.5361C124.923 83.8747 125.43 83.3627 126.07 83.0001C126.72 82.6267 127.451 82.4401 128.262 82.4401C129.072 82.4401 129.792 82.6267 130.422 83.0001C131.062 83.3627 131.558 83.8747 131.91 84.5361C132.272 85.1974 132.454 85.9547 132.454 86.8081ZM128.262 83.7361C127.526 83.7361 126.907 83.9601 126.406 84.4081C125.915 84.8561 125.627 85.4427 125.542 86.1681H130.982C130.896 85.4534 130.603 84.8721 130.102 84.4241C129.611 83.9654 128.998 83.7361 128.262 83.7361ZM135.236 82.5201H136.772V86.1201H141.604V82.5201H143.14V91.0001H141.604V87.4481H136.772V91.0001H135.236V82.5201ZM154.191 86.8081C154.191 86.9254 154.18 87.0801 154.159 87.2721H147.279C147.375 88.0187 147.7 88.6214 148.255 89.0801C148.82 89.5281 149.519 89.7521 150.351 89.7521C151.364 89.7521 152.18 89.4107 152.799 88.7281L153.647 89.7201C153.263 90.1681 152.783 90.5094 152.207 90.7441C151.642 90.9787 151.007 91.0961 150.303 91.0961C149.407 91.0961 148.612 90.9147 147.919 90.5521C147.226 90.1787 146.687 89.6614 146.303 89.0001C145.93 88.3387 145.743 87.5921 145.743 86.7601C145.743 85.9387 145.924 85.1974 146.287 84.5361C146.66 83.8747 147.167 83.3627 147.807 83.0001C148.458 82.6267 149.188 82.4401 149.999 82.4401C150.81 82.4401 151.53 82.6267 152.159 83.0001C152.799 83.3627 153.295 83.8747 153.647 84.5361C154.01 85.1974 154.191 85.9547 154.191 86.8081ZM149.999 83.7361C149.263 83.7361 148.644 83.9601 148.143 84.4081C147.652 84.8561 147.364 85.4427 147.279 86.1681H152.719C152.634 85.4534 152.34 84.8721 151.839 84.4241C151.348 83.9654 150.735 83.7361 149.999 83.7361ZM164.638 86.8081C164.638 86.9254 164.627 87.0801 164.606 87.2721H157.726C157.822 88.0187 158.147 88.6214 158.702 89.0801C159.267 89.5281 159.966 89.7521 160.798 89.7521C161.811 89.7521 162.627 89.4107 163.246 88.7281L164.094 89.7201C163.71 90.1681 163.23 90.5094 162.654 90.7441C162.089 90.9787 161.454 91.0961 160.75 91.0961C159.854 91.0961 159.059 90.9147 158.366 90.5521C157.673 90.1787 157.134 89.6614 156.75 89.0001C156.377 88.3387 156.19 87.5921 156.19 86.7601C156.19 85.9387 156.371 85.1974 156.734 84.5361C157.107 83.8747 157.614 83.3627 158.254 83.0001C158.905 82.6267 159.635 82.4401 160.446 82.4401C161.257 82.4401 161.977 82.6267 162.606 83.0001C163.246 83.3627 163.742 83.8747 164.094 84.5361C164.457 85.1974 164.638 85.9547 164.638 86.8081ZM160.446 83.7361C159.71 83.7361 159.091 83.9601 158.59 84.4081C158.099 84.8561 157.811 85.4427 157.726 86.1681H163.166C163.081 85.4534 162.787 84.8721 162.286 84.4241C161.795 83.9654 161.182 83.7361 160.446 83.7361Z" fill="#FFF5F3"/>
</g>
<defs>
<filter id="filter0_f" x="0" y="0" width="245" height="245" filterUnits="userSpaceOnUse" color-interpolation-filters="sRGB">
<feFlood flood-opacity="0" result="BackgroundImageFix"/>
<feBlend mode="normal" in="SourceGraphic" in2="BackgroundImageFix" result="shape"/>
<feGaussianBlur stdDeviation="3" result="effect1_foregroundBlur"/>
</filter>
<linearGradient id="paint0_linear" x1="6" y1="6" x2="245.389" y2="12.7601" gradientUnits="userSpaceOnUse">
<stop stop-color="#E21C1B"/>
<stop offset="1" stop-color="#E5211B"/>
</linearGradient>
</defs>
</svg>
