<svg width="153" height="52" viewBox="0 0 153 52" fill="none" xmlns="http://www.w3.org/2000/svg">
<g clip-path="url(#clip0)">
<path d="M60.9443 19.2687C59.7818 18.3335 58.313 17.8638 56.8235 17.9511H40.137L46.495 11.6461C47.2378 10.9033 51.8008 6.18119 45.6549 0L41.1627 4.42145C41.5125 4.42145 41.8545 4.52518 42.1453 4.71951C42.4362 4.91385 42.6628 5.19006 42.7967 5.51323C42.9306 5.83639 42.9656 6.192 42.8973 6.53507C42.8291 6.87814 42.6607 7.19327 42.4133 7.44061C42.166 7.68795 41.8508 7.85639 41.5078 7.92463C41.1647 7.99288 40.8091 7.95785 40.4859 7.82399C40.1628 7.69013 39.8866 7.46345 39.6922 7.17261C39.4979 6.88176 39.3942 6.53983 39.3942 6.19004L26.7488 18.747C26.2167 19.1958 25.7844 19.751 25.4798 20.377C25.1752 21.0029 25.005 21.6857 24.9802 22.3814C24.9802 23.554 25.446 24.6787 26.2752 25.5078C27.1044 26.337 28.229 26.8029 29.4017 26.8029H47.0875L38.2446 35.6458V32.197C38.2497 31.321 37.9944 30.4631 37.5111 29.7324C37.0278 29.0016 36.3384 28.4309 35.5302 28.0927C34.722 27.7545 33.8316 27.664 32.9719 27.8326C32.1122 28.0013 31.322 28.4216 30.7016 29.0401L23.8749 35.6723V32.2678C23.8912 31.6738 23.7876 31.0826 23.5703 30.5296C23.3531 29.9766 23.0266 29.473 22.6103 29.0489C22.1996 28.6372 21.7117 28.3105 21.1745 28.0876C20.6374 27.8647 20.0615 27.75 19.4799 27.75C18.8984 27.75 18.3225 27.8647 17.7853 28.0876C17.2482 28.3105 16.7603 28.6372 16.3495 29.0489L1.3166 43.9581C0.857609 44.3531 0.484658 44.8382 0.220864 45.3833C-0.0429305 45.9284 -0.191943 46.5218 -0.216936 47.1269C-0.241928 47.7319 -0.142368 48.3356 0.0755729 48.9006C0.293514 49.4656 0.625188 49.9798 1.05003 50.4113C1.47488 50.8428 1.98384 51.1825 2.54535 51.4092C3.10687 51.6359 3.70897 51.7449 4.31433 51.7293C4.9197 51.7138 5.51541 51.574 6.06454 51.3188C6.61367 51.0635 7.10451 50.6982 7.50663 50.2454L14.2272 43.5955V46.9647C14.1986 47.8495 14.4363 48.7225 14.9095 49.4708C15.3826 50.219 16.0695 50.8079 16.8812 51.1614C17.6928 51.5148 18.5919 51.6165 19.462 51.4532C20.3321 51.2898 21.1331 50.8691 21.7614 50.2454L28.482 43.5867V46.9647C28.4553 47.8477 28.6936 48.7185 29.1664 49.4647C29.6392 50.211 30.3247 50.7985 31.1345 51.1516C31.9443 51.5046 32.8413 51.607 33.7098 51.4455C34.5783 51.284 35.3786 50.866 36.0073 50.2454L60.9089 25.5295C61.323 25.1211 61.6525 24.635 61.8784 24.0991C62.1044 23.5632 62.2223 22.988 62.2256 22.4064C62.2289 21.8248 62.1174 21.2483 61.8976 20.7099C61.6777 20.1715 61.3538 19.6817 60.9443 19.2687V19.2687Z" fill="white"/>
<path d="M81.3003 22.9915L78.2407 32.7187H75.685L72.6696 22.9915V32.7187H69.6719V18.4286H74.1641L76.9319 27.5987L79.7616 18.4286H84.298V32.7187H81.3003V22.9915Z" fill="white"/>
<path d="M94.7856 29.7121H90.3642L89.4799 32.701H86.0488L90.5852 18.4286H94.5557L99.0391 32.7187H95.6434L94.7856 29.7121ZM91.0981 27.0593H94.0517L92.6191 21.9923L91.0981 27.0593Z" fill="white"/>
<path d="M105.026 32.7187H101.693V27.0593L97.3418 18.4463H100.879L103.346 23.6105L105.813 18.4463H109.35L105.026 27.0062V32.7187Z" fill="white"/>
<path d="M116.558 32.8956C115.496 32.927 114.44 32.7279 113.463 32.3119C112.661 31.9545 111.957 31.4084 111.411 30.7202C110.87 30.0282 110.482 29.2296 110.271 28.3768C109.811 26.5303 109.811 24.5993 110.271 22.7528C110.486 21.8999 110.878 21.1016 111.42 20.4094C111.968 19.7237 112.671 19.1781 113.472 18.8177C115.462 18.0395 117.672 18.0395 119.662 18.8177C120.457 19.183 121.156 19.7278 121.705 20.4094C122.238 21.105 122.623 21.9025 122.836 22.7528C123.077 23.6706 123.196 24.616 123.19 25.5648C123.312 27.5083 122.706 29.4276 121.492 30.9501C120.865 31.6198 120.097 32.1417 119.244 32.4781C118.391 32.8146 117.473 32.9572 116.558 32.8956V32.8956ZM116.558 20.8427C116.08 20.804 115.601 20.8906 115.166 21.0937C114.732 21.2968 114.358 21.6096 114.082 22.0011C113.483 23.0799 113.204 24.3067 113.277 25.5383C113.204 26.7698 113.483 27.9966 114.082 29.0754C114.358 29.467 114.732 29.7797 115.166 29.9829C115.601 30.186 116.08 30.2725 116.558 30.2339C117.033 30.2729 117.511 30.1865 117.942 29.9832C118.373 29.7799 118.744 29.4669 119.016 29.0754C119.619 27.9983 119.898 26.7702 119.821 25.5383C119.898 24.3064 119.619 23.0783 119.016 22.0011C118.744 21.6097 118.373 21.2967 117.942 21.0934C117.511 20.8901 117.033 20.8036 116.558 20.8427V20.8427Z" fill="white"/>
<path d="M125.33 18.4286H128.69V30.0659H135.296V32.7187H125.33V18.4286Z" fill="white"/>
<path d="M141.309 32.7187H137.948V27.0593L133.598 18.4463H137.135L139.602 23.6105L142.069 18.4463H145.606L141.282 27.0062L141.309 32.7187Z" fill="white"/>
<path d="M58.4767 51.7664C57.3159 51.7608 56.1731 51.4789 55.1429 50.9441C54.5856 50.6744 54.0798 50.3093 53.6484 49.8652C53.1834 49.3615 52.804 48.7849 52.5254 48.1585L55.3374 47.0532C55.4964 47.362 55.6798 47.6577 55.8857 47.9375C56.0831 48.2062 56.3219 48.442 56.5931 48.6361C56.8602 48.8355 57.1592 48.988 57.4774 49.087C57.8442 49.1986 58.226 49.2523 58.6093 49.2462C58.9056 49.2505 59.2017 49.2268 59.4936 49.1755C59.7542 49.1288 60.0052 49.0392 60.2364 48.9102C60.454 48.7983 60.635 48.6265 60.7581 48.415C60.8898 48.171 60.9539 47.8962 60.9438 47.6191C60.9315 47.3668 60.851 47.1225 60.7108 46.9123C60.5707 46.702 60.3762 46.5338 60.148 46.4253C59.4719 46.0355 58.7578 45.7155 58.0168 45.4703C56.7182 45.066 55.4872 44.4699 54.3647 43.7017C53.948 43.3965 53.6114 42.9951 53.3835 42.5316C53.1556 42.0681 53.0432 41.5563 53.056 41.04C53.0538 40.4841 53.1881 39.9362 53.4471 39.4444C53.7062 38.9525 54.082 38.5318 54.5416 38.2191C55.6115 37.4697 56.8972 37.0908 58.2025 37.1403C59.3662 37.1215 60.5149 37.4049 61.5363 37.9627C62.03 38.2279 62.473 38.5782 62.8451 38.9973C63.2638 39.4825 63.6121 40.0243 63.8797 40.6067L60.7758 41.491C60.5561 40.983 60.2305 40.5278 59.8208 40.1557C59.3546 39.795 58.7732 39.6158 58.1849 39.6517C57.9535 39.6507 57.7226 39.6714 57.4951 39.7136C57.2766 39.7534 57.0651 39.8249 56.8673 39.9258C56.6788 40.0191 56.5174 40.1591 56.3986 40.3326C56.2785 40.5163 56.2169 40.7321 56.2217 40.9516C56.2234 41.1551 56.2952 41.3519 56.4251 41.5087C56.6104 41.7311 56.8431 41.9093 57.106 42.0304C57.8407 42.3878 58.6038 42.6835 59.3875 42.9147C60.5319 43.2633 61.615 43.7884 62.5975 44.471C63.0822 44.7906 63.475 45.2312 63.7371 45.7492C63.9993 46.2673 64.1216 46.8448 64.0919 47.4246C64.123 48.0442 64.0051 48.6622 63.7482 49.2268C63.4912 49.7915 63.1027 50.2863 62.6151 50.6699C61.39 51.4721 59.9383 51.8567 58.4767 51.7664V51.7664Z" fill="white"/>
<path d="M72.2372 45.9831H69.8585V51.5895H66.4805V37.2993H72.2637C73.0097 37.2954 73.754 37.3725 74.4833 37.5293C75.1143 37.6681 75.714 37.923 76.2519 38.2809C76.7568 38.6223 77.165 39.0883 77.4368 39.6339C77.7438 40.2636 77.8926 40.9587 77.8701 41.6589C77.9046 42.2769 77.7863 42.8939 77.5257 43.4553C77.265 44.0167 76.8701 44.5053 76.3757 44.8777C75.1521 45.6841 73.6999 46.072 72.2372 45.9831V45.9831ZM71.9808 39.9168H69.8585V43.3302H71.9808C72.3016 43.353 72.6237 43.353 72.9446 43.3302C73.2239 43.2892 73.4953 43.2057 73.7493 43.0826C73.9759 42.9661 74.1679 42.7923 74.3064 42.5786C74.4636 42.3115 74.5375 42.0036 74.5187 41.6943C74.5391 41.3918 74.4876 41.0887 74.3683 40.81C74.2805 40.6011 74.1367 40.4205 73.9527 40.2882C73.345 39.9765 72.6609 39.8446 71.9808 39.908V39.9168Z" fill="white"/>
<path d="M80.3008 37.2993H83.6611V51.5806H80.3008V37.2993Z" fill="white"/>
<path d="M89.5253 42.216V51.5806H86.3242V37.2993H89.7199L95.397 46.2395V37.2993H98.607V51.5806H95.5032L89.5253 42.216Z" fill="white"/>
<path d="M106.415 51.5807H101.242V37.2994H106.371C107.472 37.2733 108.569 37.4471 109.608 37.8123C110.456 38.1158 111.222 38.6123 111.845 39.2626C112.467 39.9127 112.928 40.7004 113.189 41.5617C113.767 43.5064 113.767 45.5772 113.189 47.5218C112.916 48.3697 112.439 49.1379 111.801 49.7591C111.076 50.4164 110.224 50.9174 109.298 51.2309C108.371 51.5443 107.39 51.6634 106.415 51.5807V51.5807ZM106.415 39.9081H104.647V48.9721H106.415C107.074 48.994 107.729 48.8702 108.334 48.6095C108.809 48.3928 109.218 48.0541 109.519 47.628C109.819 47.1886 110.024 46.6917 110.12 46.1689C110.241 45.5871 110.3 44.9944 110.297 44.4003C110.307 43.7318 110.223 43.0652 110.05 42.4195C109.912 41.9076 109.671 41.4292 109.342 41.0135C108.968 40.612 108.506 40.3032 107.991 40.1113C107.477 39.9195 106.926 39.8499 106.38 39.9081H106.415Z" fill="white"/>
<path d="M115.639 37.2993H118.99V48.972H125.622V51.5806H115.639V37.2993Z" fill="white"/>
<path d="M127.814 37.2993H138.346V39.9522H131.175V42.8703H136.41V45.5232H131.175V49.0604H138.603V51.669H127.814V37.2993Z" fill="white"/>
<path d="M146.403 45.9831H144.263V51.6249H140.902V37.2993H147.19C147.902 37.2908 148.611 37.3891 149.294 37.5912C149.885 37.7738 150.433 38.0747 150.904 38.4754C151.341 38.8309 151.692 39.2815 151.929 39.793C152.188 40.4022 152.315 41.0592 152.301 41.7208C152.316 42.5103 152.067 43.2823 151.593 43.9138C151.084 44.5617 150.386 45.0346 149.595 45.2668L152.999 51.5453H149.259L146.403 45.9831ZM146.606 39.9522H144.263V43.3302H146.261C146.586 43.3302 146.911 43.3124 147.234 43.2771C147.539 43.2589 147.838 43.1871 148.118 43.0649C148.362 42.9616 148.573 42.7934 148.728 42.5786C148.901 42.3173 148.982 42.0063 148.958 41.6943C148.968 41.4133 148.92 41.1334 148.817 40.8719C148.727 40.6545 148.58 40.4652 148.392 40.3236C147.857 39.9955 147.231 39.8497 146.606 39.908V39.9522Z" fill="white"/>
</g>
<defs>
<clipPath id="clip0">
<rect width="153" height="51.7664" fill="white"/>
</clipPath>
</defs>
</svg>
