<svg width="150" height="42" viewBox="0 0 150 42" fill="none" xmlns="http://www.w3.org/2000/svg">
<path d="M17.0388 34.5205C26.4491 34.5205 34.0776 26.7928 34.0776 17.2602C34.0776 7.72767 26.4491 0 17.0388 0C7.62853 0 0 7.72767 0 17.2602C0 26.7928 7.62853 34.5205 17.0388 34.5205Z" fill="white"/>
<path d="M33.292 28.1244C33.292 28.2148 33.273 28.2935 33.2342 28.3613C33.1953 28.4291 33.1127 28.4852 32.9847 28.5304C32.8566 28.5755 32.6773 28.609 32.4476 28.6316C32.2171 28.6542 31.9105 28.6651 31.5263 28.6651C31.1934 28.6651 30.9215 28.6534 30.7108 28.6316C30.5001 28.609 30.3299 28.5722 30.2027 28.522C30.0746 28.4709 29.9755 28.4006 29.9052 28.3102C29.835 28.2198 29.7739 28.1077 29.7226 27.9721L27.4389 22.8129C27.1704 22.227 26.8919 21.688 26.6044 21.1976C26.3169 20.7071 25.974 20.2844 25.5782 19.9287C25.1816 19.5738 24.7148 19.2976 24.1777 19.1001C23.6407 18.9025 22.9945 18.8038 22.2393 18.8038H20.0324V28.1244C20.0324 28.2148 20.0035 28.2935 19.9465 28.3613C19.8895 28.4291 19.7994 28.4826 19.678 28.522C19.5565 28.5613 19.3905 28.5956 19.1789 28.6233C18.9682 28.6509 18.7022 28.6651 18.3824 28.6651C18.0627 28.6651 17.7974 28.6509 17.5859 28.6233C17.3752 28.5948 17.205 28.5613 17.0778 28.522C16.9497 28.4826 16.8605 28.4291 16.8093 28.3613C16.758 28.2935 16.7324 28.2148 16.7324 28.1244V7.86025C16.7324 7.42084 16.8638 7.11366 17.1257 6.93873C17.3876 6.7638 17.6661 6.67676 17.9602 6.67676H23.2374C23.8637 6.67676 24.3859 6.69099 24.8015 6.71861C25.2171 6.74706 25.5914 6.77803 25.9244 6.81151C26.8837 6.95798 27.7314 7.18983 28.4667 7.50537C29.2021 7.82091 29.8193 8.22183 30.3184 8.70644C30.8174 9.19105 31.1917 9.74681 31.4412 10.3729C31.6908 10.9989 31.8155 11.6894 31.8155 12.4452C31.8155 13.1784 31.7032 13.8355 31.4801 14.4155C31.2562 14.9964 30.9331 15.5094 30.5109 15.9547C30.0887 16.4 29.583 16.7867 28.9947 17.1131C28.4064 17.4403 27.7471 17.7165 27.0183 17.9417C27.4273 18.0999 27.7983 18.2999 28.1313 18.5418C28.4634 18.7845 28.7741 19.075 29.0616 19.4131C29.3492 19.7512 29.621 20.1404 29.8771 20.5807C30.1333 21.0201 30.3886 21.5164 30.6447 22.0689L32.8706 26.8899C33.0499 27.2958 33.1648 27.5804 33.216 27.7444C33.2664 27.9076 33.292 28.034 33.292 28.1244ZM28.3222 12.7491C28.3222 11.892 28.1049 11.1672 27.6694 10.5754C27.234 9.98367 26.5052 9.55765 25.4815 9.29818C25.1618 9.21951 24.8007 9.16259 24.3975 9.12911C23.9943 9.09563 23.4671 9.07806 22.8144 9.07806H20.0316V16.4527H23.2556C24.1257 16.4527 24.8767 16.3598 25.5104 16.174C26.1442 15.9882 26.6713 15.7287 27.0935 15.3956C27.5157 15.0633 27.8256 14.6708 28.0239 14.2196C28.223 13.7693 28.3222 13.2789 28.3222 12.7491Z" fill="#FB5A2C"/>
<path d="M51.8859 27.3636C51.8859 27.5661 51.8727 27.7444 51.8479 27.8968C51.8223 28.0491 51.7777 28.1755 51.7132 28.2776C51.6488 28.3789 51.5753 28.4525 51.4926 28.4977C51.4092 28.5429 51.3166 28.5655 51.2142 28.5655H39.2981C39.004 28.5655 38.7255 28.4785 38.4636 28.3035C38.2009 28.1286 38.0703 27.8214 38.0703 27.382V7.86025C38.0703 7.42084 38.2017 7.11366 38.4636 6.93873C38.7255 6.7638 39.004 6.67676 39.2981 6.67676H51.0803C51.1828 6.67676 51.2753 6.69936 51.3588 6.74455C51.4414 6.78975 51.5092 6.86257 51.5604 6.96468C51.6116 7.06595 51.6529 7.19317 51.6851 7.34551C51.7165 7.49784 51.7331 7.687 51.7331 7.91214C51.7331 8.11469 51.7165 8.29297 51.6851 8.4453C51.6529 8.59763 51.6116 8.72151 51.5604 8.81776C51.5092 8.91401 51.4422 8.98431 51.3588 9.02951C51.2753 9.07471 51.1828 9.09731 51.0803 9.09731H41.3703V15.9647H49.698C49.8005 15.9647 49.893 15.9899 49.9765 16.0409C50.0599 16.092 50.1302 16.1623 50.1872 16.2527C50.245 16.3431 50.2863 16.4669 50.3119 16.6251C50.3375 16.7833 50.3499 16.9691 50.3499 17.1834C50.3499 17.3859 50.3367 17.5609 50.3119 17.7073C50.2863 17.8538 50.245 17.9727 50.1872 18.0622C50.1293 18.1526 50.0591 18.2171 49.9765 18.2564C49.893 18.2957 49.8005 18.3158 49.698 18.3158H41.3703V26.1475H51.2142C51.3166 26.1475 51.4092 26.1701 51.4926 26.2153C51.5761 26.2605 51.6488 26.3308 51.7132 26.427C51.7769 26.5233 51.8215 26.6471 51.8479 26.7995C51.8735 26.9493 51.8859 27.1376 51.8859 27.3636Z" fill="white"/>
<path d="M70.2114 22.4245C70.2114 23.4506 69.9974 24.3638 69.5686 25.1648C69.1398 25.9658 68.5449 26.6445 67.7839 27.2028C67.023 27.7611 66.1273 28.1812 65.0978 28.4633C64.0675 28.7454 62.9578 28.886 61.7689 28.886C60.9368 28.886 60.1668 28.824 59.4562 28.7002C58.7465 28.5763 58.1128 28.424 57.5567 28.2432C56.9998 28.0632 56.533 27.8766 56.1562 27.6849C55.7786 27.4932 55.5167 27.33 55.3696 27.1944C55.2226 27.0588 55.1135 26.8873 55.0433 26.6789C54.973 26.4704 54.9375 26.1909 54.9375 25.8419C54.9375 25.5941 54.9499 25.3882 54.9755 25.2242C55.0011 25.061 55.0391 24.9279 55.0904 24.8266C55.1416 24.7253 55.2052 24.655 55.282 24.6149C55.3589 24.5755 55.4481 24.5554 55.5506 24.5554C55.7299 24.5554 55.9827 24.6517 56.3082 24.8434C56.6346 25.035 57.0535 25.2434 57.565 25.4694C58.0764 25.6954 58.6936 25.9063 59.4166 26.1039C60.1395 26.3014 60.974 26.4001 61.9209 26.4001C62.6373 26.4001 63.2933 26.3156 63.8882 26.1465C64.4831 25.9775 64.9945 25.7381 65.4233 25.4276C65.8522 25.1179 66.181 24.7371 66.4115 24.2859C66.6421 23.8348 66.7569 23.3217 66.7569 22.7467C66.7569 22.1265 66.5966 21.5967 66.2769 21.1565C65.9571 20.717 65.5349 20.3304 65.0102 19.9981C64.4856 19.6658 63.8874 19.3611 63.2165 19.0849C62.5447 18.8087 61.8573 18.5267 61.1533 18.2396C60.4494 17.9516 59.7652 17.6336 59.1001 17.2837C58.435 16.9347 57.8401 16.5229 57.3154 16.0492C56.7908 15.5755 56.3653 15.0205 56.0397 14.3828C55.7133 13.7458 55.5506 12.9816 55.5506 12.0911C55.5506 11.178 55.739 10.3627 56.1165 9.64711C56.4933 8.93149 57.0188 8.33054 57.6897 7.84593C58.3615 7.36132 59.1604 6.99136 60.0883 6.73776C61.0153 6.48415 62.0168 6.35693 63.0917 6.35693C63.642 6.35693 64.1947 6.39878 64.7516 6.48416C65.3085 6.56869 65.8323 6.68168 66.3248 6.8223C66.8172 6.96375 67.2551 7.1211 67.6393 7.29603C68.0227 7.47096 68.2755 7.61157 68.397 7.71871C68.5185 7.82584 68.5986 7.91037 68.6366 7.97231C68.6746 8.03424 68.7068 8.11376 68.7325 8.20918C68.7581 8.30543 68.7771 8.42093 68.7903 8.55569C68.8027 8.69128 68.8093 8.86621 68.8093 9.07964C68.8093 9.28303 68.7994 9.46297 68.7804 9.62116C68.7614 9.77935 68.7325 9.9116 68.6945 10.0187C68.6564 10.1259 68.6011 10.2045 68.5317 10.2556C68.4614 10.3067 68.3813 10.3318 68.2921 10.3318C68.1508 10.3318 67.9302 10.2531 67.6302 10.0949C67.3295 9.93671 66.9618 9.75927 66.5272 9.56174C66.0918 9.36421 65.577 9.18426 64.9821 9.02021C64.3872 8.857 63.7188 8.77498 62.9768 8.77498C62.2861 8.77498 61.6846 8.857 61.1732 9.02021C60.6617 9.18342 60.2395 9.40104 59.9065 9.67139C59.5736 9.94173 59.324 10.2631 59.158 10.6356C58.9919 11.008 58.9084 11.4023 58.9084 11.8199C58.9084 12.4292 59.0679 12.9532 59.3885 13.3926C59.7082 13.832 60.1337 14.2212 60.6642 14.5594C61.1946 14.8975 61.7995 15.208 62.4778 15.4901C63.1561 15.7721 63.8469 16.0567 64.55 16.3446C65.2531 16.6326 65.9439 16.9481 66.6222 17.2921C67.2997 17.6361 67.9046 18.042 68.4358 18.5099C68.9663 18.9778 69.3951 19.531 69.7215 20.168C70.0478 20.8032 70.2114 21.5557 70.2114 22.4245Z" fill="white"/>
<path d="M90.2261 7.92777C90.2261 8.14204 90.2129 8.32784 90.1881 8.48603C90.1625 8.64422 90.1212 8.77061 90.0634 8.86686C90.0055 8.96311 89.9353 9.03342 89.8527 9.07862C89.7692 9.12381 89.6767 9.14641 89.5742 9.14641H82.5892V28.125C82.5892 28.2154 82.5636 28.294 82.5123 28.3618C82.4611 28.4296 82.3711 28.4832 82.2438 28.5225C82.1157 28.5619 81.9464 28.5962 81.7357 28.6238C81.525 28.6514 81.2589 28.6657 80.9392 28.6657C80.6318 28.6657 80.3699 28.6514 80.1526 28.6238C79.9353 28.5953 79.7626 28.5619 79.6345 28.5225C79.5065 28.4832 79.4172 28.4296 79.366 28.3618C79.3148 28.294 79.2892 28.2154 79.2892 28.125V9.14557H72.3041C72.2016 9.14557 72.1091 9.12298 72.0257 9.07778C71.9422 9.03258 71.8753 8.96228 71.8241 8.86603C71.7728 8.77061 71.7307 8.64338 71.6993 8.4852C71.6671 8.32701 71.6514 8.1412 71.6514 7.92693C71.6514 7.71266 71.6671 7.5235 71.6993 7.36029C71.7307 7.19708 71.7728 7.064 71.8241 6.96273C71.8753 6.86145 71.9422 6.7878 72.0257 6.7426C72.1091 6.6974 72.2016 6.6748 72.3041 6.6748H89.5742C89.6767 6.6748 89.7692 6.6974 89.8527 6.7426C89.9353 6.7878 90.0064 6.86061 90.0634 6.96273C90.1212 7.064 90.1625 7.19708 90.1881 7.36029C90.2129 7.52434 90.2261 7.7135 90.2261 7.92777Z" fill="white"/>
<path d="M109.338 27.5327C109.441 27.7805 109.494 27.9814 109.501 28.1328C109.508 28.2852 109.46 28.4007 109.357 28.4794C109.255 28.558 109.085 28.6091 108.849 28.6317C108.612 28.6543 108.296 28.6652 107.899 28.6652C107.502 28.6652 107.186 28.6568 106.949 28.6401C106.712 28.6233 106.533 28.5949 106.412 28.5555C106.29 28.5162 106.201 28.4626 106.143 28.3948C106.085 28.327 106.031 28.2425 105.98 28.1412L103.85 22.813H93.5265L91.4923 28.0734C91.4543 28.1747 91.403 28.2626 91.3386 28.3354C91.2741 28.409 91.1816 28.471 91.0601 28.5212C90.9387 28.5723 90.766 28.6082 90.5421 28.6308C90.3182 28.6534 90.0273 28.6643 89.6687 28.6643C89.2978 28.6643 88.9937 28.6501 88.7574 28.6225C88.5203 28.594 88.3542 28.5405 88.2583 28.4618C88.1625 28.3831 88.1171 28.2676 88.1237 28.1153C88.1303 27.9629 88.184 27.7629 88.2864 27.5152L96.6141 7.18319C96.6654 7.05932 96.7323 6.95805 96.8158 6.87853C96.8992 6.79986 97.0198 6.73792 97.1801 6.69272C97.3396 6.64752 97.5445 6.61656 97.794 6.59982C98.0436 6.58308 98.36 6.57471 98.7442 6.57471C99.1532 6.57471 99.4928 6.58308 99.7613 6.59982C100.03 6.61656 100.247 6.64752 100.414 6.69272C100.58 6.73792 100.708 6.80236 100.798 6.8869C100.887 6.97143 100.958 7.07606 101.009 7.19993L109.338 27.5327ZM98.65 9.58533H98.631L94.3519 20.4954H102.987L98.65 9.58533Z" fill="white"/>
<path d="M130.043 28.1244C130.043 28.2148 130.024 28.2935 129.985 28.3613C129.947 28.4291 129.864 28.4852 129.735 28.5304C129.607 28.5755 129.428 28.609 129.198 28.6316C128.968 28.6542 128.661 28.6651 128.277 28.6651C127.944 28.6651 127.672 28.6534 127.462 28.6316C127.251 28.609 127.081 28.5722 126.954 28.522C126.825 28.4709 126.726 28.4006 126.656 28.3102C126.586 28.2198 126.525 28.1077 126.473 27.9721L124.19 22.8129C123.921 22.227 123.643 21.688 123.355 21.1976C123.068 20.7071 122.725 20.2844 122.329 19.9287C121.932 19.5738 121.466 19.2976 120.929 19.1001C120.391 18.9025 119.745 18.8038 118.99 18.8038H116.783V28.1244C116.783 28.2148 116.754 28.2935 116.697 28.3613C116.64 28.4291 116.55 28.4826 116.429 28.522C116.307 28.5613 116.141 28.5956 115.93 28.6233C115.719 28.6509 115.453 28.6651 115.133 28.6651C114.814 28.6651 114.548 28.6509 114.337 28.6233C114.126 28.5948 113.956 28.5613 113.828 28.522C113.7 28.4826 113.61 28.4291 113.559 28.3613C113.508 28.2935 113.482 28.2148 113.482 28.1244V7.86025C113.482 7.42084 113.614 7.11366 113.876 6.93873C114.138 6.7638 114.416 6.67676 114.71 6.67676H119.987C120.614 6.67676 121.135 6.69099 121.552 6.71861C121.967 6.74706 122.341 6.77803 122.674 6.81151C123.634 6.95798 124.481 7.18983 125.217 7.50537C125.952 7.82091 126.569 8.22183 127.068 8.70644C127.567 9.19105 127.942 9.74681 128.191 10.3729C128.441 10.9989 128.566 11.6894 128.566 12.4452C128.566 13.1784 128.453 13.8355 128.23 14.4155C128.006 14.9964 127.683 15.5094 127.261 15.9547C126.839 16.4 126.333 16.7867 125.745 17.1131C125.156 17.4403 124.497 17.7165 123.768 17.9417C124.177 18.0999 124.548 18.2999 124.881 18.5418C125.213 18.7845 125.524 19.075 125.812 19.4131C126.099 19.7512 126.371 20.1404 126.627 20.5807C126.883 21.0201 127.139 21.5164 127.395 22.0689L129.621 26.8899C129.8 27.2958 129.915 27.5804 129.966 27.7444C130.017 27.9076 130.043 28.034 130.043 28.1244ZM125.073 12.7491C125.073 11.892 124.856 11.1672 124.42 10.5754C123.985 9.98367 123.256 9.55765 122.232 9.29818C121.913 9.21951 121.551 9.16259 121.148 9.12911C120.746 9.09563 120.218 9.07806 119.565 9.07806H116.782V16.4527H120.006C120.876 16.4527 121.628 16.3598 122.261 16.174C122.894 15.9882 123.422 15.7287 123.844 15.3956C124.267 15.0633 124.576 14.6708 124.775 14.2196C124.974 13.7693 125.073 13.2789 125.073 12.7491Z" fill="white"/>
<path d="M150.001 7.92777C150.001 8.14204 149.987 8.32784 149.963 8.48603C149.937 8.64422 149.896 8.77061 149.838 8.86686C149.78 8.96311 149.71 9.03342 149.627 9.07862C149.544 9.12381 149.451 9.14641 149.349 9.14641H142.364V28.125C142.364 28.2154 142.338 28.294 142.287 28.3618C142.236 28.4296 142.145 28.4832 142.018 28.5225C141.89 28.5619 141.721 28.5962 141.51 28.6238C141.299 28.6514 141.033 28.6657 140.714 28.6657C140.406 28.6657 140.144 28.6514 139.927 28.6238C139.71 28.5953 139.537 28.5619 139.409 28.5225C139.281 28.4832 139.192 28.4296 139.14 28.3618C139.089 28.294 139.064 28.2154 139.064 28.125V9.14557H132.079C131.976 9.14557 131.884 9.12298 131.8 9.07778C131.717 9.03258 131.65 8.96228 131.598 8.86603C131.547 8.77061 131.505 8.64338 131.474 8.4852C131.441 8.32701 131.426 8.1412 131.426 7.92693C131.426 7.71266 131.441 7.5235 131.474 7.36029C131.505 7.19708 131.547 7.064 131.598 6.96273C131.65 6.86145 131.717 6.7878 131.8 6.7426C131.883 6.6974 131.976 6.6748 132.079 6.6748H149.349C149.451 6.6748 149.544 6.6974 149.627 6.7426C149.71 6.7878 149.781 6.86061 149.838 6.96273C149.896 7.064 149.937 7.19708 149.963 7.36029C149.987 7.52434 150.001 7.7135 150.001 7.92777Z" fill="white"/>
<path d="M8.25006 40.212C8.25006 40.2295 8.24263 40.2429 8.22775 40.2521C8.21288 40.2614 8.19305 40.2689 8.16909 40.2731C8.14513 40.2773 8.11208 40.2798 8.0716 40.2798C8.03276 40.2798 7.99971 40.2773 7.97162 40.2731C7.94353 40.2689 7.92287 40.2622 7.908 40.2521C7.89313 40.2429 7.88569 40.2287 7.88569 40.212V39.9483C7.74606 40.063 7.59237 40.1517 7.42382 40.2145C7.25527 40.2773 7.08093 40.3082 6.89999 40.3082C6.73722 40.3082 6.5918 40.2923 6.46208 40.2597C6.33236 40.2279 6.22329 40.181 6.13406 40.1216C6.04483 40.0613 5.97625 39.9893 5.92833 39.904C5.88041 39.8186 5.85645 39.7232 5.85645 39.6169C5.85645 39.4863 5.89197 39.3725 5.96303 39.2762C6.03409 39.18 6.13489 39.0988 6.26543 39.0343C6.39598 38.9699 6.55296 38.9214 6.73556 38.8895C6.91899 38.8577 7.12224 38.841 7.34698 38.841H7.8419V38.6376C7.8419 38.5363 7.82786 38.4476 7.80059 38.3698C7.77332 38.2919 7.7287 38.2275 7.66674 38.1756C7.60477 38.1237 7.52462 38.0844 7.4263 38.0584C7.32798 38.0325 7.20735 38.0191 7.06606 38.0191C6.9289 38.0191 6.80497 38.0316 6.69508 38.0568C6.58519 38.0819 6.48934 38.1103 6.40672 38.1413C6.3241 38.1723 6.25634 38.2007 6.20264 38.2258C6.14893 38.2509 6.1101 38.2635 6.08779 38.2635C6.07375 38.2635 6.06135 38.2618 6.04979 38.2585C6.03822 38.2551 6.0283 38.2484 6.02087 38.2392C6.0126 38.23 6.00682 38.2175 6.00352 38.2024C6.00021 38.1873 5.99856 38.1697 5.99856 38.1488C5.99856 38.112 6.00186 38.0827 6.0093 38.0618C6.01591 38.04 6.03409 38.0183 6.06218 37.9965C6.0911 37.9747 6.1415 37.9488 6.21503 37.9195C6.28857 37.8902 6.37202 37.8626 6.46786 37.8375C6.56288 37.8124 6.66533 37.7914 6.77522 37.7764C6.88511 37.7605 6.995 37.7529 7.10489 37.7529C7.31806 37.7529 7.49736 37.7722 7.64443 37.8115C7.79067 37.8509 7.90965 37.9069 7.99971 37.9798C8.08977 38.0526 8.15504 38.143 8.19388 38.2501C8.23271 38.3572 8.25254 38.4786 8.25254 38.6142V40.212H8.25006ZM7.8419 39.0971H7.2751C7.10985 39.0971 6.96609 39.1088 6.84215 39.1314C6.71821 39.154 6.61576 39.1875 6.53313 39.231C6.45051 39.2746 6.38937 39.3265 6.34971 39.3876C6.31005 39.4487 6.28939 39.5181 6.28939 39.5968C6.28939 39.7324 6.3464 39.8412 6.4596 39.9215C6.57279 40.0027 6.73226 40.0429 6.93882 40.0429C7.10159 40.0429 7.25279 40.0111 7.39408 39.9475C7.53454 39.8839 7.68409 39.786 7.8419 39.6537V39.0971V39.0971Z" fill="white"/>
<path d="M12.8768 37.9355C12.8768 37.9581 12.8743 37.9782 12.8702 37.9958C12.8652 38.0134 12.8586 38.0276 12.8495 38.0402C12.8404 38.0527 12.8297 38.0611 12.819 38.0678C12.8074 38.0736 12.7934 38.077 12.7777 38.077H11.5242V40.213C11.5242 40.2238 11.5209 40.2331 11.5143 40.2414C11.5077 40.2498 11.4961 40.2573 11.4813 40.2623C11.4664 40.2674 11.4457 40.2716 11.4193 40.2757C11.3929 40.2791 11.359 40.2808 11.3177 40.2808C11.2788 40.2808 11.2458 40.2791 11.2202 40.2757C11.1937 40.2724 11.1722 40.2682 11.1565 40.2623C11.1408 40.2573 11.1293 40.2506 11.1235 40.2414C11.1177 40.2331 11.1152 40.223 11.1152 40.213V37.918C11.1152 37.8761 11.1293 37.8451 11.1565 37.8251C11.1838 37.805 11.2169 37.7949 11.2565 37.7949H12.7785C12.7942 37.7949 12.8082 37.7983 12.8198 37.8058C12.8314 37.8125 12.8413 37.8225 12.8504 37.8343C12.8595 37.846 12.8661 37.861 12.871 37.8786C12.8743 37.8954 12.8768 37.9146 12.8768 37.9355Z" fill="white"/>
<path d="M17.7117 38.9096C17.7117 38.9724 17.6902 39.0151 17.6464 39.0385C17.6026 39.062 17.5604 39.0737 17.5191 39.0737H15.3998C15.3998 39.2202 15.4188 39.3524 15.4568 39.4704C15.4948 39.5884 15.5568 39.6905 15.6444 39.7742C15.732 39.8579 15.8443 39.9232 15.9848 39.9684C16.1244 40.0136 16.2963 40.0362 16.4996 40.0362C16.6441 40.0362 16.773 40.027 16.8879 40.0078C17.0027 39.9885 17.1011 39.9676 17.1853 39.9441C17.2688 39.9207 17.3374 39.8989 17.3911 39.8805C17.4448 39.8613 17.4828 39.8521 17.5059 39.8521C17.52 39.8521 17.5324 39.8546 17.5439 39.8596C17.5555 39.8646 17.5646 39.873 17.5712 39.8847C17.5778 39.8956 17.5836 39.9107 17.5869 39.9274C17.5902 39.9441 17.5918 39.9667 17.5918 39.9927C17.5918 40.0052 17.591 40.017 17.5885 40.0278C17.5861 40.0396 17.5836 40.0496 17.5803 40.0596C17.577 40.0697 17.572 40.0781 17.5646 40.0873C17.558 40.0956 17.5489 40.1048 17.5373 40.1132C17.5257 40.1216 17.4902 40.1375 17.4307 40.1592C17.3712 40.181 17.2936 40.2028 17.1969 40.2245C17.1011 40.2463 16.9887 40.2655 16.8623 40.2831C16.735 40.3007 16.5987 40.3091 16.4516 40.3091C16.2112 40.3091 15.998 40.2814 15.8129 40.227C15.6279 40.1726 15.4717 40.0915 15.3461 39.9843C15.2205 39.8772 15.1247 39.7449 15.0594 39.5859C14.9941 39.4277 14.9619 39.2436 14.9619 39.0352C14.9619 38.8351 14.9958 38.656 15.0635 38.497C15.1313 38.338 15.228 38.2041 15.3536 38.0936C15.4791 37.9831 15.6312 37.8986 15.8088 37.84C15.9865 37.7814 16.1839 37.7529 16.4012 37.7529C16.6351 37.7529 16.8342 37.7822 16.9986 37.8417C17.1639 37.9011 17.2994 37.9806 17.4059 38.0802C17.5125 38.1806 17.5902 38.2961 17.6398 38.4292C17.6893 38.5615 17.7133 38.7004 17.7133 38.8469V38.9096H17.7117ZM17.2894 38.8184C17.2961 38.5673 17.2209 38.3723 17.0631 38.2308C16.9052 38.0894 16.6747 38.0191 16.3731 38.0191C16.217 38.0191 16.0806 38.0409 15.9625 38.0852C15.8443 38.1296 15.7452 38.1882 15.6634 38.2618C15.5824 38.3346 15.5196 38.42 15.4758 38.5163C15.432 38.6125 15.4073 38.7129 15.4006 38.8176H17.2894V38.8184Z" fill="white"/>
<path d="M22.9557 40.2117C22.9557 40.2226 22.9524 40.2318 22.9458 40.2402C22.9392 40.2485 22.9277 40.2561 22.9128 40.2611C22.8979 40.2661 22.8773 40.2703 22.8508 40.2745C22.8244 40.2778 22.7921 40.2795 22.7533 40.2795C22.712 40.2795 22.6781 40.2778 22.6517 40.2745C22.6252 40.2711 22.6046 40.2669 22.5897 40.2611C22.5748 40.2561 22.5641 40.2494 22.5567 40.2402C22.5501 40.2318 22.5468 40.2218 22.5468 40.2117V39.1178H20.7918V40.2117C20.7918 40.2226 20.7885 40.2318 20.7819 40.2402C20.7753 40.2485 20.7637 40.2561 20.7488 40.2611C20.734 40.2661 20.7133 40.2703 20.6869 40.2745C20.6604 40.2778 20.6266 40.2795 20.5852 40.2795C20.5464 40.2795 20.5134 40.2778 20.4877 40.2745C20.4613 40.2711 20.4398 40.2669 20.4241 40.2611C20.4084 40.2561 20.3969 40.2494 20.3911 40.2402C20.3853 40.2318 20.3828 40.2218 20.3828 40.2117V37.8489C20.3828 37.838 20.3853 37.8288 20.3911 37.8205C20.3969 37.8121 20.4076 37.8045 20.4241 37.7979C20.4398 37.792 20.4613 37.7878 20.4877 37.7845C20.5142 37.7819 20.5464 37.7803 20.5852 37.7803C20.6266 37.7803 20.6604 37.7819 20.6869 37.7845C20.7133 37.787 20.734 37.7912 20.7488 37.7979C20.7637 37.8037 20.7745 37.8112 20.7819 37.8205C20.7885 37.8288 20.7918 37.8389 20.7918 37.8489V38.8516H22.5468V37.8489C22.5468 37.838 22.5501 37.8288 22.5567 37.8205C22.5633 37.8121 22.574 37.8045 22.5897 37.7979C22.6046 37.792 22.6252 37.7878 22.6517 37.7845C22.6781 37.7819 22.712 37.7803 22.7533 37.7803C22.7921 37.7803 22.8252 37.7819 22.8508 37.7845C22.8773 37.787 22.8979 37.7912 22.9128 37.7979C22.9277 37.8037 22.9384 37.8112 22.9458 37.8205C22.9524 37.8288 22.9557 37.8389 22.9557 37.8489V40.2117Z" fill="white"/>
<path d="M27.9384 37.9404C27.9384 37.9613 27.9359 37.9806 27.9318 37.9982C27.9268 38.0157 27.9202 38.03 27.9111 38.0425C27.902 38.0551 27.8913 38.0643 27.878 38.071C27.8657 38.0777 27.8508 38.0819 27.8351 38.0819H26.8221V40.212C26.8221 40.2229 26.8188 40.2321 26.8114 40.2404C26.8039 40.2488 26.794 40.2563 26.7783 40.2614C26.7626 40.2664 26.7428 40.2706 26.7164 40.2748C26.6899 40.2781 26.656 40.2798 26.6147 40.2798C26.5759 40.2798 26.5428 40.2781 26.5164 40.2748C26.49 40.2714 26.4685 40.2672 26.4528 40.2614C26.4371 40.2555 26.4255 40.2496 26.4206 40.2404C26.4148 40.2321 26.4123 40.222 26.4123 40.212V38.0819H25.3993C25.3836 38.0819 25.3688 38.0785 25.3564 38.071C25.344 38.0643 25.3332 38.0542 25.3241 38.0425C25.3151 38.03 25.3084 38.0157 25.3035 37.9982C25.2985 37.9806 25.2969 37.9613 25.2969 37.9404C25.2969 37.9195 25.2994 37.9002 25.3035 37.8818C25.3084 37.8634 25.3151 37.8475 25.3241 37.835C25.3332 37.8216 25.344 37.8115 25.3564 37.8048C25.3688 37.7981 25.3836 37.7939 25.3993 37.7939H27.8343C27.85 37.7939 27.8648 37.7973 27.8772 37.8048C27.8896 37.8115 27.9004 37.8216 27.9103 37.835C27.9194 37.8483 27.926 37.8634 27.9309 37.8818C27.9359 37.9002 27.9384 37.9195 27.9384 37.9404Z" fill="white"/>
<path d="M32.4509 39.8621C32.4509 39.883 32.45 39.9015 32.4476 39.9182C32.4451 39.9349 32.4418 39.9492 32.4376 39.9609C32.4327 39.9734 32.4269 39.9843 32.4186 39.9935C32.4104 40.0027 32.3914 40.0195 32.3616 40.0421C32.3319 40.0647 32.2823 40.0931 32.2121 40.1283C32.1418 40.1634 32.0642 40.1936 31.9766 40.2195C31.8898 40.2454 31.7956 40.2672 31.6948 40.2831C31.594 40.2999 31.4899 40.3082 31.3825 40.3082C31.1677 40.3082 30.9768 40.2806 30.8108 40.2262C30.6447 40.1718 30.5059 40.0906 30.3935 39.9835C30.2811 39.8763 30.196 39.7449 30.1374 39.5893C30.0787 39.4336 30.0498 39.2536 30.0498 39.0502C30.0498 38.8201 30.0862 38.6242 30.158 38.4602C30.2299 38.2961 30.3291 38.1622 30.4555 38.0584C30.5811 37.9538 30.7281 37.8768 30.8967 37.8274C31.0653 37.778 31.2454 37.7529 31.4379 37.7529C31.5412 37.7529 31.6395 37.7605 31.7337 37.7755C31.8279 37.7906 31.9138 37.8098 31.9931 37.8341C32.0724 37.8584 32.1427 37.886 32.2046 37.9178C32.2666 37.9488 32.3112 37.9756 32.3401 37.9973C32.3691 38.0191 32.3881 38.0358 32.3988 38.0467C32.4087 38.0584 32.417 38.071 32.4228 38.0844C32.4285 38.0986 32.4327 38.1137 32.4352 38.1304C32.4376 38.1471 32.4385 38.1664 32.4385 38.189C32.4385 38.2392 32.4285 38.2744 32.4095 38.2945C32.3897 38.3145 32.3691 38.3246 32.3459 38.3246C32.3137 38.3246 32.274 38.3087 32.2278 38.2777C32.1807 38.2467 32.1204 38.2116 32.0477 38.1748C31.9741 38.1371 31.8857 38.1028 31.7816 38.0718C31.6775 38.0409 31.5536 38.0249 31.409 38.0249C31.1115 38.0249 30.8818 38.112 30.7207 38.2861C30.5596 38.4602 30.4786 38.7113 30.4786 39.0402C30.4786 39.2059 30.5001 39.3507 30.5439 39.4746C30.5877 39.5993 30.6497 39.7023 30.7315 39.7851C30.8124 39.868 30.9116 39.9299 31.0289 39.9701C31.1454 40.0111 31.2776 40.0312 31.4238 40.0312C31.561 40.0312 31.6825 40.0144 31.7882 39.9818C31.8931 39.9492 31.9849 39.9123 32.0634 39.8722C32.141 39.832 32.2063 39.7952 32.2575 39.7625C32.3087 39.7299 32.3476 39.7131 32.3724 39.7131C32.3864 39.7131 32.398 39.7165 32.4087 39.7223C32.4186 39.7282 32.4277 39.7382 32.4343 39.7508C32.4409 39.7642 32.4467 39.7793 32.45 39.7977C32.4492 39.8169 32.4509 39.8378 32.4509 39.8621Z" fill="white"/>
<path d="M37.1075 37.9404C37.1075 37.9613 37.105 37.9806 37.1009 37.9982C37.0959 38.0157 37.0893 38.03 37.0802 38.0425C37.0711 38.0551 37.0604 38.0643 37.0472 38.071C37.0348 38.0777 37.0199 38.0819 37.0042 38.0819H35.9912V40.212C35.9912 40.2229 35.9879 40.2321 35.9805 40.2404C35.973 40.2488 35.9631 40.2563 35.9474 40.2614C35.9317 40.2664 35.9119 40.2706 35.8855 40.2748C35.859 40.2781 35.8251 40.2798 35.7838 40.2798C35.745 40.2798 35.7119 40.2781 35.6855 40.2748C35.6591 40.2714 35.6376 40.2672 35.6219 40.2614C35.6062 40.2555 35.5946 40.2496 35.5897 40.2404C35.5839 40.2321 35.5814 40.222 35.5814 40.212V38.0819H34.5693C34.5536 38.0819 34.5387 38.0785 34.5263 38.071C34.5139 38.0643 34.5032 38.0542 34.4941 38.0425C34.485 38.03 34.4784 38.0157 34.4734 37.9982C34.4685 37.9806 34.4668 37.9613 34.4668 37.9404C34.4668 37.9195 34.4693 37.9002 34.4734 37.8818C34.4784 37.8634 34.485 37.8475 34.4941 37.835C34.5032 37.8216 34.5139 37.8115 34.5263 37.8048C34.5387 37.7981 34.5536 37.7939 34.5693 37.7939H37.0042C37.0199 37.7939 37.0348 37.7973 37.0472 37.8048C37.0595 37.8115 37.0703 37.8216 37.0802 37.835C37.0893 37.8483 37.0959 37.8634 37.1009 37.8818C37.105 37.9002 37.1075 37.9195 37.1075 37.9404Z" fill="white"/>
<path d="M41.8361 39.5384C41.8361 39.6572 41.8072 39.7627 41.7485 39.8572C41.6898 39.9518 41.6031 40.0305 41.4874 40.0949C41.3717 40.1594 41.2288 40.2088 41.0578 40.2422C40.8876 40.2766 40.6884 40.2933 40.462 40.2933C40.3959 40.2933 40.329 40.2925 40.2613 40.2916C40.1935 40.2908 40.1282 40.2891 40.0638 40.2866C39.9993 40.2841 39.9374 40.2808 39.8762 40.2774C39.8159 40.2741 39.7581 40.2699 39.7027 40.264C39.6201 40.2556 39.5573 40.2331 39.5135 40.1979C39.4697 40.1619 39.4482 40.1108 39.4482 40.0422V38.0134C39.4482 37.9456 39.4697 37.8928 39.5135 37.8569C39.5573 37.82 39.6201 37.7983 39.7027 37.7916C39.7672 37.7865 39.83 37.7824 39.8936 37.7782C39.9564 37.7748 40.0192 37.7715 40.0828 37.769C40.1464 37.7665 40.2092 37.764 40.2737 37.7623C40.3381 37.7606 40.4042 37.7598 40.4728 37.7598C40.681 37.7598 40.8628 37.774 41.0173 37.8025C41.1718 37.8309 41.3007 37.8728 41.404 37.9263C41.5072 37.9799 41.5841 38.046 41.6345 38.1247C41.6849 38.2034 41.7097 38.2929 41.7097 38.3934C41.7097 38.5206 41.6642 38.6311 41.5742 38.7248C41.4833 38.8185 41.3503 38.8872 41.1743 38.9307C41.399 38.9709 41.5651 39.0437 41.6741 39.1492C41.7815 39.2563 41.8361 39.386 41.8361 39.5384ZM41.2965 38.416C41.2965 38.3515 41.2808 38.2938 41.2503 38.2435C41.2197 38.1933 41.1693 38.1506 41.0991 38.1172C41.0288 38.0828 40.9388 38.0577 40.8281 38.0402C40.7174 38.0226 40.5827 38.0142 40.4249 38.0142C40.3059 38.0142 40.1985 38.0167 40.1018 38.0217C40.006 38.0268 39.9242 38.0326 39.8581 38.0376V38.847H40.5C40.7587 38.847 40.9561 38.8093 41.0925 38.7349C41.2288 38.6595 41.2965 38.5532 41.2965 38.416ZM41.4106 39.5517C41.4106 39.4747 41.3924 39.4078 41.3552 39.3492C41.3189 39.2906 41.261 39.2421 41.1833 39.2027C41.1057 39.1634 41.0074 39.1341 40.89 39.1148C40.7719 39.0956 40.6331 39.0864 40.4728 39.0864H39.8581V40.0079C39.906 40.0129 39.9556 40.0171 40.0076 40.0213C40.0588 40.0246 40.1117 40.028 40.1654 40.0305C40.2191 40.033 40.2728 40.0355 40.3265 40.0372C40.3802 40.0389 40.4315 40.0397 40.4794 40.0397C40.6397 40.0397 40.7785 40.0288 40.895 40.0071C41.0115 39.9853 41.1082 39.9535 41.185 39.9116C41.2618 39.8698 41.318 39.8187 41.3552 39.7576C41.3916 39.6974 41.4106 39.6287 41.4106 39.5517Z" fill="white"/>
<path d="M47.2409 39.0055C47.2409 39.1939 47.2087 39.3671 47.145 39.5253C47.0806 39.6835 46.9856 39.8216 46.8583 39.9379C46.7311 40.0543 46.5724 40.1455 46.3824 40.2108C46.1924 40.2761 45.9718 40.3087 45.7198 40.3087C45.4768 40.3087 45.2645 40.2794 45.0827 40.2217C44.9009 40.1639 44.7481 40.0802 44.6258 39.9714C44.5035 39.8626 44.4118 39.7304 44.3507 39.5755C44.2903 39.4207 44.2598 39.2458 44.2598 39.0507C44.2598 38.8624 44.2912 38.6892 44.354 38.531C44.4168 38.3728 44.5118 38.2355 44.639 38.12C44.7663 38.0045 44.9249 37.9141 45.1149 37.8497C45.305 37.7852 45.5272 37.7534 45.7809 37.7534C46.0238 37.7534 46.2362 37.7819 46.4179 37.8396C46.5997 37.8974 46.7517 37.9802 46.8732 38.089C46.9947 38.1979 47.0864 38.3301 47.1483 38.4849C47.2103 38.6381 47.2409 38.8122 47.2409 39.0055ZM46.8079 39.034C46.8079 38.9001 46.7906 38.772 46.7567 38.6507C46.722 38.5285 46.665 38.4213 46.5848 38.3284C46.5047 38.2355 46.3973 38.161 46.2618 38.1066C46.1263 38.0514 45.9585 38.0246 45.7569 38.0246C45.5719 38.0246 45.4116 38.0497 45.2761 38.1008C45.1405 38.151 45.0307 38.2213 44.9447 38.3108C44.8588 38.4004 44.7952 38.5059 44.7539 38.6281C44.7125 38.7503 44.6919 38.8817 44.6919 39.0223C44.6919 39.1579 44.7092 39.2876 44.7431 39.4098C44.777 39.532 44.8348 39.64 44.915 39.732C44.9951 39.8241 45.1025 39.8978 45.238 39.9513C45.3727 40.0049 45.5413 40.0325 45.7429 40.0325C45.928 40.0325 46.0883 40.0074 46.2238 39.9572C46.3593 39.907 46.4692 39.8375 46.5551 39.7479C46.641 39.6592 46.7046 39.5538 46.746 39.4324C46.7873 39.3094 46.8079 39.1771 46.8079 39.034Z" fill="white"/>
<path d="M55.8001 40.212C55.8001 40.2229 55.7968 40.2321 55.7893 40.2404C55.7819 40.2488 55.772 40.2563 55.7563 40.2614C55.7406 40.2664 55.7208 40.2706 55.6943 40.2748C55.6679 40.2781 55.634 40.2798 55.5927 40.2798C55.5539 40.2798 55.5208 40.2781 55.4944 40.2748C55.4679 40.2714 55.4465 40.2672 55.4308 40.2614C55.4151 40.2555 55.4035 40.2496 55.3985 40.2404C55.3928 40.2321 55.3903 40.222 55.3903 40.212V38.6895C55.3903 38.6234 55.3919 38.5573 55.3952 38.4911C55.3985 38.425 55.4027 38.3589 55.4076 38.2928C55.3547 38.3606 55.2977 38.4275 55.2358 38.4928C55.1738 38.5581 55.111 38.6242 55.0466 38.6903L53.5833 40.2128C53.5717 40.2254 53.561 40.2354 53.5502 40.2446C53.5395 40.2538 53.5271 40.2605 53.5122 40.2656C53.4973 40.2706 53.4792 40.2748 53.4593 40.2773C53.4395 40.2798 53.4122 40.2815 53.38 40.2815C53.3478 40.2815 53.3214 40.2798 53.299 40.2764C53.2776 40.2731 53.2594 40.2689 53.2462 40.263C53.2321 40.258 53.223 40.2513 53.2172 40.2421C53.2115 40.2337 53.209 40.2237 53.209 40.2137V37.8509C53.209 37.84 53.2115 37.8308 53.2172 37.8224C53.223 37.814 53.2338 37.8065 53.2503 37.7998C53.266 37.7939 53.2875 37.7898 53.3139 37.7864C53.3404 37.7839 53.3726 37.7822 53.4114 37.7822C53.4916 37.7822 53.5461 37.7881 53.5742 37.799C53.6031 37.8107 53.6171 37.8274 53.6171 37.85V39.3876C53.6171 39.452 53.6155 39.5156 53.6122 39.5784C53.6089 39.6412 53.6039 39.7039 53.5965 39.7667C53.6494 39.7039 53.7014 39.642 53.7527 39.5817C53.8039 39.5206 53.8609 39.4595 53.9229 39.3993L55.4068 37.8509C55.4184 37.8383 55.4299 37.8283 55.4415 37.8199C55.4531 37.8115 55.4671 37.804 55.4845 37.799C55.5018 37.7939 55.5208 37.7898 55.5431 37.7872C55.5646 37.7847 55.5927 37.7831 55.6274 37.7831C55.6596 37.7831 55.6861 37.7847 55.7084 37.7872C55.7299 37.7898 55.748 37.7939 55.7613 37.8006C55.7753 37.8065 55.7844 37.814 55.7902 37.8232C55.796 37.8316 55.7984 37.8417 55.7984 37.8517V40.212H55.8001Z" fill="white"/>
<path d="M61.2497 40.2117C61.2497 40.2226 61.2463 40.2318 61.2397 40.2402C61.2331 40.2485 61.2216 40.2561 61.2067 40.2611C61.1918 40.2661 61.1712 40.2703 61.1447 40.2745C61.1183 40.2778 61.0861 40.2795 61.0472 40.2795C61.0059 40.2795 60.972 40.2778 60.9456 40.2745C60.9192 40.2711 60.8985 40.2669 60.8836 40.2611C60.8688 40.2561 60.858 40.2494 60.8506 40.2402C60.844 40.2318 60.8407 40.2218 60.8407 40.2117V39.1178H59.0857V40.2117C59.0857 40.2226 59.0824 40.2318 59.0758 40.2402C59.0692 40.2485 59.0576 40.2561 59.0428 40.2611C59.0279 40.2661 59.0072 40.2703 58.9808 40.2745C58.9544 40.2778 58.9205 40.2795 58.8792 40.2795C58.8403 40.2795 58.8073 40.2778 58.7817 40.2745C58.7552 40.2711 58.7338 40.2669 58.7181 40.2611C58.7024 40.2561 58.6908 40.2494 58.685 40.2402C58.6792 40.2318 58.6768 40.2218 58.6768 40.2117V37.8489C58.6768 37.838 58.6792 37.8288 58.685 37.8205C58.6908 37.8121 58.7015 37.8045 58.7181 37.7979C58.7338 37.792 58.7552 37.7878 58.7817 37.7845C58.8081 37.7819 58.8403 37.7803 58.8792 37.7803C58.9205 37.7803 58.9544 37.7819 58.9808 37.7845C59.0072 37.787 59.0279 37.7912 59.0428 37.7979C59.0576 37.8037 59.0684 37.8112 59.0758 37.8205C59.0824 37.8288 59.0857 37.8389 59.0857 37.8489V38.8516H60.8407V37.8489C60.8407 37.838 60.844 37.8288 60.8506 37.8205C60.8572 37.8121 60.8679 37.8045 60.8836 37.7979C60.8985 37.792 60.9192 37.7878 60.9456 37.7845C60.972 37.7819 61.0059 37.7803 61.0472 37.7803C61.0861 37.7803 61.1191 37.7819 61.1447 37.7845C61.1712 37.787 61.1918 37.7912 61.2067 37.7979C61.2216 37.8037 61.2323 37.8112 61.2397 37.8205C61.2463 37.8288 61.2497 37.8389 61.2497 37.8489V40.2117Z" fill="white"/>
<path d="M66.2323 37.9404C66.2323 37.9613 66.2298 37.9806 66.2257 37.9982C66.2207 38.0157 66.2141 38.03 66.205 38.0425C66.196 38.0551 66.1852 38.0643 66.172 38.071C66.1596 38.0777 66.1447 38.0819 66.129 38.0819H65.1161V40.212C65.1161 40.2229 65.1128 40.2321 65.1053 40.2404C65.0979 40.2488 65.088 40.2563 65.0723 40.2614C65.0566 40.2664 65.0367 40.2706 65.0103 40.2748C64.9839 40.2781 64.95 40.2798 64.9087 40.2798C64.8698 40.2798 64.8368 40.2781 64.8104 40.2748C64.7839 40.2714 64.7624 40.2672 64.7467 40.2614C64.731 40.2555 64.7195 40.2496 64.7145 40.2404C64.7087 40.2321 64.7062 40.222 64.7062 40.212V38.0819H63.6933C63.6776 38.0819 63.6627 38.0785 63.6503 38.071C63.6379 38.0643 63.6272 38.0542 63.6181 38.0425C63.609 38.03 63.6024 38.0157 63.5974 37.9982C63.5925 37.9806 63.5908 37.9613 63.5908 37.9404C63.5908 37.9195 63.5933 37.9002 63.5974 37.8818C63.6024 37.8634 63.609 37.8475 63.6181 37.835C63.6272 37.8216 63.6379 37.8115 63.6503 37.8048C63.6627 37.7981 63.6776 37.7939 63.6933 37.7939H66.1282C66.1439 37.7939 66.1588 37.7973 66.1712 37.8048C66.1836 37.8115 66.1943 37.8216 66.2042 37.835C66.2133 37.8483 66.2199 37.8634 66.2249 37.8818C66.2298 37.9002 66.2323 37.9195 66.2323 37.9404Z" fill="white"/>
<path d="M71.0574 38.9096C71.0574 38.9724 71.0359 39.0151 70.9921 39.0385C70.9483 39.062 70.9062 39.0737 70.8648 39.0737H68.7455C68.7455 39.2202 68.7645 39.3524 68.8025 39.4704C68.8405 39.5884 68.9025 39.6905 68.9901 39.7742C69.0777 39.8579 69.19 39.9232 69.3305 39.9684C69.4701 40.0136 69.642 40.0362 69.8453 40.0362C69.9898 40.0362 70.1187 40.027 70.2336 40.0078C70.3484 39.9885 70.4468 39.9676 70.531 39.9441C70.6145 39.9207 70.6831 39.8989 70.7368 39.8805C70.7905 39.8613 70.8285 39.8521 70.8516 39.8521C70.8657 39.8521 70.8781 39.8546 70.8896 39.8596C70.9012 39.8646 70.9103 39.873 70.9169 39.8847C70.9235 39.8956 70.9293 39.9107 70.9326 39.9274C70.9359 39.9441 70.9375 39.9667 70.9375 39.9927C70.9375 40.0052 70.9367 40.017 70.9342 40.0278C70.9318 40.0396 70.9293 40.0496 70.926 40.0596C70.9227 40.0697 70.9177 40.0781 70.9103 40.0873C70.9037 40.0956 70.8946 40.1048 70.883 40.1132C70.8714 40.1216 70.8359 40.1375 70.7764 40.1592C70.7169 40.181 70.6393 40.2028 70.5426 40.2245C70.4468 40.2463 70.3344 40.2655 70.208 40.2831C70.0807 40.3007 69.9444 40.3091 69.7973 40.3091C69.5569 40.3091 69.3437 40.2814 69.1586 40.227C68.9736 40.1726 68.8174 40.0915 68.6918 39.9843C68.5662 39.8772 68.4704 39.7449 68.4051 39.5859C68.3398 39.4277 68.3076 39.2436 68.3076 39.0352C68.3076 38.8351 68.3415 38.656 68.4092 38.497C68.477 38.338 68.5737 38.2041 68.6993 38.0936C68.8248 37.9831 68.9769 37.8986 69.1545 37.84C69.3322 37.7814 69.5296 37.7529 69.7469 37.7529C69.9808 37.7529 70.1799 37.7822 70.3443 37.8417C70.5096 37.9011 70.6451 37.9806 70.7516 38.0802C70.8582 38.1806 70.9359 38.2961 70.9855 38.4292C71.035 38.5615 71.059 38.7004 71.059 38.8469V38.9096H71.0574ZM70.6351 38.8184C70.6418 38.5673 70.5666 38.3723 70.4088 38.2308C70.2509 38.0894 70.0204 38.0191 69.7188 38.0191C69.5627 38.0191 69.4263 38.0409 69.3082 38.0852C69.19 38.1296 69.0909 38.1882 69.0091 38.2618C68.9281 38.3346 68.8653 38.42 68.8215 38.5163C68.7777 38.6125 68.753 38.7129 68.7464 38.8176H70.6351V38.8184Z" fill="white"/>
<path d="M76.4419 38.9955C76.4419 39.1972 76.413 39.3797 76.3543 39.5412C76.2957 39.7028 76.2097 39.8409 76.0965 39.9538C75.9833 40.0668 75.8429 40.1547 75.676 40.2158C75.5091 40.2778 75.3174 40.3087 75.1026 40.3087C75.0109 40.3087 74.9249 40.3012 74.8448 40.287C74.7646 40.2719 74.6861 40.2493 74.6093 40.2175C74.5325 40.1865 74.4556 40.1472 74.3788 40.1003C74.3019 40.0534 74.221 39.9965 74.1367 39.9304V41.1499C74.1367 41.1608 74.1334 41.17 74.1259 41.1784C74.1185 41.1867 74.1086 41.1943 74.0937 41.201C74.0788 41.2068 74.0582 41.211 74.0318 41.2143C74.0053 41.2168 73.9714 41.2185 73.9301 41.2185C73.8913 41.2185 73.8582 41.2168 73.8326 41.2143C73.8062 41.2118 73.7847 41.2077 73.769 41.201C73.7533 41.1951 73.7417 41.1876 73.7368 41.1784C73.7318 41.1691 73.7285 41.1599 73.7285 41.1499V37.8497C73.7285 37.8371 73.731 37.8271 73.7368 37.8187C73.7426 37.8103 73.7525 37.8028 73.7674 37.7978C73.7822 37.7928 73.8021 37.7886 73.826 37.7861C73.85 37.7836 73.8789 37.7819 73.9136 37.7819C73.9483 37.7819 73.9764 37.7836 73.9995 37.7861C74.0227 37.7886 74.0417 37.7928 74.0582 37.7978C74.0739 37.8028 74.0855 37.8103 74.0929 37.8187C74.0995 37.8271 74.1028 37.838 74.1028 37.8497V38.192C74.1987 38.1175 74.2904 38.0522 74.3779 37.9978C74.4647 37.9426 74.5523 37.8974 74.639 37.8606C74.7258 37.8237 74.815 37.7969 74.9067 37.7794C74.9985 37.7618 75.096 37.7534 75.1984 37.7534C75.4232 37.7534 75.614 37.7861 75.7718 37.8513C75.9296 37.9166 76.0585 38.0062 76.1585 38.1192C76.2585 38.2322 76.3304 38.3644 76.375 38.5151C76.4196 38.6641 76.4419 38.8248 76.4419 38.9955ZM76.0131 39.0449C76.0131 38.9126 75.999 38.7854 75.9718 38.6624C75.9445 38.5393 75.8982 38.4305 75.833 38.3351C75.7677 38.2397 75.6809 38.1627 75.5719 38.105C75.4628 38.0472 75.3265 38.0187 75.1612 38.0187C75.0786 38.0187 74.9985 38.0271 74.9191 38.0447C74.8398 38.0623 74.7597 38.0907 74.677 38.1309C74.5944 38.1711 74.5085 38.223 74.4193 38.2866C74.33 38.3502 74.2358 38.4289 74.1375 38.5226V39.5513C74.3094 39.7094 74.4738 39.8308 74.63 39.9154C74.7861 39.9999 74.9514 40.0417 75.1232 40.0417C75.281 40.0417 75.4165 40.0124 75.5306 39.9547C75.6438 39.8961 75.7363 39.8199 75.8074 39.7245C75.8784 39.6299 75.9305 39.5228 75.9635 39.4031C75.9966 39.2843 76.0131 39.1646 76.0131 39.0449Z" fill="white"/>
<path d="M81.6863 40.2117C81.6863 40.2226 81.683 40.2318 81.6756 40.2402C81.6682 40.2485 81.6583 40.2561 81.6434 40.2611C81.6285 40.2661 81.6079 40.2703 81.5814 40.2745C81.555 40.2778 81.5227 40.2795 81.4839 40.2795C81.4426 40.2795 81.4087 40.2778 81.3823 40.2745C81.3558 40.2711 81.3352 40.2669 81.3203 40.2611C81.3054 40.2561 81.2947 40.2494 81.2873 40.2402C81.2798 40.231 81.2774 40.2218 81.2774 40.2117V39.1178H79.5224V40.2117C79.5224 40.2226 79.5191 40.2318 79.5117 40.2402C79.5042 40.2485 79.4943 40.2561 79.4794 40.2611C79.4646 40.2661 79.4439 40.2703 79.4175 40.2745C79.391 40.2778 79.3572 40.2795 79.3159 40.2795C79.277 40.2795 79.244 40.2778 79.2184 40.2745C79.1919 40.2711 79.1704 40.2669 79.1547 40.2611C79.139 40.2561 79.1275 40.2494 79.1225 40.2402C79.1176 40.231 79.1143 40.2218 79.1143 40.2117V37.8489C79.1143 37.838 79.1167 37.8288 79.1225 37.8205C79.1283 37.8121 79.139 37.8045 79.1547 37.7979C79.1704 37.792 79.1919 37.7878 79.2184 37.7845C79.2448 37.7819 79.277 37.7803 79.3159 37.7803C79.3572 37.7803 79.391 37.7819 79.4175 37.7845C79.4439 37.787 79.4646 37.7912 79.4794 37.7979C79.4943 37.8037 79.5051 37.8112 79.5117 37.8205C79.5183 37.8288 79.5224 37.8389 79.5224 37.8489V38.8516H81.2774V37.8489C81.2774 37.838 81.2807 37.8288 81.2873 37.8205C81.2939 37.8121 81.3046 37.8045 81.3203 37.7979C81.3352 37.792 81.3558 37.7878 81.3823 37.7845C81.4087 37.7819 81.4426 37.7803 81.4839 37.7803C81.5227 37.7803 81.5558 37.7819 81.5814 37.7845C81.6079 37.787 81.6285 37.7912 81.6434 37.7979C81.6583 37.8037 81.669 37.8112 81.6756 37.8205C81.6822 37.8288 81.6863 37.8389 81.6863 37.8489V40.2117Z" fill="white"/>
<path d="M87.0985 38.9096C87.0985 38.9724 87.077 39.0151 87.0332 39.0385C86.9894 39.062 86.9473 39.0737 86.906 39.0737H84.7867C84.7867 39.2202 84.8057 39.3524 84.8437 39.4704C84.8817 39.5884 84.9437 39.6905 85.0313 39.7742C85.118 39.8588 85.2312 39.9232 85.3717 39.9684C85.5113 40.0136 85.6831 40.0362 85.8872 40.0362C86.0318 40.0362 86.1607 40.027 86.2756 40.0078C86.3896 39.9885 86.4887 39.9676 86.573 39.9441C86.6565 39.9207 86.725 39.8989 86.7787 39.8805C86.8324 39.8613 86.8713 39.8521 86.8936 39.8521C86.9076 39.8521 86.92 39.8546 86.9316 39.8596C86.9432 39.8646 86.9522 39.873 86.9589 39.8847C86.9655 39.8956 86.9704 39.9107 86.9746 39.9274C86.9787 39.9441 86.9795 39.9667 86.9795 39.9927C86.9795 40.0052 86.9787 40.017 86.9762 40.0278C86.9737 40.0396 86.9712 40.0496 86.9679 40.0596C86.9646 40.0689 86.9597 40.0781 86.9522 40.0873C86.9456 40.0956 86.9366 40.1048 86.925 40.1132C86.9134 40.1216 86.8779 40.1375 86.8184 40.1592C86.7589 40.181 86.6812 40.2028 86.5846 40.2245C86.4887 40.2463 86.3764 40.2655 86.2499 40.2831C86.1227 40.3007 85.9864 40.3091 85.8393 40.3091C85.5989 40.3091 85.3857 40.2814 85.2006 40.227C85.0155 40.1718 84.8594 40.0915 84.7338 39.9843C84.6082 39.8772 84.5124 39.7449 84.4471 39.5859C84.3818 39.4277 84.3496 39.2436 84.3496 39.0352C84.3496 38.8351 84.3835 38.656 84.4512 38.497C84.519 38.3388 84.6157 38.2041 84.7412 38.0936C84.8668 37.9831 85.0189 37.8986 85.1965 37.84C85.3741 37.7814 85.5716 37.7529 85.7889 37.7529C86.0227 37.7529 86.2219 37.7822 86.3863 37.8417C86.5515 37.9011 86.687 37.9806 86.7936 38.0802C86.9002 38.1806 86.9779 38.2961 87.0274 38.4292C87.0762 38.5615 87.101 38.7004 87.101 38.8469V38.9096H87.0985ZM86.6755 38.8184C86.6821 38.5673 86.6069 38.3723 86.4491 38.2308C86.2913 38.0894 86.0607 38.0191 85.7583 38.0191C85.603 38.0191 85.4658 38.0409 85.3477 38.0852C85.2295 38.1296 85.1304 38.1882 85.0486 38.2618C84.9676 38.3346 84.9048 38.42 84.861 38.5163C84.8173 38.6125 84.7925 38.7129 84.785 38.8176H86.6755V38.8184Z" fill="white"/>
<path d="M91.8412 37.9404C91.8412 37.9613 91.8387 37.9806 91.8346 37.9982C91.8296 38.0157 91.823 38.03 91.8139 38.0425C91.8048 38.0551 91.7941 38.0643 91.7817 38.071C91.7693 38.0777 91.7544 38.0819 91.7387 38.0819H90.7257V40.212C90.7257 40.2229 90.7224 40.2321 90.715 40.2404C90.7076 40.2488 90.6977 40.2563 90.6828 40.2614C90.6679 40.2664 90.6473 40.2706 90.6208 40.2748C90.5944 40.2781 90.5605 40.2798 90.5192 40.2798C90.4804 40.2798 90.4473 40.2781 90.4217 40.2748C90.3952 40.2714 90.3738 40.2672 90.3581 40.2614C90.3424 40.2563 90.3308 40.2496 90.3258 40.2404C90.3201 40.2321 90.3176 40.222 90.3176 40.212V38.0819H89.3046C89.2889 38.0819 89.274 38.0785 89.2616 38.071C89.2492 38.0643 89.2385 38.0542 89.2294 38.0425C89.2203 38.03 89.2137 38.0157 89.2088 37.9982C89.2038 37.9806 89.2021 37.9613 89.2021 37.9404C89.2021 37.9195 89.2046 37.9002 89.2088 37.8818C89.2137 37.8634 89.2203 37.8475 89.2294 37.835C89.2385 37.8216 89.2492 37.8115 89.2616 37.8048C89.274 37.7981 89.2889 37.7939 89.3046 37.7939H91.7395C91.7552 37.7939 91.7701 37.7973 91.7825 37.8048C91.7949 37.8115 91.8056 37.8216 91.8147 37.835C91.8238 37.8483 91.8304 37.8634 91.8354 37.8818C91.8387 37.9002 91.8412 37.9195 91.8412 37.9404Z" fill="white"/>
<path d="M95.3333 38.9431C95.3333 38.9933 95.3242 39.0276 95.306 39.046C95.2879 39.0644 95.2639 39.0736 95.2342 39.0736H93.7948C93.7651 39.0736 93.7403 39.0644 93.7213 39.0452C93.7015 39.0259 93.6924 38.9924 93.6924 38.9431C93.6924 38.8945 93.7023 38.8602 93.7213 38.841C93.7411 38.8217 93.7651 38.8125 93.7948 38.8125H95.2342C95.2482 38.8125 95.2614 38.815 95.2738 38.8192C95.2862 38.8234 95.297 38.8309 95.306 38.841C95.3151 38.8518 95.3217 38.8652 95.3267 38.8811C95.3308 38.8987 95.3333 38.9188 95.3333 38.9431Z" fill="white"/>
<path d="M101.569 40.181C101.572 40.2178 101.562 40.243 101.54 40.258C101.519 40.2731 101.467 40.2806 101.384 40.2806C101.343 40.2806 101.309 40.2798 101.281 40.2781C101.254 40.2764 101.231 40.2731 101.216 40.2689C101.2 40.2647 101.188 40.258 101.181 40.2505C101.174 40.243 101.169 40.2329 101.167 40.2203L100.923 38.7841C100.917 38.7339 100.909 38.6803 100.901 38.6234C100.893 38.5665 100.885 38.5096 100.878 38.4526C100.872 38.3957 100.864 38.338 100.858 38.2802C100.851 38.2225 100.843 38.1681 100.834 38.1153L100.831 38.0576C100.807 38.1078 100.783 38.1614 100.759 38.2183C100.734 38.2752 100.707 38.3321 100.679 38.389C100.652 38.4468 100.625 38.5045 100.598 38.5631C100.572 38.6217 100.547 38.677 100.525 38.7289L99.8176 40.1777C99.8085 40.1969 99.7986 40.2128 99.7887 40.2262C99.7788 40.2396 99.7655 40.2496 99.7507 40.2572C99.7358 40.2647 99.7168 40.2706 99.6937 40.2739C99.6705 40.2773 99.6424 40.2789 99.6077 40.2789C99.573 40.2789 99.5458 40.2773 99.5235 40.2748C99.5011 40.2722 99.483 40.2672 99.4664 40.2605C99.4507 40.2538 99.4367 40.2438 99.4251 40.2304C99.4136 40.217 99.4036 40.2003 99.3946 40.1793L98.7146 38.728C98.6889 38.6778 98.6633 38.6242 98.6369 38.5673C98.6105 38.5112 98.5848 38.4535 98.5601 38.3949C98.5344 38.3363 98.5105 38.2786 98.4865 38.2216C98.4626 38.1647 98.4411 38.1095 98.4229 38.0576L98.4163 38.1153C98.4097 38.1672 98.4022 38.2225 98.394 38.2802C98.3857 38.338 98.3775 38.3949 98.3684 38.4526C98.3593 38.5104 98.351 38.5673 98.3427 38.6234C98.3345 38.6803 98.327 38.7339 98.3204 38.7841L98.0899 40.1911C98.0874 40.2103 98.0833 40.2262 98.0759 40.2379C98.0684 40.2496 98.0569 40.2589 98.0395 40.2655C98.0222 40.2714 97.9999 40.2756 97.9726 40.2773C97.9453 40.2789 97.9098 40.2798 97.866 40.2798C97.8222 40.2798 97.7883 40.2781 97.7627 40.2748C97.7371 40.2714 97.7189 40.2656 97.7074 40.258C97.6958 40.2505 97.6892 40.2404 97.6867 40.2279C97.6842 40.2153 97.6859 40.2003 97.69 40.181L98.0511 37.9354C98.0626 37.8902 98.085 37.855 98.118 37.8308C98.1511 37.8065 98.2006 37.7939 98.2676 37.7939H98.446C98.4989 37.7939 98.5435 37.7973 98.5799 37.8032C98.6162 37.809 98.6476 37.8199 98.6741 37.8358C98.7005 37.8517 98.7228 37.8718 98.741 37.8969C98.7592 37.922 98.7774 37.9538 98.7964 37.9923L99.3119 39.1021C99.3417 39.1683 99.3714 39.2336 99.4012 39.298C99.4309 39.3624 99.4598 39.4261 99.4871 39.4888C99.5144 39.5516 99.54 39.6127 99.5639 39.6713C99.5879 39.7307 99.6102 39.7876 99.6309 39.8437H99.6375C99.6606 39.786 99.6846 39.7265 99.7094 39.6638C99.7341 39.601 99.7606 39.5374 99.7887 39.4729C99.8159 39.4085 99.8449 39.3449 99.8746 39.2813C99.9044 39.2176 99.9333 39.1566 99.9605 39.0971L100.479 37.9923C100.495 37.9572 100.512 37.9279 100.531 37.9019C100.549 37.8768 100.57 37.8559 100.596 37.8408C100.621 37.8249 100.651 37.8132 100.685 37.8057C100.72 37.7981 100.761 37.7939 100.809 37.7939H100.988C101.054 37.7939 101.105 37.804 101.14 37.8224C101.176 37.8408 101.197 37.876 101.204 37.927L101.569 40.181Z" fill="white"/>
<path d="M106.419 40.212C106.419 40.2295 106.411 40.2429 106.397 40.2521C106.382 40.2614 106.362 40.2689 106.338 40.2731C106.314 40.2773 106.281 40.2798 106.24 40.2798C106.201 40.2798 106.168 40.2773 106.14 40.2731C106.112 40.2689 106.091 40.2622 106.076 40.2521C106.061 40.2429 106.054 40.2287 106.054 40.212V39.9483C105.914 40.063 105.76 40.1517 105.592 40.2145C105.423 40.2773 105.249 40.3082 105.068 40.3082C104.905 40.3082 104.76 40.2923 104.63 40.2597C104.5 40.2279 104.391 40.181 104.302 40.1216C104.213 40.0613 104.144 39.9893 104.096 39.904C104.048 39.8186 104.024 39.7232 104.024 39.6169C104.024 39.4863 104.06 39.3725 104.131 39.2762C104.202 39.18 104.303 39.0988 104.433 39.0343C104.564 38.9699 104.721 38.9214 104.904 38.8895C105.088 38.8577 105.291 38.841 105.516 38.841H106.011V38.6376C106.011 38.5363 105.997 38.4476 105.969 38.3698C105.942 38.2919 105.898 38.2275 105.836 38.1756C105.774 38.1237 105.693 38.0844 105.595 38.0584C105.497 38.0325 105.376 38.0191 105.234 38.0191C105.097 38.0191 104.973 38.0316 104.863 38.0568C104.753 38.0819 104.657 38.1103 104.575 38.1413C104.492 38.1723 104.424 38.2007 104.371 38.2258C104.317 38.2509 104.278 38.2635 104.256 38.2635C104.242 38.2635 104.229 38.2618 104.218 38.2585C104.206 38.2551 104.196 38.2484 104.189 38.2392C104.181 38.23 104.175 38.2175 104.171 38.2024C104.168 38.1873 104.167 38.1697 104.167 38.1488C104.167 38.112 104.17 38.0827 104.177 38.0618C104.185 38.0409 104.202 38.0183 104.23 37.9965C104.259 37.9747 104.309 37.9488 104.383 37.9195C104.457 37.8902 104.541 37.8626 104.635 37.8375C104.73 37.8124 104.832 37.7914 104.942 37.7764C105.052 37.7605 105.162 37.7529 105.272 37.7529C105.485 37.7529 105.665 37.7722 105.812 37.8115C105.958 37.8509 106.077 37.9069 106.167 37.9798C106.257 38.0526 106.322 38.143 106.361 38.2501C106.4 38.3572 106.42 38.4786 106.42 38.6142V40.212H106.419ZM106.01 39.0971H105.443C105.278 39.0971 105.134 39.1088 105.01 39.1314C104.886 39.154 104.784 39.1875 104.701 39.231C104.618 39.2746 104.557 39.3265 104.518 39.3876C104.477 39.4487 104.457 39.5181 104.457 39.5968C104.457 39.7324 104.514 39.8412 104.628 39.9215C104.741 40.0027 104.9 40.0429 105.107 40.0429C105.27 40.0429 105.421 40.0111 105.562 39.9475C105.703 39.8839 105.852 39.786 106.01 39.6537V39.0971Z" fill="white"/>
<path d="M111.996 38.9955C111.996 39.1972 111.967 39.3797 111.908 39.5412C111.849 39.7028 111.763 39.8409 111.65 39.9538C111.537 40.0668 111.397 40.1547 111.23 40.2158C111.063 40.2778 110.871 40.3087 110.656 40.3087C110.565 40.3087 110.479 40.3012 110.398 40.287C110.318 40.2719 110.24 40.2493 110.163 40.2175C110.086 40.1865 110.009 40.1472 109.932 40.1003C109.856 40.0534 109.775 39.9965 109.69 39.9304V41.1499C109.69 41.1608 109.687 41.17 109.68 41.1784C109.672 41.1867 109.662 41.1943 109.647 41.201C109.633 41.2068 109.612 41.211 109.585 41.2143C109.559 41.2168 109.525 41.2185 109.484 41.2185C109.445 41.2185 109.412 41.2168 109.386 41.2143C109.36 41.2118 109.338 41.2077 109.323 41.201C109.307 41.1951 109.295 41.1876 109.29 41.1784C109.286 41.1691 109.282 41.1599 109.282 41.1499V37.8497C109.282 37.8371 109.285 37.8271 109.29 37.8187C109.296 37.8103 109.306 37.8028 109.321 37.7978C109.336 37.7928 109.356 37.7886 109.38 37.7861C109.404 37.7836 109.433 37.7819 109.467 37.7819C109.502 37.7819 109.53 37.7836 109.553 37.7861C109.576 37.7886 109.595 37.7928 109.612 37.7978C109.628 37.8028 109.639 37.8103 109.647 37.8187C109.653 37.8271 109.657 37.838 109.657 37.8497V38.192C109.752 38.1175 109.844 38.0522 109.932 37.9978C110.018 37.9426 110.106 37.8974 110.193 37.8606C110.279 37.8237 110.369 37.7969 110.46 37.7794C110.552 37.7618 110.65 37.7534 110.752 37.7534C110.977 37.7534 111.168 37.7861 111.325 37.8513C111.483 37.9166 111.612 38.0062 111.712 38.1192C111.812 38.2322 111.884 38.3644 111.929 38.5151C111.973 38.6641 111.996 38.8248 111.996 38.9955ZM111.566 39.0449C111.566 38.9126 111.552 38.7854 111.525 38.6624C111.497 38.5393 111.451 38.4305 111.386 38.3351C111.321 38.2397 111.234 38.1627 111.125 38.105C111.016 38.0472 110.879 38.0187 110.714 38.0187C110.631 38.0187 110.551 38.0271 110.472 38.0447C110.393 38.0623 110.313 38.0907 110.23 38.1309C110.147 38.1711 110.061 38.223 109.972 38.2866C109.883 38.3502 109.789 38.4289 109.69 38.5226V39.5513C109.862 39.7094 110.027 39.8308 110.183 39.9154C110.339 39.9999 110.504 40.0417 110.676 40.0417C110.834 40.0417 110.969 40.0124 111.083 39.9547C111.197 39.8961 111.289 39.8199 111.36 39.7245C111.431 39.6299 111.483 39.5228 111.516 39.4031C111.549 39.2843 111.566 39.1646 111.566 39.0449Z" fill="white"/>
<path d="M116.996 40.2251C116.996 40.2335 116.993 40.2418 116.988 40.2485C116.983 40.2552 116.972 40.2611 116.956 40.2653C116.94 40.2695 116.92 40.2728 116.894 40.2762C116.868 40.2787 116.838 40.2803 116.801 40.2803C116.756 40.2803 116.719 40.2787 116.69 40.2753C116.661 40.272 116.638 40.2678 116.62 40.2619C116.601 40.2561 116.587 40.2502 116.578 40.241C116.569 40.2326 116.563 40.2226 116.558 40.2125L116.204 39.5781C116.163 39.4961 116.116 39.4258 116.064 39.3664C116.011 39.3069 115.95 39.2592 115.882 39.2216C115.813 39.1839 115.735 39.1571 115.648 39.1395C115.561 39.122 115.461 39.1136 115.349 39.1136H115.078V40.231C115.078 40.2377 115.073 40.2444 115.064 40.2502C115.055 40.2561 115.041 40.2611 115.022 40.2661C115.004 40.2711 114.982 40.2736 114.957 40.277C114.932 40.2803 114.903 40.2812 114.871 40.2812C114.839 40.2812 114.811 40.2795 114.785 40.277C114.76 40.2745 114.739 40.2711 114.722 40.2661C114.704 40.2619 114.691 40.2569 114.682 40.2502C114.673 40.2444 114.668 40.2377 114.668 40.231V37.8288C114.668 37.8221 114.672 37.8154 114.682 37.8096C114.691 37.8037 114.704 37.7987 114.722 37.7953C114.739 37.792 114.76 37.7886 114.785 37.7861C114.81 37.7836 114.839 37.7819 114.871 37.7819C114.903 37.7819 114.932 37.7836 114.957 37.7861C114.983 37.7886 115.004 37.792 115.022 37.7953C115.041 37.7987 115.055 37.8037 115.064 37.8096C115.073 37.8154 115.078 37.8221 115.078 37.8288V38.855H115.349C115.447 38.855 115.536 38.8466 115.617 38.8299C115.697 38.8131 115.769 38.7872 115.835 38.7512C115.9 38.7152 115.959 38.67 116.01 38.6139C116.061 38.5578 116.106 38.4917 116.145 38.4155L116.451 37.8539C116.455 37.8414 116.463 37.8305 116.472 37.8213C116.481 37.8121 116.493 37.8037 116.51 37.7979C116.525 37.792 116.548 37.7878 116.575 37.7845C116.602 37.7819 116.638 37.7803 116.682 37.7803C116.72 37.7803 116.753 37.7819 116.777 37.7845C116.802 37.787 116.822 37.7903 116.836 37.7945C116.85 37.7987 116.859 37.8045 116.863 37.8104C116.867 37.8163 116.87 37.8238 116.87 37.833C116.87 37.8472 116.867 37.8606 116.863 37.8732C116.858 37.8866 116.853 37.8991 116.846 37.9108L116.526 38.4666C116.481 38.5536 116.43 38.6265 116.377 38.6842C116.323 38.7428 116.268 38.7905 116.214 38.8282C116.159 38.8658 116.103 38.8943 116.047 38.9152C115.991 38.9361 115.936 38.9529 115.884 38.9646V38.9696C115.967 38.9889 116.044 39.014 116.115 39.045C116.186 39.0759 116.251 39.1144 116.311 39.1588C116.37 39.2031 116.425 39.255 116.476 39.3145C116.526 39.3739 116.571 39.44 116.61 39.5128L116.974 40.1473C116.978 40.1556 116.982 40.164 116.986 40.1707C116.99 40.1774 116.992 40.1849 116.993 40.1916C116.994 40.1983 116.996 40.205 116.996 40.21C116.996 40.2176 116.996 40.2218 116.996 40.2251Z" fill="white"/>
<path d="M122.027 38.9096C122.027 38.9724 122.006 39.0151 121.962 39.0385C121.918 39.062 121.876 39.0737 121.835 39.0737H119.715C119.715 39.2202 119.734 39.3524 119.772 39.4704C119.81 39.5884 119.872 39.6905 119.96 39.7742C120.047 39.8588 120.16 39.9232 120.3 39.9684C120.44 40.0136 120.612 40.0362 120.816 40.0362C120.961 40.0362 121.089 40.027 121.204 40.0078C121.318 39.9885 121.417 39.9676 121.502 39.9441C121.585 39.9207 121.654 39.8989 121.707 39.8805C121.761 39.8613 121.8 39.8521 121.822 39.8521C121.836 39.8521 121.849 39.8546 121.86 39.8596C121.872 39.8646 121.881 39.873 121.888 39.8847C121.894 39.8956 121.899 39.9107 121.903 39.9274C121.907 39.9441 121.908 39.9667 121.908 39.9927C121.908 40.0052 121.907 40.017 121.905 40.0278C121.902 40.0396 121.9 40.0496 121.897 40.0596C121.893 40.0689 121.888 40.0781 121.881 40.0873C121.874 40.0956 121.865 40.1048 121.854 40.1132C121.842 40.1216 121.807 40.1375 121.747 40.1592C121.688 40.181 121.61 40.2028 121.513 40.2245C121.417 40.2463 121.305 40.2655 121.179 40.2831C121.051 40.3007 120.915 40.3091 120.768 40.3091C120.528 40.3091 120.314 40.2814 120.129 40.227C119.944 40.1718 119.788 40.0915 119.663 39.9843C119.537 39.8772 119.441 39.7449 119.376 39.5859C119.311 39.4277 119.278 39.2436 119.278 39.0352C119.278 38.8351 119.312 38.656 119.38 38.497C119.448 38.3388 119.544 38.2041 119.67 38.0936C119.796 37.9831 119.948 37.8986 120.125 37.84C120.303 37.7814 120.5 37.7529 120.718 37.7529C120.951 37.7529 121.151 37.7822 121.315 37.8417C121.48 37.9011 121.616 37.9806 121.722 38.0802C121.829 38.1806 121.907 38.2961 121.956 38.4292C122.005 38.5615 122.03 38.7004 122.03 38.8469V38.9096H122.027ZM121.605 38.8184C121.612 38.5673 121.536 38.3723 121.379 38.2308C121.221 38.0894 120.99 38.0191 120.688 38.0191C120.533 38.0191 120.395 38.0409 120.277 38.0852C120.159 38.1296 120.06 38.1882 119.978 38.2618C119.897 38.3346 119.834 38.42 119.791 38.5163C119.747 38.6125 119.722 38.7129 119.715 38.8176H121.605V38.8184Z" fill="white"/>
<path d="M126.77 37.9404C126.77 37.9613 126.768 37.9806 126.764 37.9982C126.759 38.0157 126.752 38.03 126.743 38.0425C126.734 38.0551 126.723 38.0643 126.711 38.071C126.698 38.0777 126.684 38.0819 126.668 38.0819H125.655V40.212C125.655 40.2229 125.652 40.2321 125.644 40.2404C125.637 40.2488 125.627 40.2563 125.612 40.2614C125.597 40.2664 125.576 40.2706 125.55 40.2748C125.524 40.2781 125.49 40.2798 125.448 40.2798C125.41 40.2798 125.376 40.2781 125.351 40.2748C125.324 40.2714 125.303 40.2672 125.287 40.2614C125.272 40.2563 125.26 40.2496 125.255 40.2404C125.249 40.2321 125.247 40.222 125.247 40.212V38.0819H124.234C124.218 38.0819 124.203 38.0785 124.191 38.071C124.178 38.0643 124.168 38.0542 124.159 38.0425C124.15 38.03 124.143 38.0157 124.138 37.9982C124.133 37.9806 124.131 37.9613 124.131 37.9404C124.131 37.9195 124.134 37.9002 124.138 37.8818C124.143 37.8634 124.15 37.8475 124.159 37.835C124.168 37.8216 124.178 37.8115 124.191 37.8048C124.203 37.7981 124.218 37.7939 124.234 37.7939H126.669C126.684 37.7939 126.699 37.7973 126.712 37.8048C126.724 37.8115 126.735 37.8216 126.744 37.835C126.753 37.8483 126.76 37.8634 126.765 37.8818C126.768 37.9002 126.77 37.9195 126.77 37.9404Z" fill="white"/>
<path d="M131.701 40.212C131.701 40.2229 131.698 40.2321 131.69 40.2404C131.683 40.2488 131.673 40.2563 131.658 40.2614C131.643 40.2664 131.622 40.2706 131.596 40.2748C131.57 40.2781 131.536 40.2798 131.494 40.2798C131.455 40.2798 131.422 40.2781 131.397 40.2748C131.37 40.2714 131.349 40.2672 131.333 40.2614C131.318 40.2563 131.306 40.2496 131.301 40.2404C131.295 40.2321 131.293 40.222 131.293 40.212V38.6895C131.293 38.6234 131.294 38.5573 131.298 38.4911C131.301 38.425 131.305 38.3589 131.31 38.2928C131.257 38.3606 131.2 38.4275 131.138 38.4928C131.076 38.5581 131.013 38.6242 130.949 38.6903L129.486 40.2128C129.474 40.2254 129.463 40.2354 129.454 40.2446C129.444 40.2538 129.43 40.2605 129.416 40.2656C129.401 40.2706 129.382 40.2748 129.363 40.2773C129.343 40.2798 129.316 40.2815 129.283 40.2815C129.251 40.2815 129.225 40.2798 129.202 40.2764C129.181 40.2731 129.163 40.2689 129.149 40.263C129.136 40.2572 129.126 40.2513 129.121 40.2421C129.115 40.2329 129.112 40.2237 129.112 40.2137V37.8509C129.112 37.84 129.115 37.8308 129.121 37.8224C129.126 37.814 129.137 37.8065 129.153 37.7998C129.168 37.7939 129.19 37.7898 129.216 37.7864C129.243 37.7839 129.275 37.7822 129.314 37.7822C129.394 37.7822 129.449 37.7881 129.477 37.799C129.506 37.8107 129.52 37.8274 129.52 37.85V39.3876C129.52 39.452 129.518 39.5156 129.515 39.5784C129.511 39.6412 129.506 39.7039 129.499 39.7667C129.552 39.7039 129.604 39.642 129.655 39.5817C129.706 39.5206 129.763 39.4595 129.825 39.3993L131.309 37.8509C131.321 37.8383 131.332 37.8283 131.344 37.8199C131.356 37.8115 131.37 37.804 131.387 37.799C131.404 37.7939 131.423 37.7898 131.446 37.7872C131.467 37.7847 131.495 37.7831 131.53 37.7831C131.562 37.7831 131.589 37.7847 131.611 37.7872C131.632 37.7898 131.65 37.7939 131.664 37.8006C131.678 37.8065 131.687 37.814 131.693 37.8232C131.698 37.8316 131.701 37.8417 131.701 37.8517V40.212V40.212Z" fill="white"/>
<path d="M137.151 40.2117C137.151 40.2226 137.147 40.2318 137.14 40.2402C137.133 40.2485 137.123 40.2561 137.108 40.2611C137.093 40.2661 137.072 40.2703 137.046 40.2745C137.019 40.2778 136.987 40.2795 136.948 40.2795C136.907 40.2795 136.873 40.2778 136.847 40.2745C136.82 40.2711 136.8 40.2669 136.785 40.2611C136.77 40.2561 136.759 40.2494 136.752 40.2402C136.744 40.231 136.742 40.2218 136.742 40.2117V39.1178H134.987V40.2117C134.987 40.2226 134.983 40.2318 134.976 40.2402C134.969 40.2485 134.959 40.2561 134.944 40.2611C134.929 40.2661 134.908 40.2703 134.882 40.2745C134.855 40.2778 134.822 40.2795 134.78 40.2795C134.741 40.2795 134.708 40.2778 134.683 40.2745C134.656 40.2711 134.635 40.2669 134.619 40.2611C134.603 40.2561 134.592 40.2494 134.587 40.2402C134.582 40.231 134.579 40.2218 134.579 40.2117V37.8489C134.579 37.838 134.581 37.8288 134.587 37.8205C134.593 37.8121 134.603 37.8045 134.619 37.7979C134.635 37.792 134.656 37.7878 134.683 37.7845C134.709 37.7819 134.741 37.7803 134.78 37.7803C134.822 37.7803 134.855 37.7819 134.882 37.7845C134.908 37.787 134.929 37.7912 134.944 37.7979C134.959 37.8037 134.969 37.8112 134.976 37.8205C134.983 37.8288 134.987 37.8389 134.987 37.8489V38.8516H136.742V37.8489C136.742 37.838 136.745 37.8288 136.752 37.8205C136.758 37.8121 136.769 37.8045 136.785 37.7979C136.8 37.792 136.82 37.7878 136.847 37.7845C136.873 37.7819 136.907 37.7803 136.948 37.7803C136.987 37.7803 137.02 37.7819 137.046 37.7845C137.072 37.787 137.093 37.7912 137.108 37.7979C137.123 37.8037 137.133 37.8112 137.14 37.8205C137.147 37.8288 137.151 37.8389 137.151 37.8489V40.2117Z" fill="white"/>
<path d="M141.79 37.9355C141.79 37.9581 141.788 37.9782 141.783 37.9958C141.779 38.0134 141.772 38.0276 141.763 38.0402C141.754 38.0527 141.743 38.0611 141.732 38.0678C141.721 38.0736 141.707 38.077 141.691 38.077H140.437V40.213C140.437 40.2238 140.434 40.2331 140.427 40.2414C140.419 40.2498 140.409 40.2573 140.394 40.2623C140.38 40.2674 140.359 40.2716 140.333 40.2757C140.306 40.2791 140.272 40.2808 140.231 40.2808C140.192 40.2808 140.159 40.2791 140.133 40.2757C140.107 40.2724 140.085 40.2682 140.07 40.2623C140.054 40.2573 140.043 40.2506 140.038 40.2414C140.033 40.2322 140.029 40.223 140.029 40.213V37.918C140.029 37.8761 140.043 37.8451 140.071 37.8251C140.098 37.805 140.131 37.7949 140.171 37.7949H141.693C141.708 37.7949 141.722 37.7983 141.734 37.8058C141.745 37.8125 141.755 37.8225 141.764 37.8343C141.774 37.8468 141.78 37.861 141.785 37.8786C141.79 37.8962 141.79 37.9146 141.79 37.9355Z" fill="white"/>
<path d="M146.131 40.212C146.131 40.2295 146.123 40.2429 146.109 40.2521C146.094 40.2614 146.074 40.2689 146.05 40.2731C146.026 40.2773 145.993 40.2798 145.952 40.2798C145.913 40.2798 145.88 40.2773 145.852 40.2731C145.824 40.2689 145.803 40.2622 145.788 40.2521C145.773 40.2429 145.766 40.2287 145.766 40.212V39.9483C145.626 40.063 145.472 40.1517 145.304 40.2145C145.135 40.2773 144.961 40.3082 144.78 40.3082C144.617 40.3082 144.472 40.2923 144.342 40.2597C144.212 40.2279 144.103 40.181 144.014 40.1216C143.925 40.0613 143.856 39.9893 143.808 39.904C143.76 39.8186 143.736 39.7232 143.736 39.6169C143.736 39.4863 143.772 39.3725 143.843 39.2762C143.914 39.18 144.015 39.0988 144.145 39.0343C144.276 38.9699 144.433 38.9214 144.616 38.8895C144.8 38.8577 145.003 38.841 145.228 38.841H145.723V38.6376C145.723 38.5363 145.709 38.4476 145.681 38.3698C145.654 38.2919 145.609 38.2275 145.547 38.1756C145.486 38.1237 145.405 38.0844 145.307 38.0584C145.209 38.0325 145.088 38.0191 144.946 38.0191C144.809 38.0191 144.685 38.0316 144.575 38.0568C144.465 38.0819 144.369 38.1103 144.287 38.1413C144.204 38.1723 144.136 38.2007 144.083 38.2258C144.029 38.2509 143.99 38.2635 143.968 38.2635C143.954 38.2635 143.941 38.2618 143.93 38.2585C143.918 38.2551 143.908 38.2484 143.901 38.2392C143.892 38.23 143.887 38.2175 143.883 38.2024C143.88 38.1873 143.878 38.1697 143.878 38.1488C143.878 38.112 143.882 38.0827 143.889 38.0618C143.897 38.0409 143.914 38.0183 143.942 37.9965C143.971 37.9747 144.021 37.9488 144.095 37.9195C144.168 37.8902 144.253 37.8626 144.347 37.8375C144.442 37.8124 144.544 37.7914 144.654 37.7764C144.764 37.7605 144.874 37.7529 144.984 37.7529C145.197 37.7529 145.376 37.7722 145.524 37.8115C145.67 37.8509 145.789 37.9069 145.879 37.9798C145.969 38.0526 146.034 38.143 146.073 38.2501C146.112 38.3572 146.132 38.4786 146.132 38.6142V40.212H146.131ZM145.722 39.0971H145.155C144.99 39.0971 144.846 39.1088 144.722 39.1314C144.598 39.154 144.496 39.1875 144.413 39.231C144.33 39.2746 144.269 39.3265 144.23 39.3876C144.189 39.4487 144.169 39.5181 144.169 39.5968C144.169 39.7324 144.226 39.8412 144.339 39.9215C144.453 40.0027 144.612 40.0429 144.819 40.0429C144.981 40.0429 145.133 40.0111 145.274 39.9475C145.415 39.8839 145.564 39.786 145.722 39.6537V39.0971V39.0971Z" fill="white"/>
</svg>
