<svg width="177" height="177" viewBox="0 0 177 177" fill="none" xmlns="http://www.w3.org/2000/svg">
<g filter="url(#filter0_f)">
<circle cx="88.5" cy="88.5" r="84.5" fill="url(#paint0_linear)"/>
</g>
<path d="M71.5538 47.9V57H60.1528V47.9H61.4398V55.869H65.2228V47.9H66.4968V55.869H70.2798V47.9H71.5538ZM79.3113 51.202H76.7893V57H75.5413V51.202H73.0193V50.11H79.3113V51.202ZM83.0444 50.045C83.9978 50.045 84.7258 50.279 85.2284 50.747C85.7398 51.215 85.9954 51.9127 85.9954 52.84V57H84.8124V56.09C84.6044 56.4107 84.3054 56.6577 83.9154 56.831C83.5341 56.9957 83.0791 57.078 82.5504 57.078C81.7791 57.078 81.1594 56.8917 80.6914 56.519C80.2321 56.1463 80.0024 55.6567 80.0024 55.05C80.0024 54.4433 80.2234 53.958 80.6654 53.594C81.1074 53.2213 81.8094 53.035 82.7714 53.035H84.7474V52.788C84.7474 52.2507 84.5914 51.839 84.2794 51.553C83.9674 51.267 83.5081 51.124 82.9014 51.124C82.4941 51.124 82.0954 51.1933 81.7054 51.332C81.3154 51.462 80.9861 51.6397 80.7174 51.865L80.1974 50.929C80.5528 50.643 80.9774 50.4263 81.4714 50.279C81.9654 50.123 82.4898 50.045 83.0444 50.045ZM82.7584 56.116C83.2351 56.116 83.6468 56.012 83.9934 55.804C84.3401 55.5873 84.5914 55.284 84.7474 54.894V53.932H82.8234C81.7661 53.932 81.2374 54.2873 81.2374 54.998C81.2374 55.3447 81.3718 55.6177 81.6404 55.817C81.9091 56.0163 82.2818 56.116 82.7584 56.116ZM96.1857 50.11V57H95.0547V51.969L92.4807 56.22H91.9347L89.3867 51.956V57H88.2427V50.11H89.5297L92.2337 54.764L95.0157 50.11H96.1857ZM106.558 50.11V57H105.427V51.969L102.853 56.22H102.307L99.7588 51.956V57H98.6148V50.11H99.9018L102.606 54.764L105.388 50.11H106.558ZM112.094 52.45C112.96 52.4587 113.623 52.658 114.083 53.048C114.542 53.438 114.772 53.9883 114.772 54.699C114.772 55.4443 114.52 56.0207 114.018 56.428C113.524 56.8267 112.813 57.0217 111.886 57.013L108.987 57V50.11H110.235V52.437L112.094 52.45ZM115.799 50.11H117.047V57H115.799V50.11ZM111.795 56.064C112.358 56.0727 112.783 55.96 113.069 55.726C113.363 55.492 113.511 55.1453 113.511 54.686C113.511 54.2353 113.368 53.906 113.082 53.698C112.796 53.49 112.367 53.3817 111.795 53.373L110.235 53.347V56.051L111.795 56.064ZM37.2106 66.045C37.878 66.045 38.476 66.1923 39.0046 66.487C39.5333 66.7817 39.945 67.1933 40.2396 67.722C40.543 68.2507 40.6946 68.8617 40.6946 69.555C40.6946 70.2483 40.543 70.8637 40.2396 71.401C39.945 71.9297 39.5333 72.3413 39.0046 72.636C38.476 72.9307 37.878 73.078 37.2106 73.078C36.7166 73.078 36.2616 72.9827 35.8456 72.792C35.4383 72.6013 35.0916 72.324 34.8056 71.96V75.522H33.5576V66.11H34.7536V67.202C35.031 66.8207 35.382 66.5347 35.8066 66.344C36.2313 66.1447 36.6993 66.045 37.2106 66.045ZM37.1066 71.986C37.5486 71.986 37.943 71.8863 38.2896 71.687C38.645 71.479 38.9223 71.193 39.1216 70.829C39.3296 70.4563 39.4336 70.0317 39.4336 69.555C39.4336 69.0783 39.3296 68.658 39.1216 68.294C38.9223 67.9213 38.645 67.6353 38.2896 67.436C37.943 67.2367 37.5486 67.137 37.1066 67.137C36.6733 67.137 36.279 67.241 35.9236 67.449C35.577 67.6483 35.2996 67.93 35.0916 68.294C34.8923 68.658 34.7926 69.0783 34.7926 69.555C34.7926 70.0317 34.8923 70.4563 35.0916 70.829C35.291 71.193 35.5683 71.479 35.9236 71.687C36.279 71.8863 36.6733 71.986 37.1066 71.986ZM48.7348 69.594C48.7348 69.6893 48.7262 69.815 48.7088 69.971H43.1188C43.1968 70.5777 43.4612 71.0673 43.9118 71.44C44.3712 71.804 44.9388 71.986 45.6148 71.986C46.4382 71.986 47.1012 71.7087 47.6038 71.154L48.2928 71.96C47.9808 72.324 47.5908 72.6013 47.1228 72.792C46.6635 72.9827 46.1478 73.078 45.5758 73.078C44.8478 73.078 44.2022 72.9307 43.6388 72.636C43.0755 72.3327 42.6378 71.9123 42.3258 71.375C42.0225 70.8377 41.8708 70.231 41.8708 69.555C41.8708 68.8877 42.0182 68.2853 42.3128 67.748C42.6162 67.2107 43.0278 66.7947 43.5478 66.5C44.0765 66.1967 44.6702 66.045 45.3288 66.045C45.9875 66.045 46.5725 66.1967 47.0838 66.5C47.6038 66.7947 48.0068 67.2107 48.2928 67.748C48.5875 68.2853 48.7348 68.9007 48.7348 69.594ZM45.3288 67.098C44.7308 67.098 44.2282 67.28 43.8208 67.644C43.4222 68.008 43.1882 68.4847 43.1188 69.074H47.5388C47.4695 68.4933 47.2312 68.021 46.8238 67.657C46.4252 67.2843 45.9268 67.098 45.3288 67.098ZM53.3489 70.088H51.9189V73H50.6709V66.11H51.9189V69.022H53.3749L55.6109 66.11H56.9499L54.3369 69.425L57.1319 73H55.6629L53.3489 70.088ZM61.1629 73.078C60.4783 73.078 59.8629 72.9263 59.3169 72.623C58.7709 72.3197 58.3419 71.9037 58.0299 71.375C57.7266 70.8377 57.5749 70.231 57.5749 69.555C57.5749 68.879 57.7266 68.2767 58.0299 67.748C58.3419 67.2107 58.7709 66.7947 59.3169 66.5C59.8629 66.1967 60.4783 66.045 61.1629 66.045C61.8476 66.045 62.4586 66.1967 62.9959 66.5C63.5419 66.7947 63.9666 67.2107 64.2699 67.748C64.5819 68.2767 64.7379 68.879 64.7379 69.555C64.7379 70.231 64.5819 70.8377 64.2699 71.375C63.9666 71.9037 63.5419 72.3197 62.9959 72.623C62.4586 72.9263 61.8476 73.078 61.1629 73.078ZM61.1629 71.986C61.6049 71.986 61.9993 71.8863 62.3459 71.687C62.7013 71.479 62.9786 71.193 63.1779 70.829C63.3773 70.4563 63.4769 70.0317 63.4769 69.555C63.4769 69.0783 63.3773 68.658 63.1779 68.294C62.9786 67.9213 62.7013 67.6353 62.3459 67.436C61.9993 67.2367 61.6049 67.137 61.1629 67.137C60.7209 67.137 60.3223 67.2367 59.9669 67.436C59.6203 67.6353 59.3429 67.9213 59.1349 68.294C58.9356 68.658 58.8359 69.0783 58.8359 69.555C58.8359 70.0317 58.9356 70.4563 59.1349 70.829C59.3429 71.193 59.6203 71.479 59.9669 71.687C60.3223 71.8863 60.7209 71.986 61.1629 71.986ZM74.4831 66.11V73H73.3521V67.969L70.7781 72.22H70.2321L67.6841 67.956V73H66.5401V66.11H67.8271L70.5311 70.764L73.3131 66.11H74.4831ZM83.1391 69.594C83.1391 69.6893 83.1305 69.815 83.1131 69.971H77.5231C77.6011 70.5777 77.8655 71.0673 78.3161 71.44C78.7755 71.804 79.3431 71.986 80.0191 71.986C80.8425 71.986 81.5055 71.7087 82.0081 71.154L82.6971 71.96C82.3851 72.324 81.9951 72.6013 81.5271 72.792C81.0678 72.9827 80.5521 73.078 79.9801 73.078C79.2521 73.078 78.6065 72.9307 78.0431 72.636C77.4798 72.3327 77.0421 71.9123 76.7301 71.375C76.4268 70.8377 76.2751 70.231 76.2751 69.555C76.2751 68.8877 76.4225 68.2853 76.7171 67.748C77.0205 67.2107 77.4321 66.7947 77.9521 66.5C78.4808 66.1967 79.0745 66.045 79.7331 66.045C80.3918 66.045 80.9768 66.1967 81.4881 66.5C82.0081 66.7947 82.4111 67.2107 82.6971 67.748C82.9918 68.2853 83.1391 68.9007 83.1391 69.594ZM79.7331 67.098C79.1351 67.098 78.6325 67.28 78.2251 67.644C77.8265 68.008 77.5925 68.4847 77.5231 69.074H81.9431C81.8738 68.4933 81.6355 68.021 81.2281 67.657C80.8295 67.2843 80.3311 67.098 79.7331 67.098ZM85.0752 66.11H86.3232V69.035H90.2492V66.11H91.4972V73H90.2492V70.114H86.3232V73H85.0752V66.11ZM100.931 71.908V74.599H99.7608V73H94.0018V74.599H92.8188V71.908H93.1828C93.6248 71.882 93.9282 71.57 94.0928 70.972C94.2575 70.374 94.3702 69.529 94.4308 68.437L94.5348 66.11H99.8778V71.908H100.931ZM95.5748 68.528C95.5402 69.3947 95.4665 70.114 95.3538 70.686C95.2498 71.2493 95.0548 71.6567 94.7688 71.908H98.6298V67.202H95.6398L95.5748 68.528ZM105.508 73.078C104.823 73.078 104.208 72.9263 103.662 72.623C103.116 72.3197 102.687 71.9037 102.375 71.375C102.071 70.8377 101.92 70.231 101.92 69.555C101.92 68.879 102.071 68.2767 102.375 67.748C102.687 67.2107 103.116 66.7947 103.662 66.5C104.208 66.1967 104.823 66.045 105.508 66.045C106.192 66.045 106.803 66.1967 107.341 66.5C107.887 66.7947 108.311 67.2107 108.615 67.748C108.927 68.2767 109.083 68.879 109.083 69.555C109.083 70.231 108.927 70.8377 108.615 71.375C108.311 71.9037 107.887 72.3197 107.341 72.623C106.803 72.9263 106.192 73.078 105.508 73.078ZM105.508 71.986C105.95 71.986 106.344 71.8863 106.691 71.687C107.046 71.479 107.323 71.193 107.523 70.829C107.722 70.4563 107.822 70.0317 107.822 69.555C107.822 69.0783 107.722 68.658 107.523 68.294C107.323 67.9213 107.046 67.6353 106.691 67.436C106.344 67.2367 105.95 67.137 105.508 67.137C105.066 67.137 104.667 67.2367 104.312 67.436C103.965 67.6353 103.688 67.9213 103.48 68.294C103.28 68.658 103.181 69.0783 103.181 69.555C103.181 70.0317 103.28 70.4563 103.48 70.829C103.688 71.193 103.965 71.479 104.312 71.687C104.667 71.8863 105.066 71.986 105.508 71.986ZM115.578 69.425C116.47 69.6503 116.917 70.2093 116.917 71.102C116.917 71.7087 116.687 72.1767 116.228 72.506C115.777 72.8353 115.101 73 114.2 73H110.885V66.11H114.083C114.897 66.11 115.534 66.266 115.994 66.578C116.453 66.8813 116.683 67.3147 116.683 67.878C116.683 68.242 116.583 68.5583 116.384 68.827C116.193 69.087 115.924 69.2863 115.578 69.425ZM112.107 69.074H113.979C114.455 69.074 114.815 68.9873 115.058 68.814C115.309 68.6407 115.435 68.3893 115.435 68.06C115.435 67.4013 114.949 67.072 113.979 67.072H112.107V69.074ZM114.109 72.038C114.629 72.038 115.019 71.9557 115.279 71.791C115.539 71.6263 115.669 71.3707 115.669 71.024C115.669 70.6687 115.547 70.4043 115.305 70.231C115.071 70.0577 114.698 69.971 114.187 69.971H112.107V72.038H114.109ZM121.327 66.045C122.28 66.045 123.008 66.279 123.511 66.747C124.022 67.215 124.278 67.9127 124.278 68.84V73H123.095V72.09C122.887 72.4107 122.588 72.6577 122.198 72.831C121.817 72.9957 121.362 73.078 120.833 73.078C120.062 73.078 119.442 72.8917 118.974 72.519C118.515 72.1463 118.285 71.6567 118.285 71.05C118.285 70.4433 118.506 69.958 118.948 69.594C119.39 69.2213 120.092 69.035 121.054 69.035H123.03V68.788C123.03 68.2507 122.874 67.839 122.562 67.553C122.25 67.267 121.791 67.124 121.184 67.124C120.777 67.124 120.378 67.1933 119.988 67.332C119.598 67.462 119.269 67.6397 119 67.865L118.48 66.929C118.835 66.643 119.26 66.4263 119.754 66.279C120.248 66.123 120.772 66.045 121.327 66.045ZM121.041 72.116C121.518 72.116 121.929 72.012 122.276 71.804C122.623 71.5873 122.874 71.284 123.03 70.894V69.932H121.106C120.049 69.932 119.52 70.2873 119.52 70.998C119.52 71.3447 119.654 71.6177 119.923 71.817C120.192 72.0163 120.564 72.116 121.041 72.116ZM126.525 66.11H127.773V69.035H131.699V66.11H132.947V73H131.699V70.114H127.773V73H126.525V66.11ZM138.481 68.45C139.348 68.4587 140.011 68.658 140.47 69.048C140.929 69.438 141.159 69.9883 141.159 70.699C141.159 71.4443 140.908 72.0207 140.405 72.428C139.911 72.8267 139.2 73.0217 138.273 73.013L135.374 73V66.11H136.622V68.437L138.481 68.45ZM142.186 66.11H143.434V73H142.186V66.11ZM138.182 72.064C138.745 72.0727 139.17 71.96 139.456 71.726C139.751 71.492 139.898 71.1453 139.898 70.686C139.898 70.2353 139.755 69.906 139.469 69.698C139.183 69.49 138.754 69.3817 138.182 69.373L136.622 69.347V72.051L138.182 72.064ZM20.5686 83.202H16.7466V89H15.4986V82.11H20.5686V83.202ZM24.3032 82.045C25.2565 82.045 25.9845 82.279 26.4872 82.747C26.9985 83.215 27.2542 83.9127 27.2542 84.84V89H26.0712V88.09C25.8632 88.4107 25.5642 88.6577 25.1742 88.831C24.7929 88.9957 24.3379 89.078 23.8092 89.078C23.0379 89.078 22.4182 88.8917 21.9502 88.519C21.4909 88.1463 21.2612 87.6567 21.2612 87.05C21.2612 86.4433 21.4822 85.958 21.9242 85.594C22.3662 85.2213 23.0682 85.035 24.0302 85.035H26.0062V84.788C26.0062 84.2507 25.8502 83.839 25.5382 83.553C25.2262 83.267 24.7669 83.124 24.1602 83.124C23.7529 83.124 23.3542 83.1933 22.9642 83.332C22.5742 83.462 22.2449 83.6397 21.9762 83.865L21.4562 82.929C21.8115 82.643 22.2362 82.4263 22.7302 82.279C23.2242 82.123 23.7485 82.045 24.3032 82.045ZM24.0172 88.116C24.4939 88.116 24.9055 88.012 25.2522 87.804C25.5989 87.5873 25.8502 87.284 26.0062 86.894V85.932H24.0822C23.0249 85.932 22.4962 86.2873 22.4962 86.998C22.4962 87.3447 22.6305 87.6177 22.8992 87.817C23.1679 88.0163 23.5405 88.116 24.0172 88.116ZM32.5045 89.078C31.8025 89.078 31.1741 88.9263 30.6195 88.623C30.0735 88.3197 29.6445 87.9037 29.3325 87.375C29.0205 86.8377 28.8645 86.231 28.8645 85.555C28.8645 84.879 29.0205 84.2767 29.3325 83.748C29.6445 83.2107 30.0735 82.7947 30.6195 82.5C31.1741 82.1967 31.8025 82.045 32.5045 82.045C33.1285 82.045 33.6831 82.1707 34.1685 82.422C34.6625 82.6733 35.0438 83.0373 35.3125 83.514L34.3635 84.125C34.1468 83.7957 33.8781 83.5487 33.5575 83.384C33.2368 83.2193 32.8815 83.137 32.4915 83.137C32.0408 83.137 31.6335 83.2367 31.2695 83.436C30.9141 83.6353 30.6325 83.9213 30.4245 84.294C30.2251 84.658 30.1255 85.0783 30.1255 85.555C30.1255 86.0403 30.2251 86.4693 30.4245 86.842C30.6325 87.206 30.9141 87.4877 31.2695 87.687C31.6335 87.8863 32.0408 87.986 32.4915 87.986C32.8815 87.986 33.2368 87.9037 33.5575 87.739C33.8781 87.5743 34.1468 87.3273 34.3635 86.998L35.3125 87.596C35.0438 88.0727 34.6625 88.441 34.1685 88.701C33.6831 88.9523 33.1285 89.078 32.5045 89.078ZM41.9744 83.202H39.4524V89H38.2044V83.202H35.6824V82.11H41.9744V83.202ZM46.9035 82.045C47.5708 82.045 48.1688 82.1923 48.6975 82.487C49.2262 82.7817 49.6378 83.1933 49.9325 83.722C50.2358 84.2507 50.3875 84.8617 50.3875 85.555C50.3875 86.2483 50.2358 86.8637 49.9325 87.401C49.6378 87.9297 49.2262 88.3413 48.6975 88.636C48.1688 88.9307 47.5708 89.078 46.9035 89.078C46.4095 89.078 45.9545 88.9827 45.5385 88.792C45.1312 88.6013 44.7845 88.324 44.4985 87.96V91.522H43.2505V82.11H44.4465V83.202C44.7238 82.8207 45.0748 82.5347 45.4995 82.344C45.9242 82.1447 46.3922 82.045 46.9035 82.045ZM46.7995 87.986C47.2415 87.986 47.6358 87.8863 47.9825 87.687C48.3378 87.479 48.6152 87.193 48.8145 86.829C49.0225 86.4563 49.1265 86.0317 49.1265 85.555C49.1265 85.0783 49.0225 84.658 48.8145 84.294C48.6152 83.9213 48.3378 83.6353 47.9825 83.436C47.6358 83.2367 47.2415 83.137 46.7995 83.137C46.3662 83.137 45.9718 83.241 45.6165 83.449C45.2698 83.6483 44.9925 83.93 44.7845 84.294C44.5852 84.658 44.4855 85.0783 44.4855 85.555C44.4855 86.0317 44.5852 86.4563 44.7845 86.829C44.9838 87.193 45.2612 87.479 45.6165 87.687C45.9718 87.8863 46.3662 87.986 46.7995 87.986ZM55.1517 89.078C54.467 89.078 53.8517 88.9263 53.3057 88.623C52.7597 88.3197 52.3307 87.9037 52.0187 87.375C51.7154 86.8377 51.5637 86.231 51.5637 85.555C51.5637 84.879 51.7154 84.2767 52.0187 83.748C52.3307 83.2107 52.7597 82.7947 53.3057 82.5C53.8517 82.1967 54.467 82.045 55.1517 82.045C55.8364 82.045 56.4474 82.1967 56.9847 82.5C57.5307 82.7947 57.9554 83.2107 58.2587 83.748C58.5707 84.2767 58.7267 84.879 58.7267 85.555C58.7267 86.231 58.5707 86.8377 58.2587 87.375C57.9554 87.9037 57.5307 88.3197 56.9847 88.623C56.4474 88.9263 55.8364 89.078 55.1517 89.078ZM55.1517 87.986C55.5937 87.986 55.988 87.8863 56.3347 87.687C56.69 87.479 56.9674 87.193 57.1667 86.829C57.366 86.4563 57.4657 86.0317 57.4657 85.555C57.4657 85.0783 57.366 84.658 57.1667 84.294C56.9674 83.9213 56.69 83.6353 56.3347 83.436C55.988 83.2367 55.5937 83.137 55.1517 83.137C54.7097 83.137 54.311 83.2367 53.9557 83.436C53.609 83.6353 53.3317 83.9213 53.1237 84.294C52.9244 84.658 52.8247 85.0783 52.8247 85.555C52.8247 86.0317 52.9244 86.4563 53.1237 86.829C53.3317 87.193 53.609 87.479 53.9557 87.687C54.311 87.8863 54.7097 87.986 55.1517 87.986ZM62.4417 82.032C63.1437 82.032 63.7763 82.1837 64.3397 82.487C64.9117 82.7903 65.358 83.2107 65.6787 83.748C65.9993 84.2853 66.1597 84.8877 66.1597 85.555C66.1597 86.231 65.9993 86.8377 65.6787 87.375C65.358 87.9123 64.9117 88.3327 64.3397 88.636C63.7763 88.9393 63.1437 89.091 62.4417 89.091C61.835 89.091 61.2847 88.9957 60.7907 88.805C60.3053 88.6143 59.8937 88.337 59.5557 87.973L60.2837 87.245C60.8383 87.791 61.5403 88.064 62.3897 88.064C63.0657 88.064 63.642 87.8733 64.1187 87.492C64.5953 87.102 64.8813 86.595 64.9767 85.971H61.5187V85.048H64.9507C64.838 84.45 64.5477 83.969 64.0797 83.605C63.6117 83.2323 63.0483 83.046 62.3897 83.046C61.549 83.046 60.847 83.3233 60.2837 83.878L59.5557 83.163C59.8937 82.7903 60.3097 82.5087 60.8037 82.318C61.2977 82.1273 61.8437 82.032 62.4417 82.032ZM67.9302 82.11H69.1782V85.035H73.1042V82.11H74.3522V89H73.1042V86.114H69.1782V89H67.9302V82.11ZM81.9138 83.202H79.3918V89H78.1438V83.202H75.6218V82.11H81.9138V83.202ZM89.1123 85.594C89.1123 85.6893 89.1036 85.815 89.0863 85.971H83.4963C83.5743 86.5777 83.8386 87.0673 84.2893 87.44C84.7486 87.804 85.3163 87.986 85.9923 87.986C86.8156 87.986 87.4786 87.7087 87.9813 87.154L88.6703 87.96C88.3583 88.324 87.9683 88.6013 87.5003 88.792C87.0409 88.9827 86.5253 89.078 85.9533 89.078C85.2253 89.078 84.5796 88.9307 84.0163 88.636C83.4529 88.3327 83.0153 87.9123 82.7033 87.375C82.3999 86.8377 82.2483 86.231 82.2483 85.555C82.2483 84.8877 82.3956 84.2853 82.6903 83.748C82.9936 83.2107 83.4053 82.7947 83.9253 82.5C84.4539 82.1967 85.0476 82.045 85.7063 82.045C86.3649 82.045 86.9499 82.1967 87.4613 82.5C87.9813 82.7947 88.3843 83.2107 88.6703 83.748C88.9649 84.2853 89.1123 84.9007 89.1123 85.594ZM85.7063 83.098C85.1083 83.098 84.6056 83.28 84.1983 83.644C83.7996 84.008 83.5656 84.4847 83.4963 85.074H87.9163C87.8469 84.4933 87.6086 84.021 87.2013 83.657C86.8026 83.2843 86.3043 83.098 85.7063 83.098ZM94.7014 82.045C95.3687 82.045 95.9667 82.1923 96.4954 82.487C97.024 82.7817 97.4357 83.1933 97.7304 83.722C98.0337 84.2507 98.1854 84.8617 98.1854 85.555C98.1854 86.2483 98.0337 86.8637 97.7304 87.401C97.4357 87.9297 97.024 88.3413 96.4954 88.636C95.9667 88.9307 95.3687 89.078 94.7014 89.078C94.2074 89.078 93.7524 88.9827 93.3364 88.792C92.929 88.6013 92.5824 88.324 92.2964 87.96V91.522H91.0484V82.11H92.2444V83.202C92.5217 82.8207 92.8727 82.5347 93.2974 82.344C93.722 82.1447 94.19 82.045 94.7014 82.045ZM94.5974 87.986C95.0394 87.986 95.4337 87.8863 95.7804 87.687C96.1357 87.479 96.413 87.193 96.6124 86.829C96.8204 86.4563 96.9244 86.0317 96.9244 85.555C96.9244 85.0783 96.8204 84.658 96.6124 84.294C96.413 83.9213 96.1357 83.6353 95.7804 83.436C95.4337 83.2367 95.0394 83.137 94.5974 83.137C94.164 83.137 93.7697 83.241 93.4144 83.449C93.0677 83.6483 92.7904 83.93 92.5824 84.294C92.383 84.658 92.2834 85.0783 92.2834 85.555C92.2834 86.0317 92.383 86.4563 92.5824 86.829C92.7817 87.193 93.059 87.479 93.4144 87.687C93.7697 87.8863 94.164 87.986 94.5974 87.986ZM102.95 89.078C102.265 89.078 101.65 88.9263 101.104 88.623C100.558 88.3197 100.129 87.9037 99.8166 87.375C99.5132 86.8377 99.3616 86.231 99.3616 85.555C99.3616 84.879 99.5132 84.2767 99.8166 83.748C100.129 83.2107 100.558 82.7947 101.104 82.5C101.65 82.1967 102.265 82.045 102.95 82.045C103.634 82.045 104.245 82.1967 104.783 82.5C105.329 82.7947 105.753 83.2107 106.057 83.748C106.369 84.2767 106.525 84.879 106.525 85.555C106.525 86.231 106.369 86.8377 106.057 87.375C105.753 87.9037 105.329 88.3197 104.783 88.623C104.245 88.9263 103.634 89.078 102.95 89.078ZM102.95 87.986C103.392 87.986 103.786 87.8863 104.133 87.687C104.488 87.479 104.765 87.193 104.965 86.829C105.164 86.4563 105.264 86.0317 105.264 85.555C105.264 85.0783 105.164 84.658 104.965 84.294C104.765 83.9213 104.488 83.6353 104.133 83.436C103.786 83.2367 103.392 83.137 102.95 83.137C102.508 83.137 102.109 83.2367 101.754 83.436C101.407 83.6353 101.13 83.9213 100.922 84.294C100.722 84.658 100.623 85.0783 100.623 85.555C100.623 86.0317 100.722 86.4563 100.922 86.829C101.13 87.193 101.407 87.479 101.754 87.687C102.109 87.8863 102.508 87.986 102.95 87.986ZM114.191 82.11V89H112.943V83.202H109.979L109.901 84.736C109.858 85.6633 109.775 86.439 109.654 87.063C109.533 87.6783 109.333 88.1723 109.056 88.545C108.779 88.9177 108.393 89.104 107.899 89.104C107.674 89.104 107.418 89.065 107.132 88.987L107.21 87.934C107.323 87.96 107.427 87.973 107.522 87.973C107.869 87.973 108.129 87.8213 108.302 87.518C108.475 87.2147 108.588 86.855 108.64 86.439C108.692 86.023 108.74 85.4293 108.783 84.658L108.9 82.11H114.191ZM119.555 89.078C118.87 89.078 118.255 88.9263 117.709 88.623C117.163 88.3197 116.734 87.9037 116.422 87.375C116.119 86.8377 115.967 86.231 115.967 85.555C115.967 84.879 116.119 84.2767 116.422 83.748C116.734 83.2107 117.163 82.7947 117.709 82.5C118.255 82.1967 118.87 82.045 119.555 82.045C120.24 82.045 120.851 82.1967 121.388 82.5C121.934 82.7947 122.359 83.2107 122.662 83.748C122.974 84.2767 123.13 84.879 123.13 85.555C123.13 86.231 122.974 86.8377 122.662 87.375C122.359 87.9037 121.934 88.3197 121.388 88.623C120.851 88.9263 120.24 89.078 119.555 89.078ZM119.555 87.986C119.997 87.986 120.391 87.8863 120.738 87.687C121.093 87.479 121.371 87.193 121.57 86.829C121.769 86.4563 121.869 86.0317 121.869 85.555C121.869 85.0783 121.769 84.658 121.57 84.294C121.371 83.9213 121.093 83.6353 120.738 83.436C120.391 83.2367 119.997 83.137 119.555 83.137C119.113 83.137 118.714 83.2367 118.359 83.436C118.012 83.6353 117.735 83.9213 117.527 84.294C117.328 84.658 117.228 85.0783 117.228 85.555C117.228 86.0317 117.328 86.4563 117.527 86.829C117.735 87.193 118.012 87.479 118.359 87.687C118.714 87.8863 119.113 87.986 119.555 87.986ZM130.002 83.202H126.18V89H124.932V82.11H130.002V83.202ZM133.737 82.045C134.69 82.045 135.418 82.279 135.921 82.747C136.432 83.215 136.688 83.9127 136.688 84.84V89H135.505V88.09C135.297 88.4107 134.998 88.6577 134.608 88.831C134.226 88.9957 133.771 89.078 133.243 89.078C132.471 89.078 131.852 88.8917 131.384 88.519C130.924 88.1463 130.695 87.6567 130.695 87.05C130.695 86.4433 130.916 85.958 131.358 85.594C131.8 85.2213 132.502 85.035 133.464 85.035H135.44V84.788C135.44 84.2507 135.284 83.839 134.972 83.553C134.66 83.267 134.2 83.124 133.594 83.124C133.186 83.124 132.788 83.1933 132.398 83.332C132.008 83.462 131.678 83.6397 131.41 83.865L130.89 82.929C131.245 82.643 131.67 82.4263 132.164 82.279C132.658 82.123 133.182 82.045 133.737 82.045ZM133.451 88.116C133.927 88.116 134.339 88.012 134.686 87.804C135.032 87.5873 135.284 87.284 135.44 86.894V85.932H133.516C132.458 85.932 131.93 86.2873 131.93 86.998C131.93 87.3447 132.064 87.6177 132.333 87.817C132.601 88.0163 132.974 88.116 133.451 88.116ZM146.878 82.11V89H145.747V83.969L143.173 88.22H142.627L140.079 83.956V89H138.935V82.11H140.222L142.926 86.764L145.708 82.11H146.878ZM149.307 82.11H150.555V87.128L154.78 82.11H155.911V89H154.663V83.982L150.451 89H149.307V82.11ZM160.245 81.447C160.843 81.447 161.332 81.5987 161.714 81.902C162.104 82.2053 162.299 82.5997 162.299 83.085C162.299 83.605 162.099 84.0253 161.701 84.346C161.302 84.658 160.786 84.814 160.154 84.814C159.339 84.814 158.711 84.5843 158.269 84.125C157.827 83.657 157.606 82.9983 157.606 82.149C157.606 81.265 157.87 80.5673 158.399 80.056C158.936 79.5447 159.66 79.289 160.57 79.289C160.838 79.289 161.103 79.315 161.363 79.367C161.623 79.419 161.844 79.497 162.026 79.601L161.701 80.316C161.371 80.1513 160.99 80.069 160.557 80.069C159.933 80.069 159.434 80.2423 159.062 80.589C158.698 80.927 158.516 81.395 158.516 81.993V82.149C158.672 81.9323 158.901 81.7633 159.205 81.642C159.508 81.512 159.855 81.447 160.245 81.447ZM160.128 84.112C160.509 84.112 160.812 84.0253 161.038 83.852C161.263 83.67 161.376 83.4317 161.376 83.137C161.376 82.8337 161.263 82.591 161.038 82.409C160.812 82.227 160.492 82.136 160.076 82.136C159.677 82.136 159.352 82.2313 159.101 82.422C158.849 82.604 158.724 82.8423 158.724 83.137C158.724 83.397 158.841 83.6267 159.075 83.826C159.317 84.0167 159.668 84.112 160.128 84.112ZM61.6871 100.328V109H58.6631V102.744H55.7511V109H52.7271V100.328H61.6871ZM69.2144 100.184C70.0037 100.184 70.7184 100.371 71.3584 100.744C72.009 101.107 72.521 101.629 72.8944 102.312C73.2784 102.984 73.4704 103.768 73.4704 104.664C73.4704 105.56 73.2784 106.349 72.8944 107.032C72.521 107.704 72.009 108.227 71.3584 108.6C70.7184 108.963 70.0037 109.144 69.2144 109.144C68.201 109.144 67.3957 108.84 66.7984 108.232V112.104H63.7584V100.328H66.6544V101.192C67.2197 100.52 68.073 100.184 69.2144 100.184ZM68.5744 106.728C69.1077 106.728 69.545 106.547 69.8864 106.184C70.2277 105.811 70.3984 105.304 70.3984 104.664C70.3984 104.024 70.2277 103.523 69.8864 103.16C69.545 102.787 69.1077 102.6 68.5744 102.6C68.041 102.6 67.6037 102.787 67.2624 103.16C66.921 103.523 66.7504 104.024 66.7504 104.664C66.7504 105.304 66.921 105.811 67.2624 106.184C67.6037 106.547 68.041 106.728 68.5744 106.728ZM74.9303 100.328H77.9543V104.872L81.5863 100.328H84.3863V109H81.3463V104.44L77.7463 109H74.9303V100.328ZM96.7185 109.224C95.5452 109.224 94.4892 108.979 93.5505 108.488C92.6225 107.987 91.8918 107.293 91.3585 106.408C90.8252 105.523 90.5585 104.52 90.5585 103.4C90.5585 102.28 90.8252 101.277 91.3585 100.392C91.8918 99.5067 92.6225 98.8187 93.5505 98.328C94.4892 97.8267 95.5452 97.576 96.7185 97.576C97.7425 97.576 98.6652 97.7573 99.4865 98.12C100.308 98.4827 100.991 99.0053 101.535 99.688L99.5185 101.512C98.7932 100.637 97.9132 100.2 96.8785 100.2C96.2705 100.2 95.7265 100.333 95.2465 100.6C94.7772 100.867 94.4092 101.245 94.1425 101.736C93.8865 102.216 93.7585 102.771 93.7585 103.4C93.7585 104.029 93.8865 104.589 94.1425 105.08C94.4092 105.56 94.7772 105.933 95.2465 106.2C95.7265 106.467 96.2705 106.6 96.8785 106.6C97.9132 106.6 98.7932 106.163 99.5185 105.288L101.535 107.112C100.991 107.795 100.308 108.317 99.4865 108.68C98.6652 109.043 97.7425 109.224 96.7185 109.224ZM108.086 97.8C109.099 97.8 109.979 97.9707 110.726 98.312C111.472 98.6427 112.048 99.1227 112.454 99.752C112.859 100.371 113.062 101.101 113.062 101.944C113.062 102.787 112.859 103.517 112.454 104.136C112.048 104.755 111.472 105.235 110.726 105.576C109.979 105.907 109.099 106.072 108.086 106.072H106.134V109H102.966V97.8H108.086ZM107.894 103.576C108.544 103.576 109.035 103.437 109.366 103.16C109.696 102.872 109.862 102.467 109.862 101.944C109.862 101.421 109.696 101.016 109.366 100.728C109.035 100.44 108.544 100.296 107.894 100.296H106.134V103.576H107.894ZM119.025 104.712H117.585V109H114.433V97.8H117.585V102.152H119.105L121.777 97.8H125.105L121.601 103.208L125.137 109H121.569L119.025 104.712ZM46.0553 120.328H49.0793V124.872L52.7113 120.328H55.5113V129H52.4713V124.44L48.8713 129H46.0553V120.328ZM67.8915 129.224C66.7182 129.224 65.6622 128.979 64.7235 128.488C63.7955 127.987 63.0648 127.293 62.5315 126.408C61.9982 125.523 61.7315 124.52 61.7315 123.4C61.7315 122.28 61.9982 121.277 62.5315 120.392C63.0648 119.507 63.7955 118.819 64.7235 118.328C65.6622 117.827 66.7182 117.576 67.8915 117.576C68.9155 117.576 69.8382 117.757 70.6595 118.12C71.4808 118.483 72.1635 119.005 72.7075 119.688L70.6915 121.512C69.9662 120.637 69.0862 120.2 68.0515 120.2C67.4435 120.2 66.8995 120.333 66.4195 120.6C65.9502 120.867 65.5822 121.245 65.3155 121.736C65.0595 122.216 64.9315 122.771 64.9315 123.4C64.9315 124.029 65.0595 124.589 65.3155 125.08C65.5822 125.56 65.9502 125.933 66.4195 126.2C66.8995 126.467 67.4435 126.6 68.0515 126.6C69.0862 126.6 69.9662 126.163 70.6915 125.288L72.7075 127.112C72.1635 127.795 71.4808 128.317 70.6595 128.68C69.8382 129.043 68.9155 129.224 67.8915 129.224ZM78.0624 129.144C77.1344 129.144 76.297 128.952 75.5504 128.568C74.8037 128.184 74.217 127.651 73.7904 126.968C73.3744 126.285 73.1664 125.512 73.1664 124.648C73.1664 123.795 73.3744 123.027 73.7904 122.344C74.217 121.661 74.7984 121.133 75.5344 120.76C76.281 120.376 77.1237 120.184 78.0624 120.184C79.001 120.184 79.8437 120.376 80.5904 120.76C81.337 121.133 81.9184 121.661 82.3344 122.344C82.7504 123.016 82.9584 123.784 82.9584 124.648C82.9584 125.512 82.7504 126.285 82.3344 126.968C81.9184 127.651 81.337 128.184 80.5904 128.568C79.8437 128.952 79.001 129.144 78.0624 129.144ZM78.0624 126.728C78.5957 126.728 79.033 126.547 79.3744 126.184C79.7157 125.811 79.8864 125.299 79.8864 124.648C79.8864 124.008 79.7157 123.507 79.3744 123.144C79.033 122.781 78.5957 122.6 78.0624 122.6C77.529 122.6 77.0917 122.781 76.7504 123.144C76.409 123.507 76.2384 124.008 76.2384 124.648C76.2384 125.299 76.409 125.811 76.7504 126.184C77.0917 126.547 77.529 126.728 78.0624 126.728ZM93.2683 120.328L89.6843 129H86.5483L82.9802 120.328H86.1003L88.1803 125.624L90.3723 120.328H93.2683ZM94.0541 120.328H97.0941V129H94.0541V120.328ZM95.5741 119.368C95.0195 119.368 94.5715 119.213 94.2301 118.904C93.8888 118.595 93.7181 118.211 93.7181 117.752C93.7181 117.293 93.8888 116.909 94.2301 116.6C94.5715 116.291 95.0195 116.136 95.5741 116.136C96.1288 116.136 96.5768 116.285 96.9181 116.584C97.2595 116.872 97.4301 117.245 97.4301 117.704C97.4301 118.184 97.2595 118.584 96.9181 118.904C96.5768 119.213 96.1288 119.368 95.5741 119.368ZM108.286 117.128V129H105.39V128.136C104.824 128.808 103.976 129.144 102.846 129.144C102.056 129.144 101.336 128.963 100.686 128.6C100.035 128.227 99.5178 127.699 99.1338 127.016C98.7604 126.333 98.5738 125.544 98.5738 124.648C98.5738 123.752 98.7604 122.968 99.1338 122.296C99.5178 121.613 100.035 121.091 100.686 120.728C101.336 120.365 102.056 120.184 102.846 120.184C103.88 120.184 104.68 120.483 105.246 121.08V117.128H108.286ZM103.486 126.728C104.008 126.728 104.44 126.547 104.782 126.184C105.123 125.811 105.294 125.299 105.294 124.648C105.294 124.008 105.123 123.507 104.782 123.144C104.451 122.781 104.019 122.6 103.486 122.6C102.952 122.6 102.515 122.781 102.174 123.144C101.832 123.507 101.662 124.008 101.662 124.648C101.662 125.299 101.832 125.811 102.174 126.184C102.515 126.547 102.952 126.728 103.486 126.728ZM110.034 123.272H114.706V125.608H110.034V123.272ZM120.438 117.8V129H117.27V120.248H115.19V117.8H120.438ZM126.218 117.576C127.829 117.576 129.098 118.051 130.026 119C130.954 119.949 131.418 121.315 131.418 123.096C131.418 124.376 131.167 125.48 130.666 126.408C130.175 127.325 129.477 128.024 128.57 128.504C127.674 128.984 126.634 129.224 125.45 129.224C124.821 129.224 124.218 129.149 123.642 129C123.066 128.861 122.575 128.664 122.17 128.408L123.322 126.136C123.866 126.52 124.554 126.712 125.386 126.712C126.186 126.712 126.831 126.493 127.322 126.056C127.823 125.608 128.117 124.963 128.202 124.12C127.562 124.664 126.725 124.936 125.69 124.936C124.986 124.936 124.341 124.792 123.754 124.504C123.167 124.205 122.698 123.789 122.346 123.256C122.005 122.712 121.834 122.093 121.834 121.4C121.834 120.643 122.026 119.976 122.41 119.4C122.805 118.813 123.333 118.365 123.994 118.056C124.666 117.736 125.407 117.576 126.218 117.576ZM126.442 122.664C126.901 122.664 127.274 122.536 127.562 122.28C127.85 122.013 127.994 121.667 127.994 121.24C127.994 120.824 127.85 120.488 127.562 120.232C127.285 119.965 126.906 119.832 126.426 119.832C125.978 119.832 125.61 119.96 125.322 120.216C125.045 120.472 124.906 120.819 124.906 121.256C124.906 121.683 125.045 122.024 125.322 122.28C125.61 122.536 125.983 122.664 126.442 122.664Z" fill="white"/>
<defs>
<filter id="filter0_f" x="0" y="0" width="177" height="177" filterUnits="userSpaceOnUse" color-interpolation-filters="sRGB">
<feFlood flood-opacity="0" result="BackgroundImageFix"/>
<feBlend mode="normal" in="SourceGraphic" in2="BackgroundImageFix" result="shape"/>
<feGaussianBlur stdDeviation="2" result="effect1_foregroundBlur"/>
</filter>
<linearGradient id="paint0_linear" x1="4" y1="4" x2="185.94" y2="19.32" gradientUnits="userSpaceOnUse">
<stop stop-color="#F17922"/>
<stop offset="1" stop-color="#F7A318"/>
</linearGradient>
</defs>
</svg>
