<svg width="170" height="170" viewBox="0 0 170 170" fill="none" xmlns="http://www.w3.org/2000/svg">
<g filter="url(#filter0_f)">
<circle cx="85" cy="85" r="81" fill="url(#paint0_linear)"/>
</g>
<path d="M69.3574 45.6V54H58.8334V45.6H60.0214V52.956H63.5134V45.6H64.6894V52.956H68.1814V45.6H69.3574ZM76.5181 48.648H74.1901V54H73.0381V48.648H70.7101V47.64H76.5181V48.648ZM79.9641 47.58C80.8441 47.58 81.5161 47.796 81.9801 48.228C82.4521 48.66 82.6881 49.304 82.6881 50.16V54H81.5961V53.16C81.4041 53.456 81.1281 53.684 80.7681 53.844C80.4161 53.996 79.9961 54.072 79.5081 54.072C78.7961 54.072 78.2241 53.9 77.7921 53.556C77.3681 53.212 77.1561 52.76 77.1561 52.2C77.1561 51.64 77.3601 51.192 77.7681 50.856C78.1761 50.512 78.8241 50.34 79.7121 50.34H81.5361V50.112C81.5361 49.616 81.3921 49.236 81.1041 48.972C80.8161 48.708 80.3921 48.576 79.8321 48.576C79.4561 48.576 79.0881 48.64 78.7281 48.768C78.3681 48.888 78.0641 49.052 77.8161 49.26L77.3361 48.396C77.6641 48.132 78.0561 47.932 78.5121 47.796C78.9681 47.652 79.4521 47.58 79.9641 47.58ZM79.7001 53.184C80.1401 53.184 80.5201 53.088 80.8401 52.896C81.1601 52.696 81.3921 52.416 81.5361 52.056V51.168H79.7601C78.7841 51.168 78.2961 51.496 78.2961 52.152C78.2961 52.472 78.4201 52.724 78.6681 52.908C78.9161 53.092 79.2601 53.184 79.7001 53.184ZM92.0945 47.64V54H91.0505V49.356L88.6745 53.28H88.1705L85.8185 49.344V54H84.7625V47.64H85.9505L88.4465 51.936L91.0145 47.64H92.0945ZM101.669 47.64V54H100.625V49.356L98.2487 53.28H97.7447L95.3927 49.344V54H94.3367V47.64H95.5247L98.0207 51.936L100.589 47.64H101.669ZM106.779 49.8C107.579 49.808 108.191 49.992 108.615 50.352C109.039 50.712 109.251 51.22 109.251 51.876C109.251 52.564 109.019 53.096 108.555 53.472C108.099 53.84 107.443 54.02 106.587 54.012L103.911 54V47.64H105.063V49.788L106.779 49.8ZM110.199 47.64H111.351V54H110.199V47.64ZM106.503 53.136C107.023 53.144 107.415 53.04 107.679 52.824C107.951 52.608 108.087 52.288 108.087 51.864C108.087 51.448 107.955 51.144 107.691 50.952C107.427 50.76 107.031 50.66 106.503 50.652L105.063 50.628V53.124L106.503 53.136ZM37.656 62.58C38.272 62.58 38.824 62.716 39.312 62.988C39.8 63.26 40.18 63.64 40.452 64.128C40.732 64.616 40.872 65.18 40.872 65.82C40.872 66.46 40.732 67.028 40.452 67.524C40.18 68.012 39.8 68.392 39.312 68.664C38.824 68.936 38.272 69.072 37.656 69.072C37.2 69.072 36.78 68.984 36.396 68.808C36.02 68.632 35.7 68.376 35.436 68.04V71.328H34.284V62.64H35.388V63.648C35.644 63.296 35.968 63.032 36.36 62.856C36.752 62.672 37.184 62.58 37.656 62.58ZM37.56 68.064C37.968 68.064 38.332 67.972 38.652 67.788C38.98 67.596 39.236 67.332 39.42 66.996C39.612 66.652 39.708 66.26 39.708 65.82C39.708 65.38 39.612 64.992 39.42 64.656C39.236 64.312 38.98 64.048 38.652 63.864C38.332 63.68 37.968 63.588 37.56 63.588C37.16 63.588 36.796 63.684 36.468 63.876C36.148 64.06 35.892 64.32 35.7 64.656C35.516 64.992 35.424 65.38 35.424 65.82C35.424 66.26 35.516 66.652 35.7 66.996C35.884 67.332 36.14 67.596 36.468 67.788C36.796 67.972 37.16 68.064 37.56 68.064ZM48.2937 65.856C48.2937 65.944 48.2857 66.06 48.2697 66.204H43.1097C43.1817 66.764 43.4257 67.216 43.8417 67.56C44.2657 67.896 44.7897 68.064 45.4137 68.064C46.1737 68.064 46.7857 67.808 47.2497 67.296L47.8857 68.04C47.5977 68.376 47.2377 68.632 46.8057 68.808C46.3817 68.984 45.9057 69.072 45.3777 69.072C44.7057 69.072 44.1097 68.936 43.5897 68.664C43.0697 68.384 42.6657 67.996 42.3777 67.5C42.0977 67.004 41.9577 66.444 41.9577 65.82C41.9577 65.204 42.0937 64.648 42.3657 64.152C42.6457 63.656 43.0257 63.272 43.5057 63C43.9937 62.72 44.5417 62.58 45.1497 62.58C45.7577 62.58 46.2977 62.72 46.7697 63C47.2497 63.272 47.6217 63.656 47.8857 64.152C48.1577 64.648 48.2937 65.216 48.2937 65.856ZM45.1497 63.552C44.5977 63.552 44.1337 63.72 43.7577 64.056C43.3897 64.392 43.1737 64.832 43.1097 65.376H47.1897C47.1257 64.84 46.9057 64.404 46.5297 64.068C46.1617 63.724 45.7017 63.552 45.1497 63.552ZM52.5528 66.312H51.2328V69H50.0808V62.64H51.2328V65.328H52.5768L54.6408 62.64H55.8768L53.4648 65.7L56.0448 69H54.6888L52.5528 66.312ZM59.7658 69.072C59.1338 69.072 58.5658 68.932 58.0618 68.652C57.5578 68.372 57.1618 67.988 56.8738 67.5C56.5938 67.004 56.4538 66.444 56.4538 65.82C56.4538 65.196 56.5938 64.64 56.8738 64.152C57.1618 63.656 57.5578 63.272 58.0618 63C58.5658 62.72 59.1338 62.58 59.7658 62.58C60.3978 62.58 60.9618 62.72 61.4578 63C61.9618 63.272 62.3538 63.656 62.6338 64.152C62.9218 64.64 63.0658 65.196 63.0658 65.82C63.0658 66.444 62.9218 67.004 62.6338 67.5C62.3538 67.988 61.9618 68.372 61.4578 68.652C60.9618 68.932 60.3978 69.072 59.7658 69.072ZM59.7658 68.064C60.1738 68.064 60.5378 67.972 60.8578 67.788C61.1858 67.596 61.4418 67.332 61.6258 66.996C61.8098 66.652 61.9018 66.26 61.9018 65.82C61.9018 65.38 61.8098 64.992 61.6258 64.656C61.4418 64.312 61.1858 64.048 60.8578 63.864C60.5378 63.68 60.1738 63.588 59.7658 63.588C59.3578 63.588 58.9898 63.68 58.6618 63.864C58.3418 64.048 58.0858 64.312 57.8938 64.656C57.7098 64.992 57.6178 65.38 57.6178 65.82C57.6178 66.26 57.7098 66.652 57.8938 66.996C58.0858 67.332 58.3418 67.596 58.6618 67.788C58.9898 67.972 59.3578 68.064 59.7658 68.064ZM72.0613 62.64V69H71.0173V64.356L68.6413 68.28H68.1373L65.7853 64.344V69H64.7293V62.64H65.9173L68.4133 66.936L70.9813 62.64H72.0613ZM80.0515 65.856C80.0515 65.944 80.0435 66.06 80.0275 66.204H74.8675C74.9395 66.764 75.1835 67.216 75.5995 67.56C76.0235 67.896 76.5475 68.064 77.1715 68.064C77.9315 68.064 78.5435 67.808 79.0075 67.296L79.6435 68.04C79.3555 68.376 78.9955 68.632 78.5635 68.808C78.1395 68.984 77.6635 69.072 77.1355 69.072C76.4635 69.072 75.8675 68.936 75.3475 68.664C74.8275 68.384 74.4235 67.996 74.1355 67.5C73.8555 67.004 73.7155 66.444 73.7155 65.82C73.7155 65.204 73.8515 64.648 74.1235 64.152C74.4035 63.656 74.7835 63.272 75.2635 63C75.7515 62.72 76.2995 62.58 76.9075 62.58C77.5155 62.58 78.0555 62.72 78.5275 63C79.0075 63.272 79.3795 63.656 79.6435 64.152C79.9155 64.648 80.0515 65.216 80.0515 65.856ZM76.9075 63.552C76.3555 63.552 75.8915 63.72 75.5155 64.056C75.1475 64.392 74.9315 64.832 74.8675 65.376H78.9475C78.8835 64.84 78.6635 64.404 78.2875 64.068C77.9195 63.724 77.4595 63.552 76.9075 63.552ZM81.8387 62.64H82.9907V65.34H86.6147V62.64H87.7667V69H86.6147V66.336H82.9907V69H81.8387V62.64ZM96.4746 67.992V70.476H95.3946V69H90.0786V70.476H88.9866V67.992H89.3226C89.7306 67.968 90.0106 67.68 90.1626 67.128C90.3146 66.576 90.4186 65.796 90.4746 64.788L90.5706 62.64H95.5026V67.992H96.4746ZM91.5306 64.872C91.4986 65.672 91.4306 66.336 91.3266 66.864C91.2306 67.384 91.0506 67.76 90.7866 67.992H94.3506V63.648H91.5906L91.5306 64.872ZM100.699 69.072C100.067 69.072 99.4994 68.932 98.9954 68.652C98.4914 68.372 98.0954 67.988 97.8074 67.5C97.5274 67.004 97.3874 66.444 97.3874 65.82C97.3874 65.196 97.5274 64.64 97.8074 64.152C98.0954 63.656 98.4914 63.272 98.9954 63C99.4994 62.72 100.067 62.58 100.699 62.58C101.331 62.58 101.895 62.72 102.391 63C102.895 63.272 103.287 63.656 103.567 64.152C103.855 64.64 103.999 65.196 103.999 65.82C103.999 66.444 103.855 67.004 103.567 67.5C103.287 67.988 102.895 68.372 102.391 68.652C101.895 68.932 101.331 69.072 100.699 69.072ZM100.699 68.064C101.107 68.064 101.471 67.972 101.791 67.788C102.119 67.596 102.375 67.332 102.559 66.996C102.743 66.652 102.835 66.26 102.835 65.82C102.835 65.38 102.743 64.992 102.559 64.656C102.375 64.312 102.119 64.048 101.791 63.864C101.471 63.68 101.107 63.588 100.699 63.588C100.291 63.588 99.9234 63.68 99.5954 63.864C99.2754 64.048 99.0194 64.312 98.8274 64.656C98.6434 64.992 98.5514 65.38 98.5514 65.82C98.5514 66.26 98.6434 66.652 98.8274 66.996C99.0194 67.332 99.2754 67.596 99.5954 67.788C99.9234 67.972 100.291 68.064 100.699 68.064ZM109.995 65.7C110.819 65.908 111.231 66.424 111.231 67.248C111.231 67.808 111.019 68.24 110.595 68.544C110.179 68.848 109.555 69 108.723 69H105.663V62.64H108.615C109.367 62.64 109.955 62.784 110.379 63.072C110.803 63.352 111.015 63.752 111.015 64.272C111.015 64.608 110.923 64.9 110.739 65.148C110.563 65.388 110.315 65.572 109.995 65.7ZM106.791 65.376H108.519C108.959 65.376 109.291 65.296 109.515 65.136C109.747 64.976 109.863 64.744 109.863 64.44C109.863 63.832 109.415 63.528 108.519 63.528H106.791V65.376ZM108.639 68.112C109.119 68.112 109.479 68.036 109.719 67.884C109.959 67.732 110.079 67.496 110.079 67.176C110.079 66.848 109.967 66.604 109.743 66.444C109.527 66.284 109.183 66.204 108.711 66.204H106.791V68.112H108.639ZM115.302 62.58C116.182 62.58 116.854 62.796 117.318 63.228C117.79 63.66 118.026 64.304 118.026 65.16V69H116.934V68.16C116.742 68.456 116.466 68.684 116.106 68.844C115.754 68.996 115.334 69.072 114.846 69.072C114.134 69.072 113.562 68.9 113.13 68.556C112.706 68.212 112.494 67.76 112.494 67.2C112.494 66.64 112.698 66.192 113.106 65.856C113.514 65.512 114.162 65.34 115.05 65.34H116.874V65.112C116.874 64.616 116.73 64.236 116.442 63.972C116.154 63.708 115.73 63.576 115.17 63.576C114.794 63.576 114.426 63.64 114.066 63.768C113.706 63.888 113.402 64.052 113.154 64.26L112.674 63.396C113.002 63.132 113.394 62.932 113.85 62.796C114.306 62.652 114.79 62.58 115.302 62.58ZM115.038 68.184C115.478 68.184 115.858 68.088 116.178 67.896C116.498 67.696 116.73 67.416 116.874 67.056V66.168H115.098C114.122 66.168 113.634 66.496 113.634 67.152C113.634 67.472 113.758 67.724 114.006 67.908C114.254 68.092 114.598 68.184 115.038 68.184ZM120.1 62.64H121.252V65.34H124.876V62.64H126.028V69H124.876V66.336H121.252V69H120.1V62.64ZM131.136 64.8C131.936 64.808 132.548 64.992 132.972 65.352C133.396 65.712 133.608 66.22 133.608 66.876C133.608 67.564 133.376 68.096 132.912 68.472C132.456 68.84 131.8 69.02 130.944 69.012L128.268 69V62.64H129.42V64.788L131.136 64.8ZM134.556 62.64H135.708V69H134.556V62.64ZM130.86 68.136C131.38 68.144 131.772 68.04 132.036 67.824C132.308 67.608 132.444 67.288 132.444 66.864C132.444 66.448 132.312 66.144 132.048 65.952C131.784 65.76 131.388 65.66 130.86 65.652L129.42 65.628V68.124L130.86 68.136ZM24.8722 78.648H21.3442V84H20.1922V77.64H24.8722V78.648ZM28.3195 77.58C29.1995 77.58 29.8715 77.796 30.3355 78.228C30.8075 78.66 31.0435 79.304 31.0435 80.16V84H29.9515V83.16C29.7595 83.456 29.4835 83.684 29.1235 83.844C28.7715 83.996 28.3515 84.072 27.8635 84.072C27.1515 84.072 26.5795 83.9 26.1475 83.556C25.7235 83.212 25.5115 82.76 25.5115 82.2C25.5115 81.64 25.7155 81.192 26.1235 80.856C26.5315 80.512 27.1795 80.34 28.0675 80.34H29.8915V80.112C29.8915 79.616 29.7475 79.236 29.4595 78.972C29.1715 78.708 28.7475 78.576 28.1875 78.576C27.8115 78.576 27.4435 78.64 27.0835 78.768C26.7235 78.888 26.4195 79.052 26.1715 79.26L25.6915 78.396C26.0195 78.132 26.4115 77.932 26.8675 77.796C27.3235 77.652 27.8075 77.58 28.3195 77.58ZM28.0555 83.184C28.4955 83.184 28.8755 83.088 29.1955 82.896C29.5155 82.696 29.7475 82.416 29.8915 82.056V81.168H28.1155C27.1395 81.168 26.6515 81.496 26.6515 82.152C26.6515 82.472 26.7755 82.724 27.0235 82.908C27.2715 83.092 27.6155 83.184 28.0555 83.184ZM35.89 84.072C35.242 84.072 34.662 83.932 34.15 83.652C33.646 83.372 33.25 82.988 32.962 82.5C32.674 82.004 32.53 81.444 32.53 80.82C32.53 80.196 32.674 79.64 32.962 79.152C33.25 78.656 33.646 78.272 34.15 78C34.662 77.72 35.242 77.58 35.89 77.58C36.466 77.58 36.978 77.696 37.426 77.928C37.882 78.16 38.234 78.496 38.482 78.936L37.606 79.5C37.406 79.196 37.158 78.968 36.862 78.816C36.566 78.664 36.238 78.588 35.878 78.588C35.462 78.588 35.086 78.68 34.75 78.864C34.422 79.048 34.162 79.312 33.97 79.656C33.786 79.992 33.694 80.38 33.694 80.82C33.694 81.268 33.786 81.664 33.97 82.008C34.162 82.344 34.422 82.604 34.75 82.788C35.086 82.972 35.462 83.064 35.878 83.064C36.238 83.064 36.566 82.988 36.862 82.836C37.158 82.684 37.406 82.456 37.606 82.152L38.482 82.704C38.234 83.144 37.882 83.484 37.426 83.724C36.978 83.956 36.466 84.072 35.89 84.072ZM44.6314 78.648H42.3034V84H41.1514V78.648H38.8234V77.64H44.6314V78.648ZM49.1814 77.58C49.7974 77.58 50.3494 77.716 50.8374 77.988C51.3254 78.26 51.7054 78.64 51.9774 79.128C52.2574 79.616 52.3974 80.18 52.3974 80.82C52.3974 81.46 52.2574 82.028 51.9774 82.524C51.7054 83.012 51.3254 83.392 50.8374 83.664C50.3494 83.936 49.7974 84.072 49.1814 84.072C48.7254 84.072 48.3054 83.984 47.9214 83.808C47.5454 83.632 47.2254 83.376 46.9614 83.04V86.328H45.8094V77.64H46.9134V78.648C47.1694 78.296 47.4934 78.032 47.8854 77.856C48.2774 77.672 48.7094 77.58 49.1814 77.58ZM49.0854 83.064C49.4934 83.064 49.8574 82.972 50.1774 82.788C50.5054 82.596 50.7614 82.332 50.9454 81.996C51.1374 81.652 51.2334 81.26 51.2334 80.82C51.2334 80.38 51.1374 79.992 50.9454 79.656C50.7614 79.312 50.5054 79.048 50.1774 78.864C49.8574 78.68 49.4934 78.588 49.0854 78.588C48.6854 78.588 48.3214 78.684 47.9934 78.876C47.6734 79.06 47.4174 79.32 47.2254 79.656C47.0414 79.992 46.9494 80.38 46.9494 80.82C46.9494 81.26 47.0414 81.652 47.2254 81.996C47.4094 82.332 47.6654 82.596 47.9934 82.788C48.3214 82.972 48.6854 83.064 49.0854 83.064ZM56.7951 84.072C56.1631 84.072 55.5951 83.932 55.0911 83.652C54.5871 83.372 54.1911 82.988 53.9031 82.5C53.6231 82.004 53.4831 81.444 53.4831 80.82C53.4831 80.196 53.6231 79.64 53.9031 79.152C54.1911 78.656 54.5871 78.272 55.0911 78C55.5951 77.72 56.1631 77.58 56.7951 77.58C57.4271 77.58 57.9911 77.72 58.4871 78C58.9911 78.272 59.3831 78.656 59.6631 79.152C59.9511 79.64 60.0951 80.196 60.0951 80.82C60.0951 81.444 59.9511 82.004 59.6631 82.5C59.3831 82.988 58.9911 83.372 58.4871 83.652C57.9911 83.932 57.4271 84.072 56.7951 84.072ZM56.7951 83.064C57.2031 83.064 57.5671 82.972 57.8871 82.788C58.2151 82.596 58.4711 82.332 58.6551 81.996C58.8391 81.652 58.9311 81.26 58.9311 80.82C58.9311 80.38 58.8391 79.992 58.6551 79.656C58.4711 79.312 58.2151 79.048 57.8871 78.864C57.5671 78.68 57.2031 78.588 56.7951 78.588C56.3871 78.588 56.0191 78.68 55.6911 78.864C55.3711 79.048 55.1151 79.312 54.9231 79.656C54.7391 79.992 54.6471 80.38 54.6471 80.82C54.6471 81.26 54.7391 81.652 54.9231 81.996C55.1151 82.332 55.3711 82.596 55.6911 82.788C56.0191 82.972 56.3871 83.064 56.7951 83.064ZM63.5243 77.568C64.1723 77.568 64.7563 77.708 65.2763 77.988C65.8043 78.268 66.2163 78.656 66.5123 79.152C66.8083 79.648 66.9563 80.204 66.9563 80.82C66.9563 81.444 66.8083 82.004 66.5123 82.5C66.2163 82.996 65.8043 83.384 65.2763 83.664C64.7563 83.944 64.1723 84.084 63.5243 84.084C62.9643 84.084 62.4563 83.996 62.0003 83.82C61.5523 83.644 61.1723 83.388 60.8603 83.052L61.5323 82.38C62.0443 82.884 62.6923 83.136 63.4763 83.136C64.1003 83.136 64.6323 82.96 65.0723 82.608C65.5123 82.248 65.7763 81.78 65.8643 81.204H62.6723V80.352H65.8403C65.7363 79.8 65.4683 79.356 65.0363 79.02C64.6043 78.676 64.0843 78.504 63.4763 78.504C62.7003 78.504 62.0523 78.76 61.5323 79.272L60.8603 78.612C61.1723 78.268 61.5563 78.008 62.0123 77.832C62.4683 77.656 62.9723 77.568 63.5243 77.568ZM68.5906 77.64H69.7426V80.34H73.3666V77.64H74.5186V84H73.3666V81.336H69.7426V84H68.5906V77.64ZM81.4986 78.648H79.1706V84H78.0186V78.648H75.6906V77.64H81.4986V78.648ZM88.1433 80.856C88.1433 80.944 88.1353 81.06 88.1193 81.204H82.9593C83.0313 81.764 83.2753 82.216 83.6913 82.56C84.1153 82.896 84.6393 83.064 85.2633 83.064C86.0233 83.064 86.6353 82.808 87.0993 82.296L87.7353 83.04C87.4473 83.376 87.0873 83.632 86.6553 83.808C86.2313 83.984 85.7553 84.072 85.2273 84.072C84.5553 84.072 83.9593 83.936 83.4393 83.664C82.9193 83.384 82.5153 82.996 82.2273 82.5C81.9473 82.004 81.8073 81.444 81.8073 80.82C81.8073 80.204 81.9433 79.648 82.2153 79.152C82.4953 78.656 82.8753 78.272 83.3553 78C83.8433 77.72 84.3913 77.58 84.9993 77.58C85.6073 77.58 86.1473 77.72 86.6193 78C87.0993 78.272 87.4713 78.656 87.7353 79.152C88.0073 79.648 88.1433 80.216 88.1433 80.856ZM84.9993 78.552C84.4473 78.552 83.9833 78.72 83.6073 79.056C83.2393 79.392 83.0233 79.832 82.9593 80.376H87.0393C86.9753 79.84 86.7553 79.404 86.3793 79.068C86.0113 78.724 85.5513 78.552 84.9993 78.552ZM93.3025 77.58C93.9185 77.58 94.4705 77.716 94.9585 77.988C95.4465 78.26 95.8265 78.64 96.0985 79.128C96.3785 79.616 96.5185 80.18 96.5185 80.82C96.5185 81.46 96.3785 82.028 96.0985 82.524C95.8265 83.012 95.4465 83.392 94.9585 83.664C94.4705 83.936 93.9185 84.072 93.3025 84.072C92.8465 84.072 92.4265 83.984 92.0425 83.808C91.6665 83.632 91.3465 83.376 91.0825 83.04V86.328H89.9305V77.64H91.0345V78.648C91.2905 78.296 91.6145 78.032 92.0065 77.856C92.3985 77.672 92.8305 77.58 93.3025 77.58ZM93.2065 83.064C93.6145 83.064 93.9785 82.972 94.2985 82.788C94.6265 82.596 94.8825 82.332 95.0665 81.996C95.2585 81.652 95.3545 81.26 95.3545 80.82C95.3545 80.38 95.2585 79.992 95.0665 79.656C94.8825 79.312 94.6265 79.048 94.2985 78.864C93.9785 78.68 93.6145 78.588 93.2065 78.588C92.8065 78.588 92.4425 78.684 92.1145 78.876C91.7945 79.06 91.5385 79.32 91.3465 79.656C91.1625 79.992 91.0705 80.38 91.0705 80.82C91.0705 81.26 91.1625 81.652 91.3465 81.996C91.5305 82.332 91.7865 82.596 92.1145 82.788C92.4425 82.972 92.8065 83.064 93.2065 83.064ZM100.916 84.072C100.284 84.072 99.7162 83.932 99.2122 83.652C98.7082 83.372 98.3122 82.988 98.0242 82.5C97.7442 82.004 97.6042 81.444 97.6042 80.82C97.6042 80.196 97.7442 79.64 98.0242 79.152C98.3122 78.656 98.7082 78.272 99.2122 78C99.7162 77.72 100.284 77.58 100.916 77.58C101.548 77.58 102.112 77.72 102.608 78C103.112 78.272 103.504 78.656 103.784 79.152C104.072 79.64 104.216 80.196 104.216 80.82C104.216 81.444 104.072 82.004 103.784 82.5C103.504 82.988 103.112 83.372 102.608 83.652C102.112 83.932 101.548 84.072 100.916 84.072ZM100.916 83.064C101.324 83.064 101.688 82.972 102.008 82.788C102.336 82.596 102.592 82.332 102.776 81.996C102.96 81.652 103.052 81.26 103.052 80.82C103.052 80.38 102.96 79.992 102.776 79.656C102.592 79.312 102.336 79.048 102.008 78.864C101.688 78.68 101.324 78.588 100.916 78.588C100.508 78.588 100.14 78.68 99.8122 78.864C99.4922 79.048 99.2362 79.312 99.0442 79.656C98.8602 79.992 98.7682 80.38 98.7682 80.82C98.7682 81.26 98.8602 81.652 99.0442 81.996C99.2362 82.332 99.4922 82.596 99.8122 82.788C100.14 82.972 100.508 83.064 100.916 83.064ZM111.293 77.64V84H110.141V78.648H107.405L107.333 80.064C107.293 80.92 107.217 81.636 107.105 82.212C106.993 82.78 106.809 83.236 106.553 83.58C106.297 83.924 105.941 84.096 105.485 84.096C105.277 84.096 105.041 84.06 104.777 83.988L104.849 83.016C104.953 83.04 105.049 83.052 105.137 83.052C105.457 83.052 105.697 82.912 105.857 82.632C106.017 82.352 106.121 82.02 106.169 81.636C106.217 81.252 106.261 80.704 106.301 79.992L106.409 77.64H111.293ZM116.244 84.072C115.612 84.072 115.044 83.932 114.54 83.652C114.036 83.372 113.64 82.988 113.352 82.5C113.072 82.004 112.932 81.444 112.932 80.82C112.932 80.196 113.072 79.64 113.352 79.152C113.64 78.656 114.036 78.272 114.54 78C115.044 77.72 115.612 77.58 116.244 77.58C116.876 77.58 117.44 77.72 117.936 78C118.44 78.272 118.832 78.656 119.112 79.152C119.4 79.64 119.544 80.196 119.544 80.82C119.544 81.444 119.4 82.004 119.112 82.5C118.832 82.988 118.44 83.372 117.936 83.652C117.44 83.932 116.876 84.072 116.244 84.072ZM116.244 83.064C116.652 83.064 117.016 82.972 117.336 82.788C117.664 82.596 117.92 82.332 118.104 81.996C118.288 81.652 118.38 81.26 118.38 80.82C118.38 80.38 118.288 79.992 118.104 79.656C117.92 79.312 117.664 79.048 117.336 78.864C117.016 78.68 116.652 78.588 116.244 78.588C115.836 78.588 115.468 78.68 115.14 78.864C114.82 79.048 114.564 79.312 114.372 79.656C114.188 79.992 114.096 80.38 114.096 80.82C114.096 81.26 114.188 81.652 114.372 81.996C114.564 82.332 114.82 82.596 115.14 82.788C115.468 82.972 115.836 83.064 116.244 83.064ZM125.888 78.648H122.36V84H121.208V77.64H125.888V78.648ZM129.335 77.58C130.215 77.58 130.887 77.796 131.351 78.228C131.823 78.66 132.059 79.304 132.059 80.16V84H130.967V83.16C130.775 83.456 130.499 83.684 130.139 83.844C129.787 83.996 129.367 84.072 128.879 84.072C128.167 84.072 127.595 83.9 127.163 83.556C126.739 83.212 126.527 82.76 126.527 82.2C126.527 81.64 126.731 81.192 127.139 80.856C127.547 80.512 128.195 80.34 129.083 80.34H130.907V80.112C130.907 79.616 130.763 79.236 130.475 78.972C130.187 78.708 129.763 78.576 129.203 78.576C128.827 78.576 128.459 78.64 128.099 78.768C127.739 78.888 127.435 79.052 127.187 79.26L126.707 78.396C127.035 78.132 127.427 77.932 127.883 77.796C128.339 77.652 128.823 77.58 129.335 77.58ZM129.071 83.184C129.511 83.184 129.891 83.088 130.211 82.896C130.531 82.696 130.763 82.416 130.907 82.056V81.168H129.131C128.155 81.168 127.667 81.496 127.667 82.152C127.667 82.472 127.791 82.724 128.039 82.908C128.287 83.092 128.631 83.184 129.071 83.184ZM141.466 77.64V84H140.422V79.356L138.046 83.28H137.542L135.19 79.344V84H134.134V77.64H135.322L137.818 81.936L140.386 77.64H141.466ZM143.708 77.64H144.86V82.272L148.76 77.64H149.804V84H148.652V79.368L144.764 84H143.708V77.64ZM58.1871 95.328V104H55.1631V97.744H52.2511V104H49.2271V95.328H58.1871ZM65.7144 95.184C66.5037 95.184 67.2184 95.3707 67.8584 95.744C68.509 96.1067 69.021 96.6293 69.3944 97.312C69.7784 97.984 69.9704 98.768 69.9704 99.664C69.9704 100.56 69.7784 101.349 69.3944 102.032C69.021 102.704 68.509 103.227 67.8584 103.6C67.2184 103.963 66.5037 104.144 65.7144 104.144C64.701 104.144 63.8957 103.84 63.2984 103.232V107.104H60.2584V95.328H63.1544V96.192C63.7197 95.52 64.573 95.184 65.7144 95.184ZM65.0744 101.728C65.6077 101.728 66.045 101.547 66.3864 101.184C66.7277 100.811 66.8984 100.304 66.8984 99.664C66.8984 99.024 66.7277 98.5227 66.3864 98.16C66.045 97.7867 65.6077 97.6 65.0744 97.6C64.541 97.6 64.1037 97.7867 63.7624 98.16C63.421 98.5227 63.2504 99.024 63.2504 99.664C63.2504 100.304 63.421 100.811 63.7624 101.184C64.1037 101.547 64.541 101.728 65.0744 101.728ZM71.4303 95.328H74.4543V99.872L78.0863 95.328H80.8863V104H77.8463V99.44L74.2463 104H71.4303V95.328ZM93.2185 104.224C92.0452 104.224 90.9892 103.979 90.0505 103.488C89.1225 102.987 88.3918 102.293 87.8585 101.408C87.3252 100.523 87.0585 99.52 87.0585 98.4C87.0585 97.28 87.3252 96.2773 87.8585 95.392C88.3918 94.5067 89.1225 93.8187 90.0505 93.328C90.9892 92.8267 92.0452 92.576 93.2185 92.576C94.2425 92.576 95.1652 92.7573 95.9865 93.12C96.8078 93.4827 97.4905 94.0053 98.0345 94.688L96.0185 96.512C95.2932 95.6373 94.4132 95.2 93.3785 95.2C92.7705 95.2 92.2265 95.3333 91.7465 95.6C91.2772 95.8667 90.9092 96.2453 90.6425 96.736C90.3865 97.216 90.2585 97.7707 90.2585 98.4C90.2585 99.0293 90.3865 99.5893 90.6425 100.08C90.9092 100.56 91.2772 100.933 91.7465 101.2C92.2265 101.467 92.7705 101.6 93.3785 101.6C94.4132 101.6 95.2932 101.163 96.0185 100.288L98.0345 102.112C97.4905 102.795 96.8078 103.317 95.9865 103.68C95.1652 104.043 94.2425 104.224 93.2185 104.224ZM104.586 92.8C105.599 92.8 106.479 92.9707 107.226 93.312C107.972 93.6427 108.548 94.1227 108.954 94.752C109.359 95.3707 109.562 96.1013 109.562 96.944C109.562 97.7867 109.359 98.5173 108.954 99.136C108.548 99.7547 107.972 100.235 107.226 100.576C106.479 100.907 105.599 101.072 104.586 101.072H102.634V104H99.4656V92.8H104.586ZM104.394 98.576C105.044 98.576 105.535 98.4373 105.866 98.16C106.196 97.872 106.362 97.4667 106.362 96.944C106.362 96.4213 106.196 96.016 105.866 95.728C105.535 95.44 105.044 95.296 104.394 95.296H102.634V98.576H104.394ZM115.525 99.712H114.085V104H110.933V92.8H114.085V97.152H115.605L118.277 92.8H121.605L118.101 98.208L121.637 104H118.069L115.525 99.712ZM42.5553 115.328H45.5793V119.872L49.2113 115.328H52.0113V124H48.9713V119.44L45.3713 124H42.5553V115.328ZM64.3915 124.224C63.2182 124.224 62.1622 123.979 61.2235 123.488C60.2955 122.987 59.5648 122.293 59.0315 121.408C58.4982 120.523 58.2315 119.52 58.2315 118.4C58.2315 117.28 58.4982 116.277 59.0315 115.392C59.5648 114.507 60.2955 113.819 61.2235 113.328C62.1622 112.827 63.2182 112.576 64.3915 112.576C65.4155 112.576 66.3382 112.757 67.1595 113.12C67.9808 113.483 68.6635 114.005 69.2075 114.688L67.1915 116.512C66.4662 115.637 65.5862 115.2 64.5515 115.2C63.9435 115.2 63.3995 115.333 62.9195 115.6C62.4502 115.867 62.0822 116.245 61.8155 116.736C61.5595 117.216 61.4315 117.771 61.4315 118.4C61.4315 119.029 61.5595 119.589 61.8155 120.08C62.0822 120.56 62.4502 120.933 62.9195 121.2C63.3995 121.467 63.9435 121.6 64.5515 121.6C65.5862 121.6 66.4662 121.163 67.1915 120.288L69.2075 122.112C68.6635 122.795 67.9808 123.317 67.1595 123.68C66.3382 124.043 65.4155 124.224 64.3915 124.224ZM74.5624 124.144C73.6344 124.144 72.797 123.952 72.0504 123.568C71.3037 123.184 70.717 122.651 70.2904 121.968C69.8744 121.285 69.6664 120.512 69.6664 119.648C69.6664 118.795 69.8744 118.027 70.2904 117.344C70.717 116.661 71.2984 116.133 72.0344 115.76C72.781 115.376 73.6237 115.184 74.5624 115.184C75.501 115.184 76.3437 115.376 77.0904 115.76C77.837 116.133 78.4184 116.661 78.8344 117.344C79.2504 118.016 79.4584 118.784 79.4584 119.648C79.4584 120.512 79.2504 121.285 78.8344 121.968C78.4184 122.651 77.837 123.184 77.0904 123.568C76.3437 123.952 75.501 124.144 74.5624 124.144ZM74.5624 121.728C75.0957 121.728 75.533 121.547 75.8744 121.184C76.2157 120.811 76.3864 120.299 76.3864 119.648C76.3864 119.008 76.2157 118.507 75.8744 118.144C75.533 117.781 75.0957 117.6 74.5624 117.6C74.029 117.6 73.5917 117.781 73.2504 118.144C72.909 118.507 72.7384 119.008 72.7384 119.648C72.7384 120.299 72.909 120.811 73.2504 121.184C73.5917 121.547 74.029 121.728 74.5624 121.728ZM89.7683 115.328L86.1843 124H83.0483L79.4802 115.328H82.6003L84.6803 120.624L86.8723 115.328H89.7683ZM90.5541 115.328H93.5941V124H90.5541V115.328ZM92.0741 114.368C91.5195 114.368 91.0715 114.213 90.7301 113.904C90.3888 113.595 90.2181 113.211 90.2181 112.752C90.2181 112.293 90.3888 111.909 90.7301 111.6C91.0715 111.291 91.5195 111.136 92.0741 111.136C92.6288 111.136 93.0768 111.285 93.4181 111.584C93.7595 111.872 93.9301 112.245 93.9301 112.704C93.9301 113.184 93.7595 113.584 93.4181 113.904C93.0768 114.213 92.6288 114.368 92.0741 114.368ZM104.786 112.128V124H101.89V123.136C101.324 123.808 100.476 124.144 99.3458 124.144C98.5564 124.144 97.8364 123.963 97.1858 123.6C96.5351 123.227 96.0178 122.699 95.6338 122.016C95.2604 121.333 95.0738 120.544 95.0738 119.648C95.0738 118.752 95.2604 117.968 95.6338 117.296C96.0178 116.613 96.5351 116.091 97.1858 115.728C97.8364 115.365 98.5564 115.184 99.3458 115.184C100.38 115.184 101.18 115.483 101.746 116.08V112.128H104.786ZM99.9858 121.728C100.508 121.728 100.94 121.547 101.282 121.184C101.623 120.811 101.794 120.299 101.794 119.648C101.794 119.008 101.623 118.507 101.282 118.144C100.951 117.781 100.519 117.6 99.9858 117.6C99.4524 117.6 99.0151 117.781 98.6738 118.144C98.3324 118.507 98.1618 119.008 98.1618 119.648C98.1618 120.299 98.3324 120.811 98.6738 121.184C99.0151 121.547 99.4524 121.728 99.9858 121.728ZM106.534 118.272H111.206V120.608H106.534V118.272ZM116.938 112.8V124H113.77V115.248H111.69V112.8H116.938ZM122.718 112.576C124.329 112.576 125.598 113.051 126.526 114C127.454 114.949 127.918 116.315 127.918 118.096C127.918 119.376 127.667 120.48 127.166 121.408C126.675 122.325 125.977 123.024 125.07 123.504C124.174 123.984 123.134 124.224 121.95 124.224C121.321 124.224 120.718 124.149 120.142 124C119.566 123.861 119.075 123.664 118.67 123.408L119.822 121.136C120.366 121.52 121.054 121.712 121.886 121.712C122.686 121.712 123.331 121.493 123.822 121.056C124.323 120.608 124.617 119.963 124.702 119.12C124.062 119.664 123.225 119.936 122.19 119.936C121.486 119.936 120.841 119.792 120.254 119.504C119.667 119.205 119.198 118.789 118.846 118.256C118.505 117.712 118.334 117.093 118.334 116.4C118.334 115.643 118.526 114.976 118.91 114.4C119.305 113.813 119.833 113.365 120.494 113.056C121.166 112.736 121.907 112.576 122.718 112.576ZM122.942 117.664C123.401 117.664 123.774 117.536 124.062 117.28C124.35 117.013 124.494 116.667 124.494 116.24C124.494 115.824 124.35 115.488 124.062 115.232C123.785 114.965 123.406 114.832 122.926 114.832C122.478 114.832 122.11 114.96 121.822 115.216C121.545 115.472 121.406 115.819 121.406 116.256C121.406 116.683 121.545 117.024 121.822 117.28C122.11 117.536 122.483 117.664 122.942 117.664Z" fill="white"/>
<defs>
<filter id="filter0_f" x="0" y="0" width="170" height="170" filterUnits="userSpaceOnUse" color-interpolation-filters="sRGB">
<feFlood flood-opacity="0" result="BackgroundImageFix"/>
<feBlend mode="normal" in="SourceGraphic" in2="BackgroundImageFix" result="shape"/>
<feGaussianBlur stdDeviation="2" result="effect1_foregroundBlur"/>
</filter>
<linearGradient id="paint0_linear" x1="4" y1="4" x2="178.404" y2="18.6855" gradientUnits="userSpaceOnUse">
<stop stop-color="#F17922"/>
<stop offset="1" stop-color="#F7A318"/>
</linearGradient>
</defs>
</svg>
