<svg width="245" height="245" viewBox="0 0 245 245" fill="none" xmlns="http://www.w3.org/2000/svg">
<mask id="mask0" mask-type="alpha" maskUnits="userSpaceOnUse" x="0" y="0" width="245" height="245">
<rect width="245" height="245" fill="#C4C4C4"/>
</mask>
<g mask="url(#mask0)">
<g filter="url(#filter0_f)">
<circle cx="122.5" cy="122.5" r="116.5" fill="url(#paint0_linear)"/>
</g>
<path d="M81.832 122H77.8711V109.391L73.9805 110.527V107.527L81.4688 104.938H81.832V122ZM110.054 122L110.03 113.096L105.71 120.344H103.598L99.2782 113.288V122H94.9102V105.2H98.8222L104.726 114.896L110.486 105.2H114.398L114.446 122H110.054ZM134.245 105.2V122H129.565V108.968H124.741L124.645 111.704C124.565 114.104 124.365 116.056 124.045 117.56C123.741 119.064 123.213 120.232 122.461 121.064C121.709 121.88 120.645 122.288 119.269 122.288C118.629 122.288 117.909 122.192 117.109 122L117.373 118.112C117.581 118.16 117.797 118.184 118.021 118.184C118.645 118.184 119.125 117.936 119.461 117.44C119.797 116.944 120.037 116.256 120.181 115.376C120.325 114.48 120.421 113.32 120.469 111.896L120.709 105.2H134.245ZM146.118 105.2C147.638 105.2 148.958 105.456 150.078 105.968C151.198 106.464 152.062 107.184 152.67 108.128C153.278 109.056 153.582 110.152 153.582 111.416C153.582 112.68 153.278 113.776 152.67 114.704C152.062 115.632 151.198 116.352 150.078 116.864C148.958 117.36 147.638 117.608 146.118 117.608H143.19V122H138.438V105.2H146.118ZM145.83 113.864C146.806 113.864 147.542 113.656 148.038 113.24C148.534 112.808 148.782 112.2 148.782 111.416C148.782 110.632 148.534 110.024 148.038 109.592C147.542 109.16 146.806 108.944 145.83 108.944H143.19V113.864H145.83ZM173.493 118.232V125.384H169.149V122H158.397V125.384H154.029V118.232H154.629C155.621 118.216 156.317 117.536 156.717 116.192C157.133 114.848 157.389 112.912 157.485 110.384L157.677 105.2H171.213V118.232H173.493ZM161.637 110.792C161.573 112.584 161.429 114.104 161.205 115.352C160.981 116.6 160.637 117.56 160.173 118.232H166.533V108.968H161.709L161.637 110.792ZM104.133 144.568H101.973V151H97.2446V134.2H101.973V140.728H104.253L108.261 134.2H113.253L107.997 142.312L113.301 151H107.949L104.133 144.568ZM123.587 151.336C121.811 151.336 120.211 150.96 118.787 150.208C117.379 149.456 116.267 148.416 115.451 147.088C114.651 145.76 114.251 144.264 114.251 142.6C114.251 140.936 114.651 139.44 115.451 138.112C116.267 136.784 117.379 135.744 118.787 134.992C120.211 134.24 121.811 133.864 123.587 133.864C125.363 133.864 126.955 134.24 128.363 134.992C129.787 135.744 130.899 136.784 131.699 138.112C132.515 139.44 132.923 140.936 132.923 142.6C132.923 144.264 132.515 145.76 131.699 147.088C130.899 148.416 129.787 149.456 128.363 150.208C126.955 150.96 125.363 151.336 123.587 151.336ZM123.587 147.4C124.435 147.4 125.203 147.2 125.891 146.8C126.579 146.4 127.123 145.84 127.523 145.12C127.923 144.384 128.123 143.544 128.123 142.6C128.123 141.656 127.923 140.824 127.523 140.104C127.123 139.368 126.579 138.8 125.891 138.4C125.203 138 124.435 137.8 123.587 137.8C122.739 137.8 121.971 138 121.283 138.4C120.595 138.8 120.051 139.368 119.651 140.104C119.251 140.824 119.051 141.656 119.051 142.6C119.051 143.544 119.251 144.384 119.651 145.12C120.051 145.84 120.595 146.4 121.283 146.8C121.971 147.2 122.739 147.4 123.587 147.4ZM149.552 147.328V151H136.064V134.2H149.24V137.872H140.768V140.704H148.232V144.256H140.768V147.328H149.552Z" fill="#FFF5F3"/>
<path d="M92.8432 79.8001V91.0001H91.2432V86.0081H84.8112V91.0001H83.2112V79.8001H84.8112V84.6161H91.2432V79.8001H92.8432ZM104.144 86.8081C104.144 86.9254 104.134 87.0801 104.112 87.2721H97.2322C97.3282 88.0187 97.6535 88.6214 98.2082 89.0801C98.7735 89.5281 99.4722 89.7521 100.304 89.7521C101.318 89.7521 102.134 89.4107 102.752 88.7281L103.6 89.7201C103.216 90.1681 102.736 90.5094 102.16 90.7441C101.595 90.9787 100.96 91.0961 100.256 91.0961C99.3602 91.0961 98.5655 90.9147 97.8722 90.5521C97.1789 90.1787 96.6402 89.6614 96.2562 89.0001C95.8829 88.3387 95.6962 87.5921 95.6962 86.7601C95.6962 85.9387 95.8775 85.1974 96.2402 84.5361C96.6135 83.8747 97.1202 83.3627 97.7602 83.0001C98.4109 82.6267 99.1415 82.4401 99.9522 82.4401C100.763 82.4401 101.483 82.6267 102.112 83.0001C102.752 83.3627 103.248 83.8747 103.6 84.5361C103.963 85.1974 104.144 85.9547 104.144 86.8081ZM99.9522 83.7361C99.2162 83.7361 98.5975 83.9601 98.0962 84.4081C97.6055 84.8561 97.3175 85.4427 97.2322 86.1681H102.672C102.587 85.4534 102.294 84.8721 101.792 84.4241C101.302 83.9654 100.688 83.7361 99.9522 83.7361ZM121.4 82.5201V91.0001H120.008V84.8081L116.84 90.0401H116.168L113.032 84.7921V91.0001H111.624V82.5201H113.208L116.536 88.2481L119.96 82.5201H121.4ZM132.454 86.8081C132.454 86.9254 132.443 87.0801 132.422 87.2721H125.542C125.638 88.0187 125.963 88.6214 126.518 89.0801C127.083 89.5281 127.782 89.7521 128.614 89.7521C129.627 89.7521 130.443 89.4107 131.062 88.7281L131.91 89.7201C131.526 90.1681 131.046 90.5094 130.47 90.7441C129.904 90.9787 129.27 91.0961 128.566 91.0961C127.67 91.0961 126.875 90.9147 126.182 90.5521C125.488 90.1787 124.95 89.6614 124.566 89.0001C124.192 88.3387 124.006 87.5921 124.006 86.7601C124.006 85.9387 124.187 85.1974 124.55 84.5361C124.923 83.8747 125.43 83.3627 126.07 83.0001C126.72 82.6267 127.451 82.4401 128.262 82.4401C129.072 82.4401 129.792 82.6267 130.422 83.0001C131.062 83.3627 131.558 83.8747 131.91 84.5361C132.272 85.1974 132.454 85.9547 132.454 86.8081ZM128.262 83.7361C127.526 83.7361 126.907 83.9601 126.406 84.4081C125.915 84.8561 125.627 85.4427 125.542 86.1681H130.982C130.896 85.4534 130.603 84.8721 130.102 84.4241C129.611 83.9654 128.998 83.7361 128.262 83.7361ZM135.236 82.5201H136.772V86.1201H141.604V82.5201H143.14V91.0001H141.604V87.4481H136.772V91.0001H135.236V82.5201ZM154.191 86.8081C154.191 86.9254 154.18 87.0801 154.159 87.2721H147.279C147.375 88.0187 147.7 88.6214 148.255 89.0801C148.82 89.5281 149.519 89.7521 150.351 89.7521C151.364 89.7521 152.18 89.4107 152.799 88.7281L153.647 89.7201C153.263 90.1681 152.783 90.5094 152.207 90.7441C151.642 90.9787 151.007 91.0961 150.303 91.0961C149.407 91.0961 148.612 90.9147 147.919 90.5521C147.226 90.1787 146.687 89.6614 146.303 89.0001C145.93 88.3387 145.743 87.5921 145.743 86.7601C145.743 85.9387 145.924 85.1974 146.287 84.5361C146.66 83.8747 147.167 83.3627 147.807 83.0001C148.458 82.6267 149.188 82.4401 149.999 82.4401C150.81 82.4401 151.53 82.6267 152.159 83.0001C152.799 83.3627 153.295 83.8747 153.647 84.5361C154.01 85.1974 154.191 85.9547 154.191 86.8081ZM149.999 83.7361C149.263 83.7361 148.644 83.9601 148.143 84.4081C147.652 84.8561 147.364 85.4427 147.279 86.1681H152.719C152.634 85.4534 152.34 84.8721 151.839 84.4241C151.348 83.9654 150.735 83.7361 149.999 83.7361ZM164.638 86.8081C164.638 86.9254 164.627 87.0801 164.606 87.2721H157.726C157.822 88.0187 158.147 88.6214 158.702 89.0801C159.267 89.5281 159.966 89.7521 160.798 89.7521C161.811 89.7521 162.627 89.4107 163.246 88.7281L164.094 89.7201C163.71 90.1681 163.23 90.5094 162.654 90.7441C162.089 90.9787 161.454 91.0961 160.75 91.0961C159.854 91.0961 159.059 90.9147 158.366 90.5521C157.673 90.1787 157.134 89.6614 156.75 89.0001C156.377 88.3387 156.19 87.5921 156.19 86.7601C156.19 85.9387 156.371 85.1974 156.734 84.5361C157.107 83.8747 157.614 83.3627 158.254 83.0001C158.905 82.6267 159.635 82.4401 160.446 82.4401C161.257 82.4401 161.977 82.6267 162.606 83.0001C163.246 83.3627 163.742 83.8747 164.094 84.5361C164.457 85.1974 164.638 85.9547 164.638 86.8081ZM160.446 83.7361C159.71 83.7361 159.091 83.9601 158.59 84.4081C158.099 84.8561 157.811 85.4427 157.726 86.1681H163.166C163.081 85.4534 162.787 84.8721 162.286 84.4241C161.795 83.9654 161.182 83.7361 160.446 83.7361Z" fill="#FFF5F3"/>
</g>
<defs>
<filter id="filter0_f" x="0" y="0" width="245" height="245" filterUnits="userSpaceOnUse" color-interpolation-filters="sRGB">
<feFlood flood-opacity="0" result="BackgroundImageFix"/>
<feBlend mode="normal" in="SourceGraphic" in2="BackgroundImageFix" result="shape"/>
<feGaussianBlur stdDeviation="3" result="effect1_foregroundBlur"/>
</filter>
<linearGradient id="paint0_linear" x1="6" y1="6" x2="245.389" y2="12.7601" gradientUnits="userSpaceOnUse">
<stop stop-color="#2CA85E"/>
<stop offset="1" stop-color="#2BBC65"/>
</linearGradient>
</defs>
</svg>
