<svg width="117" height="117" viewBox="0 0 117 117" fill="none" xmlns="http://www.w3.org/2000/svg">
<circle cx="58.5" cy="58.5" r="57.5" stroke="url(#paint0_linear)" stroke-width="2"/>
<path d="M27.7021 66H24.7314V56.543L21.8135 57.3955V55.1455L27.4297 53.2031H27.7021V66ZM43.9363 66L43.9183 59.322L40.6783 64.758H39.0943L35.8543 59.466V66H32.5783V53.4H35.5123L39.9403 60.672L44.2603 53.4H47.1943L47.2303 66H43.9363ZM62.0792 53.4V66H58.5692V56.226H54.9512L54.8792 58.278C54.8192 60.078 54.6692 61.542 54.4292 62.67C54.2012 63.798 53.8052 64.674 53.2412 65.298C52.6772 65.91 51.8792 66.216 50.8472 66.216C50.3672 66.216 49.8272 66.144 49.2272 66L49.4252 63.084C49.5812 63.12 49.7432 63.138 49.9112 63.138C50.3792 63.138 50.7392 62.952 50.9912 62.58C51.2432 62.208 51.4232 61.692 51.5312 61.032C51.6392 60.36 51.7112 59.49 51.7472 58.422L51.9272 53.4H62.0792ZM70.9844 53.4C72.1244 53.4 73.1144 53.592 73.9544 53.976C74.7944 54.348 75.4424 54.888 75.8984 55.596C76.3544 56.292 76.5824 57.114 76.5824 58.062C76.5824 59.01 76.3544 59.832 75.8984 60.528C75.4424 61.224 74.7944 61.764 73.9544 62.148C73.1144 62.52 72.1244 62.706 70.9844 62.706H68.7884V66H65.2244V53.4H70.9844ZM70.7684 59.898C71.5004 59.898 72.0524 59.742 72.4244 59.43C72.7964 59.106 72.9824 58.65 72.9824 58.062C72.9824 57.474 72.7964 57.018 72.4244 56.694C72.0524 56.37 71.5004 56.208 70.7684 56.208H68.7884V59.898H70.7684ZM91.5151 63.174V68.538H88.2571V66H80.1931V68.538H76.9171V63.174H77.3671C78.1111 63.162 78.6331 62.652 78.9331 61.644C79.2451 60.636 79.4371 59.184 79.5091 57.288L79.6531 53.4H89.8051V63.174H91.5151ZM82.6231 57.594C82.5751 58.938 82.4671 60.078 82.2991 61.014C82.1311 61.95 81.8731 62.67 81.5251 63.174H86.2951V56.226H82.6771L82.6231 57.594ZM95.0859 66.162C94.5099 66.162 94.0239 65.97 93.6279 65.586C93.2319 65.202 93.0339 64.716 93.0339 64.128C93.0339 63.528 93.2259 63.042 93.6099 62.67C94.0059 62.298 94.4979 62.112 95.0859 62.112C95.6859 62.112 96.1779 62.298 96.5619 62.67C96.9459 63.042 97.1379 63.528 97.1379 64.128C97.1379 64.716 96.9399 65.202 96.5439 65.586C96.1599 65.97 95.6739 66.162 95.0859 66.162ZM44.8495 83.176H43.2295V88H39.6835V75.4H43.2295V80.296H44.9395L47.9455 75.4H51.6895L47.7475 81.484L51.7255 88H47.7115L44.8495 83.176ZM59.4404 88.252C58.1084 88.252 56.9084 87.97 55.8404 87.406C54.7844 86.842 53.9504 86.062 53.3384 85.066C52.7384 84.07 52.4384 82.948 52.4384 81.7C52.4384 80.452 52.7384 79.33 53.3384 78.334C53.9504 77.338 54.7844 76.558 55.8404 75.994C56.9084 75.43 58.1084 75.148 59.4404 75.148C60.7724 75.148 61.9664 75.43 63.0224 75.994C64.0904 76.558 64.9244 77.338 65.5244 78.334C66.1364 79.33 66.4424 80.452 66.4424 81.7C66.4424 82.948 66.1364 84.07 65.5244 85.066C64.9244 86.062 64.0904 86.842 63.0224 87.406C61.9664 87.97 60.7724 88.252 59.4404 88.252ZM59.4404 85.3C60.0764 85.3 60.6524 85.15 61.1684 84.85C61.6844 84.55 62.0924 84.13 62.3924 83.59C62.6924 83.038 62.8424 82.408 62.8424 81.7C62.8424 80.992 62.6924 80.368 62.3924 79.828C62.0924 79.276 61.6844 78.85 61.1684 78.55C60.6524 78.25 60.0764 78.1 59.4404 78.1C58.8044 78.1 58.2284 78.25 57.7124 78.55C57.1964 78.85 56.7884 79.276 56.4884 79.828C56.1884 80.368 56.0384 80.992 56.0384 81.7C56.0384 82.408 56.1884 83.038 56.4884 83.59C56.7884 84.13 57.1964 84.55 57.7124 84.85C58.2284 85.15 58.8044 85.3 59.4404 85.3ZM78.914 85.246V88H68.798V75.4H78.68V78.154H72.326V80.278H77.924V82.942H72.326V85.246H78.914Z" fill="url(#paint1_linear)"/>
<path d="M24.5008 32.58H25.8448V35.73H30.0728V32.58H31.4168V40H30.0728V36.892H25.8448V40H24.5008V32.58ZM41.0861 36.332C41.0861 36.4347 41.0768 36.57 41.0581 36.738H35.0381C35.1221 37.3913 35.4068 37.9187 35.8921 38.32C36.3868 38.712 36.9981 38.908 37.7261 38.908C38.6128 38.908 39.3268 38.6093 39.8681 38.012L40.6101 38.88C40.2741 39.272 39.8541 39.5707 39.3501 39.776C38.8555 39.9813 38.3001 40.084 37.6841 40.084C36.9001 40.084 36.2048 39.9253 35.5981 39.608C34.9915 39.2813 34.5201 38.8287 34.1841 38.25C33.8575 37.6713 33.6941 37.018 33.6941 36.29C33.6941 35.5713 33.8528 34.9227 34.1701 34.344C34.4968 33.7653 34.9401 33.3173 35.5001 33C36.0695 32.6733 36.7088 32.51 37.4181 32.51C38.1275 32.51 38.7575 32.6733 39.3081 33C39.8681 33.3173 40.3021 33.7653 40.6101 34.344C40.9275 34.9227 41.0861 35.5853 41.0861 36.332ZM37.4181 33.644C36.7741 33.644 36.2328 33.84 35.7941 34.232C35.3648 34.624 35.1128 35.1373 35.0381 35.772H39.7981C39.7235 35.1467 39.4668 34.638 39.0281 34.246C38.5988 33.8447 38.0621 33.644 37.4181 33.644ZM56.1849 32.58V40H54.9669V34.582L52.1949 39.16H51.6069L48.8629 34.568V40H47.6309V32.58H49.0169L51.9289 37.592L54.9249 32.58H56.1849ZM65.8568 36.332C65.8568 36.4347 65.8475 36.57 65.8288 36.738H59.8088C59.8928 37.3913 60.1775 37.9187 60.6628 38.32C61.1575 38.712 61.7688 38.908 62.4968 38.908C63.3835 38.908 64.0975 38.6093 64.6388 38.012L65.3808 38.88C65.0448 39.272 64.6248 39.5707 64.1208 39.776C63.6262 39.9813 63.0708 40.084 62.4548 40.084C61.6708 40.084 60.9755 39.9253 60.3688 39.608C59.7622 39.2813 59.2908 38.8287 58.9548 38.25C58.6282 37.6713 58.4648 37.018 58.4648 36.29C58.4648 35.5713 58.6235 34.9227 58.9408 34.344C59.2675 33.7653 59.7108 33.3173 60.2708 33C60.8402 32.6733 61.4795 32.51 62.1888 32.51C62.8982 32.51 63.5282 32.6733 64.0788 33C64.6388 33.3173 65.0728 33.7653 65.3808 34.344C65.6982 34.9227 65.8568 35.5853 65.8568 36.332ZM62.1888 33.644C61.5448 33.644 61.0035 33.84 60.5648 34.232C60.1355 34.624 59.8835 35.1373 59.8088 35.772H64.5688C64.4942 35.1467 64.2375 34.638 63.7988 34.246C63.3695 33.8447 62.8328 33.644 62.1888 33.644ZM68.2918 32.58H69.6358V35.73H73.8638V32.58H75.2078V40H73.8638V36.892H69.6358V40H68.2918V32.58ZM84.8771 36.332C84.8771 36.4347 84.8678 36.57 84.8491 36.738H78.8291C78.9131 37.3913 79.1978 37.9187 79.6831 38.32C80.1778 38.712 80.7891 38.908 81.5171 38.908C82.4038 38.908 83.1178 38.6093 83.6591 38.012L84.4011 38.88C84.0651 39.272 83.6451 39.5707 83.1411 39.776C82.6465 39.9813 82.0911 40.084 81.4751 40.084C80.6911 40.084 79.9958 39.9253 79.3891 39.608C78.7825 39.2813 78.3111 38.8287 77.9751 38.25C77.6485 37.6713 77.4851 37.018 77.4851 36.29C77.4851 35.5713 77.6438 34.9227 77.9611 34.344C78.2878 33.7653 78.7311 33.3173 79.2911 33C79.8605 32.6733 80.4998 32.51 81.2091 32.51C81.9185 32.51 82.5485 32.6733 83.0991 33C83.6591 33.3173 84.0931 33.7653 84.4011 34.344C84.7185 34.9227 84.8771 35.5853 84.8771 36.332ZM81.2091 33.644C80.5651 33.644 80.0238 33.84 79.5851 34.232C79.1558 34.624 78.9038 35.1373 78.8291 35.772H83.5891C83.5145 35.1467 83.2578 34.638 82.8191 34.246C82.3898 33.8447 81.8531 33.644 81.2091 33.644ZM94.0182 36.332C94.0182 36.4347 94.0088 36.57 93.9902 36.738H87.9702C88.0542 37.3913 88.3388 37.9187 88.8242 38.32C89.3188 38.712 89.9302 38.908 90.6582 38.908C91.5448 38.908 92.2588 38.6093 92.8002 38.012L93.5422 38.88C93.2062 39.272 92.7862 39.5707 92.2822 39.776C91.7875 39.9813 91.2322 40.084 90.6162 40.084C89.8322 40.084 89.1368 39.9253 88.5302 39.608C87.9235 39.2813 87.4522 38.8287 87.1162 38.25C86.7895 37.6713 86.6262 37.018 86.6262 36.29C86.6262 35.5713 86.7848 34.9227 87.1022 34.344C87.4288 33.7653 87.8722 33.3173 88.4322 33C89.0015 32.6733 89.6408 32.51 90.3502 32.51C91.0595 32.51 91.6895 32.6733 92.2402 33C92.8002 33.3173 93.2342 33.7653 93.5422 34.344C93.8595 34.9227 94.0182 35.5853 94.0182 36.332ZM90.3502 33.644C89.7062 33.644 89.1648 33.84 88.7262 34.232C88.2968 34.624 88.0448 35.1373 87.9702 35.772H92.7302C92.6555 35.1467 92.3988 34.638 91.9602 34.246C91.5308 33.8447 90.9942 33.644 90.3502 33.644Z" fill="url(#paint2_linear)"/>
<defs>
<linearGradient id="paint0_linear" x1="0" y1="0" x2="120.208" y2="3.39453" gradientUnits="userSpaceOnUse">
<stop stop-color="#2CA85E"/>
<stop offset="1" stop-color="#2BBC65"/>
</linearGradient>
<linearGradient id="paint1_linear" x1="20" y1="49" x2="100.002" y2="53.0049" gradientUnits="userSpaceOnUse">
<stop stop-color="#2CA85E"/>
<stop offset="1" stop-color="#2BBC65"/>
</linearGradient>
<linearGradient id="paint2_linear" x1="23" y1="21" x2="96.6157" y2="26.5435" gradientUnits="userSpaceOnUse">
<stop stop-color="#2CA85E"/>
<stop offset="1" stop-color="#2BBC65"/>
</linearGradient>
</defs>
</svg>
