<svg width="313" height="313" viewBox="0 0 313 313" fill="none" xmlns="http://www.w3.org/2000/svg">
<circle opacity="0.7" cx="155.279" cy="155.682" r="126" stroke="#8C0000" stroke-width="2"/>
<circle opacity="0.7" cx="155" cy="155.682" r="122.5" stroke="#8C0000"/>
<path d="M253.5 156.182C253.5 210.306 209.624 254.182 155.5 254.182C101.377 254.182 57.5005 210.306 57.5005 156.182C57.5005 102.058 101.377 58.1819 155.5 58.1819C209.624 58.1819 253.5 102.058 253.5 156.182Z" stroke="#8C0000"/>
<path d="M89.0349 134.282V142.682H77.9469V134.282H79.8789V141.098H82.5309V134.282H84.4629V141.098H87.1029V134.282H89.0349ZM97.4788 137.762H95.2948V142.682H93.4348V137.762H91.2508V136.226H97.4788V137.762ZM102.065 136.13C103.065 136.13 103.833 136.37 104.369 136.85C104.905 137.322 105.173 138.038 105.173 138.998V142.682H103.421V141.878C103.069 142.478 102.413 142.778 101.453 142.778C100.957 142.778 100.525 142.694 100.157 142.526C99.7966 142.358 99.5206 142.126 99.3286 141.83C99.1366 141.534 99.0406 141.198 99.0406 140.822C99.0406 140.222 99.2646 139.75 99.7126 139.406C100.169 139.062 100.869 138.89 101.813 138.89H103.301C103.301 138.482 103.177 138.17 102.929 137.954C102.681 137.73 102.309 137.618 101.813 137.618C101.469 137.618 101.129 137.674 100.793 137.786C100.465 137.89 100.185 138.034 99.9526 138.218L99.2806 136.91C99.6326 136.662 100.053 136.47 100.541 136.334C101.037 136.198 101.545 136.13 102.065 136.13ZM101.921 141.518C102.241 141.518 102.525 141.446 102.773 141.302C103.021 141.15 103.197 140.93 103.301 140.642V139.982H102.017C101.249 139.982 100.865 140.234 100.865 140.738C100.865 140.978 100.957 141.17 101.141 141.314C101.333 141.45 101.593 141.518 101.921 141.518ZM114.179 142.682V138.818L112.247 142.058H111.455L109.571 138.806V142.682H107.879V136.226H109.835L111.899 139.958L114.095 136.226H115.847L115.871 142.682H114.179ZM125.044 142.682V138.818L123.112 142.058H122.32L120.436 138.806V142.682H118.744V136.226H120.7L122.764 139.958L124.96 136.226H126.712L126.736 142.682H125.044ZM133.005 138.29C133.845 138.298 134.481 138.486 134.913 138.854C135.345 139.222 135.561 139.75 135.561 140.438C135.561 141.158 135.317 141.714 134.829 142.106C134.341 142.498 133.649 142.694 132.753 142.694L129.609 142.682V136.226H131.469V138.29H133.005ZM136.257 136.226H138.117V142.682H136.257V136.226ZM132.585 141.362C132.945 141.37 133.221 141.294 133.413 141.134C133.605 140.974 133.701 140.734 133.701 140.414C133.701 140.102 133.605 139.874 133.413 139.73C133.229 139.586 132.953 139.51 132.585 139.502L131.469 139.49V141.362H132.585ZM150.412 139.31C151.172 139.566 151.552 140.078 151.552 140.846C151.552 141.43 151.332 141.882 150.892 142.202C150.452 142.522 149.796 142.682 148.924 142.682H145.48V136.226H148.78C149.588 136.226 150.22 136.374 150.676 136.67C151.132 136.958 151.36 137.366 151.36 137.894C151.36 138.214 151.276 138.498 151.108 138.746C150.948 138.986 150.716 139.174 150.412 139.31ZM147.196 138.878H148.612C149.268 138.878 149.596 138.646 149.596 138.182C149.596 137.726 149.268 137.498 148.612 137.498H147.196V138.878ZM148.768 141.41C149.456 141.41 149.8 141.174 149.8 140.702C149.8 140.454 149.72 140.274 149.56 140.162C149.4 140.042 149.148 139.982 148.804 139.982H147.196V141.41H148.768ZM156.869 140.234H155.897V142.682H154.025V136.226H155.897V138.734H156.905L158.657 136.226H160.649L158.393 139.322L160.805 142.682H158.597L156.869 140.234ZM168.996 136.226V142.682H167.124V137.762H165.084L165.024 138.902C164.992 139.75 164.912 140.454 164.784 141.014C164.656 141.574 164.448 142.014 164.16 142.334C163.872 142.654 163.472 142.814 162.96 142.814C162.688 142.814 162.364 142.766 161.988 142.67L162.084 141.134C162.212 141.15 162.304 141.158 162.36 141.158C162.64 141.158 162.848 141.058 162.984 140.858C163.128 140.65 163.224 140.39 163.272 140.078C163.32 139.758 163.356 139.338 163.38 138.818L163.476 136.226H168.996ZM177.984 136.13C178.64 136.13 179.228 136.274 179.748 136.562C180.268 136.842 180.676 137.234 180.972 137.738C181.268 138.242 181.416 138.814 181.416 139.454C181.416 140.094 181.268 140.666 180.972 141.17C180.676 141.674 180.268 142.07 179.748 142.358C179.228 142.638 178.64 142.778 177.984 142.778C177.416 142.778 176.896 142.674 176.424 142.466C175.952 142.25 175.56 141.95 175.248 141.566C174.936 141.174 174.728 140.726 174.624 140.222H173.736V142.682H171.876V136.226H173.736V138.602H174.636C174.82 137.85 175.212 137.25 175.812 136.802C176.412 136.354 177.136 136.13 177.984 136.13ZM177.984 141.242C178.44 141.242 178.816 141.082 179.112 140.762C179.416 140.434 179.568 139.998 179.568 139.454C179.568 138.902 179.416 138.466 179.112 138.146C178.816 137.826 178.44 137.666 177.984 137.666C177.52 137.666 177.136 137.826 176.832 138.146C176.536 138.466 176.388 138.902 176.388 139.454C176.388 139.998 176.536 140.434 176.832 140.762C177.136 141.082 177.52 141.242 177.984 141.242ZM189.604 136.226V142.682H187.732V140.282C187.188 140.554 186.588 140.69 185.932 140.69C185.06 140.69 184.4 140.494 183.952 140.102C183.512 139.702 183.292 139.086 183.292 138.254V136.226H185.164V138.134C185.164 138.526 185.264 138.81 185.464 138.986C185.672 139.162 185.968 139.25 186.352 139.25C186.84 139.25 187.3 139.146 187.732 138.938V136.226H189.604ZM198.758 139.478C198.758 139.502 198.746 139.67 198.722 139.982H193.838C193.926 140.382 194.134 140.698 194.462 140.93C194.79 141.162 195.198 141.278 195.686 141.278C196.022 141.278 196.318 141.23 196.574 141.134C196.838 141.03 197.082 140.87 197.306 140.654L198.302 141.734C197.694 142.43 196.806 142.778 195.638 142.778C194.91 142.778 194.266 142.638 193.706 142.358C193.146 142.07 192.714 141.674 192.41 141.17C192.106 140.666 191.954 140.094 191.954 139.454C191.954 138.822 192.102 138.254 192.398 137.75C192.702 137.238 193.114 136.842 193.634 136.562C194.162 136.274 194.75 136.13 195.398 136.13C196.03 136.13 196.602 136.266 197.114 136.538C197.626 136.81 198.026 137.202 198.314 137.714C198.61 138.218 198.758 138.806 198.758 139.478ZM195.41 137.546C194.986 137.546 194.63 137.666 194.342 137.906C194.054 138.146 193.878 138.474 193.814 138.89H196.994C196.93 138.482 196.754 138.158 196.466 137.918C196.178 137.67 195.826 137.546 195.41 137.546ZM201.273 136.226H203.133V138.746H205.941V136.226H207.813V142.682H205.941V140.27H203.133V142.682H201.273V136.226ZM214.081 138.29C214.921 138.298 215.557 138.486 215.989 138.854C216.421 139.222 216.637 139.75 216.637 140.438C216.637 141.158 216.393 141.714 215.905 142.106C215.417 142.498 214.725 142.694 213.829 142.694L210.685 142.682V136.226H212.545V138.29H214.081ZM217.333 136.226H219.193V142.682H217.333V136.226ZM213.661 141.362C214.021 141.37 214.297 141.294 214.489 141.134C214.681 140.974 214.777 140.734 214.777 140.414C214.777 140.102 214.681 139.874 214.489 139.73C214.305 139.586 214.029 139.51 213.661 139.502L212.545 139.49V141.362H213.661ZM92.1568 157.31C92.9168 157.566 93.2968 158.078 93.2968 158.846C93.2968 159.43 93.0768 159.882 92.6368 160.202C92.1968 160.522 91.5408 160.682 90.6688 160.682H87.2248V154.226H90.5248C91.3328 154.226 91.9648 154.374 92.4208 154.67C92.8768 154.958 93.1048 155.366 93.1048 155.894C93.1048 156.214 93.0208 156.498 92.8528 156.746C92.6928 156.986 92.4608 157.174 92.1568 157.31ZM88.9408 156.878H90.3568C91.0128 156.878 91.3408 156.646 91.3408 156.182C91.3408 155.726 91.0128 155.498 90.3568 155.498H88.9408V156.878ZM90.5128 159.41C91.2008 159.41 91.5448 159.174 91.5448 158.702C91.5448 158.454 91.4648 158.274 91.3048 158.162C91.1448 158.042 90.8928 157.982 90.5488 157.982H88.9408V159.41H90.5128ZM104.052 154.13C104.652 154.13 105.196 154.27 105.684 154.55C106.18 154.822 106.568 155.21 106.848 155.714C107.128 156.21 107.268 156.79 107.268 157.454C107.268 158.118 107.128 158.702 106.848 159.206C106.568 159.702 106.18 160.09 105.684 160.37C105.196 160.642 104.652 160.778 104.052 160.778C103.228 160.778 102.58 160.518 102.108 159.998V163.01H100.236V154.226H102.024V154.97C102.488 154.41 103.164 154.13 104.052 154.13ZM103.728 159.242C104.208 159.242 104.6 159.082 104.904 158.762C105.216 158.434 105.372 157.998 105.372 157.454C105.372 156.91 105.216 156.478 104.904 156.158C104.6 155.83 104.208 155.666 103.728 155.666C103.248 155.666 102.852 155.83 102.54 156.158C102.236 156.478 102.084 156.91 102.084 157.454C102.084 157.998 102.236 158.434 102.54 158.762C102.852 159.082 103.248 159.242 103.728 159.242ZM115.936 157.478C115.936 157.502 115.924 157.67 115.9 157.982H111.016C111.104 158.382 111.312 158.698 111.64 158.93C111.968 159.162 112.376 159.278 112.864 159.278C113.2 159.278 113.496 159.23 113.752 159.134C114.016 159.03 114.26 158.87 114.484 158.654L115.48 159.734C114.872 160.43 113.984 160.778 112.816 160.778C112.088 160.778 111.444 160.638 110.884 160.358C110.324 160.07 109.892 159.674 109.588 159.17C109.284 158.666 109.132 158.094 109.132 157.454C109.132 156.822 109.28 156.254 109.576 155.75C109.88 155.238 110.292 154.842 110.812 154.562C111.34 154.274 111.928 154.13 112.576 154.13C113.208 154.13 113.78 154.266 114.292 154.538C114.804 154.81 115.204 155.202 115.492 155.714C115.788 156.218 115.936 156.806 115.936 157.478ZM112.588 155.546C112.164 155.546 111.808 155.666 111.52 155.906C111.232 156.146 111.056 156.474 110.992 156.89H114.172C114.108 156.482 113.932 156.158 113.644 155.918C113.356 155.67 113.004 155.546 112.588 155.546ZM121.295 158.234H120.323V160.682H118.451V154.226H120.323V156.734H121.331L123.083 154.226H125.075L122.819 157.322L125.231 160.682H123.023L121.295 158.234ZM130.055 160.778C129.375 160.778 128.763 160.638 128.219 160.358C127.683 160.07 127.263 159.674 126.959 159.17C126.655 158.666 126.503 158.094 126.503 157.454C126.503 156.814 126.655 156.242 126.959 155.738C127.263 155.234 127.683 154.842 128.219 154.562C128.763 154.274 129.375 154.13 130.055 154.13C130.735 154.13 131.343 154.274 131.879 154.562C132.415 154.842 132.835 155.234 133.139 155.738C133.443 156.242 133.595 156.814 133.595 157.454C133.595 158.094 133.443 158.666 133.139 159.17C132.835 159.674 132.415 160.07 131.879 160.358C131.343 160.638 130.735 160.778 130.055 160.778ZM130.055 159.242C130.535 159.242 130.927 159.082 131.231 158.762C131.543 158.434 131.699 157.998 131.699 157.454C131.699 156.91 131.543 156.478 131.231 156.158C130.927 155.83 130.535 155.666 130.055 155.666C129.575 155.666 129.179 155.83 128.867 156.158C128.555 156.478 128.399 156.91 128.399 157.454C128.399 157.998 128.555 158.434 128.867 158.762C129.179 159.082 129.575 159.242 130.055 159.242ZM142.263 160.682V156.818L140.331 160.058H139.539L137.655 156.806V160.682H135.963V154.226H137.919L139.983 157.958L142.179 154.226H143.931L143.955 160.682H142.263ZM153.104 157.478C153.104 157.502 153.092 157.67 153.068 157.982H148.184C148.272 158.382 148.48 158.698 148.808 158.93C149.136 159.162 149.544 159.278 150.032 159.278C150.368 159.278 150.664 159.23 150.92 159.134C151.184 159.03 151.428 158.87 151.652 158.654L152.648 159.734C152.04 160.43 151.152 160.778 149.984 160.778C149.256 160.778 148.612 160.638 148.052 160.358C147.492 160.07 147.06 159.674 146.756 159.17C146.452 158.666 146.3 158.094 146.3 157.454C146.3 156.822 146.448 156.254 146.744 155.75C147.048 155.238 147.46 154.842 147.98 154.562C148.508 154.274 149.096 154.13 149.744 154.13C150.376 154.13 150.948 154.266 151.46 154.538C151.972 154.81 152.372 155.202 152.66 155.714C152.956 156.218 153.104 156.806 153.104 157.478ZM149.756 155.546C149.332 155.546 148.976 155.666 148.688 155.906C148.4 156.146 148.224 156.474 148.16 156.89H151.34C151.276 156.482 151.1 156.158 150.812 155.918C150.524 155.67 150.172 155.546 149.756 155.546ZM155.619 154.226H157.479V156.746H160.287V154.226H162.159V160.682H160.287V158.27H157.479V160.682H155.619V154.226ZM172.267 159.146V162.074H170.527V160.682H165.991V162.074H164.251V159.146H164.515C164.915 159.138 165.191 158.902 165.343 158.438C165.495 157.974 165.591 157.314 165.631 156.458L165.715 154.226H171.343V159.146H172.267ZM167.323 156.59C167.299 157.246 167.247 157.782 167.167 158.198C167.095 158.614 166.955 158.93 166.747 159.146H169.471V155.762H167.359L167.323 156.59ZM177.033 154.13C178.033 154.13 178.801 154.37 179.337 154.85C179.873 155.322 180.141 156.038 180.141 156.998V160.682H178.389V159.878C178.037 160.478 177.381 160.778 176.421 160.778C175.925 160.778 175.493 160.694 175.125 160.526C174.765 160.358 174.489 160.126 174.297 159.83C174.105 159.534 174.009 159.198 174.009 158.822C174.009 158.222 174.233 157.75 174.681 157.406C175.137 157.062 175.837 156.89 176.781 156.89H178.269C178.269 156.482 178.145 156.17 177.897 155.954C177.649 155.73 177.277 155.618 176.781 155.618C176.437 155.618 176.097 155.674 175.761 155.786C175.433 155.89 175.153 156.034 174.921 156.218L174.249 154.91C174.601 154.662 175.021 154.47 175.509 154.334C176.005 154.198 176.513 154.13 177.033 154.13ZM176.889 159.518C177.209 159.518 177.493 159.446 177.741 159.302C177.989 159.15 178.165 158.93 178.269 158.642V157.982H176.985C176.217 157.982 175.833 158.234 175.833 158.738C175.833 158.978 175.925 159.17 176.109 159.314C176.301 159.45 176.561 159.518 176.889 159.518ZM190.119 159.146V162.098H188.379V160.682H182.847V154.226H184.707V159.146H187.311V154.226H189.183V159.146H190.119ZM192.376 154.226H194.236V158.066L197.38 154.226H199.096V160.682H197.236V156.842L194.104 160.682H192.376V154.226ZM201.976 154.226H203.836V158.066L206.98 154.226H208.696V160.682H206.836V156.842L203.704 160.682H201.976V154.226ZM83.2367 173.762H79.9247V178.682H78.0647V172.226H83.2367V173.762ZM87.8168 172.13C88.8168 172.13 89.5848 172.37 90.1208 172.85C90.6568 173.322 90.9248 174.038 90.9248 174.998V178.682H89.1728V177.878C88.8208 178.478 88.1648 178.778 87.2048 178.778C86.7088 178.778 86.2768 178.694 85.9088 178.526C85.5488 178.358 85.2728 178.126 85.0808 177.83C84.8888 177.534 84.7928 177.198 84.7928 176.822C84.7928 176.222 85.0168 175.75 85.4648 175.406C85.9208 175.062 86.6208 174.89 87.5648 174.89H89.0528C89.0528 174.482 88.9288 174.17 88.6808 173.954C88.4328 173.73 88.0608 173.618 87.5648 173.618C87.2208 173.618 86.8808 173.674 86.5448 173.786C86.2168 173.89 85.9368 174.034 85.7048 174.218L85.0328 172.91C85.3848 172.662 85.8048 172.47 86.2928 172.334C86.7888 172.198 87.2968 172.13 87.8168 172.13ZM87.6728 177.518C87.9928 177.518 88.2768 177.446 88.5248 177.302C88.7728 177.15 88.9488 176.93 89.0528 176.642V175.982H87.7688C87.0008 175.982 86.6168 176.234 86.6168 176.738C86.6168 176.978 86.7088 177.17 86.8928 177.314C87.0848 177.45 87.3448 177.518 87.6728 177.518ZM96.7029 178.778C96.0149 178.778 95.3949 178.638 94.8429 178.358C94.2989 178.07 93.8709 177.674 93.5589 177.17C93.2549 176.666 93.1029 176.094 93.1029 175.454C93.1029 174.814 93.2549 174.242 93.5589 173.738C93.8709 173.234 94.2989 172.842 94.8429 172.562C95.3949 172.274 96.0149 172.13 96.7029 172.13C97.3829 172.13 97.9749 172.274 98.4789 172.562C98.9909 172.842 99.3629 173.246 99.5949 173.774L98.1429 174.554C97.8069 173.962 97.3229 173.666 96.6909 173.666C96.2029 173.666 95.7989 173.826 95.4789 174.146C95.1589 174.466 94.9989 174.902 94.9989 175.454C94.9989 176.006 95.1589 176.442 95.4789 176.762C95.7989 177.082 96.2029 177.242 96.6909 177.242C97.3309 177.242 97.8149 176.946 98.1429 176.354L99.5949 177.146C99.3629 177.658 98.9909 178.058 98.4789 178.346C97.9749 178.634 97.3829 178.778 96.7029 178.778ZM107.213 173.762H105.029V178.682H103.169V173.762H100.985V172.226H107.213V173.762ZM113.095 172.13C113.695 172.13 114.239 172.27 114.727 172.55C115.223 172.822 115.611 173.21 115.891 173.714C116.171 174.21 116.311 174.79 116.311 175.454C116.311 176.118 116.171 176.702 115.891 177.206C115.611 177.702 115.223 178.09 114.727 178.37C114.239 178.642 113.695 178.778 113.095 178.778C112.271 178.778 111.623 178.518 111.151 177.998V181.01H109.279V172.226H111.067V172.97C111.531 172.41 112.207 172.13 113.095 172.13ZM112.771 177.242C113.251 177.242 113.643 177.082 113.947 176.762C114.259 176.434 114.415 175.998 114.415 175.454C114.415 174.91 114.259 174.478 113.947 174.158C113.643 173.83 113.251 173.666 112.771 173.666C112.291 173.666 111.895 173.83 111.583 174.158C111.279 174.478 111.127 174.91 111.127 175.454C111.127 175.998 111.279 176.434 111.583 176.762C111.895 177.082 112.291 177.242 112.771 177.242ZM121.727 178.778C121.047 178.778 120.435 178.638 119.891 178.358C119.355 178.07 118.935 177.674 118.631 177.17C118.327 176.666 118.175 176.094 118.175 175.454C118.175 174.814 118.327 174.242 118.631 173.738C118.935 173.234 119.355 172.842 119.891 172.562C120.435 172.274 121.047 172.13 121.727 172.13C122.407 172.13 123.015 172.274 123.551 172.562C124.087 172.842 124.507 173.234 124.811 173.738C125.115 174.242 125.267 174.814 125.267 175.454C125.267 176.094 125.115 176.666 124.811 177.17C124.507 177.674 124.087 178.07 123.551 178.358C123.015 178.638 122.407 178.778 121.727 178.778ZM121.727 177.242C122.207 177.242 122.599 177.082 122.903 176.762C123.215 176.434 123.371 175.998 123.371 175.454C123.371 174.91 123.215 174.478 122.903 174.158C122.599 173.83 122.207 173.666 121.727 173.666C121.247 173.666 120.851 173.83 120.539 174.158C120.227 174.478 120.071 174.91 120.071 175.454C120.071 175.998 120.227 176.434 120.539 176.762C120.851 177.082 121.247 177.242 121.727 177.242ZM129.701 172.106C130.397 172.106 131.017 172.25 131.561 172.538C132.113 172.818 132.545 173.214 132.857 173.726C133.169 174.238 133.325 174.814 133.325 175.454C133.325 176.094 133.169 176.67 132.857 177.182C132.545 177.694 132.113 178.094 131.561 178.382C131.017 178.662 130.397 178.802 129.701 178.802C129.085 178.802 128.525 178.702 128.021 178.502C127.525 178.294 127.113 177.998 126.785 177.614L127.853 176.606C128.341 177.11 128.933 177.362 129.629 177.362C130.093 177.362 130.493 177.246 130.829 177.014C131.165 176.782 131.393 176.466 131.513 176.066H128.801V174.782H131.489C131.361 174.398 131.133 174.094 130.805 173.87C130.477 173.646 130.085 173.534 129.629 173.534C128.941 173.534 128.349 173.79 127.853 174.302L126.785 173.306C127.113 172.914 127.525 172.618 128.021 172.418C128.525 172.21 129.085 172.106 129.701 172.106ZM135.675 172.226H137.535V174.746H140.343V172.226H142.215V178.682H140.343V176.27H137.535V178.682H135.675V172.226ZM150.512 173.762H148.328V178.682H146.468V173.762H144.284V172.226H150.512V173.762ZM158.596 175.478C158.596 175.502 158.584 175.67 158.56 175.982H153.676C153.764 176.382 153.972 176.698 154.3 176.93C154.628 177.162 155.036 177.278 155.524 177.278C155.86 177.278 156.156 177.23 156.412 177.134C156.676 177.03 156.92 176.87 157.144 176.654L158.14 177.734C157.532 178.43 156.644 178.778 155.476 178.778C154.748 178.778 154.104 178.638 153.544 178.358C152.984 178.07 152.552 177.674 152.248 177.17C151.944 176.666 151.792 176.094 151.792 175.454C151.792 174.822 151.94 174.254 152.236 173.75C152.54 173.238 152.952 172.842 153.472 172.562C154 172.274 154.588 172.13 155.236 172.13C155.868 172.13 156.44 172.266 156.952 172.538C157.464 172.81 157.864 173.202 158.152 173.714C158.448 174.218 158.596 174.806 158.596 175.478ZM155.248 173.546C154.824 173.546 154.468 173.666 154.18 173.906C153.892 174.146 153.716 174.474 153.652 174.89H156.832C156.768 174.482 156.592 174.158 156.304 173.918C156.016 173.67 155.664 173.546 155.248 173.546ZM164.915 172.13C165.515 172.13 166.059 172.27 166.547 172.55C167.043 172.822 167.431 173.21 167.711 173.714C167.991 174.21 168.131 174.79 168.131 175.454C168.131 176.118 167.991 176.702 167.711 177.206C167.431 177.702 167.043 178.09 166.547 178.37C166.059 178.642 165.515 178.778 164.915 178.778C164.091 178.778 163.443 178.518 162.971 177.998V181.01H161.099V172.226H162.887V172.97C163.351 172.41 164.027 172.13 164.915 172.13ZM164.591 177.242C165.071 177.242 165.463 177.082 165.767 176.762C166.079 176.434 166.235 175.998 166.235 175.454C166.235 174.91 166.079 174.478 165.767 174.158C165.463 173.83 165.071 173.666 164.591 173.666C164.111 173.666 163.715 173.83 163.403 174.158C163.099 174.478 162.947 174.91 162.947 175.454C162.947 175.998 163.099 176.434 163.403 176.762C163.715 177.082 164.111 177.242 164.591 177.242ZM173.547 178.778C172.867 178.778 172.255 178.638 171.711 178.358C171.175 178.07 170.755 177.674 170.451 177.17C170.147 176.666 169.995 176.094 169.995 175.454C169.995 174.814 170.147 174.242 170.451 173.738C170.755 173.234 171.175 172.842 171.711 172.562C172.255 172.274 172.867 172.13 173.547 172.13C174.227 172.13 174.835 172.274 175.371 172.562C175.907 172.842 176.327 173.234 176.631 173.738C176.935 174.242 177.087 174.814 177.087 175.454C177.087 176.094 176.935 176.666 176.631 177.17C176.327 177.674 175.907 178.07 175.371 178.358C174.835 178.638 174.227 178.778 173.547 178.778ZM173.547 177.242C174.027 177.242 174.419 177.082 174.723 176.762C175.035 176.434 175.191 175.998 175.191 175.454C175.191 174.91 175.035 174.478 174.723 174.158C174.419 173.83 174.027 173.666 173.547 173.666C173.067 173.666 172.671 173.83 172.359 174.158C172.047 174.478 171.891 174.91 171.891 175.454C171.891 175.998 172.047 176.434 172.359 176.762C172.671 177.082 173.067 177.242 173.547 177.242ZM185.553 172.226V178.682H183.681V173.762H181.641L181.581 174.902C181.549 175.75 181.469 176.454 181.341 177.014C181.213 177.574 181.005 178.014 180.717 178.334C180.429 178.654 180.029 178.814 179.517 178.814C179.245 178.814 178.921 178.766 178.545 178.67L178.641 177.134C178.769 177.15 178.861 177.158 178.917 177.158C179.197 177.158 179.405 177.058 179.541 176.858C179.685 176.65 179.781 176.39 179.829 176.078C179.877 175.758 179.913 175.338 179.937 174.818L180.033 172.226H185.553ZM191.457 178.778C190.777 178.778 190.165 178.638 189.621 178.358C189.085 178.07 188.665 177.674 188.361 177.17C188.057 176.666 187.905 176.094 187.905 175.454C187.905 174.814 188.057 174.242 188.361 173.738C188.665 173.234 189.085 172.842 189.621 172.562C190.165 172.274 190.777 172.13 191.457 172.13C192.137 172.13 192.745 172.274 193.281 172.562C193.817 172.842 194.237 173.234 194.541 173.738C194.845 174.242 194.997 174.814 194.997 175.454C194.997 176.094 194.845 176.666 194.541 177.17C194.237 177.674 193.817 178.07 193.281 178.358C192.745 178.638 192.137 178.778 191.457 178.778ZM191.457 177.242C191.937 177.242 192.329 177.082 192.633 176.762C192.945 176.434 193.101 175.998 193.101 175.454C193.101 174.91 192.945 174.478 192.633 174.158C192.329 173.83 191.937 173.666 191.457 173.666C190.977 173.666 190.581 173.83 190.269 174.158C189.957 174.478 189.801 174.91 189.801 175.454C189.801 175.998 189.957 176.434 190.269 176.762C190.581 177.082 190.977 177.242 191.457 177.242ZM202.536 173.762H199.224V178.682H197.364V172.226H202.536V173.762ZM207.363 178.778C206.683 178.778 206.071 178.638 205.527 178.358C204.991 178.07 204.571 177.674 204.267 177.17C203.963 176.666 203.811 176.094 203.811 175.454C203.811 174.814 203.963 174.242 204.267 173.738C204.571 173.234 204.991 172.842 205.527 172.562C206.071 172.274 206.683 172.13 207.363 172.13C208.043 172.13 208.651 172.274 209.187 172.562C209.723 172.842 210.143 173.234 210.447 173.738C210.751 174.242 210.903 174.814 210.903 175.454C210.903 176.094 210.751 176.666 210.447 177.17C210.143 177.674 209.723 178.07 209.187 178.358C208.651 178.638 208.043 178.778 207.363 178.778ZM207.363 177.242C207.843 177.242 208.235 177.082 208.539 176.762C208.851 176.434 209.007 175.998 209.007 175.454C209.007 174.91 208.851 174.478 208.539 174.158C208.235 173.83 207.843 173.666 207.363 173.666C206.883 173.666 206.487 173.83 206.175 174.158C205.863 174.478 205.707 174.91 205.707 175.454C205.707 175.998 205.863 176.434 206.175 176.762C206.487 177.082 206.883 177.242 207.363 177.242ZM218.202 175.31C218.962 175.566 219.342 176.078 219.342 176.846C219.342 177.43 219.122 177.882 218.682 178.202C218.242 178.522 217.586 178.682 216.714 178.682H213.27V172.226H216.57C217.378 172.226 218.01 172.374 218.466 172.67C218.922 172.958 219.15 173.366 219.15 173.894C219.15 174.214 219.066 174.498 218.898 174.746C218.738 174.986 218.506 175.174 218.202 175.31ZM214.986 174.878H216.402C217.058 174.878 217.386 174.646 217.386 174.182C217.386 173.726 217.058 173.498 216.402 173.498H214.986V174.878ZM216.558 177.41C217.246 177.41 217.59 177.174 217.59 176.702C217.59 176.454 217.51 176.274 217.35 176.162C217.19 176.042 216.938 175.982 216.594 175.982H214.986V177.41H216.558Z" fill="#8C0000"/>
<path d="M224.471 168.306H223.407V169.682H222.631V168.306H219.519V167.746L222.383 164.082H223.247L220.503 167.618H222.655V166.402H223.407V167.618H224.471V168.306ZM225.643 168.634C225.792 168.634 225.915 168.687 226.011 168.794C226.112 168.895 226.163 169.023 226.163 169.178C226.163 169.258 226.152 169.335 226.131 169.41C226.115 169.485 226.08 169.599 226.027 169.754L225.651 170.866H225.147L225.443 169.674C225.341 169.637 225.259 169.575 225.195 169.49C225.136 169.399 225.107 169.295 225.107 169.178C225.107 169.018 225.157 168.887 225.259 168.786C225.36 168.685 225.488 168.634 225.643 168.634ZM228.519 166.314C229.319 166.314 229.906 166.466 230.279 166.77C230.658 167.069 230.847 167.479 230.847 168.002C230.847 168.333 230.767 168.631 230.607 168.898C230.452 169.159 230.215 169.367 229.895 169.522C229.58 169.671 229.191 169.746 228.727 169.746C228.332 169.746 227.951 169.687 227.583 169.57C227.215 169.447 226.911 169.279 226.671 169.066L227.039 168.434C227.231 168.615 227.476 168.762 227.775 168.874C228.074 168.981 228.388 169.034 228.719 169.034C229.14 169.034 229.466 168.946 229.695 168.77C229.93 168.589 230.047 168.343 230.047 168.034C230.047 167.698 229.919 167.445 229.663 167.274C229.407 167.098 228.97 167.01 228.351 167.01H227.079L227.375 164.082H230.535V164.778H228.047L227.895 166.314H228.519ZM232.049 168.634C232.198 168.634 232.321 168.687 232.417 168.794C232.518 168.895 232.569 169.023 232.569 169.178C232.569 169.258 232.558 169.335 232.537 169.41C232.521 169.485 232.486 169.599 232.433 169.754L232.057 170.866H231.553L231.849 169.674C231.748 169.637 231.665 169.575 231.601 169.49C231.542 169.399 231.513 169.295 231.513 169.178C231.513 169.018 231.564 168.887 231.665 168.786C231.766 168.685 231.894 168.634 232.049 168.634ZM235.648 166.282C236.016 166.282 236.344 166.351 236.632 166.49C236.925 166.629 237.154 166.829 237.32 167.09C237.485 167.346 237.568 167.642 237.568 167.978C237.568 168.33 237.48 168.639 237.304 168.906C237.133 169.173 236.896 169.381 236.592 169.53C236.293 169.674 235.957 169.746 235.584 169.746C234.832 169.746 234.25 169.503 233.84 169.018C233.434 168.533 233.232 167.845 233.232 166.954C233.232 166.33 233.341 165.799 233.56 165.362C233.784 164.919 234.093 164.586 234.488 164.362C234.888 164.133 235.352 164.018 235.88 164.018C236.152 164.018 236.408 164.047 236.648 164.106C236.888 164.159 237.096 164.239 237.272 164.346L236.968 164.97C236.701 164.794 236.344 164.706 235.896 164.706C235.314 164.706 234.858 164.887 234.528 165.25C234.197 165.607 234.032 166.13 234.032 166.818C234.032 166.903 234.034 166.97 234.04 167.018C234.2 166.778 234.418 166.597 234.696 166.474C234.978 166.346 235.296 166.282 235.648 166.282ZM235.552 169.098C235.92 169.098 236.218 168.999 236.448 168.802C236.677 168.605 236.792 168.341 236.792 168.01C236.792 167.679 236.674 167.418 236.44 167.226C236.21 167.029 235.901 166.93 235.512 166.93C235.261 166.93 235.037 166.978 234.84 167.074C234.648 167.17 234.496 167.301 234.384 167.466C234.277 167.631 234.224 167.815 234.224 168.018C234.224 168.215 234.274 168.397 234.376 168.562C234.482 168.722 234.634 168.853 234.832 168.954C235.034 169.05 235.274 169.098 235.552 169.098Z" fill="#8C0000"/>
<path d="M65.6704 225.687L73.2603 219.488L74.3939 220.876L67.9967 226.101L71.2116 230.037L77.6088 224.812L78.7424 226.199L71.1525 232.399L65.6704 225.687Z" fill="#8C0000"/>
<path d="M61.0546 214.88C60.6714 214.261 60.4649 213.626 60.435 212.974C60.4001 212.315 60.5428 211.695 60.8628 211.112C61.1828 210.53 61.6642 210.04 62.307 209.642C62.9498 209.244 63.6071 209.029 64.279 208.997C64.943 208.97 65.5622 209.119 66.1366 209.444C66.7061 209.761 67.1825 210.229 67.5657 210.848C68.0963 211.705 68.2307 212.561 67.9689 213.414L71.0518 211.506L71.9731 212.993L63.3075 218.359L62.4305 216.942L63.2637 216.426C62.8099 216.367 62.397 216.205 62.0252 215.942C61.6484 215.67 61.3249 215.316 61.0546 214.88ZM66.3952 211.803C66.0562 211.256 65.5961 210.921 65.0149 210.797C64.4288 210.666 63.8381 210.785 63.243 211.154C62.6478 211.522 62.2783 211.998 62.1343 212.581C61.9855 213.156 62.0806 213.717 62.4196 214.265C62.6407 214.622 62.923 214.892 63.2665 215.074C63.6021 215.262 63.9722 215.345 64.3769 215.325C64.7817 215.305 65.1824 215.172 65.5792 214.927C65.976 214.681 66.2735 214.382 66.4719 214.028C66.6703 213.675 66.7643 213.304 66.7541 212.915C66.736 212.531 66.6163 212.161 66.3952 211.803Z" fill="#8C0000"/>
<path d="M61.9246 200.309C62.2392 200.997 62.3741 201.684 62.3295 202.372C62.2849 203.059 62.0713 203.681 61.6888 204.235C61.2939 204.786 60.7612 205.214 60.0908 205.521C59.4203 205.828 58.7521 205.949 58.0861 205.884C57.4162 205.811 56.8065 205.566 56.257 205.15C55.7075 204.735 55.2755 204.183 54.961 203.496C54.6425 202.8 54.5056 202.108 54.5502 201.42C54.5949 200.733 54.8104 200.116 55.1968 199.57C55.5793 199.015 56.1058 198.584 56.7762 198.277C57.4467 197.97 58.1211 197.852 58.7995 197.921C59.4655 197.986 60.0732 198.226 60.6227 198.642C61.1722 199.057 61.6061 199.613 61.9246 200.309ZM60.5624 200.933C60.2945 200.347 59.8779 199.953 59.3127 199.749C58.7476 199.546 58.1468 199.59 57.5102 199.881C56.8737 200.172 56.4476 200.598 56.2319 201.159C56.0163 201.719 56.0425 202.293 56.3104 202.878C56.5784 203.464 56.9949 203.858 57.5601 204.062C58.1214 204.256 58.7203 204.208 59.3568 203.917C59.9933 203.626 60.4214 203.204 60.6409 202.652C60.8565 202.091 60.8304 201.518 60.5624 200.933Z" fill="#8C0000"/>
<path d="M50.3585 190.43C50.1425 189.754 50.0988 189.112 50.2274 188.502C50.3471 187.896 50.6193 187.368 51.044 186.919C51.4658 186.46 52.0102 186.125 52.6769 185.912C53.3615 185.693 54.0216 185.658 54.6573 185.808C55.2841 185.96 55.8366 186.278 56.3147 186.762C56.7928 187.247 57.1497 187.858 57.3856 188.595C57.7805 189.831 57.6771 190.918 57.0751 191.855C56.4732 192.792 55.4032 193.506 53.8652 193.998C52.4338 194.455 51.2023 194.511 50.1706 194.164C49.1388 193.818 48.2878 193.056 47.6176 191.879L45.8538 188.798L47.2706 188.081L48.8431 190.885C49.2965 191.69 49.8048 192.238 50.3679 192.529C50.9311 192.819 51.6107 192.876 52.4069 192.7C51.9223 192.502 51.5053 192.209 51.1559 191.821C50.7976 191.436 50.5318 190.972 50.3585 190.43ZM56.0259 188.986C55.8298 188.372 55.4765 187.942 54.966 187.693C54.4438 187.439 53.8759 187.41 53.2625 187.606C52.6491 187.802 52.2168 188.151 51.9656 188.652C51.7115 189.145 51.6825 189.698 51.8786 190.312C52.0775 190.934 52.4247 191.376 52.9203 191.639C53.4159 191.902 53.9704 191.936 54.5838 191.74C55.2062 191.541 55.6518 191.188 55.9208 190.68C56.1869 190.164 56.222 189.599 56.0259 188.986Z" fill="#8C0000"/>
<path d="M47.3683 181.003L47.0421 179.284L51.8837 178.365L46.2722 175.226L45.9747 173.658L53.3197 172.265L53.6459 173.984L48.8043 174.903L54.4132 178.028L54.7133 179.61L47.3683 181.003Z" fill="#8C0000"/>
<path d="M52.5479 163.773C52.5984 164.528 52.481 165.218 52.1956 165.845C51.9102 166.473 51.4904 166.978 50.9361 167.361C50.3719 167.736 49.7219 167.948 48.9862 167.997C48.2506 168.046 47.5828 167.922 46.983 167.626C46.3825 167.32 45.899 166.875 45.5325 166.292C45.166 165.708 44.9575 165.04 44.907 164.285C44.8558 163.522 44.9729 162.826 45.2583 162.199C45.5437 161.572 45.9639 161.071 46.5188 160.697C47.073 160.314 47.718 160.098 48.4537 160.049C49.1894 159.999 49.8621 160.127 50.4719 160.433C51.0717 160.729 51.5549 161.169 51.9214 161.753C52.2879 162.336 52.4967 163.01 52.5479 163.773ZM51.0532 163.873C51.0102 163.231 50.7604 162.714 50.304 162.324C49.8475 161.934 49.2701 161.762 48.5716 161.809C47.8732 161.855 47.3238 162.103 46.9235 162.551C46.5232 162.998 46.3446 163.543 46.3877 164.186C46.4307 164.829 46.6805 165.345 47.1369 165.735C47.5927 166.116 48.1699 166.284 48.8683 166.237C49.5667 166.19 50.1164 165.947 50.5173 165.509C50.9176 165.061 51.0963 164.516 51.0532 163.873Z" fill="#8C0000"/>
<path d="M42.7555 146.628L52.5417 147.148L52.4466 148.937L44.1983 148.499L43.9933 152.358L46.4354 152.572C47.803 152.691 48.9108 152.862 49.7588 153.085C50.5976 153.307 51.2302 153.625 51.6568 154.041C52.0741 154.455 52.2644 155.008 52.2277 155.697C52.2148 155.94 52.1507 156.268 52.0352 156.682L50.4621 156.473C50.5058 156.354 50.5319 156.215 50.5403 156.056C50.5705 155.488 50.2563 155.069 49.5976 154.8C48.9301 154.522 47.8709 154.316 46.4199 154.183L42.373 153.828L42.7555 146.628Z" fill="#8C0000"/>
<path d="M53.7385 139.093C53.611 139.838 53.335 140.482 52.9107 141.025C52.4864 141.568 51.9599 141.96 51.3313 142.203C50.695 142.435 50.0135 142.489 49.2867 142.365C48.56 142.24 47.9397 141.964 47.426 141.535C46.9139 141.097 46.5481 140.551 46.3284 139.898C46.1088 139.245 46.0627 138.546 46.1903 137.801C46.3194 137.046 46.5961 136.398 47.0204 135.855C47.4448 135.312 47.9705 134.924 48.5975 134.69C49.2262 134.448 49.9039 134.388 50.6306 134.513C51.3574 134.637 51.9814 134.919 52.5027 135.359C53.0164 135.788 53.3831 136.328 53.6027 136.982C53.8224 137.635 53.8676 138.338 53.7385 139.093ZM52.262 138.84C52.3706 138.205 52.2488 137.645 51.8965 137.158C51.5441 136.672 51.023 136.37 50.333 136.251C49.643 136.133 49.0511 136.245 48.557 136.587C48.063 136.928 47.7616 137.416 47.653 138.051C47.5444 138.686 47.6662 139.247 48.0185 139.733C48.3724 140.21 48.8943 140.508 49.5843 140.626C50.2743 140.744 50.8655 140.637 51.358 140.304C51.852 139.963 52.1533 139.475 52.262 138.84Z" fill="#8C0000"/>
<path d="M51.3255 122.989L50.2253 126.824L55.985 128.476L55.5024 130.158L48.3163 128.097L49.899 122.579L51.3255 122.989Z" fill="#8C0000"/>
<path d="M56.726 118.998C56.8412 118.693 57.0372 118.477 57.3138 118.352C57.5904 118.227 57.8902 118.225 58.2134 118.347C58.3531 118.4 58.4933 118.478 58.6341 118.581C58.7693 118.672 58.9668 118.836 59.2263 119.073L60.8214 120.438L60.4213 121.499L58.6147 120.219C58.4636 120.382 58.2837 120.489 58.075 120.539C57.8608 120.578 57.6402 120.555 57.4131 120.469C57.09 120.348 56.8659 120.148 56.7408 119.872C56.6156 119.595 56.6107 119.304 56.726 118.998Z" fill="#8C0000"/>
<path d="M59.7704 95.6742L68.2488 100.589L67.35 102.14L60.204 97.9969L57.6552 102.394L64.8012 106.536L63.9025 108.087L55.4241 103.171L59.7704 95.6742Z" fill="#8C0000"/>
<path d="M68.3387 87.4859C68.7842 86.9101 69.3067 86.4943 69.9061 86.2382C70.5113 85.9748 71.1426 85.891 71.8002 85.9868C72.4577 86.0827 73.0854 86.3619 73.6833 86.8246C74.2812 87.2873 74.7126 87.8277 74.9777 88.446C75.2354 89.0584 75.3127 89.6906 75.2095 90.3425C75.112 90.9869 74.8405 91.597 74.3949 92.1728C73.778 92.9699 73.0239 93.3954 72.1326 93.4491L75.0002 95.6683L73.9291 97.0523L65.8689 90.8145L66.8885 89.497L67.6635 90.0968C67.5601 89.6509 67.5668 89.2076 67.6836 88.7669C67.8062 88.3188 68.0245 87.8918 68.3387 87.4859ZM73.0903 91.411C73.4844 90.9017 73.6374 90.3532 73.5492 89.7657C73.4667 89.1708 73.1487 88.6591 72.5951 88.2307C72.0415 87.8023 71.4665 87.6228 70.8699 87.6922C70.279 87.7542 69.7865 88.0398 69.3923 88.5491C69.1353 88.8813 68.9814 89.2402 68.9308 89.6259C68.8728 90.0058 68.924 90.3818 69.0846 90.7539C69.2451 91.126 69.5099 91.4548 69.8789 91.7404C70.248 92.0261 70.6328 92.1999 71.0332 92.262C71.4336 92.324 71.8142 92.2822 72.1748 92.1364C72.5281 91.9849 72.8332 91.7431 73.0903 91.411Z" fill="#8C0000"/>
<path d="M82.1881 83.3008C81.6555 83.8373 81.0596 84.2058 80.4003 84.4062C79.7411 84.6066 79.0845 84.6256 78.4305 84.463C77.7765 84.2872 77.1879 83.9396 76.6646 83.4201C76.1413 82.9007 75.7926 82.3179 75.6187 81.6717C75.4513 81.019 75.4653 80.3623 75.6609 79.7016C75.8565 79.0409 76.2205 78.4423 76.7531 77.9057C77.2923 77.3626 77.8915 76.9908 78.5507 76.7904C79.21 76.5899 79.8633 76.5743 80.5107 76.7435C81.1647 76.9061 81.7533 77.2471 82.2766 77.7666C82.7999 78.286 83.1485 78.8754 83.3225 79.5347C83.4965 80.1809 83.4857 80.8343 83.2902 81.495C83.0946 82.1557 82.7273 82.7576 82.1881 83.3008ZM81.1249 82.2454C81.5786 81.7884 81.8011 81.2596 81.7923 80.659C81.7834 80.0585 81.5306 79.5117 81.0338 79.0185C80.5371 78.5254 79.9884 78.2766 79.3878 78.2722C78.7872 78.2678 78.26 78.4942 77.8063 78.9512C77.3526 79.4083 77.1302 79.9371 77.139 80.5376C77.1544 81.1315 77.4105 81.6751 77.9073 82.1682C78.4041 82.6613 78.9495 82.9134 79.5435 82.9244C80.1441 82.9288 80.6712 82.7025 81.1249 82.2454Z" fill="#8C0000"/>
<path d="M87.6345 68.7503C88.1907 68.3101 88.7766 68.0428 89.3922 67.9484C90.0021 67.8466 90.592 67.9153 91.1622 68.1545C91.7396 68.3878 92.2456 68.7789 92.68 69.3278C93.126 69.8913 93.391 70.4969 93.4751 71.1446C93.5533 71.7849 93.4502 72.414 93.1656 73.032C92.881 73.6501 92.435 74.1994 91.8276 74.6802C90.8103 75.4853 89.7571 75.7713 88.668 75.5382C87.5789 75.3051 86.5334 74.5555 85.5313 73.2893C84.5988 72.111 84.1128 70.9781 84.0733 69.8905C84.0338 68.8029 84.4468 67.738 85.3123 66.696L87.5743 63.9595L88.745 65.0326L86.6747 67.4925C86.0806 68.2007 85.7469 68.8694 85.6737 69.4988C85.6004 70.1281 85.7864 70.7843 86.2318 71.4673C86.2462 70.9441 86.3734 70.4506 86.6135 69.9869C86.8477 69.5159 87.188 69.1037 87.6345 68.7503ZM90.983 73.5453C91.488 73.1457 91.7668 72.6632 91.8193 72.0979C91.8733 71.5195 91.7005 70.9778 91.3009 70.4728C90.9012 69.9679 90.4224 69.6862 89.8644 69.6279C89.3138 69.5638 88.786 69.7316 88.281 70.1312C87.7687 70.5367 87.4768 71.0176 87.4054 71.5741C87.334 72.1305 87.4981 72.6612 87.8977 73.1662C88.3032 73.6785 88.7907 73.9711 89.3602 74.0441C89.9371 74.1113 90.478 73.945 90.983 73.5453Z" fill="#8C0000"/>
<path d="M95.4489 62.6041L96.9438 61.6942L99.5059 65.9039L100.472 59.547L101.835 58.7173L105.722 65.1034L104.227 66.0133L101.665 61.8037L100.711 68.1532L99.3357 68.9903L95.4489 62.6041Z" fill="#8C0000"/>
<path d="M113.436 61.3882C112.747 61.7001 112.059 61.8325 111.372 61.7853C110.684 61.7381 110.064 61.5222 109.51 61.1376C108.962 60.7406 108.535 60.2063 108.231 59.5347C107.927 58.8631 107.808 58.1944 107.875 57.5286C107.951 56.859 108.198 56.2503 108.616 55.7024C109.034 55.1545 109.587 54.7245 110.275 54.4126C110.973 54.0968 111.665 53.9625 112.352 54.0097C113.04 54.0569 113.656 54.2747 114.201 54.6632C114.754 55.0478 115.183 55.5759 115.487 56.2475C115.791 56.9191 115.908 57.594 115.836 58.2721C115.768 58.9379 115.526 59.5447 115.108 60.0926C114.69 60.6405 114.133 61.0724 113.436 61.3882ZM112.817 60.0237C113.404 59.7579 113.8 59.3428 114.005 58.7784C114.211 58.2141 114.169 57.613 113.88 56.9754C113.591 56.3378 113.167 55.9101 112.607 55.6924C112.048 55.4746 111.474 55.4986 110.888 55.7643C110.301 56.0301 109.905 56.4452 109.7 57.0095C109.503 57.5701 109.549 58.1692 109.838 58.8068C110.127 59.4444 110.547 59.874 111.098 60.0956C111.658 60.3134 112.231 60.2894 112.817 60.0237Z" fill="#8C0000"/>
<path d="M125.951 46.2577L128.9 55.6034L127.191 56.1427L124.706 48.2655L121.021 49.4282L121.678 51.79C122.046 53.1124 122.275 54.2098 122.364 55.082C122.451 55.9453 122.375 56.6496 122.135 57.1948C121.894 57.7311 121.443 58.1031 120.785 58.311C120.553 58.384 120.223 58.4392 119.795 58.4766L119.439 56.93C119.566 56.929 119.705 56.9047 119.856 56.857C120.399 56.6857 120.681 56.2445 120.701 55.5334C120.727 54.8106 120.548 53.7466 120.164 52.3412L119.075 48.4272L125.951 46.2577Z" fill="#8C0000"/>
<path d="M136.859 53.9232C136.116 54.0641 135.417 54.0306 134.76 53.8228C134.103 53.6149 133.551 53.2589 133.104 52.7548C132.664 52.2397 132.375 51.62 132.238 50.8955C132.1 50.1711 132.143 49.4933 132.365 48.8622C132.596 48.2293 132.98 47.6958 133.515 47.2618C134.05 46.8278 134.689 46.5403 135.432 46.3994C136.184 46.2567 136.888 46.2893 137.545 46.4972C138.202 46.705 138.749 47.0619 139.187 47.5678C139.634 48.072 139.927 48.6862 140.064 49.4106C140.202 50.1351 140.155 50.8183 139.926 51.4604C139.704 52.0915 139.325 52.6241 138.79 53.0581C138.255 53.4922 137.611 53.7805 136.859 53.9232ZM136.58 52.4514C137.213 52.3314 137.695 52.0213 138.028 51.5212C138.36 51.0211 138.462 50.4272 138.331 49.7395C138.201 49.0517 137.889 48.5361 137.396 48.1926C136.904 47.8491 136.341 47.7373 135.708 47.8574C135.076 47.9774 134.593 48.2875 134.26 48.7876C133.937 49.2859 133.84 49.879 133.971 50.5667C134.101 51.2545 134.408 51.771 134.892 52.1162C135.385 52.4597 135.947 52.5715 136.58 52.4514Z" fill="#8C0000"/>
<path d="M151.081 46.0446L147.103 46.3548L147.569 52.3287L145.824 52.4648L145.243 45.0114L150.965 44.5651L151.081 46.0446Z" fill="#8C0000"/>
<path d="M174.548 48.3362C174.405 49.6162 173.847 50.5775 172.874 51.2201C171.9 51.8627 170.589 52.1248 168.94 52.0063L168.825 53.0359L167.155 52.8494L167.271 51.8198C165.638 51.553 164.413 51.0029 163.595 50.1696C162.786 49.3374 162.454 48.2813 162.597 47.0012C162.739 45.7212 163.297 44.7645 164.269 44.1312C165.252 43.4896 166.569 43.2188 168.22 43.3187L168.33 42.3309L170 42.5173L169.89 43.5052C171.522 43.7721 172.742 44.3263 173.55 45.1678C174.358 46 174.691 47.0561 174.548 48.3362ZM169.099 50.5872C170.221 50.628 171.096 50.444 171.724 50.0352C172.353 49.6171 172.715 48.9814 172.811 48.128C172.906 47.2747 172.688 46.5788 172.156 46.0405C171.634 45.5032 170.825 45.1358 169.73 44.9383L169.099 50.5872ZM164.364 47.1986C164.269 48.0427 164.483 48.7334 165.005 49.2707C165.537 49.809 166.345 50.1857 167.429 50.4007L168.06 44.7518C165.787 44.667 164.555 45.4826 164.364 47.1986Z" fill="#8C0000"/>
<path d="M181.941 55.1211C181.208 54.9368 180.587 54.6122 180.078 54.1475C179.57 53.6828 179.218 53.1277 179.025 52.4823C178.842 51.8301 178.841 51.1465 179.02 50.4314C179.2 49.7164 179.524 49.1192 179.991 48.6399C180.467 48.1629 181.039 47.8399 181.707 47.6711C182.375 47.5022 183.075 47.5099 183.808 47.6942C184.551 47.8808 185.176 48.2065 185.685 48.6712C186.193 49.1359 186.54 49.6899 186.725 50.333C186.919 50.9784 186.926 51.6587 186.746 52.3737C186.566 53.0888 186.237 53.6894 185.759 54.1754C185.292 54.6547 184.725 54.9788 184.057 55.1477C183.389 55.3166 182.683 55.3077 181.941 55.1211ZM182.306 53.6683C182.931 53.8253 183.499 53.7469 184.011 53.4329C184.523 53.1189 184.865 52.6225 185.035 51.9436C185.206 51.2647 185.14 50.6659 184.837 50.1471C184.535 49.6284 184.071 49.2905 183.447 49.1334C182.822 48.9764 182.254 49.0549 181.742 49.3689C181.239 49.6851 180.902 50.1827 180.731 50.8615C180.561 51.5404 180.622 52.1381 180.916 52.6546C181.218 53.1734 181.682 53.5113 182.306 53.6683Z" fill="#8C0000"/>
<path d="M197.963 52.2247C198.641 52.4892 199.188 52.8726 199.603 53.3751C200.027 53.881 200.286 54.4628 200.38 55.1206C200.475 55.7784 200.384 56.4595 200.11 57.1638C199.835 57.8682 199.439 58.435 198.921 58.8641C198.406 59.2846 197.822 59.5376 197.167 59.623C196.522 59.7119 195.86 59.6241 195.181 59.3597C194.242 58.9935 193.621 58.3906 193.317 57.5509L192 60.9292L190.37 60.2936L194.072 50.7977L195.624 51.4029L195.268 52.3159C195.666 52.0906 196.093 51.9716 196.549 51.959C197.014 51.9497 197.485 52.0383 197.963 52.2247ZM195.543 57.8928C196.143 58.1267 196.712 58.1183 197.251 57.8674C197.798 57.62 198.199 57.1702 198.453 56.518C198.707 55.8658 198.717 55.2634 198.482 54.7109C198.255 54.1617 197.842 53.7701 197.242 53.5362C196.85 53.3836 196.462 53.3376 196.078 53.3982C195.697 53.45 195.351 53.6056 195.04 53.8649C194.728 54.1241 194.488 54.4711 194.318 54.9059C194.149 55.3407 194.091 55.7589 194.145 56.1606C194.199 56.5622 194.346 56.9153 194.588 57.22C194.833 57.516 195.152 57.7402 195.543 57.8928Z" fill="#8C0000"/>
<path d="M210.863 60.0503L208.545 58.8323L205.758 64.1364L204.209 63.3223L206.996 58.0182L204.666 56.7937L205.357 55.4801L211.553 58.7367L210.863 60.0503Z" fill="#8C0000"/>
<path d="M220.3 68.8041C220.232 68.9047 220.128 69.0426 219.987 69.2178L215.125 65.9363C214.902 66.4502 214.877 66.9626 215.05 67.4735C215.236 67.9819 215.596 68.4163 216.13 68.7766C216.811 69.236 217.523 69.3902 218.267 69.2391L218.441 70.6574C217.938 70.8021 217.417 70.8159 216.876 70.699C216.336 70.582 215.799 70.3434 215.265 69.9831C214.584 69.5237 214.076 68.9836 213.741 68.363C213.405 67.7425 213.256 67.0957 213.293 66.4229C213.344 65.7475 213.575 65.1043 213.988 64.4931C214.395 63.8897 214.896 63.4395 215.49 63.1426C216.098 62.8432 216.737 62.7226 217.407 62.7807C218.077 62.8389 218.717 63.0742 219.329 63.4867C219.932 63.8939 220.378 64.3922 220.667 64.9815C220.97 65.5682 221.088 66.194 221.022 66.8589C220.969 67.5213 220.728 68.1697 220.3 68.8041ZM218.545 64.6471C218.081 64.3339 217.593 64.2068 217.08 64.266C216.58 64.3227 216.141 64.5558 215.763 64.9653L219.28 67.3383C219.52 66.8478 219.576 66.3563 219.447 65.8637C219.318 65.3712 219.017 64.9656 218.545 64.6471Z" fill="#8C0000"/>
<path d="M223.81 73.437C224.063 73.6438 224.204 73.8982 224.235 74.2003C224.265 74.5023 224.171 74.787 223.952 75.0544C223.858 75.17 223.739 75.278 223.597 75.3785C223.467 75.4777 223.249 75.6124 222.941 75.7826L221.138 76.8587L220.261 76.1408L222.05 74.8372C221.944 74.6422 221.901 74.4376 221.919 74.2235C221.95 74.0081 222.043 73.8065 222.197 73.6186C222.415 73.3513 222.675 73.2025 222.978 73.1722C223.28 73.1419 223.557 73.2302 223.81 73.437Z" fill="#8C0000"/>
<path d="M245.217 84.0242L237.847 90.4833L236.666 89.1356L242.878 83.6915L239.528 79.8695L233.316 85.3137L232.135 83.966L239.505 77.5068L245.217 84.0242Z" fill="#8C0000"/>
<path d="M250.211 94.6613C250.615 95.2667 250.844 95.8942 250.896 96.5439C250.953 97.2014 250.832 97.8266 250.532 98.4197C250.233 99.0127 249.768 99.5191 249.14 99.939C248.511 100.359 247.861 100.596 247.191 100.651C246.528 100.701 245.904 100.573 245.319 100.268C244.739 99.971 244.247 99.5197 243.843 98.9143C243.283 98.076 243.119 97.2258 243.351 96.3636L240.336 98.3774L239.364 96.9221L247.84 91.2618L248.765 92.6472L247.95 93.1915C248.406 93.2351 248.824 93.3823 249.204 93.6331C249.59 93.8917 249.926 94.2344 250.211 94.6613ZM244.979 97.9194C245.337 98.4549 245.808 98.7742 246.394 98.8773C246.984 98.9881 247.57 98.8492 248.152 98.4604C248.734 98.0717 249.087 97.5834 249.211 96.9957C249.34 96.4158 249.226 95.858 248.868 95.3225C248.635 94.9732 248.343 94.7133 247.994 94.5427C247.652 94.3669 247.279 94.2961 246.875 94.33C246.471 94.364 246.076 94.5106 245.687 94.7698C245.299 95.0289 245.012 95.3385 244.826 95.6985C244.64 96.0584 244.559 96.4325 244.583 96.8208C244.614 97.2039 244.746 97.5701 244.979 97.9194Z" fill="#8C0000"/>
<path d="M249.905 109.342C249.567 108.666 249.409 107.983 249.43 107.294C249.451 106.606 249.644 105.978 250.007 105.41C250.383 104.847 250.901 104.401 251.561 104.071C252.22 103.742 252.884 103.598 253.552 103.64C254.224 103.691 254.841 103.914 255.405 104.311C255.968 104.708 256.418 105.244 256.756 105.921C257.098 106.606 257.258 107.292 257.237 107.981C257.216 108.67 257.022 109.294 256.654 109.853C256.291 110.42 255.779 110.869 255.119 111.198C254.46 111.527 253.79 111.669 253.109 111.623C252.442 111.581 251.826 111.361 251.263 110.964C250.699 110.567 250.247 110.027 249.905 109.342ZM251.245 108.673C251.533 109.249 251.963 109.629 252.534 109.813C253.106 109.997 253.705 109.933 254.331 109.62C254.958 109.307 255.369 108.867 255.565 108.299C255.762 107.732 255.716 107.16 255.429 106.584C255.141 106.008 254.711 105.628 254.139 105.444C253.572 105.268 252.975 105.337 252.349 105.649C251.722 105.962 251.309 106.398 251.108 106.957C250.912 107.525 250.957 108.097 251.245 108.673Z" fill="#8C0000"/>
<path d="M261.649 118.38C261.89 119.048 261.958 119.688 261.852 120.302C261.755 120.912 261.502 121.45 261.095 121.915C260.69 122.389 260.159 122.744 259.5 122.982C258.825 123.226 258.166 123.285 257.525 123.16C256.893 123.031 256.329 122.733 255.834 122.267C255.338 121.801 254.958 121.204 254.695 120.475C254.254 119.255 254.317 118.166 254.884 117.207C255.451 116.248 256.493 115.494 258.012 114.946C259.425 114.435 260.654 114.334 261.698 114.642C262.742 114.949 263.62 115.679 264.334 116.83L266.211 119.844L264.822 120.613L263.146 117.869C262.663 117.081 262.135 116.553 261.561 116.284C260.988 116.014 260.307 115.983 259.518 116.188C260.009 116.368 260.437 116.645 260.8 117.02C261.173 117.391 261.456 117.845 261.649 118.38ZM256.039 120.035C256.258 120.64 256.627 121.058 257.147 121.287C257.678 121.522 258.246 121.53 258.852 121.311C259.458 121.092 259.877 120.727 260.109 120.217C260.345 119.715 260.353 119.161 260.134 118.555C259.912 117.941 259.549 117.512 259.044 117.267C258.539 117.023 257.984 117.01 257.378 117.229C256.763 117.451 256.331 117.82 256.081 118.337C255.835 118.863 255.821 119.429 256.039 120.035Z" fill="#8C0000"/>
<path d="M265.129 128.16L265.512 129.868L260.704 130.946L266.416 133.898L266.765 135.455L259.47 137.091L259.088 135.384L263.896 134.305L258.187 131.367L257.835 129.796L265.129 128.16Z" fill="#8C0000"/>
<path d="M260.512 145.313C260.437 144.561 260.531 143.867 260.796 143.231C261.061 142.595 261.464 142.076 262.005 141.675C262.557 141.282 263.199 141.049 263.933 140.975C264.667 140.902 265.338 141.004 265.947 141.28C266.558 141.566 267.055 141.995 267.441 142.566C267.826 143.137 268.057 143.799 268.132 144.551C268.208 145.313 268.114 146.012 267.849 146.648C267.584 147.284 267.181 147.798 266.639 148.19C266.097 148.591 265.46 148.828 264.726 148.902C263.992 148.975 263.316 148.869 262.696 148.584C262.087 148.308 261.59 147.884 261.204 147.312C260.819 146.741 260.588 146.075 260.512 145.313ZM262.002 145.164C262.067 145.805 262.333 146.313 262.802 146.688C263.271 147.063 263.854 147.216 264.55 147.147C265.247 147.077 265.788 146.812 266.173 146.351C266.559 145.89 266.719 145.34 266.655 144.699C266.591 144.058 266.325 143.55 265.856 143.175C265.387 142.809 264.805 142.661 264.109 142.731C263.412 142.8 262.871 143.061 262.484 143.512C262.099 143.973 261.938 144.524 262.002 145.164Z" fill="#8C0000"/>
<path d="M270.923 161.776L261.124 161.612L261.154 159.82L269.413 159.958L269.478 156.095L267.029 155.97C265.658 155.9 264.545 155.77 263.689 155.578C262.843 155.386 262.199 155.091 261.758 154.691C261.326 154.292 261.116 153.747 261.127 153.057C261.131 152.814 261.184 152.483 261.284 152.065L262.864 152.218C262.824 152.338 262.803 152.478 262.801 152.637C262.791 153.206 263.12 153.613 263.788 153.857C264.465 154.111 265.531 154.278 266.986 154.359L271.043 154.567L270.923 161.776Z" fill="#8C0000"/>
<path d="M260.196 170.163C260.299 169.414 260.554 168.761 260.96 168.205C261.367 167.648 261.88 167.238 262.5 166.975C263.129 166.722 263.808 166.646 264.538 166.747C265.269 166.847 265.898 167.103 266.425 167.515C266.951 167.936 267.335 168.469 267.576 169.115C267.817 169.76 267.886 170.457 267.783 171.206C267.679 171.965 267.423 172.622 267.017 173.178C266.611 173.735 266.098 174.14 265.479 174.394C264.859 174.657 264.183 174.739 263.453 174.638C262.722 174.538 262.089 174.276 261.554 173.854C261.026 173.442 260.642 172.914 260.401 172.268C260.16 171.623 260.092 170.921 260.196 170.163ZM261.68 170.367C261.593 171.005 261.733 171.561 262.101 172.036C262.469 172.51 263 172.795 263.693 172.891C264.387 172.986 264.975 172.855 265.457 172.498C265.94 172.14 266.225 171.642 266.313 171.004C266.4 170.366 266.26 169.81 265.892 169.335C265.523 168.87 264.991 168.59 264.298 168.494C263.605 168.399 263.017 168.525 262.536 168.874C262.053 169.231 261.768 169.729 261.68 170.367Z" fill="#8C0000"/>
<path d="M263.317 185.601L264.276 181.727L258.46 180.288L258.88 178.589L266.137 180.385L264.758 185.957L263.317 185.601Z" fill="#8C0000"/>
<path d="M251.594 199.94C251.997 199.037 252.559 198.307 253.278 197.749C254.002 197.203 254.807 196.878 255.692 196.773C256.574 196.676 257.453 196.823 258.331 197.216C259.209 197.608 259.904 198.169 260.416 198.898C260.928 199.628 261.219 200.443 261.287 201.342C261.36 202.254 261.195 203.162 260.791 204.065C260.464 204.798 260.037 205.41 259.511 205.9C258.985 206.391 258.386 206.737 257.714 206.937L257.184 205.413C258.172 205.077 258.877 204.436 259.3 203.491C259.574 202.877 259.683 202.266 259.627 201.659C259.58 201.055 259.379 200.51 259.024 200.024C258.668 199.539 258.188 199.16 257.583 198.89C256.978 198.62 256.376 198.514 255.777 198.574C255.178 198.633 254.634 198.845 254.144 199.209C253.663 199.577 253.285 200.067 253.011 200.681C252.588 201.627 252.586 202.582 253.004 203.545L251.502 204.162C251.202 203.527 251.062 202.846 251.081 202.119C251.095 201.399 251.266 200.673 251.594 199.94Z" fill="#8C0000"/>
<path d="M253.639 217.046C253.194 217.769 252.688 218.324 252.122 218.71C251.551 219.103 250.955 219.306 250.334 219.318C249.712 219.33 249.096 219.148 248.484 218.771C247.88 218.399 247.439 217.931 247.162 217.366C246.893 216.806 246.806 216.182 246.9 215.495C246.99 214.815 247.257 214.114 247.703 213.391L248.862 211.507L246.454 210.024L247.408 208.475L255.753 213.613L253.639 217.046ZM249.058 214.127C248.642 214.802 248.469 215.403 248.54 215.929C248.611 216.455 248.913 216.881 249.445 217.209C249.978 217.537 250.495 217.614 250.996 217.441C251.498 217.267 251.956 216.843 252.372 216.167L253.488 214.355L250.174 212.315L249.058 214.127Z" fill="#8C0000"/>
<path d="M241.294 224.605L242.436 223.187L239.219 220.597L240.342 219.201L247.976 225.347L246.852 226.742L243.657 224.17L242.481 225.632L243.911 230.396L242.7 231.901L241.101 226.318L234.987 225.854L236.278 224.25L241.294 224.605Z" fill="#8C0000"/>
</svg>
