<svg width="106" height="106" viewBox="0 0 106 106" fill="none" xmlns="http://www.w3.org/2000/svg">
<g clip-path="url(#clip0)">
<path d="M60.9429 97.3005C36.2903 101.647 12.6995 85.1259 8.35257 60.4733C6.27544 48.618 8.98597 36.4229 15.8895 26.5637C22.7929 16.7045 33.3255 9.98648 45.1763 7.88361C69.8358 3.53546 93.4225 20.0541 97.7694 44.7067C99.8458 56.5628 97.1346 68.7583 90.2308 78.6181C83.3269 88.4778 72.7941 95.1966 60.9429 97.3005V97.3005ZM45.4923 9.67576C37.0037 11.1725 29.1497 15.1528 22.9234 21.1134C16.697 27.0739 12.378 34.747 10.5126 43.1622C8.64719 51.5774 9.3191 60.3568 12.4434 68.3901C15.5676 76.4234 21.0039 83.3499 28.0648 88.2935C35.1257 93.2371 43.4939 95.9759 52.1114 96.1635C60.7288 96.3511 69.2084 93.9791 76.4777 89.3474C83.747 84.7157 89.4796 78.0324 92.9505 70.1427C96.4214 62.2529 97.4747 53.5111 95.9773 45.0227C93.9581 33.6467 87.5087 23.5362 78.0441 16.9096C68.5795 10.2829 56.8727 7.68141 45.4923 9.67576V9.67576Z" fill="#8C0000"/>
<path d="M57.6094 96.9179C58.1125 97.2733 58.2073 97.2422 58.5238 96.6815C58.1582 96.4559 57.9322 96.7178 57.6094 96.9179Z" fill="#8C0000"/>
<path d="M59.5505 96.5327C59.6656 96.4939 59.7767 96.4443 59.8825 96.3847C59.7545 95.9632 60.3676 95.744 60.1566 95.5628L59.0096 95.8008C59.7918 96.0533 59.4083 96.3966 59.5505 96.5327Z" fill="#8C0000"/>
<path d="M58.9888 95.8043L59.0097 95.8006C59.0097 95.8006 58.9882 95.8008 58.9888 95.8043Z" fill="#8C0000"/>
<path d="M59.1366 96.2977C59.1425 96.6153 59.1447 96.8513 59.1496 97.1226C59.5573 97.0185 59.5423 96.7705 59.5505 96.5327C59.4622 96.4587 59.5723 96.5145 59.1366 96.2977Z" fill="#8C0000"/>
<path d="M55.4603 97.5656C55.5352 97.5846 55.6421 97.4798 55.7367 97.4273C55.5517 96.9264 55.6138 97.0551 55.4893 96.9588C55.0834 96.9516 55.079 97.4753 55.4603 97.5656Z" fill="#8C0000"/>
<path d="M78.563 89.0187C78.4277 89.1249 78.1914 89.206 78.2266 89.5686C78.234 89.6103 78.4128 89.6898 78.4311 89.6722C78.7188 89.3744 78.6114 89.2931 78.563 89.0187Z" fill="#8C0000"/>
<path d="M45.6807 78.9202L45.5691 78.8787L45.5184 78.938L45.6807 78.9202Z" fill="#8C0000"/>
<path d="M43.0243 98.4871L43.0273 98.4827L43.0236 98.4834L43.0243 98.4871Z" fill="#8C0000"/>
<path d="M82.6432 81.3844L82.4695 81.5625C82.5152 81.5591 82.5581 81.5391 82.5901 81.5063C82.6221 81.4735 82.6409 81.4301 82.6432 81.3844V81.3844Z" fill="#8C0000"/>
<path d="M29.8937 15.0228L30.3662 15.1436L30.4568 14.9056C30.2139 14.7264 30.0588 14.8218 29.8937 15.0228Z" fill="#8C0000"/>
<path d="M46.6078 95.9819C46.6029 95.9541 46.5665 95.9104 46.5024 95.8107L46.1601 96.1647C46.4664 96.2969 46.5685 96.1858 46.6078 95.9819Z" fill="#8C0000"/>
<path d="M41.7945 78.5952L41.8542 78.6279C41.8486 78.5965 41.8328 78.5884 41.7945 78.5952Z" fill="#8C0000"/>
<path d="M14.3451 73.6409C14.3534 73.8508 14.2748 73.8109 14.7541 73.7264C14.7365 73.5863 14.8168 73.6151 14.3451 73.6409Z" fill="#8C0000"/>
<path d="M15.8489 26.6632L16.2514 26.9146C16.3873 26.4466 16.0434 26.629 15.8489 26.6632Z" fill="#8C0000"/>
<path d="M21.5776 21.4776C21.4679 21.3429 21.5513 21.3282 21.237 21.577C21.3543 21.7139 21.2779 21.7274 21.5776 21.4776Z" fill="#8C0000"/>
<path d="M20.8056 22.4407C21.1339 22.5762 21.0326 22.5904 21.1807 22.3745C20.8244 22.2833 20.927 22.276 20.8056 22.4407Z" fill="#8C0000"/>
<path d="M36.4712 90.4252C36.5332 90.3891 36.5773 90.3741 36.5911 90.3501L36.3764 90.2549L36.4712 90.4252Z" fill="#8C0000"/>
<path d="M35.8813 71.9284L35.8265 71.8625L35.8055 71.8662L35.8813 71.9284Z" fill="#8C0000"/>
<path d="M9.25457 63.355C9.36037 63.5691 9.38898 63.4674 9.52261 63.3722C9.46634 63.3317 9.40401 63.3004 9.33793 63.2794C9.31117 63.2698 9.24926 63.3452 9.25457 63.355Z" fill="#8C0000"/>
<path d="M93.4989 33.3839C93.0423 33.2925 93.132 33.334 93.1337 33.2012C93.5868 33.2323 93.5145 33.1878 93.4989 33.3839Z" fill="#8C0000"/>
<path d="M97.2884 59.9326C97.4116 59.8392 98.3552 58.996 97.2724 57.912L96.7423 58.3385C97.0216 58.6224 97.2541 58.8643 97.569 59.1883L96.5549 59.3672C96.83 60.0134 96.6725 59.9123 97.2884 59.9326Z" fill="#8C0000"/>
<path d="M94.4647 36.0785C94.5429 36.319 94.6092 36.5329 94.6774 36.7572L95.2401 36.658C94.9067 36.595 94.985 35.9223 94.4647 36.0785Z" fill="#8C0000"/>
<path d="M77.627 15.2256L77.0872 14.9878C77.1093 15.2954 77.1264 15.5144 77.147 15.7328C77.3979 15.7746 77.2933 15.8718 77.627 15.2256Z" fill="#8C0000"/>
<path d="M93.2739 69.3964C93.2448 69.6379 93.1351 69.5641 93.8749 69.6772C93.6694 69.2837 93.5103 69.1936 93.2739 69.3964Z" fill="#8C0000"/>
<path d="M95.8394 62.215C95.5605 62.4002 95.5605 62.4002 95.5329 62.8527C95.9041 62.6834 95.9395 62.4981 95.8394 62.215Z" fill="#8C0000"/>
<path d="M92.6551 32.0718C92.8363 31.9826 92.6354 31.4522 92.132 31.8059C92.2657 32.0366 92.3891 32.2082 92.6551 32.0718Z" fill="#8C0000"/>
<path d="M78.6386 15.3982L78.2563 15.7485C78.6249 15.8483 78.7487 15.7584 78.6386 15.3982Z" fill="#8C0000"/>
<path d="M30.0242 13.5488C30.2688 13.717 30.1235 13.7462 30.6081 13.3671C30.1767 13.2963 30.3168 13.2179 30.0242 13.5488Z" fill="#8C0000"/>
<path d="M97.5954 57.6724C97.5185 57.8865 97.464 57.8209 97.881 57.9515C97.9196 57.7441 97.9944 57.8026 97.5954 57.6724Z" fill="#8C0000"/>
<path d="M88.5509 26.3027L88.8366 26.0338C88.5161 25.922 88.5161 25.922 88.5509 26.3027Z" fill="#8C0000"/>
<path d="M67.092 10.0106C66.877 10.0306 66.9028 9.93295 66.9295 10.4296C67.1538 10.4223 67.1111 10.505 67.092 10.0106Z" fill="#8C0000"/>
<path d="M76.3907 63.5782L76.3755 63.6349L76.4171 63.6059L76.3907 63.5782Z" fill="#8C0000"/>
<path d="M91.4902 37.7527C91.3893 37.8196 91.2741 37.862 91.1539 37.8765C91.2404 37.7574 91.2863 37.5917 91.3656 37.4524C90.7325 35.858 89.9983 34.3057 89.1674 32.8049C88.7518 33.0071 88.6312 32.6273 88.5574 32.5543L88.5123 32.5623C88.5296 32.5592 88.5435 32.5568 88.5574 32.5543L89.0171 32.5413C88.8508 32.2483 88.6852 31.9588 88.5056 31.6717L88.2121 31.5301C88.1943 31.4294 88.1988 31.2925 88.1958 31.1534C85.1259 26.166 81.0281 21.8904 76.1755 18.6116C76.1516 18.6516 76.1429 18.6989 76.151 18.7449C76.1591 18.7908 76.1835 18.8323 76.2196 18.8617C76.3212 18.9906 76.2459 19.2546 76.2547 19.5073C75.8095 19.4604 75.5496 19.5707 75.4858 20.001C75.4678 20.1223 75.2995 20.2236 75.1407 20.4199C74.7085 19.6546 75.1773 19.0025 75.1533 18.2977C75.4593 18.4084 75.5318 18.4136 75.6411 18.2618C69.6585 14.3582 62.7634 12.078 55.6331 11.645C48.5027 11.2121 41.3824 12.6414 34.9714 15.7925C34.925 15.8544 34.8319 15.9353 34.7162 16.0917C34.6006 16.2482 34.3915 16.525 34.1221 16.3576C34.0843 16.3348 34.0486 16.3087 34.0152 16.2798C32.0662 17.3021 30.2033 18.4809 28.4449 19.8046C28.5899 19.9056 28.7621 19.9601 28.9388 19.961C29.1155 19.9618 29.2882 19.9089 29.4341 19.8092C29.7386 19.6266 30.1496 19.8048 30.4547 19.504C30.5529 19.4114 30.859 19.5222 30.8632 19.79C30.8578 20.0088 30.8401 20.2272 30.8102 20.444C30.45 20.4323 30.1554 20.6096 29.8782 20.3576C29.8437 20.3243 29.6698 20.3944 29.5944 20.4542C29.0618 20.9063 29.7202 20.8833 27.521 20.5763L27.5136 20.5346C21.9952 24.9376 17.7025 30.6865 15.0485 37.2283C12.3944 43.7702 11.4684 50.8849 12.3594 57.8881C13.2503 64.8914 15.9284 71.5476 20.1359 77.2165C24.3434 82.8853 29.9388 87.3762 36.384 90.2571L36.3049 90.1135C36.3373 90.0928 36.3712 90.0749 36.4065 90.0598C36.5783 90.2622 36.6269 90.3145 36.5977 90.3519C37.4982 90.747 38.4137 91.112 39.3441 91.4469L39.5685 91.1961C39.6562 91.2256 39.7314 91.2838 39.7821 91.3612C39.8328 91.4387 39.856 91.5309 39.8479 91.6231C45.4599 93.5493 51.4236 94.2317 57.3256 93.623L57.9431 93.2455C57.9639 93.3636 58.006 93.4601 58.0317 93.545C58.7893 93.4544 59.5466 93.3424 60.3107 93.2077C68.3594 91.7992 75.8027 88.0148 81.683 82.3413L81.5908 82.2859C81.6718 82.24 81.7581 82.2044 81.8478 82.1797L82.4555 81.5641L82.3791 81.5775L82.2848 81.0427C82.4182 81.1087 82.5663 81.1363 82.5931 81.2067C82.6176 81.2649 82.6287 81.3278 82.6255 81.3908C88.1242 75.7293 91.8811 68.6077 93.4496 60.8729C95.0182 53.1381 94.3323 45.1155 91.4735 37.7592L91.4902 37.7527ZM90.244 34.8891L89.7025 35.2102C89.7864 34.8731 89.7864 34.8731 90.244 34.8891ZM89.7353 36.4112C89.7722 36.7628 89.8182 36.7189 89.5324 36.6619L89.7353 36.4112L89.7316 36.3904C89.7316 36.3904 89.7467 36.3949 89.7359 36.4147L89.7353 36.4112ZM90.2625 38.467C89.9499 38.5221 89.9499 38.5221 89.9428 37.9539L90.2625 38.467ZM88.9465 34.903C89.151 35.0066 89.1644 35.1439 89.0163 35.2989C88.7486 35.5682 88.5852 35.5755 88.2467 35.3415L88.9465 34.903ZM88.4509 35.9716C88.503 36.1451 88.5587 36.3394 88.6235 36.5643L87.4663 36.643C87.8473 36.5293 87.8292 35.8377 88.4521 35.9786L88.4509 35.9716ZM87.9933 34.5339C87.5426 34.5776 87.6147 34.6006 87.6184 34.4388C88.0583 34.415 87.9821 34.389 87.9945 34.5408L87.9933 34.5339ZM88.4008 37.8606C88.5953 37.7045 88.7555 37.7192 88.934 38.0817C88.2882 38.0344 88.3856 38.0996 88.4014 37.864L88.4008 37.8606ZM89.0892 38.6166C89.0542 38.7839 89.1137 38.7555 88.8943 38.7297C88.9192 38.6071 88.862 38.628 89.0904 38.6235L89.0892 38.6166ZM88.5276 32.5273C88.3462 32.5951 88.1803 32.5886 88.1368 32.342C88.5816 32.1024 88.4802 32.6037 88.5288 32.5343L88.5276 32.5273ZM88.7531 34.314L87.8758 34.1929C87.911 34.047 87.9294 33.9686 87.9596 33.8558L87.3817 33.7464L88.1532 33.349C88.3446 33.6626 88.5188 33.9399 88.7543 34.3209L88.7531 34.314ZM87.7013 33.203L87.3532 32.9958C87.5063 32.8077 87.5669 32.7254 87.5882 32.7037C87.3745 32.7915 87.1602 32.8759 87.0689 32.3584C87.4726 32.6167 87.5608 32.6906 87.5882 32.7037C87.8963 32.7855 87.7941 32.9575 87.7013 33.203ZM86.5511 28.711C86.5905 29.1982 86.5905 29.1982 86.1161 29.4323L86.5511 28.711ZM86.4045 34.2769C86.8948 34.1331 86.8896 34.5709 87.0261 34.8369C88.2351 34.7885 87.8494 34.6524 88.0446 35.3736C88.1167 35.6402 88.0315 35.7662 87.781 35.7065C87.583 35.6849 87.3957 35.6057 87.2422 35.4787C87.0887 35.3518 86.9758 35.1826 86.9174 34.9922C86.4654 35.2115 86.4982 34.8083 86.4045 34.2769ZM87.131 38.2349L86.6692 37.6466C88.1403 37.7238 88.3336 37.6217 87.1316 38.2383L87.131 38.2349ZM88.1289 39.2837C87.8965 39.5502 88.0363 39.5507 87.6251 39.351C87.7591 39.1161 87.6247 39.1255 88.1295 39.2871L88.1289 39.2837ZM81.6367 35.8338C81.4745 36.1525 81.585 36.1294 81.2432 35.9784C81.4292 35.7128 81.3503 35.7733 81.6367 35.8338ZM81.4397 36.5848C82.0674 36.8752 81.7938 37.6182 82.3131 38.0244C81.516 38.2974 81.5142 37.9826 81.2693 36.776C81.2529 36.7036 81.3769 36.6352 81.4397 36.5848V36.5848ZM82.5418 40.276C82.2999 39.9605 82.3181 40.0433 82.4176 39.9577C82.6874 40.2288 82.6752 40.1594 82.5399 40.2656L82.5418 40.276ZM83.5994 46.2742C83.6754 46.5831 83.3932 46.6686 83.2081 46.9591C83.1405 46.3121 83.1405 46.3121 83.5976 46.2637L83.5994 46.2742ZM82.7693 44.8162C82.9709 45.1065 82.9589 44.9976 82.8144 45.2344C82.5413 44.9853 82.5893 45.095 82.7675 44.8057L82.7693 44.8162ZM78.6456 25.2883C78.2478 25.4694 78.1704 25.0712 77.9803 24.8863C78.2559 24.9058 78.5842 24.8586 78.6438 25.2778L78.6456 25.2883ZM80.3253 37.7589C80.4675 37.4688 80.5946 37.4178 80.7823 37.7106L80.3253 37.7589ZM82.2873 47.2611C82.0832 47.0787 81.8103 46.9119 82.1023 46.5775C82.2083 46.6487 82.286 46.7548 82.322 46.8773C82.358 46.9998 82.35 47.1311 82.2993 47.2483L82.2873 47.2611ZM83.9903 54.6854C83.8434 54.7333 83.6926 54.7683 83.5396 54.79C83.3588 54.3742 82.6967 54.6199 82.6154 54.1185C82.537 53.6739 83.1007 53.3167 83.0982 54.216C83.957 54.3547 83.6917 54.251 83.9884 54.675L83.9903 54.6854ZM83.4447 55.308C82.5958 55.4291 82.4803 56.0332 82.4958 56.0197C82.4514 56.026 82.4061 56.0203 82.3645 56.0034C82.3229 55.9864 82.2866 55.9587 82.2592 55.9231C82.2318 55.8876 82.2144 55.8454 82.2086 55.8008C82.2029 55.7563 82.209 55.7111 82.2264 55.6697C82.3012 55.3628 83.0278 54.9339 83.3191 55.0222C83.3837 55.0431 83.4084 55.2034 83.4482 55.3074L83.4447 55.308ZM82.2097 52.8328L82.1764 52.8064C82.1151 52.4591 82.2324 52.2307 82.6899 52.1644C82.6013 52.4951 82.6036 52.792 82.2097 52.8328ZM82.0366 50.3887C82.0396 50.4061 82.0366 50.3887 82.0366 50.3887C82.0402 50.5922 82.0404 50.7963 82.041 51.0433C81.671 50.976 81.727 50.7047 81.6181 50.4733C81.8335 50.4353 82.0002 50.4059 82.0384 50.3992C82.0317 50.3609 81.963 50.2155 81.7623 49.7065C82.1364 49.2896 82.5575 50.1751 82.0366 50.3887ZM81.6716 48.0143C81.4072 47.8962 81.3958 47.7299 81.5705 47.4412C81.8404 47.6515 81.9282 47.8043 81.6698 48.0039L81.6716 48.0143ZM77.2381 22.9723C77.0912 23.317 77.1441 23.2718 77.0015 23.2146C77.0937 22.8438 77.0373 22.8896 77.2381 22.9723ZM76.4161 19.7116C76.6108 20.5725 76.3671 20.7946 75.4465 20.631L76.4161 19.7116ZM76.2151 25.3551C76.2401 25.5212 76.2078 25.6908 76.1233 25.8359C76.0388 25.9811 75.9073 26.093 75.7506 26.1533C75.5184 26.1757 75.2858 26.1152 75.0939 25.9826C74.9021 25.8499 74.7634 25.6536 74.7024 25.4285C74.4928 24.2801 75.9513 24.0014 76.2151 25.3551V25.3551ZM80.4975 53.7041C79.7929 53.6278 80.3084 53.0785 80.4745 53.1674C80.756 53.3219 80.6105 53.5123 80.4906 53.7053L80.4975 53.7041ZM80.6084 54.3327L80.262 55.11C80.0974 54.4407 80.0974 54.4407 80.6049 54.3333L80.6084 54.3327ZM78.8808 48.7392C78.8433 48.9535 78.9498 48.9276 78.3702 48.8292C78.5952 48.5818 78.7459 48.5839 78.8773 48.7398L78.8808 48.7392ZM78.7662 52.7202C78.7419 52.42 78.7287 52.2433 78.713 52.0527C79.1598 52.2103 79.1598 52.2103 78.7627 52.7208L78.7662 52.7202ZM76.6809 39.8376C76.5519 40.0608 76.6492 40.0437 76.344 39.9578C76.4263 39.775 76.3291 39.7922 76.6929 39.8247L76.6809 39.8376ZM76.9097 43.9585C77.7153 44.0385 77.5913 43.9852 77.6656 44.1833L77.2128 44.6213C76.8337 44.5019 77.0106 44.2057 76.9044 43.9487L76.9097 43.9585ZM77.6441 46.3358C77.6297 46.5389 77.6183 46.677 77.5974 46.9242C77.3709 46.6347 77.307 46.4956 77.6357 46.3087L77.6441 46.3358ZM72.2815 25.1642L72.1758 25.8238C72.013 25.4694 72.013 25.4694 72.2815 25.1642ZM73.7866 38.3711C73.6143 38.9172 73.4234 39.0332 72.796 38.9683C72.9236 38.4731 73.134 38.3465 73.7866 38.3711ZM70.0447 27.4673C69.9775 27.7156 70.1344 27.6915 69.2259 27.4541C69.3414 27.358 69.4875 27.3064 69.6377 27.3088C69.788 27.3113 69.9324 27.3675 70.0447 27.4673V27.4673ZM69.1329 28.9173L69.5546 28.8716C69.4561 29.1862 69.2859 29.0945 69.136 29.0565C69.061 29.0374 69.1131 28.9674 69.1329 28.9173ZM68.2375 24.631C67.9181 24.6479 67.9182 24.6479 67.7535 24.4048C68.0489 24.3742 68.0489 24.3742 68.2375 24.631V24.631ZM67.7119 26.8294C67.3993 26.8845 67.4622 26.9164 67.4216 26.7875C67.7091 26.6508 67.6451 26.6335 67.7119 26.8294ZM65.3982 18.0338C66.006 18.1093 65.9161 18.0463 65.8554 18.3113C65.3036 18.0863 65.3708 18.1425 65.3964 18.0234L65.3982 18.0338ZM66.024 19.227L65.6571 18.9336C65.947 18.9326 65.947 18.9326 66.0222 19.2166L66.024 19.227ZM67.216 27.6116C67.2319 27.8237 67.2989 27.9193 67.022 27.9538C67.1132 27.5366 67.0599 27.5997 67.2196 27.6324L67.216 27.6116ZM66.0951 23.5906C65.882 23.8646 65.9627 23.8145 65.765 23.7491C65.9311 23.4727 65.8447 23.5309 66.0951 23.5906ZM66.4001 26.5593C66.2361 26.4414 66.2289 26.543 66.3597 26.2083C66.5591 26.3845 66.5634 26.287 66.4001 26.5593V26.5593ZM65.4881 24.1489C65.6027 24.3113 65.6486 24.2065 65.1893 24.6277C65.0876 24.2338 65.2838 24.1885 65.4881 24.1489V24.1489ZM63.2076 20.2536C62.7618 20.6294 62.8695 20.6105 62.7034 20.3998C63.1833 20.0752 63.0722 20.0948 63.2176 20.2697L63.2076 20.2536ZM64.877 26.0651C64.4628 26.6001 64.4628 26.6001 64.1175 26.2671L64.877 26.0651ZM61.1004 23.6978C61.1933 23.8999 61.2844 24.0915 61.3733 24.2907C60.7898 24.3936 60.4035 24.1931 60.2951 23.5784C60.4342 23.5144 60.2473 23.4901 61.1004 23.6978ZM60.5038 24.376C60.4475 24.5649 60.5356 24.5566 60.1613 24.465C60.1989 24.333 60.1278 24.3563 60.5091 24.3858L60.5038 24.376ZM57.8195 12.3618L57.4197 12.5111C57.3858 12.1768 57.5411 12.2855 57.8248 12.3716L57.8195 12.3618ZM53.1096 13.7187C52.8136 13.6849 52.8774 13.4373 52.8917 13.356L52.8674 13.3603C52.8978 13.3299 52.899 13.3368 52.8917 13.356C53.0753 13.4024 53.2486 13.4507 53.1096 13.7187ZM54.3428 19.2705L53.8714 19.6437C53.9992 19.2308 53.836 18.8334 53.9968 18.4255C54.1077 18.6888 54.2152 18.9528 54.3463 19.2699L54.3428 19.2705ZM52.8625 13.3325L52.8798 13.3295C52.8798 13.3295 52.8798 13.3295 52.8625 13.3325L52.3317 13.3688C52.7555 12.9288 52.8175 13.3011 52.8625 13.3325ZM53.5781 21.1279C53.0358 21.5458 53.152 21.5146 53.0223 21.3476C53.1018 21.1689 53.1999 20.994 53.5793 21.1348L53.5781 21.1279ZM51.1265 16.5465C51.5459 16.691 51.4989 16.6277 51.4421 16.8132C50.981 16.7369 51.0431 16.8048 51.1265 16.5465V16.5465ZM51.2893 19.5009C51.327 19.4949 51.3656 19.4979 51.4019 19.5097C51.4227 19.6278 51.4441 19.7494 51.4631 19.8571L51.2263 19.8343C51.2515 19.7332 51.284 19.6129 51.3032 19.4985L51.2893 19.5009ZM51.5396 20.7782L51.2693 21.1339L50.5663 20.6204C50.8826 20.4644 50.8826 20.4644 51.5535 20.7758L51.5396 20.7782ZM47.1559 24.0258C46.8098 24.2766 46.8903 24.266 46.781 24.1134C47.1451 23.863 47.0646 23.8736 47.1698 24.0233L47.1559 24.0258ZM44.902 19.8751C45.4561 19.8491 45.3709 19.7925 45.3319 20.0787C44.8191 19.9936 44.9141 20.0449 44.9159 19.8727L44.902 19.8751ZM43.6187 22.0818C43.6099 22.4988 43.4299 22.5341 43.1917 22.483C43.1127 22.2785 43.0317 22.3679 43.6326 22.0794L43.6187 22.0818ZM44.0416 23.7083C44.0453 23.7291 43.9768 23.8486 43.9617 23.8441C43.6698 23.7524 43.7662 23.7103 43.8353 23.5334C43.917 23.5794 43.9913 23.6375 44.0555 23.7058L44.0416 23.7083ZM43.2338 24.1229C43.0501 24.32 43.144 24.3249 42.8864 24.1841C43.0223 24.0205 42.9285 24.0371 43.2476 24.1205L43.2338 24.1229ZM40.4047 21.9502C40.4693 21.971 40.5163 22.0344 40.6168 22.1169L40.3985 22.2807C40.3519 22.2169 40.3164 22.1457 40.2934 22.0701C40.3011 22.0329 40.3959 21.941 40.4186 21.9477L40.4047 21.9502ZM39.0077 17.4801C39.1413 17.5676 39.1507 17.5194 38.9505 17.6836C38.8902 17.5653 38.8676 17.6194 39.0216 17.4777L39.0077 17.4801ZM40.3282 24.2986C40.0483 24.2548 39.8657 24.1331 39.984 23.8293C40.076 23.6197 40.7673 23.7019 40.3421 24.2962L40.3282 24.2986ZM39.3127 21.9923C39.2944 21.8881 39.2447 21.9112 39.486 21.6753C39.5152 21.6965 39.5422 21.7205 39.5667 21.747C39.5301 21.8296 39.4822 21.9067 39.4245 21.9762C39.4038 22.0013 39.3342 21.9921 39.3133 21.9958C39.3189 22.0271 39.3354 22.1208 39.3488 22.3799C39.0974 22.2129 39.0933 22.2101 39.3133 21.9958C39.3166 21.9737 39.3185 21.9842 39.3266 21.9899L39.3127 21.9923ZM39.5696 25.7037L39.9676 25.4222C40.0461 25.6232 40.1067 25.7844 40.159 25.9185L39.1607 26.492C38.9739 25.7371 38.0153 25.5408 38.1342 24.6103C39.4867 24.1569 39.0413 24.2713 39.8025 24.2624C39.9189 24.9223 39.124 24.7401 38.9519 25.2468L39.5696 25.7037ZM38.2872 20.157L38.9377 20.0888C38.7215 20.4063 38.5671 20.3834 38.2872 20.157V20.157ZM37.739 19.079L38.3274 19.0039C38.1668 19.3724 38.0117 19.4678 37.8013 19.3509C37.7598 19.3189 37.7729 19.1697 37.7529 19.0766L37.739 19.079ZM38.9268 22.0174C38.7844 22.3469 38.7819 22.2721 38.0101 22.2005C38.5483 21.5362 39.0141 21.8624 38.9407 22.015L38.9268 22.0174ZM37.6792 22.9035C37.6287 22.9082 37.5778 22.9013 37.5303 22.8832C37.4829 22.8651 37.4403 22.8364 37.4057 22.7993C37.3711 22.7621 37.3455 22.7175 37.3309 22.6689C37.3163 22.6203 37.313 22.569 37.3214 22.5189C37.319 22.0789 37.6448 22.1396 37.9682 22.1256C38.0764 22.658 37.9904 22.8808 37.6931 22.901L37.6792 22.9035ZM37.8831 26.0906C37.6804 26.3627 37.7576 26.3132 37.5443 26.2004C37.7611 25.9473 37.6804 25.9974 37.915 26.0885L37.8831 26.0906ZM37.2897 24.1468C37.3911 24.3 37.4558 24.4746 37.4787 24.6569C37.5015 24.8393 37.4819 25.0244 37.4213 25.1979C37.3678 24.8743 37.0238 24.6091 37.3215 24.1448L37.2897 24.1468ZM37.2499 23.3731C37.4114 23.0295 37.5599 23.1 37.725 23.2034C37.7601 23.4228 37.8559 23.3773 37.2818 23.3711L37.2499 23.3731ZM37.3169 19.3862L36.5775 19.2552C36.6308 19.1994 36.6969 19.1575 36.7701 19.1331C36.8432 19.1088 36.9213 19.1027 36.9973 19.1154C37.0734 19.1281 37.1452 19.1593 37.2064 19.2061C37.2677 19.253 37.3166 19.3141 37.3488 19.3842L37.3169 19.3862ZM36.4184 16.3216C36.0073 16.5087 35.7489 16.2212 35.3998 16.0894C35.8951 15.6081 36.0957 15.6694 36.4345 16.3116L36.4184 16.3216ZM36.2459 19.9332C36.5954 20.4123 36.3766 20.2682 37.0777 20.5887C36.4412 21.0411 36.1374 21.0446 35.6907 20.6434C35.7557 20.3419 36.3663 20.4133 35.9913 19.8097L36.2459 19.9332ZM35.588 18.8423C35.3694 18.9682 35.1232 19.0383 34.8711 19.0465C34.619 19.0547 34.3687 19.0008 34.1423 18.8895C34.7122 18.567 35.8266 17.6973 35.6023 18.8219L35.588 18.8423ZM34.0902 22.5336L34.1993 21.9342C33.4437 21.5482 33.9342 21.3041 34.5517 20.8658C35.031 20.7813 34.8473 21.2828 35.0844 21.4093C35.3216 21.5358 35.5242 21.6898 35.7271 21.8045C35.4234 22.5599 34.8132 22.5315 34.1149 22.5113L34.0902 22.5336ZM36.5491 27.1566C35.5622 27.6529 35.806 27.6135 35.4961 27.2778L36.0625 26.7124L36.5491 27.1566ZM33.2741 18.7382C33.2649 18.5035 33.1199 18.5541 34.0868 18.5949C33.772 18.9011 33.5419 18.734 33.3162 18.7129L33.2741 18.7382ZM33.9566 18.0592C34.6414 17.8812 34.6512 17.9367 34.6486 17.6579C34.6646 17.2611 35.1722 17.4187 35.0643 17.7815C34.8928 18.3525 34.6035 18.4179 33.9566 18.0592C33.856 17.9767 33.6896 17.9058 33.6765 17.8114C33.678 17.7252 33.6607 17.6397 33.6257 17.5609C33.5907 17.482 33.539 17.4118 33.4741 17.355C33.4092 17.2983 33.3327 17.2564 33.2499 17.2323C33.1671 17.2081 33.0801 17.2024 32.9948 17.2153C33.8507 16.9104 34.1168 17.1607 33.9986 18.0339L33.9566 18.0592ZM33.7871 22.7446L34.3332 23.0387L33.738 23.5017C33.7996 23.1399 33.8131 22.9728 33.8286 22.7158L33.7871 22.7446ZM33.7666 29.3304C33.7736 29.1465 33.7783 28.9702 33.7828 28.7725C34.1181 28.8458 34.1181 28.8458 33.7666 29.3304ZM31.7873 17.9225C31.5066 18.0973 31.6 18.0987 31.4265 17.9073C31.6854 17.7506 31.5881 17.7678 31.7873 17.9225V17.9225ZM31.0212 20.5643C31.2348 20.3942 31.5375 20.8314 31.1254 21.033C30.9593 20.8833 30.7691 20.7592 31.0374 20.5543L31.0212 20.5643ZM32.0239 23.7932C31.9158 24.0128 32.0821 24.0014 31.1685 23.7149C31.6319 23.4792 31.3937 23.4281 32.0227 23.7863L32.0239 23.7932ZM32.4284 27.1025C32.2909 26.9119 32.2633 26.9991 32.4629 26.7706C32.6682 26.96 32.6693 26.8846 32.4271 27.0956L32.4284 27.1025ZM31.6998 26.017C31.8832 26.0419 32.1061 25.9453 32.13 26.2634L31.2964 26.4104C31.3886 26.1614 31.427 25.9935 31.6998 26.017ZM29.392 23.2868L29.1031 24.9385C28.9886 24.8329 28.8823 24.7188 28.785 24.5971C28.0471 23.438 28.2975 23.5586 29.3938 23.2972L29.392 23.2868ZM27.675 20.9216C27.763 21.0959 27.8035 21.0207 27.5368 21.2146C27.4357 21.0677 27.4114 21.1328 27.6768 20.932L27.675 20.9216ZM27.9536 22.5019C27.9992 22.5977 28.0414 22.6547 28.0294 22.6676C27.9125 22.8171 27.9125 22.8171 27.5736 22.7229L27.9536 22.5019ZM28.8426 28.1323C28.9468 28.1139 29.0787 28.2124 29.3085 28.2972L28.6094 28.7393C28.7081 28.4461 28.5475 28.2058 28.8426 28.1323ZM26.929 21.2C27.312 21.8487 27.2969 21.7224 27.1269 21.8348C26.9136 21.7219 26.6438 21.6335 26.929 21.2ZM29.1324 35.727C29.7472 35.6186 29.6391 35.5947 29.6859 35.7583C29.0956 35.9448 29.192 35.9636 29.1359 35.7264L29.1324 35.727ZM29.4743 38.1735C29.8216 38.1123 29.775 38.0918 29.8018 38.2232C31.455 34.5714 33.9609 31.37 37.1086 28.8879L37.053 28.8977C38.0121 28.4063 37.1853 27.048 38.908 26.8052C38.2231 27.1659 38.1593 27.7179 38.0957 28.1696C41.2713 25.915 44.9347 24.4428 48.7874 23.8731C52.64 23.3033 56.5728 23.652 60.2651 24.8908C60.4414 24.652 60.4095 24.7149 60.5429 24.8418L60.4495 24.9621C65.1387 26.5825 69.2395 29.562 72.2295 33.521L70.7256 33.7862C67.3955 29.6198 62.7441 26.7137 57.5394 25.5479C52.3347 24.3821 46.888 25.0263 42.0988 27.3742C42.195 27.4933 42.1258 27.527 41.8342 27.6608L41.8784 27.4847C36.3716 30.2574 32.1766 35.0851 30.1994 40.9249L28.692 41.1907C29.0017 40.1908 29.3718 39.2107 29.8003 38.2557C29.4679 38.3608 29.5255 38.3829 29.4906 38.185L29.4743 38.1735ZM74.8725 52.207C74.7961 52.2577 74.715 52.3008 74.6302 52.3357C74.6129 52.3388 74.5383 52.2409 74.5508 52.21C74.5626 52.1829 74.5807 52.1589 74.6035 52.14C74.6262 52.1211 74.6531 52.1077 74.6819 52.101C74.7236 52.0936 74.7747 52.1598 74.8785 52.2203L74.8725 52.207ZM74.9897 63.0265C74.734 62.8961 74.7613 62.9701 74.9107 62.7002C75.1342 62.8506 75.123 62.7667 74.9852 63.0416L74.9897 63.0265ZM73.8619 62.0937C73.6253 62.336 73.7185 62.316 73.5146 62.155C73.7198 61.9577 73.6297 61.995 73.8574 62.1089L73.8619 62.0937ZM68.0038 31.6125C67.9289 31.6617 67.848 31.7013 67.7631 31.7301C67.7388 31.7344 67.6643 31.6365 67.6716 31.6173C67.7707 31.428 67.8961 31.5706 67.9999 31.6311L68.0038 31.6125ZM72.5576 59.6522C72.2281 59.5706 72.2761 59.6195 72.3092 59.4417C72.6573 59.588 72.5954 59.5417 72.5537 59.6708L72.5576 59.6522ZM69.3772 45.6771C69.3844 45.5146 69.3159 45.3297 69.5832 45.2611C69.6185 45.2987 69.6417 45.346 69.6498 45.3969C69.6579 45.4478 69.6506 45.4999 69.6287 45.5466C69.6068 45.5933 69.5715 45.6323 69.5272 45.6587C69.4829 45.685 69.4317 45.6975 69.3802 45.6944L69.3772 45.6771ZM69.3772 45.6771C69.3857 46.2127 69.4413 46.142 69.2106 46.0932C69.3927 45.6636 69.368 45.6858 69.3884 45.7001L69.3772 45.6771ZM70.6252 63.8642C71.0348 63.6487 70.9455 63.6501 71.033 63.8209C70.6256 64.0288 70.7091 64.0356 70.6364 63.8872L70.6252 63.8642ZM70.8365 64.5145C70.6214 64.3304 70.62 64.4237 70.7753 64.1672C70.9056 64.2767 70.896 64.1817 70.8478 64.5376L70.8365 64.5145ZM69.8449 59.9264L70.2376 59.2698C70.3475 59.6694 70.2043 59.7914 69.8561 59.9495L69.8449 59.9264ZM66.1635 45.8928C66.7511 45.5492 66.6318 45.5631 66.7401 45.7302C66.1913 46.1314 66.3147 46.1204 66.1748 45.9158L66.1635 45.8928ZM70.2334 68.8323C69.9863 68.6896 70.002 68.8193 70.1032 68.3574C70.392 68.6145 70.3873 68.4864 70.2447 68.8553L70.2334 68.8323ZM70.9801 71.0355C71.468 70.817 71.3369 71.3737 71.6952 71.4967C71.0682 71.7183 71.0682 71.7183 70.9948 71.058L70.9801 71.0355ZM66.1228 42.1684C66.3795 41.5931 66.4338 41.5764 66.9216 42.0275L66.1228 42.1684ZM67.2441 63.4146C67.0962 63.165 67.0339 63.2583 67.5857 62.9963C67.6787 63.1983 67.7555 63.106 67.2441 63.4146ZM69.1096 71.8416L68.8087 71.5366C69.07 71.5156 69.07 71.5156 69.1061 71.8422L69.1096 71.8416ZM65.6286 61.4219C65.3748 61.6887 65.4824 61.6697 65.2324 61.5311C65.3895 61.285 65.3019 61.3362 65.6251 61.4225L65.6286 61.4219ZM63.1234 50.1998C62.971 50.087 62.9659 50.1595 63.0756 49.9289C63.2942 50.0515 63.2797 49.9896 63.1234 50.1998ZM60.7975 34.6737L58.7653 33.9935L57.0917 35.3272L57.1063 33.1759L55.3221 31.9936L57.3576 31.3518L57.9285 29.2886L58.2522 29.7436C58.4224 29.6527 58.3867 29.6734 58.4433 29.7708L58.3233 29.8421L59.1706 31.0321L61.3029 30.939L60.0307 32.6603L60.7975 34.6737ZM64.3971 61.1806C64.2191 61.0652 64.2488 61.1316 64.3203 60.9077C64.5282 61.0716 64.5119 60.9992 64.4157 61.1845L64.3971 61.1806ZM63.6949 62.6617L63.1692 63.1125C63.1872 62.7476 63.1872 62.7476 63.7135 62.6656L63.6949 62.6617ZM63.2986 61.206C63.397 61.3785 63.4503 61.3153 63.1067 61.5192C63.0158 61.349 62.9816 61.4195 63.3171 61.2099L63.2986 61.206ZM64.3201 65.3949L63.5474 65.2984C63.953 64.8974 63.953 64.8974 64.3362 65.3849L64.3201 65.3949ZM63.3206 70.4702C63.0419 70.4942 62.7953 70.5377 62.6958 70.1971C62.9079 69.8768 63.2001 70.1727 63.453 70.0636C63.7059 69.9546 63.5712 69.3731 64.0798 69.6988C63.9862 70.1021 63.8264 70.4347 63.3391 70.4741L63.3206 70.4702ZM63.8133 70.6447L63.4355 70.8582C63.4362 70.5572 63.4362 70.5572 63.8319 70.6486L63.8133 70.6447ZM62.1225 66.6204C62.0953 66.8114 62.0767 66.9293 62.0537 67.0837C61.0881 66.7455 61.2102 66.7884 62.1411 66.6243L62.1225 66.6204ZM62.3658 69.4424L61.8181 69.2812C62.0901 69.0362 62.0901 69.0362 62.3838 69.4428L62.3658 69.4424ZM54.0301 74.1818C54.5002 74.3496 54.4467 74.2695 54.3273 74.5269C53.9237 74.2686 53.9702 74.35 54.0481 74.1822L54.0301 74.1818ZM54.1852 75.3255L54.0394 75.4121C53.9399 75.0715 53.7617 75.239 53.4861 75.4022C53.8536 74.4601 53.8049 74.5295 54.2032 75.3259L54.1852 75.3255ZM54.1323 73.8272C53.9976 73.2457 54.0245 73.2159 54.6504 72.9265C54.3396 73.2355 54.6676 73.7149 54.1503 73.8276L54.1323 73.8272ZM52.2687 72.7018L54.0648 70.2758L53.0079 67.4504L55.8696 68.4069L58.2281 66.53L58.2048 69.5458L60.7189 71.2118L57.8422 72.1202L57.0369 75.0268L55.2825 72.5715L52.2687 72.7018ZM53.9585 79.4623C53.8956 79.6131 53.9483 79.6074 53.7522 79.5309C53.8108 79.4168 53.7518 79.4272 53.9585 79.4623ZM50.6976 75.5107L51.3284 76.1838L51.8992 75.9685C51.8628 76.2292 51.8316 76.4174 51.8037 76.6049L52.6795 77.3064C52.5366 77.5321 52.3879 77.6837 52.0941 77.5206C50.8991 76.8361 51.0833 77.0077 50.072 77.0607C50.153 76.8494 50.2227 76.676 50.322 76.4472C49.3681 76.379 49.3036 76.4799 50.7046 75.5095L50.6976 75.5107ZM47.354 71.212C46.989 70.8072 46.989 70.8072 47.663 70.649L47.354 71.212ZM48.2536 75.3186C48.275 75.4401 48.2513 75.5696 48.2485 75.6955C48.0143 75.6472 48.0158 75.7365 48.1455 75.2946C48.1849 75.2952 48.2239 75.3029 48.2606 75.3173L48.2536 75.3186ZM45.0209 69.9832C45.2055 69.5675 44.7301 69.2073 44.9014 68.6148C45.5278 69.7506 45.1916 69.5091 46.355 69.791L46.3654 69.9718C45.8702 70.1486 46.2328 70.1742 45.0279 69.982L45.0209 69.9832ZM46.5653 71.9384C46.3239 72.0311 46.0723 72.3512 45.74 71.8476L46.5653 71.9384ZM42.754 71.7904C43.1499 71.7205 43.2279 71.8787 43.291 72.0538L43.8033 71.7092C43.8662 71.8628 43.9072 71.9738 43.944 72.0604C43.6107 72.2015 42.9888 72.5332 43.2383 72.1204C43.224 72.1408 43.1666 72.0793 42.7609 71.7891L42.754 71.7904ZM41.2471 74.3946C42.1367 73.6719 42.0585 74.5487 42.5531 73.6772L43.4272 74.0853C41.1236 74.7709 41.6575 74.691 41.2471 74.3946ZM42.6686 77.2165C42.3636 77.5174 42.4088 77.1442 42.3203 77.0488L42.6686 77.2165ZM39.8211 64.3573C40.0129 63.9833 40.1984 64.0401 40.3972 64.1519C40.4137 64.3674 40.514 64.3068 39.8072 64.3598L39.8211 64.3573ZM41.7134 70.946C41.2964 71.1198 41.3875 71.1288 41.3003 70.9795C41.7003 70.7299 41.6139 70.7272 41.7134 70.946ZM41.2753 72.5238C40.9086 72.7997 40.996 72.7879 40.8725 72.5948C41.2799 72.3869 41.1975 72.3871 41.2753 72.5238ZM39.9423 60.9016L40.6473 60.6555C40.4963 61.1191 40.3178 61.0002 39.9596 60.8986L39.9423 60.9016ZM42.3939 69.2002L42.7641 69.7151C42.6629 69.8726 42.7879 69.8505 42.1185 69.7501L42.3939 69.2002ZM44.3136 75.802C45.2118 75.067 45.2981 74.8656 45.668 75.2373C45.1952 75.5821 44.2849 76.3908 44.331 75.7989L44.3136 75.802ZM44.4772 73.338C44.8973 73.0598 44.7866 73.0614 44.9232 73.288C44.4809 73.4806 44.5742 73.482 44.4946 73.3349L44.4772 73.338ZM44.6869 72.6993L44.8366 72.0248L45.4306 72.2459C45.2771 72.7564 45.2771 72.7564 44.7043 72.6963L44.6869 72.6993ZM39.7857 43.7253C40.0229 43.4866 39.9363 43.5233 40.1245 43.6155C39.9755 43.8674 40.0603 43.8202 39.8031 43.7223L39.7857 43.7253ZM42.1267 45.7299L41.5253 45.7714C41.7917 45.3126 41.7917 45.3126 42.1441 45.7268L42.1267 45.7299ZM40.7474 39.065C41.016 39.451 41.0101 39.3768 40.8607 39.464C40.6013 39.0693 40.616 39.1526 40.7474 39.065ZM47.9814 76.0291L48.132 76.8835C47.4255 77.5882 47.3832 76.1095 47.9814 76.0291V76.0291ZM46.5941 69.1973L46.6743 68.6567C46.9143 68.84 47.0079 68.9847 46.5802 69.1998L46.5941 69.1973ZM47.1226 67.8686C47.0446 68.0758 46.9886 68.2253 46.8776 68.5099C46.7077 68.1352 46.6348 67.9045 47.1087 67.8711L47.1226 67.8686ZM41.418 37.0595L39.7444 38.3931L39.759 36.2419L37.9748 35.0595L40.0103 34.4177L40.5812 32.3546L41.8268 34.0974L43.9591 34.0043L42.6869 35.7256L43.4398 37.7415L41.418 37.0595ZM39.6885 30.3382C39.6456 30.0951 39.6326 29.8789 39.5967 29.5737C39.7777 29.7674 39.9053 29.9025 40.1026 30.1076L39.6885 30.3382ZM40.353 32.0761C40.1157 31.8064 40.1343 31.8711 40.2354 31.7745C40.4805 32.007 40.462 31.9423 40.3414 32.071L40.353 32.0761ZM42.2767 29.6419C42.4477 29.6977 42.3829 29.5945 42.611 30.2992L41.8714 30.512L41.9178 30.1457C42.2921 30.2372 42.3005 29.96 42.265 29.6368L42.2767 29.6419ZM41.7347 28.0508C42.3347 28.1025 42.1097 28.5934 42.3129 28.8119C42.371 28.8768 42.2594 29.097 42.2283 29.2458C42.0214 29.1892 42.1112 29.3738 41.723 28.0456L41.7347 28.0508ZM43.2611 31.7925C43.1066 31.9522 43.0251 32.0991 42.956 32.0934C42.8898 32.0877 42.8254 32.0685 42.7668 32.0369C42.7083 32.0053 42.6569 31.9621 42.6157 31.9099C42.581 31.8551 42.7091 31.6069 42.7485 31.6071C42.9215 31.649 43.0895 31.7094 43.2494 31.7874L43.2611 31.7925ZM44.513 29.0829C44.8887 27.9638 44.7364 28.1159 45.1828 28.1088L45.0767 29.0909L44.5077 29.073C44.5695 29.1177 44.6196 29.1766 44.6538 29.2447C44.6879 29.3129 44.705 29.3883 44.7037 29.4646C44.7023 29.5408 44.6826 29.6156 44.6461 29.6825C44.6096 29.7494 44.5574 29.8066 44.4941 29.849C44.2757 29.8696 44.1509 29.4869 43.8743 29.6646C43.8743 29.6646 43.6906 29.4964 43.7039 29.4296C43.8014 28.9469 44.5161 29.1611 44.5103 29.1084C44.5046 29.0557 44.5103 29.1084 44.5103 29.1084L44.513 29.0829ZM48.123 31.8054L48.9318 28.8982L50.6827 31.3541L53.6884 31.218L51.8957 33.6434L52.9491 36.4694L50.0909 35.5123L47.7289 37.3899L47.7557 34.3734L45.727 33.0229C45.7288 33.0393 45.7317 33.0556 45.7356 33.0716C45.5387 32.9702 45.3429 32.8758 45.0365 32.7221C45.198 32.6843 45.3615 32.6555 45.5262 32.6358L48.123 31.8054ZM46.7473 30.2789C46.9963 30.0058 46.9269 30.0181 47.056 30.1815C46.7521 30.3676 46.8181 30.356 46.7356 30.2738L46.7473 30.2789ZM48.8691 27.6487C49.045 27.4887 48.9627 27.4889 49.1867 27.7037C48.9943 27.8307 49.0723 27.8671 48.858 27.647L48.8691 27.6487ZM52.6658 28.648C52.6948 28.4074 52.7868 28.1788 52.9325 27.9852C53.0782 27.7916 53.2725 27.6399 53.4956 27.5455C53.3381 27.9314 53.3112 28.4089 52.6542 28.6429L52.6658 28.648ZM58.1509 62.1316C57.8639 62.0067 57.8537 61.8474 58.0615 61.6245C58.3068 61.7567 58.3101 61.9173 58.1393 62.1265L58.1509 62.1316ZM54.5161 56.6487C54.1345 56.5155 54.1866 56.5672 54.2404 56.4252C54.5999 56.5552 54.5646 56.4969 54.5045 56.6436L54.5161 56.6487ZM52.8083 69.1007C52.65 68.9747 52.6457 69.0721 52.7471 68.7534C52.9424 68.9267 52.9495 68.8251 52.7967 69.0956L52.8083 69.1007ZM51.5834 67.3936C51.944 67.0829 51.7991 67.155 52.1225 67.141C52.0706 67.476 51.9 67.4631 51.5717 67.3885L51.5834 67.3936ZM52.2826 70.8515C52.1735 71.2683 52.0057 71.3122 51.8012 71.2085C51.7616 71.1869 51.7626 70.9897 51.762 70.9863C51.9275 70.9246 52.0967 70.8732 52.2685 70.8325L52.2826 70.8515ZM44.7035 32.5803C44.504 32.4436 44.3035 32.3428 44.4625 32.1071C44.6215 31.8713 44.7419 31.6603 45.0759 31.9094C44.9561 32.1239 44.8456 32.3296 44.7035 32.5803ZM44.8969 33.0475C44.5907 33.3415 44.4377 33.2252 44.2354 32.9314L44.8969 33.0475ZM44.5612 33.6009C44.8823 34.1424 43.8747 34.2162 43.6239 33.6266L44.5612 33.6009ZM51.9076 75.8131C51.5559 75.585 51.6783 75.345 51.8128 75.0312C52.0677 75.3802 52.0677 75.3802 51.9076 75.8131ZM47.8399 62.1269C47.6758 62.6787 47.6457 62.6911 47.2697 62.3456L47.8399 62.1269ZM43.7115 42.7753C43.6733 42.3559 44.227 42.1042 44.2713 42.741C44.2915 42.8557 44.1889 42.9848 44.091 43.242C43.8841 43.0027 43.7049 42.8803 43.698 42.7598L43.7115 42.7753ZM50.3344 75.0555C50.8068 74.6678 51.1268 74.2891 51.4181 74.8644C50.6408 75.5136 50.4178 75.0408 50.3344 75.0555C50.3298 75.0563 50.3251 75.0553 50.3213 75.0526C50.3174 75.0499 50.3148 75.0458 50.314 75.0412L50.3344 75.0555ZM49.8957 75.5733C49.8656 75.38 49.8834 75.1821 49.9476 74.9972C50.0118 74.8123 50.1204 74.646 50.2638 74.5129C50.316 75.1948 50.4109 74.9203 49.8823 75.5578L49.8957 75.5733ZM43.626 36.2583C43.7341 36.0996 43.6442 36.0976 43.9524 36.2008C43.7647 36.395 43.8599 36.4069 43.6125 36.2428L43.626 36.2583ZM47.28 63.0744C47.2688 63.1001 47.2516 63.1227 47.2297 63.1403C47.2079 63.1579 47.1821 63.1699 47.1545 63.1753C47.1163 63.182 47.0739 63.1035 47.0346 63.0639L47.1754 62.9281C47.2089 62.9759 47.2743 63.0216 47.2665 63.0588L47.28 63.0744ZM48.7651 71.6794C48.7118 71.5599 48.5949 71.405 48.6344 71.3444C48.7341 71.1585 48.9106 71.1847 49.1183 71.388L48.7669 71.6899L48.77 71.7072L48.7491 71.7109C48.5709 72.1219 48.564 72.1232 47.9433 72.0356C48.039 71.4207 48.4668 71.7141 48.7516 71.6639L48.7651 71.6794ZM49.8114 73.8155C49.8259 74.0601 49.8403 74.3046 49.8579 74.5665C49.5032 74.5861 49.2123 74.6016 49.1506 74.2114C49.1025 73.9584 49.3268 73.8294 49.7979 73.8L49.8114 73.8155ZM51.3692 70.4646L51.9848 70.5029C51.7337 70.805 51.5335 70.7258 51.3488 70.4503L51.3692 70.4646ZM53.0677 75.6085C52.8948 75.9076 52.8094 76.0122 52.5056 75.833L53.0677 75.6085ZM59.8308 68.0845C60.0518 67.5907 60.0986 67.2673 60.5249 67.5324C59.8827 68.2365 60.0131 68.1634 59.8308 68.0845ZM60.0358 64.9614C60.8544 65.014 60.8928 65.0287 61.4607 65.4264C61.4302 65.5786 61.521 65.4838 61.1452 65.79C60.9021 65.4067 60.9963 65.5548 60.8039 65.2557C60.2118 65.31 60.4245 65.3584 60.0497 64.959L60.0358 64.9614ZM60.9915 64.7356C60.9903 64.7718 60.9846 64.8077 60.9745 64.8424C60.588 64.8031 60.6491 64.8246 60.7047 64.6322C60.814 64.663 60.9123 64.6923 61.0054 64.7331L60.9915 64.7356ZM60.6859 63.1242C60.6204 62.7526 60.7873 62.562 61.1567 62.3823C61.1789 62.9549 61.1789 62.9549 60.6998 63.1218L60.6859 63.1242ZM60.4611 63.8801C60.2125 63.7091 60.1957 63.8374 60.4769 63.3401C60.7743 63.4632 60.7651 63.3502 60.4788 63.8591L60.4611 63.8801ZM56.6862 36.5411C56.685 36.5133 56.691 36.4857 56.7035 36.4609C56.7161 36.4361 56.7348 36.415 56.7579 36.3995C56.7868 36.3961 56.816 36.4 56.843 36.4109C56.87 36.4218 56.8937 36.4393 56.9121 36.4618C56.9182 36.4966 56.8841 36.567 56.8582 36.6432C56.8001 36.5783 56.7258 36.5627 56.7039 36.52L56.6862 36.5411ZM62.6338 65.0118C62.4704 64.7147 62.4809 64.7738 62.5379 64.6706C62.9015 64.8643 62.9152 64.7796 62.6338 65.0118C62.7615 65.3904 62.8375 65.334 62.3024 65.1634C62.3088 65.0369 62.2483 65.0798 62.6338 65.0118ZM62.4023 63.699C63.0116 63.5593 62.9013 63.5429 62.9664 63.689C62.7147 63.8659 62.853 63.8379 62.4397 63.8499L62.4023 63.699ZM61.7829 63.5575C62.1995 63.4017 62.1119 63.3921 62.1713 63.5463C61.7611 63.6366 61.8342 63.6451 61.8007 63.5365L61.7829 63.5575ZM58.3187 42.8139C57.9457 42.4857 57.8795 42.2324 57.9556 41.4454C58.1069 41.6354 58.2188 41.8537 58.2846 42.0874C58.3504 42.3212 58.3689 42.5657 58.3389 42.8067L58.3187 42.8139ZM58.1536 38.2627L58.7324 38.0926C58.6269 38.4084 58.507 38.4797 58.1536 38.2627ZM59.09 27.569C59.4761 27.4436 59.3971 27.4217 59.4569 27.6189C59.0401 27.6924 59.1094 27.7196 59.0726 27.572L59.09 27.569ZM64.6886 48.3123C64.7193 48.3124 64.7494 48.3206 64.776 48.336C64.8026 48.3515 64.8247 48.3736 64.8401 48.4001C64.9126 48.7097 64.6617 48.7897 64.5064 48.9245C64.4456 48.8636 64.4176 48.8471 64.4221 48.832C64.4335 48.633 64.3854 48.3801 64.6712 48.3153L64.6886 48.3123ZM64.5303 43.1905C64.6102 43.0619 64.6836 42.9294 64.7504 42.7935C65.187 43.0353 64.7528 43.2945 64.7979 43.53C63.8387 43.6956 64.1644 43.7349 64.513 43.1935L64.5303 43.1905ZM64.8002 43.5225C65.2589 43.1587 65.1052 43.2216 65.5021 43.4417C65.2069 43.7981 65.3897 43.8196 64.8002 43.5225ZM69.7968 70.9863C70.2206 71.3592 70.181 71.2767 70.087 71.3935C69.5898 71.1123 69.6423 71.2069 69.7794 70.9894L69.7968 70.9863ZM68.6889 63.4643C68.9036 63.2402 68.8094 63.2747 69.0963 63.439C68.7651 63.6729 68.8756 63.6498 68.6854 63.4649L68.6889 63.4643ZM39.4047 71.2779L38.8116 70.5338C39.5963 70.1913 39.5963 70.1913 39.923 70.3378L39.4047 71.2779ZM40.0082 71.9379C39.8514 72.1052 39.908 72.0809 39.7879 72.009C39.8913 71.8439 39.8323 71.8543 39.9908 71.941L40.0082 71.9379ZM35.0546 68.3993L35.4704 68.2795L35.8476 69.0581C35.4954 69.0916 35.3697 68.9884 35.0546 68.3993ZM35.4938 70.2199C35.077 70.2934 35.1526 70.3159 35.1263 70.1665C35.5224 70.0573 35.444 70.0389 35.4991 70.2297L35.4938 70.2199ZM31.2226 46.2201C31.3368 45.9134 31.3768 46.0389 31.6222 46.1711C31.5437 46.2298 31.4562 46.2755 31.3631 46.3063C31.3198 46.3247 31.2193 46.2421 31.2244 46.2305L31.2226 46.2201ZM32.0705 48.4699C32.0619 48.4213 32.1132 48.3263 32.1392 48.2501L32.6062 48.4614C32.3487 48.6465 32.1845 48.6898 32.0724 48.4804L32.0705 48.4699ZM31.1854 40.5254C30.7552 40.279 30.8081 40.1121 31.1462 39.8161C31.1617 40.107 31.1725 40.2699 31.1872 40.5359L31.1854 40.5254ZM33.6748 53.283C33.4552 53.6011 33.5254 53.5529 33.3465 53.452C33.5598 53.1386 33.4928 53.1647 33.6767 53.2935L33.6748 53.283ZM37.2483 71.5185L37.7077 71.0364L37.1587 70.9291C37.1514 70.8874 37.1422 70.8353 37.1779 70.8147C37.4007 70.6357 37.6246 70.5246 37.8885 70.7825C38.1524 71.0403 38.3762 70.6034 38.5706 70.9344C39.0802 71.7935 38.6422 72.254 38.3608 72.7906C38.3371 72.8428 38.301 72.8884 38.2558 72.9235C38.2105 72.9587 38.1573 72.9822 38.1009 72.9922C38.0444 73.0021 37.9864 72.9982 37.9318 72.9807C37.8773 72.9631 37.8278 72.9326 37.7877 72.8917C37.4139 72.5995 36.8894 72.5093 36.7676 71.9399C36.7461 71.8183 36.5516 71.7309 36.4389 71.6397C36.6535 71.2115 36.9723 71.517 37.2675 71.5258L37.2483 71.5185ZM36.4794 66.5079C36.6648 66.1171 36.5847 66.1707 36.8384 66.2692C36.6155 66.6702 36.6974 66.6271 36.4986 66.5153L36.4794 66.5079ZM36.6734 64.6832C36.7467 64.5306 36.7629 64.3988 36.8315 64.3616C37.1593 64.1892 37.1725 64.4268 37.2754 64.7059L36.6734 64.6832ZM37.2239 65.0839C37.1872 64.8755 37.8044 64.5374 38.1121 64.3328C38.4336 64.5518 38.5118 64.8532 38.3461 65.4769C37.7657 65.4145 37.2704 65.4087 37.2425 65.0878L37.2239 65.0839ZM33.8968 68.2919C33.5587 68.1617 33.5581 68.1583 33.5508 67.8122C33.7717 67.9272 34.0248 67.9614 33.8968 68.2919C34.3206 68.2172 34.264 68.1198 34.3535 68.2616C33.8476 68.6623 33.9393 68.6748 33.9154 68.2958L33.8968 68.2919ZM34.3908 70.0169L33.7949 69.7245C34.149 69.5797 34.2871 69.652 34.4094 70.0208L34.3908 70.0169ZM34.6347 69.0034C34.5313 69.2902 34.5989 69.2676 34.3576 69.1382C34.584 68.9192 34.5137 68.9674 34.6533 69.0073L34.6347 69.0034ZM30.591 46.9438C30.5243 46.3826 30.4751 45.9615 30.4259 45.5405C30.5777 45.6767 30.7006 45.8421 30.7873 46.0267C30.874 46.2114 30.9227 46.4115 30.9306 46.6154C30.9551 46.6934 30.7814 46.7849 30.6096 46.9477L30.591 46.9438ZM29.4164 42.8213C28.9277 43.0758 29.0333 43.0858 28.9085 42.8858C29.3625 42.5766 29.2528 42.5637 29.4164 42.8213ZM24.4753 24.6694C25.634 25.3103 25.4626 25.2116 25.1088 25.0734L24.6866 25.685C24.4399 25.5853 24.5876 25.083 24.4753 24.6694ZM26.0279 26.9956L25.6166 27.5265C25.5445 27.1381 25.5445 27.1381 26.0279 26.9956ZM27.6137 41.2089C27.7755 41.1518 27.9849 41.2831 28.2004 41.3275C28.2347 41.522 28.3843 41.3954 27.082 42.0118L26.7981 41.6607C26.9044 41.1872 27.3299 41.3055 27.6137 41.2089ZM28.7369 49.1831C28.4498 49.0582 28.1409 49.0733 28.2362 48.7199C28.2732 48.6674 28.3226 48.6249 28.38 48.5961C28.4374 48.5672 28.5009 48.5529 28.5651 48.5544C28.9531 48.6221 28.7937 48.8758 28.7369 49.1831V49.1831ZM24.6112 29.0145C24.7656 29.4027 24.7766 29.3434 24.6273 29.3698C24.4905 29 24.4831 29.0801 24.6112 29.0145ZM25.2084 31.3659C25.0055 31.5556 24.8734 31.4966 24.7132 31.2383C24.9627 31.069 25.0971 31.1205 25.2084 31.3659ZM31.7496 68.8281C31.7064 68.8951 31.6546 68.956 31.5953 69.0093C31.5745 69.013 31.4654 68.9427 31.4687 68.9206C31.4934 68.8517 31.5278 68.7866 31.5706 68.7272L31.7496 68.8281ZM27.9452 49.4659C28.1139 49.8946 28.0239 50.0143 27.6517 50.0763L27.9452 49.4659ZM21.508 27.0334C21.7899 27.2917 21.7821 27.2071 21.5747 27.412C21.321 27.1308 21.3504 27.2366 21.508 27.0334ZM25.8737 50.1678C25.5414 50.8424 25.6386 50.7643 25.4562 50.664C25.4573 50.4669 25.425 50.2434 25.8737 50.1678ZM23.0127 61.5232L22.82 61.9941C22.687 61.7883 22.6421 61.6351 23.0023 61.525L23.0127 61.5232ZM19.1611 50.9718C19.6236 51.0765 19.3431 51.3337 19.236 51.5388C19.1192 51.3839 19.014 51.295 18.9962 51.1943C18.9784 51.0936 19.1094 50.963 19.1507 50.9737L19.1611 50.9718ZM22.559 71.8059C22.7761 72.0828 22.7491 71.9908 22.6202 72.1532C22.3718 71.9428 22.4051 72.03 22.5485 71.8078L22.559 71.8059ZM15.8347 46.4051C15.5981 46.7082 15.7062 46.6713 15.4367 46.5648C15.5879 46.3053 15.4993 46.3711 15.8347 46.4051ZM18.7827 65.5816C18.8001 65.5786 18.9219 65.6395 18.9202 65.6505C18.8924 65.7325 18.8573 65.8118 18.8152 65.8875L18.6303 65.7732C18.6713 65.6986 18.7217 65.6295 18.7803 65.5677L18.7827 65.5816ZM16.036 62.4132C16.1539 62.4318 16.2666 62.462 16.3823 62.4882L16.2088 62.7229C16.1275 62.6477 16.0468 62.576 15.9683 62.4967C15.9643 62.4939 16.0174 62.4093 16.036 62.4132ZM16.5915 64.7719C16.3762 65.0534 16.4785 65.0246 16.2044 64.9118C16.3746 64.5774 16.2806 64.6333 16.5915 64.7719ZM14.8866 57.7634C14.8278 57.9779 14.6727 58.0124 14.4308 57.9404C14.5245 57.4154 14.9334 57.6226 14.8866 57.7634V57.7634ZM16.9174 70.7021C16.8896 70.707 16.7901 70.61 16.8003 70.5867C16.8377 70.5205 16.8835 70.4594 16.9366 70.4051L17.1062 70.5542C17.0507 70.6124 16.9871 70.6622 16.9174 70.7021V70.7021ZM17.0188 68.5356C16.5592 68.1224 16.5592 68.1224 16.8443 67.5457L17.3946 68.1076L17.0188 68.5356ZM17.8191 68.6057C18.017 68.5708 18.2291 68.4332 18.4462 68.71C17.9406 69.0714 17.9406 69.0714 17.8209 68.6162L17.8191 68.6057ZM17.1956 66.4309L18.1034 66.0954C17.8755 66.773 17.6217 66.8571 17.1975 66.4413L17.1956 66.4309ZM13.8103 42.2963C13.5649 42.1032 13.576 41.9222 13.8286 41.6485C13.8949 41.9233 14.1245 42.1084 13.8121 42.3068L13.8103 42.2963ZM18.952 68.166C19.1555 67.9797 19.3377 67.8151 19.5682 67.599C19.6413 67.912 19.6987 68.1561 19.7644 68.4275C19.3296 68.6832 19.1613 68.4192 18.9538 68.1765L18.952 68.166ZM20.7094 65.9474L20.8487 65.3355L21.2719 65.705C20.7775 66.0894 20.8763 66.0612 20.7182 65.9566L20.7094 65.9474ZM21.7735 70.093C22.1659 70.0238 22.1165 70.0074 22.1343 70.1081C21.7367 70.189 21.8006 70.2064 21.7823 70.1022L21.7735 70.093ZM24.4891 81.432L23.9451 81.1698C24.2123 80.8576 24.4395 80.7245 24.7752 81.0234L24.4891 81.432ZM25.3712 82.9417C25.1288 82.6836 25.112 82.8119 25.3876 82.4661C25.5827 82.6788 25.607 82.5527 25.3851 82.9392L25.3712 82.9417ZM22.8916 64.5527C23.3813 64.2837 23.2356 64.3309 23.5293 64.7984L22.9181 64.7235C22.9154 64.6273 22.8922 64.5562 22.9054 64.5503L22.8916 64.5527ZM24.1272 70.4228C24.4402 70.1671 24.5728 70.2082 24.7509 70.5886L24.1272 70.4228ZM19.3412 38.406C19.8029 38.6075 19.8893 38.9146 19.5979 39.4351C19.1358 38.9472 19.1327 38.9298 19.3545 38.4001L19.3412 38.406ZM25.2226 72.0453C25.1774 72.0533 25.0645 72.0016 25.0489 71.9542C25.0334 71.9068 25.0935 71.821 25.137 71.7023C25.241 71.7842 25.3411 71.8239 25.3468 71.8766C25.3421 71.9104 25.3296 71.9427 25.3104 71.971C25.2911 71.9992 25.2656 72.0226 25.2359 72.0394L25.2226 72.0453ZM24.9273 69.4975C25.0941 69.6762 25.2474 69.867 25.3861 70.0683C24.8273 70.0272 24.8273 70.0272 24.9406 69.4916L24.9273 69.4975ZM19.9294 35.2834C19.9997 35.3073 20.066 35.3415 20.1263 35.3847L19.9676 35.6419C19.9048 35.5727 19.8544 35.4931 19.8187 35.4068C19.8223 35.3667 19.9067 35.2766 19.9427 35.2775L19.9294 35.2834ZM24.8048 63.116L25.5446 63.1073L25.0605 63.6116C24.9856 63.41 24.9208 63.3068 24.8181 63.11L24.8048 63.116ZM26.9634 72.3723C26.8942 71.9798 26.8123 71.6576 27.2605 71.5392C27.4255 72.0687 27.4255 72.0687 26.9767 72.3663L26.9634 72.3723ZM21.7866 39.1745C22.2681 39.4477 22.3365 39.6326 22.137 40.1871C21.6051 39.7294 21.5979 39.7092 21.7866 39.1745ZM25.0052 56.3516L25.4857 56.0914C25.4519 56.5092 25.4519 56.5092 25.0121 56.3504L25.0052 56.3516ZM28.0067 69.617L28.2561 70.1174C28.0097 69.9997 28.0097 69.9997 28.0137 69.6158L28.0067 69.617ZM28.9354 74.295C28.7526 73.9691 28.741 74.0249 28.9228 73.9391C29.0549 74.3026 29.0739 74.2276 28.9424 74.2938L28.9354 74.295ZM21.1748 29.4091C21.5371 29.1483 21.4531 29.1595 21.5659 29.3115C21.2118 29.5781 21.2957 29.5669 21.1748 29.4091ZM29.2107 73.2974C29.5146 73.1114 29.4306 73.1226 29.5654 73.2779C29.2436 73.4635 29.3196 73.468 29.2107 73.2974ZM27.0159 58.819C27.0159 58.819 26.8797 58.7571 26.8817 58.7281C26.9017 58.6401 26.9351 58.5557 26.9808 58.4779C27.1432 58.6068 27.2574 58.6046 27.0402 58.8148L27.0159 58.819ZM30.0061 71.7963C29.9155 71.2823 29.8948 71.3683 30.0331 71.3404C30.1225 71.8474 30.145 71.7718 30.0061 71.7963ZM25.9383 50.9407C26.3501 50.3309 26.233 50.3981 26.4471 50.5358C26.3482 50.6858 26.3698 50.9506 25.9383 50.9407ZM30.2413 71.0386L31.0809 70.4788C30.9911 71.3505 30.8591 71.4347 30.2413 71.0386ZM32.8657 80.0122C32.4627 79.7574 32.4954 79.8412 32.5894 79.6635C33.0402 79.8848 32.9902 79.8041 32.8682 80.0261L32.8657 80.0122ZM34.097 84.4972C33.7251 84.2763 33.7663 84.3478 33.8344 84.1854C34.2558 84.3618 34.2101 84.3054 34.0995 84.5111L34.097 84.4972ZM31.9081 70.3365C31.7867 70.4403 31.3075 70.2204 31.8016 69.7321C31.9946 69.9739 32.1476 70.151 31.9106 70.3504L31.9081 70.3365ZM34.661 85.3396C34.8702 85.0842 34.982 85.129 35.05 85.5145C34.8655 85.4432 34.7764 85.4052 34.6635 85.3535L34.661 85.3396ZM33.5926 76.0916C33.3096 76.0914 33.4404 76.1829 33.1007 75.8202L33.5624 75.5956C33.5773 75.8222 33.5854 75.9496 33.595 76.1055L33.5926 76.0916ZM33.1231 73.2056L33.1426 72.5647C33.4555 72.8569 33.3999 72.9885 33.1255 73.2195L33.1231 73.2056ZM32.5652 70.1633C33.003 69.9859 32.9176 69.9687 32.9817 70.1901C32.5394 70.3219 32.6242 70.3356 32.5676 70.1772L32.5652 70.1633ZM31.5673 63.4276L30.56 62.7923C30.9727 62.2898 31.2366 62.913 31.7626 63.2356C32.0525 63.4173 32.3726 63.5471 32.679 63.7007C32.4824 64.1293 32.2569 64.2515 32.0393 63.9926C31.5832 63.4571 31.0174 64.3304 31.5697 63.4415L31.5673 63.4276ZM34.304 74.48C34.5549 74.3391 34.6948 74.361 34.744 74.6603C34.5097 74.7732 34.3914 74.7117 34.3064 74.4939L34.304 74.48ZM39.4525 90.9444C39.2517 90.8007 39.2484 90.8837 39.3986 90.6388C39.5828 90.8104 39.552 90.737 39.4549 90.9583L39.4525 90.9444ZM37.761 79.9906C37.318 79.9971 37.3885 80.0312 37.3867 79.8991C37.8341 79.8775 37.7585 79.855 37.7634 80.0045L37.761 79.9906ZM37.0723 78.2785C37.6378 78.297 37.559 78.2357 37.5334 78.4766C36.9797 78.4238 37.0643 78.4769 37.0748 78.2924L37.0723 78.2785ZM38.4467 83.4939C38.8427 83.424 38.7671 83.4016 38.8173 83.5646C38.4128 83.7076 38.489 83.7335 38.4492 83.5078L38.4467 83.4939ZM37.0899 76.5708L37.7141 76.4142C37.562 77.014 37.3085 76.6934 37.0905 76.5743L37.0899 76.5708ZM40.1068 89.4968C39.9059 89.1491 39.8973 89.2222 40.1012 89.1397C40.2282 89.5148 40.2374 89.4451 40.1075 89.5003L40.1068 89.4968ZM39.3877 82.1283C39.1671 81.9129 39.2098 82.0128 39.3136 81.708C39.5305 82.0852 39.5156 81.9804 39.3877 82.1283ZM40.1993 82.6691C39.5852 82.4766 39.6677 82.5588 39.7282 82.3332C40.3358 82.509 40.2621 82.436 40.1993 82.6691ZM40.6486 79.5101C40.7037 79.6401 40.4345 79.7986 40.1501 79.709C40.3667 79.3127 40.3725 78.8175 41.0003 78.6209C40.8848 79.0423 40.4728 79.1221 40.6382 79.512L40.6486 79.5101ZM41.5261 86.5177C41.6049 86.5736 41.6625 86.6547 41.6892 86.7475C41.716 86.8404 41.7105 86.9396 41.6735 87.0289C41.6523 87.0505 41.6492 87.0332 41.6735 87.0289C41.3841 86.951 41.3281 86.7961 41.5318 86.5095L41.5261 86.5177ZM41.6766 87.0463C41.95 86.9515 42.0909 87.0806 42.173 87.3634C41.687 87.5315 41.7397 86.9778 41.6858 87.0375L41.6766 87.0463ZM43.365 88.1524L42.926 87.8967C43.0012 87.8154 43.0359 87.7484 43.0833 87.7329C43.3839 87.6298 43.4294 87.7865 43.3707 88.1442L43.365 88.1524ZM41.5438 85.5011C41.3784 85.0504 41.7754 84.7834 41.9994 84.4288L43.097 84.5612L41.5438 85.5011ZM44.0145 84.7074C43.9047 84.2468 44.2305 84.2467 44.6259 84.1125C44.5128 84.5479 44.3608 84.7215 44.0245 84.7235L44.0145 84.7074ZM45.8737 85.7869C45.9582 86.2662 45.4848 86.6075 44.9796 86.0986C44.8543 85.8803 44.7642 85.6436 44.7127 85.3972C46.3826 86.0732 44.5647 85.0652 45.1098 84.704C45.4301 84.49 45.9539 84.8811 46.1171 84.9741C45.7459 85.2042 45.7457 85.1828 45.8819 85.7926L45.8737 85.7869ZM44.9105 83.5538C44.9982 83.3808 44.9028 83.4083 45.2425 83.4057C45.112 83.64 45.2127 83.6223 44.9187 83.5595L44.9105 83.5538ZM45.5678 80.6195C45.5561 80.5536 45.6234 80.488 45.6849 80.3697L45.8898 80.5771C45.8381 80.6341 45.7757 80.6804 45.7061 80.7133C45.6581 80.7254 45.5733 80.6508 45.5678 80.6195ZM46.5797 84.8352C46.7572 84.7251 46.6612 84.6883 46.9527 84.9198C46.6818 85.0285 46.7756 85.0728 46.5693 84.837L46.5797 84.8352ZM47.0735 83.5735C47.0699 82.883 46.3875 82.7705 46.0501 82.4003C46.1945 82.2853 45.9794 82.2838 47.6154 82.5648L47.0735 83.5735ZM48.3237 82.6619C48.431 82.4782 48.3243 82.4827 48.7239 82.6164C48.5261 82.8554 48.6338 82.8364 48.2994 82.6662L48.3237 82.6619ZM53.0753 91.0061C53.2546 90.1544 53.197 90.1324 53.6492 91.0518L53.0753 91.0061ZM53.5033 89.9602C53.2142 89.6817 53.0909 89.5101 53.3248 89.2325C53.5924 89.3894 53.5266 89.6051 53.5033 89.9602V89.9602ZM57.2369 92.6932C57.2139 92.3392 57.2139 92.3392 57.6445 92.3241L57.2369 92.6932ZM58.9734 93.2393C58.8498 92.9245 58.7798 92.7506 58.6864 92.5057C59.1857 92.6361 59.0066 92.5137 59.4237 92.9093L58.9734 93.2393ZM58.5443 91.8825C58.6512 91.7169 58.5544 91.716 58.8965 91.8491C58.6746 91.9921 58.7594 92.0058 58.5443 91.8825V91.8825ZM58.5419 84.5165L58.6561 84.0272C58.8682 84.2549 58.8929 84.4152 58.5419 84.5165V84.5165ZM61.2508 90.6389C60.8794 90.665 60.9417 90.6934 60.9346 90.4906C61.3095 90.5247 61.2523 90.4847 61.2508 90.6389ZM60.7128 89.903C60.8828 89.6689 60.7355 89.6662 61.2405 89.8493C60.9792 90.1138 61.1277 90.1235 60.7122 89.8995L60.7128 89.903ZM64.9035 88.9527C65.6724 88.3373 65.5204 88.3892 65.6683 88.578C65.5571 88.8411 65.3618 88.9722 64.9029 88.9493L64.9035 88.9527ZM65.5592 82.5164C65.5531 82.4817 65.6583 82.327 65.7307 82.3107C65.803 82.2943 65.8857 82.3979 66.1294 82.5412C65.9339 82.6509 65.7561 82.9221 65.5412 82.516L65.5592 82.5164ZM68.1778 86.2983C68.1831 86.1255 68.1339 85.9479 68.1967 85.8975C68.4022 85.6822 68.5707 85.785 68.7448 86.1017L68.1778 86.2983ZM68.7881 80.2138C69.1877 79.9213 69.0974 79.9372 69.2161 80.1025C68.8042 80.3864 68.8969 80.3844 68.7736 80.2127L68.7881 80.2138ZM68.7647 79.4515C69.1328 79.5084 69.0791 79.4677 69.0556 79.6187C68.6591 79.5633 68.7324 79.5933 68.7467 79.4511L68.7647 79.4515ZM69.6405 81.3312C69.254 81.1702 69.254 81.1702 69.3409 80.6678C69.6937 80.8205 69.5228 81.0905 69.6225 81.3308L69.6405 81.3312ZM70.1925 78.3689C70.2886 78.2793 70.3951 78.2016 70.5098 78.1375C70.5306 78.1338 70.625 78.2425 70.617 78.2583C70.4891 78.467 70.3672 78.3847 70.1872 78.3591L70.1925 78.3689ZM73.2453 82.9481C72.8512 83.3328 72.3098 83.1668 72.0745 82.5637C71.565 82.5174 71.7617 82.5365 71.2835 82.4847C71.6272 82.0982 71.5296 81.5245 72.1374 81.2347C72.2642 81.9537 72.2119 81.8805 72.3378 81.7007L73.1007 82.4329C72.5622 82.7499 73.2938 82.7354 73.24 82.9383L73.2453 82.9481ZM71.329 81.037C71.8764 80.851 71.7683 80.8271 71.8398 81.0902C71.2931 81.2189 71.3925 81.255 71.3237 81.0272L71.329 81.037ZM73.4418 78.6805C73.1658 78.8008 73.0628 78.887 72.9711 78.8746C72.5004 78.8124 72.0357 78.711 71.5819 78.5716C71.907 78.47 72.1902 78.2655 72.3888 77.9888C72.5504 77.8475 72.733 77.7319 72.93 77.6463C73.093 78.0831 72.7711 78.5123 73.4365 78.6707L73.4418 78.6805ZM74.2315 84.0527C74.1257 83.9603 73.912 83.9873 73.7494 83.9587C73.7529 83.7754 73.6711 83.8399 74.1556 83.6829C74.0802 83.4992 74.0136 83.3248 73.9187 83.0908L74.4208 82.9736C74.3685 83.2658 74.1819 83.5278 74.6189 83.6299C74.8852 83.7328 75.1362 83.8717 75.365 84.0426C75.0256 84.2708 74.649 84.4303 74.2315 84.0527ZM73.6441 76.9438C73.6648 76.736 73.6648 76.736 74.0758 76.7316L74.2449 77.6902C74.1562 77.682 74.0701 77.6561 73.9917 77.614C73.9132 77.572 73.844 77.5146 73.788 77.4454C73.7321 77.3761 73.6906 77.2964 73.666 77.2108C73.6414 77.1253 73.6342 77.0357 73.6447 76.9473L73.6441 76.9438ZM75.0813 84.8304C75.6844 84.5342 75.5192 85.2832 75.8984 85.4025L75.31 85.8429C75.2279 85.4384 75.1532 85.1364 75.0819 84.8339L75.0813 84.8304ZM75.2396 83.2303L75.3864 82.4381C75.9879 82.4574 75.9879 82.4574 76.2211 83.2113L75.2396 83.2303ZM77.6406 85.5752C77.0949 85.6893 76.5607 85.9698 75.9874 86.1102C75.9872 86.0996 75.9853 86.089 75.9819 86.079C75.9596 86.1151 75.9228 86.1503 75.9042 86.1464C75.8856 86.1425 75.7708 86.0804 75.6472 86.0091C75.7422 85.9386 75.8591 85.7891 75.9441 85.8851C76.8541 85.2376 76.9596 85.2262 76.5151 84.7566C76.453 84.6888 76.4771 84.5413 76.4471 84.3711C77.0132 84.6366 77.7809 84.5836 77.6413 85.5787L77.6406 85.5752ZM76.6358 79.1452C76.5344 79.0986 76.4356 79.0659 76.4401 79.0507C76.4534 78.9734 76.4832 78.8997 76.5273 78.8348C76.5273 78.8348 76.6761 78.8659 76.6803 78.8902C76.6784 78.978 76.6636 79.0651 76.6364 79.1486L76.6358 79.1452ZM77.1689 78.4925C77.0103 78.5096 76.8505 78.5138 76.6912 78.5051C76.6391 78.5143 76.5339 78.3645 76.5468 78.3157C76.8483 77.2634 76.8793 77.4799 77.175 77.349C77.1761 77.7213 77.1747 78.0581 77.1695 78.496L77.1689 78.4925ZM76.3768 77.0063C76.5707 76.8468 76.5008 76.877 76.6477 76.9585C76.4667 77.1301 76.5429 77.0952 76.3774 77.0098L76.3768 77.0063ZM79.3588 82.3214C79.8073 82.1635 79.9815 82.6234 80.0244 82.5621C79.5862 82.6358 79.5862 82.6358 79.3595 82.3248L79.3588 82.3214ZM78.7597 77.6032C79.1348 77.4762 79.1348 77.4762 79.1921 77.903L78.7597 77.6032ZM80.031 82.5789L80.6735 82.5873C80.3167 83.0012 80.2853 82.9853 80.0316 82.5823L80.031 82.5789ZM80.5253 81.8686C80.4103 81.7241 80.398 81.7764 80.5527 81.6381C80.6552 81.7526 80.6767 81.6915 80.5253 81.8686ZM58.2401 81.404C54.3935 82.0862 50.4396 81.843 46.7055 80.6947C46.7564 80.7736 46.7909 80.8618 46.8072 80.9543C46.8235 81.0467 46.8212 81.1415 46.8004 81.233L46.1577 81.2031L46.2693 80.5567C44.7444 80.0562 43.2715 79.4093 41.8713 78.6249C41.8755 78.6599 41.8816 78.6947 41.8896 78.7291C41.3501 78.8779 41.4512 78.9031 41.3885 78.71C41.6447 78.6397 41.7626 78.5975 41.8257 78.5899C38.3413 76.6427 35.3749 73.888 33.1754 70.5571L34.641 70.2987C35.0152 70.8367 35.4114 71.3637 35.8294 71.8797C35.9197 71.742 35.8478 71.7404 36.1816 71.8462C36.0106 72.034 36.0717 72.0554 35.8909 71.9441C38.4699 75.0544 41.8063 77.4482 45.5788 78.8951C45.7664 78.6793 45.9656 78.4687 46.3503 78.6194C46.2749 78.7225 46.1751 78.8054 46.0599 78.8607C45.9447 78.916 45.8176 78.942 45.69 78.9363C48.7031 80.0662 51.9167 80.5627 55.1303 80.3951C58.3439 80.2275 61.4884 79.3992 64.3676 77.962C67.2468 76.5249 69.7989 74.5096 71.8645 72.0421C73.93 69.5746 75.4648 66.7078 76.373 63.6206C76.328 63.6617 76.275 63.693 76.2173 63.7125C76.186 63.718 76.1027 63.611 76.1135 63.5912C76.1539 63.5279 76.2045 63.4718 76.2633 63.4251L76.3881 63.5642C76.4562 63.3409 76.5201 63.1148 76.5772 62.8899L78.0428 62.6314C76.9362 67.3526 74.4712 71.6463 70.952 74.9824C67.4328 78.3185 63.0137 80.5509 58.2401 81.404V81.404ZM75.0021 44.8177C74.7424 44.5842 74.7792 44.6708 74.9408 44.4704C75.1296 44.6878 75.0893 44.6018 74.9847 44.8208L75.0021 44.8177ZM75.7083 45.2483C75.6326 45.2361 75.5636 45.1976 75.5136 45.1394C75.5136 45.1394 75.5649 44.9835 75.587 44.9868C75.6786 45.0082 75.7673 45.0406 75.8511 45.0834C75.7626 45.1707 75.7205 45.2569 75.6909 45.2514L75.7083 45.2483ZM76.6515 49.5011C76.9924 49.2405 76.9194 49.2533 77.0068 49.3633C76.6865 49.6382 76.7651 49.6172 76.6342 49.5042L76.6515 49.5011ZM76.3386 45.0047C75.965 44.673 75.965 44.673 76.2784 44.2167C76.6833 44.6037 76.6833 44.6037 76.3386 45.0047ZM77.5304 48.5547C77.7134 48.4027 77.8516 48.2038 77.9303 47.9793L78.3173 48.5699L77.4329 48.9766C77.4776 48.7431 77.4636 48.6023 77.514 48.5433L77.5304 48.5547ZM79.0031 55.0992C78.7816 55.346 78.8888 55.345 78.6012 55.2167C78.7397 54.9666 78.6286 54.9862 78.9982 55.0715L79.0031 55.0992ZM81.4772 69.1309C81.1626 69.1541 81.086 68.8417 80.9096 68.572C81.2951 68.5041 81.6269 68.3345 81.9662 68.7761C81.8152 68.8743 81.649 69.0898 81.4966 69.0988L81.4772 69.1309ZM80.8313 58.6839L80.9179 58.5863C80.642 58.9107 80.3134 58.4279 80.1534 58.3128L80.206 58.1639C81.0432 58.3422 80.8607 58.2418 80.9075 58.5881C81.1457 58.6392 81.4472 58.5216 81.6386 58.8961C81.3389 58.8415 81.0269 59.0828 80.8402 58.6537L80.8313 58.6839ZM79.3181 46.5886C79.2396 46.5093 79.4382 46.1735 79.5092 45.9461C80.5809 46.0938 80.9597 46.0484 80.5346 47.0294C80.6268 47.1664 80.7052 47.3121 80.7689 47.4644C81.0776 48.4234 81.0711 48.5893 80.9475 48.7615C80.8238 48.9337 80.46 48.5968 80.3918 48.5551L80.5667 48.1662C80.1481 48.0466 80.0468 47.7565 80.2626 47.3352C79.6477 47.4222 79.5926 46.8661 79.3181 46.5886ZM80.6978 51.692C80.8686 51.5437 80.7599 51.5772 81.1319 51.6154C80.7444 51.8342 80.8504 51.8262 80.7082 51.6901L80.6978 51.692ZM81.0842 52.3401C81.0644 52.6336 81.048 52.9266 81.0316 53.2196C80.9329 53.092 80.8849 52.9325 80.8969 52.7717C80.9088 52.6108 80.98 52.4601 81.0965 52.3487L81.0842 52.3401ZM81.2024 53.6192C81.856 53.264 81.9964 52.6591 82.1974 52.8242C82.5448 53.4541 82.043 53.6751 81.6644 53.8636C81.8983 54.0122 82.2939 54.0821 82.3706 54.7812C82.4202 55.0625 82.1108 55.3391 81.766 55.4143C81.6477 55.0483 81.7645 54.5729 81.1937 54.4229C80.9548 54.3683 80.9435 53.7759 81.2146 53.6278L81.2024 53.6192ZM82.4276 58.6997C82.1061 58.6633 82.1614 58.6929 82.1637 58.5636C82.4998 58.5401 82.4467 58.5029 82.4399 58.7083L82.4276 58.6997ZM84.0968 55.4115L84.524 55.5188C84.4807 55.659 84.4749 55.728 84.4512 55.7358C84.0467 55.8787 83.6508 56.0094 83.4801 56.4836C83.4327 56.6209 83.2206 56.6977 83.0565 56.8233C83.1548 57.096 83.2577 57.3751 83.3612 57.6577C83.1154 57.9087 82.9144 57.8654 82.7486 57.5544C82.4789 57.67 82.4992 58.1714 82.011 58.0426L82.4168 57.4195C82.0687 57.2732 81.7759 57.0956 81.9035 56.6613C81.5094 56.5589 81.5378 56.6184 81.7201 56.3928C81.84 56.5651 81.8841 56.6325 81.9035 56.6613C81.9574 56.6017 82.3939 56.0914 82.4605 56.0223C83.3254 55.6872 83.4807 55.248 83.4094 55.3107C84.8718 54.8917 84.7423 54.8071 84.0987 55.4219L84.0968 55.4115ZM83.6855 49.7076C83.5388 49.8911 83.3652 49.9217 83.1905 49.6624L83.4903 49.1691C83.7181 49.3438 83.895 49.4737 83.6978 49.7162L83.6855 49.7076ZM85.2014 54.608C84.7517 54.5153 84.8155 54.5722 84.8641 54.3809C85.3119 54.524 85.2492 54.4527 85.2136 54.6165L85.2014 54.608ZM81.5902 33.9655C81.3855 33.8404 81.4278 33.8974 81.5222 33.7017C81.7516 33.8045 81.7267 33.7444 81.6025 33.974L81.5902 33.9655ZM85.9916 51.9403C86.1452 51.7557 86.0731 51.7934 86.3015 51.8499C86.1764 52.0546 86.2651 52.0497 85.9916 51.9403ZM83.9474 41.038C84.0327 40.7293 84.0327 40.7293 84.3461 40.6991L83.9474 41.038ZM87.4721 58.0824C87.8307 57.7398 87.7387 57.7668 87.903 57.9061C87.544 58.2667 87.6359 58.2397 87.4721 58.0824ZM86.7358 43.3862L86.4176 42.9625C86.7953 42.8708 86.8381 42.301 87.3635 42.4375L86.7358 43.3862ZM86.8656 41.1573C86.3576 40.5307 86.5474 40.6118 86.0399 40.7801C86.0723 40.0904 86.7462 40.2974 86.8967 39.8913C87.0597 39.9628 87.0421 39.7618 86.865 41.1539L86.8656 41.1573ZM87.864 42.8793C88.2134 42.6673 88.1041 42.6973 88.2704 42.8076C88.0456 43.0765 88.1418 43.0738 87.8634 42.8758L87.864 42.8793ZM88.7236 42.4126C88.9411 42.7324 88.8432 42.8678 88.6181 42.972C88.4461 42.8698 88.4354 42.9719 88.723 42.4091L88.7236 42.4126ZM89.0608 45.4222L89.4533 45.4747C89.2751 45.7031 89.2751 45.7031 89.0602 45.4187L89.0608 45.4222ZM88.2107 41.5755L88.5955 42.1737C88.0057 42.3422 87.8125 41.8964 87.3577 41.7546L87.929 41.3387L87.459 40.5621C87.84 40.3875 88.1925 40.3755 88.4489 40.0831C88.5625 39.9557 88.8969 40.0041 89.079 40.0007C89.3119 39.6767 89.5312 39.3766 89.7739 39.0473L90.1435 39.2543C90.0345 39.6316 89.6923 39.803 89.3913 40.2894C89.3102 40.4183 89.39 40.6477 89.4 40.8465C88.583 40.9046 88.8576 40.7559 88.2101 41.572L88.2107 41.5755ZM89.2888 41.5967L89.8785 42.0979C89.351 42.173 89.3171 42.1432 89.2812 41.5945L89.2888 41.5967ZM91.7058 54.9186L92.3251 54.3689C92.4045 54.799 92.4045 54.799 91.6983 54.9163L91.7058 54.9186ZM90.3905 40.7363C90.3419 40.7437 90.2923 40.7383 90.2464 40.7207C90.2006 40.703 90.1602 40.6737 90.1292 40.6356C90.0424 40.4074 89.9495 40.1444 90.4378 40.0906C90.4383 40.3376 90.7494 40.5585 90.3905 40.7363ZM90.6999 39.6683C90.3675 39.6517 90.4321 39.6726 90.4201 39.5637C90.7602 39.5431 90.7055 39.5169 90.6999 39.6683ZM90.6177 39.0597C90.3002 39.0261 90.3584 39.0517 90.3623 38.9113C90.6908 38.9465 90.64 38.9018 90.6177 39.0597ZM89.7445 36.4025C89.5202 36.2271 89.5083 36.0179 89.622 35.7078C89.9144 35.8706 90.1463 36.1237 90.2828 36.4293C90.1042 36.4075 89.9243 36.3986 89.7445 36.4025V36.4025ZM90.3073 36.4465C90.2795 36.4514 90.2899 36.4495 90.3073 36.4465C90.3559 36.4379 90.5091 36.4538 90.9627 36.467C90.6006 36.6884 90.5937 36.6896 90.3085 36.4534L90.3073 36.4465Z" fill="#8C0000"/>
<path d="M37.9144 71.2544C37.8828 71.3834 37.892 71.519 37.9408 71.6425C37.9895 71.7661 38.0753 71.8715 38.1864 71.9442C38.037 71.0967 38.1101 71.2271 37.9144 71.2544Z" fill="#8C0000"/>
<path d="M82.9245 56.0945C82.9845 56.1913 82.9145 56.2001 83.2824 55.9919C83.2342 55.8608 83.3072 55.8479 82.9245 56.0945Z" fill="#8C0000"/>
<path d="M44.4973 29.0747L44.5017 29.0778L44.4973 29.0747Z" fill="#8C0000"/>
<path d="M48.7734 71.6637C48.7734 71.6637 48.765 71.6612 48.7734 71.6637V71.6637Z" fill="#8C0000"/>
<path d="M43.2941 72.0495L43.2545 72.1104C43.2696 72.0914 43.2829 72.071 43.2941 72.0495V72.0495Z" fill="#8C0000"/>
<path d="M62.664 64.9993L62.6516 64.9907L62.664 64.9993Z" fill="#8C0000"/>
<path d="M75.9397 85.9004L75.9118 85.9053L75.9752 86.0812C75.9908 86.0649 76.0009 86.0443 76.0044 86.0221C75.9923 85.9771 75.9702 85.9355 75.9397 85.9004Z" fill="#8C0000"/>
<path d="M13 49.5956L90.1045 36L93.6565 56.1444L16.552 69.74L13 49.5956Z" fill="#8C0000"/>
<path d="M24.836 49.4717L25.4146 52.7531L20.966 53.5375L20.3874 50.2561L21.3015 50.0949L21.7503 52.6403L22.6082 52.4891L22.1593 49.9437L23.0734 49.7825L23.5222 52.3279L24.3707 52.1783L23.9219 49.6329L24.836 49.4717Z" fill="white"/>
<path d="M28.7329 49.5434L27.7298 49.7203L28.1786 52.2657L27.2645 52.4269L26.8157 49.8815L25.8078 50.0592L25.6781 49.3232L28.6032 48.8075L28.7329 49.5434Z" fill="white"/>
<path d="M32.0184 50.9313L30.6309 51.176L30.4855 51.8589L29.5386 52.0259L30.4085 48.4891L31.3226 48.3279L33.3543 51.3531L32.3887 51.5234L32.0184 50.9313ZM31.6259 50.2948L31.0188 49.3192L30.7821 50.4436L31.6259 50.2948Z" fill="white"/>
<path d="M37.1102 50.6908L36.7988 48.9525L36.2047 50.517L35.7922 50.5897L34.7054 49.3603L35.0054 51.062L34.1523 51.2124L33.5737 47.931L34.3378 47.7963L35.8249 49.4868L36.616 47.3946L37.3801 47.2598L37.968 50.5396L37.1102 50.6908Z" fill="white"/>
<path d="M42.0458 49.8205L41.7345 48.0822L41.1403 49.6467L40.7278 49.7194L39.641 48.49L39.941 50.1917L39.0879 50.3421L38.5093 47.0607L39.2734 46.926L40.7605 48.6165L41.5516 46.5243L42.3157 46.3896L42.9036 49.6693L42.0458 49.8205Z" fill="white"/>
<path d="M45.3027 46.9407C45.7059 46.8696 46.0328 46.9054 46.2835 47.0481C46.5337 47.1877 46.6899 47.434 46.7522 47.7872C46.8188 48.1653 46.7479 48.4759 46.5394 48.7189C46.3309 48.9618 46.0095 49.1216 45.5751 49.1982L44.0235 49.4718L43.4449 46.1905L44.359 46.0293L44.5433 47.0746L45.3027 46.9407ZM45.3968 48.5433C45.5531 48.5158 45.6691 48.4518 45.7448 48.3515C45.8237 48.2506 45.8496 48.1235 45.8226 47.9704C45.7725 47.686 45.5771 47.5739 45.2364 47.6339L44.6599 47.7356L44.8202 48.645L45.3968 48.5433ZM46.7403 45.6094L47.6544 45.4482L48.233 48.7296L47.3189 48.8908L46.7403 45.6094Z" fill="white"/>
<path d="M53.2362 46.0783C53.441 46.1067 53.605 46.1777 53.7281 46.2913C53.8544 46.4044 53.9346 46.5578 53.9688 46.7515C54.02 47.0422 53.9464 47.292 53.7481 47.501C53.5523 47.7063 53.2465 47.8456 52.8309 47.9188L51.148 48.2156L50.5694 44.9342L52.1632 44.6532C52.557 44.5837 52.8749 44.605 53.117 44.717C53.3617 44.8253 53.508 45.0154 53.5559 45.2873C53.584 45.4467 53.5697 45.5942 53.5131 45.7298C53.4596 45.865 53.3673 45.9811 53.2362 46.0783ZM51.715 46.0856L52.3056 45.9814C52.5681 45.9351 52.6804 45.8042 52.6423 45.5885C52.6043 45.3729 52.4541 45.2882 52.1915 45.3345L51.6009 45.4387L51.715 46.0856ZM52.676 47.2598C52.9448 47.2124 53.0591 47.0747 53.0188 46.8465C52.9797 46.6246 52.8258 46.5374 52.557 46.5848L51.8257 46.7137L51.9448 47.3887L52.676 47.2598Z" fill="white"/>
<path d="M56.1633 46.0359L55.7414 46.1103L55.9629 47.3666L55.0395 47.5294L54.4609 44.248L55.3843 44.0852L55.6092 45.3603L56.0545 45.2817L56.6125 43.8686L57.5875 43.6967L56.8403 45.4622L58.1755 46.9764L57.1302 47.1608L56.1633 46.0359Z" fill="white"/>
<path d="M61.4692 43.0123L62.0478 46.2937L61.1337 46.4548L60.6848 43.9094L59.7426 44.0756L59.8181 44.6133C59.8851 45.0848 59.9133 45.473 59.9026 45.7777C59.895 46.082 59.8321 46.3283 59.7139 46.5167C59.5951 46.702 59.4013 46.8183 59.1326 46.8657C59.0076 46.8877 58.8636 46.8938 58.7008 46.8838L58.6184 46.1153C58.6607 46.1175 58.7037 46.1148 58.7475 46.1071C58.8693 46.0856 58.9546 46.0206 59.0031 45.9122C59.0516 45.8037 59.0748 45.6611 59.0726 45.4842C59.0699 45.3043 59.0487 45.0744 59.009 44.7946L58.8253 43.4785L61.4692 43.0123Z" fill="white"/>
<path d="M65.5768 42.2203C65.9112 42.1614 66.2257 42.1816 66.5204 42.2811C66.815 42.3806 67.0618 42.5466 67.2607 42.7789C67.4595 43.0113 67.5876 43.29 67.6449 43.615C67.7022 43.94 67.6772 44.2457 67.5698 44.5321C67.4624 44.8185 67.2873 45.0588 67.0444 45.2531C66.8016 45.4474 66.5129 45.574 66.1785 45.633C65.8848 45.6848 65.6045 45.6762 65.3378 45.6072C65.0742 45.5377 64.8433 45.4157 64.6449 45.2412C64.4497 45.0662 64.3024 44.8521 64.203 44.5989L63.8608 44.6593L64.0856 45.9343L63.1715 46.0955L62.593 42.8141L63.5071 42.653L63.7236 43.8811L64.0752 43.8191C64.0894 43.5524 64.1606 43.3078 64.289 43.0854C64.4168 42.8599 64.5916 42.6728 64.8135 42.5241C65.0349 42.3723 65.2893 42.271 65.5768 42.2203ZM66.043 44.8642C66.1992 44.8366 66.333 44.7728 66.4442 44.6726C66.5554 44.5724 66.6346 44.4457 66.6817 44.2924C66.7319 44.1385 66.7405 43.9679 66.7074 43.7803C66.6743 43.5928 66.6079 43.4354 66.5081 43.308C66.4114 43.18 66.2937 43.088 66.1549 43.0319C66.0161 42.9758 65.8686 42.9616 65.7124 42.9891C65.5561 43.0167 65.4208 43.0808 65.3065 43.1815C65.1947 43.2786 65.114 43.4056 65.0643 43.5626C65.0172 43.7159 65.0102 43.8863 65.0433 44.0738C65.0763 44.2613 65.1415 44.4206 65.2387 44.5517C65.3385 44.6791 65.4578 44.7708 65.5966 44.8269C65.7379 44.8793 65.8867 44.8917 66.043 44.8642Z" fill="white"/>
<path d="M71.0561 41.3219L71.6347 44.6032L70.7206 44.7644L70.5239 43.6487C70.2856 43.7778 70.0602 43.861 69.8477 43.8985C69.3883 43.9795 69.0175 43.9321 68.7351 43.7563C68.4554 43.5769 68.2788 43.2793 68.2056 42.8637L68.0278 41.8558L68.9419 41.6946L69.1015 42.5994C69.1759 43.0212 69.4193 43.1958 69.8318 43.1231C70.0568 43.0834 70.244 43.0117 70.3933 42.9081L70.142 41.483L71.0561 41.3219Z" fill="white"/>
<path d="M75.267 43.2232L75.3934 43.9405L72.7589 44.405L72.1804 41.1236L74.7539 40.6698L74.8803 41.387L73.2256 41.6788L73.3231 42.232L74.781 41.9749L74.9033 42.6687L73.4455 42.9257L73.5513 43.5258L75.267 43.2232Z" fill="white"/>
<path d="M78.8875 39.941L79.4661 43.2223L78.5379 43.386L78.3123 42.1063L77.0466 42.3294L77.2723 43.6092L76.3441 43.7728L75.7655 40.4915L76.6937 40.3278L76.9111 41.5607L78.1767 41.3375L77.9593 40.1046L78.8875 39.941Z" fill="white"/>
<path d="M81.8723 40.4925C82.2754 40.4214 82.6023 40.4572 82.8531 40.5999C83.1032 40.7395 83.2595 40.9858 83.3217 41.339C83.3884 41.7171 83.3175 42.0277 83.109 42.2707C82.9005 42.5136 82.5791 42.6734 82.1447 42.75L80.593 43.0236L80.0144 39.7423L80.9285 39.5811L81.1129 40.6264L81.8723 40.4925ZM81.9664 42.0951C82.1226 42.0676 82.2386 42.0036 82.3144 41.9033C82.3932 41.8024 82.4192 41.6753 82.3922 41.5222C82.342 41.2378 82.1466 41.1257 81.806 41.1857L81.2294 41.2874L81.3898 42.1968L81.9664 42.0951ZM83.3099 39.1612L84.224 39L84.8026 42.2814L83.8885 42.4426L83.3099 39.1612Z" fill="white"/>
<path d="M28.4814 56.2134C28.6862 56.2418 28.8501 56.3127 28.9733 56.4264C29.0996 56.5394 29.1798 56.6928 29.2139 56.8866C29.2652 57.1772 29.1916 57.427 28.9933 57.636C28.7974 57.8413 28.4917 57.9806 28.0761 58.0539L26.3932 58.3507L25.8146 55.0693L27.4084 54.7882C27.8022 54.7188 28.1201 54.7401 28.3622 54.8521C28.6069 54.9604 28.7532 55.1505 28.8011 55.4224C28.8292 55.5817 28.8149 55.7293 28.7583 55.8649C28.7048 56 28.6125 56.1162 28.4814 56.2134ZM26.9601 56.2206L27.5508 56.1165C27.8133 56.0702 27.9255 55.9393 27.8875 55.7236C27.8495 55.508 27.6992 55.4233 27.4367 55.4696L26.8461 55.5737L26.9601 56.2206ZM27.9212 57.3949C28.19 57.3475 28.3042 57.2097 28.264 56.9816C28.2249 56.7597 28.0709 56.6725 27.8022 56.7199L27.0709 56.8488L27.1899 57.5238L27.9212 57.3949Z" fill="white"/>
<path d="M33.0109 53.8004C33.3078 53.748 33.5745 53.7526 33.8108 53.814C34.0467 53.8723 34.2402 53.9832 34.3915 54.1466C34.5422 54.3069 34.6393 54.5105 34.6829 54.7574C34.7264 55.0043 34.7048 55.2288 34.618 55.431C34.5312 55.6332 34.3872 55.8036 34.1861 55.9422C33.9844 56.0777 33.7351 56.1716 33.4383 56.2239L32.8664 56.3247L33.0176 57.1826L32.0895 57.3462L31.5109 54.0649L33.0109 53.8004ZM33.2531 55.5025C33.4437 55.4689 33.5803 55.403 33.6628 55.3046C33.7448 55.2032 33.7723 55.0759 33.7453 54.9227C33.7183 54.7696 33.649 54.6594 33.5372 54.5921C33.4254 54.5248 33.2743 54.508 33.0836 54.5416L32.568 54.6325L32.7374 55.5935L33.2531 55.5025Z" fill="white"/>
<path d="M38.3978 55.4944L38.5243 56.2116L35.8898 56.6761L35.3112 53.3948L37.8847 52.941L38.0112 53.6582L36.3564 53.95L36.454 54.5031L37.9118 54.2461L38.0342 54.9398L36.5763 55.1969L36.6821 55.7969L38.3978 55.4944Z" fill="white"/>
<path d="M40.58 54.5538L40.1581 54.6282L40.3797 55.8845L39.4562 56.0473L38.8776 52.7659L39.8011 52.6031L40.0259 53.8781L40.4712 53.7996L41.0292 52.3865L42.0043 52.2146L41.2571 53.9801L42.5922 55.4943L41.5469 55.6786L40.58 54.5538Z" fill="white"/>
<path d="M44.9177 55.152C44.5708 55.2131 44.2453 55.1948 43.9413 55.0969C43.6404 54.9986 43.3874 54.8337 43.1823 54.6024C42.9803 54.3706 42.8506 54.0922 42.7933 53.7672C42.736 53.4422 42.7626 53.1362 42.8731 52.8492C42.9868 52.5618 43.1682 52.3203 43.4173 52.125C43.6695 51.929 43.9691 51.8005 44.316 51.7393C44.6628 51.6782 44.9867 51.6968 45.2877 51.7952C45.5917 51.893 45.8447 52.0578 46.0467 52.2897C46.2518 52.5209 46.383 52.7991 46.4403 53.1241C46.4976 53.4491 46.4695 53.7554 46.3558 54.0429C46.2453 54.3298 46.0639 54.5712 45.8117 54.7671C45.5626 54.9625 45.2646 55.0908 44.9177 55.152ZM44.7821 54.3832C44.9478 54.354 45.0909 54.2885 45.2115 54.1866C45.3321 54.0848 45.4191 53.9567 45.4724 53.8023C45.5252 53.6448 45.5353 53.4738 45.5028 53.2894C45.4703 53.105 45.4026 52.9494 45.2996 52.8226C45.1962 52.6926 45.0704 52.6004 44.9222 52.5459C44.774 52.4915 44.6171 52.4789 44.4515 52.5081C44.2859 52.5373 44.1428 52.6028 44.0222 52.7046C43.9016 52.8065 43.8149 52.9361 43.7621 53.0937C43.7088 53.2481 43.6983 53.4175 43.7309 53.6019C43.7634 53.7862 43.8314 53.9434 43.9348 54.0734C44.0378 54.2003 44.1633 54.2909 44.3115 54.3453C44.4596 54.3998 44.6165 54.4124 44.7821 54.3832Z" fill="white"/>
<path d="M50.6057 54.0813L50.2944 52.343L49.7002 53.9075L49.2877 53.9802L48.2009 52.7508L48.5009 54.4525L47.6478 54.6029L47.0692 51.3215L47.8333 51.1868L49.3204 52.8773L50.1115 50.7851L50.8756 50.6504L51.4636 53.9301L50.6057 54.0813Z" fill="white"/>
<path d="M55.0914 52.5509L55.2179 53.2681L52.5834 53.7326L52.0048 50.4512L54.5783 49.9975L54.7048 50.7147L53.0501 51.0064L53.1476 51.5596L54.6055 51.3025L54.7278 51.9963L53.2699 52.2534L53.3757 52.8534L55.0914 52.5509Z" fill="white"/>
<path d="M58.712 49.2686L59.2906 52.55L58.3624 52.7136L58.1367 51.4339L56.8711 51.6571L57.0967 52.9368L56.1686 53.1005L55.59 49.8191L56.5181 49.6554L56.7355 50.8883L58.0012 50.6651L57.7838 49.4322L58.712 49.2686Z" fill="white"/>
<path d="M63.8037 50.9953L64.05 52.3923L63.2016 52.5419L63.085 51.8809L60.9849 52.2512L61.1015 52.9122L60.2483 53.0626L60.002 51.6657L60.1192 51.645C60.3124 51.6077 60.4249 51.4509 60.4568 51.1746C60.4917 50.8978 60.4751 50.5108 60.4067 50.0138L60.2657 48.9946L62.9096 48.5284L63.3584 51.0738L63.8037 50.9953ZM61.2318 49.9505C61.281 50.3027 61.3052 50.6045 61.3044 50.856C61.3037 51.1075 61.2695 51.3068 61.202 51.4541L62.4443 51.235L62.1252 49.4256L61.183 49.5917L61.2318 49.9505Z" fill="white"/>
<path d="M66.9876 50.5354L65.6 50.7801L65.4546 51.4631L64.5077 51.63L65.3776 48.0933L66.2917 47.9321L68.3234 50.9572L67.3578 51.1275L66.9876 50.5354ZM66.595 49.899L65.9879 48.9233L65.7512 50.0477L66.595 49.899Z" fill="white"/>
<path d="M72.5308 49.4565L72.7788 50.8628L71.9303 51.0124L71.8121 50.3421L69.1214 50.8165L68.5428 47.5351L69.4569 47.374L69.9057 49.9194L71.1667 49.697L70.7179 47.1516L71.632 46.9904L72.0808 49.5359L72.5308 49.4565Z" fill="white"/>
<path d="M72.9428 46.7593L73.8569 46.5981L74.1966 48.5248L75.2116 46.3593L76.0835 46.2055L76.6621 49.4869L75.748 49.6481L75.4091 47.7261L74.398 49.8861L73.5214 50.0407L72.9428 46.7593Z" fill="white"/>
<path d="M77.21 46.0069L78.1241 45.8457L78.4639 47.7723L79.4789 45.6068L80.3508 45.4531L80.9294 48.7345L80.0153 48.8956L79.6764 46.9737L78.6652 49.1337L77.7886 49.2883L77.21 46.0069Z" fill="white"/>
<path d="M19.5299 62.7064L18.0439 62.9684L18.4927 65.5139L17.5786 65.675L17 62.3937L19.4048 61.9696L19.5299 62.7064Z" fill="white"/>
<path d="M22.3267 64.1805L20.9391 64.4251L20.7937 65.1081L19.8468 65.2751L20.7167 61.7383L21.6308 61.5771L23.6626 64.6023L22.6969 64.7725L22.3267 64.1805ZM21.9341 63.544L21.3271 62.5684L21.0903 63.6928L21.9341 63.544Z" fill="white"/>
<path d="M26.0248 64.2534C25.681 64.314 25.359 64.2967 25.0586 64.2014C24.7608 64.1025 24.5109 63.9371 24.309 63.7053C24.107 63.4734 23.977 63.1935 23.9192 62.8653C23.8613 62.5372 23.8876 62.2296 23.9982 61.9427C24.1087 61.6558 24.2872 61.4165 24.5337 61.2248C24.7829 61.0294 25.0793 60.9014 25.4231 60.8408C25.7231 60.7879 26.0028 60.7933 26.2621 60.8572C26.5215 60.921 26.7485 61.0389 26.9432 61.2108L26.4467 61.8493C26.189 61.6305 25.9086 61.5478 25.6055 61.6013C25.4274 61.6327 25.2749 61.6999 25.148 61.8028C25.0243 61.9052 24.936 62.0351 24.8833 62.1927C24.833 62.3465 24.8242 62.5156 24.8567 62.7C24.8892 62.8844 24.9557 63.0418 25.056 63.1724C25.1589 63.2992 25.286 63.3896 25.4373 63.4435C25.5917 63.4968 25.758 63.5078 25.9361 63.4764C26.2393 63.4229 26.4745 63.2493 26.6418 62.9556L27.3267 63.3858C27.2026 63.614 27.0296 63.8023 26.8077 63.951C26.5858 64.0997 26.3248 64.2005 26.0248 64.2534Z" fill="white"/>
<path d="M30.433 60.7839L29.4298 60.9608L29.8786 63.5062L28.9645 63.6674L28.5157 61.122L27.5078 61.2997L27.3781 60.5637L30.3032 60.048L30.433 60.7839Z" fill="white"/>
<path d="M32.653 59.6336C32.9499 59.5813 33.2165 59.5858 33.4529 59.6472C33.6888 59.7055 33.8823 59.8164 34.0336 59.9799C34.1843 60.1402 34.2814 60.3438 34.3249 60.5907C34.3685 60.8375 34.3468 61.0621 34.2601 61.2643C34.1733 61.4665 34.0293 61.6369 33.8282 61.7754C33.6265 61.9109 33.3772 62.0048 33.0803 62.0571L32.5084 62.158L32.6597 63.0158L31.7315 63.1795L31.1529 59.8981L32.653 59.6336ZM32.8951 61.3358C33.0858 61.3022 33.2224 61.2362 33.3049 61.1379C33.3869 61.0364 33.4144 60.9091 33.3874 60.756C33.3604 60.6028 33.291 60.4926 33.1793 60.4253C33.0675 60.358 32.9163 60.3412 32.7257 60.3748L32.21 60.4657L32.3795 61.4267L32.8951 61.3358Z" fill="white"/>
<path d="M37.2018 62.2826C36.8549 62.3438 36.5294 62.3254 36.2254 62.2276C35.9245 62.1292 35.6715 61.9644 35.4663 61.7331C35.2643 61.5013 35.1347 61.2228 35.0774 60.8978C35.0201 60.5728 35.0467 60.2668 35.1572 59.9799C35.2708 59.6924 35.4522 59.451 35.7013 59.2556C35.9536 59.0597 36.2531 58.9311 36.6 58.87C36.9469 58.8088 37.2708 58.8274 37.5717 58.9258C37.8757 59.0237 38.1288 59.1885 38.3308 59.4203C38.5359 59.6516 38.6671 59.9298 38.7244 60.2548C38.7817 60.5798 38.7535 60.886 38.6399 61.1735C38.5294 61.4605 38.348 61.7019 38.0958 61.8978C37.8466 62.0932 37.5486 62.2214 37.2018 62.2826ZM37.0662 61.5138C37.2318 61.4846 37.375 61.4191 37.4956 61.3173C37.6162 61.2155 37.7031 61.0874 37.7565 60.9329C37.8092 60.7754 37.8194 60.6045 37.7869 60.4201C37.7543 60.2357 37.6866 60.0801 37.5837 59.9532C37.4802 59.8232 37.3544 59.731 37.2063 59.6766C37.0581 59.6222 36.9012 59.6096 36.7356 59.6388C36.5699 59.668 36.4268 59.7335 36.3062 59.8353C36.1856 59.9371 36.0989 60.0668 36.0461 60.2243C35.9928 60.3787 35.9824 60.5481 36.0149 60.7325C36.0474 60.9169 36.1154 61.0741 36.2189 61.2041C36.3218 61.3309 36.4474 61.4216 36.5955 61.476C36.7437 61.5304 36.9006 61.543 37.0662 61.5138Z" fill="white"/>
<path d="M40.3845 58.2027C40.7158 58.1443 41.0256 58.1653 41.3141 58.2659C41.6019 58.3634 41.8421 58.5289 42.0348 58.7624C42.2305 58.9953 42.3573 59.2758 42.4152 59.604C42.473 59.9321 42.4498 60.2391 42.3456 60.5249C42.2444 60.8102 42.0755 61.0495 41.8389 61.2426C41.6018 61.4327 41.3175 61.5569 40.9863 61.6153C40.6831 61.6687 40.4003 61.6638 40.1378 61.6006C39.8785 61.5367 39.6515 61.4189 39.4568 61.247L39.9485 60.6093C40.2125 60.8269 40.4976 60.9088 40.8039 60.8548C41.0007 60.8201 41.1586 60.7375 41.2773 60.607C41.3987 60.4728 41.4691 60.3057 41.4886 60.1057L40.3026 60.3148L40.182 59.6304L41.3586 59.4229C41.2735 59.2511 41.1531 59.1257 40.9974 59.0468C40.8417 58.9679 40.667 58.9455 40.4732 58.9797C40.167 59.0337 39.927 59.2081 39.7535 59.503L39.0733 59.0719C39.1974 58.8438 39.3704 58.6554 39.5923 58.5067C39.8173 58.3575 40.0814 58.2561 40.3845 58.2027Z" fill="white"/>
<path d="M46.1703 57.2502L46.7489 60.5315L45.8207 60.6952L45.5951 59.4155L44.3294 59.6386L44.555 60.9184L43.6269 61.082L43.0483 57.8006L43.9764 57.637L44.1938 58.8698L45.4595 58.6467L45.2421 57.4138L46.1703 57.2502Z" fill="white"/>
<path d="M50.0708 57.3212L49.0677 57.4981L49.5165 60.0435L48.6024 60.2047L48.1536 57.6593L47.1457 57.837L47.016 57.101L49.9411 56.5853L50.0708 57.3212Z" fill="white"/>
<path d="M53.8774 58.5351L54.0039 59.2523L51.3694 59.7168L50.7908 56.4354L53.3644 55.9816L53.4908 56.6989L51.8361 56.9906L51.9336 57.5438L53.3915 57.2867L53.5138 57.9805L52.0559 58.2376L52.1617 58.8376L53.8774 58.5351Z" fill="white"/>
<path d="M55.876 55.5388C56.1729 55.4864 56.4396 55.491 56.676 55.5524C56.9118 55.6107 57.1053 55.7216 57.2566 55.885C57.4073 56.0453 57.5045 56.2489 57.548 56.4958C57.5915 56.7427 57.5699 56.9672 57.4831 57.1694C57.3963 57.3716 57.2523 57.542 57.0512 57.6806C56.8495 57.816 56.6003 57.9099 56.3034 57.9623L55.7315 58.0631L55.8827 58.921L54.9546 59.0846L54.376 55.8033L55.876 55.5388ZM56.1182 57.2409C56.3088 57.2073 56.4454 57.1414 56.5279 57.043C56.6099 56.9416 56.6374 56.8143 56.6104 56.6611C56.5834 56.508 56.5141 56.3978 56.4023 56.3305C56.2906 56.2632 56.1394 56.2464 55.9487 56.28L55.4331 56.3709L55.6025 57.3319L56.1182 57.2409Z" fill="white"/>
<path d="M60.4248 58.1878C60.0779 58.2489 59.7525 58.2306 59.4484 58.1328C59.1475 58.0344 58.8945 57.8695 58.6894 57.6382C58.4874 57.4064 58.3577 57.128 58.3004 56.803C58.2431 56.478 58.2697 56.172 58.3802 55.8851C58.4939 55.5976 58.6753 55.3561 58.9244 55.1608C59.1766 54.9648 59.4762 54.8363 59.8231 54.7751C60.1699 54.714 60.4938 54.7326 60.7948 54.831C61.0988 54.9288 61.3518 55.0936 61.5538 55.3255C61.7589 55.5568 61.8901 55.8349 61.9474 56.1599C62.0047 56.4849 61.9766 56.7912 61.8629 57.0787C61.7524 57.3656 61.571 57.607 61.3188 57.803C61.0697 57.9983 60.7717 58.1266 60.4248 58.1878ZM60.2892 57.419C60.4549 57.3898 60.598 57.3243 60.7186 57.2224C60.8392 57.1206 60.9262 56.9925 60.9795 56.8381C61.0323 56.6806 61.0424 56.5096 61.0099 56.3252C60.9774 56.1408 60.9097 55.9852 60.8067 55.8584C60.7033 55.7284 60.5775 55.6362 60.4293 55.5818C60.2811 55.5273 60.1243 55.5147 59.9586 55.5439C59.793 55.5731 59.6499 55.6386 59.5293 55.7405C59.4087 55.8423 59.322 55.972 59.2692 56.1295C59.2159 56.2839 59.2054 56.4533 59.238 56.6377C59.2705 56.8221 59.3385 56.9792 59.4419 57.1092C59.5449 57.2361 59.6704 57.3267 59.8186 57.3811C59.9667 57.4356 60.1236 57.4482 60.2892 57.419Z" fill="white"/>
<path d="M65.5458 53.8337L66.1244 57.1151L65.2103 57.2763L64.7615 54.7309L63.8192 54.897L63.8947 55.4347C63.9618 55.9062 63.9899 56.2944 63.9792 56.5992C63.9716 56.9034 63.9087 57.1497 63.7905 57.3381C63.6717 57.5234 63.478 57.6397 63.2092 57.6871C63.0842 57.7092 62.9403 57.7152 62.7774 57.7053L62.695 56.9368C62.7373 56.939 62.7803 56.9362 62.8241 56.9285C62.946 56.907 63.0312 56.8421 63.0797 56.7336C63.1283 56.6252 63.1515 56.4825 63.1493 56.3057C63.1465 56.1257 63.1253 55.8958 63.0857 55.616L62.9019 54.2999L65.5458 53.8337Z" fill="white"/>
<path d="M68.8723 56.6982C68.5254 56.7594 68.2 56.7411 67.8959 56.6432C67.595 56.5448 67.342 56.38 67.1369 56.1487C66.9349 55.9169 66.8053 55.6385 66.7479 55.3135C66.6906 54.9884 66.7172 54.6825 66.8278 54.3955C66.9414 54.108 67.1228 53.8666 67.3719 53.6712C67.6241 53.4753 67.9237 53.3468 68.2706 53.2856C68.6175 53.2244 68.9414 53.2431 69.2423 53.3414C69.5463 53.4393 69.7993 53.6041 70.0013 53.8359C70.2064 54.0672 70.3376 54.3454 70.395 54.6704C70.4523 54.9954 70.4241 55.3017 70.3105 55.5891C70.1999 55.8761 70.0186 56.1175 69.7663 56.3134C69.5172 56.5088 69.2192 56.6371 68.8723 56.6982ZM68.7368 55.9295C68.9024 55.9003 69.0455 55.8347 69.1661 55.7329C69.2867 55.6311 69.3737 55.503 69.427 55.3486C69.4798 55.191 69.4899 55.0201 69.4574 54.8357C69.4249 54.6513 69.3572 54.4957 69.2543 54.3688C69.1508 54.2389 69.025 54.1467 68.8768 54.0922C68.7287 54.0378 68.5718 54.0252 68.4061 54.0544C68.2405 54.0836 68.0974 54.1491 67.9768 54.2509C67.8562 54.3528 67.7695 54.4824 67.7167 54.64C67.6634 54.7944 67.653 54.9638 67.6855 55.1481C67.718 55.3325 67.786 55.4897 67.8895 55.6197C67.9924 55.7465 68.1179 55.8372 68.2661 55.8916C68.4142 55.946 68.5711 55.9587 68.7368 55.9295Z" fill="white"/>
<path d="M73.5537 53.1806L72.0677 53.4426L72.5165 55.988L71.6024 56.1492L71.0238 52.8678L73.4286 52.4438L73.5537 53.1806Z" fill="white"/>
<path d="M76.1845 55.4089C75.8377 55.4701 75.5122 55.4517 75.2082 55.3539C74.9073 55.2555 74.6542 55.0907 74.4491 54.8594C74.2471 54.6275 74.1175 54.3491 74.0602 54.0241C74.0029 53.6991 74.0295 53.3931 74.14 53.1062C74.2536 52.8187 74.435 52.5773 74.6841 52.3819C74.9364 52.186 75.2359 52.0574 75.5828 51.9963C75.9297 51.9351 76.2536 51.9537 76.5545 52.0521C76.8585 52.1499 77.1116 52.3148 77.3135 52.5466C77.5187 52.7779 77.6499 53.056 77.7072 53.381C77.7645 53.7061 77.7363 54.0123 77.6227 54.2998C77.5122 54.5867 77.3308 54.8282 77.0785 55.0241C76.8294 55.2195 76.5314 55.3477 76.1845 55.4089ZM76.049 54.6401C76.2146 54.6109 76.3577 54.5454 76.4783 54.4436C76.5989 54.3418 76.6859 54.2136 76.7392 54.0592C76.792 53.9017 76.8022 53.7307 76.7697 53.5464C76.7371 53.362 76.6694 53.2064 76.5665 53.0795C76.463 52.9495 76.3372 52.8573 76.189 52.8029C76.0409 52.7485 75.884 52.7358 75.7184 52.765C75.5527 52.7943 75.4096 52.8598 75.289 52.9616C75.1684 53.0634 75.0817 53.1931 75.0289 53.3506C74.9756 53.505 74.9652 53.6744 74.9977 53.8588C75.0302 54.0432 75.0982 54.2004 75.2017 54.3303C75.3046 54.4572 75.4302 54.5478 75.5783 54.6023C75.7265 54.6567 75.8834 54.6693 76.049 54.6401Z" fill="white"/>
<path d="M81.0028 52.7226C81.2076 52.7509 81.3716 52.8219 81.4947 52.9355C81.621 53.0486 81.7012 53.202 81.7354 53.3958C81.7866 53.6864 81.7131 53.9362 81.5147 54.1452C81.3189 54.3505 81.0132 54.4898 80.5975 54.5631L78.9146 54.8598L78.336 51.5785L79.9299 51.2974C80.3236 51.228 80.6415 51.2493 80.8836 51.3613C81.1283 51.4696 81.2746 51.6597 81.3225 51.9316C81.3506 52.0909 81.3364 52.2384 81.2797 52.3741C81.2262 52.5092 81.1339 52.6254 81.0028 52.7226ZM79.4816 52.7298L80.0722 52.6257C80.3347 52.5794 80.447 52.4484 80.409 52.2328C80.3709 52.0172 80.2207 51.9325 79.9582 51.9788L79.3675 52.0829L79.4816 52.7298ZM80.4426 53.9041C80.7114 53.8567 80.8257 53.7189 80.7854 53.4908C80.7463 53.2689 80.5924 53.1816 80.3236 53.229L79.5923 53.358L79.7114 54.033L80.4426 53.9041Z" fill="white"/>
<path d="M84.0348 51.9318L83.6879 51.993L83.764 52.4242L83.3514 52.497L83.2754 52.0657L82.2066 52.2542L82.1587 51.9823L82.8537 50.5789L83.3178 50.497L82.6542 51.8321L83.2542 51.7263L83.1906 51.3653L83.5656 51.2992L83.6292 51.6602L83.9761 51.599L84.0348 51.9318Z" fill="white"/>
<path d="M85.0027 50.9878C85.1121 50.9685 85.209 50.9885 85.2936 51.0477C85.3813 51.1063 85.4345 51.1888 85.4532 51.295C85.462 51.345 85.4649 51.3977 85.4617 51.453C85.4586 51.5084 85.4458 51.5912 85.4234 51.7015L85.3105 52.2675L84.9308 52.3345L84.9783 51.7268C84.9052 51.7139 84.843 51.6814 84.7919 51.6291C84.7403 51.5738 84.7076 51.5071 84.6938 51.4289C84.6745 51.3196 84.6948 51.2242 84.7545 51.1427C84.8137 51.0582 84.8964 51.0065 85.0027 50.9878Z" fill="white"/>
<path d="M86.9112 50.6513C87.5113 50.5455 87.846 50.6895 87.9154 51.0832C87.9468 51.2613 87.8964 51.4233 87.7642 51.569C87.632 51.7148 87.4253 51.8125 87.1441 51.8621C86.9753 51.8918 86.8108 51.8999 86.6505 51.8863C86.4928 51.869 86.3657 51.8334 86.2692 51.7795L86.3787 51.4412C86.4698 51.4831 86.5778 51.5108 86.7027 51.5242C86.8275 51.5377 86.9539 51.5331 87.0821 51.5105C87.2321 51.484 87.342 51.4405 87.4119 51.3798C87.4817 51.3192 87.5092 51.2467 87.4944 51.1623C87.4789 51.0748 87.4267 51.0163 87.3378 50.9869C87.2488 50.9575 87.1043 50.9604 86.9043 50.9957L86.3277 51.0973L86.2515 49.9798L87.5406 49.7525L87.5993 50.0853L86.6571 50.2514L86.6862 50.6909L86.9112 50.6513Z" fill="white"/>
<path d="M89.0052 50.2821C89.1145 50.2628 89.2115 50.2827 89.2961 50.3419C89.3837 50.4006 89.4369 50.483 89.4557 50.5893C89.4645 50.6393 89.4673 50.692 89.4642 50.7473C89.4611 50.8026 89.4483 50.8854 89.4258 50.9957L89.313 51.5618L88.9333 51.6288L88.9808 51.021C88.9076 51.0082 88.8455 50.9756 88.7944 50.9234C88.7428 50.8681 88.71 50.8013 88.6963 50.7232C88.677 50.6138 88.6972 50.5184 88.757 50.437C88.8162 50.3524 88.8989 50.3008 89.0052 50.2821Z" fill="white"/>
<path d="M91.1431 49.8761C91.3556 49.8386 91.5421 49.8637 91.7026 49.9514C91.8625 50.036 91.9582 50.1674 91.9896 50.3455C92.0232 50.5361 91.9755 50.704 91.8464 50.8493C91.7173 50.9945 91.5372 51.0874 91.3059 51.1282C91.0059 51.1811 90.7582 51.1378 90.5628 50.9983C90.3674 50.8587 90.243 50.6374 90.1896 50.3342C90.1328 50.0123 90.1879 49.74 90.3548 49.5172C90.5212 49.2913 90.7732 49.1486 91.1107 49.0891C91.2138 49.0709 91.3158 49.0642 91.4165 49.069C91.5204 49.0733 91.6115 49.0878 91.69 49.1126L91.5962 49.4578C91.4602 49.4174 91.3172 49.4104 91.1672 49.4368C90.9578 49.4737 90.8008 49.561 90.6962 49.6987C90.5941 49.8327 90.5599 49.995 90.5935 50.1857C90.6419 50.1127 90.7128 50.0486 90.8062 49.9935C90.9027 49.9378 91.015 49.8987 91.1431 49.8761ZM91.2318 50.8175C91.3537 50.796 91.4456 50.7508 91.5075 50.6818C91.5695 50.6129 91.5922 50.5316 91.5757 50.4378C91.5592 50.3441 91.51 50.2754 91.4282 50.2318C91.3458 50.1851 91.2406 50.1731 91.1125 50.1957C90.9843 50.2182 90.8849 50.2664 90.8141 50.3401C90.7464 50.4132 90.7206 50.4951 90.7366 50.5858C90.7515 50.6701 90.8019 50.737 90.8879 50.7863C90.9734 50.8324 91.088 50.8428 91.2318 50.8175Z" fill="white"/>
</g>
<defs>
<clipPath id="clip0">
<rect width="90.7963" height="90.7963" fill="white" transform="translate(0.469574 15.7666) rotate(-10)"/>
</clipPath>
</defs>
</svg>
