<svg width="120" height="121" viewBox="0 0 120 121" fill="none" xmlns="http://www.w3.org/2000/svg">
<path d="M23.7705 25.2901C33.2161 23.597 42.8499 24.5026 52.5974 25.0232C66.9036 24.5463 82.1286 22.687 95.5205 25.5526C83.4411 27.1932 71.3224 27.0926 59.0024 26.0863C47.3124 24.9751 34.7518 28.322 23.7705 25.2901Z" fill="#6BC594"/>
<path d="M41.0038 64.1314C40.8725 61.0689 38.8688 58.2864 37.5038 55.1407C37.6928 58.1626 38.4218 61.1261 39.6563 63.8907C30.7794 63.3964 21.8982 64.6826 12.7544 64.8095C18.98 52.7126 22.6113 39.4345 26.8988 26.362C28.8763 30.8988 30.8363 38.3145 33.0763 41.9851C32.2888 39.3251 31.0682 35.3176 30.3288 32.8938C28.6313 29.3195 27.7038 17.1001 24.6807 27.6438C19.7194 40.152 15.2744 52.3801 11.9932 65.3039C12.1988 72.7151 17.6457 75.2614 24.7332 73.9095C30.5082 72.632 37.6044 74.8589 41.1569 68.607C41.6732 67.6095 42.8325 65.037 41.0038 64.1314ZM38.0944 70.3832C34.9269 74.5832 28.8107 72.5707 24.1382 72.2032C19.3257 71.9801 13.73 71.7395 12.8419 65.6407C21.5 65.7545 30.565 67.0451 39.5294 66.5639C39.4007 67.9423 38.9052 69.2611 38.0944 70.3832Z" fill="#6BC594"/>
<path d="M106.883 63.9607C105.605 59.0345 93.0577 14.3395 91.8677 25.1063C87.9783 39.7932 79.1802 52.8132 78.3052 67.7714C80.5627 76.3376 88.5208 74.1545 95.2146 73.4151C98.8371 73.0345 101.834 73.7257 105.001 71.2276C107.447 69.4382 109.306 65.0676 106.883 63.9607ZM83.0302 55.2895C87.0333 46.102 88.6346 35.7201 92.7471 26.327C96.2164 38.9751 100.583 51.8376 106.139 63.9126C97.1089 63.3745 88.1008 64.6782 78.8083 64.8139C80.3877 61.7251 81.7264 58.5051 83.0302 55.2895ZM104.157 70.3832C100.99 74.5832 94.8733 72.5707 90.2008 72.2032C85.3883 71.9801 79.7927 71.7395 78.9046 65.6407C87.5627 65.7545 96.6277 67.0451 105.592 66.5639C105.463 67.9423 104.968 69.2611 104.157 70.3832Z" fill="#6BC594"/>
<path d="M85.1518 109.364C85.5193 101.8 76.5243 102.802 71.3925 102.561C68.7368 102.999 72.2675 97.2326 62.3756 98.5932C63.6881 90.3158 63.1281 81.7451 62.4587 73.1701C62.5112 64.1445 63.7712 55.8014 63.43 46.6401C63.7712 41.4426 62.0168 35.9214 62.7956 31.4545C64.6725 30.212 65.2543 28.392 65.4425 25.9901C66.1818 21.007 62.38 20.3026 62.9487 18.277C63.5568 16.5664 62.9487 14.3395 62.4543 12.2482C60.2668 11.8501 55.0168 8.74825 55.835 14.952C55.8877 16.3561 56.1471 17.7448 56.605 19.0732C54.1156 20.3857 52.3831 23.4745 53.5425 26.6376C54.4175 29.9145 58.0443 30.6014 56.605 34.552C55.5593 42.6501 56.4475 49.8076 56.8718 57.8576C56.2681 71.9407 54.9381 85.3545 57.0818 99.3895C54.2031 98.9826 49.5918 97.3289 48.9093 102.452L47.7981 102.474C41.9793 102.736 34.2925 101.371 33.7412 109.08C33.8375 109.833 34.4106 110.034 34.4325 109.955C51.0443 109.312 68.6625 112.059 85.1518 109.364ZM58.4643 73.8351C56.6662 59.8876 59.5187 45.7039 57.515 31.5289C58.1486 31.8831 58.8478 32.1046 59.5699 32.1799C60.292 32.2551 61.0219 32.1824 61.715 31.9664C59.895 44.9207 60.84 57.9889 61.6362 71.1795C61.3475 80.4195 60.1312 89.2964 61.7237 98.6764C60.56 98.7989 59.0156 99.3414 57.4143 99.3982C58.5353 90.9264 58.8911 82.3708 58.4775 73.8351H58.4643ZM58.1143 18.2726C59.4575 15.5339 56.6181 12.7514 61.5837 12.6901C61.1025 14.4401 60.4812 16.317 61.2206 18.5745C60.1838 18.2785 59.0881 18.2559 58.04 18.5089C58.0793 18.4345 58.1012 18.3557 58.1275 18.277L58.1143 18.2726ZM54.7981 27.4251C52.9518 20.4251 65.0487 18.452 65.1668 25.9639C64.6943 30.0195 56.3118 32.0539 54.7981 27.4251ZM51.1756 101.638C54.435 99.9932 58.3725 100.02 62.275 100.986C64.62 101.533 67.0875 100.339 69.1262 102.491C63.0406 102.281 56.5 102.286 50.2525 102.439C50.5239 102.133 50.8343 101.864 51.1756 101.638ZM64.7731 108.253C54.9031 108.109 44.9368 109.5 34.8918 108.879C35.7012 104.451 39.8268 104.539 43.7206 104.876C50.0162 105.024 55.66 105.191 61.9425 105.125C75.5487 105.738 83.0562 101.406 84.8675 109.273C78.3093 108.581 71.5543 108.336 64.7731 108.253Z" fill="#6BC594"/>
</svg>
