<svg width="134" height="135" viewBox="0 0 134 135" fill="none" xmlns="http://www.w3.org/2000/svg">
<path d="M42.1728 45.4292C45.705 50.6981 52.4693 49.9691 58.3225 49.0901C57.7865 50.3122 57.8561 68.8685 59.4749 62.742C60.9113 54.5412 58.7191 29.1831 58.3439 48.7256C30.1932 48.7256 39.1873 26.4709 50.7005 24.3537C51.7243 24.2036 51.6439 23.8177 50.127 23.8177C52.7266 10.5785 68.1259 5.67409 76.2624 16.437C70.1949 16.6353 81.0864 16.9301 82.6193 20.6821C83.6913 21.0626 85.9961 31.8791 86.2802 24.9165C103.62 36.7621 91.6885 49.2831 74.8795 48.6935C74.2685 27.3499 72.1995 61.9809 74.1505 64.4626C76.1981 60.4747 75.0457 54.2786 74.9063 49.1491C97.2414 54.4608 98.292 33.4496 92.4817 27.5107C90.8321 25.8085 88.6491 24.7227 86.2963 24.4341C86.1945 21.0466 83.4609 17.8359 79.5802 16.8336C77.9186 16.3351 76.5089 17.0266 75.5549 14.7914C67.2147 3.64801 48.2403 9.75305 49.7786 23.8231C37.5203 24.3912 35.1565 37.8341 42.1728 45.4292Z" fill="#FF6962"/>
<path d="M95.1404 96.6333C74.424 58.8024 83.4288 67.1533 66.0945 66.3064C59.5553 66.9121 55.9963 64.618 54.3401 69.3723C44.5527 87.2426 35.7516 105.451 25.3264 122.838C20.8722 127.962 29.416 125.518 32.1282 126.226C58.0009 127.234 84.3989 126.124 110.041 125.379L95.1404 96.6333ZM57.7061 69.4581C63.2698 69.5278 70.0341 69.6511 76.3482 69.6457C77.5703 69.8976 78.6744 73.6764 80.0037 75.3916C71.5564 70.5676 77.0611 80.5962 74.5151 83.8336C73.2073 83.9783 73.4431 80.3818 73.3305 78.7952C73.4806 76.4368 72.9875 67.3516 68.8281 72.0791C68.0349 73.6175 69.0801 76.3296 67.8526 77.9215C66.7109 77.3855 67.7079 75.5417 66.7109 73.8587C64.0309 70.4283 61.694 75.0003 61.7047 77.9966C61.6029 80.2317 60.1503 88.6523 56.8378 84.0909C56.0874 80.1835 61.3402 72.6259 53.0858 77.3855C54.6402 74.7591 56.1803 72.1167 57.7061 69.4581ZM76.6859 75.6757C76.6484 75.7079 76.6484 75.6971 76.6859 75.6918V75.6757ZM56.7628 77.1979H56.8164C56.7994 77.2058 56.7813 77.2112 56.7628 77.214V77.1979ZM87.8508 124.57C67.1772 123.926 46.6699 123.658 25.8624 124.537C32.3748 112.156 37.8312 102.872 45.3085 90.4586C50.6202 82.7348 50.5666 78.018 56.3018 77.2515C55.6801 79.8297 53.5361 83.035 55.3853 86.1491C55.865 86.7085 56.4843 87.1309 57.1802 87.3734C57.876 87.6159 58.6237 87.67 59.3472 87.5301C60.0707 87.3902 60.7443 87.0613 61.2996 86.5768C61.8549 86.0923 62.272 85.4695 62.5087 84.7716C63.9827 81.6092 63.0447 77.8411 64.4651 74.4375C66.6788 74.0838 65.3549 76.9728 66.9521 78.6023C69.9109 79.8726 68.8817 75.0486 69.2623 72.8992C69.5517 70.4711 72.3657 71.3502 72.087 74.2928C72.4515 77.6428 69.407 88.5397 76.2571 84.9699C78.3368 82.2899 76.2196 79.0096 76.6859 75.6703C78.1921 75.7615 80.9739 76.7102 81.4188 77.8626C84.5812 83.3459 85.7497 85.2969 88.3225 89.6546C94.9957 100.852 103.202 114.225 109.762 125.224L87.8508 124.57Z" fill="#FF6962"/>
<path d="M65.1456 41.5486C65.108 41.0126 64.9097 32.6992 64.7811 36.9283C63.5054 71.5163 66.2711 58.0091 65.1456 41.5486Z" fill="#FF6962"/>
<path d="M70.291 25.0666C69.9694 32.0989 69.0742 40.9965 70.291 48.1146C71.3147 40.9644 70.4089 32.324 70.291 25.0666Z" fill="#FF6962"/>
<path d="M91.1203 110.36C90.2895 107.814 87.9043 105.799 86.9931 102.808C86.7417 100.317 85.5839 98.005 83.7396 96.3117C83.4716 96.3867 83.5466 96.3117 83.5681 97.1103C83.5305 100.487 86.173 102.224 87.2504 105.585C87.4916 110.194 95.1189 122.329 91.1203 110.36Z" fill="#FF6962"/>
<path d="M53.5303 95.765C48.3847 99.726 47.8594 106.485 43.223 111.443C39.5729 118.411 44.0592 115.324 46.0263 109.755C47.8594 104.834 53.5303 101.425 53.5303 95.765Z" fill="#FF6962"/>
<path d="M64.9206 105.37C63.6181 108.211 61.1096 111.802 62.0959 115.608C64.9956 113.946 64.4972 108.833 64.9206 105.37Z" fill="#FF6962"/>
</svg>
