<svg width="152" height="151" viewBox="0 0 152 151" fill="none" xmlns="http://www.w3.org/2000/svg">
<g filter="url(#filter0_f)">
<circle cx="76.2217" cy="75.5" r="69.5" fill="url(#paint0_linear)"/>
</g>
<path d="M39.1969 80.174V83H29.3869V80.768L34.1029 76.358C34.5589 75.926 34.8649 75.56 35.0209 75.26C35.1769 74.948 35.2549 74.636 35.2549 74.324C35.2549 73.916 35.1169 73.598 34.8409 73.37C34.5649 73.142 34.1629 73.028 33.6349 73.028C33.1669 73.028 32.7349 73.136 32.3389 73.352C31.9549 73.556 31.6369 73.856 31.3849 74.252L28.7389 72.776C29.2309 71.96 29.9209 71.318 30.8089 70.85C31.6969 70.382 32.7469 70.148 33.9589 70.148C34.9189 70.148 35.7649 70.304 36.4969 70.616C37.2409 70.928 37.8169 71.378 38.2249 71.966C38.6449 72.542 38.8549 73.214 38.8549 73.982C38.8549 74.666 38.7049 75.314 38.4049 75.926C38.1169 76.526 37.5529 77.21 36.7129 77.978L34.3369 80.174H39.1969ZM42.786 83.162C42.21 83.162 41.724 82.97 41.328 82.586C40.932 82.202 40.734 81.716 40.734 81.128C40.734 80.528 40.926 80.042 41.31 79.67C41.706 79.298 42.198 79.112 42.786 79.112C43.386 79.112 43.878 79.298 44.262 79.67C44.646 80.042 44.838 80.528 44.838 81.128C44.838 81.716 44.64 82.202 44.244 82.586C43.86 82.97 43.374 83.162 42.786 83.162ZM51.1237 74.99C52.8877 74.99 54.1897 75.35 55.0297 76.07C55.8817 76.79 56.3077 77.75 56.3077 78.95C56.3077 79.73 56.1037 80.45 55.6957 81.11C55.2997 81.758 54.6877 82.28 53.8597 82.676C53.0437 83.06 52.0297 83.252 50.8177 83.252C49.9297 83.252 49.0477 83.144 48.1717 82.928C47.3077 82.712 46.5637 82.406 45.9397 82.01L47.2177 79.328C47.7217 79.664 48.2737 79.922 48.8737 80.102C49.4857 80.282 50.0977 80.372 50.7097 80.372C51.3217 80.372 51.8077 80.258 52.1677 80.03C52.5397 79.79 52.7257 79.46 52.7257 79.04C52.7257 78.62 52.5457 78.302 52.1857 78.086C51.8257 77.87 51.1897 77.762 50.2777 77.762H46.8577L47.4877 70.4H55.5157V73.154H50.4397L50.2777 74.99H51.1237ZM69.8873 83L69.8693 76.322L66.6293 81.758H65.0453L61.8053 76.466V83H58.5293V70.4H61.4633L65.8913 77.672L70.2113 70.4H73.1453L73.1813 83H69.8873ZM88.0302 70.4V83H84.5202V73.226H80.9022L80.8302 75.278C80.7702 77.078 80.6202 78.542 80.3802 79.67C80.1522 80.798 79.7562 81.674 79.1922 82.298C78.6282 82.91 77.8302 83.216 76.7982 83.216C76.3182 83.216 75.7782 83.144 75.1782 83L75.3762 80.084C75.5322 80.12 75.6942 80.138 75.8622 80.138C76.3302 80.138 76.6902 79.952 76.9422 79.58C77.1942 79.208 77.3742 78.692 77.4822 78.032C77.5902 77.36 77.6622 76.49 77.6982 75.422L77.8782 70.4H88.0302ZM96.9354 70.4C98.0754 70.4 99.0654 70.592 99.9054 70.976C100.745 71.348 101.393 71.888 101.849 72.596C102.305 73.292 102.533 74.114 102.533 75.062C102.533 76.01 102.305 76.832 101.849 77.528C101.393 78.224 100.745 78.764 99.9054 79.148C99.0654 79.52 98.0754 79.706 96.9354 79.706H94.7394V83H91.1754V70.4H96.9354ZM96.7194 76.898C97.4514 76.898 98.0034 76.742 98.3754 76.43C98.7474 76.106 98.9334 75.65 98.9334 75.062C98.9334 74.474 98.7474 74.018 98.3754 73.694C98.0034 73.37 97.4514 73.208 96.7194 73.208H94.7394V76.898H96.7194ZM117.466 80.174V85.538H114.208V83H106.144V85.538H102.868V80.174H103.318C104.062 80.162 104.584 79.652 104.884 78.644C105.196 77.636 105.388 76.184 105.46 74.288L105.604 70.4H115.756V80.174H117.466ZM108.574 74.594C108.526 75.938 108.418 77.078 108.25 78.014C108.082 78.95 107.824 79.67 107.476 80.174H112.246V73.226H108.628L108.574 74.594ZM121.037 83.162C120.461 83.162 119.975 82.97 119.579 82.586C119.183 82.202 118.985 81.716 118.985 81.128C118.985 80.528 119.177 80.042 119.561 79.67C119.957 79.298 120.449 79.112 121.037 79.112C121.637 79.112 122.129 79.298 122.513 79.67C122.897 80.042 123.089 80.528 123.089 81.128C123.089 81.716 122.891 82.202 122.495 82.586C122.111 82.97 121.625 83.162 121.037 83.162ZM62.0711 100.176H60.4511V105H56.9051V92.4H60.4511V97.296H62.1611L65.1671 92.4H68.9111L64.9691 98.484L68.9471 105H64.9331L62.0711 100.176ZM76.6621 105.252C75.3301 105.252 74.1301 104.97 73.0621 104.406C72.0061 103.842 71.1721 103.062 70.5601 102.066C69.9601 101.07 69.6601 99.948 69.6601 98.7C69.6601 97.452 69.9601 96.33 70.5601 95.334C71.1721 94.338 72.0061 93.558 73.0621 92.994C74.1301 92.43 75.3301 92.148 76.6621 92.148C77.9941 92.148 79.1881 92.43 80.2441 92.994C81.3121 93.558 82.1461 94.338 82.7461 95.334C83.3581 96.33 83.6641 97.452 83.6641 98.7C83.6641 99.948 83.3581 101.07 82.7461 102.066C82.1461 103.062 81.3121 103.842 80.2441 104.406C79.1881 104.97 77.9941 105.252 76.6621 105.252ZM76.6621 102.3C77.2981 102.3 77.8741 102.15 78.3901 101.85C78.9061 101.55 79.3141 101.13 79.6141 100.59C79.9141 100.038 80.0641 99.408 80.0641 98.7C80.0641 97.992 79.9141 97.368 79.6141 96.828C79.3141 96.276 78.9061 95.85 78.3901 95.55C77.8741 95.25 77.2981 95.1 76.6621 95.1C76.0261 95.1 75.4501 95.25 74.9341 95.55C74.4181 95.85 74.0101 96.276 73.7101 96.828C73.4101 97.368 73.2601 97.992 73.2601 98.7C73.2601 99.408 73.4101 100.038 73.7101 100.59C74.0101 101.13 74.4181 101.55 74.9341 101.85C75.4501 102.15 76.0261 102.3 76.6621 102.3ZM96.1357 102.246V105H86.0197V92.4H95.9017V95.154H89.5477V97.278H95.1457V99.942H89.5477V102.246H96.1357Z" fill="white"/>
<path d="M41.2225 49.58H42.5665V52.73H46.7945V49.58H48.1385V57H46.7945V53.892H42.5665V57H41.2225V49.58ZM57.8078 53.332C57.8078 53.4347 57.7985 53.57 57.7798 53.738H51.7598C51.8438 54.3913 52.1285 54.9187 52.6138 55.32C53.1085 55.712 53.7198 55.908 54.4478 55.908C55.3345 55.908 56.0485 55.6093 56.5898 55.012L57.3318 55.88C56.9958 56.272 56.5758 56.5707 56.0718 56.776C55.5771 56.9813 55.0218 57.084 54.4058 57.084C53.6218 57.084 52.9265 56.9253 52.3198 56.608C51.7131 56.2813 51.2418 55.8287 50.9058 55.25C50.5791 54.6713 50.4158 54.018 50.4158 53.29C50.4158 52.5713 50.5745 51.9227 50.8918 51.344C51.2185 50.7653 51.6618 50.3173 52.2218 50C52.7911 49.6733 53.4305 49.51 54.1398 49.51C54.8491 49.51 55.4791 49.6733 56.0298 50C56.5898 50.3173 57.0238 50.7653 57.3318 51.344C57.6491 51.9227 57.8078 52.5853 57.8078 53.332ZM54.1398 50.644C53.4958 50.644 52.9545 50.84 52.5158 51.232C52.0865 51.624 51.8345 52.1373 51.7598 52.772H56.5198C56.4451 52.1467 56.1885 51.638 55.7498 51.246C55.3205 50.8447 54.7838 50.644 54.1398 50.644ZM72.9066 49.58V57H71.6886V51.582L68.9166 56.16H68.3286L65.5846 51.568V57H64.3526V49.58H65.7386L68.6506 54.592L71.6466 49.58H72.9066ZM82.5785 53.332C82.5785 53.4347 82.5692 53.57 82.5505 53.738H76.5305C76.6145 54.3913 76.8992 54.9187 77.3845 55.32C77.8792 55.712 78.4905 55.908 79.2185 55.908C80.1052 55.908 80.8192 55.6093 81.3605 55.012L82.1025 55.88C81.7665 56.272 81.3465 56.5707 80.8425 56.776C80.3478 56.9813 79.7925 57.084 79.1765 57.084C78.3925 57.084 77.6972 56.9253 77.0905 56.608C76.4838 56.2813 76.0125 55.8287 75.6765 55.25C75.3498 54.6713 75.1865 54.018 75.1865 53.29C75.1865 52.5713 75.3452 51.9227 75.6625 51.344C75.9892 50.7653 76.4325 50.3173 76.9925 50C77.5618 49.6733 78.2012 49.51 78.9105 49.51C79.6198 49.51 80.2498 49.6733 80.8005 50C81.3605 50.3173 81.7945 50.7653 82.1025 51.344C82.4198 51.9227 82.5785 52.5853 82.5785 53.332ZM78.9105 50.644C78.2665 50.644 77.7252 50.84 77.2865 51.232C76.8572 51.624 76.6052 52.1373 76.5305 52.772H81.2905C81.2158 52.1467 80.9592 51.638 80.5205 51.246C80.0912 50.8447 79.5545 50.644 78.9105 50.644ZM85.0135 49.58H86.3575V52.73H90.5855V49.58H91.9295V57H90.5855V53.892H86.3575V57H85.0135V49.58ZM101.599 53.332C101.599 53.4347 101.589 53.57 101.571 53.738H95.5508C95.6348 54.3913 95.9195 54.9187 96.4048 55.32C96.8995 55.712 97.5108 55.908 98.2388 55.908C99.1255 55.908 99.8395 55.6093 100.381 55.012L101.123 55.88C100.787 56.272 100.367 56.5707 99.8628 56.776C99.3682 56.9813 98.8128 57.084 98.1968 57.084C97.4128 57.084 96.7175 56.9253 96.1108 56.608C95.5042 56.2813 95.0328 55.8287 94.6968 55.25C94.3702 54.6713 94.2068 54.018 94.2068 53.29C94.2068 52.5713 94.3655 51.9227 94.6828 51.344C95.0095 50.7653 95.4528 50.3173 96.0128 50C96.5822 49.6733 97.2215 49.51 97.9308 49.51C98.6402 49.51 99.2702 49.6733 99.8208 50C100.381 50.3173 100.815 50.7653 101.123 51.344C101.44 51.9227 101.599 52.5853 101.599 53.332ZM97.9308 50.644C97.2868 50.644 96.7455 50.84 96.3068 51.232C95.8775 51.624 95.6255 52.1373 95.5508 52.772H100.311C100.236 52.1467 99.9795 51.638 99.5408 51.246C99.1115 50.8447 98.5748 50.644 97.9308 50.644ZM110.74 53.332C110.74 53.4347 110.731 53.57 110.712 53.738H104.692C104.776 54.3913 105.061 54.9187 105.546 55.32C106.041 55.712 106.652 55.908 107.38 55.908C108.267 55.908 108.981 55.6093 109.522 55.012L110.264 55.88C109.928 56.272 109.508 56.5707 109.004 56.776C108.509 56.9813 107.954 57.084 107.338 57.084C106.554 57.084 105.859 56.9253 105.252 56.608C104.645 56.2813 104.174 55.8287 103.838 55.25C103.511 54.6713 103.348 54.018 103.348 53.29C103.348 52.5713 103.507 51.9227 103.824 51.344C104.151 50.7653 104.594 50.3173 105.154 50C105.723 49.6733 106.363 49.51 107.072 49.51C107.781 49.51 108.411 49.6733 108.962 50C109.522 50.3173 109.956 50.7653 110.264 51.344C110.581 51.9227 110.74 52.5853 110.74 53.332ZM107.072 50.644C106.428 50.644 105.887 50.84 105.448 51.232C105.019 51.624 104.767 52.1373 104.692 52.772H109.452C109.377 52.1467 109.121 51.638 108.682 51.246C108.253 50.8447 107.716 50.644 107.072 50.644Z" fill="white"/>
<defs>
<filter id="filter0_f" x="0.72168" y="0" width="151" height="151" filterUnits="userSpaceOnUse" color-interpolation-filters="sRGB">
<feFlood flood-opacity="0" result="BackgroundImageFix"/>
<feBlend mode="normal" in="SourceGraphic" in2="BackgroundImageFix" result="shape"/>
<feGaussianBlur stdDeviation="3" result="effect1_foregroundBlur"/>
</filter>
<linearGradient id="paint0_linear" x1="6.72168" y1="6" x2="149.533" y2="10.0328" gradientUnits="userSpaceOnUse">
<stop stop-color="#E21C1B"/>
<stop offset="1" stop-color="#E5211B"/>
</linearGradient>
</defs>
</svg>
