<svg width="24" height="24" viewBox="0 0 24 24" fill="none" xmlns="http://www.w3.org/2000/svg">
<g clip-path="url(#clip0)">
<path d="M0.0067997 11.989C-0.00226784 12.084 -0.00226784 12.1797 0.0067997 12.2748V12.3957V12.5276C0.0301895 12.589 0.0596581 12.6479 0.0947437 12.7034L0.149715 12.8133C0.198969 12.8804 0.254147 12.9429 0.314579 13.0002L8.77752 21.4192C9.348 21.9691 10.2513 21.9691 10.8218 21.4192C11.3822 20.8572 11.3822 19.9478 10.8218 19.3858L5.80998 14.374C5.59752 14.1573 5.60091 13.8093 5.81766 13.5969C5.91848 13.498 6.05346 13.4417 6.19468 13.4398H22.5601C23.3553 13.4399 23.9999 12.7953 24 12.0001C24.0001 11.2049 23.3555 10.5602 22.5603 10.5602C22.5602 10.5602 22.5601 10.5602 22.5601 10.5602H6.19468C5.89123 10.5559 5.64862 10.3065 5.6529 10.003C5.65486 9.86185 5.71111 9.72681 5.80998 9.62599L10.8218 4.62513C11.3834 4.05944 11.3834 3.14651 10.8218 2.58082C10.2513 2.0309 9.348 2.0309 8.77752 2.58082L0.369499 10.9888C0.303141 11.0556 0.244204 11.1293 0.193663 11.2087C0.145388 11.2868 0.101339 11.3676 0.0617714 11.4505L0.0067997 11.5933C0.00473785 11.6336 0.00473785 11.674 0.0067997 11.7142C-0.00185585 11.8056 -0.00185585 11.8976 0.0067997 11.989Z" fill="black"/>
</g>
<defs>
<clipPath id="clip0">
<rect width="24" height="24" fill="white" transform="translate(24 24) rotate(-180)"/>
</clipPath>
</defs>
</svg>
