<svg width="151" height="152" viewBox="0 0 151 152" fill="none" xmlns="http://www.w3.org/2000/svg">
<g filter="url(#filter0_f)">
<circle cx="75.5" cy="76" r="69.5" fill="url(#paint0_linear)"/>
</g>
<path d="M43.7021 83.5H40.7314V74.043L37.8135 74.8955V72.6455L43.4297 70.7031H43.7021V83.5ZM59.9363 83.5L59.9183 76.822L56.6783 82.258H55.0943L51.8543 76.966V83.5H48.5783V70.9H51.5123L55.9403 78.172L60.2603 70.9H63.1943L63.2303 83.5H59.9363ZM78.0792 70.9V83.5H74.5692V73.726H70.9512L70.8792 75.778C70.8192 77.578 70.6692 79.042 70.4292 80.17C70.2012 81.298 69.8052 82.174 69.2412 82.798C68.6772 83.41 67.8792 83.716 66.8472 83.716C66.3672 83.716 65.8272 83.644 65.2272 83.5L65.4252 80.584C65.5812 80.62 65.7432 80.638 65.9112 80.638C66.3792 80.638 66.7392 80.452 66.9912 80.08C67.2432 79.708 67.4232 79.192 67.5312 78.532C67.6392 77.86 67.7112 76.99 67.7472 75.922L67.9272 70.9H78.0792ZM86.9844 70.9C88.1244 70.9 89.1144 71.092 89.9544 71.476C90.7944 71.848 91.4424 72.388 91.8984 73.096C92.3544 73.792 92.5824 74.614 92.5824 75.562C92.5824 76.51 92.3544 77.332 91.8984 78.028C91.4424 78.724 90.7944 79.264 89.9544 79.648C89.1144 80.02 88.1244 80.206 86.9844 80.206H84.7884V83.5H81.2244V70.9H86.9844ZM86.7684 77.398C87.5004 77.398 88.0524 77.242 88.4244 76.93C88.7964 76.606 88.9824 76.15 88.9824 75.562C88.9824 74.974 88.7964 74.518 88.4244 74.194C88.0524 73.87 87.5004 73.708 86.7684 73.708H84.7884V77.398H86.7684ZM107.515 80.674V86.038H104.257V83.5H96.1931V86.038H92.9171V80.674H93.3671C94.1111 80.662 94.6331 80.152 94.9331 79.144C95.2451 78.136 95.4371 76.684 95.5091 74.788L95.6531 70.9H105.805V80.674H107.515ZM98.6231 75.094C98.5751 76.438 98.4671 77.578 98.2991 78.514C98.1311 79.45 97.8731 80.17 97.5251 80.674H102.295V73.726H98.6771L98.6231 75.094ZM111.086 83.662C110.51 83.662 110.024 83.47 109.628 83.086C109.232 82.702 109.034 82.216 109.034 81.628C109.034 81.028 109.226 80.542 109.61 80.17C110.006 79.798 110.498 79.612 111.086 79.612C111.686 79.612 112.178 79.798 112.562 80.17C112.946 80.542 113.138 81.028 113.138 81.628C113.138 82.216 112.94 82.702 112.544 83.086C112.16 83.47 111.674 83.662 111.086 83.662ZM60.8495 100.676H59.2295V105.5H55.6835V92.9H59.2295V97.796H60.9395L63.9455 92.9H67.6895L63.7475 98.984L67.7255 105.5H63.7115L60.8495 100.676ZM75.4404 105.752C74.1084 105.752 72.9084 105.47 71.8404 104.906C70.7844 104.342 69.9504 103.562 69.3384 102.566C68.7384 101.57 68.4384 100.448 68.4384 99.2C68.4384 97.952 68.7384 96.83 69.3384 95.834C69.9504 94.838 70.7844 94.058 71.8404 93.494C72.9084 92.93 74.1084 92.648 75.4404 92.648C76.7724 92.648 77.9664 92.93 79.0224 93.494C80.0904 94.058 80.9244 94.838 81.5244 95.834C82.1364 96.83 82.4424 97.952 82.4424 99.2C82.4424 100.448 82.1364 101.57 81.5244 102.566C80.9244 103.562 80.0904 104.342 79.0224 104.906C77.9664 105.47 76.7724 105.752 75.4404 105.752ZM75.4404 102.8C76.0764 102.8 76.6524 102.65 77.1684 102.35C77.6844 102.05 78.0924 101.63 78.3924 101.09C78.6924 100.538 78.8424 99.908 78.8424 99.2C78.8424 98.492 78.6924 97.868 78.3924 97.328C78.0924 96.776 77.6844 96.35 77.1684 96.05C76.6524 95.75 76.0764 95.6 75.4404 95.6C74.8044 95.6 74.2284 95.75 73.7124 96.05C73.1964 96.35 72.7884 96.776 72.4884 97.328C72.1884 97.868 72.0384 98.492 72.0384 99.2C72.0384 99.908 72.1884 100.538 72.4884 101.09C72.7884 101.63 73.1964 102.05 73.7124 102.35C74.2284 102.65 74.8044 102.8 75.4404 102.8ZM94.914 102.746V105.5H84.798V92.9H94.68V95.654H88.326V97.778H93.924V100.442H88.326V102.746H94.914Z" fill="white"/>
<path d="M40.5008 50.08H41.8448V53.23H46.0728V50.08H47.4168V57.5H46.0728V54.392H41.8448V57.5H40.5008V50.08ZM57.0861 53.832C57.0861 53.9347 57.0768 54.07 57.0581 54.238H51.0381C51.1221 54.8913 51.4068 55.4187 51.8921 55.82C52.3868 56.212 52.9981 56.408 53.7261 56.408C54.6128 56.408 55.3268 56.1093 55.8681 55.512L56.6101 56.38C56.2741 56.772 55.8541 57.0707 55.3501 57.276C54.8555 57.4813 54.3001 57.584 53.6841 57.584C52.9001 57.584 52.2048 57.4253 51.5981 57.108C50.9915 56.7813 50.5201 56.3287 50.1841 55.75C49.8575 55.1713 49.6941 54.518 49.6941 53.79C49.6941 53.0713 49.8528 52.4227 50.1701 51.844C50.4968 51.2653 50.9401 50.8173 51.5001 50.5C52.0695 50.1733 52.7088 50.01 53.4181 50.01C54.1275 50.01 54.7575 50.1733 55.3081 50.5C55.8681 50.8173 56.3021 51.2653 56.6101 51.844C56.9275 52.4227 57.0861 53.0853 57.0861 53.832ZM53.4181 51.144C52.7741 51.144 52.2328 51.34 51.7941 51.732C51.3648 52.124 51.1128 52.6373 51.0381 53.272H55.7981C55.7235 52.6467 55.4668 52.138 55.0281 51.746C54.5988 51.3447 54.0621 51.144 53.4181 51.144ZM72.1849 50.08V57.5H70.9669V52.082L68.1949 56.66H67.6069L64.8629 52.068V57.5H63.6309V50.08H65.0169L67.9289 55.092L70.9249 50.08H72.1849ZM81.8568 53.832C81.8568 53.9347 81.8475 54.07 81.8288 54.238H75.8088C75.8928 54.8913 76.1775 55.4187 76.6628 55.82C77.1575 56.212 77.7688 56.408 78.4968 56.408C79.3835 56.408 80.0975 56.1093 80.6388 55.512L81.3808 56.38C81.0448 56.772 80.6248 57.0707 80.1208 57.276C79.6262 57.4813 79.0708 57.584 78.4548 57.584C77.6708 57.584 76.9755 57.4253 76.3688 57.108C75.7622 56.7813 75.2908 56.3287 74.9548 55.75C74.6282 55.1713 74.4648 54.518 74.4648 53.79C74.4648 53.0713 74.6235 52.4227 74.9408 51.844C75.2675 51.2653 75.7108 50.8173 76.2708 50.5C76.8402 50.1733 77.4795 50.01 78.1888 50.01C78.8982 50.01 79.5282 50.1733 80.0788 50.5C80.6388 50.8173 81.0728 51.2653 81.3808 51.844C81.6982 52.4227 81.8568 53.0853 81.8568 53.832ZM78.1888 51.144C77.5448 51.144 77.0035 51.34 76.5648 51.732C76.1355 52.124 75.8835 52.6373 75.8088 53.272H80.5688C80.4942 52.6467 80.2375 52.138 79.7988 51.746C79.3695 51.3447 78.8328 51.144 78.1888 51.144ZM84.2918 50.08H85.6358V53.23H89.8638V50.08H91.2078V57.5H89.8638V54.392H85.6358V57.5H84.2918V50.08ZM100.877 53.832C100.877 53.9347 100.868 54.07 100.849 54.238H94.8291C94.9131 54.8913 95.1978 55.4187 95.6831 55.82C96.1778 56.212 96.7891 56.408 97.5171 56.408C98.4038 56.408 99.1178 56.1093 99.6591 55.512L100.401 56.38C100.065 56.772 99.6451 57.0707 99.1411 57.276C98.6465 57.4813 98.0911 57.584 97.4751 57.584C96.6911 57.584 95.9958 57.4253 95.3891 57.108C94.7825 56.7813 94.3111 56.3287 93.9751 55.75C93.6485 55.1713 93.4851 54.518 93.4851 53.79C93.4851 53.0713 93.6438 52.4227 93.9611 51.844C94.2878 51.2653 94.7311 50.8173 95.2911 50.5C95.8605 50.1733 96.4998 50.01 97.2091 50.01C97.9185 50.01 98.5485 50.1733 99.0991 50.5C99.6591 50.8173 100.093 51.2653 100.401 51.844C100.718 52.4227 100.877 53.0853 100.877 53.832ZM97.2091 51.144C96.5651 51.144 96.0238 51.34 95.5851 51.732C95.1558 52.124 94.9038 52.6373 94.8291 53.272H99.5891C99.5145 52.6467 99.2578 52.138 98.8191 51.746C98.3898 51.3447 97.8531 51.144 97.2091 51.144ZM110.018 53.832C110.018 53.9347 110.009 54.07 109.99 54.238H103.97C104.054 54.8913 104.339 55.4187 104.824 55.82C105.319 56.212 105.93 56.408 106.658 56.408C107.545 56.408 108.259 56.1093 108.8 55.512L109.542 56.38C109.206 56.772 108.786 57.0707 108.282 57.276C107.787 57.4813 107.232 57.584 106.616 57.584C105.832 57.584 105.137 57.4253 104.53 57.108C103.923 56.7813 103.452 56.3287 103.116 55.75C102.789 55.1713 102.626 54.518 102.626 53.79C102.626 53.0713 102.785 52.4227 103.102 51.844C103.429 51.2653 103.872 50.8173 104.432 50.5C105.001 50.1733 105.641 50.01 106.35 50.01C107.059 50.01 107.689 50.1733 108.24 50.5C108.8 50.8173 109.234 51.2653 109.542 51.844C109.859 52.4227 110.018 53.0853 110.018 53.832ZM106.35 51.144C105.706 51.144 105.165 51.34 104.726 51.732C104.297 52.124 104.045 52.6373 103.97 53.272H108.73C108.655 52.6467 108.399 52.138 107.96 51.746C107.531 51.3447 106.994 51.144 106.35 51.144Z" fill="white"/>
<defs>
<filter id="filter0_f" x="0" y="0.5" width="151" height="151" filterUnits="userSpaceOnUse" color-interpolation-filters="sRGB">
<feFlood flood-opacity="0" result="BackgroundImageFix"/>
<feBlend mode="normal" in="SourceGraphic" in2="BackgroundImageFix" result="shape"/>
<feGaussianBlur stdDeviation="3" result="effect1_foregroundBlur"/>
</filter>
<linearGradient id="paint0_linear" x1="6" y1="6.5" x2="148.811" y2="10.5328" gradientUnits="userSpaceOnUse">
<stop stop-color="#2CA85E"/>
<stop offset="1" stop-color="#2BBC65"/>
</linearGradient>
</defs>
</svg>
