<svg width="24" height="24" viewBox="0 0 24 24" fill="none" xmlns="http://www.w3.org/2000/svg">
<g clip-path="url(#clip0)">
<path d="M23.9932 11.8426C24.0023 11.7475 24.0023 11.6518 23.9932 11.5568V11.4359V11.304C23.9698 11.2426 23.9403 11.1837 23.9053 11.1281L23.8503 11.0182C23.801 10.9512 23.7459 10.8886 23.6854 10.8314L15.2225 2.41238C14.652 1.86246 13.7487 1.86246 13.1782 2.41238C12.6178 2.97431 12.6178 3.88373 13.1782 4.44571L18.19 9.45755C18.4025 9.67424 18.3991 10.0222 18.1823 10.2347C18.0815 10.3335 17.9465 10.3898 17.8053 10.3918H1.43992C0.644718 10.3917 5.15228e-05 11.0363 3.08825e-09 11.8314C-5.15166e-05 12.6266 0.644512 13.2713 1.43972 13.2713C1.43977 13.2713 1.43987 13.2713 1.43992 13.2713H17.8053C18.1088 13.2756 18.3514 13.5251 18.3471 13.8285C18.3451 13.9697 18.2889 14.1047 18.19 14.2056L13.1782 19.2064C12.6166 19.7721 12.6166 20.685 13.1782 21.2507C13.7487 21.8006 14.652 21.8006 15.2225 21.2507L23.6305 12.8427C23.6969 12.776 23.7558 12.7023 23.8063 12.6229C23.8546 12.5447 23.8987 12.464 23.9382 12.3811L23.9932 12.2382C23.9953 12.1979 23.9953 12.1576 23.9932 12.1173C24.0019 12.0259 24.0019 11.9339 23.9932 11.8426Z" fill="black"/>
</g>
<defs>
<clipPath id="clip0">
<rect width="24" height="24" fill="white"/>
</clipPath>
</defs>
</svg>
