<svg width="117" height="117" viewBox="0 0 117 117" fill="none" xmlns="http://www.w3.org/2000/svg">
<circle cx="58.5" cy="58.5" r="57.5" stroke="url(#paint0_linear)" stroke-width="2"/>
<path d="M21.4752 64.174V67H11.6652V64.768L16.3812 60.358C16.8372 59.926 17.1432 59.56 17.2992 59.26C17.4552 58.948 17.5332 58.636 17.5332 58.324C17.5332 57.916 17.3952 57.598 17.1192 57.37C16.8432 57.142 16.4412 57.028 15.9132 57.028C15.4452 57.028 15.0132 57.136 14.6172 57.352C14.2332 57.556 13.9152 57.856 13.6632 58.252L11.0172 56.776C11.5092 55.96 12.1992 55.318 13.0872 54.85C13.9752 54.382 15.0252 54.148 16.2372 54.148C17.1972 54.148 18.0432 54.304 18.7752 54.616C19.5192 54.928 20.0952 55.378 20.5032 55.966C20.9232 56.542 21.1332 57.214 21.1332 57.982C21.1332 58.666 20.9832 59.314 20.6832 59.926C20.3952 60.526 19.8312 61.21 18.9912 61.978L16.6152 64.174H21.4752ZM25.0644 67.162C24.4884 67.162 24.0024 66.97 23.6064 66.586C23.2104 66.202 23.0124 65.716 23.0124 65.128C23.0124 64.528 23.2044 64.042 23.5884 63.67C23.9844 63.298 24.4764 63.112 25.0644 63.112C25.6644 63.112 26.1564 63.298 26.5404 63.67C26.9244 64.042 27.1164 64.528 27.1164 65.128C27.1164 65.716 26.9184 66.202 26.5224 66.586C26.1384 66.97 25.6524 67.162 25.0644 67.162ZM33.402 58.99C35.166 58.99 36.468 59.35 37.308 60.07C38.16 60.79 38.586 61.75 38.586 62.95C38.586 63.73 38.382 64.45 37.974 65.11C37.578 65.758 36.966 66.28 36.138 66.676C35.322 67.06 34.308 67.252 33.096 67.252C32.208 67.252 31.326 67.144 30.45 66.928C29.586 66.712 28.842 66.406 28.218 66.01L29.496 63.328C30 63.664 30.552 63.922 31.152 64.102C31.764 64.282 32.376 64.372 32.988 64.372C33.6 64.372 34.086 64.258 34.446 64.03C34.818 63.79 35.004 63.46 35.004 63.04C35.004 62.62 34.824 62.302 34.464 62.086C34.104 61.87 33.468 61.762 32.556 61.762H29.136L29.766 54.4H37.794V57.154H32.718L32.556 58.99H33.402ZM52.1656 67L52.1476 60.322L48.9076 65.758H47.3236L44.0836 60.466V67H40.8076V54.4H43.7416L48.1696 61.672L52.4896 54.4H55.4236L55.4596 67H52.1656ZM70.3085 54.4V67H66.7985V57.226H63.1805L63.1085 59.278C63.0485 61.078 62.8985 62.542 62.6585 63.67C62.4305 64.798 62.0345 65.674 61.4705 66.298C60.9065 66.91 60.1085 67.216 59.0765 67.216C58.5965 67.216 58.0565 67.144 57.4565 67L57.6545 64.084C57.8105 64.12 57.9725 64.138 58.1405 64.138C58.6085 64.138 58.9685 63.952 59.2205 63.58C59.4725 63.208 59.6525 62.692 59.7605 62.032C59.8685 61.36 59.9405 60.49 59.9765 59.422L60.1565 54.4H70.3085ZM79.2137 54.4C80.3537 54.4 81.3437 54.592 82.1837 54.976C83.0237 55.348 83.6717 55.888 84.1277 56.596C84.5837 57.292 84.8117 58.114 84.8117 59.062C84.8117 60.01 84.5837 60.832 84.1277 61.528C83.6717 62.224 83.0237 62.764 82.1837 63.148C81.3437 63.52 80.3537 63.706 79.2137 63.706H77.0177V67H73.4537V54.4H79.2137ZM78.9977 60.898C79.7297 60.898 80.2817 60.742 80.6537 60.43C81.0257 60.106 81.2117 59.65 81.2117 59.062C81.2117 58.474 81.0257 58.018 80.6537 57.694C80.2817 57.37 79.7297 57.208 78.9977 57.208H77.0177V60.898H78.9977ZM99.7444 64.174V69.538H96.4864V67H88.4224V69.538H85.1464V64.174H85.5964C86.3404 64.162 86.8624 63.652 87.1624 62.644C87.4744 61.636 87.6664 60.184 87.7384 58.288L87.8824 54.4H98.0344V64.174H99.7444ZM90.8524 58.594C90.8044 59.938 90.6964 61.078 90.5284 62.014C90.3604 62.95 90.1024 63.67 89.7544 64.174H94.5244V57.226H90.9064L90.8524 58.594ZM103.315 67.162C102.739 67.162 102.253 66.97 101.857 66.586C101.461 66.202 101.263 65.716 101.263 65.128C101.263 64.528 101.455 64.042 101.839 63.67C102.235 63.298 102.727 63.112 103.315 63.112C103.915 63.112 104.407 63.298 104.791 63.67C105.175 64.042 105.367 64.528 105.367 65.128C105.367 65.716 105.169 66.202 104.773 66.586C104.389 66.97 103.903 67.162 103.315 67.162ZM44.3495 84.176H42.7295V89H39.1835V76.4H42.7295V81.296H44.4395L47.4455 76.4H51.1895L47.2475 82.484L51.2255 89H47.2115L44.3495 84.176ZM58.9404 89.252C57.6084 89.252 56.4084 88.97 55.3404 88.406C54.2844 87.842 53.4504 87.062 52.8384 86.066C52.2384 85.07 51.9384 83.948 51.9384 82.7C51.9384 81.452 52.2384 80.33 52.8384 79.334C53.4504 78.338 54.2844 77.558 55.3404 76.994C56.4084 76.43 57.6084 76.148 58.9404 76.148C60.2724 76.148 61.4664 76.43 62.5224 76.994C63.5904 77.558 64.4244 78.338 65.0244 79.334C65.6364 80.33 65.9424 81.452 65.9424 82.7C65.9424 83.948 65.6364 85.07 65.0244 86.066C64.4244 87.062 63.5904 87.842 62.5224 88.406C61.4664 88.97 60.2724 89.252 58.9404 89.252ZM58.9404 86.3C59.5764 86.3 60.1524 86.15 60.6684 85.85C61.1844 85.55 61.5924 85.13 61.8924 84.59C62.1924 84.038 62.3424 83.408 62.3424 82.7C62.3424 81.992 62.1924 81.368 61.8924 80.828C61.5924 80.276 61.1844 79.85 60.6684 79.55C60.1524 79.25 59.5764 79.1 58.9404 79.1C58.3044 79.1 57.7284 79.25 57.2124 79.55C56.6964 79.85 56.2884 80.276 55.9884 80.828C55.6884 81.368 55.5384 81.992 55.5384 82.7C55.5384 83.408 55.6884 84.038 55.9884 84.59C56.2884 85.13 56.6964 85.55 57.2124 85.85C57.7284 86.15 58.3044 86.3 58.9404 86.3ZM78.414 86.246V89H68.298V76.4H78.18V79.154H71.826V81.278H77.424V83.942H71.826V86.246H78.414Z" fill="url(#paint1_linear)"/>
<path d="M23.5008 33.58H24.8448V36.73H29.0728V33.58H30.4168V41H29.0728V37.892H24.8448V41H23.5008V33.58ZM40.0861 37.332C40.0861 37.4347 40.0768 37.57 40.0581 37.738H34.0381C34.1221 38.3913 34.4068 38.9187 34.8921 39.32C35.3868 39.712 35.9981 39.908 36.7261 39.908C37.6128 39.908 38.3268 39.6093 38.8681 39.012L39.6101 39.88C39.2741 40.272 38.8541 40.5707 38.3501 40.776C37.8555 40.9813 37.3001 41.084 36.6841 41.084C35.9001 41.084 35.2048 40.9253 34.5981 40.608C33.9915 40.2813 33.5201 39.8287 33.1841 39.25C32.8575 38.6713 32.6941 38.018 32.6941 37.29C32.6941 36.5713 32.8528 35.9227 33.1701 35.344C33.4968 34.7653 33.9401 34.3173 34.5001 34C35.0695 33.6733 35.7088 33.51 36.4181 33.51C37.1275 33.51 37.7575 33.6733 38.3081 34C38.8681 34.3173 39.3021 34.7653 39.6101 35.344C39.9275 35.9227 40.0861 36.5853 40.0861 37.332ZM36.4181 34.644C35.7741 34.644 35.2328 34.84 34.7941 35.232C34.3648 35.624 34.1128 36.1373 34.0381 36.772H38.7981C38.7235 36.1467 38.4668 35.638 38.0281 35.246C37.5988 34.8447 37.0621 34.644 36.4181 34.644ZM55.1849 33.58V41H53.9669V35.582L51.1949 40.16H50.6069L47.8629 35.568V41H46.6309V33.58H48.0169L50.9289 38.592L53.9249 33.58H55.1849ZM64.8568 37.332C64.8568 37.4347 64.8475 37.57 64.8288 37.738H58.8088C58.8928 38.3913 59.1775 38.9187 59.6628 39.32C60.1575 39.712 60.7688 39.908 61.4968 39.908C62.3835 39.908 63.0975 39.6093 63.6388 39.012L64.3808 39.88C64.0448 40.272 63.6248 40.5707 63.1208 40.776C62.6262 40.9813 62.0708 41.084 61.4548 41.084C60.6708 41.084 59.9755 40.9253 59.3688 40.608C58.7622 40.2813 58.2908 39.8287 57.9548 39.25C57.6282 38.6713 57.4648 38.018 57.4648 37.29C57.4648 36.5713 57.6235 35.9227 57.9408 35.344C58.2675 34.7653 58.7108 34.3173 59.2708 34C59.8402 33.6733 60.4795 33.51 61.1888 33.51C61.8982 33.51 62.5282 33.6733 63.0788 34C63.6388 34.3173 64.0728 34.7653 64.3808 35.344C64.6982 35.9227 64.8568 36.5853 64.8568 37.332ZM61.1888 34.644C60.5448 34.644 60.0035 34.84 59.5648 35.232C59.1355 35.624 58.8835 36.1373 58.8088 36.772H63.5688C63.4942 36.1467 63.2375 35.638 62.7988 35.246C62.3695 34.8447 61.8328 34.644 61.1888 34.644ZM67.2918 33.58H68.6358V36.73H72.8638V33.58H74.2078V41H72.8638V37.892H68.6358V41H67.2918V33.58ZM83.8771 37.332C83.8771 37.4347 83.8678 37.57 83.8491 37.738H77.8291C77.9131 38.3913 78.1978 38.9187 78.6831 39.32C79.1778 39.712 79.7891 39.908 80.5171 39.908C81.4038 39.908 82.1178 39.6093 82.6591 39.012L83.4011 39.88C83.0651 40.272 82.6451 40.5707 82.1411 40.776C81.6465 40.9813 81.0911 41.084 80.4751 41.084C79.6911 41.084 78.9958 40.9253 78.3891 40.608C77.7825 40.2813 77.3111 39.8287 76.9751 39.25C76.6485 38.6713 76.4851 38.018 76.4851 37.29C76.4851 36.5713 76.6438 35.9227 76.9611 35.344C77.2878 34.7653 77.7311 34.3173 78.2911 34C78.8605 33.6733 79.4998 33.51 80.2091 33.51C80.9185 33.51 81.5485 33.6733 82.0991 34C82.6591 34.3173 83.0931 34.7653 83.4011 35.344C83.7185 35.9227 83.8771 36.5853 83.8771 37.332ZM80.2091 34.644C79.5651 34.644 79.0238 34.84 78.5851 35.232C78.1558 35.624 77.9038 36.1373 77.8291 36.772H82.5891C82.5145 36.1467 82.2578 35.638 81.8191 35.246C81.3898 34.8447 80.8531 34.644 80.2091 34.644ZM93.0182 37.332C93.0182 37.4347 93.0088 37.57 92.9902 37.738H86.9702C87.0542 38.3913 87.3388 38.9187 87.8242 39.32C88.3188 39.712 88.9302 39.908 89.6582 39.908C90.5448 39.908 91.2588 39.6093 91.8002 39.012L92.5422 39.88C92.2062 40.272 91.7862 40.5707 91.2822 40.776C90.7875 40.9813 90.2322 41.084 89.6162 41.084C88.8322 41.084 88.1368 40.9253 87.5302 40.608C86.9235 40.2813 86.4522 39.8287 86.1162 39.25C85.7895 38.6713 85.6262 38.018 85.6262 37.29C85.6262 36.5713 85.7848 35.9227 86.1022 35.344C86.4288 34.7653 86.8722 34.3173 87.4322 34C88.0015 33.6733 88.6408 33.51 89.3502 33.51C90.0595 33.51 90.6895 33.6733 91.2402 34C91.8002 34.3173 92.2342 34.7653 92.5422 35.344C92.8595 35.9227 93.0182 36.5853 93.0182 37.332ZM89.3502 34.644C88.7062 34.644 88.1648 34.84 87.7262 35.232C87.2968 35.624 87.0448 36.1373 86.9702 36.772H91.7302C91.6555 36.1467 91.3988 35.638 90.9602 35.246C90.5308 34.8447 89.9942 34.644 89.3502 34.644Z" fill="url(#paint2_linear)"/>
<defs>
<linearGradient id="paint0_linear" x1="0" y1="0" x2="120.208" y2="3.39453" gradientUnits="userSpaceOnUse">
<stop stop-color="#E21C1B"/>
<stop offset="1" stop-color="#E5211B"/>
</linearGradient>
<linearGradient id="paint1_linear" x1="11" y1="50" x2="108.321" y2="55.9337" gradientUnits="userSpaceOnUse">
<stop stop-color="#E21C1B"/>
<stop offset="1" stop-color="#E5211B"/>
</linearGradient>
<linearGradient id="paint2_linear" x1="22" y1="22" x2="95.6157" y2="27.5435" gradientUnits="userSpaceOnUse">
<stop stop-color="#E21C1B"/>
<stop offset="1" stop-color="#E5211B"/>
</linearGradient>
</defs>
</svg>
