<svg width="66" height="66" viewBox="0 0 66 66" fill="none" xmlns="http://www.w3.org/2000/svg">
<path d="M33 66C51.2254 66 66 51.2254 66 33C66 14.7746 51.2254 0 33 0C14.7746 0 0 14.7746 0 33C0 51.2254 14.7746 66 33 66Z" fill="#FFCA28"/>
<path d="M32.9989 37.125C24.72 37.125 17.79 43.0609 16.5236 51.249C16.4329 51.843 16.6061 52.4494 16.998 52.9031C17.3858 53.3651 17.9591 53.625 18.5614 53.625H47.4364C48.0386 53.625 48.612 53.3651 49.0039 52.9031C49.3958 52.4494 49.569 51.8389 49.4741 51.249C48.2078 43.0609 41.2778 37.125 32.9989 37.125Z" fill="#F44336"/>
<path d="M47.4375 33C47.0085 33 46.5712 32.8639 46.2 32.5875L37.95 26.4C37.4302 26.0123 37.125 25.3977 37.125 24.75C37.125 24.1024 37.4302 23.4878 37.95 23.1L46.2 16.9125C47.1075 16.2319 48.3986 16.4093 49.0875 17.325C49.7681 18.2367 49.5825 19.5278 48.6709 20.2125L42.6236 24.75L48.675 29.2875C49.5866 29.9723 49.7722 31.2634 49.0916 32.175C48.6832 32.7154 48.0604 33 47.4375 33Z" fill="#6D4C41"/>
<path d="M18.5633 33C17.9363 33 17.3175 32.7154 16.9133 32.175C16.2285 31.2634 16.4142 29.9723 17.3258 29.2875L23.3772 24.75L17.3258 20.2126C16.4142 19.5278 16.2285 18.2367 16.9133 17.3251C17.598 16.4134 18.8892 16.2278 19.8008 16.9126L28.0508 23.1C28.5705 23.4878 28.8758 24.1024 28.8758 24.75C28.8758 25.3977 28.5705 26.0123 28.0508 26.4L19.8008 32.5875C19.4295 32.8639 18.9964 33 18.5633 33Z" fill="#6D4C41"/>
</svg>
