<svg width="412" height="411" viewBox="0 0 412 411" fill="none" xmlns="http://www.w3.org/2000/svg">
<path d="M206 0C184.726 -2.53692e-07 163.66 4.19025 144.005 12.3315C124.351 20.4728 106.492 32.4056 91.4487 47.4487C76.4056 62.4918 64.4728 80.3506 56.3315 100.005C48.1902 119.66 44 140.726 44 162L102.32 162C102.32 148.385 105.002 134.902 110.212 122.323C115.423 109.744 123.06 98.3148 132.687 88.6872C142.315 79.0596 153.744 71.4226 166.323 66.2122C178.902 61.0018 192.385 58.32 206 58.32V0Z" fill="#5A5858"/>
<path d="M44 162C44 194.041 53.5011 225.362 71.3019 252.002C89.1027 278.643 114.404 299.407 144.005 311.668C173.607 323.93 206.18 327.138 237.605 320.887C269.03 314.636 297.895 299.207 320.551 276.551C343.207 253.895 358.636 225.03 364.887 193.605C371.138 162.18 367.93 129.607 355.668 100.005C343.407 70.4037 322.643 45.1027 296.002 27.3019C269.362 9.50114 238.041 2.419e-06 206 0V58.32C226.506 58.32 246.551 64.4007 263.602 75.7932C280.652 87.1857 293.941 103.378 301.788 122.323C309.635 141.268 311.688 162.115 307.688 182.227C303.687 202.339 293.813 220.813 279.313 235.313C264.813 249.813 246.339 259.687 226.227 263.688C206.115 267.688 185.268 265.635 166.323 257.788C147.378 249.941 131.186 236.652 119.793 219.602C108.401 202.551 102.32 182.506 102.32 162H44Z" fill="url(#paint0_linear)"/>
<path d="M168.329 134.494V138.106L149.513 145.54V142.054L164.465 136.3L149.513 130.546V127.06L168.329 134.494ZM205.86 121.6V124.456L193.974 151H189.522L201.156 125.254H187.716V130.504H183.684V121.6H205.86ZM217.203 133.318C221.403 133.318 224.483 134.116 226.443 135.712C228.431 137.28 229.425 139.436 229.425 142.18C229.425 143.916 229.005 145.484 228.165 146.884C227.353 148.256 226.107 149.348 224.427 150.16C222.775 150.944 220.731 151.336 218.295 151.336C216.223 151.336 214.221 151.028 212.289 150.412C210.357 149.768 208.761 148.886 207.501 147.766L209.433 144.448C210.441 145.4 211.729 146.17 213.297 146.758C214.865 147.318 216.517 147.598 218.253 147.598C220.465 147.598 222.173 147.136 223.377 146.212C224.609 145.26 225.225 143.972 225.225 142.348C225.225 140.584 224.553 139.254 223.209 138.358C221.865 137.434 219.569 136.972 216.321 136.972H209.643L211.197 121.6H227.787V125.254H214.725L213.927 133.318H217.203ZM250.584 137.392C248.54 137.392 246.888 136.65 245.628 135.166C244.368 133.682 243.738 131.75 243.738 129.37C243.738 126.99 244.368 125.058 245.628 123.574C246.888 122.09 248.54 121.348 250.584 121.348C252.628 121.348 254.266 122.09 255.498 123.574C256.758 125.03 257.388 126.962 257.388 129.37C257.388 131.778 256.758 133.724 255.498 135.208C254.266 136.664 252.628 137.392 250.584 137.392ZM268.308 121.6H271.542L251.466 151H248.232L268.308 121.6ZM250.584 134.998C251.872 134.998 252.88 134.508 253.608 133.528C254.336 132.52 254.7 131.134 254.7 129.37C254.7 127.606 254.336 126.234 253.608 125.254C252.88 124.246 251.872 123.742 250.584 123.742C249.324 123.742 248.316 124.246 247.56 125.254C246.832 126.262 246.468 127.634 246.468 129.37C246.468 131.106 246.832 132.478 247.56 133.486C248.316 134.494 249.324 134.998 250.584 134.998ZM269.19 151.252C267.146 151.252 265.494 150.524 264.234 149.068C263.002 147.584 262.386 145.638 262.386 143.23C262.386 140.822 263.002 138.89 264.234 137.434C265.494 135.95 267.146 135.208 269.19 135.208C271.234 135.208 272.886 135.95 274.146 137.434C275.406 138.918 276.036 140.85 276.036 143.23C276.036 145.61 275.406 147.542 274.146 149.026C272.886 150.51 271.234 151.252 269.19 151.252ZM269.19 148.858C270.45 148.858 271.444 148.354 272.172 147.346C272.928 146.338 273.306 144.966 273.306 143.23C273.306 141.494 272.928 140.122 272.172 139.114C271.444 138.106 270.45 137.602 269.19 137.602C267.902 137.602 266.894 138.106 266.166 139.114C265.438 140.094 265.074 141.466 265.074 143.23C265.074 144.994 265.438 146.38 266.166 147.388C266.894 148.368 267.902 148.858 269.19 148.858Z" fill="#4A4646"/>
<path d="M154.023 188.09C153.111 188.09 152.289 187.886 151.557 187.478C150.825 187.058 150.249 186.482 149.829 185.75C149.409 185.018 149.199 184.19 149.199 183.266C149.199 182.342 149.409 181.514 149.829 180.782C150.249 180.05 150.825 179.48 151.557 179.072C152.289 178.664 153.111 178.46 154.023 178.46C154.935 178.46 155.757 178.664 156.489 179.072C157.221 179.48 157.791 180.05 158.199 180.782C158.619 181.514 158.829 182.342 158.829 183.266C158.829 184.19 158.619 185.018 158.199 185.75C157.791 186.482 157.221 187.058 156.489 187.478C155.757 187.886 154.935 188.09 154.023 188.09ZM154.023 186.956C154.695 186.956 155.295 186.806 155.823 186.506C156.363 186.194 156.783 185.756 157.083 185.192C157.383 184.628 157.533 183.986 157.533 183.266C157.533 182.546 157.383 181.904 157.083 181.34C156.783 180.776 156.363 180.344 155.823 180.044C155.295 179.732 154.695 179.576 154.023 179.576C153.351 179.576 152.745 179.732 152.205 180.044C151.677 180.344 151.257 180.776 150.945 181.34C150.645 181.904 150.495 182.546 150.495 183.266C150.495 183.986 150.645 184.628 150.945 185.192C151.257 185.756 151.677 186.194 152.205 186.506C152.745 186.806 153.351 186.956 154.023 186.956ZM167.869 179.666H164.287V188H163.009V179.666H159.427V178.532H167.869V179.666ZM175.747 183.104C177.031 183.404 177.673 184.178 177.673 185.426C177.673 186.254 177.367 186.89 176.755 187.334C176.143 187.778 175.231 188 174.019 188H169.717V178.532H173.893C174.973 178.532 175.819 178.742 176.431 179.162C177.043 179.582 177.349 180.182 177.349 180.962C177.349 181.478 177.205 181.922 176.917 182.294C176.641 182.654 176.251 182.924 175.747 183.104ZM170.959 182.744H173.803C174.535 182.744 175.093 182.606 175.477 182.33C175.873 182.054 176.071 181.652 176.071 181.124C176.071 180.596 175.873 180.2 175.477 179.936C175.093 179.672 174.535 179.54 173.803 179.54H170.959V182.744ZM173.965 186.992C174.781 186.992 175.393 186.86 175.801 186.596C176.209 186.332 176.413 185.918 176.413 185.354C176.413 184.79 176.227 184.376 175.855 184.112C175.483 183.836 174.895 183.698 174.091 183.698H170.959V186.992H173.965ZM188.948 183.662H181.028C181.1 184.646 181.478 185.444 182.162 186.056C182.846 186.656 183.71 186.956 184.754 186.956C185.342 186.956 185.882 186.854 186.374 186.65C186.866 186.434 187.292 186.122 187.652 185.714L188.372 186.542C187.952 187.046 187.424 187.43 186.788 187.694C186.164 187.958 185.474 188.09 184.718 188.09C183.746 188.09 182.882 187.886 182.126 187.478C181.382 187.058 180.8 186.482 180.38 185.75C179.96 185.018 179.75 184.19 179.75 183.266C179.75 182.342 179.948 181.514 180.344 180.782C180.752 180.05 181.304 179.48 182 179.072C182.708 178.664 183.5 178.46 184.376 178.46C185.252 178.46 186.038 178.664 186.734 179.072C187.43 179.48 187.976 180.05 188.372 180.782C188.768 181.502 188.966 182.33 188.966 183.266L188.948 183.662ZM184.376 179.558C183.464 179.558 182.696 179.852 182.072 180.44C181.46 181.016 181.112 181.772 181.028 182.708H187.742C187.658 181.772 187.304 181.016 186.68 180.44C186.068 179.852 185.3 179.558 184.376 179.558ZM198.033 179.666H194.451V188H193.173V179.666H189.591V178.532H198.033V179.666ZM199.881 178.532H201.159V186.056L207.477 178.532H208.611V188H207.333V180.476L201.033 188H199.881V178.532ZM218.303 183.104C219.587 183.404 220.229 184.178 220.229 185.426C220.229 186.254 219.923 186.89 219.311 187.334C218.699 187.778 217.787 188 216.575 188H212.273V178.532H216.449C217.529 178.532 218.375 178.742 218.987 179.162C219.599 179.582 219.905 180.182 219.905 180.962C219.905 181.478 219.761 181.922 219.473 182.294C219.197 182.654 218.807 182.924 218.303 183.104ZM213.515 182.744H216.359C217.091 182.744 217.649 182.606 218.033 182.33C218.429 182.054 218.627 181.652 218.627 181.124C218.627 180.596 218.429 180.2 218.033 179.936C217.649 179.672 217.091 179.54 216.359 179.54H213.515V182.744ZM216.521 186.992C217.337 186.992 217.949 186.86 218.357 186.596C218.765 186.332 218.969 185.918 218.969 185.354C218.969 184.79 218.783 184.376 218.411 184.112C218.039 183.836 217.451 183.698 216.647 183.698H213.515V186.992H216.521ZM236.292 178.532V188H223.224V178.532H224.502V186.884H229.146V178.532H230.424V186.884H235.014V178.532H236.292ZM239.941 178.532H241.219V186.056L247.537 178.532H248.671V188H247.393V180.476L241.093 188H239.941V178.532ZM258.256 188L255.25 184.04L252.226 188H250.786L254.53 183.14L250.966 178.532H252.406L255.25 182.24L258.094 178.532H259.498L255.934 183.14L259.714 188H258.256ZM153.606 200.532H154.884V204.726H160.842V200.532H162.12V210H160.842V205.824H154.884V210H153.606V200.532ZM169.011 200.46C170.247 200.46 171.195 200.772 171.855 201.396C172.515 202.008 172.845 202.92 172.845 204.132V210H171.621V208.524C171.333 209.016 170.907 209.4 170.343 209.676C169.791 209.952 169.131 210.09 168.363 210.09C167.307 210.09 166.467 209.838 165.843 209.334C165.219 208.83 164.907 208.164 164.907 207.336C164.907 206.532 165.195 205.884 165.771 205.392C166.359 204.9 167.289 204.654 168.561 204.654H171.567V204.078C171.567 203.262 171.339 202.644 170.883 202.224C170.427 201.792 169.761 201.576 168.885 201.576C168.285 201.576 167.709 201.678 167.157 201.882C166.605 202.074 166.131 202.344 165.735 202.692L165.159 201.738C165.639 201.33 166.215 201.018 166.887 200.802C167.559 200.574 168.267 200.46 169.011 200.46ZM168.561 209.082C169.281 209.082 169.899 208.92 170.415 208.596C170.931 208.26 171.315 207.78 171.567 207.156V205.608H168.597C166.977 205.608 166.167 206.172 166.167 207.3C166.167 207.852 166.377 208.29 166.797 208.614C167.217 208.926 167.805 209.082 168.561 209.082ZM187.618 201.666H184.036V210H182.758V201.666H179.176V200.532H187.618V201.666ZM197.306 205.662H189.386C189.458 206.646 189.836 207.444 190.52 208.056C191.204 208.656 192.068 208.956 193.112 208.956C193.7 208.956 194.24 208.854 194.732 208.65C195.224 208.434 195.65 208.122 196.01 207.714L196.73 208.542C196.31 209.046 195.782 209.43 195.146 209.694C194.522 209.958 193.832 210.09 193.076 210.09C192.104 210.09 191.24 209.886 190.484 209.478C189.74 209.058 189.158 208.482 188.738 207.75C188.318 207.018 188.108 206.19 188.108 205.266C188.108 204.342 188.306 203.514 188.702 202.782C189.11 202.05 189.662 201.48 190.358 201.072C191.066 200.664 191.858 200.46 192.734 200.46C193.61 200.46 194.396 200.664 195.092 201.072C195.788 201.48 196.334 202.05 196.73 202.782C197.126 203.502 197.324 204.33 197.324 205.266L197.306 205.662ZM192.734 201.558C191.822 201.558 191.054 201.852 190.43 202.44C189.818 203.016 189.47 203.772 189.386 204.708H196.1C196.016 203.772 195.662 203.016 195.038 202.44C194.426 201.852 193.658 201.558 192.734 201.558ZM205.031 200.46C205.919 200.46 206.723 200.664 207.443 201.072C208.163 201.468 208.727 202.032 209.135 202.764C209.543 203.496 209.747 204.33 209.747 205.266C209.747 206.214 209.543 207.054 209.135 207.786C208.727 208.518 208.163 209.088 207.443 209.496C206.735 209.892 205.931 210.09 205.031 210.09C204.263 210.09 203.567 209.934 202.943 209.622C202.331 209.298 201.827 208.83 201.431 208.218V213.492H200.153V200.532H201.377V202.404C201.761 201.78 202.265 201.3 202.889 200.964C203.525 200.628 204.239 200.46 205.031 200.46ZM204.941 208.956C205.601 208.956 206.201 208.806 206.741 208.506C207.281 208.194 207.701 207.756 208.001 207.192C208.313 206.628 208.469 205.986 208.469 205.266C208.469 204.546 208.313 203.91 208.001 203.358C207.701 202.794 207.281 202.356 206.741 202.044C206.201 201.732 205.601 201.576 204.941 201.576C204.269 201.576 203.663 201.732 203.123 202.044C202.595 202.356 202.175 202.794 201.863 203.358C201.563 203.91 201.413 204.546 201.413 205.266C201.413 205.986 201.563 206.628 201.863 207.192C202.175 207.756 202.595 208.194 203.123 208.506C203.663 208.806 204.269 208.956 204.941 208.956ZM215.698 200.46C216.934 200.46 217.882 200.772 218.542 201.396C219.202 202.008 219.532 202.92 219.532 204.132V210H218.308V208.524C218.02 209.016 217.594 209.4 217.03 209.676C216.478 209.952 215.818 210.09 215.05 210.09C213.994 210.09 213.154 209.838 212.53 209.334C211.906 208.83 211.594 208.164 211.594 207.336C211.594 206.532 211.882 205.884 212.458 205.392C213.046 204.9 213.976 204.654 215.248 204.654H218.254V204.078C218.254 203.262 218.026 202.644 217.57 202.224C217.114 201.792 216.448 201.576 215.572 201.576C214.972 201.576 214.396 201.678 213.844 201.882C213.292 202.074 212.818 202.344 212.422 202.692L211.846 201.738C212.326 201.33 212.902 201.018 213.574 200.802C214.246 200.574 214.954 200.46 215.698 200.46ZM215.248 209.082C215.968 209.082 216.586 208.92 217.102 208.596C217.618 208.26 218.002 207.78 218.254 207.156V205.608H215.284C213.664 205.608 212.854 206.172 212.854 207.3C212.854 207.852 213.064 208.29 213.484 208.614C213.904 208.926 214.492 209.082 215.248 209.082ZM231.43 200.532V210H230.152V201.666H224.212V210H222.934V200.532H231.43ZM235.063 200.532H236.341V208.056L242.659 200.532H243.793V210H242.515V202.476L236.215 210H235.063V200.532ZM255.592 200.46C256.48 200.46 257.278 200.664 257.986 201.072C258.706 201.48 259.27 202.05 259.678 202.782C260.086 203.514 260.29 204.342 260.29 205.266C260.29 206.19 260.086 207.018 259.678 207.75C259.27 208.482 258.706 209.058 257.986 209.478C257.278 209.886 256.48 210.09 255.592 210.09C254.752 210.09 253.99 209.91 253.306 209.55C252.622 209.178 252.064 208.668 251.632 208.02C251.212 207.372 250.966 206.628 250.894 205.788H248.734V210H247.456V200.532H248.734V204.618H250.912C251.008 203.802 251.266 203.082 251.686 202.458C252.118 201.822 252.67 201.33 253.342 200.982C254.014 200.634 254.764 200.46 255.592 200.46ZM255.592 208.974C256.24 208.974 256.822 208.818 257.338 208.506C257.866 208.194 258.28 207.756 258.58 207.192C258.88 206.628 259.03 205.986 259.03 205.266C259.03 204.546 258.88 203.904 258.58 203.34C258.28 202.776 257.866 202.344 257.338 202.044C256.822 201.732 256.24 201.576 255.592 201.576C254.944 201.576 254.356 201.732 253.828 202.044C253.312 202.344 252.904 202.776 252.604 203.34C252.304 203.904 252.154 204.546 252.154 205.266C252.154 205.986 252.304 206.628 252.604 207.192C252.904 207.756 253.312 208.194 253.828 208.506C254.356 208.818 254.944 208.974 255.592 208.974Z" fill="black"/>
<path d="M50.9022 371.108C49.6542 371.108 48.5202 370.832 47.5002 370.28C46.4922 369.716 45.7002 368.948 45.1242 367.976C44.5602 367.004 44.2782 365.912 44.2782 364.7C44.2782 363.488 44.5602 362.396 45.1242 361.424C45.7002 360.452 46.4922 359.69 47.5002 359.138C48.5202 358.574 49.6542 358.292 50.9022 358.292C52.1502 358.292 53.2722 358.568 54.2682 359.12C55.2762 359.672 56.0682 360.44 56.6442 361.424C57.2202 362.396 57.5082 363.488 57.5082 364.7C57.5082 365.912 57.2202 367.01 56.6442 367.994C56.0682 368.966 55.2762 369.728 54.2682 370.28C53.2722 370.832 52.1502 371.108 50.9022 371.108ZM50.9022 369.92C51.8982 369.92 52.7982 369.698 53.6022 369.254C54.4062 368.798 55.0362 368.174 55.4922 367.382C55.9482 366.578 56.1762 365.684 56.1762 364.7C56.1762 363.716 55.9482 362.828 55.4922 362.036C55.0362 361.232 54.4062 360.608 53.6022 360.164C52.7982 359.708 51.8982 359.48 50.9022 359.48C49.9062 359.48 49.0002 359.708 48.1842 360.164C47.3802 360.608 46.7442 361.232 46.2762 362.036C45.8202 362.828 45.5922 363.716 45.5922 364.7C45.5922 365.684 45.8202 366.578 46.2762 367.382C46.7442 368.174 47.3802 368.798 48.1842 369.254C49.0002 369.698 49.9062 369.92 50.9022 369.92ZM66.7771 362.666H63.1951V371H61.9171V362.666H58.3351V361.532H66.7771V362.666ZM74.6549 366.104C75.9389 366.404 76.5809 367.178 76.5809 368.426C76.5809 369.254 76.2749 369.89 75.6629 370.334C75.0509 370.778 74.1389 371 72.9269 371H68.6249V361.532H72.8009C73.8809 361.532 74.7269 361.742 75.3389 362.162C75.9509 362.582 76.2569 363.182 76.2569 363.962C76.2569 364.478 76.1129 364.922 75.8249 365.294C75.5489 365.654 75.1589 365.924 74.6549 366.104ZM69.8669 365.744H72.7109C73.4429 365.744 74.0009 365.606 74.3849 365.33C74.7809 365.054 74.9789 364.652 74.9789 364.124C74.9789 363.596 74.7809 363.2 74.3849 362.936C74.0009 362.672 73.4429 362.54 72.7109 362.54H69.8669V365.744ZM72.8729 369.992C73.6889 369.992 74.3009 369.86 74.7089 369.596C75.1169 369.332 75.3209 368.918 75.3209 368.354C75.3209 367.79 75.1349 367.376 74.7629 367.112C74.3909 366.836 73.8029 366.698 72.9989 366.698H69.8669V369.992H72.8729ZM87.8561 366.662H79.9361C80.0081 367.646 80.3861 368.444 81.0701 369.056C81.7541 369.656 82.6181 369.956 83.6621 369.956C84.2501 369.956 84.7901 369.854 85.2821 369.65C85.7741 369.434 86.2001 369.122 86.5601 368.714L87.2801 369.542C86.8601 370.046 86.3321 370.43 85.6961 370.694C85.0721 370.958 84.3821 371.09 83.6261 371.09C82.6541 371.09 81.7901 370.886 81.0341 370.478C80.2901 370.058 79.7081 369.482 79.2881 368.75C78.8681 368.018 78.6581 367.19 78.6581 366.266C78.6581 365.342 78.8561 364.514 79.2521 363.782C79.6601 363.05 80.2121 362.48 80.9081 362.072C81.6161 361.664 82.4081 361.46 83.2841 361.46C84.1601 361.46 84.9461 361.664 85.6421 362.072C86.3381 362.48 86.8841 363.05 87.2801 363.782C87.6761 364.502 87.8741 365.33 87.8741 366.266L87.8561 366.662ZM83.2841 362.558C82.3721 362.558 81.6041 362.852 80.9801 363.44C80.3681 364.016 80.0201 364.772 79.9361 365.708H86.6501C86.5661 364.772 86.2121 364.016 85.5881 363.44C84.9761 362.852 84.2081 362.558 83.2841 362.558ZM96.9411 362.666H93.3591V371H92.0811V362.666H88.4991V361.532H96.9411V362.666ZM98.7889 361.532H100.067V369.056L106.385 361.532H107.519V371H106.241V363.476L99.9409 371H98.7889V361.532ZM117.212 366.104C118.496 366.404 119.138 367.178 119.138 368.426C119.138 369.254 118.832 369.89 118.22 370.334C117.608 370.778 116.696 371 115.484 371H111.182V361.532H115.358C116.438 361.532 117.284 361.742 117.896 362.162C118.508 362.582 118.814 363.182 118.814 363.962C118.814 364.478 118.67 364.922 118.382 365.294C118.106 365.654 117.716 365.924 117.212 366.104ZM112.424 365.744H115.268C116 365.744 116.558 365.606 116.942 365.33C117.338 365.054 117.536 364.652 117.536 364.124C117.536 363.596 117.338 363.2 116.942 362.936C116.558 362.672 116 362.54 115.268 362.54H112.424V365.744ZM115.43 369.992C116.246 369.992 116.858 369.86 117.266 369.596C117.674 369.332 117.878 368.918 117.878 368.354C117.878 367.79 117.692 367.376 117.32 367.112C116.948 366.836 116.36 366.698 115.556 366.698H112.424V369.992H115.43ZM135.201 361.532V371H122.133V361.532H123.411V369.884H128.055V361.532H129.333V369.884H133.923V361.532H135.201ZM138.849 361.532H140.127V369.056L146.445 361.532H147.579V371H146.301V363.476L140.001 371H138.849V361.532ZM159.522 366.662H151.602C151.674 367.646 152.052 368.444 152.736 369.056C153.42 369.656 154.284 369.956 155.328 369.956C155.916 369.956 156.456 369.854 156.948 369.65C157.44 369.434 157.866 369.122 158.226 368.714L158.946 369.542C158.526 370.046 157.998 370.43 157.362 370.694C156.738 370.958 156.048 371.09 155.292 371.09C154.32 371.09 153.456 370.886 152.7 370.478C151.956 370.058 151.374 369.482 150.954 368.75C150.534 368.018 150.324 367.19 150.324 366.266C150.324 365.342 150.522 364.514 150.918 363.782C151.326 363.05 151.878 362.48 152.574 362.072C153.282 361.664 154.074 361.46 154.95 361.46C155.826 361.46 156.612 361.664 157.308 362.072C158.004 362.48 158.55 363.05 158.946 363.782C159.342 364.502 159.54 365.33 159.54 366.266L159.522 366.662ZM154.95 362.558C154.038 362.558 153.27 362.852 152.646 363.44C152.034 364.016 151.686 364.772 151.602 365.708H158.316C158.232 364.772 157.878 364.016 157.254 363.44C156.642 362.852 155.874 362.558 154.95 362.558ZM167.08 361.532H168.358V365.726H174.316V361.532H175.594V371H174.316V366.824H168.358V371H167.08V361.532ZM182.484 361.46C183.72 361.46 184.668 361.772 185.328 362.396C185.988 363.008 186.318 363.92 186.318 365.132V371H185.094V369.524C184.806 370.016 184.38 370.4 183.816 370.676C183.264 370.952 182.604 371.09 181.836 371.09C180.78 371.09 179.94 370.838 179.316 370.334C178.692 369.83 178.38 369.164 178.38 368.336C178.38 367.532 178.668 366.884 179.244 366.392C179.832 365.9 180.762 365.654 182.034 365.654H185.04V365.078C185.04 364.262 184.812 363.644 184.356 363.224C183.9 362.792 183.234 362.576 182.358 362.576C181.758 362.576 181.182 362.678 180.63 362.882C180.078 363.074 179.604 363.344 179.208 363.692L178.632 362.738C179.112 362.33 179.688 362.018 180.36 361.802C181.032 361.574 181.74 361.46 182.484 361.46ZM182.034 370.082C182.754 370.082 183.372 369.92 183.888 369.596C184.404 369.26 184.788 368.78 185.04 368.156V366.608H182.07C180.45 366.608 179.64 367.172 179.64 368.3C179.64 368.852 179.85 369.29 180.27 369.614C180.69 369.926 181.278 370.082 182.034 370.082ZM202.172 361.532V371H200.894V362.666H196.358L196.232 365.006C196.136 366.974 195.908 368.486 195.548 369.542C195.188 370.598 194.546 371.126 193.622 371.126C193.37 371.126 193.064 371.078 192.704 370.982L192.794 369.884C193.01 369.932 193.16 369.956 193.244 369.956C193.736 369.956 194.108 369.728 194.36 369.272C194.612 368.816 194.78 368.252 194.864 367.58C194.948 366.908 195.02 366.02 195.08 364.916L195.242 361.532H202.172ZM214.085 366.662H206.165C206.237 367.646 206.615 368.444 207.299 369.056C207.983 369.656 208.847 369.956 209.891 369.956C210.479 369.956 211.019 369.854 211.511 369.65C212.003 369.434 212.429 369.122 212.789 368.714L213.509 369.542C213.089 370.046 212.561 370.43 211.925 370.694C211.301 370.958 210.611 371.09 209.855 371.09C208.883 371.09 208.019 370.886 207.263 370.478C206.519 370.058 205.937 369.482 205.517 368.75C205.097 368.018 204.887 367.19 204.887 366.266C204.887 365.342 205.085 364.514 205.481 363.782C205.889 363.05 206.441 362.48 207.137 362.072C207.845 361.664 208.637 361.46 209.513 361.46C210.389 361.46 211.175 361.664 211.871 362.072C212.567 362.48 213.113 363.05 213.509 363.782C213.905 364.502 214.103 365.33 214.103 366.266L214.085 366.662ZM209.513 362.558C208.601 362.558 207.833 362.852 207.209 363.44C206.597 364.016 206.249 364.772 206.165 365.708H212.879C212.795 364.772 212.441 364.016 211.817 363.44C211.205 362.852 210.437 362.558 209.513 362.558ZM224.078 361.532V371H222.8V367.058C221.708 367.538 220.634 367.778 219.578 367.778C218.438 367.778 217.55 367.52 216.914 367.004C216.278 366.476 215.96 365.69 215.96 364.646V361.532H217.238V364.574C217.238 365.282 217.466 365.822 217.922 366.194C218.378 366.554 219.008 366.734 219.812 366.734C220.7 366.734 221.696 366.5 222.8 366.032V361.532H224.078ZM235.987 366.662H228.067C228.139 367.646 228.517 368.444 229.201 369.056C229.885 369.656 230.749 369.956 231.793 369.956C232.381 369.956 232.921 369.854 233.413 369.65C233.905 369.434 234.331 369.122 234.691 368.714L235.411 369.542C234.991 370.046 234.463 370.43 233.827 370.694C233.203 370.958 232.513 371.09 231.757 371.09C230.785 371.09 229.921 370.886 229.165 370.478C228.421 370.058 227.839 369.482 227.419 368.75C226.999 368.018 226.789 367.19 226.789 366.266C226.789 365.342 226.987 364.514 227.383 363.782C227.791 363.05 228.343 362.48 229.039 362.072C229.747 361.664 230.539 361.46 231.415 361.46C232.291 361.46 233.077 361.664 233.773 362.072C234.469 362.48 235.015 363.05 235.411 363.782C235.807 364.502 236.005 365.33 236.005 366.266L235.987 366.662ZM231.415 362.558C230.503 362.558 229.735 362.852 229.111 363.44C228.499 364.016 228.151 364.772 228.067 365.708H234.781C234.697 364.772 234.343 364.016 233.719 363.44C233.107 362.852 232.339 362.558 231.415 362.558ZM238.834 361.532H240.112V365.726H246.07V361.532H247.348V371H246.07V366.824H240.112V371H238.834V361.532ZM250.98 361.532H252.258V369.056L258.576 361.532H259.71V371H258.432V363.476L252.132 371H250.98V361.532ZM271.653 366.662H263.733C263.805 367.646 264.183 368.444 264.867 369.056C265.551 369.656 266.415 369.956 267.459 369.956C268.047 369.956 268.587 369.854 269.079 369.65C269.571 369.434 269.997 369.122 270.357 368.714L271.077 369.542C270.657 370.046 270.129 370.43 269.493 370.694C268.869 370.958 268.179 371.09 267.423 371.09C266.451 371.09 265.587 370.886 264.831 370.478C264.087 370.058 263.505 369.482 263.085 368.75C262.665 368.018 262.455 367.19 262.455 366.266C262.455 365.342 262.653 364.514 263.049 363.782C263.457 363.05 264.009 362.48 264.705 362.072C265.413 361.664 266.205 361.46 267.081 361.46C267.957 361.46 268.743 361.664 269.439 362.072C270.135 362.48 270.681 363.05 271.077 363.782C271.473 364.502 271.671 365.33 271.671 366.266L271.653 366.662ZM267.081 362.558C266.169 362.558 265.401 362.852 264.777 363.44C264.165 364.016 263.817 364.772 263.733 365.708H270.447C270.363 364.772 270.009 364.016 269.385 363.44C268.773 362.852 268.005 362.558 267.081 362.558ZM291.194 364.106V365.294L283.364 368.426V367.31L289.988 364.7L283.364 362.09V360.956L291.194 364.106ZM301.596 358.4V371H300.3V359.552H297.33V358.4H301.596ZM309.63 371.108C308.658 371.108 307.788 370.85 307.02 370.334C306.264 369.818 305.67 369.08 305.238 368.12C304.818 367.148 304.608 366.008 304.608 364.7C304.608 363.392 304.818 362.258 305.238 361.298C305.67 360.326 306.264 359.582 307.02 359.066C307.788 358.55 308.658 358.292 309.63 358.292C310.602 358.292 311.466 358.55 312.222 359.066C312.99 359.582 313.59 360.326 314.022 361.298C314.454 362.258 314.67 363.392 314.67 364.7C314.67 366.008 314.454 367.148 314.022 368.12C313.59 369.08 312.99 369.818 312.222 370.334C311.466 370.85 310.602 371.108 309.63 371.108ZM309.63 369.92C310.362 369.92 311.004 369.716 311.556 369.308C312.12 368.9 312.558 368.306 312.87 367.526C313.182 366.746 313.338 365.804 313.338 364.7C313.338 363.596 313.182 362.654 312.87 361.874C312.558 361.094 312.12 360.5 311.556 360.092C311.004 359.684 310.362 359.48 309.63 359.48C308.898 359.48 308.25 359.684 307.686 360.092C307.134 360.5 306.702 361.094 306.39 361.874C306.078 362.654 305.922 363.596 305.922 364.7C305.922 365.804 306.078 366.746 306.39 367.526C306.702 368.306 307.134 368.9 307.686 369.308C308.25 369.716 308.898 369.92 309.63 369.92ZM326.709 361.766C327.585 361.766 328.365 361.964 329.049 362.36C329.745 362.744 330.285 363.29 330.669 363.998C331.053 364.694 331.245 365.492 331.245 366.392C331.245 367.316 331.041 368.138 330.633 368.858C330.237 369.566 329.679 370.118 328.959 370.514C328.239 370.91 327.411 371.108 326.475 371.108C324.903 371.108 323.685 370.556 322.821 369.452C321.957 368.348 321.525 366.824 321.525 364.88C321.525 362.852 321.909 361.298 322.677 360.218C323.457 359.138 324.669 358.406 326.313 358.022L330.561 357.05L330.777 358.22L326.781 359.138C325.425 359.438 324.429 359.972 323.793 360.74C323.157 361.496 322.809 362.618 322.749 364.106C323.133 363.374 323.667 362.804 324.351 362.396C325.035 361.976 325.821 361.766 326.709 361.766ZM326.511 370.046C327.171 370.046 327.759 369.896 328.275 369.596C328.803 369.284 329.211 368.852 329.499 368.3C329.799 367.748 329.949 367.124 329.949 366.428C329.949 365.732 329.805 365.12 329.517 364.592C329.229 364.064 328.821 363.656 328.293 363.368C327.777 363.068 327.183 362.918 326.511 362.918C325.839 362.918 325.239 363.068 324.711 363.368C324.195 363.656 323.787 364.064 323.487 364.592C323.199 365.12 323.055 365.732 323.055 366.428C323.055 367.124 323.199 367.748 323.487 368.3C323.787 368.852 324.201 369.284 324.729 369.596C325.257 369.896 325.851 370.046 326.511 370.046ZM337.19 361.46C338.426 361.46 339.374 361.772 340.034 362.396C340.694 363.008 341.024 363.92 341.024 365.132V371H339.8V369.524C339.512 370.016 339.086 370.4 338.522 370.676C337.97 370.952 337.31 371.09 336.542 371.09C335.486 371.09 334.646 370.838 334.022 370.334C333.398 369.83 333.086 369.164 333.086 368.336C333.086 367.532 333.374 366.884 333.95 366.392C334.538 365.9 335.468 365.654 336.74 365.654H339.746V365.078C339.746 364.262 339.518 363.644 339.062 363.224C338.606 362.792 337.94 362.576 337.064 362.576C336.464 362.576 335.888 362.678 335.336 362.882C334.784 363.074 334.31 363.344 333.914 363.692L333.338 362.738C333.818 362.33 334.394 362.018 335.066 361.802C335.738 361.574 336.446 361.46 337.19 361.46ZM336.74 370.082C337.46 370.082 338.078 369.92 338.594 369.596C339.11 369.26 339.494 368.78 339.746 368.156V366.608H336.776C335.156 366.608 334.346 367.172 334.346 368.3C334.346 368.852 334.556 369.29 334.976 369.614C335.396 369.926 335.984 370.082 336.74 370.082ZM352.166 361.532V371H350.888V362.666H346.352L346.226 365.006C346.13 366.974 345.902 368.486 345.542 369.542C345.182 370.598 344.54 371.126 343.616 371.126C343.364 371.126 343.058 371.078 342.698 370.982L342.788 369.884C343.004 369.932 343.154 369.956 343.238 369.956C343.73 369.956 344.102 369.728 344.354 369.272C344.606 368.816 344.774 368.252 344.858 367.58C344.942 366.908 345.014 366.02 345.074 364.916L345.236 361.532H352.166ZM363.539 361.532V371H362.261V362.666H357.725L357.599 365.006C357.503 366.974 357.275 368.486 356.915 369.542C356.555 370.598 355.913 371.126 354.989 371.126C354.737 371.126 354.431 371.078 354.071 370.982L354.161 369.884C354.377 369.932 354.527 369.956 354.611 369.956C355.103 369.956 355.475 369.728 355.727 369.272C355.979 368.816 356.147 368.252 356.231 367.58C356.315 366.908 356.387 366.02 356.447 364.916L356.609 361.532H363.539ZM371.078 371.09C370.166 371.09 369.344 370.886 368.612 370.478C367.88 370.058 367.304 369.482 366.884 368.75C366.464 368.018 366.254 367.19 366.254 366.266C366.254 365.342 366.464 364.514 366.884 363.782C367.304 363.05 367.88 362.48 368.612 362.072C369.344 361.664 370.166 361.46 371.078 361.46C371.99 361.46 372.812 361.664 373.544 362.072C374.276 362.48 374.846 363.05 375.254 363.782C375.674 364.514 375.884 365.342 375.884 366.266C375.884 367.19 375.674 368.018 375.254 368.75C374.846 369.482 374.276 370.058 373.544 370.478C372.812 370.886 371.99 371.09 371.078 371.09ZM371.078 369.956C371.75 369.956 372.35 369.806 372.878 369.506C373.418 369.194 373.838 368.756 374.138 368.192C374.438 367.628 374.588 366.986 374.588 366.266C374.588 365.546 374.438 364.904 374.138 364.34C373.838 363.776 373.418 363.344 372.878 363.044C372.35 362.732 371.75 362.576 371.078 362.576C370.406 362.576 369.8 362.732 369.26 363.044C368.732 363.344 368.312 363.776 368 364.34C367.7 364.904 367.55 365.546 367.55 366.266C367.55 366.986 367.7 367.628 368 368.192C368.312 368.756 368.732 369.194 369.26 369.506C369.8 369.806 370.406 369.956 371.078 369.956ZM384.645 366.104C385.929 366.404 386.571 367.178 386.571 368.426C386.571 369.254 386.265 369.89 385.653 370.334C385.041 370.778 384.129 371 382.917 371H378.615V361.532H382.791C383.871 361.532 384.717 361.742 385.329 362.162C385.941 362.582 386.247 363.182 386.247 363.962C386.247 364.478 386.103 364.922 385.815 365.294C385.539 365.654 385.149 365.924 384.645 366.104ZM379.857 365.744H382.701C383.433 365.744 383.991 365.606 384.375 365.33C384.771 365.054 384.969 364.652 384.969 364.124C384.969 363.596 384.771 363.2 384.375 362.936C383.991 362.672 383.433 362.54 382.701 362.54H379.857V365.744ZM382.863 369.992C383.679 369.992 384.291 369.86 384.699 369.596C385.107 369.332 385.311 368.918 385.311 368.354C385.311 367.79 385.125 367.376 384.753 367.112C384.381 366.836 383.793 366.698 382.989 366.698H379.857V369.992H382.863Z" fill="#4A4646"/>
<rect x="0.000244141" y="353" width="24" height="24" fill="url(#paint1_linear)"/>
<path d="M57.9284 392.4V405H56.6144V399.186H48.7304V405H47.3984V392.4H48.7304V398.016H56.6144V392.4H57.9284ZM70.1556 400.662H62.2356C62.3076 401.646 62.6856 402.444 63.3696 403.056C64.0536 403.656 64.9176 403.956 65.9616 403.956C66.5496 403.956 67.0896 403.854 67.5816 403.65C68.0736 403.434 68.4996 403.122 68.8596 402.714L69.5796 403.542C69.1596 404.046 68.6316 404.43 67.9956 404.694C67.3716 404.958 66.6816 405.09 65.9256 405.09C64.9536 405.09 64.0896 404.886 63.3336 404.478C62.5896 404.058 62.0076 403.482 61.5876 402.75C61.1676 402.018 60.9576 401.19 60.9576 400.266C60.9576 399.342 61.1556 398.514 61.5516 397.782C61.9596 397.05 62.5116 396.48 63.2076 396.072C63.9156 395.664 64.7076 395.46 65.5836 395.46C66.4596 395.46 67.2456 395.664 67.9416 396.072C68.6376 396.48 69.1836 397.05 69.5796 397.782C69.9756 398.502 70.1736 399.33 70.1736 400.266L70.1556 400.662ZM65.5836 396.558C64.6716 396.558 63.9036 396.852 63.2796 397.44C62.6676 398.016 62.3196 398.772 62.2356 399.708H68.9496C68.8656 398.772 68.5116 398.016 67.8876 397.44C67.2756 396.852 66.5076 396.558 65.5836 396.558ZM81.6195 405.09C80.7075 405.09 79.8855 404.886 79.1535 404.478C78.4215 404.058 77.8455 403.482 77.4255 402.75C77.0055 402.018 76.7955 401.19 76.7955 400.266C76.7955 399.342 77.0055 398.514 77.4255 397.782C77.8455 397.05 78.4215 396.48 79.1535 396.072C79.8855 395.664 80.7075 395.46 81.6195 395.46C82.5315 395.46 83.3535 395.664 84.0855 396.072C84.8175 396.48 85.3875 397.05 85.7955 397.782C86.2155 398.514 86.4255 399.342 86.4255 400.266C86.4255 401.19 86.2155 402.018 85.7955 402.75C85.3875 403.482 84.8175 404.058 84.0855 404.478C83.3535 404.886 82.5315 405.09 81.6195 405.09ZM81.6195 403.956C82.2915 403.956 82.8915 403.806 83.4195 403.506C83.9595 403.194 84.3795 402.756 84.6795 402.192C84.9795 401.628 85.1295 400.986 85.1295 400.266C85.1295 399.546 84.9795 398.904 84.6795 398.34C84.3795 397.776 83.9595 397.344 83.4195 397.044C82.8915 396.732 82.2915 396.576 81.6195 396.576C80.9475 396.576 80.3415 396.732 79.8015 397.044C79.2735 397.344 78.8535 397.776 78.5415 398.34C78.2415 398.904 78.0915 399.546 78.0915 400.266C78.0915 400.986 78.2415 401.628 78.5415 402.192C78.8535 402.756 79.2735 403.194 79.8015 403.506C80.3415 403.806 80.9475 403.956 81.6195 403.956ZM95.4653 396.666H91.8833V405H90.6053V396.666H87.0233V395.532H95.4653V396.666ZM103.343 400.104C104.627 400.404 105.269 401.178 105.269 402.426C105.269 403.254 104.963 403.89 104.351 404.334C103.739 404.778 102.827 405 101.615 405H97.3131V395.532H101.489C102.569 395.532 103.415 395.742 104.027 396.162C104.639 396.582 104.945 397.182 104.945 397.962C104.945 398.478 104.801 398.922 104.513 399.294C104.237 399.654 103.847 399.924 103.343 400.104ZM98.5551 399.744H101.399C102.131 399.744 102.689 399.606 103.073 399.33C103.469 399.054 103.667 398.652 103.667 398.124C103.667 397.596 103.469 397.2 103.073 396.936C102.689 396.672 102.131 396.54 101.399 396.54H98.5551V399.744ZM101.561 403.992C102.377 403.992 102.989 403.86 103.397 403.596C103.805 403.332 104.009 402.918 104.009 402.354C104.009 401.79 103.823 401.376 103.451 401.112C103.079 400.836 102.491 400.698 101.687 400.698H98.5551V403.992H101.561ZM116.544 400.662H108.624C108.696 401.646 109.074 402.444 109.758 403.056C110.442 403.656 111.306 403.956 112.35 403.956C112.938 403.956 113.478 403.854 113.97 403.65C114.462 403.434 114.888 403.122 115.248 402.714L115.968 403.542C115.548 404.046 115.02 404.43 114.384 404.694C113.76 404.958 113.07 405.09 112.314 405.09C111.342 405.09 110.478 404.886 109.722 404.478C108.978 404.058 108.396 403.482 107.976 402.75C107.556 402.018 107.346 401.19 107.346 400.266C107.346 399.342 107.544 398.514 107.94 397.782C108.348 397.05 108.9 396.48 109.596 396.072C110.304 395.664 111.096 395.46 111.972 395.46C112.848 395.46 113.634 395.664 114.33 396.072C115.026 396.48 115.572 397.05 115.968 397.782C116.364 398.502 116.562 399.33 116.562 400.266L116.544 400.662ZM111.972 396.558C111.06 396.558 110.292 396.852 109.668 397.44C109.056 398.016 108.708 398.772 108.624 399.708H115.338C115.254 398.772 114.9 398.016 114.276 397.44C113.664 396.852 112.896 396.558 111.972 396.558ZM125.629 396.666H122.047V405H120.769V396.666H117.187V395.532H125.629V396.666ZM127.477 395.532H128.755V403.056L135.073 395.532H136.207V405H134.929V397.476L128.629 405H127.477V395.532ZM145.9 400.104C147.184 400.404 147.826 401.178 147.826 402.426C147.826 403.254 147.52 403.89 146.908 404.334C146.296 404.778 145.384 405 144.172 405H139.87V395.532H144.046C145.126 395.532 145.972 395.742 146.584 396.162C147.196 396.582 147.502 397.182 147.502 397.962C147.502 398.478 147.358 398.922 147.07 399.294C146.794 399.654 146.404 399.924 145.9 400.104ZM141.112 399.744H143.956C144.688 399.744 145.246 399.606 145.63 399.33C146.026 399.054 146.224 398.652 146.224 398.124C146.224 397.596 146.026 397.2 145.63 396.936C145.246 396.672 144.688 396.54 143.956 396.54H141.112V399.744ZM144.118 403.992C144.934 403.992 145.546 403.86 145.954 403.596C146.362 403.332 146.566 402.918 146.566 402.354C146.566 401.79 146.38 401.376 146.008 401.112C145.636 400.836 145.048 400.698 144.244 400.698H141.112V403.992H144.118ZM163.889 395.532V405H150.821V395.532H152.099V403.884H156.743V395.532H158.021V403.884H162.611V395.532H163.889ZM167.538 395.532H168.816V403.056L175.134 395.532H176.268V405H174.99V397.476L168.69 405H167.538V395.532ZM188.21 400.662H180.29C180.362 401.646 180.74 402.444 181.424 403.056C182.108 403.656 182.972 403.956 184.016 403.956C184.604 403.956 185.144 403.854 185.636 403.65C186.128 403.434 186.554 403.122 186.914 402.714L187.634 403.542C187.214 404.046 186.686 404.43 186.05 404.694C185.426 404.958 184.736 405.09 183.98 405.09C183.008 405.09 182.144 404.886 181.388 404.478C180.644 404.058 180.062 403.482 179.642 402.75C179.222 402.018 179.012 401.19 179.012 400.266C179.012 399.342 179.21 398.514 179.606 397.782C180.014 397.05 180.566 396.48 181.262 396.072C181.97 395.664 182.762 395.46 183.638 395.46C184.514 395.46 185.3 395.664 185.996 396.072C186.692 396.48 187.238 397.05 187.634 397.782C188.03 398.502 188.228 399.33 188.228 400.266L188.21 400.662ZM183.638 396.558C182.726 396.558 181.958 396.852 181.334 397.44C180.722 398.016 180.374 398.772 180.29 399.708H187.004C186.92 398.772 186.566 398.016 185.942 397.44C185.33 396.852 184.562 396.558 183.638 396.558ZM195.768 395.532H197.046V399.726H203.004V395.532H204.282V405H203.004V400.824H197.046V405H195.768V395.532ZM211.173 395.46C212.409 395.46 213.357 395.772 214.017 396.396C214.677 397.008 215.007 397.92 215.007 399.132V405H213.783V403.524C213.495 404.016 213.069 404.4 212.505 404.676C211.953 404.952 211.293 405.09 210.525 405.09C209.469 405.09 208.629 404.838 208.005 404.334C207.381 403.83 207.069 403.164 207.069 402.336C207.069 401.532 207.357 400.884 207.933 400.392C208.521 399.9 209.451 399.654 210.723 399.654H213.729V399.078C213.729 398.262 213.501 397.644 213.045 397.224C212.589 396.792 211.923 396.576 211.047 396.576C210.447 396.576 209.871 396.678 209.319 396.882C208.767 397.074 208.293 397.344 207.897 397.692L207.321 396.738C207.801 396.33 208.377 396.018 209.049 395.802C209.721 395.574 210.429 395.46 211.173 395.46ZM210.723 404.082C211.443 404.082 212.061 403.92 212.577 403.596C213.093 403.26 213.477 402.78 213.729 402.156V400.608H210.759C209.139 400.608 208.329 401.172 208.329 402.3C208.329 402.852 208.539 403.29 208.959 403.614C209.379 403.926 209.967 404.082 210.723 404.082ZM230.86 395.532V405H229.582V396.666H225.046L224.92 399.006C224.824 400.974 224.596 402.486 224.236 403.542C223.876 404.598 223.234 405.126 222.31 405.126C222.058 405.126 221.752 405.078 221.392 404.982L221.482 403.884C221.698 403.932 221.848 403.956 221.932 403.956C222.424 403.956 222.796 403.728 223.048 403.272C223.3 402.816 223.468 402.252 223.552 401.58C223.636 400.908 223.708 400.02 223.768 398.916L223.93 395.532H230.86ZM242.773 400.662H234.853C234.925 401.646 235.303 402.444 235.987 403.056C236.671 403.656 237.535 403.956 238.579 403.956C239.167 403.956 239.707 403.854 240.199 403.65C240.691 403.434 241.117 403.122 241.477 402.714L242.197 403.542C241.777 404.046 241.249 404.43 240.613 404.694C239.989 404.958 239.299 405.09 238.543 405.09C237.571 405.09 236.707 404.886 235.951 404.478C235.207 404.058 234.625 403.482 234.205 402.75C233.785 402.018 233.575 401.19 233.575 400.266C233.575 399.342 233.773 398.514 234.169 397.782C234.577 397.05 235.129 396.48 235.825 396.072C236.533 395.664 237.325 395.46 238.201 395.46C239.077 395.46 239.863 395.664 240.559 396.072C241.255 396.48 241.801 397.05 242.197 397.782C242.593 398.502 242.791 399.33 242.791 400.266L242.773 400.662ZM238.201 396.558C237.289 396.558 236.521 396.852 235.897 397.44C235.285 398.016 234.937 398.772 234.853 399.708H241.567C241.483 398.772 241.129 398.016 240.505 397.44C239.893 396.852 239.125 396.558 238.201 396.558ZM252.766 395.532V405H251.488V401.058C250.396 401.538 249.322 401.778 248.266 401.778C247.126 401.778 246.238 401.52 245.602 401.004C244.966 400.476 244.648 399.69 244.648 398.646V395.532H245.926V398.574C245.926 399.282 246.154 399.822 246.61 400.194C247.066 400.554 247.696 400.734 248.5 400.734C249.388 400.734 250.384 400.5 251.488 400.032V395.532H252.766ZM264.675 400.662H256.755C256.827 401.646 257.205 402.444 257.889 403.056C258.573 403.656 259.437 403.956 260.481 403.956C261.069 403.956 261.609 403.854 262.101 403.65C262.593 403.434 263.019 403.122 263.379 402.714L264.099 403.542C263.679 404.046 263.151 404.43 262.515 404.694C261.891 404.958 261.201 405.09 260.445 405.09C259.473 405.09 258.609 404.886 257.853 404.478C257.109 404.058 256.527 403.482 256.107 402.75C255.687 402.018 255.477 401.19 255.477 400.266C255.477 399.342 255.675 398.514 256.071 397.782C256.479 397.05 257.031 396.48 257.727 396.072C258.435 395.664 259.227 395.46 260.103 395.46C260.979 395.46 261.765 395.664 262.461 396.072C263.157 396.48 263.703 397.05 264.099 397.782C264.495 398.502 264.693 399.33 264.693 400.266L264.675 400.662ZM260.103 396.558C259.191 396.558 258.423 396.852 257.799 397.44C257.187 398.016 256.839 398.772 256.755 399.708H263.469C263.385 398.772 263.031 398.016 262.407 397.44C261.795 396.852 261.027 396.558 260.103 396.558ZM267.522 395.532H268.8V399.726H274.758V395.532H276.036V405H274.758V400.824H268.8V405H267.522V395.532ZM279.669 395.532H280.947V403.056L287.265 395.532H288.399V405H287.121V397.476L280.821 405H279.669V395.532ZM300.341 400.662H292.421C292.493 401.646 292.871 402.444 293.555 403.056C294.239 403.656 295.103 403.956 296.147 403.956C296.735 403.956 297.275 403.854 297.767 403.65C298.259 403.434 298.685 403.122 299.045 402.714L299.765 403.542C299.345 404.046 298.817 404.43 298.181 404.694C297.557 404.958 296.867 405.09 296.111 405.09C295.139 405.09 294.275 404.886 293.519 404.478C292.775 404.058 292.193 403.482 291.773 402.75C291.353 402.018 291.143 401.19 291.143 400.266C291.143 399.342 291.341 398.514 291.737 397.782C292.145 397.05 292.697 396.48 293.393 396.072C294.101 395.664 294.893 395.46 295.769 395.46C296.645 395.46 297.431 395.664 298.127 396.072C298.823 396.48 299.369 397.05 299.765 397.782C300.161 398.502 300.359 399.33 300.359 400.266L300.341 400.662ZM295.769 396.558C294.857 396.558 294.089 396.852 293.465 397.44C292.853 398.016 292.505 398.772 292.421 399.708H299.135C299.051 398.772 298.697 398.016 298.073 397.44C297.461 396.852 296.693 396.558 295.769 396.558ZM315.171 396.09L308.547 398.7L315.171 401.31V402.426L307.341 399.294V398.106L315.171 394.956V396.09ZM325.574 392.4V405H324.278V393.552H321.308V392.4H325.574ZM333.607 405.108C332.635 405.108 331.765 404.85 330.997 404.334C330.241 403.818 329.647 403.08 329.215 402.12C328.795 401.148 328.585 400.008 328.585 398.7C328.585 397.392 328.795 396.258 329.215 395.298C329.647 394.326 330.241 393.582 330.997 393.066C331.765 392.55 332.635 392.292 333.607 392.292C334.579 392.292 335.443 392.55 336.199 393.066C336.967 393.582 337.567 394.326 337.999 395.298C338.431 396.258 338.647 397.392 338.647 398.7C338.647 400.008 338.431 401.148 337.999 402.12C337.567 403.08 336.967 403.818 336.199 404.334C335.443 404.85 334.579 405.108 333.607 405.108ZM333.607 403.92C334.339 403.92 334.981 403.716 335.533 403.308C336.097 402.9 336.535 402.306 336.847 401.526C337.159 400.746 337.315 399.804 337.315 398.7C337.315 397.596 337.159 396.654 336.847 395.874C336.535 395.094 336.097 394.5 335.533 394.092C334.981 393.684 334.339 393.48 333.607 393.48C332.875 393.48 332.227 393.684 331.663 394.092C331.111 394.5 330.679 395.094 330.367 395.874C330.055 396.654 329.899 397.596 329.899 398.7C329.899 399.804 330.055 400.746 330.367 401.526C330.679 402.306 331.111 402.9 331.663 403.308C332.227 403.716 332.875 403.92 333.607 403.92ZM350.686 395.766C351.562 395.766 352.342 395.964 353.026 396.36C353.722 396.744 354.262 397.29 354.646 397.998C355.03 398.694 355.222 399.492 355.222 400.392C355.222 401.316 355.018 402.138 354.61 402.858C354.214 403.566 353.656 404.118 352.936 404.514C352.216 404.91 351.388 405.108 350.452 405.108C348.88 405.108 347.662 404.556 346.798 403.452C345.934 402.348 345.502 400.824 345.502 398.88C345.502 396.852 345.886 395.298 346.654 394.218C347.434 393.138 348.646 392.406 350.29 392.022L354.538 391.05L354.754 392.22L350.758 393.138C349.402 393.438 348.406 393.972 347.77 394.74C347.134 395.496 346.786 396.618 346.726 398.106C347.11 397.374 347.644 396.804 348.328 396.396C349.012 395.976 349.798 395.766 350.686 395.766ZM350.488 404.046C351.148 404.046 351.736 403.896 352.252 403.596C352.78 403.284 353.188 402.852 353.476 402.3C353.776 401.748 353.926 401.124 353.926 400.428C353.926 399.732 353.782 399.12 353.494 398.592C353.206 398.064 352.798 397.656 352.27 397.368C351.754 397.068 351.16 396.918 350.488 396.918C349.816 396.918 349.216 397.068 348.688 397.368C348.172 397.656 347.764 398.064 347.464 398.592C347.176 399.12 347.032 399.732 347.032 400.428C347.032 401.124 347.176 401.748 347.464 402.3C347.764 402.852 348.178 403.284 348.706 403.596C349.234 403.896 349.828 404.046 350.488 404.046ZM361.167 395.46C362.403 395.46 363.351 395.772 364.011 396.396C364.671 397.008 365.001 397.92 365.001 399.132V405H363.777V403.524C363.489 404.016 363.063 404.4 362.499 404.676C361.947 404.952 361.287 405.09 360.519 405.09C359.463 405.09 358.623 404.838 357.999 404.334C357.375 403.83 357.063 403.164 357.063 402.336C357.063 401.532 357.351 400.884 357.927 400.392C358.515 399.9 359.445 399.654 360.717 399.654H363.723V399.078C363.723 398.262 363.495 397.644 363.039 397.224C362.583 396.792 361.917 396.576 361.041 396.576C360.441 396.576 359.865 396.678 359.313 396.882C358.761 397.074 358.287 397.344 357.891 397.692L357.315 396.738C357.795 396.33 358.371 396.018 359.043 395.802C359.715 395.574 360.423 395.46 361.167 395.46ZM360.717 404.082C361.437 404.082 362.055 403.92 362.571 403.596C363.087 403.26 363.471 402.78 363.723 402.156V400.608H360.753C359.133 400.608 358.323 401.172 358.323 402.3C358.323 402.852 358.533 403.29 358.953 403.614C359.373 403.926 359.961 404.082 360.717 404.082ZM376.143 395.532V405H374.865V396.666H370.329L370.203 399.006C370.107 400.974 369.879 402.486 369.519 403.542C369.159 404.598 368.517 405.126 367.593 405.126C367.341 405.126 367.035 405.078 366.675 404.982L366.765 403.884C366.981 403.932 367.131 403.956 367.215 403.956C367.707 403.956 368.079 403.728 368.331 403.272C368.583 402.816 368.751 402.252 368.835 401.58C368.919 400.908 368.991 400.02 369.051 398.916L369.213 395.532H376.143ZM387.516 395.532V405H386.238V396.666H381.702L381.576 399.006C381.48 400.974 381.252 402.486 380.892 403.542C380.532 404.598 379.89 405.126 378.966 405.126C378.714 405.126 378.408 405.078 378.048 404.982L378.138 403.884C378.354 403.932 378.504 403.956 378.588 403.956C379.08 403.956 379.452 403.728 379.704 403.272C379.956 402.816 380.124 402.252 380.208 401.58C380.292 400.908 380.364 400.02 380.424 398.916L380.586 395.532H387.516ZM395.055 405.09C394.143 405.09 393.321 404.886 392.589 404.478C391.857 404.058 391.281 403.482 390.861 402.75C390.441 402.018 390.231 401.19 390.231 400.266C390.231 399.342 390.441 398.514 390.861 397.782C391.281 397.05 391.857 396.48 392.589 396.072C393.321 395.664 394.143 395.46 395.055 395.46C395.967 395.46 396.789 395.664 397.521 396.072C398.253 396.48 398.823 397.05 399.231 397.782C399.651 398.514 399.861 399.342 399.861 400.266C399.861 401.19 399.651 402.018 399.231 402.75C398.823 403.482 398.253 404.058 397.521 404.478C396.789 404.886 395.967 405.09 395.055 405.09ZM395.055 403.956C395.727 403.956 396.327 403.806 396.855 403.506C397.395 403.194 397.815 402.756 398.115 402.192C398.415 401.628 398.565 400.986 398.565 400.266C398.565 399.546 398.415 398.904 398.115 398.34C397.815 397.776 397.395 397.344 396.855 397.044C396.327 396.732 395.727 396.576 395.055 396.576C394.383 396.576 393.777 396.732 393.237 397.044C392.709 397.344 392.289 397.776 391.977 398.34C391.677 398.904 391.527 399.546 391.527 400.266C391.527 400.986 391.677 401.628 391.977 402.192C392.289 402.756 392.709 403.194 393.237 403.506C393.777 403.806 394.383 403.956 395.055 403.956ZM408.622 400.104C409.906 400.404 410.548 401.178 410.548 402.426C410.548 403.254 410.242 403.89 409.63 404.334C409.018 404.778 408.106 405 406.894 405H402.592V395.532H406.768C407.848 395.532 408.694 395.742 409.306 396.162C409.918 396.582 410.224 397.182 410.224 397.962C410.224 398.478 410.08 398.922 409.792 399.294C409.516 399.654 409.126 399.924 408.622 400.104ZM403.834 399.744H406.678C407.41 399.744 407.968 399.606 408.352 399.33C408.748 399.054 408.946 398.652 408.946 398.124C408.946 397.596 408.748 397.2 408.352 396.936C407.968 396.672 407.41 396.54 406.678 396.54H403.834V399.744ZM406.84 403.992C407.656 403.992 408.268 403.86 408.676 403.596C409.084 403.332 409.288 402.918 409.288 402.354C409.288 401.79 409.102 401.376 408.73 401.112C408.358 400.836 407.77 400.698 406.966 400.698H403.834V403.992H406.84Z" fill="#4A4646"/>
<rect y="387" width="24" height="24" fill="#5A5858"/>
<defs>
<linearGradient id="paint0_linear" x1="44" y1="0" x2="392.809" y2="29.371" gradientUnits="userSpaceOnUse">
<stop stop-color="#F17922"/>
<stop offset="1" stop-color="#F7A318"/>
</linearGradient>
<linearGradient id="paint1_linear" x1="0.000244141" y1="353" x2="25.8379" y2="355.176" gradientUnits="userSpaceOnUse">
<stop stop-color="#F17922"/>
<stop offset="1" stop-color="#F7A318"/>
</linearGradient>
</defs>
</svg>
