<svg width="793" height="457" viewBox="0 0 793 457" fill="none" xmlns="http://www.w3.org/2000/svg">
<path d="M23.192 415.824C23.192 417.52 22.824 419.048 22.088 420.408C21.336 421.768 20.304 422.84 18.992 423.624C17.68 424.392 16.216 424.776 14.6 424.776C12.984 424.776 11.52 424.392 10.208 423.624C8.896 422.84 7.872 421.768 7.136 420.408C6.384 419.048 6.008 417.52 6.008 415.824C6.008 414.144 6.384 412.624 7.136 411.264C7.872 409.904 8.896 408.84 10.208 408.072C11.504 407.304 12.968 406.92 14.6 406.92C16.232 406.92 17.704 407.304 19.016 408.072C20.312 408.84 21.336 409.904 22.088 411.264C22.824 412.624 23.192 414.144 23.192 415.824ZM21.056 415.824C21.056 414.592 20.776 413.488 20.216 412.512C19.656 411.52 18.888 410.744 17.912 410.184C16.92 409.608 15.816 409.32 14.6 409.32C13.384 409.32 12.288 409.608 11.312 410.184C10.32 410.744 9.544 411.52 8.984 412.512C8.424 413.488 8.144 414.592 8.144 415.824C8.144 417.056 8.424 418.176 8.984 419.184C9.544 420.176 10.32 420.96 11.312 421.536C12.288 422.096 13.384 422.376 14.6 422.376C15.816 422.376 16.92 422.096 17.912 421.536C18.888 420.96 19.656 420.176 20.216 419.184C20.776 418.176 21.056 417.056 21.056 415.824ZM20.984 389.84L26.048 389.84L26.048 392.024L23 392.024L23 403.424L10.28 403.424L10.28 401.12L20.984 401.12L20.984 394.16L10.28 394.16L10.28 391.856L20.984 391.856L20.984 389.84ZM16.712 375.358C16.888 375.358 17.12 375.374 17.408 375.406L17.408 385.726C18.528 385.582 19.432 385.094 20.12 384.262C20.792 383.414 21.128 382.366 21.128 381.118C21.128 379.598 20.616 378.374 19.592 377.446L21.08 376.174C21.752 376.75 22.264 377.47 22.616 378.334C22.968 379.182 23.144 380.134 23.144 381.19C23.144 382.534 22.872 383.726 22.328 384.766C21.768 385.806 20.992 386.614 20 387.19C19.008 387.75 17.888 388.03 16.64 388.03C15.408 388.03 14.296 387.758 13.304 387.214C12.312 386.654 11.544 385.894 11 384.934C10.44 383.958 10.16 382.862 10.16 381.646C10.16 380.43 10.44 379.35 11 378.406C11.544 377.446 12.312 376.702 13.304 376.174C14.296 375.63 15.432 375.358 16.712 375.358ZM12.104 381.646C12.104 382.75 12.44 383.678 13.112 384.43C13.784 385.166 14.664 385.598 15.752 385.726L15.752 377.566C14.68 377.694 13.808 378.134 13.136 378.886C12.448 379.622 12.104 380.542 12.104 381.646ZM10.28 371.784L10.28 369.48L15.68 369.48L15.68 362.232L10.28 362.232L10.28 359.928L23 359.928L23 362.232L17.672 362.232L17.672 369.48L23 369.48L23 371.784L10.28 371.784ZM17.624 350.504L17.624 353.144L23 353.144L23 355.448L10.28 355.448L10.28 353.144L15.656 353.144L15.656 350.456L10.28 346.328L10.28 343.856L16.4 348.68L23 343.52L23 346.232L17.624 350.504ZM10.16 336.802C10.16 335.042 10.592 333.698 11.456 332.77C12.32 331.826 13.608 331.354 15.32 331.354L23 331.354L23 333.538L21.32 333.538C21.912 333.922 22.368 334.474 22.688 335.194C22.992 335.898 23.144 336.738 23.144 337.714C23.144 339.138 22.8 340.282 22.112 341.146C21.424 341.994 20.52 342.418 19.4 342.418C18.28 342.418 17.384 342.01 16.712 341.194C16.024 340.378 15.68 339.082 15.68 337.306L15.68 333.658L15.224 333.658C14.232 333.658 13.472 333.946 12.944 334.522C12.416 335.098 12.152 335.946 12.152 337.066C12.152 337.818 12.28 338.554 12.536 339.274C12.776 339.994 13.104 340.602 13.52 341.098L11.792 342.058C11.264 341.402 10.864 340.618 10.592 339.706C10.304 338.794 10.16 337.826 10.16 336.802ZM21.368 337.33C21.368 336.45 21.176 335.69 20.792 335.05C20.392 334.41 19.832 333.946 19.112 333.658L17.336 333.658L17.336 337.21C17.336 339.162 17.992 340.138 19.304 340.138C19.944 340.138 20.448 339.89 20.816 339.394C21.184 338.898 21.368 338.21 21.368 337.33ZM17.624 315.816L17.624 318.456L23 318.456L23 320.76L10.28 320.76L10.28 318.456L15.656 318.456L15.656 315.768L10.28 311.64L10.28 309.168L16.4 313.992L23 308.832L23 311.544L17.624 315.816ZM10.16 302.115C10.16 300.355 10.592 299.011 11.456 298.083C12.32 297.139 13.608 296.667 15.32 296.667L23 296.667L23 298.851L21.32 298.851C21.912 299.235 22.368 299.787 22.688 300.507C22.992 301.211 23.144 302.051 23.144 303.027C23.144 304.451 22.8 305.595 22.112 306.459C21.424 307.307 20.52 307.731 19.4 307.731C18.28 307.731 17.384 307.323 16.712 306.507C16.024 305.691 15.68 304.395 15.68 302.619L15.68 298.971L15.224 298.971C14.232 298.971 13.472 299.259 12.944 299.835C12.416 300.411 12.152 301.259 12.152 302.379C12.152 303.131 12.28 303.867 12.536 304.587C12.776 305.307 13.104 305.915 13.52 306.411L11.792 307.371C11.264 306.715 10.864 305.931 10.592 305.019C10.304 304.107 10.16 303.139 10.16 302.115ZM21.368 302.643C21.368 301.763 21.176 301.003 20.792 300.363C20.392 299.723 19.832 299.259 19.112 298.971L17.336 298.971L17.336 302.523C17.336 304.475 17.992 305.451 19.304 305.451C19.944 305.451 20.448 305.203 20.816 304.707C21.184 304.211 21.368 303.523 21.368 302.643ZM10.28 282.366L23 282.366L23 284.67L17.864 284.67C18.504 286.046 18.824 287.414 18.824 288.774C18.824 290.358 18.456 291.582 17.72 292.446C16.984 293.31 15.88 293.742 14.408 293.742L10.28 293.742L10.28 291.438L14.264 291.438C15.144 291.438 15.808 291.166 16.256 290.622C16.704 290.062 16.928 289.286 16.928 288.294C16.928 287.174 16.648 285.966 16.088 284.67L10.28 284.67L10.28 282.366ZM16.712 266.397C16.888 266.397 17.12 266.413 17.408 266.445L17.408 276.765C18.528 276.621 19.432 276.133 20.12 275.301C20.792 274.453 21.128 273.405 21.128 272.157C21.128 270.637 20.616 269.413 19.592 268.485L21.08 267.213C21.752 267.789 22.264 268.509 22.616 269.373C22.968 270.221 23.144 271.173 23.144 272.229C23.144 273.573 22.872 274.765 22.328 275.805C21.768 276.845 20.992 277.653 20 278.229C19.008 278.789 17.888 279.069 16.64 279.069C15.408 279.069 14.296 278.797 13.304 278.253C12.312 277.693 11.544 276.933 11 275.973C10.44 274.997 10.16 273.901 10.16 272.685C10.16 271.469 10.44 270.389 11 269.445C11.544 268.485 12.312 267.741 13.304 267.213C14.296 266.669 15.432 266.397 16.712 266.397ZM12.104 272.685C12.104 273.789 12.44 274.717 13.112 275.469C13.784 276.205 14.664 276.637 15.752 276.765L15.752 268.605C14.68 268.733 13.808 269.173 13.136 269.925C12.448 270.661 12.104 271.581 12.104 272.685ZM23.144 257.279C23.144 258.575 22.864 259.735 22.304 260.759C21.744 261.767 20.976 262.559 20 263.135C19.008 263.711 17.888 263.999 16.64 263.999C15.392 263.999 14.28 263.711 13.304 263.135C12.312 262.559 11.544 261.767 11 260.759C10.44 259.735 10.16 258.575 10.16 257.279C10.16 256.127 10.392 255.103 10.856 254.207C11.32 253.295 11.992 252.591 12.872 252.095L14 253.847C13.392 254.247 12.936 254.743 12.632 255.335C12.328 255.927 12.176 256.583 12.176 257.303C12.176 258.135 12.36 258.887 12.728 259.559C13.096 260.215 13.624 260.735 14.312 261.119C14.984 261.487 15.76 261.671 16.64 261.671C17.536 261.671 18.328 261.487 19.016 261.119C19.688 260.735 20.208 260.215 20.576 259.559C20.944 258.887 21.128 258.135 21.128 257.303C21.128 256.583 20.976 255.927 20.672 255.335C20.368 254.743 19.912 254.247 19.304 253.847L20.408 252.095C21.288 252.591 21.968 253.295 22.448 254.207C22.912 255.103 23.144 256.127 23.144 257.279ZM12.296 239.796L12.296 244.452L23 244.452L23 246.756L12.296 246.756L12.296 251.412L10.28 251.412L10.28 239.796L12.296 239.796ZM16.4 228.776C16.816 227.128 17.848 226.304 19.496 226.304C20.616 226.304 21.48 226.728 22.088 227.576C22.696 228.408 23 229.656 23 231.32L23 237.44L10.28 237.44L10.28 231.536C10.28 230.032 10.568 228.856 11.144 228.008C11.704 227.16 12.504 226.736 13.544 226.736C14.216 226.736 14.8 226.92 15.296 227.288C15.776 227.64 16.144 228.136 16.4 228.776ZM15.752 235.184L15.752 231.728C15.752 230.848 15.592 230.184 15.272 229.736C14.952 229.272 14.488 229.04 13.88 229.04C12.664 229.04 12.056 229.936 12.056 231.728L12.056 235.184L15.752 235.184ZM21.224 231.488C21.224 230.528 21.072 229.808 20.768 229.328C20.464 228.848 19.992 228.608 19.352 228.608C18.696 228.608 18.208 228.832 17.888 229.28C17.568 229.712 17.408 230.4 17.408 231.344L17.408 235.184L21.224 235.184L21.224 231.488ZM10.16 218.162C10.16 216.402 10.592 215.058 11.456 214.13C12.32 213.186 13.608 212.714 15.32 212.714L23 212.714L23 214.898L21.32 214.898C21.912 215.282 22.368 215.834 22.688 216.554C22.992 217.258 23.144 218.098 23.144 219.074C23.144 220.498 22.8 221.642 22.112 222.506C21.424 223.354 20.52 223.778 19.4 223.778C18.28 223.778 17.384 223.37 16.712 222.554C16.024 221.738 15.68 220.442 15.68 218.666L15.68 215.018L15.224 215.018C14.232 215.018 13.472 215.306 12.944 215.882C12.416 216.458 12.152 217.306 12.152 218.426C12.152 219.178 12.28 219.914 12.536 220.634C12.776 221.354 13.104 221.962 13.52 222.458L11.792 223.418C11.264 222.762 10.864 221.978 10.592 221.066C10.304 220.154 10.16 219.186 10.16 218.162ZM21.368 218.69C21.368 217.81 21.176 217.05 20.792 216.41C20.392 215.77 19.832 215.306 19.112 215.018L17.336 215.018L17.336 218.57C17.336 220.522 17.992 221.498 19.304 221.498C19.944 221.498 20.448 221.25 20.816 220.754C21.184 220.258 21.368 219.57 21.368 218.69ZM17.624 190.552L17.624 193.024L23 193.024L23 195.328L17.624 195.328L17.624 197.8L23 201.304L23 204.04L16.424 199.672L10.28 203.704L10.28 201.256L15.656 197.824L15.656 195.328L10.28 195.328L10.28 193.024L15.656 193.024L15.656 190.528L10.28 187.096L10.28 184.624L16.448 188.656L23 184.288L23 187.024L17.624 190.552ZM10.28 181.752L10.28 179.448L19.544 179.448L10.28 171.648L10.28 169.56L23 169.56L23 171.864L13.736 171.864L23 179.64L23 181.752L10.28 181.752ZM16.376 158.411C16.6 157.563 16.96 156.907 17.456 156.443C17.952 155.979 18.568 155.747 19.304 155.747C20.056 155.747 20.728 156.003 21.32 156.515C21.896 157.027 22.352 157.739 22.688 158.651C23.008 159.547 23.168 160.555 23.168 161.675C23.168 162.619 23.048 163.547 22.808 164.459C22.552 165.355 22.192 166.155 21.728 166.859L19.976 166.163C20.36 165.555 20.664 164.859 20.888 164.075C21.096 163.291 21.2 162.499 21.2 161.699C21.2 160.611 21.016 159.747 20.648 159.107C20.264 158.451 19.752 158.123 19.112 158.123C18.52 158.123 18.064 158.387 17.744 158.915C17.424 159.427 17.264 160.155 17.264 161.099L17.264 163.427L15.608 163.427L15.608 161.267C15.608 160.403 15.456 159.723 15.152 159.227C14.848 158.731 14.432 158.483 13.904 158.483C13.328 158.483 12.88 158.779 12.56 159.371C12.24 159.947 12.08 160.731 12.08 161.723C12.08 162.987 12.408 164.323 13.064 165.731L11.288 166.355C10.504 164.803 10.112 163.179 10.112 161.483C10.112 160.459 10.256 159.539 10.544 158.723C10.832 157.907 11.24 157.267 11.768 156.803C12.296 156.339 12.896 156.107 13.568 156.107C14.192 156.107 14.752 156.315 15.248 156.731C15.744 157.147 16.12 157.707 16.376 158.411ZM10.28 152.245L10.28 149.941L15.68 149.941L15.68 142.693L10.28 142.693L10.28 140.389L23 140.389L23 142.693L17.672 142.693L17.672 149.941L23 149.941L23 152.245L10.28 152.245ZM10.28 135.909L10.28 133.605L19.544 133.605L10.28 125.805L10.28 123.717L23 123.717L23 126.021L13.736 126.021L23 133.797L23 135.909L10.28 135.909ZM19.856 118.717C19.856 118.269 20.016 117.901 20.336 117.613C20.64 117.309 21.024 117.157 21.488 117.157C21.728 117.157 21.96 117.189 22.184 117.253C22.408 117.301 22.752 117.405 23.216 117.565L26.552 118.693L26.552 120.205L22.976 119.317C22.864 119.621 22.68 119.869 22.424 120.061C22.152 120.237 21.84 120.325 21.488 120.325C21.008 120.325 20.616 120.173 20.312 119.869C20.008 119.565 19.856 119.181 19.856 118.717ZM10.712 100.882C10.712 99.6977 10.976 98.6417 11.504 97.7137C12.032 96.7857 12.768 96.0657 13.712 95.5537C14.64 95.0257 15.704 94.7617 16.904 94.7617C18.136 94.7617 19.232 95.0417 20.192 95.6017C21.136 96.1457 21.872 96.9217 22.4 97.9297C22.928 98.9217 23.192 100.058 23.192 101.338C23.192 103.498 22.456 105.17 20.984 106.354C19.496 107.522 17.408 108.106 14.72 108.106C12.112 108.106 10.072 107.57 8.59999 106.498C7.11199 105.426 6.12799 103.786 5.64798 101.578L4.35199 95.7697L6.46399 95.4337L7.61599 100.786C7.98399 102.45 8.60799 103.69 9.48799 104.506C10.368 105.322 11.632 105.786 13.28 105.898C12.464 105.354 11.832 104.65 11.384 103.786C10.936 102.922 10.712 101.954 10.712 100.882ZM21.272 101.29C21.272 100.474 21.088 99.7537 20.72 99.1297C20.352 98.4897 19.848 97.9937 19.208 97.6417C18.552 97.2897 17.808 97.1137 16.976 97.1137C15.712 97.1137 14.696 97.4977 13.928 98.2657C13.16 99.0337 12.776 100.042 12.776 101.29C12.776 102.538 13.16 103.554 13.928 104.338C14.696 105.106 15.712 105.49 16.976 105.49C17.808 105.49 18.552 105.314 19.208 104.962C19.848 104.594 20.352 104.09 20.72 103.45C21.088 102.81 21.272 102.09 21.272 101.29ZM10.16 87.0523C10.16 85.2923 10.592 83.9483 11.456 83.0203C12.32 82.0763 13.608 81.6043 15.32 81.6043L23 81.6043L23 83.7883L21.32 83.7883C21.912 84.1723 22.368 84.7243 22.688 85.4443C22.992 86.1483 23.144 86.9883 23.144 87.9643C23.144 89.3883 22.8 90.5323 22.112 91.3963C21.424 92.2443 20.52 92.6683 19.4 92.6683C18.28 92.6683 17.384 92.2603 16.712 91.4443C16.024 90.6283 15.68 89.3323 15.68 87.5563L15.68 83.9083L15.224 83.9083C14.232 83.9083 13.472 84.1963 12.944 84.7723C12.416 85.3483 12.152 86.1963 12.152 87.3163C12.152 88.0683 12.28 88.8043 12.536 89.5243C12.776 90.2443 13.104 90.8523 13.52 91.3483L11.792 92.3083C11.264 91.6523 10.864 90.8683 10.592 89.9563C10.304 89.0443 10.16 88.0763 10.16 87.0523ZM21.368 87.5803C21.368 86.7003 21.176 85.9403 20.792 85.3003C20.392 84.6603 19.832 84.1963 19.112 83.9083L17.336 83.9083L17.336 87.4603C17.336 89.4123 17.992 90.3883 19.304 90.3883C19.944 90.3883 20.448 90.1403 20.816 89.6443C21.184 89.1483 21.368 88.4603 21.368 87.5803ZM10.28 66.5355L23 66.5355L23 68.8395L12.296 68.8395L12.296 74.3115L15.128 74.4555C16.84 74.5355 18.272 74.6875 19.424 74.9115C20.56 75.1355 21.472 75.5035 22.16 76.0155C22.848 76.5275 23.192 77.2395 23.192 78.1515C23.192 78.5675 23.12 79.0395 22.976 79.5675L21.032 79.4235C21.08 79.2155 21.104 79.0235 21.104 78.8475C21.104 78.2075 20.824 77.7275 20.264 77.4075C19.704 77.0875 19.04 76.8795 18.272 76.7835C17.504 76.6875 16.408 76.5995 14.984 76.5195L10.28 76.3035L10.28 66.5355ZM10.28 51.1605L23 51.1605L23 53.4645L12.296 53.4645L12.296 58.9365L15.128 59.0805C16.84 59.1605 18.272 59.3125 19.424 59.5365C20.56 59.7605 21.472 60.1285 22.16 60.6405C22.848 61.1525 23.192 61.8645 23.192 62.7765C23.192 63.1925 23.12 63.6645 22.976 64.1925L21.032 64.0485C21.08 63.8405 21.104 63.6485 21.104 63.4725C21.104 62.8325 20.824 62.3525 20.264 62.0325C19.704 61.7125 19.04 61.5045 18.272 61.4085C17.504 61.3125 16.408 61.2245 14.984 61.1445L10.28 60.9285L10.28 51.1605ZM14.6 40.9695C14.616 39.3695 14.984 38.1455 15.704 37.2975C16.424 36.4495 17.44 36.0255 18.752 36.0255C20.128 36.0255 21.192 36.4895 21.944 37.4175C22.68 38.3295 23.04 39.6415 23.024 41.3535L23 46.7055L10.28 46.7055L10.28 44.4015L14.576 44.4015L14.6 40.9695ZM10.28 34.1295L10.28 31.8255L23 31.8255L23 34.1295L10.28 34.1295ZM21.272 41.5215C21.288 40.4815 21.08 39.6975 20.648 39.1695C20.216 38.6255 19.576 38.3535 18.728 38.3535C17.896 38.3535 17.288 38.6175 16.904 39.1455C16.52 39.6735 16.32 40.4655 16.304 41.5215L16.256 44.4015L21.248 44.4015L21.272 41.5215Z" fill="#4A4646"/>
<path d="M149.827 61.848V63H140.989V62.082L146.227 56.952C146.887 56.304 147.331 55.746 147.559 55.278C147.799 54.798 147.919 54.318 147.919 53.838C147.919 53.094 147.661 52.518 147.145 52.11C146.641 51.69 145.915 51.48 144.967 51.48C143.491 51.48 142.345 51.948 141.529 52.884L140.611 52.092C141.103 51.516 141.727 51.072 142.483 50.76C143.251 50.448 144.115 50.292 145.075 50.292C146.359 50.292 147.373 50.598 148.117 51.21C148.873 51.81 149.251 52.638 149.251 53.694C149.251 54.342 149.107 54.966 148.819 55.566C148.531 56.166 147.985 56.856 147.181 57.636L142.897 61.848H149.827ZM154.766 55.566C156.59 55.566 157.916 55.896 158.744 56.556C159.584 57.204 160.004 58.116 160.004 59.292C160.004 60.024 159.83 60.678 159.482 61.254C159.146 61.83 158.636 62.286 157.952 62.622C157.268 62.946 156.428 63.108 155.432 63.108C154.532 63.108 153.674 62.964 152.858 62.676C152.054 62.376 151.406 61.98 150.914 61.488L151.544 60.462C151.964 60.894 152.516 61.248 153.2 61.524C153.884 61.788 154.622 61.92 155.414 61.92C156.458 61.92 157.262 61.686 157.826 61.218C158.402 60.75 158.69 60.126 158.69 59.346C158.69 58.482 158.366 57.828 157.718 57.384C157.082 56.94 156.002 56.718 154.478 56.718H151.796L152.444 50.4H159.338V51.552H153.578L153.146 55.566H154.766Z" fill="#4A4646"/>
<path d="M149.001 130.467V131.619H140.163V130.701L145.401 125.571C146.061 124.923 146.505 124.365 146.733 123.897C146.973 123.417 147.093 122.937 147.093 122.457C147.093 121.713 146.835 121.137 146.319 120.729C145.815 120.309 145.089 120.099 144.141 120.099C142.665 120.099 141.519 120.567 140.703 121.503L139.785 120.711C140.277 120.135 140.901 119.691 141.657 119.379C142.425 119.067 143.289 118.911 144.249 118.911C145.533 118.911 146.547 119.217 147.291 119.829C148.047 120.429 148.425 121.257 148.425 122.313C148.425 122.961 148.281 123.585 147.993 124.185C147.705 124.785 147.159 125.475 146.355 126.255L142.071 130.467H149.001ZM155.579 131.727C154.607 131.727 153.737 131.469 152.969 130.953C152.213 130.437 151.619 129.699 151.187 128.739C150.767 127.767 150.557 126.627 150.557 125.319C150.557 124.011 150.767 122.877 151.187 121.917C151.619 120.945 152.213 120.201 152.969 119.685C153.737 119.169 154.607 118.911 155.579 118.911C156.551 118.911 157.415 119.169 158.171 119.685C158.939 120.201 159.539 120.945 159.971 121.917C160.403 122.877 160.619 124.011 160.619 125.319C160.619 126.627 160.403 127.767 159.971 128.739C159.539 129.699 158.939 130.437 158.171 130.953C157.415 131.469 156.551 131.727 155.579 131.727ZM155.579 130.539C156.311 130.539 156.953 130.335 157.505 129.927C158.069 129.519 158.507 128.925 158.819 128.145C159.131 127.365 159.287 126.423 159.287 125.319C159.287 124.215 159.131 123.273 158.819 122.493C158.507 121.713 158.069 121.119 157.505 120.711C156.953 120.303 156.311 120.099 155.579 120.099C154.847 120.099 154.199 120.303 153.635 120.711C153.083 121.119 152.651 121.713 152.339 122.493C152.027 123.273 151.871 124.215 151.871 125.319C151.871 126.423 152.027 127.365 152.339 128.145C152.651 128.925 153.083 129.519 153.635 129.927C154.199 130.335 154.847 130.539 155.579 130.539Z" fill="#4A4646"/>
<path d="M146.578 187.639V200.239H145.282V188.791H142.312V187.639H146.578ZM152.902 192.805C154.726 192.805 156.052 193.135 156.88 193.795C157.72 194.443 158.14 195.355 158.14 196.531C158.14 197.263 157.966 197.917 157.618 198.493C157.282 199.069 156.772 199.525 156.088 199.861C155.404 200.185 154.564 200.347 153.568 200.347C152.668 200.347 151.81 200.203 150.994 199.915C150.19 199.615 149.542 199.219 149.05 198.727L149.68 197.701C150.1 198.133 150.652 198.487 151.336 198.763C152.02 199.027 152.758 199.159 153.55 199.159C154.594 199.159 155.398 198.925 155.962 198.457C156.538 197.989 156.826 197.365 156.826 196.585C156.826 195.721 156.502 195.067 155.854 194.623C155.218 194.179 154.138 193.957 152.614 193.957H149.932L150.58 187.639H157.474V188.791H151.714L151.282 192.805H152.902Z" fill="#4A4646"/>
<path d="M145.717 256.258V268.858H144.421V257.41H141.451V256.258H145.717ZM153.751 268.966C152.779 268.966 151.909 268.708 151.141 268.192C150.385 267.676 149.791 266.938 149.359 265.978C148.939 265.006 148.729 263.866 148.729 262.558C148.729 261.25 148.939 260.116 149.359 259.156C149.791 258.184 150.385 257.44 151.141 256.924C151.909 256.408 152.779 256.15 153.751 256.15C154.723 256.15 155.587 256.408 156.343 256.924C157.111 257.44 157.711 258.184 158.143 259.156C158.575 260.116 158.791 261.25 158.791 262.558C158.791 263.866 158.575 265.006 158.143 265.978C157.711 266.938 157.111 267.676 156.343 268.192C155.587 268.708 154.723 268.966 153.751 268.966ZM153.751 267.778C154.483 267.778 155.125 267.574 155.677 267.166C156.241 266.758 156.679 266.164 156.991 265.384C157.303 264.604 157.459 263.662 157.459 262.558C157.459 261.454 157.303 260.512 156.991 259.732C156.679 258.952 156.241 258.358 155.677 257.95C155.125 257.542 154.483 257.338 153.751 257.338C153.019 257.338 152.371 257.542 151.807 257.95C151.255 258.358 150.823 258.952 150.511 259.732C150.199 260.512 150.043 261.454 150.043 262.558C150.043 263.662 150.199 264.604 150.511 265.384C150.823 266.164 151.255 266.758 151.807 267.166C152.371 267.574 153.019 267.778 153.751 267.778Z" fill="#4A4646"/>
<path d="M149.65 329.882C151.474 329.882 152.8 330.212 153.628 330.872C154.468 331.52 154.888 332.432 154.888 333.608C154.888 334.34 154.714 334.994 154.366 335.57C154.03 336.146 153.52 336.602 152.836 336.938C152.152 337.262 151.312 337.424 150.316 337.424C149.416 337.424 148.558 337.28 147.742 336.992C146.938 336.692 146.29 336.296 145.798 335.804L146.428 334.778C146.848 335.21 147.4 335.564 148.084 335.84C148.768 336.104 149.506 336.236 150.298 336.236C151.342 336.236 152.146 336.002 152.71 335.534C153.286 335.066 153.574 334.442 153.574 333.662C153.574 332.798 153.25 332.144 152.602 331.7C151.966 331.256 150.886 331.034 149.362 331.034H146.68L147.328 324.716H154.222V325.868H148.462L148.03 329.882H149.65Z" fill="#4A4646"/>
<path d="M149.999 406.108C149.027 406.108 148.157 405.85 147.389 405.334C146.633 404.818 146.039 404.08 145.607 403.12C145.187 402.148 144.977 401.008 144.977 399.7C144.977 398.392 145.187 397.258 145.607 396.298C146.039 395.326 146.633 394.582 147.389 394.066C148.157 393.55 149.027 393.292 149.999 393.292C150.971 393.292 151.835 393.55 152.591 394.066C153.359 394.582 153.959 395.326 154.391 396.298C154.823 397.258 155.039 398.392 155.039 399.7C155.039 401.008 154.823 402.148 154.391 403.12C153.959 404.08 153.359 404.818 152.591 405.334C151.835 405.85 150.971 406.108 149.999 406.108ZM149.999 404.92C150.731 404.92 151.373 404.716 151.925 404.308C152.489 403.9 152.927 403.306 153.239 402.526C153.551 401.746 153.707 400.804 153.707 399.7C153.707 398.596 153.551 397.654 153.239 396.874C152.927 396.094 152.489 395.5 151.925 395.092C151.373 394.684 150.731 394.48 149.999 394.48C149.267 394.48 148.619 394.684 148.055 395.092C147.503 395.5 147.071 396.094 146.759 396.874C146.447 397.654 146.291 398.596 146.291 399.7C146.291 400.804 146.447 401.746 146.759 402.526C147.071 403.306 147.503 403.9 148.055 404.308C148.619 404.716 149.267 404.92 149.999 404.92Z" fill="#4A4646"/>
<path d="M292.986 439.4V452H291.222V440.966H283.914V452H282.132V439.4H292.986ZM301.685 442.37C302.609 442.37 303.437 442.574 304.169 442.982C304.901 443.39 305.471 443.96 305.879 444.692C306.299 445.424 306.509 446.27 306.509 447.23C306.509 448.19 306.299 449.042 305.879 449.786C305.471 450.518 304.901 451.088 304.169 451.496C303.437 451.904 302.609 452.108 301.685 452.108C301.001 452.108 300.371 451.976 299.795 451.712C299.231 451.448 298.751 451.064 298.355 450.56V455.492H296.627V442.46H298.283V443.972C298.667 443.444 299.153 443.048 299.741 442.784C300.329 442.508 300.977 442.37 301.685 442.37ZM301.541 450.596C302.153 450.596 302.699 450.458 303.179 450.182C303.671 449.894 304.055 449.498 304.331 448.994C304.619 448.478 304.763 447.89 304.763 447.23C304.763 446.57 304.619 445.988 304.331 445.484C304.055 444.968 303.671 444.572 303.179 444.296C302.699 444.02 302.153 443.882 301.541 443.882C300.941 443.882 300.395 444.026 299.903 444.314C299.423 444.59 299.039 444.98 298.751 445.484C298.475 445.988 298.337 446.57 298.337 447.23C298.337 447.89 298.475 448.478 298.751 448.994C299.027 449.498 299.411 449.894 299.903 450.182C300.395 450.458 300.941 450.596 301.541 450.596ZM313.106 452.108C312.158 452.108 311.306 451.898 310.55 451.478C309.794 451.058 309.2 450.482 308.768 449.75C308.348 449.006 308.138 448.166 308.138 447.23C308.138 446.294 308.348 445.46 308.768 444.728C309.2 443.984 309.794 443.408 310.55 443C311.306 442.58 312.158 442.37 313.106 442.37C314.054 442.37 314.9 442.58 315.644 443C316.4 443.408 316.988 443.984 317.408 444.728C317.84 445.46 318.056 446.294 318.056 447.23C318.056 448.166 317.84 449.006 317.408 449.75C316.988 450.482 316.4 451.058 315.644 451.478C314.9 451.898 314.054 452.108 313.106 452.108ZM313.106 450.596C313.718 450.596 314.264 450.458 314.744 450.182C315.236 449.894 315.62 449.498 315.896 448.994C316.172 448.478 316.31 447.89 316.31 447.23C316.31 446.57 316.172 445.988 315.896 445.484C315.62 444.968 315.236 444.572 314.744 444.296C314.264 444.02 313.718 443.882 313.106 443.882C312.494 443.882 311.942 444.02 311.45 444.296C310.97 444.572 310.586 444.968 310.298 445.484C310.022 445.988 309.884 446.57 309.884 447.23C309.884 447.89 310.022 448.478 310.298 448.994C310.586 449.498 310.97 449.894 311.45 450.182C311.942 450.458 312.494 450.596 313.106 450.596ZM325.411 442.784C326.299 442.784 327.091 442.982 327.787 443.378C328.483 443.774 329.023 444.326 329.407 445.034C329.803 445.73 330.001 446.528 330.001 447.428C330.001 448.352 329.791 449.174 329.371 449.894C328.963 450.602 328.381 451.154 327.625 451.55C326.881 451.946 326.029 452.144 325.069 452.144C323.449 452.144 322.195 451.592 321.307 450.488C320.431 449.372 319.993 447.806 319.993 445.79C319.993 443.834 320.395 442.304 321.199 441.2C322.003 440.084 323.233 439.346 324.889 438.986L329.245 438.014L329.497 439.598L325.483 440.462C324.235 440.738 323.305 441.206 322.693 441.866C322.081 442.526 321.733 443.474 321.649 444.71C322.057 444.098 322.585 443.624 323.233 443.288C323.881 442.952 324.607 442.784 325.411 442.784ZM325.105 450.704C325.717 450.704 326.257 450.566 326.725 450.29C327.205 450.014 327.577 449.636 327.841 449.156C328.105 448.664 328.237 448.106 328.237 447.482C328.237 446.534 327.949 445.772 327.373 445.196C326.797 444.62 326.041 444.332 325.105 444.332C324.169 444.332 323.407 444.62 322.819 445.196C322.243 445.772 321.955 446.534 321.955 447.482C321.955 448.106 322.087 448.664 322.351 449.156C322.627 449.636 323.005 450.014 323.485 450.29C323.965 450.566 324.505 450.704 325.105 450.704ZM332.469 442.46H334.197V449.408L340.047 442.46H341.613V452H339.885V445.052L334.053 452H332.469V442.46ZM349.053 452.108C348.105 452.108 347.253 451.898 346.497 451.478C345.741 451.058 345.147 450.482 344.715 449.75C344.295 449.006 344.085 448.166 344.085 447.23C344.085 446.294 344.295 445.46 344.715 444.728C345.147 443.984 345.741 443.408 346.497 443C347.253 442.58 348.105 442.37 349.053 442.37C350.001 442.37 350.847 442.58 351.591 443C352.347 443.408 352.935 443.984 353.355 444.728C353.787 445.46 354.003 446.294 354.003 447.23C354.003 448.166 353.787 449.006 353.355 449.75C352.935 450.482 352.347 451.058 351.591 451.478C350.847 451.898 350.001 452.108 349.053 452.108ZM349.053 450.596C349.665 450.596 350.211 450.458 350.691 450.182C351.183 449.894 351.567 449.498 351.843 448.994C352.119 448.478 352.257 447.89 352.257 447.23C352.257 446.57 352.119 445.988 351.843 445.484C351.567 444.968 351.183 444.572 350.691 444.296C350.211 444.02 349.665 443.882 349.053 443.882C348.441 443.882 347.889 444.02 347.397 444.296C346.917 444.572 346.533 444.968 346.245 445.484C345.969 445.988 345.831 446.57 345.831 447.23C345.831 447.89 345.969 448.478 346.245 448.994C346.533 449.498 346.917 449.894 347.397 450.182C347.889 450.458 348.441 450.596 349.053 450.596ZM364.618 442.46V452H362.89V443.972H358.786L358.678 446.096C358.618 447.38 358.504 448.454 358.336 449.318C358.168 450.17 357.892 450.854 357.508 451.37C357.124 451.886 356.59 452.144 355.906 452.144C355.594 452.144 355.24 452.09 354.844 451.982L354.952 450.524C355.108 450.56 355.252 450.578 355.384 450.578C355.864 450.578 356.224 450.368 356.464 449.948C356.704 449.528 356.86 449.03 356.932 448.454C357.004 447.878 357.07 447.056 357.13 445.988L357.292 442.46H364.618ZM372.045 452.108C371.097 452.108 370.245 451.898 369.489 451.478C368.733 451.058 368.139 450.482 367.707 449.75C367.287 449.006 367.077 448.166 367.077 447.23C367.077 446.294 367.287 445.46 367.707 444.728C368.139 443.984 368.733 443.408 369.489 443C370.245 442.58 371.097 442.37 372.045 442.37C372.993 442.37 373.839 442.58 374.583 443C375.339 443.408 375.927 443.984 376.347 444.728C376.779 445.46 376.995 446.294 376.995 447.23C376.995 448.166 376.779 449.006 376.347 449.75C375.927 450.482 375.339 451.058 374.583 451.478C373.839 451.898 372.993 452.108 372.045 452.108ZM372.045 450.596C372.657 450.596 373.203 450.458 373.683 450.182C374.175 449.894 374.559 449.498 374.835 448.994C375.111 448.478 375.249 447.89 375.249 447.23C375.249 446.57 375.111 445.988 374.835 445.484C374.559 444.968 374.175 444.572 373.683 444.296C373.203 444.02 372.657 443.882 372.045 443.882C371.433 443.882 370.881 444.02 370.389 444.296C369.909 444.572 369.525 444.968 369.237 445.484C368.961 445.988 368.823 446.57 368.823 447.23C368.823 447.89 368.961 448.478 369.237 448.994C369.525 449.498 369.909 449.894 370.389 450.182C370.881 450.458 371.433 450.596 372.045 450.596ZM386.51 443.972H381.218V452H379.49V442.46H386.51V443.972ZM399.035 452.144C397.775 452.144 396.635 451.868 395.615 451.316C394.607 450.752 393.815 449.984 393.239 449.012C392.663 448.028 392.375 446.924 392.375 445.7C392.375 444.476 392.663 443.378 393.239 442.406C393.815 441.422 394.613 440.654 395.633 440.102C396.653 439.538 397.793 439.256 399.053 439.256C400.037 439.256 400.937 439.424 401.753 439.76C402.569 440.084 403.265 440.57 403.841 441.218L402.671 442.352C401.723 441.356 400.541 440.858 399.125 440.858C398.189 440.858 397.343 441.068 396.587 441.488C395.831 441.908 395.237 442.49 394.805 443.234C394.385 443.966 394.175 444.788 394.175 445.7C394.175 446.612 394.385 447.44 394.805 448.184C395.237 448.916 395.831 449.492 396.587 449.912C397.343 450.332 398.189 450.542 399.125 450.542C400.529 450.542 401.711 450.038 402.671 449.03L403.841 450.164C403.265 450.812 402.563 451.304 401.735 451.64C400.919 451.976 400.019 452.144 399.035 452.144ZM411.235 439.4C412.867 439.4 414.151 439.79 415.087 440.57C416.023 441.35 416.491 442.424 416.491 443.792C416.491 445.16 416.023 446.234 415.087 447.014C414.151 447.794 412.867 448.184 411.235 448.184H408.121V452H406.321V439.4H411.235ZM411.181 446.618C412.321 446.618 413.191 446.378 413.791 445.898C414.391 445.406 414.691 444.704 414.691 443.792C414.691 442.88 414.391 442.184 413.791 441.704C413.191 441.212 412.321 440.966 411.181 440.966H408.121V446.618H411.181ZM423.387 446.456H420.759V452H418.995V439.4H420.759V444.872H423.423L427.383 439.4H429.309L424.809 445.502L429.525 452H427.473L423.387 446.456Z" fill="#4A4646"/>
<path d="M595.269 439.4V452H593.505V440.966H586.197V452H584.415V439.4H595.269ZM607.1 442.46V452H605.372V443.972H601.268L601.16 446.096C601.1 447.38 600.986 448.454 600.818 449.318C600.65 450.17 600.374 450.854 599.99 451.37C599.606 451.886 599.072 452.144 598.388 452.144C598.076 452.144 597.722 452.09 597.326 451.982L597.434 450.524C597.59 450.56 597.734 450.578 597.866 450.578C598.346 450.578 598.706 450.368 598.946 449.948C599.186 449.528 599.342 449.03 599.414 448.454C599.486 447.878 599.552 447.056 599.612 445.988L599.774 442.46H607.1ZM613.844 442.37C615.164 442.37 616.172 442.694 616.868 443.342C617.576 443.99 617.93 444.956 617.93 446.24V452H616.292V450.74C616.004 451.184 615.59 451.526 615.05 451.766C614.522 451.994 613.892 452.108 613.16 452.108C612.092 452.108 611.234 451.85 610.586 451.334C609.95 450.818 609.632 450.14 609.632 449.3C609.632 448.46 609.938 447.788 610.55 447.284C611.162 446.768 612.134 446.51 613.466 446.51H616.202V446.168C616.202 445.424 615.986 444.854 615.554 444.458C615.122 444.062 614.486 443.864 613.646 443.864C613.082 443.864 612.53 443.96 611.99 444.152C611.45 444.332 610.994 444.578 610.622 444.89L609.902 443.594C610.394 443.198 610.982 442.898 611.666 442.694C612.35 442.478 613.076 442.37 613.844 442.37ZM613.448 450.776C614.108 450.776 614.678 450.632 615.158 450.344C615.638 450.044 615.986 449.624 616.202 449.084V447.752H613.538C612.074 447.752 611.342 448.244 611.342 449.228C611.342 449.708 611.528 450.086 611.9 450.362C612.272 450.638 612.788 450.776 613.448 450.776ZM631.229 450.488V454.286H629.591V452H621.041V442.46H622.769V450.488H627.989V442.46H629.717V450.488H631.229ZM642.091 447.284C642.091 447.416 642.079 447.59 642.055 447.806H634.315C634.423 448.646 634.789 449.324 635.413 449.84C636.049 450.344 636.835 450.596 637.771 450.596C638.911 450.596 639.829 450.212 640.525 449.444L641.479 450.56C641.047 451.064 640.507 451.448 639.859 451.712C639.223 451.976 638.509 452.108 637.717 452.108C636.709 452.108 635.815 451.904 635.035 451.496C634.255 451.076 633.649 450.494 633.217 449.75C632.797 449.006 632.587 448.166 632.587 447.23C632.587 446.306 632.791 445.472 633.199 444.728C633.619 443.984 634.189 443.408 634.909 443C635.641 442.58 636.463 442.37 637.375 442.37C638.287 442.37 639.097 442.58 639.805 443C640.525 443.408 641.083 443.984 641.479 444.728C641.887 445.472 642.091 446.324 642.091 447.284ZM637.375 443.828C636.547 443.828 635.851 444.08 635.287 444.584C634.735 445.088 634.411 445.748 634.315 446.564H640.435C640.339 445.76 640.009 445.106 639.445 444.602C638.893 444.086 638.203 443.828 637.375 443.828ZM649.632 442.784C650.52 442.784 651.312 442.982 652.008 443.378C652.704 443.774 653.244 444.326 653.628 445.034C654.024 445.73 654.222 446.528 654.222 447.428C654.222 448.352 654.012 449.174 653.592 449.894C653.184 450.602 652.602 451.154 651.846 451.55C651.102 451.946 650.25 452.144 649.29 452.144C647.67 452.144 646.416 451.592 645.528 450.488C644.652 449.372 644.214 447.806 644.214 445.79C644.214 443.834 644.616 442.304 645.42 441.2C646.224 440.084 647.454 439.346 649.11 438.986L653.466 438.014L653.718 439.598L649.704 440.462C648.456 440.738 647.526 441.206 646.914 441.866C646.302 442.526 645.954 443.474 645.87 444.71C646.278 444.098 646.806 443.624 647.454 443.288C648.102 442.952 648.828 442.784 649.632 442.784ZM649.326 450.704C649.938 450.704 650.478 450.566 650.946 450.29C651.426 450.014 651.798 449.636 652.062 449.156C652.326 448.664 652.458 448.106 652.458 447.482C652.458 446.534 652.17 445.772 651.594 445.196C651.018 444.62 650.262 444.332 649.326 444.332C648.39 444.332 647.628 444.62 647.04 445.196C646.464 445.772 646.176 446.534 646.176 447.482C646.176 448.106 646.308 448.664 646.572 449.156C646.848 449.636 647.226 450.014 647.706 450.29C648.186 450.566 648.726 450.704 649.326 450.704ZM660.776 452.108C659.828 452.108 658.976 451.898 658.22 451.478C657.464 451.058 656.87 450.482 656.438 449.75C656.018 449.006 655.808 448.166 655.808 447.23C655.808 446.294 656.018 445.46 656.438 444.728C656.87 443.984 657.464 443.408 658.22 443C658.976 442.58 659.828 442.37 660.776 442.37C661.724 442.37 662.57 442.58 663.314 443C664.07 443.408 664.658 443.984 665.078 444.728C665.51 445.46 665.726 446.294 665.726 447.23C665.726 448.166 665.51 449.006 665.078 449.75C664.658 450.482 664.07 451.058 663.314 451.478C662.57 451.898 661.724 452.108 660.776 452.108ZM660.776 450.596C661.388 450.596 661.934 450.458 662.414 450.182C662.906 449.894 663.29 449.498 663.566 448.994C663.842 448.478 663.98 447.89 663.98 447.23C663.98 446.57 663.842 445.988 663.566 445.484C663.29 444.968 662.906 444.572 662.414 444.296C661.934 444.02 661.388 443.882 660.776 443.882C660.164 443.882 659.612 444.02 659.12 444.296C658.64 444.572 658.256 444.968 657.968 445.484C657.692 445.988 657.554 446.57 657.554 447.23C657.554 447.89 657.692 448.478 657.968 448.994C658.256 449.498 658.64 449.894 659.12 450.182C659.612 450.458 660.164 450.596 660.776 450.596Z" fill="#4A4646"/>
<line x1="186" y1="45.75" x2="793" y2="45.75" stroke="#B8B8B8" stroke-width="0.5"/>
<line x1="186" y1="118.75" x2="793" y2="118.75" stroke="#B8B8B8" stroke-width="0.5"/>
<line x1="186" y1="191.75" x2="793" y2="191.75" stroke="#B8B8B8" stroke-width="0.5"/>
<line x1="186" y1="264.75" x2="793" y2="264.75" stroke="#B8B8B8" stroke-width="0.5"/>
<line x1="186" y1="410.75" x2="793" y2="410.75" stroke="#B8B8B8" stroke-width="0.5"/>
<line x1="186" y1="337.75" x2="793" y2="337.75" stroke="#B8B8B8" stroke-width="0.5"/>
<path d="M624.5 267V59H356V93" stroke="#4A4646"/>
<path d="M322 124C322 106.327 336.327 92 354 92H358C375.673 92 390 106.327 390 124L390 411H322L322 124Z" fill="url(#paint0_linear)"/>
<path d="M590 297C590 279.327 604.327 265 622 265H627C644.673 265 659 279.327 659 297V411H590V297Z" fill="#5A5858"/>
<path d="M461.943 7.46C462.831 7.46 463.635 7.664 464.355 8.072C465.075 8.468 465.639 9.032 466.047 9.764C466.455 10.496 466.659 11.33 466.659 12.266C466.659 13.214 466.455 14.054 466.047 14.786C465.639 15.518 465.075 16.088 464.355 16.496C463.647 16.892 462.843 17.09 461.943 17.09C461.175 17.09 460.479 16.934 459.855 16.622C459.243 16.298 458.739 15.83 458.343 15.218V20.492H457.065V7.532H458.289V9.404C458.673 8.78 459.177 8.3 459.801 7.964C460.437 7.628 461.151 7.46 461.943 7.46ZM461.853 15.956C462.513 15.956 463.113 15.806 463.653 15.506C464.193 15.194 464.613 14.756 464.913 14.192C465.225 13.628 465.381 12.986 465.381 12.266C465.381 11.546 465.225 10.91 464.913 10.358C464.613 9.794 464.193 9.356 463.653 9.044C463.113 8.732 462.513 8.576 461.853 8.576C461.181 8.576 460.575 8.732 460.035 9.044C459.507 9.356 459.087 9.794 458.775 10.358C458.475 10.91 458.325 11.546 458.325 12.266C458.325 12.986 458.475 13.628 458.775 14.192C459.087 14.756 459.507 15.194 460.035 15.506C460.575 15.806 461.181 15.956 461.853 15.956ZM481.283 8.09L474.659 10.7L481.283 13.31V14.426L473.453 11.294V10.106L481.283 6.956V8.09ZM493.216 17.108C492.244 17.108 491.374 16.85 490.606 16.334C489.85 15.818 489.256 15.08 488.824 14.12C488.404 13.148 488.194 12.008 488.194 10.7C488.194 9.392 488.404 8.258 488.824 7.298C489.256 6.326 489.85 5.582 490.606 5.066C491.374 4.55 492.244 4.292 493.216 4.292C494.188 4.292 495.052 4.55 495.808 5.066C496.576 5.582 497.176 6.326 497.608 7.298C498.04 8.258 498.256 9.392 498.256 10.7C498.256 12.008 498.04 13.148 497.608 14.12C497.176 15.08 496.576 15.818 495.808 16.334C495.052 16.85 494.188 17.108 493.216 17.108ZM493.216 15.92C493.948 15.92 494.59 15.716 495.142 15.308C495.706 14.9 496.144 14.306 496.456 13.526C496.768 12.746 496.924 11.804 496.924 10.7C496.924 9.596 496.768 8.654 496.456 7.874C496.144 7.094 495.706 6.5 495.142 6.092C494.59 5.684 493.948 5.48 493.216 5.48C492.484 5.48 491.836 5.684 491.272 6.092C490.72 6.5 490.288 7.094 489.976 7.874C489.664 8.654 489.508 9.596 489.508 10.7C489.508 11.804 489.664 12.746 489.976 13.526C490.288 14.306 490.72 14.9 491.272 15.308C491.836 15.716 492.484 15.92 493.216 15.92ZM500.908 15.128C501.184 15.128 501.412 15.224 501.592 15.416C501.772 15.596 501.862 15.824 501.862 16.1C501.862 16.244 501.838 16.4 501.79 16.568C501.754 16.736 501.694 16.928 501.61 17.144L500.854 19.628H499.99L500.602 17.018C500.41 16.958 500.254 16.85 500.134 16.694C500.014 16.526 499.954 16.328 499.954 16.1C499.954 15.824 500.044 15.596 500.224 15.416C500.404 15.224 500.632 15.128 500.908 15.128ZM508.562 17.108C507.59 17.108 506.72 16.85 505.952 16.334C505.196 15.818 504.602 15.08 504.17 14.12C503.75 13.148 503.54 12.008 503.54 10.7C503.54 9.392 503.75 8.258 504.17 7.298C504.602 6.326 505.196 5.582 505.952 5.066C506.72 4.55 507.59 4.292 508.562 4.292C509.534 4.292 510.398 4.55 511.154 5.066C511.922 5.582 512.522 6.326 512.954 7.298C513.386 8.258 513.602 9.392 513.602 10.7C513.602 12.008 513.386 13.148 512.954 14.12C512.522 15.08 511.922 15.818 511.154 16.334C510.398 16.85 509.534 17.108 508.562 17.108ZM508.562 15.92C509.294 15.92 509.936 15.716 510.488 15.308C511.052 14.9 511.49 14.306 511.802 13.526C512.114 12.746 512.27 11.804 512.27 10.7C512.27 9.596 512.114 8.654 511.802 7.874C511.49 7.094 511.052 6.5 510.488 6.092C509.936 5.684 509.294 5.48 508.562 5.48C507.83 5.48 507.182 5.684 506.618 6.092C506.066 6.5 505.634 7.094 505.322 7.874C505.01 8.654 504.854 9.596 504.854 10.7C504.854 11.804 505.01 12.746 505.322 13.526C505.634 14.306 506.066 14.9 506.618 15.308C507.182 15.716 507.83 15.92 508.562 15.92ZM518.769 9.566C520.593 9.566 521.919 9.896 522.747 10.556C523.587 11.204 524.007 12.116 524.007 13.292C524.007 14.024 523.833 14.678 523.485 15.254C523.149 15.83 522.639 16.286 521.955 16.622C521.271 16.946 520.431 17.108 519.435 17.108C518.535 17.108 517.677 16.964 516.861 16.676C516.057 16.376 515.409 15.98 514.917 15.488L515.547 14.462C515.967 14.894 516.519 15.248 517.203 15.524C517.887 15.788 518.625 15.92 519.417 15.92C520.461 15.92 521.265 15.686 521.829 15.218C522.405 14.75 522.693 14.126 522.693 13.346C522.693 12.482 522.369 11.828 521.721 11.384C521.085 10.94 520.005 10.718 518.481 10.718H515.799L516.447 4.4H523.341V5.552H517.581L517.149 9.566H518.769Z" fill="#4A4646"/>
<defs>
<linearGradient id="paint0_linear" x1="322" y1="92" x2="395.702" y2="93.3229" gradientUnits="userSpaceOnUse">
<stop stop-color="#F17922"/>
<stop offset="1" stop-color="#F7A318"/>
</linearGradient>
</defs>
</svg>
