<svg width="1084" height="457" viewBox="0 0 1084 457" fill="none" xmlns="http://www.w3.org/2000/svg">
<g filter="url(#filter0_d)">
<rect x="11.5" y="9" width="1061" height="434" rx="3.44481" fill="white"/>
</g>
<path d="M59.66 371.582C59.66 372.982 59.3533 374.249 58.74 375.382C58.1133 376.502 57.26 377.382 56.18 378.022C55.0867 378.662 53.86 378.982 52.5 378.982C51.14 378.982 49.92 378.662 48.84 378.022C47.7467 377.382 46.8933 376.496 46.28 375.362C45.6533 374.229 45.34 372.962 45.34 371.562C45.34 370.469 45.5267 369.469 45.9 368.562C46.26 367.656 46.8 366.882 47.52 366.242L48.78 367.542C47.6733 368.596 47.12 369.909 47.12 371.482C47.12 372.522 47.3533 373.462 47.82 374.302C48.2867 375.142 48.9333 375.802 49.76 376.282C50.5733 376.749 51.4867 376.982 52.5 376.982C53.5133 376.982 54.4333 376.749 55.26 376.282C56.0733 375.802 56.7133 375.142 57.18 374.302C57.6467 373.462 57.88 372.522 57.88 371.482C57.88 369.922 57.32 368.609 56.2 367.542L57.46 366.242C58.18 366.882 58.7267 367.662 59.1 368.582C59.4733 369.489 59.66 370.489 59.66 371.582ZM48.8 358.187C48.8 357.16 49.0267 356.24 49.48 355.427C49.9333 354.614 50.5667 353.98 51.38 353.527C52.1933 353.06 53.1333 352.827 54.2 352.827C55.2667 352.827 56.2133 353.06 57.04 353.527C57.8533 353.98 58.4867 354.614 58.94 355.427C59.3933 356.24 59.62 357.16 59.62 358.187C59.62 358.947 59.4733 359.647 59.18 360.287C58.8867 360.914 58.46 361.447 57.9 361.887L63.38 361.887L63.38 363.807L48.9 363.807L48.9 361.967L50.58 361.967C49.9933 361.54 49.5533 361 49.26 360.347C48.9533 359.694 48.8 358.974 48.8 358.187ZM57.94 358.347C57.94 357.667 57.7867 357.06 57.48 356.527C57.16 355.98 56.72 355.554 56.16 355.247C55.5867 354.927 54.9333 354.767 54.2 354.767C53.4667 354.767 52.82 354.927 52.26 355.247C51.6867 355.554 51.2467 355.98 50.94 356.527C50.6333 357.06 50.48 357.667 50.48 358.347C50.48 359.014 50.64 359.62 50.96 360.167C51.2667 360.7 51.7 361.127 52.26 361.447C52.82 361.754 53.4667 361.907 54.2 361.907C54.9333 361.907 55.5867 361.754 56.16 361.447C56.72 361.14 57.16 360.714 57.48 360.167C57.7867 359.62 57.94 359.014 57.94 358.347ZM54.26 340.457C54.4067 340.457 54.6 340.471 54.84 340.497L54.84 349.097C55.7733 348.977 56.5267 348.571 57.1 347.877C57.66 347.171 57.94 346.297 57.94 345.257C57.94 343.991 57.5133 342.971 56.66 342.197L57.9 341.137C58.46 341.617 58.8867 342.217 59.18 342.937C59.4733 343.644 59.62 344.437 59.62 345.317C59.62 346.437 59.3933 347.431 58.94 348.297C58.4733 349.164 57.8267 349.837 57 350.317C56.1733 350.784 55.24 351.017 54.2 351.017C53.1733 351.017 52.2467 350.791 51.42 350.337C50.5933 349.871 49.9533 349.237 49.5 348.437C49.0333 347.624 48.8 346.711 48.8 345.697C48.8 344.684 49.0333 343.784 49.5 342.997C49.9533 342.197 50.5933 341.577 51.42 341.137C52.2467 340.684 53.1933 340.457 54.26 340.457ZM50.42 345.697C50.42 346.617 50.7 347.391 51.26 348.017C51.82 348.631 52.5533 348.991 53.46 349.097L53.46 342.297C52.5667 342.404 51.84 342.771 51.28 343.397C50.7067 344.011 50.42 344.777 50.42 345.697ZM57.82 326.875L61.96 326.875L61.96 328.675L59.5 328.675L59.5 337.535L61.96 337.535L61.96 339.355L57.82 339.355L57.82 338.795C57.78 338.115 57.3 337.648 56.38 337.395C55.46 337.141 54.16 336.968 52.48 336.875L48.9 336.715L48.9 328.495L57.82 328.495L57.82 326.875ZM52.62 335.115C53.9533 335.168 55.06 335.281 55.94 335.455C56.8067 335.615 57.4333 335.915 57.82 336.355L57.82 330.415L50.58 330.415L50.58 335.015L52.62 335.115ZM48.9 324.373L48.9 322.453L53.4 322.453L53.4 316.413L48.9 316.413L48.9 314.493L59.5 314.493L59.5 316.413L55.06 316.413L55.06 322.453L59.5 322.453L59.5 324.373L48.9 324.373ZM54.26 301.18C54.4067 301.18 54.6 301.193 54.84 301.22L54.84 309.82C55.7733 309.7 56.5267 309.293 57.1 308.6C57.66 307.893 57.94 307.02 57.94 305.98C57.94 304.713 57.5133 303.693 56.66 302.92L57.9 301.86C58.46 302.34 58.8867 302.94 59.18 303.66C59.4733 304.367 59.62 305.16 59.62 306.04C59.62 307.16 59.3933 308.153 58.94 309.02C58.4733 309.887 57.8267 310.56 57 311.04C56.1733 311.507 55.24 311.74 54.2 311.74C53.1733 311.74 52.2467 311.513 51.42 311.06C50.5933 310.593 49.9533 309.96 49.5 309.16C49.0333 308.347 48.8 307.433 48.8 306.42C48.8 305.407 49.0333 304.507 49.5 303.72C49.9533 302.92 50.5933 302.3 51.42 301.86C52.2467 301.407 53.1933 301.18 54.26 301.18ZM50.42 306.42C50.42 307.34 50.7 308.113 51.26 308.74C51.82 309.353 52.5533 309.713 53.46 309.82L53.46 303.02C52.5667 303.127 51.84 303.493 51.28 304.12C50.7067 304.733 50.42 305.5 50.42 306.42ZM54.26 288.622C54.4067 288.622 54.6 288.635 54.84 288.662L54.84 297.262C55.7733 297.142 56.5267 296.735 57.1 296.042C57.66 295.335 57.94 294.462 57.94 293.422C57.94 292.155 57.5133 291.135 56.66 290.362L57.9 289.302C58.46 289.782 58.8867 290.382 59.18 291.102C59.4733 291.808 59.62 292.602 59.62 293.482C59.62 294.602 59.3933 295.595 58.94 296.462C58.4733 297.328 57.8267 298.002 57 298.482C56.1733 298.948 55.24 299.182 54.2 299.182C53.1733 299.182 52.2467 298.955 51.42 298.502C50.5933 298.035 49.9533 297.402 49.5 296.602C49.0333 295.788 48.8 294.875 48.8 293.862C48.8 292.848 49.0333 291.948 49.5 291.162C49.9533 290.362 50.5933 289.742 51.42 289.302C52.2467 288.848 53.1933 288.622 54.26 288.622ZM50.42 293.862C50.42 294.782 50.7 295.555 51.26 296.182C51.82 296.795 52.5533 297.155 53.46 297.262L53.46 290.462C52.5667 290.568 51.84 290.935 51.28 291.562C50.7067 292.175 50.42 292.942 50.42 293.862ZM48.9 271.812L59.5 271.812L59.5 273.732L55.22 273.732C55.7533 274.879 56.02 276.019 56.02 277.152C56.02 278.472 55.7133 279.492 55.1 280.212C54.4867 280.932 53.5667 281.292 52.34 281.292L48.9 281.292L48.9 279.372L52.22 279.372C52.9533 279.372 53.5067 279.145 53.88 278.692C54.2533 278.225 54.44 277.579 54.44 276.752C54.44 275.819 54.2067 274.812 53.74 273.732L48.9 273.732L48.9 271.812ZM48.9 268.084L48.9 266.164L56.62 266.164L48.9 259.664L48.9 257.924L59.5 257.924L59.5 259.844L51.78 259.844L59.5 266.324L59.5 268.084L48.9 268.084ZM59.62 249.578C59.62 250.658 59.3867 251.624 58.92 252.478C58.4533 253.318 57.8133 253.978 57 254.458C56.1733 254.938 55.24 255.178 54.2 255.178C53.16 255.178 52.2333 254.938 51.42 254.458C50.5933 253.978 49.9533 253.318 49.5 252.478C49.0333 251.624 48.8 250.658 48.8 249.578C48.8 248.618 48.9933 247.764 49.38 247.018C49.7667 246.258 50.3267 245.671 51.06 245.258L52 246.718C51.4933 247.051 51.1133 247.464 50.86 247.958C50.6067 248.451 50.48 248.998 50.48 249.598C50.48 250.291 50.6333 250.918 50.94 251.478C51.2467 252.024 51.6867 252.458 52.26 252.778C52.82 253.084 53.4667 253.238 54.2 253.238C54.9467 253.238 55.6067 253.084 56.18 252.778C56.74 252.458 57.1733 252.024 57.48 251.478C57.7867 250.918 57.94 250.291 57.94 249.598C57.94 248.998 57.8133 248.451 57.56 247.958C57.3067 247.464 56.9267 247.051 56.42 246.718L57.34 245.258C58.0733 245.671 58.64 246.258 59.04 247.018C59.4267 247.764 59.62 248.618 59.62 249.578ZM48.9 233.984L59.5 233.984L59.5 235.904L50.58 235.904L50.58 240.464L52.94 240.584C54.3667 240.651 55.56 240.778 56.52 240.964C57.4667 241.151 58.2267 241.458 58.8 241.884C59.3733 242.311 59.66 242.904 59.66 243.664C59.66 244.011 59.6 244.404 59.48 244.844L57.86 244.724C57.9 244.551 57.92 244.391 57.92 244.244C57.92 243.711 57.6867 243.311 57.22 243.044C56.7533 242.778 56.2 242.604 55.56 242.524C54.92 242.444 54.0067 242.371 52.82 242.304L48.9 242.124L48.9 233.984ZM59.62 225.732C59.62 226.785 59.3867 227.732 58.92 228.572C58.4533 229.412 57.8133 230.072 57 230.552C56.1733 231.019 55.24 231.252 54.2 231.252C53.16 231.252 52.2333 231.019 51.42 230.552C50.5933 230.072 49.9533 229.412 49.5 228.572C49.0333 227.732 48.8 226.785 48.8 225.732C48.8 224.679 49.0333 223.739 49.5 222.912C49.9533 222.072 50.5933 221.419 51.42 220.952C52.2333 220.472 53.16 220.232 54.2 220.232C55.24 220.232 56.1733 220.472 57 220.952C57.8133 221.419 58.4533 222.072 58.92 222.912C59.3867 223.739 59.62 224.679 59.62 225.732ZM57.94 225.732C57.94 225.052 57.7867 224.445 57.48 223.912C57.16 223.365 56.72 222.939 56.16 222.632C55.5867 222.325 54.9333 222.172 54.2 222.172C53.4667 222.172 52.82 222.325 52.26 222.632C51.6867 222.939 51.2467 223.365 50.94 223.912C50.6333 224.445 50.48 225.052 50.48 225.732C50.48 226.412 50.6333 227.025 50.94 227.572C51.2467 228.105 51.6867 228.532 52.26 228.852C52.82 229.159 53.4667 229.312 54.2 229.312C54.9333 229.312 55.5867 229.159 56.16 228.852C56.72 228.532 57.16 228.105 57.48 227.572C57.7867 227.025 57.94 226.412 57.94 225.732ZM57.82 201.308L61.96 201.308L61.96 203.108L59.5 203.108L59.5 211.968L61.96 211.968L61.96 213.788L57.82 213.788L57.82 213.228C57.78 212.548 57.3 212.082 56.38 211.828C55.46 211.575 54.16 211.402 52.48 211.308L48.9 211.148L48.9 202.928L57.82 202.928L57.82 201.308ZM52.62 209.548C53.9533 209.602 55.06 209.715 55.94 209.888C56.8067 210.048 57.4333 210.348 57.82 210.788L57.82 204.848L50.58 204.848L50.58 209.448L52.62 209.548ZM48.9 198.807L48.9 196.887L53.4 196.887L53.4 190.847L48.9 190.847L48.9 188.927L59.5 188.927L59.5 190.847L55.06 190.847L55.06 196.887L59.5 196.887L59.5 198.807L48.9 198.807ZM54.26 175.614C54.4067 175.614 54.6 175.627 54.84 175.654L54.84 184.254C55.7733 184.134 56.5267 183.727 57.1 183.034C57.66 182.327 57.94 181.454 57.94 180.414C57.94 179.147 57.5133 178.127 56.66 177.354L57.9 176.294C58.46 176.774 58.8867 177.374 59.18 178.094C59.4733 178.8 59.62 179.594 59.62 180.474C59.62 181.594 59.3933 182.587 58.94 183.454C58.4733 184.32 57.8267 184.994 57 185.474C56.1733 185.94 55.24 186.174 54.2 186.174C53.1733 186.174 52.2467 185.947 51.42 185.494C50.5933 185.027 49.9533 184.394 49.5 183.594C49.0333 182.78 48.8 181.867 48.8 180.854C48.8 179.84 49.0333 178.94 49.5 178.154C49.9533 177.354 50.5933 176.734 51.42 176.294C52.2467 175.84 53.1933 175.614 54.26 175.614ZM50.42 180.854C50.42 181.774 50.7 182.547 51.26 183.174C51.82 183.787 52.5533 184.147 53.46 184.254L53.46 177.454C52.5667 177.56 51.84 177.927 51.28 178.554C50.7067 179.167 50.42 179.934 50.42 180.854ZM48.9 172.635L48.9 170.715L56.62 170.715L48.9 164.215L48.9 162.475L59.5 162.475L59.5 164.395L51.78 164.395L59.5 170.875L59.5 172.635L48.9 172.635ZM47.52 167.675C47.52 168.662 47.2867 169.428 46.82 169.975C46.34 170.522 45.6533 170.802 44.76 170.815L44.76 169.515C45.2533 169.502 45.6533 169.335 45.96 169.015C46.2533 168.682 46.4 168.242 46.4 167.695C46.4 167.148 46.2533 166.708 45.96 166.375C45.6533 166.042 45.2533 165.868 44.76 165.855L44.76 164.515C45.6533 164.528 46.34 164.815 46.82 165.375C47.2867 165.935 47.52 166.702 47.52 167.675ZM59.62 148.757C59.62 149.837 59.3867 150.804 58.92 151.657C58.4533 152.497 57.8133 153.157 57 153.637C56.1733 154.117 55.24 154.357 54.2 154.357C53.16 154.357 52.2333 154.117 51.42 153.637C50.5933 153.157 49.9533 152.497 49.5 151.657C49.0333 150.804 48.8 149.837 48.8 148.757C48.8 147.797 48.9933 146.944 49.38 146.197C49.7667 145.437 50.3267 144.851 51.06 144.437L52 145.897C51.4933 146.231 51.1133 146.644 50.86 147.137C50.6067 147.631 50.48 148.177 50.48 148.777C50.48 149.471 50.6333 150.097 50.94 150.657C51.2467 151.204 51.6867 151.637 52.26 151.957C52.82 152.264 53.4667 152.417 54.2 152.417C54.9467 152.417 55.6067 152.264 56.18 151.957C56.74 151.637 57.1733 151.204 57.48 150.657C57.7867 150.097 57.94 149.471 57.94 148.777C57.94 148.177 57.8133 147.631 57.56 147.137C57.3067 146.644 56.9267 146.231 56.42 145.897L57.34 144.437C58.0733 144.851 58.64 145.437 59.04 146.197C59.4267 146.944 59.62 147.797 59.62 148.757ZM57.82 125.8L61.96 125.8L61.96 127.6L59.5 127.6L59.5 136.46L61.96 136.46L61.96 138.28L57.82 138.28L57.82 137.72C57.78 137.04 57.3 136.574 56.38 136.32C55.46 136.067 54.16 135.894 52.48 135.8L48.9 135.64L48.9 127.42L57.82 127.42L57.82 125.8ZM52.62 134.04C53.9533 134.094 55.06 134.207 55.94 134.38C56.8067 134.54 57.4333 134.84 57.82 135.28L57.82 129.34L50.58 129.34L50.58 133.94L52.62 134.04ZM48.9 123.299L48.9 121.379L56.62 121.379L48.9 114.879L48.9 113.139L59.5 113.139L59.5 115.059L51.78 115.059L59.5 121.539L59.5 123.299L48.9 123.299ZM48.8 105.632C48.8 104.166 49.16 103.046 49.88 102.272C50.6 101.486 51.6733 101.092 53.1 101.092L59.5 101.092L59.5 102.912L58.1 102.912C58.5933 103.232 58.9733 103.692 59.24 104.292C59.4933 104.879 59.62 105.579 59.62 106.392C59.62 107.579 59.3333 108.532 58.76 109.252C58.1867 109.959 57.4333 110.312 56.5 110.312C55.5667 110.312 54.82 109.972 54.26 109.292C53.6867 108.612 53.4 107.532 53.4 106.052L53.4 103.012L53.02 103.012C52.1933 103.012 51.56 103.252 51.12 103.732C50.68 104.212 50.46 104.919 50.46 105.852C50.46 106.479 50.5667 107.092 50.78 107.692C50.98 108.292 51.2533 108.799 51.6 109.212L50.16 110.012C49.72 109.466 49.3867 108.812 49.16 108.052C48.92 107.292 48.8 106.486 48.8 105.632ZM58.14 106.072C58.14 105.339 57.98 104.706 57.66 104.172C57.3267 103.639 56.86 103.252 56.26 103.012L54.78 103.012L54.78 105.972C54.78 107.599 55.3267 108.412 56.42 108.412C56.9533 108.412 57.3733 108.206 57.68 107.792C57.9867 107.379 58.14 106.806 58.14 106.072ZM48.8 92.0151C48.8 90.9884 49.0267 90.0684 49.48 89.2551C49.9333 88.4418 50.5667 87.8084 51.38 87.3551C52.1933 86.8884 53.1333 86.6551 54.2 86.6551C55.2667 86.6551 56.2133 86.8884 57.04 87.3551C57.8533 87.8084 58.4867 88.4418 58.94 89.2551C59.3933 90.0684 59.62 90.9884 59.62 92.0151C59.62 92.7751 59.4733 93.4751 59.18 94.1151C58.8867 94.7418 58.46 95.2751 57.9 95.7151L63.38 95.7151L63.38 97.6351L48.9 97.6351L48.9 95.7951L50.58 95.7951C49.9933 95.3684 49.5533 94.8285 49.26 94.1751C48.9533 93.5218 48.8 92.8018 48.8 92.0151ZM57.94 92.1751C57.94 91.4951 57.7867 90.8884 57.48 90.3551C57.16 89.8084 56.72 89.3818 56.16 89.0751C55.5867 88.7551 54.9333 88.5951 54.2 88.5951C53.4667 88.5951 52.82 88.7551 52.26 89.0751C51.6867 89.3818 51.2467 89.8084 50.94 90.3551C50.6333 90.8884 50.48 91.4951 50.48 92.1751C50.48 92.8418 50.64 93.4484 50.96 93.9951C51.2667 94.5284 51.7 94.9551 52.26 95.2751C52.82 95.5818 53.4667 95.7351 54.2 95.7351C54.9333 95.7351 55.5867 95.5818 56.16 95.2751C56.72 94.9684 57.16 94.5418 57.48 93.9951C57.7867 93.4484 57.94 92.8418 57.94 92.1751ZM54.26 74.2856C54.4067 74.2856 54.6 74.2989 54.84 74.3256L54.84 82.9256C55.7733 82.8056 56.5267 82.3989 57.1 81.7056C57.66 80.9989 57.94 80.1256 57.94 79.0856C57.94 77.8189 57.5133 76.7989 56.66 76.0256L57.9 74.9656C58.46 75.4456 58.8867 76.0456 59.18 76.7656C59.4733 77.4723 59.62 78.2656 59.62 79.1456C59.62 80.2656 59.3933 81.2589 58.94 82.1256C58.4733 82.9923 57.8267 83.6656 57 84.1456C56.1733 84.6123 55.24 84.8456 54.2 84.8456C53.1733 84.8456 52.2467 84.6189 51.42 84.1656C50.5933 83.6989 49.9533 83.0656 49.5 82.2656C49.0333 81.4523 48.8 80.5389 48.8 79.5256C48.8 78.5123 49.0333 77.6123 49.5 76.8256C49.9533 76.0256 50.5933 75.4056 51.42 74.9656C52.2467 74.5123 53.1933 74.2856 54.26 74.2856ZM50.42 79.5256C50.42 80.4456 50.7 81.2189 51.26 81.8456C51.82 82.4589 52.5533 82.8189 53.46 82.9256L53.46 76.1256C52.5667 76.2323 51.84 76.5989 51.28 77.2256C50.7067 77.8389 50.42 78.6056 50.42 79.5256ZM54.26 61.727C54.4067 61.727 54.6 61.7403 54.84 61.767L54.84 70.367C55.7733 70.247 56.5267 69.8403 57.1 69.147C57.66 68.4403 57.94 67.567 57.94 66.527C57.94 65.2603 57.5133 64.2403 56.66 63.467L57.9 62.407C58.46 62.887 58.8867 63.487 59.18 64.207C59.4733 64.9137 59.62 65.707 59.62 66.587C59.62 67.707 59.3933 68.7003 58.94 69.567C58.4733 70.4337 57.8267 71.107 57 71.587C56.1733 72.0537 55.24 72.287 54.2 72.287C53.1733 72.287 52.2467 72.0603 51.42 71.607C50.5933 71.1403 49.9533 70.507 49.5 69.707C49.0333 68.8937 48.8 67.9803 48.8 66.967C48.8 65.9537 49.0333 65.0537 49.5 64.267C49.9533 63.467 50.5933 62.847 51.42 62.407C52.2467 61.9537 53.1933 61.727 54.26 61.727ZM50.42 66.967C50.42 67.887 50.7 68.6603 51.26 69.287C51.82 69.9003 52.5533 70.2603 53.46 70.367L53.46 63.567C52.5667 63.6737 51.84 64.0403 51.28 64.667C50.7067 65.2803 50.42 66.047 50.42 66.967ZM48.9 58.7484L48.9 56.8284L56.62 56.8284L48.9 50.3284L48.9 48.5884L59.5 48.5884L59.5 50.5084L51.78 50.5084L59.5 56.9884L59.5 58.7484L48.9 58.7484ZM47.52 53.7884C47.52 54.7751 47.2867 55.5417 46.82 56.0884C46.34 56.6351 45.6533 56.9151 44.76 56.9284L44.76 55.6284C45.2533 55.6151 45.6533 55.4484 45.96 55.1284C46.2533 54.7951 46.4 54.3551 46.4 53.8084C46.4 53.2617 46.2533 52.8217 45.96 52.4884C45.6533 52.1551 45.2533 51.9817 44.76 51.9684L44.76 50.6284C45.6533 50.6417 46.34 50.9284 46.82 51.4884C47.2867 52.0484 47.52 52.8151 47.52 53.7884Z" fill="#4A4646"/>
<path d="M35.26 422.392C35.6667 422.506 35.9867 422.712 36.22 423.012C36.4533 423.306 36.57 423.679 36.57 424.132C36.57 424.739 36.34 425.206 35.88 425.532C35.4267 425.859 34.7633 426.022 33.89 426.022H30.55V419.022H33.69C34.49 419.022 35.1067 419.182 35.54 419.502C35.98 419.822 36.2 420.266 36.2 420.832C36.2 421.199 36.1133 421.516 35.94 421.782C35.7733 422.049 35.5467 422.252 35.26 422.392ZM31.55 419.832V422.072H33.6C34.1133 422.072 34.5067 421.979 34.78 421.792C35.06 421.599 35.2 421.319 35.2 420.952C35.2 420.586 35.06 420.309 34.78 420.122C34.5067 419.929 34.1133 419.832 33.6 419.832H31.55ZM33.85 425.212C34.4167 425.212 34.8433 425.119 35.13 424.932C35.4167 424.746 35.56 424.452 35.56 424.052C35.56 423.272 34.99 422.882 33.85 422.882H31.55V425.212H33.85ZM40.8084 420.672C41.4817 420.672 42.015 420.869 42.4084 421.262C42.8084 421.649 43.0084 422.219 43.0084 422.972V426.022H42.0484V423.082C42.0484 422.569 41.925 422.182 41.6784 421.922C41.4317 421.662 41.0784 421.532 40.6184 421.532C40.0984 421.532 39.6884 421.686 39.3884 421.992C39.0884 422.292 38.9384 422.726 38.9384 423.292V426.022H37.9784V418.602H38.9384V421.472C39.1384 421.219 39.3984 421.022 39.7184 420.882C40.045 420.742 40.4084 420.672 40.8084 420.672ZM46.715 420.672C47.4483 420.672 48.0083 420.852 48.395 421.212C48.7883 421.572 48.985 422.109 48.985 422.822V426.022H48.075V425.322C47.915 425.569 47.685 425.759 47.385 425.892C47.0917 426.019 46.7417 426.082 46.335 426.082C45.7417 426.082 45.265 425.939 44.905 425.652C44.5517 425.366 44.375 424.989 44.375 424.522C44.375 424.056 44.545 423.682 44.885 423.402C45.225 423.116 45.765 422.972 46.505 422.972H48.025V422.782C48.025 422.369 47.905 422.052 47.665 421.832C47.425 421.612 47.0717 421.502 46.605 421.502C46.2917 421.502 45.985 421.556 45.685 421.662C45.385 421.762 45.1317 421.899 44.925 422.072L44.525 421.352C44.7983 421.132 45.125 420.966 45.505 420.852C45.885 420.732 46.2883 420.672 46.715 420.672ZM46.495 425.342C46.8617 425.342 47.1783 425.262 47.445 425.102C47.7117 424.936 47.905 424.702 48.025 424.402V423.662H46.545C45.7317 423.662 45.325 423.936 45.325 424.482C45.325 424.749 45.4283 424.959 45.635 425.112C45.8417 425.266 46.1283 425.342 46.495 425.342ZM50.7616 418.602H51.7216V426.022H50.7616V418.602ZM53.5545 418.602H54.5145V426.022H53.5545V418.602ZM58.2775 420.672C59.0108 420.672 59.5708 420.852 59.9575 421.212C60.3508 421.572 60.5475 422.109 60.5475 422.822V426.022H59.6375V425.322C59.4775 425.569 59.2475 425.759 58.9475 425.892C58.6542 426.019 58.3042 426.082 57.8975 426.082C57.3042 426.082 56.8275 425.939 56.4675 425.652C56.1142 425.366 55.9375 424.989 55.9375 424.522C55.9375 424.056 56.1075 423.682 56.4475 423.402C56.7875 423.116 57.3275 422.972 58.0675 422.972H59.5875V422.782C59.5875 422.369 59.4675 422.052 59.2275 421.832C58.9875 421.612 58.6342 421.502 58.1675 421.502C57.8542 421.502 57.5475 421.556 57.2475 421.662C56.9475 421.762 56.6942 421.899 56.4875 422.072L56.0875 421.352C56.3608 421.132 56.6875 420.966 57.0675 420.852C57.4475 420.732 57.8508 420.672 58.2775 420.672ZM58.0575 425.342C58.4242 425.342 58.7408 425.262 59.0075 425.102C59.2742 424.936 59.4675 424.702 59.5875 424.402V423.662H58.1075C57.2942 423.662 56.8875 423.936 56.8875 424.482C56.8875 424.749 56.9908 424.959 57.1975 425.112C57.4042 425.266 57.6908 425.342 58.0575 425.342ZM69.6096 424.272H65.8896L65.1196 426.022H64.0896L67.2596 419.022H68.2496L71.4296 426.022H70.3796L69.6096 424.272ZM69.2596 423.472L67.7496 420.042L66.2396 423.472H69.2596ZM72.8959 426.082C72.7092 426.082 72.5492 426.019 72.4159 425.892C72.2825 425.759 72.2159 425.592 72.2159 425.392C72.2159 425.199 72.2825 425.039 72.4159 424.912C72.5492 424.779 72.7092 424.712 72.8959 424.712C73.0825 424.712 73.2392 424.776 73.3659 424.902C73.4925 425.029 73.5559 425.192 73.5559 425.392C73.5559 425.592 73.4892 425.759 73.3559 425.892C73.2292 426.019 73.0759 426.082 72.8959 426.082ZM82.407 423.402C82.407 423.476 82.4004 423.572 82.387 423.692H78.087C78.147 424.159 78.3504 424.536 78.697 424.822C79.0504 425.102 79.487 425.242 80.007 425.242C80.6404 425.242 81.1504 425.029 81.537 424.602L82.067 425.222C81.827 425.502 81.527 425.716 81.167 425.862C80.8137 426.009 80.417 426.082 79.977 426.082C79.417 426.082 78.9204 425.969 78.487 425.742C78.0537 425.509 77.717 425.186 77.477 424.772C77.2437 424.359 77.127 423.892 77.127 423.372C77.127 422.859 77.2404 422.396 77.467 421.982C77.7004 421.569 78.017 421.249 78.417 421.022C78.8237 420.789 79.2804 420.672 79.787 420.672C80.2937 420.672 80.7437 420.789 81.137 421.022C81.537 421.249 81.847 421.569 82.067 421.982C82.2937 422.396 82.407 422.869 82.407 423.402ZM79.787 421.482C79.327 421.482 78.9404 421.622 78.627 421.902C78.3204 422.182 78.1404 422.549 78.087 423.002H81.487C81.4337 422.556 81.2504 422.192 80.937 421.912C80.6304 421.626 80.247 421.482 79.787 421.482ZM86.7201 425.712C86.5801 425.832 86.4067 425.926 86.2001 425.992C85.9934 426.052 85.7801 426.082 85.5601 426.082C85.0267 426.082 84.6134 425.939 84.3201 425.652C84.0267 425.366 83.8801 424.956 83.8801 424.422V421.512H82.9801V420.722H83.8801V419.562H84.8401V420.722H86.3601V421.512H84.8401V424.382C84.8401 424.669 84.9101 424.889 85.0501 425.042C85.1967 425.196 85.4034 425.272 85.6701 425.272C85.9634 425.272 86.2134 425.189 86.4201 425.022L86.7201 425.712ZM92.4963 420.672C93.2296 420.672 93.7896 420.852 94.1763 421.212C94.5696 421.572 94.7663 422.109 94.7663 422.822V426.022H93.8563V425.322C93.6963 425.569 93.4663 425.759 93.1663 425.892C92.8729 426.019 92.5229 426.082 92.1163 426.082C91.5229 426.082 91.0463 425.939 90.6863 425.652C90.3329 425.366 90.1563 424.989 90.1563 424.522C90.1563 424.056 90.3263 423.682 90.6663 423.402C91.0063 423.116 91.5463 422.972 92.2863 422.972H93.8063V422.782C93.8063 422.369 93.6863 422.052 93.4463 421.832C93.2063 421.612 92.8529 421.502 92.3863 421.502C92.0729 421.502 91.7663 421.556 91.4663 421.662C91.1663 421.762 90.9129 421.899 90.7063 422.072L90.3063 421.352C90.5796 421.132 90.9063 420.966 91.2863 420.852C91.6663 420.732 92.0696 420.672 92.4963 420.672ZM92.2763 425.342C92.6429 425.342 92.9596 425.262 93.2263 425.102C93.4929 424.936 93.6863 424.702 93.8063 424.402V423.662H92.3263C91.5129 423.662 91.1063 423.936 91.1063 424.482C91.1063 424.749 91.2096 424.959 91.4163 425.112C91.6229 425.266 91.9096 425.342 92.2763 425.342ZM96.5428 418.602H97.5028V426.022H96.5428V418.602ZM99.5658 426.082C99.3791 426.082 99.2191 426.019 99.0858 425.892C98.9524 425.759 98.8858 425.592 98.8858 425.392C98.8858 425.199 98.9524 425.039 99.0858 424.912C99.2191 424.779 99.3791 424.712 99.5658 424.712C99.7524 424.712 99.9091 424.776 100.036 424.902C100.162 425.029 100.226 425.192 100.226 425.392C100.226 425.592 100.159 425.759 100.026 425.892C99.8991 426.019 99.7458 426.082 99.5658 426.082ZM101.841 424.712C102.028 424.712 102.181 424.779 102.301 424.912C102.428 425.039 102.491 425.199 102.491 425.392C102.491 425.492 102.478 425.589 102.451 425.682C102.431 425.776 102.388 425.919 102.321 426.112L101.851 427.502H101.221L101.591 426.012C101.465 425.966 101.361 425.889 101.281 425.782C101.208 425.669 101.171 425.539 101.171 425.392C101.171 425.192 101.235 425.029 101.361 424.902C101.488 424.776 101.648 424.712 101.841 424.712ZM107.593 426.102C107.173 426.102 106.783 426.016 106.423 425.842C106.063 425.662 105.773 425.412 105.553 425.092L106.133 424.412C106.519 424.966 107.006 425.242 107.593 425.242C107.986 425.242 108.283 425.122 108.483 424.882C108.689 424.642 108.793 424.289 108.793 423.822V419.892H106.263V419.022H109.783V423.772C109.783 424.546 109.596 425.129 109.223 425.522C108.856 425.909 108.313 426.102 107.593 426.102ZM117.635 426.102C116.935 426.102 116.302 425.949 115.735 425.642C115.175 425.329 114.735 424.902 114.415 424.362C114.095 423.816 113.935 423.202 113.935 422.522C113.935 421.842 114.095 421.232 114.415 420.692C114.735 420.146 115.178 419.719 115.745 419.412C116.312 419.099 116.945 418.942 117.645 418.942C118.192 418.942 118.692 419.036 119.145 419.222C119.598 419.402 119.985 419.672 120.305 420.032L119.655 420.662C119.128 420.109 118.472 419.832 117.685 419.832C117.165 419.832 116.695 419.949 116.275 420.182C115.855 420.416 115.525 420.739 115.285 421.152C115.052 421.559 114.935 422.016 114.935 422.522C114.935 423.029 115.052 423.489 115.285 423.902C115.525 424.309 115.855 424.629 116.275 424.862C116.695 425.096 117.165 425.212 117.685 425.212C118.465 425.212 119.122 424.932 119.655 424.372L120.305 425.002C119.985 425.362 119.595 425.636 119.135 425.822C118.682 426.009 118.182 426.102 117.635 426.102ZM121.592 418.602H122.552V426.022H121.592V418.602ZM124.385 420.722H125.345V426.022H124.385V420.722ZM124.865 419.702C124.678 419.702 124.521 419.642 124.395 419.522C124.275 419.402 124.215 419.256 124.215 419.082C124.215 418.909 124.275 418.762 124.395 418.642C124.521 418.516 124.678 418.452 124.865 418.452C125.051 418.452 125.205 418.512 125.325 418.632C125.451 418.746 125.515 418.889 125.515 419.062C125.515 419.242 125.451 419.396 125.325 419.522C125.205 419.642 125.051 419.702 124.865 419.702ZM130.008 420.672C130.681 420.672 131.214 420.869 131.608 421.262C132.008 421.649 132.208 422.219 132.208 422.972V426.022H131.248V423.082C131.248 422.569 131.124 422.182 130.878 421.922C130.631 421.662 130.278 421.532 129.818 421.532C129.298 421.532 128.888 421.686 128.588 421.992C128.288 422.292 128.138 422.726 128.138 423.292V426.022H127.178V420.722H128.098V421.522C128.291 421.249 128.551 421.039 128.878 420.892C129.211 420.746 129.588 420.672 130.008 420.672ZM139.54 419.022C140.446 419.022 141.16 419.239 141.68 419.672C142.2 420.106 142.46 420.702 142.46 421.462C142.46 422.222 142.2 422.819 141.68 423.252C141.16 423.686 140.446 423.902 139.54 423.902H137.81V426.022H136.81V419.022H139.54ZM139.51 423.032C140.143 423.032 140.626 422.899 140.96 422.632C141.293 422.359 141.46 421.969 141.46 421.462C141.46 420.956 141.293 420.569 140.96 420.302C140.626 420.029 140.143 419.892 139.51 419.892H137.81V423.032H139.51ZM146.717 420.672C147.39 420.672 147.923 420.869 148.317 421.262C148.717 421.649 148.917 422.219 148.917 422.972V426.022H147.957V423.082C147.957 422.569 147.833 422.182 147.587 421.922C147.34 421.662 146.987 421.532 146.527 421.532C146.007 421.532 145.597 421.686 145.297 421.992C144.997 422.292 144.847 422.726 144.847 423.292V426.022H143.887V418.602H144.847V421.472C145.047 421.219 145.307 421.022 145.627 420.882C145.953 420.742 146.317 420.672 146.717 420.672ZM152.623 420.672C153.357 420.672 153.917 420.852 154.303 421.212C154.697 421.572 154.893 422.109 154.893 422.822V426.022H153.983V425.322C153.823 425.569 153.593 425.759 153.293 425.892C153 426.019 152.65 426.082 152.243 426.082C151.65 426.082 151.173 425.939 150.813 425.652C150.46 425.366 150.283 424.989 150.283 424.522C150.283 424.056 150.453 423.682 150.793 423.402C151.133 423.116 151.673 422.972 152.413 422.972H153.933V422.782C153.933 422.369 153.813 422.052 153.573 421.832C153.333 421.612 152.98 421.502 152.513 421.502C152.2 421.502 151.893 421.556 151.593 421.662C151.293 421.762 151.04 421.899 150.833 422.072L150.433 421.352C150.707 421.132 151.033 420.966 151.413 420.852C151.793 420.732 152.197 420.672 152.623 420.672ZM152.403 425.342C152.77 425.342 153.087 425.262 153.353 425.102C153.62 424.936 153.813 424.702 153.933 424.402V423.662H152.453C151.64 423.662 151.233 423.936 151.233 424.482C151.233 424.749 151.337 424.959 151.543 425.112C151.75 425.266 152.037 425.342 152.403 425.342ZM157.59 421.612C157.756 421.306 158.003 421.072 158.33 420.912C158.656 420.752 159.053 420.672 159.52 420.672V421.602C159.466 421.596 159.393 421.592 159.3 421.592C158.78 421.592 158.37 421.749 158.07 422.062C157.776 422.369 157.63 422.809 157.63 423.382V426.022H156.67V420.722H157.59V421.612ZM167.333 420.672C168 420.672 168.526 420.866 168.913 421.252C169.306 421.639 169.503 422.212 169.503 422.972V426.022H168.543V423.082C168.543 422.569 168.423 422.182 168.183 421.922C167.95 421.662 167.613 421.532 167.173 421.532C166.686 421.532 166.3 421.686 166.013 421.992C165.726 422.292 165.583 422.726 165.583 423.292V426.022H164.623V423.082C164.623 422.569 164.503 422.182 164.263 421.922C164.03 421.662 163.693 421.532 163.253 421.532C162.766 421.532 162.38 421.686 162.093 421.992C161.806 422.292 161.663 422.726 161.663 423.292V426.022H160.703V420.722H161.623V421.512C161.816 421.239 162.07 421.032 162.383 420.892C162.696 420.746 163.053 420.672 163.453 420.672C163.866 420.672 164.233 420.756 164.553 420.922C164.873 421.089 165.12 421.332 165.293 421.652C165.493 421.346 165.77 421.106 166.123 420.932C166.483 420.759 166.886 420.672 167.333 420.672ZM173.199 420.672C173.933 420.672 174.493 420.852 174.879 421.212C175.273 421.572 175.469 422.109 175.469 422.822V426.022H174.559V425.322C174.399 425.569 174.169 425.759 173.869 425.892C173.576 426.019 173.226 426.082 172.819 426.082C172.226 426.082 171.749 425.939 171.389 425.652C171.036 425.366 170.859 424.989 170.859 424.522C170.859 424.056 171.029 423.682 171.369 423.402C171.709 423.116 172.249 422.972 172.989 422.972H174.509V422.782C174.509 422.369 174.389 422.052 174.149 421.832C173.909 421.612 173.556 421.502 173.089 421.502C172.776 421.502 172.469 421.556 172.169 421.662C171.869 421.762 171.616 421.899 171.409 422.072L171.009 421.352C171.283 421.132 171.609 420.966 171.989 420.852C172.369 420.732 172.773 420.672 173.199 420.672ZM172.979 425.342C173.346 425.342 173.663 425.262 173.929 425.102C174.196 424.936 174.389 424.702 174.509 424.402V423.662H173.029C172.216 423.662 171.809 423.936 171.809 424.482C171.809 424.749 171.913 424.959 172.119 425.112C172.326 425.266 172.613 425.342 172.979 425.342ZM179.585 426.082C179.045 426.082 178.562 425.966 178.135 425.732C177.715 425.499 177.385 425.179 177.145 424.772C176.905 424.359 176.785 423.892 176.785 423.372C176.785 422.852 176.905 422.389 177.145 421.982C177.385 421.569 177.715 421.249 178.135 421.022C178.562 420.789 179.045 420.672 179.585 420.672C180.065 420.672 180.492 420.769 180.865 420.962C181.245 421.156 181.539 421.436 181.745 421.802L181.015 422.272C180.849 422.019 180.642 421.829 180.395 421.702C180.149 421.576 179.875 421.512 179.575 421.512C179.229 421.512 178.915 421.589 178.635 421.742C178.362 421.896 178.145 422.116 177.985 422.402C177.832 422.682 177.755 423.006 177.755 423.372C177.755 423.746 177.832 424.076 177.985 424.362C178.145 424.642 178.362 424.859 178.635 425.012C178.915 425.166 179.229 425.242 179.575 425.242C179.875 425.242 180.149 425.179 180.395 425.052C180.642 424.926 180.849 424.736 181.015 424.482L181.745 424.942C181.539 425.309 181.245 425.592 180.865 425.792C180.492 425.986 180.065 426.082 179.585 426.082ZM185.18 426.082C184.653 426.082 184.18 425.966 183.76 425.732C183.34 425.499 183.01 425.179 182.77 424.772C182.537 424.359 182.42 423.892 182.42 423.372C182.42 422.852 182.537 422.389 182.77 421.982C183.01 421.569 183.34 421.249 183.76 421.022C184.18 420.789 184.653 420.672 185.18 420.672C185.707 420.672 186.177 420.789 186.59 421.022C187.01 421.249 187.337 421.569 187.57 421.982C187.81 422.389 187.93 422.852 187.93 423.372C187.93 423.892 187.81 424.359 187.57 424.772C187.337 425.179 187.01 425.499 186.59 425.732C186.177 425.966 185.707 426.082 185.18 426.082ZM185.18 425.242C185.52 425.242 185.823 425.166 186.09 425.012C186.363 424.852 186.577 424.632 186.73 424.352C186.883 424.066 186.96 423.739 186.96 423.372C186.96 423.006 186.883 422.682 186.73 422.402C186.577 422.116 186.363 421.896 186.09 421.742C185.823 421.589 185.52 421.512 185.18 421.512C184.84 421.512 184.533 421.589 184.26 421.742C183.993 421.896 183.78 422.116 183.62 422.402C183.467 422.682 183.39 423.006 183.39 423.372C183.39 423.739 183.467 424.066 183.62 424.352C183.78 424.632 183.993 424.852 184.26 425.012C184.533 425.166 184.84 425.242 185.18 425.242ZM189.258 418.602H190.218V426.022H189.258V418.602ZM192.281 426.082C192.094 426.082 191.934 426.019 191.801 425.892C191.667 425.759 191.601 425.592 191.601 425.392C191.601 425.199 191.667 425.039 191.801 424.912C191.934 424.779 192.094 424.712 192.281 424.712C192.467 424.712 192.624 424.776 192.751 424.902C192.877 425.029 192.941 425.192 192.941 425.392C192.941 425.592 192.874 425.759 192.741 425.892C192.614 426.019 192.461 426.082 192.281 426.082ZM194.556 424.712C194.743 424.712 194.896 424.779 195.016 424.912C195.143 425.039 195.206 425.199 195.206 425.392C195.206 425.492 195.193 425.589 195.166 425.682C195.146 425.776 195.103 425.919 195.036 426.112L194.566 427.502H193.936L194.306 426.012C194.18 425.966 194.076 425.889 193.996 425.782C193.923 425.669 193.886 425.539 193.886 425.392C193.886 425.192 193.95 425.029 194.076 424.902C194.203 424.776 194.363 424.712 194.556 424.712ZM203.757 425.152V426.022H198.727V425.342L201.577 422.592C201.924 422.259 202.157 421.972 202.277 421.732C202.397 421.486 202.457 421.239 202.457 420.992C202.457 420.626 202.327 420.342 202.067 420.142C201.814 419.936 201.447 419.832 200.967 419.832C200.194 419.832 199.597 420.086 199.177 420.592L198.497 420.002C198.771 419.669 199.127 419.409 199.567 419.222C200.014 419.036 200.511 418.942 201.057 418.942C201.791 418.942 202.374 419.119 202.807 419.472C203.241 419.819 203.457 420.292 203.457 420.892C203.457 421.266 203.377 421.619 203.217 421.952C203.057 422.286 202.754 422.666 202.307 423.092L200.167 425.152H203.757ZM207.41 426.102C206.857 426.102 206.364 425.962 205.93 425.682C205.504 425.396 205.167 424.982 204.92 424.442C204.674 423.902 204.55 423.262 204.55 422.522C204.55 421.782 204.674 421.142 204.92 420.602C205.167 420.062 205.504 419.652 205.93 419.372C206.364 419.086 206.857 418.942 207.41 418.942C207.957 418.942 208.444 419.086 208.87 419.372C209.304 419.652 209.644 420.062 209.89 420.602C210.137 421.142 210.26 421.782 210.26 422.522C210.26 423.262 210.137 423.902 209.89 424.442C209.644 424.982 209.304 425.396 208.87 425.682C208.444 425.962 207.957 426.102 207.41 426.102ZM207.41 425.212C207.97 425.212 208.417 424.982 208.75 424.522C209.09 424.062 209.26 423.396 209.26 422.522C209.26 421.649 209.09 420.982 208.75 420.522C208.417 420.062 207.97 419.832 207.41 419.832C206.844 419.832 206.39 420.062 206.05 420.522C205.717 420.982 205.55 421.649 205.55 422.522C205.55 423.396 205.717 424.062 206.05 424.522C206.39 424.982 206.844 425.212 207.41 425.212ZM213.361 419.022V426.022H212.371V419.892H210.791V419.022H213.361ZM217.062 419.022V426.022H216.072V419.892H214.492V419.022H217.062ZM219.253 422.042C219.067 422.042 218.907 421.979 218.773 421.852C218.64 421.719 218.573 421.552 218.573 421.352C218.573 421.159 218.64 420.999 218.773 420.872C218.907 420.739 219.067 420.672 219.253 420.672C219.44 420.672 219.597 420.736 219.723 420.862C219.85 420.989 219.913 421.152 219.913 421.352C219.913 421.552 219.847 421.719 219.713 421.852C219.587 421.979 219.433 422.042 219.253 422.042ZM219.263 424.712C219.45 424.712 219.603 424.779 219.723 424.912C219.85 425.039 219.913 425.199 219.913 425.392C219.913 425.492 219.9 425.589 219.873 425.682C219.853 425.776 219.81 425.919 219.743 426.112L219.273 427.502H218.643L219.013 426.012C218.887 425.966 218.783 425.889 218.703 425.782C218.63 425.669 218.593 425.539 218.593 425.392C218.593 425.192 218.657 425.029 218.783 424.902C218.91 424.776 219.07 424.712 219.263 424.712ZM227.244 426.102C226.544 426.102 225.911 425.949 225.344 425.642C224.784 425.329 224.344 424.902 224.024 424.362C223.704 423.816 223.544 423.202 223.544 422.522C223.544 421.842 223.704 421.232 224.024 420.692C224.344 420.146 224.788 419.719 225.354 419.412C225.921 419.099 226.554 418.942 227.254 418.942C227.801 418.942 228.301 419.036 228.754 419.222C229.208 419.402 229.594 419.672 229.914 420.032L229.264 420.662C228.738 420.109 228.081 419.832 227.294 419.832C226.774 419.832 226.304 419.949 225.884 420.182C225.464 420.416 225.134 420.739 224.894 421.152C224.661 421.559 224.544 422.016 224.544 422.522C224.544 423.029 224.661 423.489 224.894 423.902C225.134 424.309 225.464 424.629 225.884 424.862C226.304 425.096 226.774 425.212 227.294 425.212C228.074 425.212 228.731 424.932 229.264 424.372L229.914 425.002C229.594 425.362 229.204 425.636 228.744 425.822C228.291 426.009 227.791 426.102 227.244 426.102ZM234.031 420.672C234.704 420.672 235.238 420.869 235.631 421.262C236.031 421.649 236.231 422.219 236.231 422.972V426.022H235.271V423.082C235.271 422.569 235.148 422.182 234.901 421.922C234.654 421.662 234.301 421.532 233.841 421.532C233.321 421.532 232.911 421.686 232.611 421.992C232.311 422.292 232.161 422.726 232.161 423.292V426.022H231.201V418.602H232.161V421.472C232.361 421.219 232.621 421.022 232.941 420.882C233.268 420.742 233.631 420.672 234.031 420.672ZM239.938 420.672C240.671 420.672 241.231 420.852 241.618 421.212C242.011 421.572 242.208 422.109 242.208 422.822V426.022H241.298V425.322C241.138 425.569 240.908 425.759 240.608 425.892C240.314 426.019 239.964 426.082 239.558 426.082C238.964 426.082 238.488 425.939 238.128 425.652C237.774 425.366 237.598 424.989 237.598 424.522C237.598 424.056 237.768 423.682 238.108 423.402C238.448 423.116 238.988 422.972 239.728 422.972H241.248V422.782C241.248 422.369 241.128 422.052 240.888 421.832C240.648 421.612 240.294 421.502 239.828 421.502C239.514 421.502 239.208 421.556 238.908 421.662C238.608 421.762 238.354 421.899 238.148 422.072L237.748 421.352C238.021 421.132 238.348 420.966 238.728 420.852C239.108 420.732 239.511 420.672 239.938 420.672ZM239.718 425.342C240.084 425.342 240.401 425.262 240.668 425.102C240.934 424.936 241.128 424.702 241.248 424.402V423.662H239.768C238.954 423.662 238.548 423.936 238.548 424.482C238.548 424.749 238.651 424.959 238.858 425.112C239.064 425.266 239.351 425.342 239.718 425.342ZM246.964 425.712C246.824 425.832 246.651 425.926 246.444 425.992C246.238 426.052 246.024 426.082 245.804 426.082C245.271 426.082 244.858 425.939 244.564 425.652C244.271 425.366 244.124 424.956 244.124 424.422V421.512H243.224V420.722H244.124V419.562H245.084V420.722H246.604V421.512H245.084V424.382C245.084 424.669 245.154 424.889 245.294 425.042C245.441 425.196 245.648 425.272 245.914 425.272C246.208 425.272 246.458 425.189 246.664 425.022L246.964 425.712ZM253.79 425.712C253.65 425.832 253.477 425.926 253.27 425.992C253.064 426.052 252.85 426.082 252.63 426.082C252.097 426.082 251.684 425.939 251.39 425.652C251.097 425.366 250.95 424.956 250.95 424.422V421.512H250.05V420.722H250.95V419.562H251.91V420.722H253.43V421.512H251.91V424.382C251.91 424.669 251.98 424.889 252.12 425.042C252.267 425.196 252.474 425.272 252.74 425.272C253.034 425.272 253.284 425.189 253.49 425.022L253.79 425.712ZM259.565 423.402C259.565 423.476 259.559 423.572 259.545 423.692H255.245C255.305 424.159 255.509 424.536 255.855 424.822C256.209 425.102 256.645 425.242 257.165 425.242C257.799 425.242 258.309 425.029 258.695 424.602L259.225 425.222C258.985 425.502 258.685 425.716 258.325 425.862C257.972 426.009 257.575 426.082 257.135 426.082C256.575 426.082 256.079 425.969 255.645 425.742C255.212 425.509 254.875 425.186 254.635 424.772C254.402 424.359 254.285 423.892 254.285 423.372C254.285 422.859 254.399 422.396 254.625 421.982C254.859 421.569 255.175 421.249 255.575 421.022C255.982 420.789 256.439 420.672 256.945 420.672C257.452 420.672 257.902 420.789 258.295 421.022C258.695 421.249 259.005 421.569 259.225 421.982C259.452 422.396 259.565 422.869 259.565 423.402ZM256.945 421.482C256.485 421.482 256.099 421.622 255.785 421.902C255.479 422.182 255.299 422.549 255.245 423.002H258.645C258.592 422.556 258.409 422.192 258.095 421.912C257.789 421.626 257.405 421.482 256.945 421.482ZM261.818 421.612C261.985 421.306 262.232 421.072 262.558 420.912C262.885 420.752 263.282 420.672 263.748 420.672V421.602C263.695 421.596 263.622 421.592 263.528 421.592C263.008 421.592 262.598 421.749 262.298 422.062C262.005 422.369 261.858 422.809 261.858 423.382V426.022H260.898V420.722H261.818V421.612ZM264.32 428.022C264.087 428.022 263.87 427.996 263.67 427.942C263.47 427.889 263.303 427.809 263.17 427.702L263.48 426.962C263.68 427.129 263.94 427.212 264.26 427.212C264.513 427.212 264.707 427.132 264.84 426.972C264.98 426.819 265.05 426.589 265.05 426.282V420.722H266.01V426.262C266.01 426.809 265.863 427.239 265.57 427.552C265.277 427.866 264.86 428.022 264.32 428.022ZM265.53 419.702C265.343 419.702 265.187 419.642 265.06 419.522C264.94 419.402 264.88 419.256 264.88 419.082C264.88 418.909 264.94 418.762 265.06 418.642C265.187 418.516 265.343 418.452 265.53 418.452C265.717 418.452 265.87 418.512 265.99 418.632C266.117 418.746 266.18 418.889 266.18 419.062C266.18 419.242 266.117 419.396 265.99 419.522C265.87 419.642 265.717 419.702 265.53 419.702ZM272.632 423.402C272.632 423.476 272.625 423.572 272.612 423.692H268.312C268.372 424.159 268.575 424.536 268.922 424.822C269.275 425.102 269.712 425.242 270.232 425.242C270.865 425.242 271.375 425.029 271.762 424.602L272.292 425.222C272.052 425.502 271.752 425.716 271.392 425.862C271.038 426.009 270.642 426.082 270.202 426.082C269.642 426.082 269.145 425.969 268.712 425.742C268.278 425.509 267.942 425.186 267.702 424.772C267.468 424.359 267.352 423.892 267.352 423.372C267.352 422.859 267.465 422.396 267.692 421.982C267.925 421.569 268.242 421.249 268.642 421.022C269.048 420.789 269.505 420.672 270.012 420.672C270.518 420.672 270.968 420.789 271.362 421.022C271.762 421.249 272.072 421.569 272.292 421.982C272.518 422.396 272.632 422.869 272.632 423.402ZM270.012 421.482C269.552 421.482 269.165 421.622 268.852 421.902C268.545 422.182 268.365 422.549 268.312 423.002H271.712C271.658 422.556 271.475 422.192 271.162 421.912C270.855 421.626 270.472 421.482 270.012 421.482ZM278.755 423.402C278.755 423.476 278.748 423.572 278.735 423.692H274.435C274.495 424.159 274.698 424.536 275.045 424.822C275.398 425.102 275.835 425.242 276.355 425.242C276.988 425.242 277.498 425.029 277.885 424.602L278.415 425.222C278.175 425.502 277.875 425.716 277.515 425.862C277.161 426.009 276.765 426.082 276.325 426.082C275.765 426.082 275.268 425.969 274.835 425.742C274.401 425.509 274.065 425.186 273.825 424.772C273.591 424.359 273.475 423.892 273.475 423.372C273.475 422.859 273.588 422.396 273.815 421.982C274.048 421.569 274.365 421.249 274.765 421.022C275.171 420.789 275.628 420.672 276.135 420.672C276.641 420.672 277.091 420.789 277.485 421.022C277.885 421.249 278.195 421.569 278.415 421.982C278.641 422.396 278.755 422.869 278.755 423.402ZM276.135 421.482C275.675 421.482 275.288 421.622 274.975 421.902C274.668 422.182 274.488 422.549 274.435 423.002H277.835C277.781 422.556 277.598 422.192 277.285 421.912C276.978 421.626 276.595 421.482 276.135 421.482ZM284.953 426.102C284.427 426.102 283.917 426.022 283.423 425.862C282.937 425.696 282.553 425.482 282.273 425.222L282.643 424.442C282.91 424.682 283.25 424.879 283.663 425.032C284.083 425.179 284.513 425.252 284.953 425.252C285.533 425.252 285.967 425.156 286.253 424.962C286.54 424.762 286.683 424.499 286.683 424.172C286.683 423.932 286.603 423.739 286.443 423.592C286.29 423.439 286.097 423.322 285.863 423.242C285.637 423.162 285.313 423.072 284.893 422.972C284.367 422.846 283.94 422.719 283.613 422.592C283.293 422.466 283.017 422.272 282.783 422.012C282.557 421.746 282.443 421.389 282.443 420.942C282.443 420.569 282.54 420.232 282.733 419.932C282.933 419.632 283.233 419.392 283.633 419.212C284.033 419.032 284.53 418.942 285.123 418.942C285.537 418.942 285.943 418.996 286.343 419.102C286.743 419.209 287.087 419.362 287.373 419.562L287.043 420.362C286.75 420.176 286.437 420.036 286.103 419.942C285.77 419.842 285.443 419.792 285.123 419.792C284.557 419.792 284.13 419.896 283.843 420.102C283.563 420.309 283.423 420.576 283.423 420.902C283.423 421.142 283.503 421.339 283.663 421.492C283.823 421.639 284.02 421.756 284.253 421.842C284.493 421.922 284.817 422.009 285.223 422.102C285.75 422.229 286.173 422.356 286.493 422.482C286.813 422.609 287.087 422.802 287.313 423.062C287.547 423.322 287.663 423.672 287.663 424.112C287.663 424.479 287.563 424.816 287.363 425.122C287.163 425.422 286.86 425.662 286.453 425.842C286.047 426.016 285.547 426.102 284.953 426.102ZM289.41 426.082C289.223 426.082 289.063 426.019 288.93 425.892C288.796 425.759 288.73 425.592 288.73 425.392C288.73 425.199 288.796 425.039 288.93 424.912C289.063 424.779 289.223 424.712 289.41 424.712C289.596 424.712 289.753 424.776 289.88 424.902C290.006 425.029 290.07 425.192 290.07 425.392C290.07 425.592 290.003 425.759 289.87 425.892C289.743 426.019 289.59 426.082 289.41 426.082ZM298.921 423.402C298.921 423.476 298.914 423.572 298.901 423.692H294.601C294.661 424.159 294.864 424.536 295.211 424.822C295.564 425.102 296.001 425.242 296.521 425.242C297.154 425.242 297.664 425.029 298.051 424.602L298.581 425.222C298.341 425.502 298.041 425.716 297.681 425.862C297.327 426.009 296.931 426.082 296.491 426.082C295.931 426.082 295.434 425.969 295.001 425.742C294.567 425.509 294.231 425.186 293.991 424.772C293.757 424.359 293.641 423.892 293.641 423.372C293.641 422.859 293.754 422.396 293.981 421.982C294.214 421.569 294.531 421.249 294.931 421.022C295.337 420.789 295.794 420.672 296.301 420.672C296.807 420.672 297.257 420.789 297.651 421.022C298.051 421.249 298.361 421.569 298.581 421.982C298.807 422.396 298.921 422.869 298.921 423.402ZM296.301 421.482C295.841 421.482 295.454 421.622 295.141 421.902C294.834 422.182 294.654 422.549 294.601 423.002H298.001C297.947 422.556 297.764 422.192 297.451 421.912C297.144 421.626 296.761 421.482 296.301 421.482ZM303.234 425.712C303.094 425.832 302.92 425.926 302.714 425.992C302.507 426.052 302.294 426.082 302.074 426.082C301.54 426.082 301.127 425.939 300.834 425.652C300.54 425.366 300.394 424.956 300.394 424.422V421.512H299.494V420.722H300.394V419.562H301.354V420.722H302.874V421.512H301.354V424.382C301.354 424.669 301.424 424.889 301.564 425.042C301.71 425.196 301.917 425.272 302.184 425.272C302.477 425.272 302.727 425.189 302.934 425.022L303.234 425.712ZM309.01 420.672C309.743 420.672 310.303 420.852 310.69 421.212C311.083 421.572 311.28 422.109 311.28 422.822V426.022H310.37V425.322C310.21 425.569 309.98 425.759 309.68 425.892C309.387 426.019 309.037 426.082 308.63 426.082C308.037 426.082 307.56 425.939 307.2 425.652C306.847 425.366 306.67 424.989 306.67 424.522C306.67 424.056 306.84 423.682 307.18 423.402C307.52 423.116 308.06 422.972 308.8 422.972H310.32V422.782C310.32 422.369 310.2 422.052 309.96 421.832C309.72 421.612 309.367 421.502 308.9 421.502C308.587 421.502 308.28 421.556 307.98 421.662C307.68 421.762 307.427 421.899 307.22 422.072L306.82 421.352C307.093 421.132 307.42 420.966 307.8 420.852C308.18 420.732 308.583 420.672 309.01 420.672ZM308.79 425.342C309.157 425.342 309.473 425.262 309.74 425.102C310.007 424.936 310.2 424.702 310.32 424.402V423.662H308.84C308.027 423.662 307.62 423.936 307.62 424.482C307.62 424.749 307.723 424.959 307.93 425.112C308.137 425.266 308.423 425.342 308.79 425.342ZM313.056 418.602H314.016V426.022H313.056V418.602ZM316.079 426.082C315.893 426.082 315.733 426.019 315.599 425.892C315.466 425.759 315.399 425.592 315.399 425.392C315.399 425.199 315.466 425.039 315.599 424.912C315.733 424.779 315.893 424.712 316.079 424.712C316.266 424.712 316.423 424.776 316.549 424.902C316.676 425.029 316.739 425.192 316.739 425.392C316.739 425.592 316.673 425.759 316.539 425.892C316.413 426.019 316.259 426.082 316.079 426.082ZM318.355 424.712C318.542 424.712 318.695 424.779 318.815 424.912C318.942 425.039 319.005 425.199 319.005 425.392C319.005 425.492 318.992 425.589 318.965 425.682C318.945 425.776 318.902 425.919 318.835 426.112L318.365 427.502H317.735L318.105 426.012C317.978 425.966 317.875 425.889 317.795 425.782C317.722 425.669 317.685 425.539 317.685 425.392C317.685 425.192 317.748 425.029 317.875 424.902C318.002 424.776 318.162 424.712 318.355 424.712ZM327.556 425.152V426.022H322.526V425.342L325.376 422.592C325.723 422.259 325.956 421.972 326.076 421.732C326.196 421.486 326.256 421.239 326.256 420.992C326.256 420.626 326.126 420.342 325.866 420.142C325.613 419.936 325.246 419.832 324.766 419.832C323.993 419.832 323.396 420.086 322.976 420.592L322.296 420.002C322.57 419.669 322.926 419.409 323.366 419.222C323.813 419.036 324.31 418.942 324.856 418.942C325.59 418.942 326.173 419.119 326.606 419.472C327.04 419.819 327.256 420.292 327.256 420.892C327.256 421.266 327.176 421.619 327.016 421.952C326.856 422.286 326.553 422.666 326.106 423.092L323.966 425.152H327.556ZM331.209 426.102C330.656 426.102 330.162 425.962 329.729 425.682C329.302 425.396 328.966 424.982 328.719 424.442C328.472 423.902 328.349 423.262 328.349 422.522C328.349 421.782 328.472 421.142 328.719 420.602C328.966 420.062 329.302 419.652 329.729 419.372C330.162 419.086 330.656 418.942 331.209 418.942C331.756 418.942 332.242 419.086 332.669 419.372C333.102 419.652 333.442 420.062 333.689 420.602C333.936 421.142 334.059 421.782 334.059 422.522C334.059 423.262 333.936 423.902 333.689 424.442C333.442 424.982 333.102 425.396 332.669 425.682C332.242 425.962 331.756 426.102 331.209 426.102ZM331.209 425.212C331.769 425.212 332.216 424.982 332.549 424.522C332.889 424.062 333.059 423.396 333.059 422.522C333.059 421.649 332.889 420.982 332.549 420.522C332.216 420.062 331.769 419.832 331.209 419.832C330.642 419.832 330.189 420.062 329.849 420.522C329.516 420.982 329.349 421.649 329.349 422.522C329.349 423.396 329.516 424.062 329.849 424.522C330.189 424.982 330.642 425.212 331.209 425.212ZM337.16 419.022V426.022H336.17V419.892H334.59V419.022H337.16ZM341.371 421.962C342.058 422.029 342.581 422.242 342.941 422.602C343.301 422.956 343.481 423.409 343.481 423.962C343.481 424.362 343.381 424.726 343.181 425.052C342.981 425.372 342.681 425.629 342.281 425.822C341.888 426.009 341.404 426.102 340.831 426.102C340.331 426.102 339.851 426.029 339.391 425.882C338.931 425.729 338.554 425.519 338.261 425.252L338.721 424.462C338.961 424.689 339.268 424.872 339.641 425.012C340.014 425.146 340.411 425.212 340.831 425.212C341.351 425.212 341.754 425.102 342.041 424.882C342.334 424.662 342.481 424.359 342.481 423.972C342.481 423.586 342.338 423.286 342.051 423.072C341.764 422.859 341.331 422.752 340.751 422.752H340.191V422.052L341.951 419.892H338.581V419.022H343.201V419.702L341.371 421.962Z" fill="#5A5858"/>
<path d="M162.79 45.1329C164.39 45.1329 165.563 45.4369 166.31 46.0449C167.067 46.6422 167.446 47.4636 167.446 48.5089C167.446 49.1702 167.286 49.7676 166.966 50.3009C166.657 50.8236 166.182 51.2396 165.542 51.5489C164.913 51.8476 164.134 51.9969 163.206 51.9969C162.417 51.9969 161.654 51.8796 160.918 51.6449C160.182 51.3996 159.574 51.0636 159.094 50.6369L159.83 49.3729C160.214 49.7356 160.705 50.0289 161.302 50.2529C161.899 50.4662 162.529 50.5729 163.19 50.5729C164.033 50.5729 164.683 50.3969 165.142 50.0449C165.611 49.6822 165.846 49.1916 165.846 48.5729C165.846 47.9009 165.59 47.3942 165.078 47.0529C164.566 46.7009 163.691 46.5249 162.454 46.5249H159.91L160.502 40.6689H166.822V42.0609H161.846L161.542 45.1329H162.79Z" fill="#4A4646"/>
<path d="M164.458 395.789C163.572 395.789 162.783 395.565 162.09 395.117C161.407 394.658 160.868 393.997 160.474 393.133C160.079 392.269 159.882 391.245 159.882 390.061C159.882 388.877 160.079 387.853 160.474 386.989C160.868 386.125 161.407 385.469 162.09 385.021C162.783 384.562 163.572 384.333 164.458 384.333C165.332 384.333 166.111 384.562 166.794 385.021C167.487 385.469 168.031 386.125 168.426 386.989C168.82 387.853 169.018 388.877 169.018 390.061C169.018 391.245 168.82 392.269 168.426 393.133C168.031 393.997 167.487 394.658 166.794 395.117C166.111 395.565 165.332 395.789 164.458 395.789ZM164.458 394.365C165.354 394.365 166.068 393.997 166.602 393.261C167.146 392.525 167.418 391.458 167.418 390.061C167.418 388.664 167.146 387.597 166.602 386.861C166.068 386.125 165.354 385.757 164.458 385.757C163.551 385.757 162.826 386.125 162.282 386.861C161.748 387.597 161.482 388.664 161.482 390.061C161.482 391.458 161.748 392.525 162.282 393.261C162.826 393.997 163.551 394.365 164.458 394.365Z" fill="#4A4646"/>
<line x1="187.874" y1="218.961" x2="1024.27" y2="218.961" stroke="#B8B8B8" stroke-width="0.344481"/>
<line x1="187.874" y1="150.064" x2="1024.27" y2="150.064" stroke="#B8B8B8" stroke-width="0.344481"/>
<line x1="187.874" y1="81.1685" x2="1024.27" y2="81.1685" stroke="#B8B8B8" stroke-width="0.344481"/>
<line x1="187.874" y1="46.7205" x2="1024.27" y2="46.7205" stroke="#B8B8B8" stroke-width="0.344481"/>
<line x1="187.874" y1="253.409" x2="1024.27" y2="253.409" stroke="#B8B8B8" stroke-width="0.344481"/>
<line x1="187.874" y1="184.582" x2="1024.27" y2="184.582" stroke="#B8B8B8" stroke-width="0.206688"/>
<line x1="188" y1="114.828" x2="1024.4" y2="114.828" stroke="#B8B8B8" stroke-width="0.344481"/>
<line x1="187.874" y1="287.857" x2="1024.27" y2="287.857" stroke="#B8B8B8" stroke-width="0.344481"/>
<line x1="187.874" y1="322.305" x2="1024.27" y2="322.305" stroke="#B8B8B8" stroke-width="0.344481"/>
<line x1="187.874" y1="391.201" x2="1024.27" y2="391.201" stroke="#B8B8B8" stroke-width="0.344481"/>
<line x1="187.874" y1="356.752" x2="1024.27" y2="356.752" stroke="#B8B8B8" stroke-width="0.344481"/>
<path d="M755.556 120.999C756.078 121.123 756.471 121.348 756.736 121.671C757.008 121.987 757.144 122.395 757.144 122.895C757.144 123.563 756.897 124.081 756.405 124.449C755.92 124.816 755.211 125 754.277 125H750.75V117.284H754.068C754.913 117.284 755.571 117.456 756.041 117.802C756.519 118.14 756.758 118.628 756.758 119.268C756.758 119.687 756.651 120.043 756.438 120.337C756.232 120.631 755.938 120.852 755.556 120.999ZM751.841 120.679H753.991C754.527 120.679 754.935 120.572 755.214 120.359C755.501 120.146 755.644 119.834 755.644 119.422C755.644 119.011 755.501 118.698 755.214 118.485C754.928 118.265 754.52 118.154 753.991 118.154H751.841V120.679ZM754.255 124.129C755.439 124.129 756.03 123.688 756.03 122.806C756.03 122.365 755.88 122.042 755.578 121.836C755.284 121.623 754.843 121.517 754.255 121.517H751.841V124.129H754.255ZM766.697 124.041V125H761.152V124.25L764.294 121.219C764.676 120.852 764.933 120.536 765.065 120.271C765.197 119.999 765.264 119.727 765.264 119.455C765.264 119.051 765.12 118.739 764.834 118.518C764.554 118.29 764.15 118.177 763.621 118.177C762.769 118.177 762.111 118.456 761.648 119.014L760.898 118.364C761.2 117.996 761.593 117.71 762.078 117.504C762.57 117.298 763.118 117.195 763.72 117.195C764.529 117.195 765.172 117.39 765.649 117.78C766.127 118.162 766.366 118.684 766.366 119.345C766.366 119.757 766.278 120.146 766.101 120.513C765.925 120.881 765.591 121.3 765.098 121.77L762.739 124.041H766.697ZM774.157 119.102C774.723 119.102 775.23 119.227 775.678 119.477C776.126 119.727 776.476 120.076 776.725 120.525C776.983 120.973 777.111 121.491 777.111 122.079C777.111 122.667 776.983 123.188 776.725 123.644C776.476 124.092 776.126 124.441 775.678 124.691C775.23 124.941 774.723 125.066 774.157 125.066C773.738 125.066 773.352 124.985 773 124.824C772.654 124.662 772.36 124.427 772.118 124.118V127.139H771.059V119.158H772.074V120.084C772.309 119.76 772.606 119.518 772.966 119.356C773.327 119.187 773.723 119.102 774.157 119.102ZM774.069 124.14C774.444 124.14 774.778 124.056 775.072 123.887C775.373 123.71 775.608 123.468 775.777 123.159C775.954 122.843 776.042 122.483 776.042 122.079C776.042 121.675 775.954 121.318 775.777 121.01C775.608 120.694 775.373 120.451 775.072 120.282C774.778 120.113 774.444 120.028 774.069 120.028C773.701 120.028 773.367 120.117 773.066 120.293C772.772 120.462 772.537 120.701 772.36 121.01C772.191 121.318 772.107 121.675 772.107 122.079C772.107 122.483 772.191 122.843 772.36 123.159C772.529 123.468 772.764 123.71 773.066 123.887C773.367 124.056 773.701 124.14 774.069 124.14ZM780.678 119.102C781.487 119.102 782.104 119.301 782.53 119.698C782.964 120.095 783.181 120.686 783.181 121.473V125H782.178V124.228C782.001 124.5 781.748 124.71 781.417 124.857C781.094 124.996 780.708 125.066 780.259 125.066C779.605 125.066 779.08 124.908 778.683 124.592C778.294 124.276 778.099 123.861 778.099 123.346C778.099 122.832 778.286 122.421 778.661 122.112C779.036 121.796 779.631 121.638 780.447 121.638H782.122V121.428C782.122 120.973 781.99 120.624 781.726 120.381C781.461 120.139 781.072 120.017 780.557 120.017C780.212 120.017 779.874 120.076 779.543 120.194C779.212 120.304 778.933 120.455 778.705 120.646L778.264 119.852C778.566 119.61 778.926 119.426 779.345 119.301C779.763 119.169 780.208 119.102 780.678 119.102ZM780.436 124.25C780.84 124.25 781.189 124.162 781.483 123.986C781.777 123.802 781.99 123.545 782.122 123.214V122.398H780.491C779.594 122.398 779.146 122.7 779.146 123.302C779.146 123.596 779.26 123.828 779.488 123.997C779.716 124.166 780.032 124.25 780.436 124.25ZM788.153 121.958C788.543 122.06 788.844 122.226 789.057 122.454C789.27 122.681 789.377 122.964 789.377 123.302C789.377 123.648 789.259 123.956 789.024 124.228C788.789 124.493 788.462 124.702 788.043 124.857C787.631 125.004 787.168 125.077 786.654 125.077C786.22 125.077 785.794 125.022 785.375 124.912C784.964 124.794 784.596 124.629 784.273 124.416L784.593 123.611C784.872 123.787 785.191 123.927 785.552 124.03C785.912 124.125 786.275 124.173 786.643 124.173C787.143 124.173 787.539 124.089 787.833 123.92C788.135 123.743 788.285 123.508 788.285 123.214C788.285 122.942 788.164 122.733 787.922 122.586C787.686 122.439 787.352 122.365 786.918 122.365H785.849V121.605H786.841C787.238 121.605 787.55 121.535 787.778 121.395C788.006 121.256 788.12 121.065 788.12 120.822C788.12 120.558 787.984 120.352 787.712 120.205C787.448 120.058 787.087 119.984 786.632 119.984C786.051 119.984 785.438 120.135 784.791 120.436L784.504 119.621C785.217 119.26 785.963 119.08 786.742 119.08C787.212 119.08 787.635 119.147 788.01 119.279C788.385 119.411 788.678 119.599 788.892 119.841C789.105 120.084 789.211 120.359 789.211 120.668C789.211 120.954 789.116 121.212 788.925 121.439C788.734 121.667 788.476 121.84 788.153 121.958ZM793.069 119.102C793.877 119.102 794.495 119.301 794.921 119.698C795.354 120.095 795.571 120.686 795.571 121.473V125H794.568V124.228C794.392 124.5 794.138 124.71 793.807 124.857C793.484 124.996 793.098 125.066 792.65 125.066C791.996 125.066 791.47 124.908 791.074 124.592C790.684 124.276 790.489 123.861 790.489 123.346C790.489 122.832 790.677 122.421 791.052 122.112C791.426 121.796 792.022 121.638 792.837 121.638H794.513V121.428C794.513 120.973 794.381 120.624 794.116 120.381C793.852 120.139 793.462 120.017 792.948 120.017C792.602 120.017 792.264 120.076 791.933 120.194C791.603 120.304 791.324 120.455 791.096 120.646L790.655 119.852C790.956 119.61 791.316 119.426 791.735 119.301C792.154 119.169 792.599 119.102 793.069 119.102ZM792.826 124.25C793.231 124.25 793.58 124.162 793.874 123.986C794.168 123.802 794.381 123.545 794.513 123.214V122.398H792.881C791.985 122.398 791.537 122.7 791.537 123.302C791.537 123.596 791.651 123.828 791.878 123.997C792.106 124.166 792.422 124.25 792.826 124.25ZM757.33 132.158V138H756.371V133.734L754.189 137.339H753.726L751.565 133.723V138H750.595V132.158H751.686L753.979 136.104L756.338 132.158H757.33ZM764.67 135.112C764.67 135.193 764.663 135.299 764.648 135.432H759.908C759.974 135.946 760.199 136.361 760.581 136.677C760.97 136.986 761.452 137.14 762.025 137.14C762.723 137.14 763.285 136.905 763.711 136.435L764.296 137.118C764.031 137.427 763.7 137.662 763.303 137.824C762.914 137.985 762.477 138.066 761.992 138.066C761.374 138.066 760.827 137.941 760.349 137.691C759.871 137.434 759.5 137.078 759.236 136.622C758.979 136.166 758.85 135.652 758.85 135.079C758.85 134.513 758.975 134.002 759.225 133.547C759.482 133.091 759.831 132.738 760.272 132.488C760.72 132.231 761.224 132.102 761.782 132.102C762.341 132.102 762.837 132.231 763.27 132.488C763.711 132.738 764.053 133.091 764.296 133.547C764.545 134.002 764.67 134.524 764.67 135.112ZM761.782 132.995C761.275 132.995 760.849 133.15 760.503 133.458C760.165 133.767 759.967 134.171 759.908 134.671H763.656C763.597 134.179 763.395 133.778 763.05 133.469C762.712 133.153 762.289 132.995 761.782 132.995ZM766.312 132.158H767.37V134.638H770.699V132.158H771.758V138H770.699V135.553H767.37V138H766.312V132.158ZM776.516 134.142C777.258 134.149 777.824 134.318 778.214 134.649C778.603 134.98 778.798 135.446 778.798 136.049C778.798 136.681 778.585 137.17 778.158 137.515C777.74 137.853 777.137 138.018 776.351 138.011L773.815 138V132.158H774.874V134.131L776.516 134.142ZM776.262 137.206C776.74 137.214 777.1 137.118 777.343 136.92C777.593 136.721 777.718 136.427 777.718 136.038C777.718 135.656 777.596 135.376 777.354 135.2C777.119 135.024 776.755 134.932 776.262 134.924L774.874 134.902V137.195L776.262 137.206ZM788.479 132.158V138H780.156V132.158H781.214V137.074H783.794V132.158H784.852V137.074H787.42V132.158H788.479ZM795.814 135.112C795.814 135.193 795.806 135.299 795.791 135.432H791.051C791.118 135.946 791.342 136.361 791.724 136.677C792.113 136.986 792.595 137.14 793.168 137.14C793.866 137.14 794.428 136.905 794.854 136.435L795.439 137.118C795.174 137.427 794.843 137.662 794.447 137.824C794.057 137.985 793.62 138.066 793.135 138.066C792.518 138.066 791.97 137.941 791.492 137.691C791.015 137.434 790.644 137.078 790.379 136.622C790.122 136.166 789.993 135.652 789.993 135.079C789.993 134.513 790.118 134.002 790.368 133.547C790.625 133.091 790.974 132.738 791.415 132.488C791.863 132.231 792.367 132.102 792.925 132.102C793.484 132.102 793.98 132.231 794.414 132.488C794.854 132.738 795.196 133.091 795.439 133.547C795.689 134.002 795.814 134.524 795.814 135.112ZM792.925 132.995C792.418 132.995 791.992 133.15 791.647 133.458C791.309 133.767 791.11 134.171 791.051 134.671H794.799C794.741 134.179 794.538 133.778 794.193 133.469C793.855 133.153 793.432 132.995 792.925 132.995Z" fill="#313131"/>
<rect x="718.5" y="106.5" width="108" height="42" stroke="url(#paint0_linear)"/>
<path d="M571.382 88.44C572.203 88.44 572.939 88.6213 573.59 88.984C574.24 89.3467 574.747 89.8533 575.11 90.504C575.483 91.1547 575.67 91.9067 575.67 92.76C575.67 93.6133 575.483 94.3707 575.11 95.032C574.747 95.6827 574.24 96.1893 573.59 96.552C572.939 96.9147 572.203 97.096 571.382 97.096C570.774 97.096 570.214 96.9787 569.702 96.744C569.2 96.5093 568.774 96.168 568.422 95.72V100.104H566.886V88.52H568.358V89.864C568.699 89.3947 569.131 89.0427 569.654 88.808C570.176 88.5627 570.752 88.44 571.382 88.44ZM571.254 95.752C571.798 95.752 572.283 95.6293 572.71 95.384C573.147 95.128 573.488 94.776 573.734 94.328C573.99 93.8693 574.118 93.3467 574.118 92.76C574.118 92.1733 573.99 91.656 573.734 91.208C573.488 90.7493 573.147 90.3973 572.71 90.152C572.283 89.9067 571.798 89.784 571.254 89.784C570.72 89.784 570.235 89.912 569.798 90.168C569.371 90.4133 569.03 90.76 568.774 91.208C568.528 91.656 568.406 92.1733 568.406 92.76C568.406 93.3467 568.528 93.8693 568.774 94.328C569.019 94.776 569.36 95.128 569.798 95.384C570.235 95.6293 570.72 95.752 571.254 95.752ZM581.705 88.872H588.873V90.136H581.705V88.872ZM581.705 92.664H588.873V93.928H581.705V92.664ZM599.586 97.128C598.701 97.128 597.912 96.904 597.218 96.456C596.536 95.9973 595.997 95.336 595.602 94.472C595.208 93.608 595.01 92.584 595.01 91.4C595.01 90.216 595.208 89.192 595.602 88.328C595.997 87.464 596.536 86.808 597.218 86.36C597.912 85.9013 598.701 85.672 599.586 85.672C600.461 85.672 601.24 85.9013 601.922 86.36C602.616 86.808 603.16 87.464 603.554 88.328C603.949 89.192 604.146 90.216 604.146 91.4C604.146 92.584 603.949 93.608 603.554 94.472C603.16 95.336 602.616 95.9973 601.922 96.456C601.24 96.904 600.461 97.128 599.586 97.128ZM599.586 95.704C600.482 95.704 601.197 95.336 601.73 94.6C602.274 93.864 602.546 92.7973 602.546 91.4C602.546 90.0027 602.274 88.936 601.73 88.2C601.197 87.464 600.482 87.096 599.586 87.096C598.68 87.096 597.954 87.464 597.41 88.2C596.877 88.936 596.61 90.0027 596.61 91.4C596.61 92.7973 596.877 93.864 597.41 94.6C597.954 95.336 598.68 95.704 599.586 95.704ZM606.567 94.904C606.865 94.904 607.111 95.0107 607.303 95.224C607.505 95.4267 607.607 95.6827 607.607 95.992C607.607 96.152 607.585 96.3067 607.543 96.456C607.511 96.6053 607.441 96.8347 607.335 97.144L606.583 99.368H605.575L606.167 96.984C605.964 96.9093 605.799 96.7867 605.671 96.616C605.553 96.4347 605.495 96.2267 605.495 95.992C605.495 95.672 605.596 95.4107 605.799 95.208C606.001 95.0053 606.257 94.904 606.567 94.904ZM613.508 97.128C612.623 97.128 611.833 96.904 611.14 96.456C610.457 95.9973 609.919 95.336 609.524 94.472C609.129 93.608 608.932 92.584 608.932 91.4C608.932 90.216 609.129 89.192 609.524 88.328C609.919 87.464 610.457 86.808 611.14 86.36C611.833 85.9013 612.623 85.672 613.508 85.672C614.383 85.672 615.161 85.9013 615.844 86.36C616.537 86.808 617.081 87.464 617.476 88.328C617.871 89.192 618.068 90.216 618.068 91.4C618.068 92.584 617.871 93.608 617.476 94.472C617.081 95.336 616.537 95.9973 615.844 96.456C615.161 96.904 614.383 97.128 613.508 97.128ZM613.508 95.704C614.404 95.704 615.119 95.336 615.652 94.6C616.196 93.864 616.468 92.7973 616.468 91.4C616.468 90.0027 616.196 88.936 615.652 88.2C615.119 87.464 614.404 87.096 613.508 87.096C612.601 87.096 611.876 87.464 611.332 88.2C610.799 88.936 610.532 90.0027 610.532 91.4C610.532 92.7973 610.799 93.864 611.332 94.6C611.876 95.336 612.601 95.704 613.508 95.704ZM623.029 85.8V97H621.445V87.192H618.917V85.8H623.029Z" fill="#4A4646"/>
<path d="M374.769 399.422V412.022H373.005V400.988H365.697V412.022H363.915V399.422H374.769ZM386.6 402.482V412.022H384.872V403.994H380.768L380.66 406.118C380.6 407.402 380.486 408.476 380.318 409.34C380.15 410.192 379.874 410.876 379.49 411.392C379.106 411.908 378.572 412.166 377.888 412.166C377.576 412.166 377.222 412.112 376.826 412.004L376.934 410.546C377.09 410.582 377.234 410.6 377.366 410.6C377.846 410.6 378.206 410.39 378.446 409.97C378.686 409.55 378.842 409.052 378.914 408.476C378.986 407.9 379.052 407.078 379.112 406.01L379.274 402.482H386.6ZM393.344 402.392C394.664 402.392 395.672 402.716 396.368 403.364C397.076 404.012 397.43 404.978 397.43 406.262V412.022H395.792V410.762C395.504 411.206 395.09 411.548 394.55 411.788C394.022 412.016 393.392 412.13 392.66 412.13C391.592 412.13 390.734 411.872 390.086 411.356C389.45 410.84 389.132 410.162 389.132 409.322C389.132 408.482 389.438 407.81 390.05 407.306C390.662 406.79 391.634 406.532 392.966 406.532H395.702V406.19C395.702 405.446 395.486 404.876 395.054 404.48C394.622 404.084 393.986 403.886 393.146 403.886C392.582 403.886 392.03 403.982 391.49 404.174C390.95 404.354 390.494 404.6 390.122 404.912L389.402 403.616C389.894 403.22 390.482 402.92 391.166 402.716C391.85 402.5 392.576 402.392 393.344 402.392ZM392.948 410.798C393.608 410.798 394.178 410.654 394.658 410.366C395.138 410.066 395.486 409.646 395.702 409.106V407.774H393.038C391.574 407.774 390.842 408.266 390.842 409.25C390.842 409.73 391.028 410.108 391.4 410.384C391.772 410.66 392.288 410.798 392.948 410.798ZM410.729 410.51V414.308H409.091V412.022H400.541V402.482H402.269V410.51H407.489V402.482H409.217V410.51H410.729ZM421.591 407.306C421.591 407.438 421.579 407.612 421.555 407.828H413.815C413.923 408.668 414.289 409.346 414.913 409.862C415.549 410.366 416.335 410.618 417.271 410.618C418.411 410.618 419.329 410.234 420.025 409.466L420.979 410.582C420.547 411.086 420.007 411.47 419.359 411.734C418.723 411.998 418.009 412.13 417.217 412.13C416.209 412.13 415.315 411.926 414.535 411.518C413.755 411.098 413.149 410.516 412.717 409.772C412.297 409.028 412.087 408.188 412.087 407.252C412.087 406.328 412.291 405.494 412.699 404.75C413.119 404.006 413.689 403.43 414.409 403.022C415.141 402.602 415.963 402.392 416.875 402.392C417.787 402.392 418.597 402.602 419.305 403.022C420.025 403.43 420.583 404.006 420.979 404.75C421.387 405.494 421.591 406.346 421.591 407.306ZM416.875 403.85C416.047 403.85 415.351 404.102 414.787 404.606C414.235 405.11 413.911 405.77 413.815 406.586H419.935C419.839 405.782 419.509 405.128 418.945 404.624C418.393 404.108 417.703 403.85 416.875 403.85ZM429.132 402.806C430.02 402.806 430.812 403.004 431.508 403.4C432.204 403.796 432.744 404.348 433.128 405.056C433.524 405.752 433.722 406.55 433.722 407.45C433.722 408.374 433.512 409.196 433.092 409.916C432.684 410.624 432.102 411.176 431.346 411.572C430.602 411.968 429.75 412.166 428.79 412.166C427.17 412.166 425.916 411.614 425.028 410.51C424.152 409.394 423.714 407.828 423.714 405.812C423.714 403.856 424.116 402.326 424.92 401.222C425.724 400.106 426.954 399.368 428.61 399.008L432.966 398.036L433.218 399.62L429.204 400.484C427.956 400.76 427.026 401.228 426.414 401.888C425.802 402.548 425.454 403.496 425.37 404.732C425.778 404.12 426.306 403.646 426.954 403.31C427.602 402.974 428.328 402.806 429.132 402.806ZM428.826 410.726C429.438 410.726 429.978 410.588 430.446 410.312C430.926 410.036 431.298 409.658 431.562 409.178C431.826 408.686 431.958 408.128 431.958 407.504C431.958 406.556 431.67 405.794 431.094 405.218C430.518 404.642 429.762 404.354 428.826 404.354C427.89 404.354 427.128 404.642 426.54 405.218C425.964 405.794 425.676 406.556 425.676 407.504C425.676 408.128 425.808 408.686 426.072 409.178C426.348 409.658 426.726 410.036 427.206 410.312C427.686 410.588 428.226 410.726 428.826 410.726ZM440.276 412.13C439.328 412.13 438.476 411.92 437.72 411.5C436.964 411.08 436.37 410.504 435.938 409.772C435.518 409.028 435.308 408.188 435.308 407.252C435.308 406.316 435.518 405.482 435.938 404.75C436.37 404.006 436.964 403.43 437.72 403.022C438.476 402.602 439.328 402.392 440.276 402.392C441.224 402.392 442.07 402.602 442.814 403.022C443.57 403.43 444.158 404.006 444.578 404.75C445.01 405.482 445.226 406.316 445.226 407.252C445.226 408.188 445.01 409.028 444.578 409.772C444.158 410.504 443.57 411.08 442.814 411.5C442.07 411.92 441.224 412.13 440.276 412.13ZM440.276 410.618C440.888 410.618 441.434 410.48 441.914 410.204C442.406 409.916 442.79 409.52 443.066 409.016C443.342 408.5 443.48 407.912 443.48 407.252C443.48 406.592 443.342 406.01 443.066 405.506C442.79 404.99 442.406 404.594 441.914 404.318C441.434 404.042 440.888 403.904 440.276 403.904C439.664 403.904 439.112 404.042 438.62 404.318C438.14 404.594 437.756 404.99 437.468 405.506C437.192 406.01 437.054 406.592 437.054 407.252C437.054 407.912 437.192 408.5 437.468 409.016C437.756 409.52 438.14 409.916 438.62 410.204C439.112 410.48 439.664 410.618 440.276 410.618Z" fill="#4A4646"/>
<path d="M383.954 422.646C384.878 422.646 385.611 422.917 386.152 423.458C386.703 423.99 386.978 424.769 386.978 425.796V430.066H385.984V425.894C385.984 425.129 385.793 424.545 385.41 424.144C385.027 423.743 384.481 423.542 383.772 423.542C382.979 423.542 382.349 423.78 381.882 424.256C381.425 424.723 381.196 425.371 381.196 426.202V430.066H380.202V422.702H381.154V424.06C381.425 423.612 381.798 423.267 382.274 423.024C382.759 422.772 383.319 422.646 383.954 422.646ZM392.935 423.136H399.025V423.962H392.935V423.136ZM392.935 426.37H399.025V427.196H392.935V426.37ZM407.115 420.266V430.066H406.107V421.162H403.797V420.266H407.115ZM416.374 420.266V420.98L412.272 430.066H411.18L415.212 421.162H410.172V422.996H409.178V420.266H416.374ZM421.489 424.2C422.133 424.2 422.702 424.321 423.197 424.564C423.701 424.807 424.093 425.152 424.373 425.6C424.653 426.039 424.793 426.552 424.793 427.14C424.793 427.737 424.648 428.265 424.359 428.722C424.069 429.179 423.668 429.534 423.155 429.786C422.651 430.029 422.081 430.15 421.447 430.15C420.149 430.15 419.155 429.725 418.465 428.876C417.774 428.017 417.429 426.809 417.429 425.25C417.429 424.158 417.615 423.234 417.989 422.478C418.362 421.722 418.885 421.153 419.557 420.77C420.229 420.378 421.013 420.182 421.909 420.182C422.879 420.182 423.654 420.359 424.233 420.714L423.827 421.526C423.36 421.218 422.725 421.064 421.923 421.064C420.84 421.064 419.991 421.409 419.375 422.1C418.759 422.781 418.451 423.775 418.451 425.082C418.451 425.315 418.465 425.581 418.493 425.88C418.735 425.348 419.123 424.937 419.655 424.648C420.187 424.349 420.798 424.2 421.489 424.2ZM421.405 429.296C422.114 429.296 422.688 429.105 423.127 428.722C423.575 428.33 423.799 427.812 423.799 427.168C423.799 426.524 423.575 426.011 423.127 425.628C422.688 425.245 422.091 425.054 421.335 425.054C420.84 425.054 420.401 425.147 420.019 425.334C419.645 425.521 419.351 425.777 419.137 426.104C418.922 426.431 418.815 426.795 418.815 427.196C418.815 427.569 418.913 427.915 419.109 428.232C419.314 428.549 419.613 428.806 420.005 429.002C420.397 429.198 420.863 429.296 421.405 429.296Z" fill="#4A4646"/>
<path d="M434.5 86.9831C434.5 72.0714 422.412 59.9832 407.5 59.9832L400.5 59.9832C385.588 59.9832 373.5 72.0715 373.5 86.9831L373.5 391.373L434.5 391.373L434.5 86.9831Z" fill="#5A5858"/>
<path d="M396.631 228.926H394.237V232.022H392.491V228.926H385.489V227.666L391.933 219.422H393.877L387.703 227.378H392.545V224.642H394.237V227.378H396.631V228.926ZM399.267 229.664C399.603 229.664 399.879 229.784 400.095 230.024C400.323 230.252 400.437 230.54 400.437 230.888C400.437 231.068 400.413 231.242 400.365 231.41C400.329 231.578 400.251 231.836 400.131 232.184L399.285 234.686H398.151L398.817 232.004C398.589 231.92 398.403 231.782 398.259 231.59C398.127 231.386 398.061 231.152 398.061 230.888C398.061 230.528 398.175 230.234 398.403 230.006C398.631 229.778 398.919 229.664 399.267 229.664ZM405.739 224.444C407.539 224.444 408.859 224.786 409.699 225.47C410.551 226.142 410.977 227.066 410.977 228.242C410.977 228.986 410.797 229.658 410.437 230.258C410.089 230.846 409.555 231.314 408.835 231.662C408.127 231.998 407.251 232.166 406.207 232.166C405.319 232.166 404.461 232.034 403.633 231.77C402.805 231.494 402.121 231.116 401.581 230.636L402.409 229.214C402.841 229.622 403.393 229.952 404.065 230.204C404.737 230.444 405.445 230.564 406.189 230.564C407.137 230.564 407.869 230.366 408.385 229.97C408.913 229.562 409.177 229.01 409.177 228.314C409.177 227.558 408.889 226.988 408.313 226.604C407.737 226.208 406.753 226.01 405.361 226.01H402.499L403.165 219.422H410.275V220.988H404.677L404.335 224.444H405.739ZM420.179 225.416C420.899 225.692 421.451 226.088 421.835 226.604C422.219 227.12 422.411 227.738 422.411 228.458C422.411 229.214 422.207 229.874 421.799 230.438C421.391 230.99 420.809 231.416 420.053 231.716C419.297 232.016 418.409 232.166 417.389 232.166C416.381 232.166 415.499 232.016 414.743 231.716C413.999 231.416 413.423 230.99 413.015 230.438C412.607 229.874 412.403 229.214 412.403 228.458C412.403 227.738 412.589 227.12 412.961 226.604C413.345 226.088 413.897 225.692 414.617 225.416C414.041 225.14 413.603 224.774 413.303 224.318C413.003 223.862 412.853 223.322 412.853 222.698C412.853 222.002 413.039 221.396 413.411 220.88C413.795 220.364 414.329 219.968 415.013 219.692C415.697 219.416 416.489 219.278 417.389 219.278C418.301 219.278 419.099 219.416 419.783 219.692C420.479 219.968 421.013 220.364 421.385 220.88C421.769 221.396 421.961 222.002 421.961 222.698C421.961 223.31 421.805 223.85 421.493 224.318C421.193 224.774 420.755 225.14 420.179 225.416ZM417.389 220.736C416.537 220.736 415.865 220.922 415.373 221.294C414.881 221.654 414.635 222.146 414.635 222.77C414.635 223.394 414.875 223.886 415.355 224.246C415.847 224.606 416.525 224.786 417.389 224.786C418.265 224.786 418.949 224.606 419.441 224.246C419.945 223.886 420.197 223.394 420.197 222.77C420.197 222.146 419.939 221.654 419.423 221.294C418.919 220.922 418.241 220.736 417.389 220.736ZM417.389 230.708C418.385 230.708 419.171 230.504 419.747 230.096C420.323 229.676 420.611 229.112 420.611 228.404C420.611 227.708 420.323 227.162 419.747 226.766C419.171 226.358 418.385 226.154 417.389 226.154C416.393 226.154 415.613 226.358 415.049 226.766C414.485 227.162 414.203 227.708 414.203 228.404C414.203 229.112 414.485 229.676 415.049 230.096C415.613 230.504 416.393 230.708 417.389 230.708Z" fill="white"/>
<path d="M706.971 433.739C706.448 432.88 706.047 431.896 705.767 430.785C705.487 429.665 705.347 428.466 705.347 427.187C705.347 425.908 705.487 424.709 705.767 423.589C706.047 422.46 706.448 421.475 706.971 420.635H707.923C707.372 421.578 706.966 422.59 706.705 423.673C706.453 424.756 706.327 425.927 706.327 427.187C706.327 428.447 706.453 429.618 706.705 430.701C706.966 431.784 707.372 432.796 707.923 433.739H706.971ZM710.094 421.223H711.13V430.127H716.618V431.023H710.094V421.223ZM720.732 423.603C721.693 423.603 722.43 423.846 722.944 424.331C723.457 424.807 723.714 425.516 723.714 426.459V431.023H722.762V429.875C722.538 430.258 722.206 430.556 721.768 430.771C721.338 430.986 720.825 431.093 720.228 431.093C719.406 431.093 718.753 430.897 718.268 430.505C717.782 430.113 717.54 429.595 717.54 428.951C717.54 428.326 717.764 427.822 718.212 427.439C718.669 427.056 719.392 426.865 720.382 426.865H722.72V426.417C722.72 425.782 722.542 425.302 722.188 424.975C721.833 424.639 721.315 424.471 720.634 424.471C720.167 424.471 719.719 424.55 719.29 424.709C718.86 424.858 718.492 425.068 718.184 425.339L717.736 424.597C718.109 424.28 718.557 424.037 719.08 423.869C719.602 423.692 720.153 423.603 720.732 423.603ZM720.382 430.309C720.942 430.309 721.422 430.183 721.824 429.931C722.225 429.67 722.524 429.296 722.72 428.811V427.607H720.41C719.15 427.607 718.52 428.046 718.52 428.923C718.52 429.352 718.683 429.693 719.01 429.945C719.336 430.188 719.794 430.309 720.382 430.309ZM725.867 426.795H729.535V427.663H725.867V426.795ZM733.677 425.241C735.096 425.241 736.127 425.498 736.771 426.011C737.424 426.515 737.751 427.224 737.751 428.139C737.751 428.708 737.616 429.217 737.345 429.665C737.084 430.113 736.687 430.468 736.155 430.729C735.623 430.981 734.97 431.107 734.195 431.107C733.495 431.107 732.828 430.995 732.193 430.771C731.568 430.538 731.064 430.23 730.681 429.847L731.171 429.049C731.498 429.385 731.927 429.66 732.459 429.875C732.991 430.08 733.565 430.183 734.181 430.183C734.993 430.183 735.618 430.001 736.057 429.637C736.505 429.273 736.729 428.788 736.729 428.181C736.729 427.509 736.477 427 735.973 426.655C735.478 426.31 734.638 426.137 733.453 426.137H731.367L731.871 421.223H737.233V422.119H732.753L732.417 425.241H733.677ZM749.037 426.543H746.433V429.091H745.551V426.543H742.947V425.717H745.551V423.155H746.433V425.717H749.037V426.543ZM757.79 425.969C758.434 426.109 758.928 426.389 759.274 426.809C759.628 427.22 759.806 427.752 759.806 428.405C759.806 429.245 759.493 429.894 758.868 430.351C758.252 430.799 757.337 431.023 756.124 431.023H751.616V421.223H755.844C756.936 421.223 757.78 421.442 758.378 421.881C758.984 422.32 759.288 422.94 759.288 423.743C759.288 424.284 759.152 424.746 758.882 425.129C758.62 425.502 758.256 425.782 757.79 425.969ZM752.652 422.077V425.633H755.774C756.567 425.633 757.178 425.484 757.608 425.185C758.037 424.877 758.252 424.434 758.252 423.855C758.252 423.276 758.037 422.838 757.608 422.539C757.178 422.231 756.567 422.077 755.774 422.077H752.652ZM756.11 430.169C756.987 430.169 757.65 430.02 758.098 429.721C758.546 429.422 758.77 428.956 758.77 428.321C758.77 427.098 757.883 426.487 756.11 426.487H752.652V430.169H756.11ZM768.344 425.969C768.988 426.109 769.483 426.389 769.828 426.809C770.183 427.22 770.36 427.752 770.36 428.405C770.36 429.245 770.048 429.894 769.422 430.351C768.806 430.799 767.892 431.023 766.678 431.023H762.17V421.223H766.398C767.49 421.223 768.335 421.442 768.932 421.881C769.539 422.32 769.842 422.94 769.842 423.743C769.842 424.284 769.707 424.746 769.436 425.129C769.175 425.502 768.811 425.782 768.344 425.969ZM763.206 422.077V425.633H766.328C767.122 425.633 767.733 425.484 768.162 425.185C768.592 424.877 768.806 424.434 768.806 423.855C768.806 423.276 768.592 422.838 768.162 422.539C767.733 422.231 767.122 422.077 766.328 422.077H763.206ZM766.664 430.169C767.542 430.169 768.204 430.02 768.652 429.721C769.1 429.422 769.324 428.956 769.324 428.321C769.324 427.098 768.438 426.487 766.664 426.487H763.206V430.169H766.664ZM771.969 426.795H775.637V427.663H771.969V426.795ZM779.686 421.223V431.023H778.678V422.119H776.368V421.223H779.686ZM788.721 430.127V431.023H781.847V430.309L785.921 426.319C786.434 425.815 786.779 425.381 786.957 425.017C787.143 424.644 787.237 424.27 787.237 423.897C787.237 423.318 787.036 422.87 786.635 422.553C786.243 422.226 785.678 422.063 784.941 422.063C783.793 422.063 782.901 422.427 782.267 423.155L781.553 422.539C781.935 422.091 782.421 421.746 783.009 421.503C783.606 421.26 784.278 421.139 785.025 421.139C786.023 421.139 786.812 421.377 787.391 421.853C787.979 422.32 788.273 422.964 788.273 423.785C788.273 424.289 788.161 424.774 787.937 425.241C787.713 425.708 787.288 426.244 786.663 426.851L783.331 430.127H788.721ZM789.818 433.739C790.368 432.796 790.774 431.788 791.036 430.715C791.297 429.632 791.428 428.456 791.428 427.187C791.428 425.918 791.297 424.746 791.036 423.673C790.774 422.59 790.368 421.578 789.818 420.635H790.77C791.292 421.475 791.694 422.46 791.974 423.589C792.263 424.709 792.408 425.908 792.408 427.187C792.408 428.466 792.268 429.665 791.988 430.785C791.708 431.905 791.302 432.89 790.77 433.739H789.818ZM802.667 423.603C803.591 423.603 804.324 423.874 804.865 424.415C805.416 424.947 805.691 425.726 805.691 426.753V431.023H804.697V426.851C804.697 426.086 804.506 425.502 804.123 425.101C803.741 424.7 803.195 424.499 802.485 424.499C801.692 424.499 801.062 424.737 800.595 425.213C800.138 425.68 799.909 426.328 799.909 427.159V431.023H798.915V423.659H799.867V425.017C800.138 424.569 800.511 424.224 800.987 423.981C801.473 423.729 802.033 423.603 802.667 423.603ZM811.648 424.093H817.738V424.919H811.648V424.093ZM811.648 427.327H817.738V428.153H811.648V427.327ZM825.829 421.223V431.023H824.821V422.119H822.511V421.223H825.829ZM832.231 425.157C832.875 425.157 833.445 425.278 833.939 425.521C834.443 425.764 834.835 426.109 835.115 426.557C835.395 426.996 835.535 427.509 835.535 428.097C835.535 428.694 835.391 429.222 835.101 429.679C834.812 430.136 834.411 430.491 833.897 430.743C833.393 430.986 832.824 431.107 832.189 431.107C830.892 431.107 829.898 430.682 829.207 429.833C828.517 428.974 828.171 427.766 828.171 426.207C828.171 425.115 828.358 424.191 828.731 423.435C829.105 422.679 829.627 422.11 830.299 421.727C830.971 421.335 831.755 421.139 832.651 421.139C833.622 421.139 834.397 421.316 834.975 421.671L834.569 422.483C834.103 422.175 833.468 422.021 832.665 422.021C831.583 422.021 830.733 422.366 830.117 423.057C829.501 423.738 829.193 424.732 829.193 426.039C829.193 426.272 829.207 426.538 829.235 426.837C829.478 426.305 829.865 425.894 830.397 425.605C830.929 425.306 831.541 425.157 832.231 425.157ZM832.147 430.253C832.857 430.253 833.431 430.062 833.869 429.679C834.317 429.287 834.541 428.769 834.541 428.125C834.541 427.481 834.317 426.968 833.869 426.585C833.431 426.202 832.833 426.011 832.077 426.011C831.583 426.011 831.144 426.104 830.761 426.291C830.388 426.478 830.094 426.734 829.879 427.061C829.665 427.388 829.557 427.752 829.557 428.153C829.557 428.526 829.655 428.872 829.851 429.189C830.057 429.506 830.355 429.763 830.747 429.959C831.139 430.155 831.606 430.253 832.147 430.253ZM843.509 421.223V421.937L839.407 431.023H838.315L842.347 422.119H837.307V423.953H836.313V421.223H843.509Z" fill="#4A4646"/>
<path d="M733.598 399.423V412.023H731.834V400.989H724.526V412.023H722.744V399.423H733.598ZM742.297 402.393C743.221 402.393 744.049 402.597 744.781 403.005C745.513 403.413 746.083 403.983 746.491 404.715C746.911 405.447 747.121 406.293 747.121 407.253C747.121 408.213 746.911 409.065 746.491 409.809C746.083 410.541 745.513 411.111 744.781 411.519C744.049 411.927 743.221 412.131 742.297 412.131C741.613 412.131 740.983 411.999 740.407 411.735C739.843 411.471 739.363 411.087 738.967 410.583V415.515H737.239V402.483H738.895V403.995C739.279 403.467 739.765 403.071 740.353 402.807C740.941 402.531 741.589 402.393 742.297 402.393ZM742.153 410.619C742.765 410.619 743.311 410.481 743.791 410.205C744.283 409.917 744.667 409.521 744.943 409.017C745.231 408.501 745.375 407.913 745.375 407.253C745.375 406.593 745.231 406.011 744.943 405.507C744.667 404.991 744.283 404.595 743.791 404.319C743.311 404.043 742.765 403.905 742.153 403.905C741.553 403.905 741.007 404.049 740.515 404.337C740.035 404.613 739.651 405.003 739.363 405.507C739.087 406.011 738.949 406.593 738.949 407.253C738.949 407.913 739.087 408.501 739.363 409.017C739.639 409.521 740.023 409.917 740.515 410.205C741.007 410.481 741.553 410.619 742.153 410.619ZM753.718 412.131C752.77 412.131 751.918 411.921 751.162 411.501C750.406 411.081 749.812 410.505 749.38 409.773C748.96 409.029 748.75 408.189 748.75 407.253C748.75 406.317 748.96 405.483 749.38 404.751C749.812 404.007 750.406 403.431 751.162 403.023C751.918 402.603 752.77 402.393 753.718 402.393C754.666 402.393 755.512 402.603 756.256 403.023C757.012 403.431 757.6 404.007 758.02 404.751C758.452 405.483 758.668 406.317 758.668 407.253C758.668 408.189 758.452 409.029 758.02 409.773C757.6 410.505 757.012 411.081 756.256 411.501C755.512 411.921 754.666 412.131 753.718 412.131ZM753.718 410.619C754.33 410.619 754.876 410.481 755.356 410.205C755.848 409.917 756.232 409.521 756.508 409.017C756.784 408.501 756.922 407.913 756.922 407.253C756.922 406.593 756.784 406.011 756.508 405.507C756.232 404.991 755.848 404.595 755.356 404.319C754.876 404.043 754.33 403.905 753.718 403.905C753.106 403.905 752.554 404.043 752.062 404.319C751.582 404.595 751.198 404.991 750.91 405.507C750.634 406.011 750.496 406.593 750.496 407.253C750.496 407.913 750.634 408.501 750.91 409.017C751.198 409.521 751.582 409.917 752.062 410.205C752.554 410.481 753.106 410.619 753.718 410.619ZM766.023 402.807C766.911 402.807 767.703 403.005 768.399 403.401C769.095 403.797 769.635 404.349 770.019 405.057C770.415 405.753 770.613 406.551 770.613 407.451C770.613 408.375 770.403 409.197 769.983 409.917C769.575 410.625 768.993 411.177 768.237 411.573C767.493 411.969 766.641 412.167 765.681 412.167C764.061 412.167 762.807 411.615 761.919 410.511C761.043 409.395 760.605 407.829 760.605 405.813C760.605 403.857 761.007 402.327 761.811 401.223C762.615 400.107 763.845 399.369 765.501 399.009L769.857 398.037L770.109 399.621L766.095 400.485C764.847 400.761 763.917 401.229 763.305 401.889C762.693 402.549 762.345 403.497 762.261 404.733C762.669 404.121 763.197 403.647 763.845 403.311C764.493 402.975 765.219 402.807 766.023 402.807ZM765.717 410.727C766.329 410.727 766.869 410.589 767.337 410.313C767.817 410.037 768.189 409.659 768.453 409.179C768.717 408.687 768.849 408.129 768.849 407.505C768.849 406.557 768.561 405.795 767.985 405.219C767.409 404.643 766.653 404.355 765.717 404.355C764.781 404.355 764.019 404.643 763.431 405.219C762.855 405.795 762.567 406.557 762.567 407.505C762.567 408.129 762.699 408.687 762.963 409.179C763.239 409.659 763.617 410.037 764.097 410.313C764.577 410.589 765.117 410.727 765.717 410.727ZM773.081 402.483H774.809V409.431L780.659 402.483H782.225V412.023H780.497V405.075L774.665 412.023H773.081V402.483ZM789.665 412.131C788.717 412.131 787.865 411.921 787.109 411.501C786.353 411.081 785.759 410.505 785.327 409.773C784.907 409.029 784.697 408.189 784.697 407.253C784.697 406.317 784.907 405.483 785.327 404.751C785.759 404.007 786.353 403.431 787.109 403.023C787.865 402.603 788.717 402.393 789.665 402.393C790.613 402.393 791.459 402.603 792.203 403.023C792.959 403.431 793.547 404.007 793.967 404.751C794.399 405.483 794.615 406.317 794.615 407.253C794.615 408.189 794.399 409.029 793.967 409.773C793.547 410.505 792.959 411.081 792.203 411.501C791.459 411.921 790.613 412.131 789.665 412.131ZM789.665 410.619C790.277 410.619 790.823 410.481 791.303 410.205C791.795 409.917 792.179 409.521 792.455 409.017C792.731 408.501 792.869 407.913 792.869 407.253C792.869 406.593 792.731 406.011 792.455 405.507C792.179 404.991 791.795 404.595 791.303 404.319C790.823 404.043 790.277 403.905 789.665 403.905C789.053 403.905 788.501 404.043 788.009 404.319C787.529 404.595 787.145 404.991 786.857 405.507C786.581 406.011 786.443 406.593 786.443 407.253C786.443 407.913 786.581 408.501 786.857 409.017C787.145 409.521 787.529 409.917 788.009 410.205C788.501 410.481 789.053 410.619 789.665 410.619ZM803.869 403.995H800.377V412.023H798.649V403.995H795.157V402.483H803.869V403.995ZM805.636 402.483H807.364V409.431L813.214 402.483H814.78V412.023H813.052V405.075L807.22 412.023H805.636V402.483ZM821.842 407.991H819.862V412.023H818.134V402.483H819.862V406.515H821.878L824.974 402.483H826.828L823.21 407.073L827.08 412.023H825.046L821.842 407.991Z" fill="#4A4646"/>
<path d="M743.5 259.023C743.5 244.111 755.588 232.023 770.5 232.023H777.5C792.412 232.023 804.5 244.111 804.5 259.023V391.023H743.5V259.023Z" fill="url(#paint1_linear)"/>
<path d="M766.563 316.457V318.023H757.509V316.799L762.639 311.849C763.263 311.249 763.683 310.733 763.899 310.301C764.115 309.857 764.223 309.413 764.223 308.969C764.223 308.309 763.989 307.799 763.521 307.439C763.065 307.067 762.405 306.881 761.541 306.881C760.149 306.881 759.075 307.337 758.319 308.249L757.095 307.187C757.587 306.587 758.229 306.119 759.021 305.783C759.825 305.447 760.719 305.279 761.703 305.279C763.023 305.279 764.073 305.597 764.853 306.233C765.633 306.857 766.023 307.709 766.023 308.789C766.023 309.461 765.879 310.097 765.591 310.697C765.303 311.297 764.757 311.981 763.953 312.749L760.101 316.457H766.563ZM769.424 315.665C769.76 315.665 770.036 315.785 770.252 316.025C770.48 316.253 770.594 316.541 770.594 316.889C770.594 317.069 770.57 317.243 770.522 317.411C770.486 317.579 770.408 317.837 770.288 318.185L769.442 320.687H768.308L768.974 318.005C768.746 317.921 768.56 317.783 768.416 317.591C768.284 317.387 768.218 317.153 768.218 316.889C768.218 316.529 768.332 316.235 768.56 316.007C768.788 315.779 769.076 315.665 769.424 315.665ZM777.296 310.715C778.532 310.835 779.474 311.219 780.122 311.867C780.77 312.503 781.094 313.319 781.094 314.315C781.094 315.035 780.914 315.689 780.554 316.277C780.194 316.853 779.654 317.315 778.934 317.663C778.226 317.999 777.356 318.167 776.324 318.167C775.424 318.167 774.56 318.035 773.732 317.771C772.904 317.495 772.226 317.117 771.698 316.637L772.526 315.215C772.958 315.623 773.51 315.953 774.182 316.205C774.854 316.445 775.568 316.565 776.324 316.565C777.26 316.565 777.986 316.367 778.502 315.971C779.03 315.575 779.294 315.029 779.294 314.333C779.294 313.637 779.036 313.097 778.52 312.713C778.004 312.329 777.224 312.137 776.18 312.137H775.172V310.877L778.34 306.989H772.274V305.423H780.59V306.647L777.296 310.715ZM791.541 316.457V318.023H782.487V316.799L787.617 311.849C788.241 311.249 788.661 310.733 788.877 310.301C789.093 309.857 789.201 309.413 789.201 308.969C789.201 308.309 788.967 307.799 788.499 307.439C788.043 307.067 787.383 306.881 786.519 306.881C785.127 306.881 784.053 307.337 783.297 308.249L782.073 307.187C782.565 306.587 783.207 306.119 783.999 305.783C784.803 305.447 785.697 305.279 786.681 305.279C788.001 305.279 789.051 305.597 789.831 306.233C790.611 306.857 791.001 307.709 791.001 308.789C791.001 309.461 790.857 310.097 790.569 310.697C790.281 311.297 789.735 311.981 788.931 312.749L785.079 316.457H791.541Z" fill="white"/>
<defs>
<filter id="filter0_d" x="0.476624" y="0.732468" width="1083.05" height="456.047" filterUnits="userSpaceOnUse" color-interpolation-filters="sRGB">
<feFlood flood-opacity="0" result="BackgroundImageFix"/>
<feColorMatrix in="SourceAlpha" type="matrix" values="0 0 0 0 0 0 0 0 0 0 0 0 0 0 0 0 0 0 127 0"/>
<feOffset dy="2.75584"/>
<feGaussianBlur stdDeviation="5.51169"/>
<feColorMatrix type="matrix" values="0 0 0 0 0 0 0 0 0 0 0 0 0 0 0 0 0 0 0.15 0"/>
<feBlend mode="normal" in2="BackgroundImageFix" result="effect1_dropShadow"/>
<feBlend mode="normal" in="SourceGraphic" in2="effect1_dropShadow" result="shape"/>
</filter>
<linearGradient id="paint0_linear" x1="718" y1="106" x2="831.029" y2="130.126" gradientUnits="userSpaceOnUse">
<stop stop-color="#F17922"/>
<stop offset="1" stop-color="#F7A318"/>
</linearGradient>
<linearGradient id="paint1_linear" x1="743.5" y1="232.023" x2="806.215" y2="232.702" gradientUnits="userSpaceOnUse">
<stop stop-color="#2CA85E"/>
<stop offset="1" stop-color="#2BBC65"/>
</linearGradient>
</defs>
</svg>
