<svg width="399" height="523" viewBox="0 0 399 523" fill="none" xmlns="http://www.w3.org/2000/svg">
<g filter="url(#filter0_d)">
<rect x="12" y="9" width="375" height="500" rx="5" fill="white"/>
</g>
<path d="M68.128 361.248C68.128 362.368 67.8827 363.381 67.392 364.288C66.8907 365.184 66.208 365.888 65.344 366.4C64.4693 366.912 63.488 367.168 62.4 367.168C61.312 367.168 60.336 366.912 59.472 366.4C58.5973 365.888 57.9147 365.179 57.424 364.272C56.9227 363.365 56.672 362.352 56.672 361.232C56.672 360.357 56.8213 359.557 57.12 358.832C57.408 358.107 57.84 357.488 58.416 356.976L59.424 358.016C58.5387 358.859 58.096 359.909 58.096 361.168C58.096 362 58.2827 362.752 58.656 363.424C59.0293 364.096 59.5467 364.624 60.208 365.008C60.8587 365.381 61.5893 365.568 62.4 365.568C63.2107 365.568 63.9467 365.381 64.608 365.008C65.2587 364.624 65.7707 364.096 66.144 363.424C66.5173 362.752 66.704 362 66.704 361.168C66.704 359.92 66.256 358.869 65.36 358.016L66.368 356.976C66.944 357.488 67.3813 358.112 67.68 358.848C67.9787 359.573 68.128 360.373 68.128 361.248ZM59.44 350.532C59.44 349.71 59.6213 348.974 59.984 348.324C60.3467 347.673 60.8533 347.166 61.504 346.804C62.1547 346.43 62.9067 346.244 63.76 346.244C64.6133 346.244 65.3707 346.43 66.032 346.804C66.6827 347.166 67.1893 347.673 67.552 348.324C67.9147 348.974 68.096 349.71 68.096 350.532C68.096 351.14 67.9787 351.7 67.744 352.212C67.5093 352.713 67.168 353.14 66.72 353.492L71.104 353.492L71.104 355.028L59.52 355.028L59.52 353.556L60.864 353.556C60.3947 353.214 60.0427 352.782 59.808 352.26C59.5627 351.737 59.44 351.161 59.44 350.532ZM66.752 350.66C66.752 350.116 66.6293 349.63 66.384 349.204C66.128 348.766 65.776 348.425 65.328 348.18C64.8693 347.924 64.3467 347.796 63.76 347.796C63.1733 347.796 62.656 347.924 62.208 348.18C61.7493 348.425 61.3973 348.766 61.152 349.204C60.9067 349.63 60.784 350.116 60.784 350.66C60.784 351.193 60.912 351.678 61.168 352.116C61.4133 352.542 61.76 352.884 62.208 353.14C62.656 353.385 63.1733 353.508 63.76 353.508C64.3467 353.508 64.8693 353.385 65.328 353.14C65.776 352.894 66.128 352.553 66.384 352.116C66.6293 351.678 66.752 351.193 66.752 350.66ZM63.808 336.348C63.9253 336.348 64.08 336.359 64.272 336.38L64.272 343.26C65.0187 343.164 65.6213 342.839 66.08 342.284C66.528 341.719 66.752 341.02 66.752 340.188C66.752 339.175 66.4107 338.359 65.728 337.74L66.72 336.892C67.168 337.276 67.5093 337.756 67.744 338.332C67.9787 338.897 68.096 339.532 68.096 340.236C68.096 341.132 67.9147 341.927 67.552 342.62C67.1787 343.313 66.6613 343.852 66 344.236C65.3387 344.609 64.592 344.796 63.76 344.796C62.9387 344.796 62.1973 344.615 61.536 344.252C60.8747 343.879 60.3627 343.372 60 342.732C59.6267 342.081 59.44 341.351 59.44 340.54C59.44 339.729 59.6267 339.009 60 338.38C60.3627 337.74 60.8747 337.244 61.536 336.892C62.1973 336.529 62.9547 336.348 63.808 336.348ZM60.736 340.54C60.736 341.276 60.96 341.895 61.408 342.396C61.856 342.887 62.4427 343.175 63.168 343.26L63.168 337.82C62.4533 337.905 61.872 338.199 61.424 338.7C60.9653 339.191 60.736 339.804 60.736 340.54ZM66.656 325.482L69.968 325.482L69.968 326.922L68 326.922L68 334.01L69.968 334.01L69.968 335.466L66.656 335.466L66.656 335.018C66.624 334.474 66.24 334.1 65.504 333.898C64.768 333.695 63.728 333.556 62.384 333.482L59.52 333.354L59.52 326.778L66.656 326.778L66.656 325.482ZM62.496 332.074C63.5627 332.116 64.448 332.207 65.152 332.346C65.8453 332.474 66.3467 332.714 66.656 333.066L66.656 328.314L60.864 328.314L60.864 331.994L62.496 332.074ZM59.52 323.481L59.52 321.945L63.12 321.945L63.12 317.113L59.52 317.113L59.52 315.577L68 315.577L68 317.113L64.448 317.113L64.448 321.945L68 321.945L68 323.481L59.52 323.481ZM63.808 304.926C63.9253 304.926 64.08 304.937 64.272 304.958L64.272 311.838C65.0187 311.742 65.6213 311.417 66.08 310.862C66.528 310.297 66.752 309.598 66.752 308.766C66.752 307.753 66.4107 306.937 65.728 306.318L66.72 305.47C67.168 305.854 67.5093 306.334 67.744 306.91C67.9787 307.475 68.096 308.11 68.096 308.814C68.096 309.71 67.9147 310.505 67.552 311.198C67.1787 311.891 66.6613 312.43 66 312.814C65.3387 313.187 64.592 313.374 63.76 313.374C62.9387 313.374 62.1973 313.193 61.536 312.83C60.8747 312.457 60.3627 311.95 60 311.31C59.6267 310.659 59.44 309.929 59.44 309.118C59.44 308.307 59.6267 307.587 60 306.958C60.3627 306.318 60.8747 305.822 61.536 305.47C62.1973 305.107 62.9547 304.926 63.808 304.926ZM60.736 309.118C60.736 309.854 60.96 310.473 61.408 310.974C61.856 311.465 62.4427 311.753 63.168 311.838L63.168 306.398C62.4533 306.483 61.872 306.777 61.424 307.278C60.9653 307.769 60.736 308.382 60.736 309.118ZM63.808 294.879C63.9253 294.879 64.08 294.89 64.272 294.911L64.272 301.791C65.0187 301.695 65.6213 301.37 66.08 300.815C66.528 300.25 66.752 299.551 66.752 298.719C66.752 297.706 66.4107 296.89 65.728 296.271L66.72 295.423C67.168 295.807 67.5093 296.287 67.744 296.863C67.9787 297.429 68.096 298.063 68.096 298.767C68.096 299.663 67.9147 300.458 67.552 301.151C67.1787 301.845 66.6613 302.383 66 302.767C65.3387 303.141 64.592 303.327 63.76 303.327C62.9387 303.327 62.1973 303.146 61.536 302.783C60.8747 302.41 60.3627 301.903 60 301.263C59.6267 300.613 59.44 299.882 59.44 299.071C59.44 298.261 59.6267 297.541 60 296.911C60.3627 296.271 60.8747 295.775 61.536 295.423C62.1973 295.061 62.9547 294.879 63.808 294.879ZM60.736 299.071C60.736 299.807 60.96 300.426 61.408 300.927C61.856 301.418 62.4427 301.706 63.168 301.791L63.168 296.351C62.4533 296.437 61.872 296.73 61.424 297.231C60.9653 297.722 60.736 298.335 60.736 299.071ZM59.52 281.431L68 281.431L68 282.967L64.576 282.967C65.0027 283.885 65.216 284.797 65.216 285.703C65.216 286.759 64.9707 287.575 64.48 288.151C63.9893 288.727 63.2533 289.015 62.272 289.015L59.52 289.015L59.52 287.479L62.176 287.479C62.7627 287.479 63.2053 287.298 63.504 286.935C63.8027 286.562 63.952 286.045 63.952 285.383C63.952 284.637 63.7653 283.831 63.392 282.967L59.52 282.967L59.52 281.431ZM59.52 278.449L59.52 276.913L65.696 276.913L59.52 271.713L59.52 270.321L68 270.321L68 271.857L61.824 271.857L68 277.041L68 278.449L59.52 278.449ZM68.096 263.644C68.096 264.508 67.9093 265.281 67.536 265.964C67.1627 266.636 66.6507 267.164 66 267.548C65.3387 267.932 64.592 268.124 63.76 268.124C62.928 268.124 62.1867 267.932 61.536 267.548C60.8747 267.164 60.3627 266.636 60 265.964C59.6267 265.281 59.44 264.508 59.44 263.644C59.44 262.876 59.5947 262.193 59.904 261.596C60.2133 260.988 60.6613 260.519 61.248 260.188L62 261.356C61.5947 261.623 61.2907 261.953 61.088 262.348C60.8853 262.743 60.784 263.18 60.784 263.66C60.784 264.215 60.9067 264.716 61.152 265.164C61.3973 265.601 61.7493 265.948 62.208 266.204C62.656 266.449 63.1733 266.572 63.76 266.572C64.3573 266.572 64.8853 266.449 65.344 266.204C65.792 265.948 66.1387 265.601 66.384 265.164C66.6293 264.716 66.752 264.215 66.752 263.66C66.752 263.18 66.6507 262.743 66.448 262.348C66.2453 261.953 65.9413 261.623 65.536 261.356L66.272 260.188C66.8587 260.519 67.312 260.988 67.632 261.596C67.9413 262.193 68.096 262.876 68.096 263.644ZM59.52 251.169L68 251.169L68 252.705L60.864 252.705L60.864 256.353L62.752 256.449C63.8933 256.503 64.848 256.604 65.616 256.753C66.3733 256.903 66.9813 257.148 67.44 257.489C67.8987 257.831 68.128 258.305 68.128 258.913C68.128 259.191 68.08 259.505 67.984 259.857L66.688 259.761C66.72 259.623 66.736 259.495 66.736 259.377C66.736 258.951 66.5493 258.631 66.176 258.417C65.8027 258.204 65.36 258.065 64.848 258.001C64.336 257.937 63.6053 257.879 62.656 257.825L59.52 257.681L59.52 251.169ZM68.096 244.567C68.096 245.41 67.9093 246.167 67.536 246.839C67.1627 247.511 66.6507 248.039 66 248.423C65.3387 248.797 64.592 248.983 63.76 248.983C62.928 248.983 62.1867 248.797 61.536 248.423C60.8747 248.039 60.3627 247.511 60 246.839C59.6267 246.167 59.44 245.41 59.44 244.567C59.44 243.725 59.6267 242.973 60 242.311C60.3627 241.639 60.8747 241.117 61.536 240.743C62.1867 240.359 62.928 240.167 63.76 240.167C64.592 240.167 65.3387 240.359 66 240.743C66.6507 241.117 67.1627 241.639 67.536 242.311C67.9093 242.973 68.096 243.725 68.096 244.567ZM66.752 244.567C66.752 244.023 66.6293 243.538 66.384 243.111C66.128 242.674 65.776 242.333 65.328 242.087C64.8693 241.842 64.3467 241.719 63.76 241.719C63.1733 241.719 62.656 241.842 62.208 242.087C61.7493 242.333 61.3973 242.674 61.152 243.111C60.9067 243.538 60.784 244.023 60.784 244.567C60.784 245.111 60.9067 245.602 61.152 246.039C61.3973 246.466 61.7493 246.807 62.208 247.063C62.656 247.309 63.1733 247.431 63.76 247.431C64.3467 247.431 64.8693 247.309 65.328 247.063C65.776 246.807 66.128 246.466 66.384 246.039C66.6293 245.602 66.752 245.111 66.752 244.567ZM66.656 225.029L69.968 225.029L69.968 226.469L68 226.469L68 233.557L69.968 233.557L69.968 235.013L66.656 235.013L66.656 234.565C66.624 234.021 66.24 233.647 65.504 233.445C64.768 233.242 63.728 233.103 62.384 233.029L59.52 232.901L59.52 226.325L66.656 226.325L66.656 225.029ZM62.496 231.621C63.5627 231.663 64.448 231.754 65.152 231.893C65.8453 232.021 66.3467 232.261 66.656 232.613L66.656 227.861L60.864 227.861L60.864 231.541L62.496 231.621ZM59.52 223.028L59.52 221.492L63.12 221.492L63.12 216.66L59.52 216.66L59.52 215.124L68 215.124L68 216.66L64.448 216.66L64.448 221.492L68 221.492L68 223.028L59.52 223.028ZM63.808 204.473C63.9253 204.473 64.08 204.484 64.272 204.505L64.272 211.385C65.0187 211.289 65.6213 210.964 66.08 210.409C66.528 209.844 66.752 209.145 66.752 208.313C66.752 207.3 66.4107 206.484 65.728 205.865L66.72 205.017C67.168 205.401 67.5093 205.881 67.744 206.457C67.9787 207.022 68.096 207.657 68.096 208.361C68.096 209.257 67.9147 210.052 67.552 210.745C67.1787 211.438 66.6613 211.977 66 212.361C65.3387 212.734 64.592 212.921 63.76 212.921C62.9387 212.921 62.1973 212.74 61.536 212.377C60.8747 212.004 60.3627 211.497 60 210.857C59.6267 210.206 59.44 209.476 59.44 208.665C59.44 207.854 59.6267 207.134 60 206.505C60.3627 205.865 60.8747 205.369 61.536 205.017C62.1973 204.654 62.9547 204.473 63.808 204.473ZM60.736 208.665C60.736 209.401 60.96 210.02 61.408 210.521C61.856 211.012 62.4427 211.3 63.168 211.385L63.168 205.945C62.4533 206.03 61.872 206.324 61.424 206.825C60.9653 207.316 60.736 207.929 60.736 208.665ZM59.52 202.09L59.52 200.554L65.696 200.554L59.52 195.354L59.52 193.962L68 193.962L68 195.498L61.824 195.498L68 200.682L68 202.09L59.52 202.09ZM58.416 198.122C58.416 198.911 58.2293 199.525 57.856 199.962C57.472 200.399 56.9227 200.623 56.208 200.634L56.208 199.594C56.6027 199.583 56.9227 199.45 57.168 199.194C57.4027 198.927 57.52 198.575 57.52 198.138C57.52 197.701 57.4027 197.349 57.168 197.082C56.9227 196.815 56.6027 196.677 56.208 196.666L56.208 195.594C56.9227 195.605 57.472 195.834 57.856 196.282C58.2293 196.73 58.416 197.343 58.416 198.122ZM68.096 182.988C68.096 183.852 67.9093 184.625 67.536 185.308C67.1627 185.98 66.6507 186.508 66 186.892C65.3387 187.276 64.592 187.468 63.76 187.468C62.928 187.468 62.1867 187.276 61.536 186.892C60.8747 186.508 60.3627 185.98 60 185.308C59.6267 184.625 59.44 183.852 59.44 182.988C59.44 182.22 59.5947 181.537 59.904 180.94C60.2133 180.332 60.6613 179.863 61.248 179.532L62 180.7C61.5947 180.967 61.2907 181.297 61.088 181.692C60.8853 182.087 60.784 182.524 60.784 183.004C60.784 183.559 60.9067 184.06 61.152 184.508C61.3973 184.945 61.7493 185.292 62.208 185.548C62.656 185.793 63.1733 185.916 63.76 185.916C64.3573 185.916 64.8853 185.793 65.344 185.548C65.792 185.292 66.1387 184.945 66.384 184.508C66.6293 184.06 66.752 183.559 66.752 183.004C66.752 182.524 66.6507 182.087 66.448 181.692C66.2453 181.297 65.9413 180.967 65.536 180.7L66.272 179.532C66.8587 179.863 67.312 180.332 67.632 180.94C67.9413 181.537 68.096 182.22 68.096 182.988ZM66.656 164.622L69.968 164.622L69.968 166.062L68 166.062L68 173.15L69.968 173.15L69.968 174.606L66.656 174.606L66.656 174.158C66.624 173.614 66.24 173.241 65.504 173.038C64.768 172.836 63.728 172.697 62.384 172.622L59.52 172.494L59.52 165.918L66.656 165.918L66.656 164.622ZM62.496 171.214C63.5627 171.257 64.448 171.348 65.152 171.486C65.8453 171.614 66.3467 171.854 66.656 172.206L66.656 167.454L60.864 167.454L60.864 171.134L62.496 171.214ZM59.52 162.621L59.52 161.085L65.696 161.085L59.52 155.885L59.52 154.493L68 154.493L68 156.029L61.824 156.029L68 161.213L68 162.621L59.52 162.621ZM59.44 148.488C59.44 147.315 59.728 146.419 60.304 145.8C60.88 145.171 61.7387 144.856 62.88 144.856L68 144.856L68 146.312L66.88 146.312C67.2747 146.568 67.5787 146.936 67.792 147.416C67.9947 147.885 68.096 148.445 68.096 149.096C68.096 150.045 67.8667 150.808 67.408 151.384C66.9493 151.949 66.3467 152.232 65.6 152.232C64.8533 152.232 64.256 151.96 63.808 151.416C63.3493 150.872 63.12 150.008 63.12 148.824L63.12 146.392L62.816 146.392C62.1547 146.392 61.648 146.584 61.296 146.968C60.944 147.352 60.768 147.917 60.768 148.664C60.768 149.165 60.8533 149.656 61.024 150.136C61.184 150.616 61.4027 151.021 61.68 151.352L60.528 151.992C60.176 151.555 59.9093 151.032 59.728 150.424C59.536 149.816 59.44 149.171 59.44 148.488ZM66.912 148.84C66.912 148.253 66.784 147.747 66.528 147.32C66.2613 146.893 65.888 146.584 65.408 146.392L64.224 146.392L64.224 148.76C64.224 150.061 64.6613 150.712 65.536 150.712C65.9627 150.712 66.2987 150.547 66.544 150.216C66.7893 149.885 66.912 149.427 66.912 148.84ZM59.44 137.594C59.44 136.773 59.6213 136.037 59.984 135.386C60.3467 134.735 60.8533 134.229 61.504 133.866C62.1547 133.493 62.9067 133.306 63.76 133.306C64.6133 133.306 65.3707 133.493 66.032 133.866C66.6827 134.229 67.1893 134.735 67.552 135.386C67.9147 136.037 68.096 136.773 68.096 137.594C68.096 138.202 67.9787 138.762 67.744 139.274C67.5093 139.775 67.168 140.202 66.72 140.554L71.104 140.554L71.104 142.09L59.52 142.09L59.52 140.618L60.864 140.618C60.3947 140.277 60.0427 139.845 59.808 139.322C59.5627 138.799 59.44 138.223 59.44 137.594ZM66.752 137.722C66.752 137.178 66.6293 136.693 66.384 136.266C66.128 135.829 65.776 135.487 65.328 135.242C64.8693 134.986 64.3467 134.858 63.76 134.858C63.1733 134.858 62.656 134.986 62.208 135.242C61.7493 135.487 61.3973 135.829 61.152 136.266C60.9067 136.693 60.784 137.178 60.784 137.722C60.784 138.255 60.912 138.741 61.168 139.178C61.4133 139.605 61.76 139.946 62.208 140.202C62.656 140.447 63.1733 140.57 63.76 140.57C64.3467 140.57 64.8693 140.447 65.328 140.202C65.776 139.957 66.128 139.615 66.384 139.178C66.6293 138.741 66.752 138.255 66.752 137.722ZM63.808 123.41C63.9253 123.41 64.08 123.421 64.272 123.442L64.272 130.322C65.0187 130.226 65.6213 129.901 66.08 129.346C66.528 128.781 66.752 128.082 66.752 127.25C66.752 126.237 66.4107 125.421 65.728 124.802L66.72 123.954C67.168 124.338 67.5093 124.818 67.744 125.394C67.9787 125.96 68.096 126.594 68.096 127.298C68.096 128.194 67.9147 128.989 67.552 129.682C67.1787 130.376 66.6613 130.914 66 131.298C65.3387 131.672 64.592 131.858 63.76 131.858C62.9387 131.858 62.1973 131.677 61.536 131.314C60.8747 130.941 60.3627 130.434 60 129.794C59.6267 129.144 59.44 128.413 59.44 127.602C59.44 126.792 59.6267 126.072 60 125.442C60.3627 124.802 60.8747 124.306 61.536 123.954C62.1973 123.592 62.9547 123.41 63.808 123.41ZM60.736 127.602C60.736 128.338 60.96 128.957 61.408 129.458C61.856 129.949 62.4427 130.237 63.168 130.322L63.168 124.882C62.4533 124.968 61.872 125.261 61.424 125.762C60.9653 126.253 60.736 126.866 60.736 127.602ZM63.808 113.364C63.9253 113.364 64.08 113.374 64.272 113.396L64.272 120.276C65.0187 120.18 65.6213 119.854 66.08 119.3C66.528 118.734 66.752 118.036 66.752 117.204C66.752 116.19 66.4107 115.374 65.728 114.756L66.72 113.908C67.168 114.292 67.5093 114.772 67.744 115.348C67.9787 115.913 68.096 116.548 68.096 117.252C68.096 118.148 67.9147 118.942 67.552 119.636C67.1787 120.329 66.6613 120.868 66 121.252C65.3387 121.625 64.592 121.812 63.76 121.812C62.9387 121.812 62.1973 121.63 61.536 121.268C60.8747 120.894 60.3627 120.388 60 119.748C59.6267 119.097 59.44 118.366 59.44 117.556C59.44 116.745 59.6267 116.025 60 115.396C60.3627 114.756 60.8747 114.26 61.536 113.908C62.1973 113.545 62.9547 113.364 63.808 113.364ZM60.736 117.556C60.736 118.292 60.96 118.91 61.408 119.412C61.856 119.902 62.4427 120.19 63.168 120.276L63.168 114.836C62.4533 114.921 61.872 115.214 61.424 115.716C60.9653 116.206 60.736 116.82 60.736 117.556ZM59.52 110.981L59.52 109.445L65.696 109.445L59.52 104.245L59.52 102.853L68 102.853L68 104.389L61.824 104.389L68 109.573L68 110.981L59.52 110.981ZM58.416 107.013C58.416 107.802 58.2293 108.415 57.856 108.853C57.472 109.29 56.9227 109.514 56.208 109.525L56.208 108.485C56.6027 108.474 56.9227 108.341 57.168 108.085C57.4027 107.818 57.52 107.466 57.52 107.029C57.52 106.591 57.4027 106.239 57.168 105.973C56.9227 105.706 56.6027 105.567 56.208 105.557L56.208 104.485C56.9227 104.495 57.472 104.725 57.856 105.173C58.2293 105.621 58.416 106.234 58.416 107.013Z" fill="#4A4646"/>
<path d="M61.55 465.39C62.01 465.49 62.3633 465.69 62.61 465.99C62.8633 466.283 62.99 466.663 62.99 467.13C62.99 467.73 62.7667 468.193 62.32 468.52C61.88 468.84 61.2267 469 60.36 469H57.14V462H60.16C60.94 462 61.5433 462.157 61.97 462.47C62.4033 462.783 62.62 463.227 62.62 463.8C62.62 464.187 62.5233 464.517 62.33 464.79C62.1433 465.057 61.8833 465.257 61.55 465.39ZM57.88 462.61V465.15H60.11C60.6767 465.15 61.1133 465.043 61.42 464.83C61.7267 464.61 61.88 464.293 61.88 463.88C61.88 463.467 61.7267 463.153 61.42 462.94C61.1133 462.72 60.6767 462.61 60.11 462.61H57.88ZM60.35 468.39C60.9767 468.39 61.45 468.283 61.77 468.07C62.09 467.857 62.25 467.523 62.25 467.07C62.25 466.197 61.6167 465.76 60.35 465.76H57.88V468.39H60.35ZM67.2091 463.7C67.8691 463.7 68.3924 463.893 68.7791 464.28C69.1724 464.66 69.3691 465.217 69.3691 465.95V469H68.6591V466.02C68.6591 465.473 68.5224 465.057 68.2491 464.77C67.9757 464.483 67.5857 464.34 67.0791 464.34C66.5124 464.34 66.0624 464.51 65.7291 464.85C65.4024 465.183 65.2391 465.647 65.2391 466.24V469H64.5291V461.58H65.2391V464.66C65.4324 464.353 65.6991 464.117 66.0391 463.95C66.3791 463.783 66.7691 463.7 67.2091 463.7ZM73.1366 463.7C73.8233 463.7 74.35 463.873 74.7166 464.22C75.0833 464.56 75.2666 465.067 75.2666 465.74V469H74.5866V468.18C74.4266 468.453 74.19 468.667 73.8766 468.82C73.57 468.973 73.2033 469.05 72.7766 469.05C72.19 469.05 71.7233 468.91 71.3766 468.63C71.03 468.35 70.8566 467.98 70.8566 467.52C70.8566 467.073 71.0166 466.713 71.3366 466.44C71.6633 466.167 72.18 466.03 72.8866 466.03H74.5566V465.71C74.5566 465.257 74.43 464.913 74.1766 464.68C73.9233 464.44 73.5533 464.32 73.0666 464.32C72.7333 464.32 72.4133 464.377 72.1066 464.49C71.8 464.597 71.5366 464.747 71.3166 464.94L70.9966 464.41C71.2633 464.183 71.5833 464.01 71.9566 463.89C72.33 463.763 72.7233 463.7 73.1366 463.7ZM72.8866 468.49C73.2866 468.49 73.63 468.4 73.9166 468.22C74.2033 468.033 74.4166 467.767 74.5566 467.42V466.56H72.9066C72.0066 466.56 71.5566 466.873 71.5566 467.5C71.5566 467.807 71.6733 468.05 71.9066 468.23C72.14 468.403 72.4666 468.49 72.8866 468.49ZM77.1951 461.58H77.9051V469H77.1951V461.58ZM79.8806 461.58H80.5906V469H79.8806V461.58ZM84.4062 463.7C85.0928 463.7 85.6195 463.873 85.9862 464.22C86.3528 464.56 86.5362 465.067 86.5362 465.74V469H85.8562V468.18C85.6962 468.453 85.4595 468.667 85.1462 468.82C84.8395 468.973 84.4728 469.05 84.0462 469.05C83.4595 469.05 82.9928 468.91 82.6462 468.63C82.2995 468.35 82.1262 467.98 82.1262 467.52C82.1262 467.073 82.2862 466.713 82.6062 466.44C82.9328 466.167 83.4495 466.03 84.1562 466.03H85.8262V465.71C85.8262 465.257 85.6995 464.913 85.4462 464.68C85.1928 464.44 84.8228 464.32 84.3362 464.32C84.0028 464.32 83.6828 464.377 83.3762 464.49C83.0695 464.597 82.8062 464.747 82.5862 464.94L82.2662 464.41C82.5328 464.183 82.8528 464.01 83.2262 463.89C83.5995 463.763 83.9928 463.7 84.4062 463.7ZM84.1562 468.49C84.5562 468.49 84.8995 468.4 85.1862 468.22C85.4728 468.033 85.6862 467.767 85.8262 467.42V466.56H84.1762C83.2762 466.56 82.8262 466.873 82.8262 467.5C82.8262 467.807 82.9428 468.05 83.1762 468.23C83.4095 468.403 83.7362 468.49 84.1562 468.49ZM95.6218 467.13H91.7218L90.8818 469H90.1118L93.3118 462H94.0418L97.2418 469H96.4618L95.6218 467.13ZM95.3518 466.53L93.6718 462.77L91.9918 466.53H95.3518ZM98.6616 469.05C98.5149 469.05 98.3882 468.997 98.2816 468.89C98.1816 468.783 98.1316 468.653 98.1316 468.5C98.1316 468.347 98.1816 468.22 98.2816 468.12C98.3882 468.013 98.5149 467.96 98.6616 467.96C98.8082 467.96 98.9349 468.013 99.0416 468.12C99.1482 468.22 99.2016 468.347 99.2016 468.5C99.2016 468.653 99.1482 468.783 99.0416 468.89C98.9349 468.997 98.8082 469.05 98.6616 469.05ZM107.908 466.59H103.508C103.548 467.137 103.758 467.58 104.138 467.92C104.518 468.253 104.998 468.42 105.578 468.42C105.905 468.42 106.205 468.363 106.478 468.25C106.751 468.13 106.988 467.957 107.188 467.73L107.588 468.19C107.355 468.47 107.061 468.683 106.708 468.83C106.361 468.977 105.978 469.05 105.558 469.05C105.018 469.05 104.538 468.937 104.118 468.71C103.705 468.477 103.381 468.157 103.148 467.75C102.915 467.343 102.798 466.883 102.798 466.37C102.798 465.857 102.908 465.397 103.128 464.99C103.355 464.583 103.661 464.267 104.048 464.04C104.441 463.813 104.881 463.7 105.368 463.7C105.855 463.7 106.291 463.813 106.678 464.04C107.065 464.267 107.368 464.583 107.588 464.99C107.808 465.39 107.918 465.85 107.918 466.37L107.908 466.59ZM105.368 464.31C104.861 464.31 104.435 464.473 104.088 464.8C103.748 465.12 103.555 465.54 103.508 466.06H107.238C107.191 465.54 106.995 465.12 106.648 464.8C106.308 464.473 105.881 464.31 105.368 464.31ZM112.133 468.68C112 468.8 111.833 468.893 111.633 468.96C111.44 469.02 111.236 469.05 111.023 469.05C110.53 469.05 110.15 468.917 109.883 468.65C109.616 468.383 109.483 468.007 109.483 467.52V464.34H108.543V463.74H109.483V462.59H110.193V463.74H111.793V464.34H110.193V467.48C110.193 467.793 110.27 468.033 110.423 468.2C110.583 468.36 110.81 468.44 111.103 468.44C111.25 468.44 111.39 468.417 111.523 468.37C111.663 468.323 111.783 468.257 111.883 468.17L112.133 468.68ZM117.883 463.7C118.569 463.7 119.096 463.873 119.463 464.22C119.829 464.56 120.013 465.067 120.013 465.74V469H119.333V468.18C119.173 468.453 118.936 468.667 118.623 468.82C118.316 468.973 117.949 469.05 117.523 469.05C116.936 469.05 116.469 468.91 116.123 468.63C115.776 468.35 115.603 467.98 115.603 467.52C115.603 467.073 115.763 466.713 116.083 466.44C116.409 466.167 116.926 466.03 117.633 466.03H119.303V465.71C119.303 465.257 119.176 464.913 118.923 464.68C118.669 464.44 118.299 464.32 117.813 464.32C117.479 464.32 117.159 464.377 116.853 464.49C116.546 464.597 116.283 464.747 116.063 464.94L115.743 464.41C116.009 464.183 116.329 464.01 116.703 463.89C117.076 463.763 117.469 463.7 117.883 463.7ZM117.633 468.49C118.033 468.49 118.376 468.4 118.663 468.22C118.949 468.033 119.163 467.767 119.303 467.42V466.56H117.653C116.753 466.56 116.303 466.873 116.303 467.5C116.303 467.807 116.419 468.05 116.653 468.23C116.886 468.403 117.213 468.49 117.633 468.49ZM121.941 461.58H122.651V469H121.941V461.58ZM124.697 469.05C124.55 469.05 124.423 468.997 124.317 468.89C124.217 468.783 124.167 468.653 124.167 468.5C124.167 468.347 124.217 468.22 124.317 468.12C124.423 468.013 124.55 467.96 124.697 467.96C124.843 467.96 124.97 468.013 125.077 468.12C125.183 468.22 125.237 468.347 125.237 468.5C125.237 468.653 125.183 468.783 125.077 468.89C124.97 468.997 124.843 469.05 124.697 469.05ZM126.826 467.96C126.979 467.96 127.106 468.013 127.206 468.12C127.306 468.22 127.356 468.347 127.356 468.5C127.356 468.58 127.343 468.667 127.316 468.76C127.296 468.853 127.263 468.96 127.216 469.08L126.796 470.46H126.316L126.656 469.01C126.549 468.977 126.463 468.917 126.396 468.83C126.329 468.737 126.296 468.627 126.296 468.5C126.296 468.347 126.346 468.22 126.446 468.12C126.546 468.013 126.673 467.96 126.826 467.96ZM132.382 469.06C131.982 469.06 131.612 468.973 131.272 468.8C130.932 468.627 130.656 468.38 130.442 468.06L130.882 467.56C131.269 468.133 131.772 468.42 132.392 468.42C133.259 468.42 133.692 467.907 133.692 466.88V462.64H131.132V462H134.422V466.85C134.422 467.583 134.249 468.137 133.902 468.51C133.562 468.877 133.056 469.06 132.382 469.06ZM142.299 469.06C141.606 469.06 140.979 468.907 140.419 468.6C139.866 468.293 139.429 467.87 139.109 467.33C138.796 466.783 138.639 466.173 138.639 465.5C138.639 464.827 138.796 464.22 139.109 463.68C139.429 463.133 139.869 462.707 140.429 462.4C140.989 462.093 141.616 461.94 142.309 461.94C142.829 461.94 143.309 462.027 143.749 462.2C144.189 462.373 144.562 462.627 144.869 462.96L144.399 463.43C143.852 462.877 143.162 462.6 142.329 462.6C141.776 462.6 141.272 462.727 140.819 462.98C140.366 463.233 140.009 463.58 139.749 464.02C139.496 464.46 139.369 464.953 139.369 465.5C139.369 466.047 139.496 466.54 139.749 466.98C140.009 467.42 140.366 467.767 140.819 468.02C141.272 468.273 141.776 468.4 142.329 468.4C143.169 468.4 143.859 468.12 144.399 467.56L144.869 468.03C144.562 468.363 144.186 468.62 143.739 468.8C143.299 468.973 142.819 469.06 142.299 469.06ZM146.297 461.58H147.007V469H146.297V461.58ZM148.982 463.74H149.692V469H148.982V463.74ZM149.342 462.59C149.196 462.59 149.072 462.54 148.972 462.44C148.872 462.34 148.822 462.22 148.822 462.08C148.822 461.947 148.872 461.83 148.972 461.73C149.072 461.63 149.196 461.58 149.342 461.58C149.489 461.58 149.612 461.63 149.712 461.73C149.812 461.823 149.862 461.937 149.862 462.07C149.862 462.217 149.812 462.34 149.712 462.44C149.612 462.54 149.489 462.59 149.342 462.59ZM154.348 463.7C155.008 463.7 155.531 463.893 155.918 464.28C156.311 464.66 156.508 465.217 156.508 465.95V469H155.798V466.02C155.798 465.473 155.661 465.057 155.388 464.77C155.114 464.483 154.724 464.34 154.218 464.34C153.651 464.34 153.201 464.51 152.868 464.85C152.541 465.183 152.378 465.647 152.378 466.24V469H151.668V463.74H152.348V464.71C152.541 464.39 152.808 464.143 153.148 463.97C153.494 463.79 153.894 463.7 154.348 463.7ZM163.823 462C164.716 462 165.416 462.213 165.923 462.64C166.429 463.067 166.683 463.653 166.683 464.4C166.683 465.147 166.429 465.733 165.923 466.16C165.416 466.58 164.716 466.79 163.823 466.79H161.943V469H161.203V462H163.823ZM163.803 466.14C164.496 466.14 165.026 465.99 165.393 465.69C165.759 465.383 165.942 464.953 165.942 464.4C165.942 463.833 165.759 463.4 165.393 463.1C165.026 462.793 164.496 462.64 163.803 462.64H161.943V466.14H163.803ZM170.91 463.7C171.57 463.7 172.094 463.893 172.48 464.28C172.874 464.66 173.07 465.217 173.07 465.95V469H172.36V466.02C172.36 465.473 172.224 465.057 171.95 464.77C171.677 464.483 171.287 464.34 170.78 464.34C170.214 464.34 169.764 464.51 169.43 464.85C169.104 465.183 168.94 465.647 168.94 466.24V469H168.23V461.58H168.94V464.66C169.134 464.353 169.4 464.117 169.74 463.95C170.08 463.783 170.47 463.7 170.91 463.7ZM176.838 463.7C177.524 463.7 178.051 463.873 178.418 464.22C178.784 464.56 178.968 465.067 178.968 465.74V469H178.288V468.18C178.128 468.453 177.891 468.667 177.578 468.82C177.271 468.973 176.904 469.05 176.478 469.05C175.891 469.05 175.424 468.91 175.078 468.63C174.731 468.35 174.558 467.98 174.558 467.52C174.558 467.073 174.718 466.713 175.038 466.44C175.364 466.167 175.881 466.03 176.588 466.03H178.258V465.71C178.258 465.257 178.131 464.913 177.878 464.68C177.624 464.44 177.254 464.32 176.768 464.32C176.434 464.32 176.114 464.377 175.808 464.49C175.501 464.597 175.238 464.747 175.018 464.94L174.698 464.41C174.964 464.183 175.284 464.01 175.658 463.89C176.031 463.763 176.424 463.7 176.838 463.7ZM176.588 468.49C176.988 468.49 177.331 468.4 177.618 468.22C177.904 468.033 178.118 467.767 178.258 467.42V466.56H176.608C175.708 466.56 175.258 466.873 175.258 467.5C175.258 467.807 175.374 468.05 175.608 468.23C175.841 468.403 176.168 468.49 176.588 468.49ZM181.576 464.77C181.743 464.417 181.99 464.15 182.316 463.97C182.65 463.79 183.06 463.7 183.546 463.7V464.39L183.376 464.38C182.823 464.38 182.39 464.55 182.076 464.89C181.763 465.23 181.606 465.707 181.606 466.32V469H180.896V463.74H181.576V464.77ZM191.392 463.7C192.052 463.7 192.568 463.89 192.942 464.27C193.322 464.65 193.512 465.21 193.512 465.95V469H192.802V466.02C192.802 465.473 192.668 465.057 192.402 464.77C192.142 464.483 191.772 464.34 191.292 464.34C190.745 464.34 190.315 464.51 190.002 464.85C189.688 465.183 189.532 465.647 189.532 466.24V469H188.822V466.02C188.822 465.473 188.688 465.057 188.422 464.77C188.162 464.483 187.788 464.34 187.302 464.34C186.762 464.34 186.332 464.51 186.012 464.85C185.698 465.183 185.542 465.647 185.542 466.24V469H184.832V463.74H185.512V464.7C185.698 464.38 185.958 464.133 186.292 463.96C186.625 463.787 187.008 463.7 187.442 463.7C187.882 463.7 188.262 463.793 188.582 463.98C188.908 464.167 189.152 464.443 189.312 464.81C189.505 464.463 189.782 464.193 190.142 464C190.508 463.8 190.925 463.7 191.392 463.7ZM197.277 463.7C197.964 463.7 198.491 463.873 198.857 464.22C199.224 464.56 199.407 465.067 199.407 465.74V469H198.727V468.18C198.567 468.453 198.331 468.667 198.017 468.82C197.711 468.973 197.344 469.05 196.917 469.05C196.331 469.05 195.864 468.91 195.517 468.63C195.171 468.35 194.997 467.98 194.997 467.52C194.997 467.073 195.157 466.713 195.477 466.44C195.804 466.167 196.321 466.03 197.027 466.03H198.697V465.71C198.697 465.257 198.571 464.913 198.317 464.68C198.064 464.44 197.694 464.32 197.207 464.32C196.874 464.32 196.554 464.377 196.247 464.49C195.941 464.597 195.677 464.747 195.457 464.94L195.137 464.41C195.404 464.183 195.724 464.01 196.097 463.89C196.471 463.763 196.864 463.7 197.277 463.7ZM197.027 468.49C197.427 468.49 197.771 468.4 198.057 468.22C198.344 468.033 198.557 467.767 198.697 467.42V466.56H197.047C196.147 466.56 195.697 466.873 195.697 467.5C195.697 467.807 195.814 468.05 196.047 468.23C196.281 468.403 196.607 468.49 197.027 468.49ZM203.535 469.05C203.015 469.05 202.549 468.937 202.135 468.71C201.729 468.483 201.409 468.167 201.175 467.76C200.942 467.347 200.825 466.883 200.825 466.37C200.825 465.857 200.942 465.397 201.175 464.99C201.409 464.583 201.729 464.267 202.135 464.04C202.549 463.813 203.015 463.7 203.535 463.7C203.989 463.7 204.392 463.79 204.745 463.97C205.105 464.143 205.389 464.4 205.595 464.74L205.065 465.1C204.892 464.84 204.672 464.647 204.405 464.52C204.139 464.387 203.849 464.32 203.535 464.32C203.155 464.32 202.812 464.407 202.505 464.58C202.205 464.747 201.969 464.987 201.795 465.3C201.629 465.613 201.545 465.97 201.545 466.37C201.545 466.777 201.629 467.137 201.795 467.45C201.969 467.757 202.205 467.997 202.505 468.17C202.812 468.337 203.155 468.42 203.535 468.42C203.849 468.42 204.139 468.357 204.405 468.23C204.672 468.103 204.892 467.91 205.065 467.65L205.595 468.01C205.389 468.35 205.105 468.61 204.745 468.79C204.385 468.963 203.982 469.05 203.535 469.05ZM209.052 469.05C208.545 469.05 208.089 468.937 207.682 468.71C207.275 468.477 206.955 468.157 206.722 467.75C206.489 467.343 206.372 466.883 206.372 466.37C206.372 465.857 206.489 465.397 206.722 464.99C206.955 464.583 207.275 464.267 207.682 464.04C208.089 463.813 208.545 463.7 209.052 463.7C209.559 463.7 210.015 463.813 210.422 464.04C210.829 464.267 211.145 464.583 211.372 464.99C211.605 465.397 211.722 465.857 211.722 466.37C211.722 466.883 211.605 467.343 211.372 467.75C211.145 468.157 210.829 468.477 210.422 468.71C210.015 468.937 209.559 469.05 209.052 469.05ZM209.052 468.42C209.425 468.42 209.759 468.337 210.052 468.17C210.352 467.997 210.585 467.753 210.752 467.44C210.919 467.127 211.002 466.77 211.002 466.37C211.002 465.97 210.919 465.613 210.752 465.3C210.585 464.987 210.352 464.747 210.052 464.58C209.759 464.407 209.425 464.32 209.052 464.32C208.679 464.32 208.342 464.407 208.042 464.58C207.749 464.747 207.515 464.987 207.342 465.3C207.175 465.613 207.092 465.97 207.092 466.37C207.092 466.77 207.175 467.127 207.342 467.44C207.515 467.753 207.749 467.997 208.042 468.17C208.342 468.337 208.679 468.42 209.052 468.42ZM213.172 461.58H213.882V469H213.172V461.58ZM215.927 469.05C215.781 469.05 215.654 468.997 215.547 468.89C215.447 468.783 215.397 468.653 215.397 468.5C215.397 468.347 215.447 468.22 215.547 468.12C215.654 468.013 215.781 467.96 215.927 467.96C216.074 467.96 216.201 468.013 216.307 468.12C216.414 468.22 216.467 468.347 216.467 468.5C216.467 468.653 216.414 468.783 216.307 468.89C216.201 468.997 216.074 469.05 215.927 469.05ZM218.056 467.96C218.21 467.96 218.336 468.013 218.436 468.12C218.536 468.22 218.586 468.347 218.586 468.5C218.586 468.58 218.573 468.667 218.546 468.76C218.526 468.853 218.493 468.96 218.446 469.08L218.026 470.46H217.546L217.886 469.01C217.78 468.977 217.693 468.917 217.626 468.83C217.56 468.737 217.526 468.627 217.526 468.5C217.526 468.347 217.576 468.22 217.676 468.12C217.776 468.013 217.903 467.96 218.056 467.96ZM227.023 468.36V469H222.113V468.49L225.023 465.64C225.389 465.28 225.636 464.97 225.763 464.71C225.896 464.443 225.963 464.177 225.963 463.91C225.963 463.497 225.819 463.177 225.533 462.95C225.253 462.717 224.849 462.6 224.323 462.6C223.503 462.6 222.866 462.86 222.413 463.38L221.903 462.94C222.176 462.62 222.523 462.373 222.943 462.2C223.369 462.027 223.849 461.94 224.383 461.94C225.096 461.94 225.659 462.11 226.073 462.45C226.493 462.783 226.703 463.243 226.703 463.83C226.703 464.19 226.623 464.537 226.463 464.87C226.303 465.203 225.999 465.587 225.553 466.02L223.173 468.36H227.023ZM230.677 469.06C230.137 469.06 229.654 468.917 229.227 468.63C228.807 468.343 228.477 467.933 228.237 467.4C228.004 466.86 227.887 466.227 227.887 465.5C227.887 464.773 228.004 464.143 228.237 463.61C228.477 463.07 228.807 462.657 229.227 462.37C229.654 462.083 230.137 461.94 230.677 461.94C231.217 461.94 231.697 462.083 232.117 462.37C232.544 462.657 232.877 463.07 233.117 463.61C233.357 464.143 233.477 464.773 233.477 465.5C233.477 466.227 233.357 466.86 233.117 467.4C232.877 467.933 232.544 468.343 232.117 468.63C231.697 468.917 231.217 469.06 230.677 469.06ZM230.677 468.4C231.084 468.4 231.441 468.287 231.747 468.06C232.061 467.833 232.304 467.503 232.477 467.07C232.651 466.637 232.737 466.113 232.737 465.5C232.737 464.887 232.651 464.363 232.477 463.93C232.304 463.497 232.061 463.167 231.747 462.94C231.441 462.713 231.084 462.6 230.677 462.6C230.271 462.6 229.911 462.713 229.597 462.94C229.291 463.167 229.051 463.497 228.877 463.93C228.704 464.363 228.617 464.887 228.617 465.5C228.617 466.113 228.704 466.637 228.877 467.07C229.051 467.503 229.291 467.833 229.597 468.06C229.911 468.287 230.271 468.4 230.677 468.4ZM236.429 462V469H235.709V462.64L234.059 462.64V462L236.429 462ZM240.042 462V469H239.322V462.64H237.672V462H240.042ZM242.255 464.79C242.109 464.79 241.982 464.737 241.875 464.63C241.775 464.523 241.725 464.393 241.725 464.24C241.725 464.087 241.775 463.96 241.875 463.86C241.982 463.753 242.109 463.7 242.255 463.7C242.402 463.7 242.529 463.753 242.635 463.86C242.742 463.96 242.795 464.087 242.795 464.24C242.795 464.393 242.742 464.523 242.635 464.63C242.529 464.737 242.402 464.79 242.255 464.79ZM242.265 467.96C242.419 467.96 242.545 468.013 242.645 468.12C242.745 468.22 242.795 468.347 242.795 468.5C242.795 468.58 242.782 468.667 242.755 468.76C242.735 468.853 242.702 468.96 242.655 469.08L242.235 470.46H241.755L242.095 469.01C241.989 468.977 241.902 468.917 241.835 468.83C241.769 468.737 241.735 468.627 241.735 468.5C241.735 468.347 241.785 468.22 241.885 468.12C241.985 468.013 242.112 467.96 242.265 467.96ZM60.18 481.06C59.4867 481.06 58.86 480.907 58.3 480.6C57.7467 480.293 57.31 479.87 56.99 479.33C56.6767 478.783 56.52 478.173 56.52 477.5C56.52 476.827 56.6767 476.22 56.99 475.68C57.31 475.133 57.75 474.707 58.31 474.4C58.87 474.093 59.4967 473.94 60.19 473.94C60.71 473.94 61.19 474.027 61.63 474.2C62.07 474.373 62.4433 474.627 62.75 474.96L62.28 475.43C61.7333 474.877 61.0433 474.6 60.21 474.6C59.6567 474.6 59.1533 474.727 58.7 474.98C58.2467 475.233 57.89 475.58 57.63 476.02C57.3767 476.46 57.25 476.953 57.25 477.5C57.25 478.047 57.3767 478.54 57.63 478.98C57.89 479.42 58.2467 479.767 58.7 480.02C59.1533 480.273 59.6567 480.4 60.21 480.4C61.05 480.4 61.74 480.12 62.28 479.56L62.75 480.03C62.4433 480.363 62.0667 480.62 61.62 480.8C61.18 480.973 60.7 481.06 60.18 481.06ZM66.8575 475.7C67.5175 475.7 68.0408 475.893 68.4275 476.28C68.8208 476.66 69.0175 477.217 69.0175 477.95V481H68.3075V478.02C68.3075 477.473 68.1708 477.057 67.8975 476.77C67.6242 476.483 67.2342 476.34 66.7275 476.34C66.1608 476.34 65.7108 476.51 65.3775 476.85C65.0508 477.183 64.8875 477.647 64.8875 478.24V481H64.1775V473.58H64.8875V476.66C65.0808 476.353 65.3475 476.117 65.6875 475.95C66.0275 475.783 66.4175 475.7 66.8575 475.7ZM72.7851 475.7C73.4717 475.7 73.9984 475.873 74.3651 476.22C74.7317 476.56 74.9151 477.067 74.9151 477.74V481H74.2351V480.18C74.0751 480.453 73.8384 480.667 73.5251 480.82C73.2184 480.973 72.8517 481.05 72.4251 481.05C71.8384 481.05 71.3717 480.91 71.0251 480.63C70.6784 480.35 70.5051 479.98 70.5051 479.52C70.5051 479.073 70.6651 478.713 70.9851 478.44C71.3117 478.167 71.8284 478.03 72.5351 478.03H74.2051V477.71C74.2051 477.257 74.0784 476.913 73.8251 476.68C73.5717 476.44 73.2017 476.32 72.7151 476.32C72.3817 476.32 72.0617 476.377 71.7551 476.49C71.4484 476.597 71.1851 476.747 70.9651 476.94L70.6451 476.41C70.9117 476.183 71.2317 476.01 71.6051 475.89C71.9784 475.763 72.3717 475.7 72.7851 475.7ZM72.5351 480.49C72.9351 480.49 73.2784 480.4 73.5651 480.22C73.8517 480.033 74.0651 479.767 74.2051 479.42V478.56H72.5551C71.6551 478.56 71.2051 478.873 71.2051 479.5C71.2051 479.807 71.3217 480.05 71.5551 480.23C71.7884 480.403 72.1151 480.49 72.5351 480.49ZM79.6135 480.68C79.4802 480.8 79.3135 480.893 79.1135 480.96C78.9202 481.02 78.7168 481.05 78.5035 481.05C78.0102 481.05 77.6302 480.917 77.3635 480.65C77.0968 480.383 76.9635 480.007 76.9635 479.52V476.34H76.0235V475.74H76.9635V474.59H77.6735V475.74H79.2735V476.34H77.6735V479.48C77.6735 479.793 77.7502 480.033 77.9035 480.2C78.0635 480.36 78.2902 480.44 78.5835 480.44C78.7302 480.44 78.8702 480.417 79.0035 480.37C79.1435 480.323 79.2635 480.257 79.3635 480.17L79.6135 480.68ZM86.2932 480.68C86.1599 480.8 85.9932 480.893 85.7932 480.96C85.5999 481.02 85.3965 481.05 85.1832 481.05C84.6899 481.05 84.3099 480.917 84.0432 480.65C83.7765 480.383 83.6432 480.007 83.6432 479.52V476.34H82.7032V475.74H83.6432V474.59H84.3532V475.74H85.9532V476.34H84.3532V479.48C84.3532 479.793 84.4299 480.033 84.5832 480.2C84.7432 480.36 84.9699 480.44 85.2632 480.44C85.4099 480.44 85.5499 480.417 85.6832 480.37C85.8232 480.323 85.9432 480.257 86.0432 480.17L86.2932 480.68ZM91.9802 478.59H87.5802C87.6202 479.137 87.8302 479.58 88.2102 479.92C88.5902 480.253 89.0702 480.42 89.6502 480.42C89.9768 480.42 90.2768 480.363 90.5502 480.25C90.8235 480.13 91.0602 479.957 91.2602 479.73L91.6602 480.19C91.4268 480.47 91.1335 480.683 90.7802 480.83C90.4335 480.977 90.0502 481.05 89.6302 481.05C89.0902 481.05 88.6102 480.937 88.1902 480.71C87.7768 480.477 87.4535 480.157 87.2202 479.75C86.9868 479.343 86.8702 478.883 86.8702 478.37C86.8702 477.857 86.9802 477.397 87.2002 476.99C87.4268 476.583 87.7335 476.267 88.1202 476.04C88.5135 475.813 88.9535 475.7 89.4402 475.7C89.9268 475.7 90.3635 475.813 90.7502 476.04C91.1368 476.267 91.4402 476.583 91.6602 476.99C91.8802 477.39 91.9902 477.85 91.9902 478.37L91.9802 478.59ZM89.4402 476.31C88.9335 476.31 88.5068 476.473 88.1602 476.8C87.8202 477.12 87.6268 477.54 87.5802 478.06H91.3102C91.2635 477.54 91.0668 477.12 90.7202 476.8C90.3802 476.473 89.9535 476.31 89.4402 476.31ZM94.1153 476.77C94.282 476.417 94.5286 476.15 94.8553 475.97C95.1886 475.79 95.5986 475.7 96.0853 475.7V476.39L95.9153 476.38C95.362 476.38 94.9286 476.55 94.6153 476.89C94.302 477.23 94.1453 477.707 94.1453 478.32V481H93.4353V475.74H94.1153V476.77ZM96.669 482.99C96.449 482.99 96.2423 482.96 96.049 482.9C95.849 482.847 95.6857 482.763 95.559 482.65L95.809 482.11C96.0157 482.29 96.289 482.38 96.629 482.38C96.909 482.38 97.1223 482.297 97.269 482.13C97.4223 481.963 97.499 481.717 97.499 481.39V475.74H98.209V481.39C98.209 481.883 98.0757 482.273 97.809 482.56C97.5423 482.847 97.1623 482.99 96.669 482.99ZM97.859 474.58C97.7123 474.58 97.589 474.53 97.489 474.43C97.389 474.33 97.339 474.21 97.339 474.07C97.339 473.937 97.389 473.82 97.489 473.72C97.589 473.62 97.7123 473.57 97.859 473.57C98.0057 473.57 98.129 473.62 98.229 473.72C98.329 473.813 98.379 473.927 98.379 474.06C98.379 474.207 98.329 474.33 98.229 474.43C98.129 474.53 98.0057 474.58 97.859 474.58ZM104.773 478.59H100.373C100.413 479.137 100.623 479.58 101.003 479.92C101.383 480.253 101.863 480.42 102.443 480.42C102.77 480.42 103.07 480.363 103.343 480.25C103.616 480.13 103.853 479.957 104.053 479.73L104.453 480.19C104.22 480.47 103.926 480.683 103.573 480.83C103.226 480.977 102.843 481.05 102.423 481.05C101.883 481.05 101.403 480.937 100.983 480.71C100.57 480.477 100.246 480.157 100.013 479.75C99.7798 479.343 99.6631 478.883 99.6631 478.37C99.6631 477.857 99.7731 477.397 99.9931 476.99C100.22 476.583 100.526 476.267 100.913 476.04C101.306 475.813 101.746 475.7 102.233 475.7C102.72 475.7 103.156 475.813 103.543 476.04C103.93 476.267 104.233 476.583 104.453 476.99C104.673 477.39 104.783 477.85 104.783 478.37L104.773 478.59ZM102.233 476.31C101.726 476.31 101.3 476.473 100.953 476.8C100.613 477.12 100.42 477.54 100.373 478.06H104.103C104.056 477.54 103.86 477.12 103.513 476.8C103.173 476.473 102.746 476.31 102.233 476.31ZM110.808 478.59H106.408C106.448 479.137 106.658 479.58 107.038 479.92C107.418 480.253 107.898 480.42 108.478 480.42C108.805 480.42 109.105 480.363 109.378 480.25C109.652 480.13 109.888 479.957 110.088 479.73L110.488 480.19C110.255 480.47 109.962 480.683 109.608 480.83C109.262 480.977 108.878 481.05 108.458 481.05C107.918 481.05 107.438 480.937 107.018 480.71C106.605 480.477 106.282 480.157 106.048 479.75C105.815 479.343 105.698 478.883 105.698 478.37C105.698 477.857 105.808 477.397 106.028 476.99C106.255 476.583 106.562 476.267 106.948 476.04C107.342 475.813 107.782 475.7 108.268 475.7C108.755 475.7 109.192 475.813 109.578 476.04C109.965 476.267 110.268 476.583 110.488 476.99C110.708 477.39 110.818 477.85 110.818 478.37L110.808 478.59ZM108.268 476.31C107.762 476.31 107.335 476.473 106.988 476.8C106.648 477.12 106.455 477.54 106.408 478.06H110.138C110.092 477.54 109.895 477.12 109.548 476.8C109.208 476.473 108.782 476.31 108.268 476.31ZM116.961 481.06C116.441 481.06 115.941 480.977 115.461 480.81C114.987 480.643 114.621 480.423 114.361 480.15L114.651 479.58C114.904 479.833 115.241 480.04 115.661 480.2C116.081 480.353 116.514 480.43 116.961 480.43C117.587 480.43 118.057 480.317 118.371 480.09C118.684 479.857 118.841 479.557 118.841 479.19C118.841 478.91 118.754 478.687 118.581 478.52C118.414 478.353 118.207 478.227 117.961 478.14C117.714 478.047 117.371 477.947 116.931 477.84C116.404 477.707 115.984 477.58 115.671 477.46C115.357 477.333 115.087 477.143 114.861 476.89C114.641 476.637 114.531 476.293 114.531 475.86C114.531 475.507 114.624 475.187 114.811 474.9C114.997 474.607 115.284 474.373 115.671 474.2C116.057 474.027 116.537 473.94 117.111 473.94C117.511 473.94 117.901 473.997 118.281 474.11C118.667 474.217 119.001 474.367 119.281 474.56L119.031 475.15C118.737 474.957 118.424 474.813 118.091 474.72C117.757 474.62 117.431 474.57 117.111 474.57C116.497 474.57 116.034 474.69 115.721 474.93C115.414 475.163 115.261 475.467 115.261 475.84C115.261 476.12 115.344 476.347 115.511 476.52C115.684 476.687 115.897 476.817 116.151 476.91C116.411 476.997 116.757 477.093 117.191 477.2C117.704 477.327 118.117 477.453 118.431 477.58C118.751 477.7 119.021 477.887 119.241 478.14C119.461 478.387 119.571 478.723 119.571 479.15C119.571 479.503 119.474 479.827 119.281 480.12C119.094 480.407 118.804 480.637 118.411 480.81C118.017 480.977 117.534 481.06 116.961 481.06ZM121.298 481.05C121.152 481.05 121.025 480.997 120.918 480.89C120.818 480.783 120.768 480.653 120.768 480.5C120.768 480.347 120.818 480.22 120.918 480.12C121.025 480.013 121.152 479.96 121.298 479.96C121.445 479.96 121.572 480.013 121.678 480.12C121.785 480.22 121.838 480.347 121.838 480.5C121.838 480.653 121.785 480.783 121.678 480.89C121.572 480.997 121.445 481.05 121.298 481.05ZM130.545 478.59H126.145C126.185 479.137 126.395 479.58 126.775 479.92C127.155 480.253 127.635 480.42 128.215 480.42C128.541 480.42 128.841 480.363 129.115 480.25C129.388 480.13 129.625 479.957 129.825 479.73L130.225 480.19C129.991 480.47 129.698 480.683 129.345 480.83C128.998 480.977 128.615 481.05 128.195 481.05C127.655 481.05 127.175 480.937 126.755 480.71C126.341 480.477 126.018 480.157 125.785 479.75C125.551 479.343 125.435 478.883 125.435 478.37C125.435 477.857 125.545 477.397 125.765 476.99C125.991 476.583 126.298 476.267 126.685 476.04C127.078 475.813 127.518 475.7 128.005 475.7C128.491 475.7 128.928 475.813 129.315 476.04C129.701 476.267 130.005 476.583 130.225 476.99C130.445 477.39 130.555 477.85 130.555 478.37L130.545 478.59ZM128.005 476.31C127.498 476.31 127.071 476.473 126.725 476.8C126.385 477.12 126.191 477.54 126.145 478.06H129.875C129.828 477.54 129.631 477.12 129.285 476.8C128.945 476.473 128.518 476.31 128.005 476.31ZM134.77 480.68C134.636 480.8 134.47 480.893 134.27 480.96C134.076 481.02 133.873 481.05 133.66 481.05C133.166 481.05 132.786 480.917 132.52 480.65C132.253 480.383 132.12 480.007 132.12 479.52V476.34H131.18V475.74H132.12V474.59H132.83V475.74H134.43V476.34H132.83V479.48C132.83 479.793 132.906 480.033 133.06 480.2C133.22 480.36 133.446 480.44 133.74 480.44C133.886 480.44 134.026 480.417 134.16 480.37C134.3 480.323 134.42 480.257 134.52 480.17L134.77 480.68ZM140.519 475.7C141.206 475.7 141.733 475.873 142.099 476.22C142.466 476.56 142.649 477.067 142.649 477.74V481H141.969V480.18C141.809 480.453 141.573 480.667 141.259 480.82C140.953 480.973 140.586 481.05 140.159 481.05C139.573 481.05 139.106 480.91 138.759 480.63C138.413 480.35 138.239 479.98 138.239 479.52C138.239 479.073 138.399 478.713 138.719 478.44C139.046 478.167 139.563 478.03 140.269 478.03H141.939V477.71C141.939 477.257 141.813 476.913 141.559 476.68C141.306 476.44 140.936 476.32 140.449 476.32C140.116 476.32 139.796 476.377 139.489 476.49C139.183 476.597 138.919 476.747 138.699 476.94L138.379 476.41C138.646 476.183 138.966 476.01 139.339 475.89C139.713 475.763 140.106 475.7 140.519 475.7ZM140.269 480.49C140.669 480.49 141.013 480.4 141.299 480.22C141.586 480.033 141.799 479.767 141.939 479.42V478.56H140.289C139.389 478.56 138.939 478.873 138.939 479.5C138.939 479.807 139.056 480.05 139.289 480.23C139.523 480.403 139.849 480.49 140.269 480.49ZM144.578 473.58H145.288V481H144.578V473.58ZM147.333 481.05C147.187 481.05 147.06 480.997 146.953 480.89C146.853 480.783 146.803 480.653 146.803 480.5C146.803 480.347 146.853 480.22 146.953 480.12C147.06 480.013 147.187 479.96 147.333 479.96C147.48 479.96 147.607 480.013 147.713 480.12C147.82 480.22 147.873 480.347 147.873 480.5C147.873 480.653 147.82 480.783 147.713 480.89C147.607 480.997 147.48 481.05 147.333 481.05ZM149.463 479.96C149.616 479.96 149.743 480.013 149.843 480.12C149.943 480.22 149.993 480.347 149.993 480.5C149.993 480.58 149.979 480.667 149.953 480.76C149.933 480.853 149.899 480.96 149.853 481.08L149.433 482.46H148.953L149.293 481.01C149.186 480.977 149.099 480.917 149.033 480.83C148.966 480.737 148.933 480.627 148.933 480.5C148.933 480.347 148.983 480.22 149.083 480.12C149.183 480.013 149.309 479.96 149.463 479.96ZM158.429 480.36V481H153.519V480.49L156.429 477.64C156.796 477.28 157.042 476.97 157.169 476.71C157.302 476.443 157.369 476.177 157.369 475.91C157.369 475.497 157.226 475.177 156.939 474.95C156.659 474.717 156.256 474.6 155.729 474.6C154.909 474.6 154.272 474.86 153.819 475.38L153.309 474.94C153.582 474.62 153.929 474.373 154.349 474.2C154.776 474.027 155.256 473.94 155.789 473.94C156.502 473.94 157.066 474.11 157.479 474.45C157.899 474.783 158.109 475.243 158.109 475.83C158.109 476.19 158.029 476.537 157.869 476.87C157.709 477.203 157.406 477.587 156.959 478.02L154.579 480.36H158.429ZM162.083 481.06C161.543 481.06 161.06 480.917 160.633 480.63C160.213 480.343 159.883 479.933 159.643 479.4C159.41 478.86 159.293 478.227 159.293 477.5C159.293 476.773 159.41 476.143 159.643 475.61C159.883 475.07 160.213 474.657 160.633 474.37C161.06 474.083 161.543 473.94 162.083 473.94C162.623 473.94 163.103 474.083 163.523 474.37C163.95 474.657 164.283 475.07 164.523 475.61C164.763 476.143 164.883 476.773 164.883 477.5C164.883 478.227 164.763 478.86 164.523 479.4C164.283 479.933 163.95 480.343 163.523 480.63C163.103 480.917 162.623 481.06 162.083 481.06ZM162.083 480.4C162.49 480.4 162.847 480.287 163.153 480.06C163.467 479.833 163.71 479.503 163.883 479.07C164.057 478.637 164.143 478.113 164.143 477.5C164.143 476.887 164.057 476.363 163.883 475.93C163.71 475.497 163.467 475.167 163.153 474.94C162.847 474.713 162.49 474.6 162.083 474.6C161.677 474.6 161.317 474.713 161.003 474.94C160.697 475.167 160.457 475.497 160.283 475.93C160.11 476.363 160.023 476.887 160.023 477.5C160.023 478.113 160.11 478.637 160.283 479.07C160.457 479.503 160.697 479.833 161.003 480.06C161.317 480.287 161.677 480.4 162.083 480.4ZM167.835 474V481H167.115V474.64H165.465V474H167.835ZM171.888 477C172.622 477.04 173.178 477.24 173.558 477.6C173.945 477.953 174.138 478.417 174.138 478.99C174.138 479.39 174.042 479.747 173.848 480.06C173.655 480.367 173.368 480.61 172.988 480.79C172.608 480.97 172.145 481.06 171.598 481.06C171.092 481.06 170.612 480.98 170.158 480.82C169.712 480.653 169.352 480.433 169.078 480.16L169.428 479.59C169.662 479.83 169.972 480.027 170.358 480.18C170.745 480.327 171.158 480.4 171.598 480.4C172.172 480.4 172.615 480.277 172.928 480.03C173.242 479.777 173.398 479.43 173.398 478.99C173.398 478.557 173.242 478.217 172.928 477.97C172.615 477.723 172.142 477.6 171.508 477.6H171.008V477.07L172.948 474.64H169.368V474H173.868V474.51L171.888 477Z" fill="#5A5858"/>
<path d="M91.2607 45.302C92.6887 45.302 93.7247 45.554 94.3687 46.058C95.0127 46.5527 95.3347 47.2573 95.3347 48.172C95.3347 48.732 95.204 49.2313 94.9427 49.67C94.6907 50.0993 94.308 50.44 93.7947 50.692C93.2813 50.944 92.6513 51.07 91.9047 51.07C91.1953 51.07 90.528 50.9487 89.9027 50.706C89.2867 50.4633 88.806 50.146 88.4607 49.754L88.8247 49.208C89.1327 49.5627 89.5573 49.852 90.0987 50.076C90.6493 50.3 91.2467 50.412 91.8907 50.412C92.768 50.412 93.44 50.2113 93.9067 49.81C94.3827 49.4087 94.6207 48.872 94.6207 48.2C94.6207 47.4627 94.35 46.9027 93.8087 46.52C93.2767 46.1373 92.376 45.946 91.1067 45.946H89.1187L89.6367 41.2H94.8307V41.844H90.2387L89.8607 45.302H91.2607Z" fill="#4A4646"/>
<path d="M92.4986 395.07C91.7519 395.07 91.0846 394.869 90.4966 394.468C89.9179 394.057 89.4652 393.479 89.1386 392.732C88.8212 391.985 88.6626 391.108 88.6626 390.1C88.6626 389.092 88.8212 388.215 89.1386 387.468C89.4652 386.721 89.9179 386.147 90.4966 385.746C91.0846 385.335 91.7519 385.13 92.4986 385.13C93.2452 385.13 93.9079 385.335 94.4866 385.746C95.0746 386.147 95.5272 386.721 95.8446 387.468C96.1712 388.215 96.3346 389.092 96.3346 390.1C96.3346 391.108 96.1712 391.985 95.8446 392.732C95.5272 393.479 95.0746 394.057 94.4866 394.468C93.9079 394.869 93.2452 395.07 92.4986 395.07ZM92.4986 394.412C93.1146 394.412 93.6559 394.244 94.1226 393.908C94.5986 393.563 94.9672 393.068 95.2286 392.424C95.4899 391.771 95.6206 390.996 95.6206 390.1C95.6206 389.204 95.4899 388.434 95.2286 387.79C94.9672 387.137 94.5986 386.642 94.1226 386.306C93.6559 385.961 93.1146 385.788 92.4986 385.788C91.8826 385.788 91.3366 385.961 90.8606 386.306C90.3939 386.642 90.0299 387.137 89.7686 387.79C89.5072 388.434 89.3766 389.204 89.3766 390.1C89.3766 390.996 89.5072 391.771 89.7686 392.424C90.0299 393.068 90.3939 393.563 90.8606 393.908C91.3366 394.244 91.8826 394.412 92.4986 394.412Z" fill="#4A4646"/>
<line x1="107.87" y1="218.961" x2="342" y2="218.961" stroke="#B8B8B8" stroke-width="0.344481"/>
<line x1="107.87" y1="150.064" x2="342" y2="150.064" stroke="#B8B8B8" stroke-width="0.344481"/>
<line x1="107.87" y1="81.1676" x2="342" y2="81.1676" stroke="#B8B8B8" stroke-width="0.344481"/>
<line x1="107.87" y1="46.7203" x2="342" y2="46.7203" stroke="#B8B8B8" stroke-width="0.344481"/>
<line x1="107.87" y1="253.41" x2="342" y2="253.41" stroke="#B8B8B8" stroke-width="0.344481"/>
<line x1="107.87" y1="184.582" x2="342" y2="184.582" stroke="#B8B8B8" stroke-width="0.206688"/>
<line x1="107.765" y1="116.632" x2="341.895" y2="116.632" stroke="#B8B8B8" stroke-width="0.344481"/>
<line x1="107.87" y1="287.857" x2="342" y2="287.857" stroke="#B8B8B8" stroke-width="0.344481"/>
<line x1="107.87" y1="322.304" x2="342" y2="322.304" stroke="#B8B8B8" stroke-width="0.344481"/>
<line x1="107.87" y1="391.201" x2="342" y2="391.201" stroke="#B8B8B8" stroke-width="0.344481"/>
<line x1="107.87" y1="356.754" x2="342" y2="356.754" stroke="#B8B8B8" stroke-width="0.344481"/>
<path d="M264.472 143.946C265.153 144.086 265.671 144.361 266.026 144.772C266.38 145.173 266.558 145.701 266.558 146.354C266.558 147.203 266.254 147.857 265.648 148.314C265.05 148.771 264.168 149 263.002 149H258.662V139.2H262.736C263.781 139.2 264.598 139.415 265.186 139.844C265.774 140.273 266.068 140.894 266.068 141.706C266.068 142.257 265.928 142.723 265.648 143.106C265.368 143.479 264.976 143.759 264.472 143.946ZM259.684 143.638H262.68C263.436 143.638 264.014 143.484 264.416 143.176C264.826 142.868 265.032 142.42 265.032 141.832C265.032 141.244 264.826 140.796 264.416 140.488C264.014 140.18 263.436 140.026 262.68 140.026H259.684V143.638ZM263.002 148.174C264.691 148.174 265.536 147.544 265.536 146.284C265.536 145.052 264.691 144.436 263.002 144.436H259.684V148.174H263.002ZM278.58 148.104V149H271.706V148.286L275.78 144.296C276.293 143.792 276.639 143.358 276.816 142.994C277.003 142.621 277.096 142.247 277.096 141.874C277.096 141.295 276.895 140.847 276.494 140.53C276.102 140.203 275.537 140.04 274.8 140.04C273.652 140.04 272.761 140.404 272.126 141.132L271.412 140.516C271.795 140.068 272.28 139.723 272.868 139.48C273.465 139.237 274.137 139.116 274.884 139.116C275.883 139.116 276.671 139.354 277.25 139.83C277.838 140.297 278.132 140.941 278.132 141.762C278.132 142.266 278.02 142.751 277.796 143.218C277.572 143.685 277.147 144.221 276.522 144.828L273.19 148.104H278.58ZM287.989 141.58C288.68 141.58 289.305 141.739 289.865 142.056C290.425 142.364 290.864 142.803 291.181 143.372C291.499 143.941 291.657 144.59 291.657 145.318C291.657 146.055 291.499 146.709 291.181 147.278C290.864 147.847 290.425 148.291 289.865 148.608C289.315 148.916 288.689 149.07 287.989 149.07C287.392 149.07 286.851 148.949 286.365 148.706C285.889 148.454 285.497 148.09 285.189 147.614V151.716H284.195V141.636H285.147V143.092C285.446 142.607 285.838 142.233 286.323 141.972C286.818 141.711 287.373 141.58 287.989 141.58ZM287.919 148.188C288.433 148.188 288.899 148.071 289.319 147.838C289.739 147.595 290.066 147.255 290.299 146.816C290.542 146.377 290.663 145.878 290.663 145.318C290.663 144.758 290.542 144.263 290.299 143.834C290.066 143.395 289.739 143.055 289.319 142.812C288.899 142.569 288.433 142.448 287.919 142.448C287.397 142.448 286.925 142.569 286.505 142.812C286.095 143.055 285.768 143.395 285.525 143.834C285.292 144.263 285.175 144.758 285.175 145.318C285.175 145.878 285.292 146.377 285.525 146.816C285.768 147.255 286.095 147.595 286.505 147.838C286.925 148.071 287.397 148.188 287.919 148.188ZM296.286 141.58C297.247 141.58 297.985 141.823 298.498 142.308C299.011 142.784 299.268 143.493 299.268 144.436V149H298.316V147.852C298.092 148.235 297.761 148.533 297.322 148.748C296.893 148.963 296.379 149.07 295.782 149.07C294.961 149.07 294.307 148.874 293.822 148.482C293.337 148.09 293.094 147.572 293.094 146.928C293.094 146.303 293.318 145.799 293.766 145.416C294.223 145.033 294.947 144.842 295.936 144.842H298.274V144.394C298.274 143.759 298.097 143.279 297.742 142.952C297.387 142.616 296.869 142.448 296.188 142.448C295.721 142.448 295.273 142.527 294.844 142.686C294.415 142.835 294.046 143.045 293.738 143.316L293.29 142.574C293.663 142.257 294.111 142.014 294.634 141.846C295.157 141.669 295.707 141.58 296.286 141.58ZM295.936 148.286C296.496 148.286 296.977 148.16 297.378 147.908C297.779 147.647 298.078 147.273 298.274 146.788V145.584H295.964C294.704 145.584 294.074 146.023 294.074 146.9C294.074 147.329 294.237 147.67 294.564 147.922C294.891 148.165 295.348 148.286 295.936 148.286ZM305.348 145.164C305.87 145.285 306.272 145.495 306.552 145.794C306.841 146.093 306.986 146.457 306.986 146.886C306.986 147.315 306.836 147.698 306.538 148.034C306.248 148.37 305.852 148.631 305.348 148.818C304.844 148.995 304.288 149.084 303.682 149.084C303.15 149.084 302.627 149.009 302.114 148.86C301.6 148.701 301.152 148.473 300.77 148.174L301.106 147.432C301.442 147.684 301.834 147.88 302.282 148.02C302.73 148.16 303.182 148.23 303.64 148.23C304.321 148.23 304.876 148.104 305.306 147.852C305.744 147.591 305.964 147.241 305.964 146.802C305.964 146.41 305.786 146.107 305.432 145.892C305.077 145.668 304.592 145.556 303.976 145.556H302.716V144.828H303.92C304.47 144.828 304.914 144.725 305.25 144.52C305.586 144.305 305.754 144.021 305.754 143.666C305.754 143.274 305.562 142.966 305.18 142.742C304.806 142.518 304.316 142.406 303.71 142.406C302.916 142.406 302.132 142.607 301.358 143.008L301.078 142.238C301.955 141.781 302.865 141.552 303.808 141.552C304.368 141.552 304.872 141.636 305.32 141.804C305.777 141.963 306.132 142.191 306.384 142.49C306.645 142.789 306.776 143.134 306.776 143.526C306.776 143.899 306.645 144.231 306.384 144.52C306.132 144.809 305.786 145.024 305.348 145.164ZM311.776 141.58C312.737 141.58 313.475 141.823 313.988 142.308C314.501 142.784 314.758 143.493 314.758 144.436V149H313.806V147.852C313.582 148.235 313.251 148.533 312.812 148.748C312.383 148.963 311.869 149.07 311.272 149.07C310.451 149.07 309.797 148.874 309.312 148.482C308.827 148.09 308.584 147.572 308.584 146.928C308.584 146.303 308.808 145.799 309.256 145.416C309.713 145.033 310.437 144.842 311.426 144.842H313.764V144.394C313.764 143.759 313.587 143.279 313.232 142.952C312.877 142.616 312.359 142.448 311.678 142.448C311.211 142.448 310.763 142.527 310.334 142.686C309.905 142.835 309.536 143.045 309.228 143.316L308.78 142.574C309.153 142.257 309.601 142.014 310.124 141.846C310.647 141.669 311.197 141.58 311.776 141.58ZM311.426 148.286C311.986 148.286 312.467 148.16 312.868 147.908C313.269 147.647 313.568 147.273 313.764 146.788V145.584H311.454C310.194 145.584 309.564 146.023 309.564 146.9C309.564 147.329 309.727 147.67 310.054 147.922C310.381 148.165 310.838 148.286 311.426 148.286ZM266.792 158.636V166H265.882V160.176L262.9 165.104H262.452L259.47 160.162V166H258.56V158.636H259.568L262.69 163.942L265.868 158.636H266.792ZM276.061 162.626H269.901C269.957 163.391 270.251 164.012 270.783 164.488C271.315 164.955 271.987 165.188 272.799 165.188C273.256 165.188 273.676 165.109 274.059 164.95C274.442 164.782 274.773 164.539 275.053 164.222L275.613 164.866C275.286 165.258 274.876 165.557 274.381 165.762C273.896 165.967 273.359 166.07 272.771 166.07C272.015 166.07 271.343 165.911 270.755 165.594C270.176 165.267 269.724 164.819 269.397 164.25C269.07 163.681 268.907 163.037 268.907 162.318C268.907 161.599 269.061 160.955 269.369 160.386C269.686 159.817 270.116 159.373 270.657 159.056C271.208 158.739 271.824 158.58 272.505 158.58C273.186 158.58 273.798 158.739 274.339 159.056C274.88 159.373 275.305 159.817 275.613 160.386C275.921 160.946 276.075 161.59 276.075 162.318L276.061 162.626ZM272.505 159.434C271.796 159.434 271.198 159.663 270.713 160.12C270.237 160.568 269.966 161.156 269.901 161.884H275.123C275.058 161.156 274.782 160.568 274.297 160.12C273.821 159.663 273.224 159.434 272.505 159.434ZM278.275 158.636H279.269V161.898H283.903V158.636H284.897V166H283.903V162.752H279.269V166H278.275V158.636ZM290.887 161.24C291.811 161.249 292.511 161.455 292.987 161.856C293.472 162.257 293.715 162.836 293.715 163.592C293.715 164.376 293.453 164.978 292.931 165.398C292.417 165.818 291.671 166.023 290.691 166.014L287.723 166V158.636H288.717V161.212L290.887 161.24ZM290.635 165.258C291.316 165.267 291.829 165.132 292.175 164.852C292.529 164.563 292.707 164.143 292.707 163.592C292.707 163.051 292.534 162.649 292.189 162.388C291.843 162.127 291.325 161.991 290.635 161.982L288.717 161.954V165.23L290.635 165.258ZM305.775 158.636V166H295.611V158.636H296.605V165.132H300.217V158.636H301.211V165.132H304.781V158.636H305.775ZM315.053 162.626H308.893C308.949 163.391 309.243 164.012 309.775 164.488C310.307 164.955 310.979 165.188 311.791 165.188C312.249 165.188 312.669 165.109 313.051 164.95C313.434 164.782 313.765 164.539 314.045 164.222L314.605 164.866C314.279 165.258 313.868 165.557 313.373 165.762C312.888 165.967 312.351 166.07 311.763 166.07C311.007 166.07 310.335 165.911 309.747 165.594C309.169 165.267 308.716 164.819 308.389 164.25C308.063 163.681 307.899 163.037 307.899 162.318C307.899 161.599 308.053 160.955 308.361 160.386C308.679 159.817 309.108 159.373 309.649 159.056C310.2 158.739 310.816 158.58 311.497 158.58C312.179 158.58 312.79 158.739 313.331 159.056C313.873 159.373 314.297 159.817 314.605 160.386C314.913 160.946 315.067 161.59 315.067 162.318L315.053 162.626ZM311.497 159.434C310.788 159.434 310.191 159.663 309.705 160.12C309.229 160.568 308.959 161.156 308.893 161.884H314.115C314.05 161.156 313.775 160.568 313.289 160.12C312.813 159.663 312.216 159.434 311.497 159.434Z" fill="#313131"/>
<rect x="233" y="130.5" width="108" height="42" stroke="url(#paint0_linear)"/>
<path d="M212.421 87.636C213.102 87.636 213.718 87.7947 214.269 88.112C214.819 88.4293 215.249 88.868 215.557 89.428C215.874 89.988 216.033 90.6273 216.033 91.346C216.033 92.0647 215.874 92.7087 215.557 93.278C215.249 93.838 214.819 94.2767 214.269 94.594C213.718 94.902 213.102 95.056 212.421 95.056C211.777 95.056 211.193 94.9067 210.671 94.608C210.148 94.3 209.742 93.8753 209.453 93.334V97.716H208.753V87.692H209.425V89.414C209.714 88.854 210.12 88.42 210.643 88.112C211.175 87.7947 211.767 87.636 212.421 87.636ZM212.379 94.426C212.939 94.426 213.443 94.2953 213.891 94.034C214.339 93.7727 214.689 93.4087 214.941 92.942C215.202 92.4753 215.333 91.9433 215.333 91.346C215.333 90.7487 215.202 90.2167 214.941 89.75C214.689 89.2833 214.339 88.9193 213.891 88.658C213.443 88.3967 212.939 88.266 212.379 88.266C211.819 88.266 211.315 88.3967 210.867 88.658C210.428 88.9193 210.078 89.2833 209.817 89.75C209.565 90.2167 209.439 90.7487 209.439 91.346C209.439 91.9433 209.565 92.4753 209.817 92.942C210.078 93.4087 210.428 93.7727 210.867 94.034C211.315 94.2953 211.819 94.426 212.379 94.426ZM221.32 88.224H227.27V88.812H221.32V88.224ZM221.32 91.388H227.27V91.976H221.32V91.388ZM236.484 95.07C235.737 95.07 235.07 94.8693 234.482 94.468C233.903 94.0573 233.451 93.4787 233.124 92.732C232.807 91.9853 232.648 91.108 232.648 90.1C232.648 89.092 232.807 88.2147 233.124 87.468C233.451 86.7213 233.903 86.1473 234.482 85.746C235.07 85.3353 235.737 85.13 236.484 85.13C237.231 85.13 237.893 85.3353 238.472 85.746C239.06 86.1473 239.513 86.7213 239.83 87.468C240.157 88.2147 240.32 89.092 240.32 90.1C240.32 91.108 240.157 91.9853 239.83 92.732C239.513 93.4787 239.06 94.0573 238.472 94.468C237.893 94.8693 237.231 95.07 236.484 95.07ZM236.484 94.412C237.1 94.412 237.641 94.244 238.108 93.908C238.584 93.5627 238.953 93.068 239.214 92.424C239.475 91.7707 239.606 90.996 239.606 90.1C239.606 89.204 239.475 88.434 239.214 87.79C238.953 87.1367 238.584 86.642 238.108 86.306C237.641 85.9607 237.1 85.788 236.484 85.788C235.868 85.788 235.322 85.9607 234.846 86.306C234.379 86.642 234.015 87.1367 233.754 87.79C233.493 88.434 233.362 89.204 233.362 90.1C233.362 90.996 233.493 91.7707 233.754 92.424C234.015 93.068 234.379 93.5627 234.846 93.908C235.322 94.244 235.868 94.412 236.484 94.412ZM242.342 93.866C242.51 93.866 242.65 93.9267 242.762 94.048C242.874 94.16 242.93 94.2953 242.93 94.454C242.93 94.5473 242.916 94.6453 242.888 94.748C242.87 94.8507 242.842 94.9673 242.804 95.098L242.258 97.002H241.754L242.216 95.028C242.076 94.9907 241.964 94.9253 241.88 94.832C241.796 94.7293 241.754 94.6033 241.754 94.454C241.754 94.286 241.81 94.146 241.922 94.034C242.034 93.922 242.174 93.866 242.342 93.866ZM248.201 95.07C247.454 95.07 246.787 94.8693 246.199 94.468C245.62 94.0573 245.167 93.4787 244.841 92.732C244.523 91.9853 244.365 91.108 244.365 90.1C244.365 89.092 244.523 88.2147 244.841 87.468C245.167 86.7213 245.62 86.1473 246.199 85.746C246.787 85.3353 247.454 85.13 248.201 85.13C248.947 85.13 249.61 85.3353 250.189 85.746C250.777 86.1473 251.229 86.7213 251.547 87.468C251.873 88.2147 252.037 89.092 252.037 90.1C252.037 91.108 251.873 91.9853 251.547 92.732C251.229 93.4787 250.777 94.0573 250.189 94.468C249.61 94.8693 248.947 95.07 248.201 95.07ZM248.201 94.412C248.817 94.412 249.358 94.244 249.825 93.908C250.301 93.5627 250.669 93.068 250.931 92.424C251.192 91.7707 251.323 90.996 251.323 90.1C251.323 89.204 251.192 88.434 250.931 87.79C250.669 87.1367 250.301 86.642 249.825 86.306C249.358 85.9607 248.817 85.788 248.201 85.788C247.585 85.788 247.039 85.9607 246.563 86.306C246.096 86.642 245.732 87.1367 245.471 87.79C245.209 88.434 245.079 89.204 245.079 90.1C245.079 90.996 245.209 91.7707 245.471 92.424C245.732 93.068 246.096 93.5627 246.563 93.908C247.039 94.244 247.585 94.412 248.201 94.412ZM256.03 85.2V95H255.316V85.844H252.922V85.2H256.03Z" fill="#4A4646"/>
<path d="M122.517 399.823V411.023H120.949V401.215H114.453V411.023H112.869V399.823H122.517ZM133.034 402.543V411.023H131.498V403.887H127.85L127.754 405.775C127.7 406.917 127.599 407.871 127.45 408.639C127.3 409.397 127.055 410.005 126.714 410.463C126.372 410.922 125.898 411.151 125.29 411.151C125.012 411.151 124.698 411.103 124.346 411.007L124.442 409.711C124.58 409.743 124.708 409.759 124.826 409.759C125.252 409.759 125.572 409.573 125.786 409.199C125.999 408.826 126.138 408.383 126.202 407.871C126.266 407.359 126.324 406.629 126.378 405.679L126.522 402.543H133.034ZM139.028 402.463C140.201 402.463 141.097 402.751 141.716 403.327C142.345 403.903 142.66 404.762 142.66 405.903V411.023H141.204V409.903C140.948 410.298 140.58 410.602 140.1 410.815C139.63 411.018 139.07 411.119 138.42 411.119C137.47 411.119 136.708 410.89 136.132 410.431C135.566 409.973 135.284 409.37 135.284 408.623C135.284 407.877 135.556 407.279 136.1 406.831C136.644 406.373 137.508 406.143 138.692 406.143H141.124V405.839C141.124 405.178 140.932 404.671 140.548 404.319C140.164 403.967 139.598 403.791 138.852 403.791C138.35 403.791 137.86 403.877 137.38 404.047C136.9 404.207 136.494 404.426 136.164 404.703L135.524 403.551C135.961 403.199 136.484 402.933 137.092 402.751C137.7 402.559 138.345 402.463 139.028 402.463ZM138.676 409.935C139.262 409.935 139.769 409.807 140.196 409.551C140.622 409.285 140.932 408.911 141.124 408.431V407.247H138.756C137.454 407.247 136.804 407.685 136.804 408.559C136.804 408.986 136.969 409.322 137.3 409.567C137.63 409.813 138.089 409.935 138.676 409.935ZM154.482 409.679V413.055H153.026V411.023H145.426V402.543H146.962V409.679H151.602V402.543H153.138V409.679H154.482ZM164.136 406.831C164.136 406.949 164.126 407.103 164.104 407.295H157.224C157.32 408.042 157.646 408.645 158.2 409.103C158.766 409.551 159.464 409.775 160.296 409.775C161.31 409.775 162.126 409.434 162.744 408.751L163.592 409.743C163.208 410.191 162.728 410.533 162.152 410.767C161.587 411.002 160.952 411.119 160.248 411.119C159.352 411.119 158.558 410.938 157.864 410.575C157.171 410.202 156.632 409.685 156.248 409.023C155.875 408.362 155.688 407.615 155.688 406.783C155.688 405.962 155.87 405.221 156.232 404.559C156.606 403.898 157.112 403.386 157.752 403.023C158.403 402.65 159.134 402.463 159.944 402.463C160.755 402.463 161.475 402.65 162.104 403.023C162.744 403.386 163.24 403.898 163.592 404.559C163.955 405.221 164.136 405.978 164.136 406.831ZM159.944 403.759C159.208 403.759 158.59 403.983 158.088 404.431C157.598 404.879 157.31 405.466 157.224 406.191H162.664C162.579 405.477 162.286 404.895 161.784 404.447C161.294 403.989 160.68 403.759 159.944 403.759ZM170.839 402.831C171.629 402.831 172.333 403.007 172.951 403.359C173.57 403.711 174.05 404.202 174.391 404.831C174.743 405.45 174.919 406.159 174.919 406.959C174.919 407.781 174.733 408.511 174.359 409.151C173.997 409.781 173.479 410.271 172.807 410.623C172.146 410.975 171.389 411.151 170.535 411.151C169.095 411.151 167.981 410.661 167.191 409.679C166.413 408.687 166.023 407.295 166.023 405.503C166.023 403.765 166.381 402.405 167.095 401.423C167.81 400.431 168.903 399.775 170.375 399.455L174.247 398.591L174.471 399.999L170.903 400.767C169.794 401.013 168.967 401.429 168.423 402.015C167.879 402.602 167.57 403.445 167.495 404.543C167.858 403.999 168.327 403.578 168.903 403.279C169.479 402.981 170.125 402.831 170.839 402.831ZM170.567 409.871C171.111 409.871 171.591 409.749 172.007 409.503C172.434 409.258 172.765 408.922 172.999 408.495C173.234 408.058 173.351 407.562 173.351 407.007C173.351 406.165 173.095 405.487 172.583 404.975C172.071 404.463 171.399 404.207 170.567 404.207C169.735 404.207 169.058 404.463 168.535 404.975C168.023 405.487 167.767 406.165 167.767 407.007C167.767 407.562 167.885 408.058 168.119 408.495C168.365 408.922 168.701 409.258 169.127 409.503C169.554 409.749 170.034 409.871 170.567 409.871ZM180.745 411.119C179.902 411.119 179.145 410.933 178.473 410.559C177.801 410.186 177.273 409.674 176.889 409.023C176.516 408.362 176.329 407.615 176.329 406.783C176.329 405.951 176.516 405.21 176.889 404.559C177.273 403.898 177.801 403.386 178.473 403.023C179.145 402.65 179.902 402.463 180.745 402.463C181.588 402.463 182.34 402.65 183.001 403.023C183.673 403.386 184.196 403.898 184.569 404.559C184.953 405.21 185.145 405.951 185.145 406.783C185.145 407.615 184.953 408.362 184.569 409.023C184.196 409.674 183.673 410.186 183.001 410.559C182.34 410.933 181.588 411.119 180.745 411.119ZM180.745 409.775C181.289 409.775 181.774 409.653 182.201 409.407C182.638 409.151 182.98 408.799 183.225 408.351C183.47 407.893 183.593 407.37 183.593 406.783C183.593 406.197 183.47 405.679 183.225 405.231C182.98 404.773 182.638 404.421 182.201 404.175C181.774 403.93 181.289 403.807 180.745 403.807C180.201 403.807 179.71 403.93 179.273 404.175C178.846 404.421 178.505 404.773 178.249 405.231C178.004 405.679 177.881 406.197 177.881 406.783C177.881 407.37 178.004 407.893 178.249 408.351C178.505 408.799 178.846 409.151 179.273 409.407C179.71 409.653 180.201 409.775 180.745 409.775Z" fill="#4A4646"/>
<path d="M145.154 422.702C146.068 422.702 146.792 422.968 147.324 423.5C147.856 424.032 148.122 424.798 148.122 425.796V430.066H147.422V425.852C147.422 425.031 147.212 424.406 146.792 423.976C146.381 423.547 145.802 423.332 145.056 423.332C144.197 423.332 143.52 423.589 143.026 424.102C142.531 424.616 142.284 425.306 142.284 426.174V430.066H141.584V422.758H142.256V424.34C142.508 423.827 142.881 423.426 143.376 423.136C143.88 422.847 144.472 422.702 145.154 422.702ZM154.123 423.29H160.073V423.878H154.123V423.29ZM154.123 426.454H160.073V427.042H154.123V426.454ZM167.916 420.266V430.066H167.202V420.91H164.808V420.266H167.916ZM177.121 420.266V420.77L172.907 430.066H172.123L176.295 420.91H170.793V422.786H170.093V420.266H177.121ZM182.169 424.27C182.813 424.27 183.382 424.392 183.877 424.634C184.381 424.868 184.768 425.208 185.039 425.656C185.309 426.095 185.445 426.604 185.445 427.182C185.445 427.77 185.305 428.288 185.025 428.736C184.745 429.184 184.357 429.53 183.863 429.772C183.368 430.015 182.808 430.136 182.183 430.136C180.913 430.136 179.938 429.707 179.257 428.848C178.585 427.98 178.249 426.772 178.249 425.222C178.249 424.14 178.426 423.225 178.781 422.478C179.145 421.722 179.653 421.153 180.307 420.77C180.96 420.388 181.725 420.196 182.603 420.196C183.527 420.196 184.269 420.364 184.829 420.7L184.535 421.274C184.068 420.976 183.424 420.826 182.603 420.826C181.473 420.826 180.582 421.195 179.929 421.932C179.285 422.66 178.963 423.72 178.963 425.11C178.963 425.54 178.991 425.932 179.047 426.286C179.243 425.652 179.621 425.157 180.181 424.802C180.75 424.448 181.413 424.27 182.169 424.27ZM182.155 429.52C182.92 429.52 183.541 429.31 184.017 428.89C184.493 428.461 184.731 427.896 184.731 427.196C184.731 426.496 184.493 425.936 184.017 425.516C183.541 425.096 182.892 424.886 182.071 424.886C181.548 424.886 181.077 424.989 180.657 425.194C180.246 425.4 179.924 425.68 179.691 426.034C179.467 426.389 179.355 426.786 179.355 427.224C179.355 427.616 179.462 427.99 179.677 428.344C179.901 428.699 180.223 428.984 180.643 429.198C181.063 429.413 181.567 429.52 182.155 429.52Z" fill="#4A4646"/>
<path d="M186 86.9843C186 72.0727 173.912 59.9844 159 59.9844L152 59.9844C137.088 59.9844 125 72.0727 125 86.9844L125 391.375L186 391.375L186 86.9843Z" fill="#5A5858"/>
<path d="M148.95 229.248H146.822V232H145.27V229.248H139.046V228.128L144.774 220.8H146.502L141.014 227.872H145.318V225.44H146.822V227.872H148.95V229.248ZM151.293 229.904C151.592 229.904 151.837 230.011 152.029 230.224C152.232 230.427 152.333 230.683 152.333 230.992C152.333 231.152 152.312 231.307 152.269 231.456C152.237 231.605 152.168 231.835 152.061 232.144L151.309 234.368H150.301L150.893 231.984C150.69 231.909 150.525 231.787 150.397 231.616C150.28 231.435 150.221 231.227 150.221 230.992C150.221 230.672 150.322 230.411 150.525 230.208C150.728 230.005 150.984 229.904 151.293 229.904ZM157.046 225.264C158.646 225.264 159.819 225.568 160.566 226.176C161.323 226.773 161.702 227.595 161.702 228.64C161.702 229.301 161.542 229.899 161.222 230.432C160.913 230.955 160.438 231.371 159.798 231.68C159.169 231.979 158.39 232.128 157.462 232.128C156.673 232.128 155.91 232.011 155.174 231.776C154.438 231.531 153.83 231.195 153.35 230.768L154.086 229.504C154.47 229.867 154.961 230.16 155.558 230.384C156.155 230.597 156.785 230.704 157.446 230.704C158.289 230.704 158.939 230.528 159.398 230.176C159.867 229.813 160.102 229.323 160.102 228.704C160.102 228.032 159.846 227.525 159.334 227.184C158.822 226.832 157.947 226.656 156.71 226.656H154.166L154.758 220.8H161.078V222.192H156.102L155.798 225.264H157.046ZM169.882 226.128C170.522 226.373 171.012 226.725 171.354 227.184C171.695 227.643 171.866 228.192 171.866 228.832C171.866 229.504 171.684 230.091 171.322 230.592C170.959 231.083 170.442 231.461 169.77 231.728C169.098 231.995 168.308 232.128 167.402 232.128C166.506 232.128 165.722 231.995 165.05 231.728C164.388 231.461 163.876 231.083 163.514 230.592C163.151 230.091 162.97 229.504 162.97 228.832C162.97 228.192 163.135 227.643 163.466 227.184C163.807 226.725 164.298 226.373 164.938 226.128C164.426 225.883 164.036 225.557 163.77 225.152C163.503 224.747 163.37 224.267 163.37 223.712C163.37 223.093 163.535 222.555 163.866 222.096C164.207 221.637 164.682 221.285 165.29 221.04C165.898 220.795 166.602 220.672 167.402 220.672C168.212 220.672 168.922 220.795 169.53 221.04C170.148 221.285 170.623 221.637 170.954 222.096C171.295 222.555 171.466 223.093 171.466 223.712C171.466 224.256 171.327 224.736 171.05 225.152C170.783 225.557 170.394 225.883 169.882 226.128ZM167.402 221.968C166.644 221.968 166.047 222.133 165.61 222.464C165.172 222.784 164.954 223.221 164.954 223.776C164.954 224.331 165.167 224.768 165.594 225.088C166.031 225.408 166.634 225.568 167.402 225.568C168.18 225.568 168.788 225.408 169.226 225.088C169.674 224.768 169.898 224.331 169.898 223.776C169.898 223.221 169.668 222.784 169.21 222.464C168.762 222.133 168.159 221.968 167.402 221.968ZM167.402 230.832C168.287 230.832 168.986 230.651 169.498 230.288C170.01 229.915 170.266 229.413 170.266 228.784C170.266 228.165 170.01 227.68 169.498 227.328C168.986 226.965 168.287 226.784 167.402 226.784C166.516 226.784 165.823 226.965 165.322 227.328C164.82 227.68 164.57 228.165 164.57 228.784C164.57 229.413 164.82 229.915 165.322 230.288C165.823 230.651 166.516 230.832 167.402 230.832Z" fill="white"/>
<path d="M205.354 433.739C204.841 432.881 204.444 431.896 204.164 430.785C203.894 429.675 203.758 428.475 203.758 427.187C203.758 425.899 203.894 424.695 204.164 423.575C204.444 422.446 204.841 421.466 205.354 420.635H206.026C204.972 422.437 204.444 424.621 204.444 427.187C204.444 429.754 204.972 431.938 206.026 433.739H205.354ZM208.396 421.223H209.11V430.379H214.752V431.023H208.396V421.223ZM218.84 423.659C219.745 423.659 220.44 423.893 220.926 424.359C221.411 424.817 221.654 425.493 221.654 426.389V431.023H220.982V429.721C220.748 430.151 220.408 430.487 219.96 430.729C219.512 430.963 218.975 431.079 218.35 431.079C217.538 431.079 216.894 430.888 216.418 430.505C215.951 430.123 215.718 429.619 215.718 428.993C215.718 428.387 215.932 427.897 216.362 427.523C216.8 427.141 217.496 426.949 218.448 426.949H220.954V426.361C220.954 425.68 220.767 425.162 220.394 424.807C220.03 424.453 219.493 424.275 218.784 424.275C218.298 424.275 217.832 424.359 217.384 424.527C216.945 424.695 216.572 424.919 216.264 425.199L215.914 424.695C216.278 424.369 216.716 424.117 217.23 423.939C217.743 423.753 218.28 423.659 218.84 423.659ZM218.448 430.505C219.054 430.505 219.568 430.365 219.988 430.085C220.417 429.805 220.739 429.399 220.954 428.867V427.495H218.462C217.743 427.495 217.22 427.626 216.894 427.887C216.576 428.149 216.418 428.508 216.418 428.965C216.418 429.441 216.595 429.819 216.95 430.099C217.304 430.37 217.804 430.505 218.448 430.505ZM223.922 426.949H227.52V427.579H223.922V426.949ZM231.55 425.325C232.978 425.325 234.014 425.577 234.658 426.081C235.302 426.576 235.624 427.281 235.624 428.195C235.624 428.755 235.493 429.255 235.232 429.693C234.98 430.123 234.597 430.463 234.084 430.715C233.57 430.967 232.94 431.093 232.194 431.093C231.484 431.093 230.817 430.972 230.192 430.729C229.576 430.487 229.095 430.169 228.75 429.777L229.114 429.231C229.422 429.586 229.846 429.875 230.388 430.099C230.938 430.323 231.536 430.435 232.18 430.435C233.057 430.435 233.729 430.235 234.196 429.833C234.672 429.432 234.91 428.895 234.91 428.223C234.91 427.486 234.639 426.926 234.098 426.543C233.566 426.161 232.665 425.969 231.396 425.969H229.408L229.926 421.223H235.12V421.867H230.528L230.15 425.325H231.55ZM246.746 426.431H244.086V429.021H243.456V426.431H240.796V425.829H243.456V423.225H244.086V425.829H246.746V426.431ZM255.291 425.969C255.991 426.1 256.523 426.375 256.887 426.795C257.26 427.215 257.447 427.761 257.447 428.433C257.447 429.264 257.143 429.903 256.537 430.351C255.93 430.799 255.029 431.023 253.835 431.023H249.467V421.223H253.555C254.619 421.223 255.445 421.443 256.033 421.881C256.63 422.311 256.929 422.927 256.929 423.729C256.929 424.289 256.779 424.761 256.481 425.143C256.191 425.526 255.795 425.801 255.291 425.969ZM250.181 421.839V425.745H253.527C254.385 425.745 255.043 425.582 255.501 425.255C255.967 424.919 256.201 424.429 256.201 423.785C256.201 423.151 255.967 422.67 255.501 422.343C255.043 422.007 254.385 421.839 253.527 421.839H250.181ZM253.835 430.407C254.787 430.407 255.505 430.244 255.991 429.917C256.485 429.581 256.733 429.068 256.733 428.377C256.733 427.687 256.485 427.178 255.991 426.851C255.505 426.525 254.787 426.361 253.835 426.361H250.181V430.407H253.835ZM265.818 425.969C266.518 426.1 267.05 426.375 267.414 426.795C267.787 427.215 267.974 427.761 267.974 428.433C267.974 429.264 267.671 429.903 267.064 430.351C266.457 430.799 265.557 431.023 264.362 431.023H259.994V421.223H264.082C265.146 421.223 265.972 421.443 266.56 421.881C267.157 422.311 267.456 422.927 267.456 423.729C267.456 424.289 267.307 424.761 267.008 425.143C266.719 425.526 266.322 425.801 265.818 425.969ZM260.708 421.839V425.745H264.054C264.913 425.745 265.571 425.582 266.028 425.255C266.495 424.919 266.728 424.429 266.728 423.785C266.728 423.151 266.495 422.67 266.028 422.343C265.571 422.007 264.913 421.839 264.054 421.839H260.708ZM264.362 430.407C265.314 430.407 266.033 430.244 266.518 429.917C267.013 429.581 267.26 429.068 267.26 428.377C267.26 427.687 267.013 427.178 266.518 426.851C266.033 426.525 265.314 426.361 264.362 426.361H260.708V430.407H264.362ZM269.681 426.949H273.279V427.579H269.681V426.949ZM277.161 421.223V431.023H276.447V421.867H274.053V421.223H277.161ZM286.17 430.379V431.023H279.436V430.519L283.58 426.403C284.122 425.862 284.486 425.4 284.672 425.017C284.868 424.625 284.966 424.224 284.966 423.813C284.966 423.188 284.752 422.698 284.322 422.343C283.902 421.989 283.291 421.811 282.488 421.811C281.872 421.811 281.331 421.905 280.864 422.091C280.407 422.278 280.01 422.563 279.674 422.945L279.17 422.497C279.544 422.068 280.015 421.737 280.584 421.503C281.163 421.27 281.816 421.153 282.544 421.153C283.506 421.153 284.271 421.387 284.84 421.853C285.41 422.32 285.694 422.95 285.694 423.743C285.694 424.247 285.582 424.728 285.358 425.185C285.134 425.643 284.714 426.175 284.098 426.781L280.486 430.379H286.17ZM287.423 433.739C287.964 432.825 288.361 431.826 288.613 430.743C288.865 429.661 288.991 428.475 288.991 427.187C288.991 425.899 288.865 424.714 288.613 423.631C288.361 422.549 287.964 421.55 287.423 420.635H288.081C288.604 421.466 289 422.446 289.271 423.575C289.551 424.695 289.691 425.899 289.691 427.187C289.691 428.475 289.551 429.679 289.271 430.799C289 431.91 288.604 432.89 288.081 433.739H287.423ZM299.912 423.659C300.827 423.659 301.55 423.925 302.082 424.457C302.614 424.989 302.88 425.755 302.88 426.753V431.023H302.18V426.809C302.18 425.988 301.97 425.363 301.55 424.933C301.14 424.504 300.561 424.289 299.814 424.289C298.956 424.289 298.279 424.546 297.784 425.059C297.29 425.573 297.042 426.263 297.042 427.131V431.023H296.342V423.715H297.014V425.297C297.266 424.784 297.64 424.383 298.134 424.093C298.638 423.804 299.231 423.659 299.912 423.659ZM308.882 424.247H314.832V424.835H308.882V424.247ZM308.882 427.411H314.832V427.999H308.882V427.411ZM322.674 421.223V431.023H321.96V421.867H319.566V421.223H322.674ZM329.066 425.227C329.71 425.227 330.279 425.349 330.774 425.591C331.278 425.825 331.665 426.165 331.936 426.613C332.207 427.052 332.342 427.561 332.342 428.139C332.342 428.727 332.202 429.245 331.922 429.693C331.642 430.141 331.255 430.487 330.76 430.729C330.265 430.972 329.705 431.093 329.08 431.093C327.811 431.093 326.835 430.664 326.154 429.805C325.482 428.937 325.146 427.729 325.146 426.179C325.146 425.097 325.323 424.182 325.678 423.435C326.042 422.679 326.551 422.11 327.204 421.727C327.857 421.345 328.623 421.153 329.5 421.153C330.424 421.153 331.166 421.321 331.726 421.657L331.432 422.231C330.965 421.933 330.321 421.783 329.5 421.783C328.371 421.783 327.479 422.152 326.826 422.889C326.182 423.617 325.86 424.677 325.86 426.067C325.86 426.497 325.888 426.889 325.944 427.243C326.14 426.609 326.518 426.114 327.078 425.759C327.647 425.405 328.31 425.227 329.066 425.227ZM329.052 430.477C329.817 430.477 330.438 430.267 330.914 429.847C331.39 429.418 331.628 428.853 331.628 428.153C331.628 427.453 331.39 426.893 330.914 426.473C330.438 426.053 329.789 425.843 328.968 425.843C328.445 425.843 327.974 425.946 327.554 426.151C327.143 426.357 326.821 426.637 326.588 426.991C326.364 427.346 326.252 427.743 326.252 428.181C326.252 428.573 326.359 428.947 326.574 429.301C326.798 429.656 327.12 429.941 327.54 430.155C327.96 430.37 328.464 430.477 329.052 430.477ZM340.179 421.223V421.727L335.965 431.023H335.181L339.353 421.867H333.851V423.743H333.151V421.223H340.179Z" fill="#4A4646"/>
<path d="M251.587 399.823V411.023H250.019V401.215H243.523V411.023H241.939V399.823H251.587ZM259.32 402.463C260.141 402.463 260.877 402.645 261.528 403.007C262.179 403.37 262.685 403.877 263.048 404.527C263.421 405.178 263.608 405.93 263.608 406.783C263.608 407.637 263.421 408.394 263.048 409.055C262.685 409.706 262.179 410.213 261.528 410.575C260.877 410.938 260.141 411.119 259.32 411.119C258.712 411.119 258.152 411.002 257.64 410.767C257.139 410.533 256.712 410.191 256.36 409.743V414.127H254.824V402.543H256.296V403.887C256.637 403.418 257.069 403.066 257.592 402.831C258.115 402.586 258.691 402.463 259.32 402.463ZM259.192 409.775C259.736 409.775 260.221 409.653 260.648 409.407C261.085 409.151 261.427 408.799 261.672 408.351C261.928 407.893 262.056 407.37 262.056 406.783C262.056 406.197 261.928 405.679 261.672 405.231C261.427 404.773 261.085 404.421 260.648 404.175C260.221 403.93 259.736 403.807 259.192 403.807C258.659 403.807 258.173 403.935 257.736 404.191C257.309 404.437 256.968 404.783 256.712 405.231C256.467 405.679 256.344 406.197 256.344 406.783C256.344 407.37 256.467 407.893 256.712 408.351C256.957 408.799 257.299 409.151 257.736 409.407C258.173 409.653 258.659 409.775 259.192 409.775ZM269.472 411.119C268.629 411.119 267.872 410.933 267.2 410.559C266.528 410.186 266 409.674 265.616 409.023C265.242 408.362 265.056 407.615 265.056 406.783C265.056 405.951 265.242 405.21 265.616 404.559C266 403.898 266.528 403.386 267.2 403.023C267.872 402.65 268.629 402.463 269.472 402.463C270.314 402.463 271.066 402.65 271.728 403.023C272.4 403.386 272.922 403.898 273.296 404.559C273.68 405.21 273.872 405.951 273.872 406.783C273.872 407.615 273.68 408.362 273.296 409.023C272.922 409.674 272.4 410.186 271.728 410.559C271.066 410.933 270.314 411.119 269.472 411.119ZM269.472 409.775C270.016 409.775 270.501 409.653 270.928 409.407C271.365 409.151 271.706 408.799 271.952 408.351C272.197 407.893 272.32 407.37 272.32 406.783C272.32 406.197 272.197 405.679 271.952 405.231C271.706 404.773 271.365 404.421 270.928 404.175C270.501 403.93 270.016 403.807 269.472 403.807C268.928 403.807 268.437 403.93 268 404.175C267.573 404.421 267.232 404.773 266.976 405.231C266.73 405.679 266.608 406.197 266.608 406.783C266.608 407.37 266.73 407.893 266.976 408.351C267.232 408.799 267.573 409.151 268 409.407C268.437 409.653 268.928 409.775 269.472 409.775ZM280.41 402.831C281.199 402.831 281.903 403.007 282.522 403.359C283.14 403.711 283.62 404.202 283.962 404.831C284.314 405.45 284.49 406.159 284.49 406.959C284.49 407.781 284.303 408.511 283.93 409.151C283.567 409.781 283.05 410.271 282.378 410.623C281.716 410.975 280.959 411.151 280.106 411.151C278.666 411.151 277.551 410.661 276.762 409.679C275.983 408.687 275.594 407.295 275.594 405.503C275.594 403.765 275.951 402.405 276.666 401.423C277.38 400.431 278.474 399.775 279.946 399.455L283.818 398.591L284.042 399.999L280.474 400.767C279.364 401.013 278.538 401.429 277.994 402.015C277.45 402.602 277.14 403.445 277.066 404.543C277.428 403.999 277.898 403.578 278.474 403.279C279.05 402.981 279.695 402.831 280.41 402.831ZM280.138 409.871C280.682 409.871 281.162 409.749 281.578 409.503C282.004 409.258 282.335 408.922 282.57 408.495C282.804 408.058 282.922 407.562 282.922 407.007C282.922 406.165 282.666 405.487 282.154 404.975C281.642 404.463 280.97 404.207 280.138 404.207C279.306 404.207 278.628 404.463 278.106 404.975C277.594 405.487 277.338 406.165 277.338 407.007C277.338 407.562 277.455 408.058 277.69 408.495C277.935 408.922 278.271 409.258 278.698 409.503C279.124 409.749 279.604 409.871 280.138 409.871ZM286.683 402.543H288.219V408.719L293.419 402.543H294.811V411.023H293.275V404.847L288.091 411.023H286.683V402.543ZM301.425 411.119C300.582 411.119 299.825 410.933 299.153 410.559C298.481 410.186 297.953 409.674 297.569 409.023C297.195 408.362 297.009 407.615 297.009 406.783C297.009 405.951 297.195 405.21 297.569 404.559C297.953 403.898 298.481 403.386 299.153 403.023C299.825 402.65 300.582 402.463 301.425 402.463C302.267 402.463 303.019 402.65 303.681 403.023C304.353 403.386 304.875 403.898 305.249 404.559C305.633 405.21 305.825 405.951 305.825 406.783C305.825 407.615 305.633 408.362 305.249 409.023C304.875 409.674 304.353 410.186 303.681 410.559C303.019 410.933 302.267 411.119 301.425 411.119ZM301.425 409.775C301.969 409.775 302.454 409.653 302.881 409.407C303.318 409.151 303.659 408.799 303.905 408.351C304.15 407.893 304.273 407.37 304.273 406.783C304.273 406.197 304.15 405.679 303.905 405.231C303.659 404.773 303.318 404.421 302.881 404.175C302.454 403.93 301.969 403.807 301.425 403.807C300.881 403.807 300.39 403.93 299.953 404.175C299.526 404.421 299.185 404.773 298.929 405.231C298.683 405.679 298.561 406.197 298.561 406.783C298.561 407.37 298.683 407.893 298.929 408.351C299.185 408.799 299.526 409.151 299.953 409.407C300.39 409.653 300.881 409.775 301.425 409.775ZM314.05 403.887H310.946V411.023H309.41V403.887H306.306V402.543H314.05V403.887ZM315.621 402.543H317.157V408.719L322.357 402.543H323.749V411.023H322.213V404.847L317.029 411.023H315.621V402.543ZM330.026 407.439H328.266V411.023H326.73V402.543H328.266V406.127H330.058L332.81 402.543H334.458L331.242 406.623L334.682 411.023H332.874L330.026 407.439Z" fill="#4A4646"/>
<path d="M271 259.023C271 244.112 283.088 232.023 298 232.023H305C319.912 232.023 332 244.112 332 259.023V391.023H271V259.023Z" fill="url(#paint1_linear)"/>
<path d="M293.945 316.608V318H285.897V316.912L290.457 312.512C291.011 311.979 291.385 311.52 291.577 311.136C291.769 310.741 291.865 310.347 291.865 309.952C291.865 309.365 291.657 308.912 291.241 308.592C290.835 308.261 290.249 308.096 289.481 308.096C288.243 308.096 287.289 308.501 286.617 309.312L285.529 308.368C285.966 307.835 286.537 307.419 287.241 307.12C287.955 306.821 288.75 306.672 289.625 306.672C290.798 306.672 291.731 306.955 292.425 307.52C293.118 308.075 293.465 308.832 293.465 309.792C293.465 310.389 293.337 310.955 293.081 311.488C292.825 312.021 292.339 312.629 291.625 313.312L288.201 316.608H293.945ZM296.488 315.904C296.787 315.904 297.032 316.011 297.224 316.224C297.427 316.427 297.528 316.683 297.528 316.992C297.528 317.152 297.507 317.307 297.464 317.456C297.432 317.605 297.363 317.835 297.256 318.144L296.504 320.368H295.496L296.088 317.984C295.886 317.909 295.72 317.787 295.592 317.616C295.475 317.435 295.416 317.227 295.416 316.992C295.416 316.672 295.518 316.411 295.72 316.208C295.923 316.005 296.179 315.904 296.488 315.904ZM303.486 311.504C304.584 311.611 305.422 311.952 305.998 312.528C306.574 313.093 306.862 313.819 306.862 314.704C306.862 315.344 306.702 315.925 306.382 316.448C306.062 316.96 305.582 317.371 304.942 317.68C304.312 317.979 303.539 318.128 302.622 318.128C301.822 318.128 301.054 318.011 300.318 317.776C299.582 317.531 298.979 317.195 298.51 316.768L299.246 315.504C299.63 315.867 300.12 316.16 300.718 316.384C301.315 316.597 301.95 316.704 302.622 316.704C303.454 316.704 304.099 316.528 304.558 316.176C305.027 315.824 305.262 315.339 305.262 314.72C305.262 314.101 305.032 313.621 304.574 313.28C304.115 312.939 303.422 312.768 302.494 312.768H301.598V311.648L304.414 308.192H299.022V306.8H306.414V307.888L303.486 311.504ZM316.148 316.608V318H308.1V316.912L312.66 312.512C313.214 311.979 313.588 311.52 313.78 311.136C313.972 310.741 314.068 310.347 314.068 309.952C314.068 309.365 313.86 308.912 313.444 308.592C313.038 308.261 312.452 308.096 311.684 308.096C310.446 308.096 309.492 308.501 308.82 309.312L307.732 308.368C308.169 307.835 308.74 307.419 309.444 307.12C310.158 306.821 310.953 306.672 311.828 306.672C313.001 306.672 313.934 306.955 314.628 307.52C315.321 308.075 315.668 308.832 315.668 309.792C315.668 310.389 315.54 310.955 315.284 311.488C315.028 312.021 314.542 312.629 313.828 313.312L310.404 316.608H316.148Z" fill="white"/>
<rect x="145" y="58" width="142" height="2" fill="#5A5858"/>
<path d="M286.759 128.241C286.892 128.374 287.108 128.374 287.241 128.241L289.41 126.072C289.543 125.939 289.543 125.723 289.41 125.59C289.277 125.457 289.061 125.457 288.928 125.59L287 127.518L285.072 125.59C284.939 125.457 284.723 125.457 284.59 125.59C284.457 125.723 284.457 125.939 284.59 126.072L286.759 128.241ZM286.659 61L286.659 128L287.341 128L287.341 61L286.659 61Z" fill="#313131"/>
<path d="M300.646 230.354C300.842 230.549 301.158 230.549 301.354 230.354L304.536 227.172C304.731 226.976 304.731 226.66 304.536 226.464C304.34 226.269 304.024 226.269 303.828 226.464L301 229.293L298.172 226.464C297.976 226.269 297.66 226.269 297.464 226.464C297.269 226.66 297.269 226.976 297.464 227.172L300.646 230.354ZM300.5 179L300.5 230L301.5 230L301.5 179L300.5 179Z" fill="#2BB362"/>
<defs>
<filter id="filter0_d" x="0.976624" y="0.732468" width="397.047" height="522.047" filterUnits="userSpaceOnUse" color-interpolation-filters="sRGB">
<feFlood flood-opacity="0" result="BackgroundImageFix"/>
<feColorMatrix in="SourceAlpha" type="matrix" values="0 0 0 0 0 0 0 0 0 0 0 0 0 0 0 0 0 0 127 0"/>
<feOffset dy="2.75584"/>
<feGaussianBlur stdDeviation="5.51169"/>
<feColorMatrix type="matrix" values="0 0 0 0 0 0 0 0 0 0 0 0 0 0 0 0 0 0 0.15 0"/>
<feBlend mode="normal" in2="BackgroundImageFix" result="effect1_dropShadow"/>
<feBlend mode="normal" in="SourceGraphic" in2="effect1_dropShadow" result="shape"/>
</filter>
<linearGradient id="paint0_linear" x1="232.5" y1="130" x2="345.529" y2="154.126" gradientUnits="userSpaceOnUse">
<stop stop-color="#F17922"/>
<stop offset="1" stop-color="#F7A318"/>
</linearGradient>
<linearGradient id="paint1_linear" x1="271" y1="232.023" x2="333.715" y2="232.703" gradientUnits="userSpaceOnUse">
<stop stop-color="#2CA85E"/>
<stop offset="1" stop-color="#2BBC65"/>
</linearGradient>
</defs>
</svg>
