<svg width="399" height="465" viewBox="0 0 399 465" fill="none" xmlns="http://www.w3.org/2000/svg">
<g filter="url(#filter0_d)">
<rect x="12" y="53" width="375" height="398" rx="5" fill="white"/>
</g>
<path d="M68.128 344.248C68.128 345.368 67.8827 346.381 67.392 347.288C66.8907 348.184 66.208 348.888 65.344 349.4C64.4693 349.912 63.488 350.168 62.4 350.168C61.312 350.168 60.336 349.912 59.472 349.4C58.5973 348.888 57.9147 348.179 57.424 347.272C56.9227 346.365 56.672 345.352 56.672 344.232C56.672 343.357 56.8213 342.557 57.12 341.832C57.408 341.107 57.84 340.488 58.416 339.976L59.424 341.016C58.5387 341.859 58.096 342.909 58.096 344.168C58.096 345 58.2827 345.752 58.656 346.424C59.0293 347.096 59.5467 347.624 60.208 348.008C60.8587 348.381 61.5893 348.568 62.4 348.568C63.2107 348.568 63.9467 348.381 64.608 348.008C65.2587 347.624 65.7707 347.096 66.144 346.424C66.5173 345.752 66.704 345 66.704 344.168C66.704 342.92 66.256 341.869 65.36 341.016L66.368 339.976C66.944 340.488 67.3813 341.112 67.68 341.848C67.9787 342.573 68.128 343.373 68.128 344.248ZM59.44 333.532C59.44 332.71 59.6213 331.974 59.984 331.324C60.3467 330.673 60.8533 330.166 61.504 329.804C62.1547 329.43 62.9067 329.244 63.76 329.244C64.6133 329.244 65.3707 329.43 66.032 329.804C66.6827 330.166 67.1893 330.673 67.552 331.324C67.9147 331.974 68.096 332.71 68.096 333.532C68.096 334.14 67.9787 334.7 67.744 335.212C67.5093 335.713 67.168 336.14 66.72 336.492L71.104 336.492L71.104 338.028L59.52 338.028L59.52 336.556L60.864 336.556C60.3947 336.214 60.0427 335.782 59.808 335.26C59.5627 334.737 59.44 334.161 59.44 333.532ZM66.752 333.66C66.752 333.116 66.6293 332.63 66.384 332.204C66.128 331.766 65.776 331.425 65.328 331.18C64.8693 330.924 64.3467 330.796 63.76 330.796C63.1733 330.796 62.656 330.924 62.208 331.18C61.7493 331.425 61.3973 331.766 61.152 332.204C60.9067 332.63 60.784 333.116 60.784 333.66C60.784 334.193 60.912 334.678 61.168 335.116C61.4133 335.542 61.76 335.884 62.208 336.14C62.656 336.385 63.1733 336.508 63.76 336.508C64.3467 336.508 64.8693 336.385 65.328 336.14C65.776 335.894 66.128 335.553 66.384 335.116C66.6293 334.678 66.752 334.193 66.752 333.66ZM63.808 319.348C63.9253 319.348 64.08 319.359 64.272 319.38L64.272 326.26C65.0187 326.164 65.6213 325.839 66.08 325.284C66.528 324.719 66.752 324.02 66.752 323.188C66.752 322.175 66.4107 321.359 65.728 320.74L66.72 319.892C67.168 320.276 67.5093 320.756 67.744 321.332C67.9787 321.897 68.096 322.532 68.096 323.236C68.096 324.132 67.9147 324.927 67.552 325.62C67.1787 326.313 66.6613 326.852 66 327.236C65.3387 327.609 64.592 327.796 63.76 327.796C62.9387 327.796 62.1973 327.615 61.536 327.252C60.8747 326.879 60.3627 326.372 60 325.732C59.6267 325.081 59.44 324.351 59.44 323.54C59.44 322.729 59.6267 322.009 60 321.38C60.3627 320.74 60.8747 320.244 61.536 319.892C62.1973 319.529 62.9547 319.348 63.808 319.348ZM60.736 323.54C60.736 324.276 60.96 324.895 61.408 325.396C61.856 325.887 62.4427 326.175 63.168 326.26L63.168 320.82C62.4533 320.905 61.872 321.199 61.424 321.7C60.9653 322.191 60.736 322.804 60.736 323.54ZM66.656 308.482L69.968 308.482L69.968 309.922L68 309.922L68 317.01L69.968 317.01L69.968 318.466L66.656 318.466L66.656 318.018C66.624 317.474 66.24 317.1 65.504 316.898C64.768 316.695 63.728 316.556 62.384 316.482L59.52 316.354L59.52 309.778L66.656 309.778L66.656 308.482ZM62.496 315.074C63.5627 315.116 64.448 315.207 65.152 315.346C65.8453 315.474 66.3467 315.714 66.656 316.066L66.656 311.314L60.864 311.314L60.864 314.994L62.496 315.074ZM59.52 306.481L59.52 304.945L63.12 304.945L63.12 300.113L59.52 300.113L59.52 298.577L68 298.577L68 300.113L64.448 300.113L64.448 304.945L68 304.945L68 306.481L59.52 306.481ZM63.808 287.926C63.9253 287.926 64.08 287.937 64.272 287.958L64.272 294.838C65.0187 294.742 65.6213 294.417 66.08 293.862C66.528 293.297 66.752 292.598 66.752 291.766C66.752 290.753 66.4107 289.937 65.728 289.318L66.72 288.47C67.168 288.854 67.5093 289.334 67.744 289.91C67.9787 290.475 68.096 291.11 68.096 291.814C68.096 292.71 67.9147 293.505 67.552 294.198C67.1787 294.891 66.6613 295.43 66 295.814C65.3387 296.187 64.592 296.374 63.76 296.374C62.9387 296.374 62.1973 296.193 61.536 295.83C60.8747 295.457 60.3627 294.95 60 294.31C59.6267 293.659 59.44 292.929 59.44 292.118C59.44 291.307 59.6267 290.587 60 289.958C60.3627 289.318 60.8747 288.822 61.536 288.47C62.1973 288.107 62.9547 287.926 63.808 287.926ZM60.736 292.118C60.736 292.854 60.96 293.473 61.408 293.974C61.856 294.465 62.4427 294.753 63.168 294.838L63.168 289.398C62.4533 289.483 61.872 289.777 61.424 290.278C60.9653 290.769 60.736 291.382 60.736 292.118ZM63.808 277.879C63.9253 277.879 64.08 277.89 64.272 277.911L64.272 284.791C65.0187 284.695 65.6213 284.37 66.08 283.815C66.528 283.25 66.752 282.551 66.752 281.719C66.752 280.706 66.4107 279.89 65.728 279.271L66.72 278.423C67.168 278.807 67.5093 279.287 67.744 279.863C67.9787 280.429 68.096 281.063 68.096 281.767C68.096 282.663 67.9147 283.458 67.552 284.151C67.1787 284.845 66.6613 285.383 66 285.767C65.3387 286.141 64.592 286.327 63.76 286.327C62.9387 286.327 62.1973 286.146 61.536 285.783C60.8747 285.41 60.3627 284.903 60 284.263C59.6267 283.613 59.44 282.882 59.44 282.071C59.44 281.261 59.6267 280.541 60 279.911C60.3627 279.271 60.8747 278.775 61.536 278.423C62.1973 278.061 62.9547 277.879 63.808 277.879ZM60.736 282.071C60.736 282.807 60.96 283.426 61.408 283.927C61.856 284.418 62.4427 284.706 63.168 284.791L63.168 279.351C62.4533 279.437 61.872 279.73 61.424 280.231C60.9653 280.722 60.736 281.335 60.736 282.071ZM59.52 264.431L68 264.431L68 265.967L64.576 265.967C65.0027 266.885 65.216 267.797 65.216 268.703C65.216 269.759 64.9707 270.575 64.48 271.151C63.9893 271.727 63.2533 272.015 62.272 272.015L59.52 272.015L59.52 270.479L62.176 270.479C62.7627 270.479 63.2053 270.298 63.504 269.935C63.8027 269.562 63.952 269.045 63.952 268.383C63.952 267.637 63.7653 266.831 63.392 265.967L59.52 265.967L59.52 264.431ZM59.52 261.449L59.52 259.913L65.696 259.913L59.52 254.713L59.52 253.321L68 253.321L68 254.857L61.824 254.857L68 260.041L68 261.449L59.52 261.449ZM68.096 246.644C68.096 247.508 67.9093 248.281 67.536 248.964C67.1627 249.636 66.6507 250.164 66 250.548C65.3387 250.932 64.592 251.124 63.76 251.124C62.928 251.124 62.1867 250.932 61.536 250.548C60.8747 250.164 60.3627 249.636 60 248.964C59.6267 248.281 59.44 247.508 59.44 246.644C59.44 245.876 59.5947 245.193 59.904 244.596C60.2133 243.988 60.6613 243.519 61.248 243.188L62 244.356C61.5947 244.623 61.2907 244.953 61.088 245.348C60.8853 245.743 60.784 246.18 60.784 246.66C60.784 247.215 60.9067 247.716 61.152 248.164C61.3973 248.601 61.7493 248.948 62.208 249.204C62.656 249.449 63.1733 249.572 63.76 249.572C64.3573 249.572 64.8853 249.449 65.344 249.204C65.792 248.948 66.1387 248.601 66.384 248.164C66.6293 247.716 66.752 247.215 66.752 246.66C66.752 246.18 66.6507 245.743 66.448 245.348C66.2453 244.953 65.9413 244.623 65.536 244.356L66.272 243.188C66.8587 243.519 67.312 243.988 67.632 244.596C67.9413 245.193 68.096 245.876 68.096 246.644ZM59.52 234.169L68 234.169L68 235.705L60.864 235.705L60.864 239.353L62.752 239.449C63.8933 239.503 64.848 239.604 65.616 239.753C66.3733 239.903 66.9813 240.148 67.44 240.489C67.8987 240.831 68.128 241.305 68.128 241.913C68.128 242.191 68.08 242.505 67.984 242.857L66.688 242.761C66.72 242.623 66.736 242.495 66.736 242.377C66.736 241.951 66.5493 241.631 66.176 241.417C65.8027 241.204 65.36 241.065 64.848 241.001C64.336 240.937 63.6053 240.879 62.656 240.825L59.52 240.681L59.52 234.169ZM68.096 227.567C68.096 228.41 67.9093 229.167 67.536 229.839C67.1627 230.511 66.6507 231.039 66 231.423C65.3387 231.797 64.592 231.983 63.76 231.983C62.928 231.983 62.1867 231.797 61.536 231.423C60.8747 231.039 60.3627 230.511 60 229.839C59.6267 229.167 59.44 228.41 59.44 227.567C59.44 226.725 59.6267 225.973 60 225.311C60.3627 224.639 60.8747 224.117 61.536 223.743C62.1867 223.359 62.928 223.167 63.76 223.167C64.592 223.167 65.3387 223.359 66 223.743C66.6507 224.117 67.1627 224.639 67.536 225.311C67.9093 225.973 68.096 226.725 68.096 227.567ZM66.752 227.567C66.752 227.023 66.6293 226.538 66.384 226.111C66.128 225.674 65.776 225.333 65.328 225.087C64.8693 224.842 64.3467 224.719 63.76 224.719C63.1733 224.719 62.656 224.842 62.208 225.087C61.7493 225.333 61.3973 225.674 61.152 226.111C60.9067 226.538 60.784 227.023 60.784 227.567C60.784 228.111 60.9067 228.602 61.152 229.039C61.3973 229.466 61.7493 229.807 62.208 230.063C62.656 230.309 63.1733 230.431 63.76 230.431C64.3467 230.431 64.8693 230.309 65.328 230.063C65.776 229.807 66.128 229.466 66.384 229.039C66.6293 228.602 66.752 228.111 66.752 227.567ZM66.656 208.029L69.968 208.029L69.968 209.469L68 209.469L68 216.557L69.968 216.557L69.968 218.013L66.656 218.013L66.656 217.565C66.624 217.021 66.24 216.647 65.504 216.445C64.768 216.242 63.728 216.103 62.384 216.029L59.52 215.901L59.52 209.325L66.656 209.325L66.656 208.029ZM62.496 214.621C63.5627 214.663 64.448 214.754 65.152 214.893C65.8453 215.021 66.3467 215.261 66.656 215.613L66.656 210.861L60.864 210.861L60.864 214.541L62.496 214.621ZM59.52 206.028L59.52 204.492L63.12 204.492L63.12 199.66L59.52 199.66L59.52 198.124L68 198.124L68 199.66L64.448 199.66L64.448 204.492L68 204.492L68 206.028L59.52 206.028ZM63.808 187.473C63.9253 187.473 64.08 187.484 64.272 187.505L64.272 194.385C65.0187 194.289 65.6213 193.964 66.08 193.409C66.528 192.844 66.752 192.145 66.752 191.313C66.752 190.3 66.4107 189.484 65.728 188.865L66.72 188.017C67.168 188.401 67.5093 188.881 67.744 189.457C67.9787 190.022 68.096 190.657 68.096 191.361C68.096 192.257 67.9147 193.052 67.552 193.745C67.1787 194.438 66.6613 194.977 66 195.361C65.3387 195.734 64.592 195.921 63.76 195.921C62.9387 195.921 62.1973 195.74 61.536 195.377C60.8747 195.004 60.3627 194.497 60 193.857C59.6267 193.206 59.44 192.476 59.44 191.665C59.44 190.854 59.6267 190.134 60 189.505C60.3627 188.865 60.8747 188.369 61.536 188.017C62.1973 187.654 62.9547 187.473 63.808 187.473ZM60.736 191.665C60.736 192.401 60.96 193.02 61.408 193.521C61.856 194.012 62.4427 194.3 63.168 194.385L63.168 188.945C62.4533 189.03 61.872 189.324 61.424 189.825C60.9653 190.316 60.736 190.929 60.736 191.665ZM59.52 185.09L59.52 183.554L65.696 183.554L59.52 178.354L59.52 176.962L68 176.962L68 178.498L61.824 178.498L68 183.682L68 185.09L59.52 185.09ZM58.416 181.122C58.416 181.911 58.2293 182.525 57.856 182.962C57.472 183.399 56.9227 183.623 56.208 183.634L56.208 182.594C56.6027 182.583 56.9227 182.45 57.168 182.194C57.4027 181.927 57.52 181.575 57.52 181.138C57.52 180.701 57.4027 180.349 57.168 180.082C56.9227 179.815 56.6027 179.677 56.208 179.666L56.208 178.594C56.9227 178.605 57.472 178.834 57.856 179.282C58.2293 179.73 58.416 180.343 58.416 181.122ZM68.096 165.988C68.096 166.852 67.9093 167.625 67.536 168.308C67.1627 168.98 66.6507 169.508 66 169.892C65.3387 170.276 64.592 170.468 63.76 170.468C62.928 170.468 62.1867 170.276 61.536 169.892C60.8747 169.508 60.3627 168.98 60 168.308C59.6267 167.625 59.44 166.852 59.44 165.988C59.44 165.22 59.5947 164.537 59.904 163.94C60.2133 163.332 60.6613 162.863 61.248 162.532L62 163.7C61.5947 163.967 61.2907 164.297 61.088 164.692C60.8853 165.087 60.784 165.524 60.784 166.004C60.784 166.559 60.9067 167.06 61.152 167.508C61.3973 167.945 61.7493 168.292 62.208 168.548C62.656 168.793 63.1733 168.916 63.76 168.916C64.3573 168.916 64.8853 168.793 65.344 168.548C65.792 168.292 66.1387 167.945 66.384 167.508C66.6293 167.06 66.752 166.559 66.752 166.004C66.752 165.524 66.6507 165.087 66.448 164.692C66.2453 164.297 65.9413 163.967 65.536 163.7L66.272 162.532C66.8587 162.863 67.312 163.332 67.632 163.94C67.9413 164.537 68.096 165.22 68.096 165.988ZM66.656 147.622L69.968 147.622L69.968 149.062L68 149.062L68 156.15L69.968 156.15L69.968 157.606L66.656 157.606L66.656 157.158C66.624 156.614 66.24 156.241 65.504 156.038C64.768 155.836 63.728 155.697 62.384 155.622L59.52 155.494L59.52 148.918L66.656 148.918L66.656 147.622ZM62.496 154.214C63.5627 154.257 64.448 154.348 65.152 154.486C65.8453 154.614 66.3467 154.854 66.656 155.206L66.656 150.454L60.864 150.454L60.864 154.134L62.496 154.214ZM59.52 145.621L59.52 144.085L65.696 144.085L59.52 138.885L59.52 137.493L68 137.493L68 139.029L61.824 139.029L68 144.213L68 145.621L59.52 145.621ZM59.44 131.488C59.44 130.315 59.728 129.419 60.304 128.8C60.88 128.171 61.7387 127.856 62.88 127.856L68 127.856L68 129.312L66.88 129.312C67.2747 129.568 67.5787 129.936 67.792 130.416C67.9947 130.885 68.096 131.445 68.096 132.096C68.096 133.045 67.8667 133.808 67.408 134.384C66.9493 134.949 66.3467 135.232 65.6 135.232C64.8533 135.232 64.256 134.96 63.808 134.416C63.3493 133.872 63.12 133.008 63.12 131.824L63.12 129.392L62.816 129.392C62.1547 129.392 61.648 129.584 61.296 129.968C60.944 130.352 60.768 130.917 60.768 131.664C60.768 132.165 60.8533 132.656 61.024 133.136C61.184 133.616 61.4027 134.021 61.68 134.352L60.528 134.992C60.176 134.555 59.9093 134.032 59.728 133.424C59.536 132.816 59.44 132.171 59.44 131.488ZM66.912 131.84C66.912 131.253 66.784 130.747 66.528 130.32C66.2613 129.893 65.888 129.584 65.408 129.392L64.224 129.392L64.224 131.76C64.224 133.061 64.6613 133.712 65.536 133.712C65.9627 133.712 66.2987 133.547 66.544 133.216C66.7893 132.885 66.912 132.427 66.912 131.84ZM59.44 120.594C59.44 119.773 59.6213 119.037 59.984 118.386C60.3467 117.735 60.8533 117.229 61.504 116.866C62.1547 116.493 62.9067 116.306 63.76 116.306C64.6133 116.306 65.3707 116.493 66.032 116.866C66.6827 117.229 67.1893 117.735 67.552 118.386C67.9147 119.037 68.096 119.773 68.096 120.594C68.096 121.202 67.9787 121.762 67.744 122.274C67.5093 122.775 67.168 123.202 66.72 123.554L71.104 123.554L71.104 125.09L59.52 125.09L59.52 123.618L60.864 123.618C60.3947 123.277 60.0427 122.845 59.808 122.322C59.5627 121.799 59.44 121.223 59.44 120.594ZM66.752 120.722C66.752 120.178 66.6293 119.693 66.384 119.266C66.128 118.829 65.776 118.487 65.328 118.242C64.8693 117.986 64.3467 117.858 63.76 117.858C63.1733 117.858 62.656 117.986 62.208 118.242C61.7493 118.487 61.3973 118.829 61.152 119.266C60.9067 119.693 60.784 120.178 60.784 120.722C60.784 121.255 60.912 121.741 61.168 122.178C61.4133 122.605 61.76 122.946 62.208 123.202C62.656 123.447 63.1733 123.57 63.76 123.57C64.3467 123.57 64.8693 123.447 65.328 123.202C65.776 122.957 66.128 122.615 66.384 122.178C66.6293 121.741 66.752 121.255 66.752 120.722ZM63.808 106.41C63.9253 106.41 64.08 106.421 64.272 106.442L64.272 113.322C65.0187 113.226 65.6213 112.901 66.08 112.346C66.528 111.781 66.752 111.082 66.752 110.25C66.752 109.237 66.4107 108.421 65.728 107.802L66.72 106.954C67.168 107.338 67.5093 107.818 67.744 108.394C67.9787 108.96 68.096 109.594 68.096 110.298C68.096 111.194 67.9147 111.989 67.552 112.682C67.1787 113.376 66.6613 113.914 66 114.298C65.3387 114.672 64.592 114.858 63.76 114.858C62.9387 114.858 62.1973 114.677 61.536 114.314C60.8747 113.941 60.3627 113.434 60 112.794C59.6267 112.144 59.44 111.413 59.44 110.602C59.44 109.792 59.6267 109.072 60 108.442C60.3627 107.802 60.8747 107.306 61.536 106.954C62.1973 106.592 62.9547 106.41 63.808 106.41ZM60.736 110.602C60.736 111.338 60.96 111.957 61.408 112.458C61.856 112.949 62.4427 113.237 63.168 113.322L63.168 107.882C62.4533 107.968 61.872 108.261 61.424 108.762C60.9653 109.253 60.736 109.866 60.736 110.602ZM63.808 96.3636C63.9253 96.3636 64.08 96.3743 64.272 96.3956L64.272 103.276C65.0187 103.18 65.6213 102.854 66.08 102.3C66.528 101.734 66.752 101.036 66.752 100.204C66.752 99.1903 66.4107 98.3743 65.728 97.7556L66.72 96.9076C67.168 97.2916 67.5093 97.7716 67.744 98.3476C67.9787 98.913 68.096 99.5476 68.096 100.252C68.096 101.148 67.9147 101.942 67.552 102.636C67.1787 103.329 66.6613 103.868 66 104.252C65.3387 104.625 64.592 104.812 63.76 104.812C62.9387 104.812 62.1973 104.63 61.536 104.268C60.8747 103.894 60.3627 103.388 60 102.748C59.6267 102.097 59.44 101.366 59.44 100.556C59.44 99.745 59.6267 99.025 60 98.3956C60.3627 97.7556 60.8747 97.2596 61.536 96.9076C62.1973 96.545 62.9547 96.3636 63.808 96.3636ZM60.736 100.556C60.736 101.292 60.96 101.91 61.408 102.412C61.856 102.902 62.4427 103.19 63.168 103.276L63.168 97.8356C62.4533 97.921 61.872 98.2143 61.424 98.7156C60.9653 99.2063 60.736 99.8196 60.736 100.556ZM59.52 93.9807L59.52 92.4447L65.696 92.4447L59.52 87.2447L59.52 85.8527L68 85.8527L68 87.3887L61.824 87.3887L68 92.5727L68 93.9807L59.52 93.9807ZM58.416 90.0127C58.416 90.8021 58.2293 91.4154 57.856 91.8527C57.472 92.2901 56.9227 92.5141 56.208 92.5247L56.208 91.4847C56.6027 91.4741 56.9227 91.3407 57.168 91.0847C57.4027 90.8181 57.52 90.4661 57.52 90.0287C57.52 89.5914 57.4027 89.2394 57.168 88.9727C56.9227 88.7061 56.6027 88.5674 56.208 88.5567L56.208 87.4847C56.9227 87.4954 57.472 87.7247 57.856 88.1727C58.2293 88.6207 58.416 89.2341 58.416 90.0127Z" fill="#4A4646"/>
<path d="M61.55 407.39C62.01 407.49 62.3633 407.69 62.61 407.99C62.8633 408.283 62.99 408.663 62.99 409.13C62.99 409.73 62.7667 410.193 62.32 410.52C61.88 410.84 61.2267 411 60.36 411H57.14V404H60.16C60.94 404 61.5433 404.157 61.97 404.47C62.4033 404.783 62.62 405.227 62.62 405.8C62.62 406.187 62.5233 406.517 62.33 406.79C62.1433 407.057 61.8833 407.257 61.55 407.39ZM57.88 404.61V407.15H60.11C60.6767 407.15 61.1133 407.043 61.42 406.83C61.7267 406.61 61.88 406.293 61.88 405.88C61.88 405.467 61.7267 405.153 61.42 404.94C61.1133 404.72 60.6767 404.61 60.11 404.61H57.88ZM60.35 410.39C60.9767 410.39 61.45 410.283 61.77 410.07C62.09 409.857 62.25 409.523 62.25 409.07C62.25 408.197 61.6167 407.76 60.35 407.76H57.88V410.39H60.35ZM67.2091 405.7C67.8691 405.7 68.3924 405.893 68.7791 406.28C69.1724 406.66 69.3691 407.217 69.3691 407.95V411H68.6591V408.02C68.6591 407.473 68.5224 407.057 68.2491 406.77C67.9757 406.483 67.5857 406.34 67.0791 406.34C66.5124 406.34 66.0624 406.51 65.7291 406.85C65.4024 407.183 65.2391 407.647 65.2391 408.24V411H64.5291V403.58H65.2391V406.66C65.4324 406.353 65.6991 406.117 66.0391 405.95C66.3791 405.783 66.7691 405.7 67.2091 405.7ZM73.1366 405.7C73.8233 405.7 74.35 405.873 74.7166 406.22C75.0833 406.56 75.2666 407.067 75.2666 407.74V411H74.5866V410.18C74.4266 410.453 74.19 410.667 73.8766 410.82C73.57 410.973 73.2033 411.05 72.7766 411.05C72.19 411.05 71.7233 410.91 71.3766 410.63C71.03 410.35 70.8566 409.98 70.8566 409.52C70.8566 409.073 71.0166 408.713 71.3366 408.44C71.6633 408.167 72.18 408.03 72.8866 408.03H74.5566V407.71C74.5566 407.257 74.43 406.913 74.1766 406.68C73.9233 406.44 73.5533 406.32 73.0666 406.32C72.7333 406.32 72.4133 406.377 72.1066 406.49C71.8 406.597 71.5366 406.747 71.3166 406.94L70.9966 406.41C71.2633 406.183 71.5833 406.01 71.9566 405.89C72.33 405.763 72.7233 405.7 73.1366 405.7ZM72.8866 410.49C73.2866 410.49 73.63 410.4 73.9166 410.22C74.2033 410.033 74.4166 409.767 74.5566 409.42V408.56H72.9066C72.0066 408.56 71.5566 408.873 71.5566 409.5C71.5566 409.807 71.6733 410.05 71.9066 410.23C72.14 410.403 72.4666 410.49 72.8866 410.49ZM77.1951 403.58H77.9051V411H77.1951V403.58ZM79.8806 403.58H80.5906V411H79.8806V403.58ZM84.4062 405.7C85.0928 405.7 85.6195 405.873 85.9862 406.22C86.3528 406.56 86.5362 407.067 86.5362 407.74V411H85.8562V410.18C85.6962 410.453 85.4595 410.667 85.1462 410.82C84.8395 410.973 84.4728 411.05 84.0462 411.05C83.4595 411.05 82.9928 410.91 82.6462 410.63C82.2995 410.35 82.1262 409.98 82.1262 409.52C82.1262 409.073 82.2862 408.713 82.6062 408.44C82.9328 408.167 83.4495 408.03 84.1562 408.03H85.8262V407.71C85.8262 407.257 85.6995 406.913 85.4462 406.68C85.1928 406.44 84.8228 406.32 84.3362 406.32C84.0028 406.32 83.6828 406.377 83.3762 406.49C83.0695 406.597 82.8062 406.747 82.5862 406.94L82.2662 406.41C82.5328 406.183 82.8528 406.01 83.2262 405.89C83.5995 405.763 83.9928 405.7 84.4062 405.7ZM84.1562 410.49C84.5562 410.49 84.8995 410.4 85.1862 410.22C85.4728 410.033 85.6862 409.767 85.8262 409.42V408.56H84.1762C83.2762 408.56 82.8262 408.873 82.8262 409.5C82.8262 409.807 82.9428 410.05 83.1762 410.23C83.4095 410.403 83.7362 410.49 84.1562 410.49ZM95.6218 409.13H91.7218L90.8818 411H90.1118L93.3118 404H94.0418L97.2418 411H96.4618L95.6218 409.13ZM95.3518 408.53L93.6718 404.77L91.9918 408.53H95.3518ZM98.6616 411.05C98.5149 411.05 98.3882 410.997 98.2816 410.89C98.1816 410.783 98.1316 410.653 98.1316 410.5C98.1316 410.347 98.1816 410.22 98.2816 410.12C98.3882 410.013 98.5149 409.96 98.6616 409.96C98.8082 409.96 98.9349 410.013 99.0416 410.12C99.1482 410.22 99.2016 410.347 99.2016 410.5C99.2016 410.653 99.1482 410.783 99.0416 410.89C98.9349 410.997 98.8082 411.05 98.6616 411.05ZM107.908 408.59H103.508C103.548 409.137 103.758 409.58 104.138 409.92C104.518 410.253 104.998 410.42 105.578 410.42C105.905 410.42 106.205 410.363 106.478 410.25C106.751 410.13 106.988 409.957 107.188 409.73L107.588 410.19C107.355 410.47 107.061 410.683 106.708 410.83C106.361 410.977 105.978 411.05 105.558 411.05C105.018 411.05 104.538 410.937 104.118 410.71C103.705 410.477 103.381 410.157 103.148 409.75C102.915 409.343 102.798 408.883 102.798 408.37C102.798 407.857 102.908 407.397 103.128 406.99C103.355 406.583 103.661 406.267 104.048 406.04C104.441 405.813 104.881 405.7 105.368 405.7C105.855 405.7 106.291 405.813 106.678 406.04C107.065 406.267 107.368 406.583 107.588 406.99C107.808 407.39 107.918 407.85 107.918 408.37L107.908 408.59ZM105.368 406.31C104.861 406.31 104.435 406.473 104.088 406.8C103.748 407.12 103.555 407.54 103.508 408.06H107.238C107.191 407.54 106.995 407.12 106.648 406.8C106.308 406.473 105.881 406.31 105.368 406.31ZM112.133 410.68C112 410.8 111.833 410.893 111.633 410.96C111.44 411.02 111.236 411.05 111.023 411.05C110.53 411.05 110.15 410.917 109.883 410.65C109.616 410.383 109.483 410.007 109.483 409.52V406.34H108.543V405.74H109.483V404.59H110.193V405.74H111.793V406.34H110.193V409.48C110.193 409.793 110.27 410.033 110.423 410.2C110.583 410.36 110.81 410.44 111.103 410.44C111.25 410.44 111.39 410.417 111.523 410.37C111.663 410.323 111.783 410.257 111.883 410.17L112.133 410.68ZM117.883 405.7C118.569 405.7 119.096 405.873 119.463 406.22C119.829 406.56 120.013 407.067 120.013 407.74V411H119.333V410.18C119.173 410.453 118.936 410.667 118.623 410.82C118.316 410.973 117.949 411.05 117.523 411.05C116.936 411.05 116.469 410.91 116.123 410.63C115.776 410.35 115.603 409.98 115.603 409.52C115.603 409.073 115.763 408.713 116.083 408.44C116.409 408.167 116.926 408.03 117.633 408.03H119.303V407.71C119.303 407.257 119.176 406.913 118.923 406.68C118.669 406.44 118.299 406.32 117.813 406.32C117.479 406.32 117.159 406.377 116.853 406.49C116.546 406.597 116.283 406.747 116.063 406.94L115.743 406.41C116.009 406.183 116.329 406.01 116.703 405.89C117.076 405.763 117.469 405.7 117.883 405.7ZM117.633 410.49C118.033 410.49 118.376 410.4 118.663 410.22C118.949 410.033 119.163 409.767 119.303 409.42V408.56H117.653C116.753 408.56 116.303 408.873 116.303 409.5C116.303 409.807 116.419 410.05 116.653 410.23C116.886 410.403 117.213 410.49 117.633 410.49ZM121.941 403.58H122.651V411H121.941V403.58ZM124.697 411.05C124.55 411.05 124.423 410.997 124.317 410.89C124.217 410.783 124.167 410.653 124.167 410.5C124.167 410.347 124.217 410.22 124.317 410.12C124.423 410.013 124.55 409.96 124.697 409.96C124.843 409.96 124.97 410.013 125.077 410.12C125.183 410.22 125.237 410.347 125.237 410.5C125.237 410.653 125.183 410.783 125.077 410.89C124.97 410.997 124.843 411.05 124.697 411.05ZM126.826 409.96C126.979 409.96 127.106 410.013 127.206 410.12C127.306 410.22 127.356 410.347 127.356 410.5C127.356 410.58 127.343 410.667 127.316 410.76C127.296 410.853 127.263 410.96 127.216 411.08L126.796 412.46H126.316L126.656 411.01C126.549 410.977 126.463 410.917 126.396 410.83C126.329 410.737 126.296 410.627 126.296 410.5C126.296 410.347 126.346 410.22 126.446 410.12C126.546 410.013 126.673 409.96 126.826 409.96ZM132.382 411.06C131.982 411.06 131.612 410.973 131.272 410.8C130.932 410.627 130.656 410.38 130.442 410.06L130.882 409.56C131.269 410.133 131.772 410.42 132.392 410.42C133.259 410.42 133.692 409.907 133.692 408.88V404.64H131.132V404H134.422V408.85C134.422 409.583 134.249 410.137 133.902 410.51C133.562 410.877 133.056 411.06 132.382 411.06ZM142.299 411.06C141.606 411.06 140.979 410.907 140.419 410.6C139.866 410.293 139.429 409.87 139.109 409.33C138.796 408.783 138.639 408.173 138.639 407.5C138.639 406.827 138.796 406.22 139.109 405.68C139.429 405.133 139.869 404.707 140.429 404.4C140.989 404.093 141.616 403.94 142.309 403.94C142.829 403.94 143.309 404.027 143.749 404.2C144.189 404.373 144.562 404.627 144.869 404.96L144.399 405.43C143.852 404.877 143.162 404.6 142.329 404.6C141.776 404.6 141.272 404.727 140.819 404.98C140.366 405.233 140.009 405.58 139.749 406.02C139.496 406.46 139.369 406.953 139.369 407.5C139.369 408.047 139.496 408.54 139.749 408.98C140.009 409.42 140.366 409.767 140.819 410.02C141.272 410.273 141.776 410.4 142.329 410.4C143.169 410.4 143.859 410.12 144.399 409.56L144.869 410.03C144.562 410.363 144.186 410.62 143.739 410.8C143.299 410.973 142.819 411.06 142.299 411.06ZM146.297 403.58H147.007V411H146.297V403.58ZM148.982 405.74H149.692V411H148.982V405.74ZM149.342 404.59C149.196 404.59 149.072 404.54 148.972 404.44C148.872 404.34 148.822 404.22 148.822 404.08C148.822 403.947 148.872 403.83 148.972 403.73C149.072 403.63 149.196 403.58 149.342 403.58C149.489 403.58 149.612 403.63 149.712 403.73C149.812 403.823 149.862 403.937 149.862 404.07C149.862 404.217 149.812 404.34 149.712 404.44C149.612 404.54 149.489 404.59 149.342 404.59ZM154.348 405.7C155.008 405.7 155.531 405.893 155.918 406.28C156.311 406.66 156.508 407.217 156.508 407.95V411H155.798V408.02C155.798 407.473 155.661 407.057 155.388 406.77C155.114 406.483 154.724 406.34 154.218 406.34C153.651 406.34 153.201 406.51 152.868 406.85C152.541 407.183 152.378 407.647 152.378 408.24V411H151.668V405.74H152.348V406.71C152.541 406.39 152.808 406.143 153.148 405.97C153.494 405.79 153.894 405.7 154.348 405.7ZM163.823 404C164.716 404 165.416 404.213 165.923 404.64C166.429 405.067 166.683 405.653 166.683 406.4C166.683 407.147 166.429 407.733 165.923 408.16C165.416 408.58 164.716 408.79 163.823 408.79H161.943V411H161.203V404H163.823ZM163.803 408.14C164.496 408.14 165.026 407.99 165.393 407.69C165.759 407.383 165.942 406.953 165.942 406.4C165.942 405.833 165.759 405.4 165.393 405.1C165.026 404.793 164.496 404.64 163.803 404.64H161.943V408.14H163.803ZM170.91 405.7C171.57 405.7 172.094 405.893 172.48 406.28C172.874 406.66 173.07 407.217 173.07 407.95V411H172.36V408.02C172.36 407.473 172.224 407.057 171.95 406.77C171.677 406.483 171.287 406.34 170.78 406.34C170.214 406.34 169.764 406.51 169.43 406.85C169.104 407.183 168.94 407.647 168.94 408.24V411H168.23V403.58H168.94V406.66C169.134 406.353 169.4 406.117 169.74 405.95C170.08 405.783 170.47 405.7 170.91 405.7ZM176.838 405.7C177.524 405.7 178.051 405.873 178.418 406.22C178.784 406.56 178.968 407.067 178.968 407.74V411H178.288V410.18C178.128 410.453 177.891 410.667 177.578 410.82C177.271 410.973 176.904 411.05 176.478 411.05C175.891 411.05 175.424 410.91 175.078 410.63C174.731 410.35 174.558 409.98 174.558 409.52C174.558 409.073 174.718 408.713 175.038 408.44C175.364 408.167 175.881 408.03 176.588 408.03H178.258V407.71C178.258 407.257 178.131 406.913 177.878 406.68C177.624 406.44 177.254 406.32 176.768 406.32C176.434 406.32 176.114 406.377 175.808 406.49C175.501 406.597 175.238 406.747 175.018 406.94L174.698 406.41C174.964 406.183 175.284 406.01 175.658 405.89C176.031 405.763 176.424 405.7 176.838 405.7ZM176.588 410.49C176.988 410.49 177.331 410.4 177.618 410.22C177.904 410.033 178.118 409.767 178.258 409.42V408.56H176.608C175.708 408.56 175.258 408.873 175.258 409.5C175.258 409.807 175.374 410.05 175.608 410.23C175.841 410.403 176.168 410.49 176.588 410.49ZM181.576 406.77C181.743 406.417 181.99 406.15 182.316 405.97C182.65 405.79 183.06 405.7 183.546 405.7V406.39L183.376 406.38C182.823 406.38 182.39 406.55 182.076 406.89C181.763 407.23 181.606 407.707 181.606 408.32V411H180.896V405.74H181.576V406.77ZM191.392 405.7C192.052 405.7 192.568 405.89 192.942 406.27C193.322 406.65 193.512 407.21 193.512 407.95V411H192.802V408.02C192.802 407.473 192.668 407.057 192.402 406.77C192.142 406.483 191.772 406.34 191.292 406.34C190.745 406.34 190.315 406.51 190.002 406.85C189.688 407.183 189.532 407.647 189.532 408.24V411H188.822V408.02C188.822 407.473 188.688 407.057 188.422 406.77C188.162 406.483 187.788 406.34 187.302 406.34C186.762 406.34 186.332 406.51 186.012 406.85C185.698 407.183 185.542 407.647 185.542 408.24V411H184.832V405.74H185.512V406.7C185.698 406.38 185.958 406.133 186.292 405.96C186.625 405.787 187.008 405.7 187.442 405.7C187.882 405.7 188.262 405.793 188.582 405.98C188.908 406.167 189.152 406.443 189.312 406.81C189.505 406.463 189.782 406.193 190.142 406C190.508 405.8 190.925 405.7 191.392 405.7ZM197.277 405.7C197.964 405.7 198.491 405.873 198.857 406.22C199.224 406.56 199.407 407.067 199.407 407.74V411H198.727V410.18C198.567 410.453 198.331 410.667 198.017 410.82C197.711 410.973 197.344 411.05 196.917 411.05C196.331 411.05 195.864 410.91 195.517 410.63C195.171 410.35 194.997 409.98 194.997 409.52C194.997 409.073 195.157 408.713 195.477 408.44C195.804 408.167 196.321 408.03 197.027 408.03H198.697V407.71C198.697 407.257 198.571 406.913 198.317 406.68C198.064 406.44 197.694 406.32 197.207 406.32C196.874 406.32 196.554 406.377 196.247 406.49C195.941 406.597 195.677 406.747 195.457 406.94L195.137 406.41C195.404 406.183 195.724 406.01 196.097 405.89C196.471 405.763 196.864 405.7 197.277 405.7ZM197.027 410.49C197.427 410.49 197.771 410.4 198.057 410.22C198.344 410.033 198.557 409.767 198.697 409.42V408.56H197.047C196.147 408.56 195.697 408.873 195.697 409.5C195.697 409.807 195.814 410.05 196.047 410.23C196.281 410.403 196.607 410.49 197.027 410.49ZM203.535 411.05C203.015 411.05 202.549 410.937 202.135 410.71C201.729 410.483 201.409 410.167 201.175 409.76C200.942 409.347 200.825 408.883 200.825 408.37C200.825 407.857 200.942 407.397 201.175 406.99C201.409 406.583 201.729 406.267 202.135 406.04C202.549 405.813 203.015 405.7 203.535 405.7C203.989 405.7 204.392 405.79 204.745 405.97C205.105 406.143 205.389 406.4 205.595 406.74L205.065 407.1C204.892 406.84 204.672 406.647 204.405 406.52C204.139 406.387 203.849 406.32 203.535 406.32C203.155 406.32 202.812 406.407 202.505 406.58C202.205 406.747 201.969 406.987 201.795 407.3C201.629 407.613 201.545 407.97 201.545 408.37C201.545 408.777 201.629 409.137 201.795 409.45C201.969 409.757 202.205 409.997 202.505 410.17C202.812 410.337 203.155 410.42 203.535 410.42C203.849 410.42 204.139 410.357 204.405 410.23C204.672 410.103 204.892 409.91 205.065 409.65L205.595 410.01C205.389 410.35 205.105 410.61 204.745 410.79C204.385 410.963 203.982 411.05 203.535 411.05ZM209.052 411.05C208.545 411.05 208.089 410.937 207.682 410.71C207.275 410.477 206.955 410.157 206.722 409.75C206.489 409.343 206.372 408.883 206.372 408.37C206.372 407.857 206.489 407.397 206.722 406.99C206.955 406.583 207.275 406.267 207.682 406.04C208.089 405.813 208.545 405.7 209.052 405.7C209.559 405.7 210.015 405.813 210.422 406.04C210.829 406.267 211.145 406.583 211.372 406.99C211.605 407.397 211.722 407.857 211.722 408.37C211.722 408.883 211.605 409.343 211.372 409.75C211.145 410.157 210.829 410.477 210.422 410.71C210.015 410.937 209.559 411.05 209.052 411.05ZM209.052 410.42C209.425 410.42 209.759 410.337 210.052 410.17C210.352 409.997 210.585 409.753 210.752 409.44C210.919 409.127 211.002 408.77 211.002 408.37C211.002 407.97 210.919 407.613 210.752 407.3C210.585 406.987 210.352 406.747 210.052 406.58C209.759 406.407 209.425 406.32 209.052 406.32C208.679 406.32 208.342 406.407 208.042 406.58C207.749 406.747 207.515 406.987 207.342 407.3C207.175 407.613 207.092 407.97 207.092 408.37C207.092 408.77 207.175 409.127 207.342 409.44C207.515 409.753 207.749 409.997 208.042 410.17C208.342 410.337 208.679 410.42 209.052 410.42ZM213.172 403.58H213.882V411H213.172V403.58ZM215.927 411.05C215.781 411.05 215.654 410.997 215.547 410.89C215.447 410.783 215.397 410.653 215.397 410.5C215.397 410.347 215.447 410.22 215.547 410.12C215.654 410.013 215.781 409.96 215.927 409.96C216.074 409.96 216.201 410.013 216.307 410.12C216.414 410.22 216.467 410.347 216.467 410.5C216.467 410.653 216.414 410.783 216.307 410.89C216.201 410.997 216.074 411.05 215.927 411.05ZM218.056 409.96C218.21 409.96 218.336 410.013 218.436 410.12C218.536 410.22 218.586 410.347 218.586 410.5C218.586 410.58 218.573 410.667 218.546 410.76C218.526 410.853 218.493 410.96 218.446 411.08L218.026 412.46H217.546L217.886 411.01C217.78 410.977 217.693 410.917 217.626 410.83C217.56 410.737 217.526 410.627 217.526 410.5C217.526 410.347 217.576 410.22 217.676 410.12C217.776 410.013 217.903 409.96 218.056 409.96ZM227.023 410.36V411H222.113V410.49L225.023 407.64C225.389 407.28 225.636 406.97 225.763 406.71C225.896 406.443 225.963 406.177 225.963 405.91C225.963 405.497 225.819 405.177 225.533 404.95C225.253 404.717 224.849 404.6 224.323 404.6C223.503 404.6 222.866 404.86 222.413 405.38L221.903 404.94C222.176 404.62 222.523 404.373 222.943 404.2C223.369 404.027 223.849 403.94 224.383 403.94C225.096 403.94 225.659 404.11 226.073 404.45C226.493 404.783 226.703 405.243 226.703 405.83C226.703 406.19 226.623 406.537 226.463 406.87C226.303 407.203 225.999 407.587 225.553 408.02L223.173 410.36H227.023ZM230.677 411.06C230.137 411.06 229.654 410.917 229.227 410.63C228.807 410.343 228.477 409.933 228.237 409.4C228.004 408.86 227.887 408.227 227.887 407.5C227.887 406.773 228.004 406.143 228.237 405.61C228.477 405.07 228.807 404.657 229.227 404.37C229.654 404.083 230.137 403.94 230.677 403.94C231.217 403.94 231.697 404.083 232.117 404.37C232.544 404.657 232.877 405.07 233.117 405.61C233.357 406.143 233.477 406.773 233.477 407.5C233.477 408.227 233.357 408.86 233.117 409.4C232.877 409.933 232.544 410.343 232.117 410.63C231.697 410.917 231.217 411.06 230.677 411.06ZM230.677 410.4C231.084 410.4 231.441 410.287 231.747 410.06C232.061 409.833 232.304 409.503 232.477 409.07C232.651 408.637 232.737 408.113 232.737 407.5C232.737 406.887 232.651 406.363 232.477 405.93C232.304 405.497 232.061 405.167 231.747 404.94C231.441 404.713 231.084 404.6 230.677 404.6C230.271 404.6 229.911 404.713 229.597 404.94C229.291 405.167 229.051 405.497 228.877 405.93C228.704 406.363 228.617 406.887 228.617 407.5C228.617 408.113 228.704 408.637 228.877 409.07C229.051 409.503 229.291 409.833 229.597 410.06C229.911 410.287 230.271 410.4 230.677 410.4ZM236.429 404V411H235.709V404.64L234.059 404.64V404L236.429 404ZM240.042 404V411H239.322V404.64H237.672V404H240.042ZM242.255 406.79C242.109 406.79 241.982 406.737 241.875 406.63C241.775 406.523 241.725 406.393 241.725 406.24C241.725 406.087 241.775 405.96 241.875 405.86C241.982 405.753 242.109 405.7 242.255 405.7C242.402 405.7 242.529 405.753 242.635 405.86C242.742 405.96 242.795 406.087 242.795 406.24C242.795 406.393 242.742 406.523 242.635 406.63C242.529 406.737 242.402 406.79 242.255 406.79ZM242.265 409.96C242.419 409.96 242.545 410.013 242.645 410.12C242.745 410.22 242.795 410.347 242.795 410.5C242.795 410.58 242.782 410.667 242.755 410.76C242.735 410.853 242.702 410.96 242.655 411.08L242.235 412.46H241.755L242.095 411.01C241.989 410.977 241.902 410.917 241.835 410.83C241.769 410.737 241.735 410.627 241.735 410.5C241.735 410.347 241.785 410.22 241.885 410.12C241.985 410.013 242.112 409.96 242.265 409.96ZM60.18 423.06C59.4867 423.06 58.86 422.907 58.3 422.6C57.7467 422.293 57.31 421.87 56.99 421.33C56.6767 420.783 56.52 420.173 56.52 419.5C56.52 418.827 56.6767 418.22 56.99 417.68C57.31 417.133 57.75 416.707 58.31 416.4C58.87 416.093 59.4967 415.94 60.19 415.94C60.71 415.94 61.19 416.027 61.63 416.2C62.07 416.373 62.4433 416.627 62.75 416.96L62.28 417.43C61.7333 416.877 61.0433 416.6 60.21 416.6C59.6567 416.6 59.1533 416.727 58.7 416.98C58.2467 417.233 57.89 417.58 57.63 418.02C57.3767 418.46 57.25 418.953 57.25 419.5C57.25 420.047 57.3767 420.54 57.63 420.98C57.89 421.42 58.2467 421.767 58.7 422.02C59.1533 422.273 59.6567 422.4 60.21 422.4C61.05 422.4 61.74 422.12 62.28 421.56L62.75 422.03C62.4433 422.363 62.0667 422.62 61.62 422.8C61.18 422.973 60.7 423.06 60.18 423.06ZM66.8575 417.7C67.5175 417.7 68.0408 417.893 68.4275 418.28C68.8208 418.66 69.0175 419.217 69.0175 419.95V423H68.3075V420.02C68.3075 419.473 68.1708 419.057 67.8975 418.77C67.6242 418.483 67.2342 418.34 66.7275 418.34C66.1608 418.34 65.7108 418.51 65.3775 418.85C65.0508 419.183 64.8875 419.647 64.8875 420.24V423H64.1775V415.58H64.8875V418.66C65.0808 418.353 65.3475 418.117 65.6875 417.95C66.0275 417.783 66.4175 417.7 66.8575 417.7ZM72.7851 417.7C73.4717 417.7 73.9984 417.873 74.3651 418.22C74.7317 418.56 74.9151 419.067 74.9151 419.74V423H74.2351V422.18C74.0751 422.453 73.8384 422.667 73.5251 422.82C73.2184 422.973 72.8517 423.05 72.4251 423.05C71.8384 423.05 71.3717 422.91 71.0251 422.63C70.6784 422.35 70.5051 421.98 70.5051 421.52C70.5051 421.073 70.6651 420.713 70.9851 420.44C71.3117 420.167 71.8284 420.03 72.5351 420.03H74.2051V419.71C74.2051 419.257 74.0784 418.913 73.8251 418.68C73.5717 418.44 73.2017 418.32 72.7151 418.32C72.3817 418.32 72.0617 418.377 71.7551 418.49C71.4484 418.597 71.1851 418.747 70.9651 418.94L70.6451 418.41C70.9117 418.183 71.2317 418.01 71.6051 417.89C71.9784 417.763 72.3717 417.7 72.7851 417.7ZM72.5351 422.49C72.9351 422.49 73.2784 422.4 73.5651 422.22C73.8517 422.033 74.0651 421.767 74.2051 421.42V420.56H72.5551C71.6551 420.56 71.2051 420.873 71.2051 421.5C71.2051 421.807 71.3217 422.05 71.5551 422.23C71.7884 422.403 72.1151 422.49 72.5351 422.49ZM79.6135 422.68C79.4802 422.8 79.3135 422.893 79.1135 422.96C78.9202 423.02 78.7168 423.05 78.5035 423.05C78.0102 423.05 77.6302 422.917 77.3635 422.65C77.0968 422.383 76.9635 422.007 76.9635 421.52V418.34H76.0235V417.74H76.9635V416.59H77.6735V417.74H79.2735V418.34H77.6735V421.48C77.6735 421.793 77.7502 422.033 77.9035 422.2C78.0635 422.36 78.2902 422.44 78.5835 422.44C78.7302 422.44 78.8702 422.417 79.0035 422.37C79.1435 422.323 79.2635 422.257 79.3635 422.17L79.6135 422.68ZM86.2932 422.68C86.1599 422.8 85.9932 422.893 85.7932 422.96C85.5999 423.02 85.3965 423.05 85.1832 423.05C84.6899 423.05 84.3099 422.917 84.0432 422.65C83.7765 422.383 83.6432 422.007 83.6432 421.52V418.34H82.7032V417.74H83.6432V416.59H84.3532V417.74H85.9532V418.34H84.3532V421.48C84.3532 421.793 84.4299 422.033 84.5832 422.2C84.7432 422.36 84.9699 422.44 85.2632 422.44C85.4099 422.44 85.5499 422.417 85.6832 422.37C85.8232 422.323 85.9432 422.257 86.0432 422.17L86.2932 422.68ZM91.9802 420.59H87.5802C87.6202 421.137 87.8302 421.58 88.2102 421.92C88.5902 422.253 89.0702 422.42 89.6502 422.42C89.9768 422.42 90.2768 422.363 90.5502 422.25C90.8235 422.13 91.0602 421.957 91.2602 421.73L91.6602 422.19C91.4268 422.47 91.1335 422.683 90.7802 422.83C90.4335 422.977 90.0502 423.05 89.6302 423.05C89.0902 423.05 88.6102 422.937 88.1902 422.71C87.7768 422.477 87.4535 422.157 87.2202 421.75C86.9868 421.343 86.8702 420.883 86.8702 420.37C86.8702 419.857 86.9802 419.397 87.2002 418.99C87.4268 418.583 87.7335 418.267 88.1202 418.04C88.5135 417.813 88.9535 417.7 89.4402 417.7C89.9268 417.7 90.3635 417.813 90.7502 418.04C91.1368 418.267 91.4402 418.583 91.6602 418.99C91.8802 419.39 91.9902 419.85 91.9902 420.37L91.9802 420.59ZM89.4402 418.31C88.9335 418.31 88.5068 418.473 88.1602 418.8C87.8202 419.12 87.6268 419.54 87.5802 420.06H91.3102C91.2635 419.54 91.0668 419.12 90.7202 418.8C90.3802 418.473 89.9535 418.31 89.4402 418.31ZM94.1153 418.77C94.282 418.417 94.5286 418.15 94.8553 417.97C95.1886 417.79 95.5986 417.7 96.0853 417.7V418.39L95.9153 418.38C95.362 418.38 94.9286 418.55 94.6153 418.89C94.302 419.23 94.1453 419.707 94.1453 420.32V423H93.4353V417.74H94.1153V418.77ZM96.669 424.99C96.449 424.99 96.2423 424.96 96.049 424.9C95.849 424.847 95.6857 424.763 95.559 424.65L95.809 424.11C96.0157 424.29 96.289 424.38 96.629 424.38C96.909 424.38 97.1223 424.297 97.269 424.13C97.4223 423.963 97.499 423.717 97.499 423.39V417.74H98.209V423.39C98.209 423.883 98.0757 424.273 97.809 424.56C97.5423 424.847 97.1623 424.99 96.669 424.99ZM97.859 416.58C97.7123 416.58 97.589 416.53 97.489 416.43C97.389 416.33 97.339 416.21 97.339 416.07C97.339 415.937 97.389 415.82 97.489 415.72C97.589 415.62 97.7123 415.57 97.859 415.57C98.0057 415.57 98.129 415.62 98.229 415.72C98.329 415.813 98.379 415.927 98.379 416.06C98.379 416.207 98.329 416.33 98.229 416.43C98.129 416.53 98.0057 416.58 97.859 416.58ZM104.773 420.59H100.373C100.413 421.137 100.623 421.58 101.003 421.92C101.383 422.253 101.863 422.42 102.443 422.42C102.77 422.42 103.07 422.363 103.343 422.25C103.616 422.13 103.853 421.957 104.053 421.73L104.453 422.19C104.22 422.47 103.926 422.683 103.573 422.83C103.226 422.977 102.843 423.05 102.423 423.05C101.883 423.05 101.403 422.937 100.983 422.71C100.57 422.477 100.246 422.157 100.013 421.75C99.7798 421.343 99.6631 420.883 99.6631 420.37C99.6631 419.857 99.7731 419.397 99.9931 418.99C100.22 418.583 100.526 418.267 100.913 418.04C101.306 417.813 101.746 417.7 102.233 417.7C102.72 417.7 103.156 417.813 103.543 418.04C103.93 418.267 104.233 418.583 104.453 418.99C104.673 419.39 104.783 419.85 104.783 420.37L104.773 420.59ZM102.233 418.31C101.726 418.31 101.3 418.473 100.953 418.8C100.613 419.12 100.42 419.54 100.373 420.06H104.103C104.056 419.54 103.86 419.12 103.513 418.8C103.173 418.473 102.746 418.31 102.233 418.31ZM110.808 420.59H106.408C106.448 421.137 106.658 421.58 107.038 421.92C107.418 422.253 107.898 422.42 108.478 422.42C108.805 422.42 109.105 422.363 109.378 422.25C109.652 422.13 109.888 421.957 110.088 421.73L110.488 422.19C110.255 422.47 109.962 422.683 109.608 422.83C109.262 422.977 108.878 423.05 108.458 423.05C107.918 423.05 107.438 422.937 107.018 422.71C106.605 422.477 106.282 422.157 106.048 421.75C105.815 421.343 105.698 420.883 105.698 420.37C105.698 419.857 105.808 419.397 106.028 418.99C106.255 418.583 106.562 418.267 106.948 418.04C107.342 417.813 107.782 417.7 108.268 417.7C108.755 417.7 109.192 417.813 109.578 418.04C109.965 418.267 110.268 418.583 110.488 418.99C110.708 419.39 110.818 419.85 110.818 420.37L110.808 420.59ZM108.268 418.31C107.762 418.31 107.335 418.473 106.988 418.8C106.648 419.12 106.455 419.54 106.408 420.06H110.138C110.092 419.54 109.895 419.12 109.548 418.8C109.208 418.473 108.782 418.31 108.268 418.31ZM116.961 423.06C116.441 423.06 115.941 422.977 115.461 422.81C114.987 422.643 114.621 422.423 114.361 422.15L114.651 421.58C114.904 421.833 115.241 422.04 115.661 422.2C116.081 422.353 116.514 422.43 116.961 422.43C117.587 422.43 118.057 422.317 118.371 422.09C118.684 421.857 118.841 421.557 118.841 421.19C118.841 420.91 118.754 420.687 118.581 420.52C118.414 420.353 118.207 420.227 117.961 420.14C117.714 420.047 117.371 419.947 116.931 419.84C116.404 419.707 115.984 419.58 115.671 419.46C115.357 419.333 115.087 419.143 114.861 418.89C114.641 418.637 114.531 418.293 114.531 417.86C114.531 417.507 114.624 417.187 114.811 416.9C114.997 416.607 115.284 416.373 115.671 416.2C116.057 416.027 116.537 415.94 117.111 415.94C117.511 415.94 117.901 415.997 118.281 416.11C118.667 416.217 119.001 416.367 119.281 416.56L119.031 417.15C118.737 416.957 118.424 416.813 118.091 416.72C117.757 416.62 117.431 416.57 117.111 416.57C116.497 416.57 116.034 416.69 115.721 416.93C115.414 417.163 115.261 417.467 115.261 417.84C115.261 418.12 115.344 418.347 115.511 418.52C115.684 418.687 115.897 418.817 116.151 418.91C116.411 418.997 116.757 419.093 117.191 419.2C117.704 419.327 118.117 419.453 118.431 419.58C118.751 419.7 119.021 419.887 119.241 420.14C119.461 420.387 119.571 420.723 119.571 421.15C119.571 421.503 119.474 421.827 119.281 422.12C119.094 422.407 118.804 422.637 118.411 422.81C118.017 422.977 117.534 423.06 116.961 423.06ZM121.298 423.05C121.152 423.05 121.025 422.997 120.918 422.89C120.818 422.783 120.768 422.653 120.768 422.5C120.768 422.347 120.818 422.22 120.918 422.12C121.025 422.013 121.152 421.96 121.298 421.96C121.445 421.96 121.572 422.013 121.678 422.12C121.785 422.22 121.838 422.347 121.838 422.5C121.838 422.653 121.785 422.783 121.678 422.89C121.572 422.997 121.445 423.05 121.298 423.05ZM130.545 420.59H126.145C126.185 421.137 126.395 421.58 126.775 421.92C127.155 422.253 127.635 422.42 128.215 422.42C128.541 422.42 128.841 422.363 129.115 422.25C129.388 422.13 129.625 421.957 129.825 421.73L130.225 422.19C129.991 422.47 129.698 422.683 129.345 422.83C128.998 422.977 128.615 423.05 128.195 423.05C127.655 423.05 127.175 422.937 126.755 422.71C126.341 422.477 126.018 422.157 125.785 421.75C125.551 421.343 125.435 420.883 125.435 420.37C125.435 419.857 125.545 419.397 125.765 418.99C125.991 418.583 126.298 418.267 126.685 418.04C127.078 417.813 127.518 417.7 128.005 417.7C128.491 417.7 128.928 417.813 129.315 418.04C129.701 418.267 130.005 418.583 130.225 418.99C130.445 419.39 130.555 419.85 130.555 420.37L130.545 420.59ZM128.005 418.31C127.498 418.31 127.071 418.473 126.725 418.8C126.385 419.12 126.191 419.54 126.145 420.06H129.875C129.828 419.54 129.631 419.12 129.285 418.8C128.945 418.473 128.518 418.31 128.005 418.31ZM134.77 422.68C134.636 422.8 134.47 422.893 134.27 422.96C134.076 423.02 133.873 423.05 133.66 423.05C133.166 423.05 132.786 422.917 132.52 422.65C132.253 422.383 132.12 422.007 132.12 421.52V418.34H131.18V417.74H132.12V416.59H132.83V417.74H134.43V418.34H132.83V421.48C132.83 421.793 132.906 422.033 133.06 422.2C133.22 422.36 133.446 422.44 133.74 422.44C133.886 422.44 134.026 422.417 134.16 422.37C134.3 422.323 134.42 422.257 134.52 422.17L134.77 422.68ZM140.519 417.7C141.206 417.7 141.733 417.873 142.099 418.22C142.466 418.56 142.649 419.067 142.649 419.74V423H141.969V422.18C141.809 422.453 141.573 422.667 141.259 422.82C140.953 422.973 140.586 423.05 140.159 423.05C139.573 423.05 139.106 422.91 138.759 422.63C138.413 422.35 138.239 421.98 138.239 421.52C138.239 421.073 138.399 420.713 138.719 420.44C139.046 420.167 139.563 420.03 140.269 420.03H141.939V419.71C141.939 419.257 141.813 418.913 141.559 418.68C141.306 418.44 140.936 418.32 140.449 418.32C140.116 418.32 139.796 418.377 139.489 418.49C139.183 418.597 138.919 418.747 138.699 418.94L138.379 418.41C138.646 418.183 138.966 418.01 139.339 417.89C139.713 417.763 140.106 417.7 140.519 417.7ZM140.269 422.49C140.669 422.49 141.013 422.4 141.299 422.22C141.586 422.033 141.799 421.767 141.939 421.42V420.56H140.289C139.389 420.56 138.939 420.873 138.939 421.5C138.939 421.807 139.056 422.05 139.289 422.23C139.523 422.403 139.849 422.49 140.269 422.49ZM144.578 415.58H145.288V423H144.578V415.58ZM147.333 423.05C147.187 423.05 147.06 422.997 146.953 422.89C146.853 422.783 146.803 422.653 146.803 422.5C146.803 422.347 146.853 422.22 146.953 422.12C147.06 422.013 147.187 421.96 147.333 421.96C147.48 421.96 147.607 422.013 147.713 422.12C147.82 422.22 147.873 422.347 147.873 422.5C147.873 422.653 147.82 422.783 147.713 422.89C147.607 422.997 147.48 423.05 147.333 423.05ZM149.463 421.96C149.616 421.96 149.743 422.013 149.843 422.12C149.943 422.22 149.993 422.347 149.993 422.5C149.993 422.58 149.979 422.667 149.953 422.76C149.933 422.853 149.899 422.96 149.853 423.08L149.433 424.46H148.953L149.293 423.01C149.186 422.977 149.099 422.917 149.033 422.83C148.966 422.737 148.933 422.627 148.933 422.5C148.933 422.347 148.983 422.22 149.083 422.12C149.183 422.013 149.309 421.96 149.463 421.96ZM158.429 422.36V423H153.519V422.49L156.429 419.64C156.796 419.28 157.042 418.97 157.169 418.71C157.302 418.443 157.369 418.177 157.369 417.91C157.369 417.497 157.226 417.177 156.939 416.95C156.659 416.717 156.256 416.6 155.729 416.6C154.909 416.6 154.272 416.86 153.819 417.38L153.309 416.94C153.582 416.62 153.929 416.373 154.349 416.2C154.776 416.027 155.256 415.94 155.789 415.94C156.502 415.94 157.066 416.11 157.479 416.45C157.899 416.783 158.109 417.243 158.109 417.83C158.109 418.19 158.029 418.537 157.869 418.87C157.709 419.203 157.406 419.587 156.959 420.02L154.579 422.36H158.429ZM162.083 423.06C161.543 423.06 161.06 422.917 160.633 422.63C160.213 422.343 159.883 421.933 159.643 421.4C159.41 420.86 159.293 420.227 159.293 419.5C159.293 418.773 159.41 418.143 159.643 417.61C159.883 417.07 160.213 416.657 160.633 416.37C161.06 416.083 161.543 415.94 162.083 415.94C162.623 415.94 163.103 416.083 163.523 416.37C163.95 416.657 164.283 417.07 164.523 417.61C164.763 418.143 164.883 418.773 164.883 419.5C164.883 420.227 164.763 420.86 164.523 421.4C164.283 421.933 163.95 422.343 163.523 422.63C163.103 422.917 162.623 423.06 162.083 423.06ZM162.083 422.4C162.49 422.4 162.847 422.287 163.153 422.06C163.467 421.833 163.71 421.503 163.883 421.07C164.057 420.637 164.143 420.113 164.143 419.5C164.143 418.887 164.057 418.363 163.883 417.93C163.71 417.497 163.467 417.167 163.153 416.94C162.847 416.713 162.49 416.6 162.083 416.6C161.677 416.6 161.317 416.713 161.003 416.94C160.697 417.167 160.457 417.497 160.283 417.93C160.11 418.363 160.023 418.887 160.023 419.5C160.023 420.113 160.11 420.637 160.283 421.07C160.457 421.503 160.697 421.833 161.003 422.06C161.317 422.287 161.677 422.4 162.083 422.4ZM167.835 416V423H167.115V416.64H165.465V416H167.835ZM171.888 419C172.622 419.04 173.178 419.24 173.558 419.6C173.945 419.953 174.138 420.417 174.138 420.99C174.138 421.39 174.042 421.747 173.848 422.06C173.655 422.367 173.368 422.61 172.988 422.79C172.608 422.97 172.145 423.06 171.598 423.06C171.092 423.06 170.612 422.98 170.158 422.82C169.712 422.653 169.352 422.433 169.078 422.16L169.428 421.59C169.662 421.83 169.972 422.027 170.358 422.18C170.745 422.327 171.158 422.4 171.598 422.4C172.172 422.4 172.615 422.277 172.928 422.03C173.242 421.777 173.398 421.43 173.398 420.99C173.398 420.557 173.242 420.217 172.928 419.97C172.615 419.723 172.142 419.6 171.508 419.6H171.008V419.07L172.948 416.64H169.368V416H173.868V416.51L171.888 419Z" fill="#5A5858"/>
<path d="M91.2607 85.302C92.6887 85.302 93.7247 85.554 94.3687 86.058C95.0127 86.5527 95.3347 87.2573 95.3347 88.172C95.3347 88.732 95.204 89.2313 94.9427 89.67C94.6907 90.0993 94.308 90.44 93.7947 90.692C93.2813 90.944 92.6513 91.07 91.9047 91.07C91.1953 91.07 90.528 90.9487 89.9027 90.706C89.2867 90.4633 88.806 90.146 88.4607 89.754L88.8247 89.208C89.1327 89.5627 89.5573 89.852 90.0987 90.076C90.6493 90.3 91.2467 90.412 91.8907 90.412C92.768 90.412 93.44 90.2113 93.9067 89.81C94.3827 89.4087 94.6207 88.872 94.6207 88.2C94.6207 87.4627 94.35 86.9027 93.8087 86.52C93.2767 86.1373 92.376 85.946 91.1067 85.946H89.1187L89.6367 81.2H94.8307V81.844H90.2387L89.8607 85.302H91.2607Z" fill="#4A4646"/>
<path d="M92.4986 337.07C91.7519 337.07 91.0846 336.869 90.4966 336.468C89.9179 336.057 89.4652 335.479 89.1386 334.732C88.8212 333.985 88.6626 333.108 88.6626 332.1C88.6626 331.092 88.8212 330.215 89.1386 329.468C89.4652 328.721 89.9179 328.147 90.4966 327.746C91.0846 327.335 91.7519 327.13 92.4986 327.13C93.2452 327.13 93.9079 327.335 94.4866 327.746C95.0746 328.147 95.5272 328.721 95.8446 329.468C96.1712 330.215 96.3346 331.092 96.3346 332.1C96.3346 333.108 96.1712 333.985 95.8446 334.732C95.5272 335.479 95.0746 336.057 94.4866 336.468C93.9079 336.869 93.2452 337.07 92.4986 337.07ZM92.4986 336.412C93.1146 336.412 93.6559 336.244 94.1226 335.908C94.5986 335.563 94.9672 335.068 95.2286 334.424C95.4899 333.771 95.6206 332.996 95.6206 332.1C95.6206 331.204 95.4899 330.434 95.2286 329.79C94.9672 329.137 94.5986 328.642 94.1226 328.306C93.6559 327.961 93.1146 327.788 92.4986 327.788C91.8826 327.788 91.3366 327.961 90.8606 328.306C90.3939 328.642 90.0299 329.137 89.7686 329.79C89.5072 330.434 89.3766 331.204 89.3766 332.1C89.3766 332.996 89.5072 333.771 89.7686 334.424C90.0299 335.068 90.3939 335.563 90.8606 335.908C91.3366 336.244 91.8826 336.412 92.4986 336.412Z" fill="#4A4646"/>
<line x1="107.765" y1="88.7203" x2="341.895" y2="88.7203" stroke="#B8B8B8" stroke-width="0.344481"/>
<line x1="107.765" y1="112.72" x2="341.895" y2="112.72" stroke="#B8B8B8" stroke-width="0.344481"/>
<line x1="107.765" y1="136.72" x2="341.895" y2="136.72" stroke="#B8B8B8" stroke-width="0.344481"/>
<line x1="107.765" y1="160.72" x2="341.895" y2="160.72" stroke="#B8B8B8" stroke-width="0.344481"/>
<line x1="107.765" y1="184.789" x2="341.895" y2="184.789" stroke="#B8B8B8" stroke-width="0.206688"/>
<line x1="107.765" y1="208.72" x2="341.895" y2="208.72" stroke="#B8B8B8" stroke-width="0.344481"/>
<line x1="107.765" y1="232.72" x2="341.895" y2="232.72" stroke="#B8B8B8" stroke-width="0.344481"/>
<line x1="107.765" y1="256.72" x2="341.895" y2="256.72" stroke="#B8B8B8" stroke-width="0.344481"/>
<line x1="107.765" y1="280.72" x2="341.895" y2="280.72" stroke="#B8B8B8" stroke-width="0.344481"/>
<line x1="107.765" y1="304.72" x2="341.895" y2="304.72" stroke="#B8B8B8" stroke-width="0.344481"/>
<line x1="107.765" y1="328.72" x2="341.895" y2="328.72" stroke="#B8B8B8" stroke-width="0.344481"/>
<path d="M264.472 165.946C265.153 166.086 265.671 166.361 266.026 166.772C266.38 167.173 266.558 167.701 266.558 168.354C266.558 169.203 266.254 169.857 265.648 170.314C265.05 170.771 264.168 171 263.002 171H258.662V161.2H262.736C263.781 161.2 264.598 161.415 265.186 161.844C265.774 162.273 266.068 162.894 266.068 163.706C266.068 164.257 265.928 164.723 265.648 165.106C265.368 165.479 264.976 165.759 264.472 165.946ZM259.684 165.638H262.68C263.436 165.638 264.014 165.484 264.416 165.176C264.826 164.868 265.032 164.42 265.032 163.832C265.032 163.244 264.826 162.796 264.416 162.488C264.014 162.18 263.436 162.026 262.68 162.026H259.684V165.638ZM263.002 170.174C264.691 170.174 265.536 169.544 265.536 168.284C265.536 167.052 264.691 166.436 263.002 166.436H259.684V170.174H263.002ZM278.58 170.104V171H271.706V170.286L275.78 166.296C276.293 165.792 276.639 165.358 276.816 164.994C277.003 164.621 277.096 164.247 277.096 163.874C277.096 163.295 276.895 162.847 276.494 162.53C276.102 162.203 275.537 162.04 274.8 162.04C273.652 162.04 272.761 162.404 272.126 163.132L271.412 162.516C271.795 162.068 272.28 161.723 272.868 161.48C273.465 161.237 274.137 161.116 274.884 161.116C275.883 161.116 276.671 161.354 277.25 161.83C277.838 162.297 278.132 162.941 278.132 163.762C278.132 164.266 278.02 164.751 277.796 165.218C277.572 165.685 277.147 166.221 276.522 166.828L273.19 170.104H278.58ZM287.989 163.58C288.68 163.58 289.305 163.739 289.865 164.056C290.425 164.364 290.864 164.803 291.181 165.372C291.499 165.941 291.657 166.59 291.657 167.318C291.657 168.055 291.499 168.709 291.181 169.278C290.864 169.847 290.425 170.291 289.865 170.608C289.315 170.916 288.689 171.07 287.989 171.07C287.392 171.07 286.851 170.949 286.365 170.706C285.889 170.454 285.497 170.09 285.189 169.614V173.716H284.195V163.636H285.147V165.092C285.446 164.607 285.838 164.233 286.323 163.972C286.818 163.711 287.373 163.58 287.989 163.58ZM287.919 170.188C288.433 170.188 288.899 170.071 289.319 169.838C289.739 169.595 290.066 169.255 290.299 168.816C290.542 168.377 290.663 167.878 290.663 167.318C290.663 166.758 290.542 166.263 290.299 165.834C290.066 165.395 289.739 165.055 289.319 164.812C288.899 164.569 288.433 164.448 287.919 164.448C287.397 164.448 286.925 164.569 286.505 164.812C286.095 165.055 285.768 165.395 285.525 165.834C285.292 166.263 285.175 166.758 285.175 167.318C285.175 167.878 285.292 168.377 285.525 168.816C285.768 169.255 286.095 169.595 286.505 169.838C286.925 170.071 287.397 170.188 287.919 170.188ZM296.286 163.58C297.247 163.58 297.985 163.823 298.498 164.308C299.011 164.784 299.268 165.493 299.268 166.436V171H298.316V169.852C298.092 170.235 297.761 170.533 297.322 170.748C296.893 170.963 296.379 171.07 295.782 171.07C294.961 171.07 294.307 170.874 293.822 170.482C293.337 170.09 293.094 169.572 293.094 168.928C293.094 168.303 293.318 167.799 293.766 167.416C294.223 167.033 294.947 166.842 295.936 166.842H298.274V166.394C298.274 165.759 298.097 165.279 297.742 164.952C297.387 164.616 296.869 164.448 296.188 164.448C295.721 164.448 295.273 164.527 294.844 164.686C294.415 164.835 294.046 165.045 293.738 165.316L293.29 164.574C293.663 164.257 294.111 164.014 294.634 163.846C295.157 163.669 295.707 163.58 296.286 163.58ZM295.936 170.286C296.496 170.286 296.977 170.16 297.378 169.908C297.779 169.647 298.078 169.273 298.274 168.788V167.584H295.964C294.704 167.584 294.074 168.023 294.074 168.9C294.074 169.329 294.237 169.67 294.564 169.922C294.891 170.165 295.348 170.286 295.936 170.286ZM305.348 167.164C305.87 167.285 306.272 167.495 306.552 167.794C306.841 168.093 306.986 168.457 306.986 168.886C306.986 169.315 306.836 169.698 306.538 170.034C306.248 170.37 305.852 170.631 305.348 170.818C304.844 170.995 304.288 171.084 303.682 171.084C303.15 171.084 302.627 171.009 302.114 170.86C301.6 170.701 301.152 170.473 300.77 170.174L301.106 169.432C301.442 169.684 301.834 169.88 302.282 170.02C302.73 170.16 303.182 170.23 303.64 170.23C304.321 170.23 304.876 170.104 305.306 169.852C305.744 169.591 305.964 169.241 305.964 168.802C305.964 168.41 305.786 168.107 305.432 167.892C305.077 167.668 304.592 167.556 303.976 167.556H302.716V166.828H303.92C304.47 166.828 304.914 166.725 305.25 166.52C305.586 166.305 305.754 166.021 305.754 165.666C305.754 165.274 305.562 164.966 305.18 164.742C304.806 164.518 304.316 164.406 303.71 164.406C302.916 164.406 302.132 164.607 301.358 165.008L301.078 164.238C301.955 163.781 302.865 163.552 303.808 163.552C304.368 163.552 304.872 163.636 305.32 163.804C305.777 163.963 306.132 164.191 306.384 164.49C306.645 164.789 306.776 165.134 306.776 165.526C306.776 165.899 306.645 166.231 306.384 166.52C306.132 166.809 305.786 167.024 305.348 167.164ZM311.776 163.58C312.737 163.58 313.475 163.823 313.988 164.308C314.501 164.784 314.758 165.493 314.758 166.436V171H313.806V169.852C313.582 170.235 313.251 170.533 312.812 170.748C312.383 170.963 311.869 171.07 311.272 171.07C310.451 171.07 309.797 170.874 309.312 170.482C308.827 170.09 308.584 169.572 308.584 168.928C308.584 168.303 308.808 167.799 309.256 167.416C309.713 167.033 310.437 166.842 311.426 166.842H313.764V166.394C313.764 165.759 313.587 165.279 313.232 164.952C312.877 164.616 312.359 164.448 311.678 164.448C311.211 164.448 310.763 164.527 310.334 164.686C309.905 164.835 309.536 165.045 309.228 165.316L308.78 164.574C309.153 164.257 309.601 164.014 310.124 163.846C310.647 163.669 311.197 163.58 311.776 163.58ZM311.426 170.286C311.986 170.286 312.467 170.16 312.868 169.908C313.269 169.647 313.568 169.273 313.764 168.788V167.584H311.454C310.194 167.584 309.564 168.023 309.564 168.9C309.564 169.329 309.727 169.67 310.054 169.922C310.381 170.165 310.838 170.286 311.426 170.286ZM266.792 180.636V188H265.882V182.176L262.9 187.104H262.452L259.47 182.162V188H258.56V180.636H259.568L262.69 185.942L265.868 180.636H266.792ZM276.061 184.626H269.901C269.957 185.391 270.251 186.012 270.783 186.488C271.315 186.955 271.987 187.188 272.799 187.188C273.256 187.188 273.676 187.109 274.059 186.95C274.442 186.782 274.773 186.539 275.053 186.222L275.613 186.866C275.286 187.258 274.876 187.557 274.381 187.762C273.896 187.967 273.359 188.07 272.771 188.07C272.015 188.07 271.343 187.911 270.755 187.594C270.176 187.267 269.724 186.819 269.397 186.25C269.07 185.681 268.907 185.037 268.907 184.318C268.907 183.599 269.061 182.955 269.369 182.386C269.686 181.817 270.116 181.373 270.657 181.056C271.208 180.739 271.824 180.58 272.505 180.58C273.186 180.58 273.798 180.739 274.339 181.056C274.88 181.373 275.305 181.817 275.613 182.386C275.921 182.946 276.075 183.59 276.075 184.318L276.061 184.626ZM272.505 181.434C271.796 181.434 271.198 181.663 270.713 182.12C270.237 182.568 269.966 183.156 269.901 183.884H275.123C275.058 183.156 274.782 182.568 274.297 182.12C273.821 181.663 273.224 181.434 272.505 181.434ZM278.275 180.636H279.269V183.898H283.903V180.636H284.897V188H283.903V184.752H279.269V188H278.275V180.636ZM290.887 183.24C291.811 183.249 292.511 183.455 292.987 183.856C293.472 184.257 293.715 184.836 293.715 185.592C293.715 186.376 293.453 186.978 292.931 187.398C292.417 187.818 291.671 188.023 290.691 188.014L287.723 188V180.636H288.717V183.212L290.887 183.24ZM290.635 187.258C291.316 187.267 291.829 187.132 292.175 186.852C292.529 186.563 292.707 186.143 292.707 185.592C292.707 185.051 292.534 184.649 292.189 184.388C291.843 184.127 291.325 183.991 290.635 183.982L288.717 183.954V187.23L290.635 187.258ZM305.775 180.636V188H295.611V180.636H296.605V187.132H300.217V180.636H301.211V187.132H304.781V180.636H305.775ZM315.053 184.626H308.893C308.949 185.391 309.243 186.012 309.775 186.488C310.307 186.955 310.979 187.188 311.791 187.188C312.249 187.188 312.669 187.109 313.051 186.95C313.434 186.782 313.765 186.539 314.045 186.222L314.605 186.866C314.279 187.258 313.868 187.557 313.373 187.762C312.888 187.967 312.351 188.07 311.763 188.07C311.007 188.07 310.335 187.911 309.747 187.594C309.169 187.267 308.716 186.819 308.389 186.25C308.063 185.681 307.899 185.037 307.899 184.318C307.899 183.599 308.053 182.955 308.361 182.386C308.679 181.817 309.108 181.373 309.649 181.056C310.2 180.739 310.816 180.58 311.497 180.58C312.179 180.58 312.79 180.739 313.331 181.056C313.873 181.373 314.297 181.817 314.605 182.386C314.913 182.946 315.067 183.59 315.067 184.318L315.053 184.626ZM311.497 181.434C310.788 181.434 310.191 181.663 309.705 182.12C309.229 182.568 308.959 183.156 308.893 183.884H314.115C314.05 183.156 313.775 182.568 313.289 182.12C312.813 181.663 312.216 181.434 311.497 181.434Z" fill="#313131"/>
<rect x="233" y="152.5" width="108" height="42" stroke="url(#paint0_linear)"/>
<path d="M212.421 120.636C213.102 120.636 213.718 120.795 214.269 121.112C214.819 121.429 215.249 121.868 215.557 122.428C215.874 122.988 216.033 123.627 216.033 124.346C216.033 125.065 215.874 125.709 215.557 126.278C215.249 126.838 214.819 127.277 214.269 127.594C213.718 127.902 213.102 128.056 212.421 128.056C211.777 128.056 211.193 127.907 210.671 127.608C210.148 127.3 209.742 126.875 209.453 126.334V130.716H208.753V120.692H209.425V122.414C209.714 121.854 210.12 121.42 210.643 121.112C211.175 120.795 211.767 120.636 212.421 120.636ZM212.379 127.426C212.939 127.426 213.443 127.295 213.891 127.034C214.339 126.773 214.689 126.409 214.941 125.942C215.202 125.475 215.333 124.943 215.333 124.346C215.333 123.749 215.202 123.217 214.941 122.75C214.689 122.283 214.339 121.919 213.891 121.658C213.443 121.397 212.939 121.266 212.379 121.266C211.819 121.266 211.315 121.397 210.867 121.658C210.428 121.919 210.078 122.283 209.817 122.75C209.565 123.217 209.439 123.749 209.439 124.346C209.439 124.943 209.565 125.475 209.817 125.942C210.078 126.409 210.428 126.773 210.867 127.034C211.315 127.295 211.819 127.426 212.379 127.426ZM221.32 121.224H227.27V121.812H221.32V121.224ZM221.32 124.388H227.27V124.976H221.32V124.388ZM236.484 128.07C235.737 128.07 235.07 127.869 234.482 127.468C233.903 127.057 233.451 126.479 233.124 125.732C232.807 124.985 232.648 124.108 232.648 123.1C232.648 122.092 232.807 121.215 233.124 120.468C233.451 119.721 233.903 119.147 234.482 118.746C235.07 118.335 235.737 118.13 236.484 118.13C237.231 118.13 237.893 118.335 238.472 118.746C239.06 119.147 239.513 119.721 239.83 120.468C240.157 121.215 240.32 122.092 240.32 123.1C240.32 124.108 240.157 124.985 239.83 125.732C239.513 126.479 239.06 127.057 238.472 127.468C237.893 127.869 237.231 128.07 236.484 128.07ZM236.484 127.412C237.1 127.412 237.641 127.244 238.108 126.908C238.584 126.563 238.953 126.068 239.214 125.424C239.475 124.771 239.606 123.996 239.606 123.1C239.606 122.204 239.475 121.434 239.214 120.79C238.953 120.137 238.584 119.642 238.108 119.306C237.641 118.961 237.1 118.788 236.484 118.788C235.868 118.788 235.322 118.961 234.846 119.306C234.379 119.642 234.015 120.137 233.754 120.79C233.493 121.434 233.362 122.204 233.362 123.1C233.362 123.996 233.493 124.771 233.754 125.424C234.015 126.068 234.379 126.563 234.846 126.908C235.322 127.244 235.868 127.412 236.484 127.412ZM242.342 126.866C242.51 126.866 242.65 126.927 242.762 127.048C242.874 127.16 242.93 127.295 242.93 127.454C242.93 127.547 242.916 127.645 242.888 127.748C242.87 127.851 242.842 127.967 242.804 128.098L242.258 130.002H241.754L242.216 128.028C242.076 127.991 241.964 127.925 241.88 127.832C241.796 127.729 241.754 127.603 241.754 127.454C241.754 127.286 241.81 127.146 241.922 127.034C242.034 126.922 242.174 126.866 242.342 126.866ZM248.201 128.07C247.454 128.07 246.787 127.869 246.199 127.468C245.62 127.057 245.167 126.479 244.841 125.732C244.523 124.985 244.365 124.108 244.365 123.1C244.365 122.092 244.523 121.215 244.841 120.468C245.167 119.721 245.62 119.147 246.199 118.746C246.787 118.335 247.454 118.13 248.201 118.13C248.947 118.13 249.61 118.335 250.189 118.746C250.777 119.147 251.229 119.721 251.547 120.468C251.873 121.215 252.037 122.092 252.037 123.1C252.037 124.108 251.873 124.985 251.547 125.732C251.229 126.479 250.777 127.057 250.189 127.468C249.61 127.869 248.947 128.07 248.201 128.07ZM248.201 127.412C248.817 127.412 249.358 127.244 249.825 126.908C250.301 126.563 250.669 126.068 250.931 125.424C251.192 124.771 251.323 123.996 251.323 123.1C251.323 122.204 251.192 121.434 250.931 120.79C250.669 120.137 250.301 119.642 249.825 119.306C249.358 118.961 248.817 118.788 248.201 118.788C247.585 118.788 247.039 118.961 246.563 119.306C246.096 119.642 245.732 120.137 245.471 120.79C245.209 121.434 245.079 122.204 245.079 123.1C245.079 123.996 245.209 124.771 245.471 125.424C245.732 126.068 246.096 126.563 246.563 126.908C247.039 127.244 247.585 127.412 248.201 127.412ZM256.03 118.2V128H255.316V118.844H252.922V118.2H256.03Z" fill="#4A4646"/>
<path d="M122.517 341.823V353.023H120.949V343.215H114.453V353.023H112.869V341.823H122.517ZM133.034 344.543V353.023H131.498V345.887H127.85L127.754 347.775C127.7 348.917 127.599 349.871 127.45 350.639C127.3 351.397 127.055 352.005 126.714 352.463C126.372 352.922 125.898 353.151 125.29 353.151C125.012 353.151 124.698 353.103 124.346 353.007L124.442 351.711C124.58 351.743 124.708 351.759 124.826 351.759C125.252 351.759 125.572 351.573 125.786 351.199C125.999 350.826 126.138 350.383 126.202 349.871C126.266 349.359 126.324 348.629 126.378 347.679L126.522 344.543H133.034ZM139.028 344.463C140.201 344.463 141.097 344.751 141.716 345.327C142.345 345.903 142.66 346.762 142.66 347.903V353.023H141.204V351.903C140.948 352.298 140.58 352.602 140.1 352.815C139.63 353.018 139.07 353.119 138.42 353.119C137.47 353.119 136.708 352.89 136.132 352.431C135.566 351.973 135.284 351.37 135.284 350.623C135.284 349.877 135.556 349.279 136.1 348.831C136.644 348.373 137.508 348.143 138.692 348.143H141.124V347.839C141.124 347.178 140.932 346.671 140.548 346.319C140.164 345.967 139.598 345.791 138.852 345.791C138.35 345.791 137.86 345.877 137.38 346.047C136.9 346.207 136.494 346.426 136.164 346.703L135.524 345.551C135.961 345.199 136.484 344.933 137.092 344.751C137.7 344.559 138.345 344.463 139.028 344.463ZM138.676 351.935C139.262 351.935 139.769 351.807 140.196 351.551C140.622 351.285 140.932 350.911 141.124 350.431V349.247H138.756C137.454 349.247 136.804 349.685 136.804 350.559C136.804 350.986 136.969 351.322 137.3 351.567C137.63 351.813 138.089 351.935 138.676 351.935ZM154.482 351.679V355.055H153.026V353.023H145.426V344.543H146.962V351.679H151.602V344.543H153.138V351.679H154.482ZM164.136 348.831C164.136 348.949 164.126 349.103 164.104 349.295H157.224C157.32 350.042 157.646 350.645 158.2 351.103C158.766 351.551 159.464 351.775 160.296 351.775C161.31 351.775 162.126 351.434 162.744 350.751L163.592 351.743C163.208 352.191 162.728 352.533 162.152 352.767C161.587 353.002 160.952 353.119 160.248 353.119C159.352 353.119 158.558 352.938 157.864 352.575C157.171 352.202 156.632 351.685 156.248 351.023C155.875 350.362 155.688 349.615 155.688 348.783C155.688 347.962 155.87 347.221 156.232 346.559C156.606 345.898 157.112 345.386 157.752 345.023C158.403 344.65 159.134 344.463 159.944 344.463C160.755 344.463 161.475 344.65 162.104 345.023C162.744 345.386 163.24 345.898 163.592 346.559C163.955 347.221 164.136 347.978 164.136 348.831ZM159.944 345.759C159.208 345.759 158.59 345.983 158.088 346.431C157.598 346.879 157.31 347.466 157.224 348.191H162.664C162.579 347.477 162.286 346.895 161.784 346.447C161.294 345.989 160.68 345.759 159.944 345.759ZM170.839 344.831C171.629 344.831 172.333 345.007 172.951 345.359C173.57 345.711 174.05 346.202 174.391 346.831C174.743 347.45 174.919 348.159 174.919 348.959C174.919 349.781 174.733 350.511 174.359 351.151C173.997 351.781 173.479 352.271 172.807 352.623C172.146 352.975 171.389 353.151 170.535 353.151C169.095 353.151 167.981 352.661 167.191 351.679C166.413 350.687 166.023 349.295 166.023 347.503C166.023 345.765 166.381 344.405 167.095 343.423C167.81 342.431 168.903 341.775 170.375 341.455L174.247 340.591L174.471 341.999L170.903 342.767C169.794 343.013 168.967 343.429 168.423 344.015C167.879 344.602 167.57 345.445 167.495 346.543C167.858 345.999 168.327 345.578 168.903 345.279C169.479 344.981 170.125 344.831 170.839 344.831ZM170.567 351.871C171.111 351.871 171.591 351.749 172.007 351.503C172.434 351.258 172.765 350.922 172.999 350.495C173.234 350.058 173.351 349.562 173.351 349.007C173.351 348.165 173.095 347.487 172.583 346.975C172.071 346.463 171.399 346.207 170.567 346.207C169.735 346.207 169.058 346.463 168.535 346.975C168.023 347.487 167.767 348.165 167.767 349.007C167.767 349.562 167.885 350.058 168.119 350.495C168.365 350.922 168.701 351.258 169.127 351.503C169.554 351.749 170.034 351.871 170.567 351.871ZM180.745 353.119C179.902 353.119 179.145 352.933 178.473 352.559C177.801 352.186 177.273 351.674 176.889 351.023C176.516 350.362 176.329 349.615 176.329 348.783C176.329 347.951 176.516 347.21 176.889 346.559C177.273 345.898 177.801 345.386 178.473 345.023C179.145 344.65 179.902 344.463 180.745 344.463C181.588 344.463 182.34 344.65 183.001 345.023C183.673 345.386 184.196 345.898 184.569 346.559C184.953 347.21 185.145 347.951 185.145 348.783C185.145 349.615 184.953 350.362 184.569 351.023C184.196 351.674 183.673 352.186 183.001 352.559C182.34 352.933 181.588 353.119 180.745 353.119ZM180.745 351.775C181.289 351.775 181.774 351.653 182.201 351.407C182.638 351.151 182.98 350.799 183.225 350.351C183.47 349.893 183.593 349.37 183.593 348.783C183.593 348.197 183.47 347.679 183.225 347.231C182.98 346.773 182.638 346.421 182.201 346.175C181.774 345.93 181.289 345.807 180.745 345.807C180.201 345.807 179.71 345.93 179.273 346.175C178.846 346.421 178.505 346.773 178.249 347.231C178.004 347.679 177.881 348.197 177.881 348.783C177.881 349.37 178.004 349.893 178.249 350.351C178.505 350.799 178.846 351.151 179.273 351.407C179.71 351.653 180.201 351.775 180.745 351.775Z" fill="#4A4646"/>
<path d="M145.154 364.702C146.068 364.702 146.792 364.968 147.324 365.5C147.856 366.032 148.122 366.798 148.122 367.796V372.066H147.422V367.852C147.422 367.031 147.212 366.406 146.792 365.976C146.381 365.547 145.802 365.332 145.056 365.332C144.197 365.332 143.52 365.589 143.026 366.102C142.531 366.616 142.284 367.306 142.284 368.174V372.066H141.584V364.758H142.256V366.34C142.508 365.827 142.881 365.426 143.376 365.136C143.88 364.847 144.472 364.702 145.154 364.702ZM154.123 365.29H160.073V365.878H154.123V365.29ZM154.123 368.454H160.073V369.042H154.123V368.454ZM167.916 362.266V372.066H167.202V362.91H164.808V362.266H167.916ZM177.121 362.266V362.77L172.907 372.066H172.123L176.295 362.91H170.793V364.786H170.093V362.266H177.121ZM182.169 366.27C182.813 366.27 183.382 366.392 183.877 366.634C184.381 366.868 184.768 367.208 185.039 367.656C185.309 368.095 185.445 368.604 185.445 369.182C185.445 369.77 185.305 370.288 185.025 370.736C184.745 371.184 184.357 371.53 183.863 371.772C183.368 372.015 182.808 372.136 182.183 372.136C180.913 372.136 179.938 371.707 179.257 370.848C178.585 369.98 178.249 368.772 178.249 367.222C178.249 366.14 178.426 365.225 178.781 364.478C179.145 363.722 179.653 363.153 180.307 362.77C180.96 362.388 181.725 362.196 182.603 362.196C183.527 362.196 184.269 362.364 184.829 362.7L184.535 363.274C184.068 362.976 183.424 362.826 182.603 362.826C181.473 362.826 180.582 363.195 179.929 363.932C179.285 364.66 178.963 365.72 178.963 367.11C178.963 367.54 178.991 367.932 179.047 368.286C179.243 367.652 179.621 367.157 180.181 366.802C180.75 366.448 181.413 366.27 182.169 366.27ZM182.155 371.52C182.92 371.52 183.541 371.31 184.017 370.89C184.493 370.461 184.731 369.896 184.731 369.196C184.731 368.496 184.493 367.936 184.017 367.516C183.541 367.096 182.892 366.886 182.071 366.886C181.548 366.886 181.077 366.989 180.657 367.194C180.246 367.4 179.924 367.68 179.691 368.034C179.467 368.389 179.355 368.786 179.355 369.224C179.355 369.616 179.462 369.99 179.677 370.344C179.901 370.699 180.223 370.984 180.643 371.198C181.063 371.413 181.567 371.52 182.155 371.52Z" fill="#4A4646"/>
<path d="M186 130.5C186 113.655 172.345 100 155.5 100C138.655 100 125 113.655 125 130.5L125 333L186 333L186 130.5Z" fill="#5A5858"/>
<path d="M148.95 220.248H146.822V223H145.27V220.248H139.046V219.128L144.774 211.8H146.502L141.014 218.872H145.318V216.44H146.822V218.872H148.95V220.248ZM151.293 220.904C151.592 220.904 151.837 221.011 152.029 221.224C152.232 221.427 152.333 221.683 152.333 221.992C152.333 222.152 152.312 222.307 152.269 222.456C152.237 222.605 152.168 222.835 152.061 223.144L151.309 225.368H150.301L150.893 222.984C150.69 222.909 150.525 222.787 150.397 222.616C150.28 222.435 150.221 222.227 150.221 221.992C150.221 221.672 150.322 221.411 150.525 221.208C150.728 221.005 150.984 220.904 151.293 220.904ZM157.046 216.264C158.646 216.264 159.819 216.568 160.566 217.176C161.323 217.773 161.702 218.595 161.702 219.64C161.702 220.301 161.542 220.899 161.222 221.432C160.913 221.955 160.438 222.371 159.798 222.68C159.169 222.979 158.39 223.128 157.462 223.128C156.673 223.128 155.91 223.011 155.174 222.776C154.438 222.531 153.83 222.195 153.35 221.768L154.086 220.504C154.47 220.867 154.961 221.16 155.558 221.384C156.155 221.597 156.785 221.704 157.446 221.704C158.289 221.704 158.939 221.528 159.398 221.176C159.867 220.813 160.102 220.323 160.102 219.704C160.102 219.032 159.846 218.525 159.334 218.184C158.822 217.832 157.947 217.656 156.71 217.656H154.166L154.758 211.8H161.078V213.192H156.102L155.798 216.264H157.046ZM169.882 217.128C170.522 217.373 171.012 217.725 171.354 218.184C171.695 218.643 171.866 219.192 171.866 219.832C171.866 220.504 171.684 221.091 171.322 221.592C170.959 222.083 170.442 222.461 169.77 222.728C169.098 222.995 168.308 223.128 167.402 223.128C166.506 223.128 165.722 222.995 165.05 222.728C164.388 222.461 163.876 222.083 163.514 221.592C163.151 221.091 162.97 220.504 162.97 219.832C162.97 219.192 163.135 218.643 163.466 218.184C163.807 217.725 164.298 217.373 164.938 217.128C164.426 216.883 164.036 216.557 163.77 216.152C163.503 215.747 163.37 215.267 163.37 214.712C163.37 214.093 163.535 213.555 163.866 213.096C164.207 212.637 164.682 212.285 165.29 212.04C165.898 211.795 166.602 211.672 167.402 211.672C168.212 211.672 168.922 211.795 169.53 212.04C170.148 212.285 170.623 212.637 170.954 213.096C171.295 213.555 171.466 214.093 171.466 214.712C171.466 215.256 171.327 215.736 171.05 216.152C170.783 216.557 170.394 216.883 169.882 217.128ZM167.402 212.968C166.644 212.968 166.047 213.133 165.61 213.464C165.172 213.784 164.954 214.221 164.954 214.776C164.954 215.331 165.167 215.768 165.594 216.088C166.031 216.408 166.634 216.568 167.402 216.568C168.18 216.568 168.788 216.408 169.226 216.088C169.674 215.768 169.898 215.331 169.898 214.776C169.898 214.221 169.668 213.784 169.21 213.464C168.762 213.133 168.159 212.968 167.402 212.968ZM167.402 221.832C168.287 221.832 168.986 221.651 169.498 221.288C170.01 220.915 170.266 220.413 170.266 219.784C170.266 219.165 170.01 218.68 169.498 218.328C168.986 217.965 168.287 217.784 167.402 217.784C166.516 217.784 165.823 217.965 165.322 218.328C164.82 218.68 164.57 219.165 164.57 219.784C164.57 220.413 164.82 220.915 165.322 221.288C165.823 221.651 166.516 221.832 167.402 221.832Z" fill="white"/>
<path d="M205.354 375.739C204.841 374.881 204.444 373.896 204.164 372.785C203.894 371.675 203.758 370.475 203.758 369.187C203.758 367.899 203.894 366.695 204.164 365.575C204.444 364.446 204.841 363.466 205.354 362.635H206.026C204.972 364.437 204.444 366.621 204.444 369.187C204.444 371.754 204.972 373.938 206.026 375.739H205.354ZM208.396 363.223H209.11V372.379H214.752V373.023H208.396V363.223ZM218.84 365.659C219.745 365.659 220.44 365.893 220.926 366.359C221.411 366.817 221.654 367.493 221.654 368.389V373.023H220.982V371.721C220.748 372.151 220.408 372.487 219.96 372.729C219.512 372.963 218.975 373.079 218.35 373.079C217.538 373.079 216.894 372.888 216.418 372.505C215.951 372.123 215.718 371.619 215.718 370.993C215.718 370.387 215.932 369.897 216.362 369.523C216.8 369.141 217.496 368.949 218.448 368.949H220.954V368.361C220.954 367.68 220.767 367.162 220.394 366.807C220.03 366.453 219.493 366.275 218.784 366.275C218.298 366.275 217.832 366.359 217.384 366.527C216.945 366.695 216.572 366.919 216.264 367.199L215.914 366.695C216.278 366.369 216.716 366.117 217.23 365.939C217.743 365.753 218.28 365.659 218.84 365.659ZM218.448 372.505C219.054 372.505 219.568 372.365 219.988 372.085C220.417 371.805 220.739 371.399 220.954 370.867V369.495H218.462C217.743 369.495 217.22 369.626 216.894 369.887C216.576 370.149 216.418 370.508 216.418 370.965C216.418 371.441 216.595 371.819 216.95 372.099C217.304 372.37 217.804 372.505 218.448 372.505ZM223.922 368.949H227.52V369.579H223.922V368.949ZM231.55 367.325C232.978 367.325 234.014 367.577 234.658 368.081C235.302 368.576 235.624 369.281 235.624 370.195C235.624 370.755 235.493 371.255 235.232 371.693C234.98 372.123 234.597 372.463 234.084 372.715C233.57 372.967 232.94 373.093 232.194 373.093C231.484 373.093 230.817 372.972 230.192 372.729C229.576 372.487 229.095 372.169 228.75 371.777L229.114 371.231C229.422 371.586 229.846 371.875 230.388 372.099C230.938 372.323 231.536 372.435 232.18 372.435C233.057 372.435 233.729 372.235 234.196 371.833C234.672 371.432 234.91 370.895 234.91 370.223C234.91 369.486 234.639 368.926 234.098 368.543C233.566 368.161 232.665 367.969 231.396 367.969H229.408L229.926 363.223H235.12V363.867H230.528L230.15 367.325H231.55ZM246.746 368.431H244.086V371.021H243.456V368.431H240.796V367.829H243.456V365.225H244.086V367.829H246.746V368.431ZM255.291 367.969C255.991 368.1 256.523 368.375 256.887 368.795C257.26 369.215 257.447 369.761 257.447 370.433C257.447 371.264 257.143 371.903 256.537 372.351C255.93 372.799 255.029 373.023 253.835 373.023H249.467V363.223H253.555C254.619 363.223 255.445 363.443 256.033 363.881C256.63 364.311 256.929 364.927 256.929 365.729C256.929 366.289 256.779 366.761 256.481 367.143C256.191 367.526 255.795 367.801 255.291 367.969ZM250.181 363.839V367.745H253.527C254.385 367.745 255.043 367.582 255.501 367.255C255.967 366.919 256.201 366.429 256.201 365.785C256.201 365.151 255.967 364.67 255.501 364.343C255.043 364.007 254.385 363.839 253.527 363.839H250.181ZM253.835 372.407C254.787 372.407 255.505 372.244 255.991 371.917C256.485 371.581 256.733 371.068 256.733 370.377C256.733 369.687 256.485 369.178 255.991 368.851C255.505 368.525 254.787 368.361 253.835 368.361H250.181V372.407H253.835ZM265.818 367.969C266.518 368.1 267.05 368.375 267.414 368.795C267.787 369.215 267.974 369.761 267.974 370.433C267.974 371.264 267.671 371.903 267.064 372.351C266.457 372.799 265.557 373.023 264.362 373.023H259.994V363.223H264.082C265.146 363.223 265.972 363.443 266.56 363.881C267.157 364.311 267.456 364.927 267.456 365.729C267.456 366.289 267.307 366.761 267.008 367.143C266.719 367.526 266.322 367.801 265.818 367.969ZM260.708 363.839V367.745H264.054C264.913 367.745 265.571 367.582 266.028 367.255C266.495 366.919 266.728 366.429 266.728 365.785C266.728 365.151 266.495 364.67 266.028 364.343C265.571 364.007 264.913 363.839 264.054 363.839H260.708ZM264.362 372.407C265.314 372.407 266.033 372.244 266.518 371.917C267.013 371.581 267.26 371.068 267.26 370.377C267.26 369.687 267.013 369.178 266.518 368.851C266.033 368.525 265.314 368.361 264.362 368.361H260.708V372.407H264.362ZM269.681 368.949H273.279V369.579H269.681V368.949ZM277.161 363.223V373.023H276.447V363.867H274.053V363.223H277.161ZM286.17 372.379V373.023H279.436V372.519L283.58 368.403C284.122 367.862 284.486 367.4 284.672 367.017C284.868 366.625 284.966 366.224 284.966 365.813C284.966 365.188 284.752 364.698 284.322 364.343C283.902 363.989 283.291 363.811 282.488 363.811C281.872 363.811 281.331 363.905 280.864 364.091C280.407 364.278 280.01 364.563 279.674 364.945L279.17 364.497C279.544 364.068 280.015 363.737 280.584 363.503C281.163 363.27 281.816 363.153 282.544 363.153C283.506 363.153 284.271 363.387 284.84 363.853C285.41 364.32 285.694 364.95 285.694 365.743C285.694 366.247 285.582 366.728 285.358 367.185C285.134 367.643 284.714 368.175 284.098 368.781L280.486 372.379H286.17ZM287.423 375.739C287.964 374.825 288.361 373.826 288.613 372.743C288.865 371.661 288.991 370.475 288.991 369.187C288.991 367.899 288.865 366.714 288.613 365.631C288.361 364.549 287.964 363.55 287.423 362.635H288.081C288.604 363.466 289 364.446 289.271 365.575C289.551 366.695 289.691 367.899 289.691 369.187C289.691 370.475 289.551 371.679 289.271 372.799C289 373.91 288.604 374.89 288.081 375.739H287.423ZM299.912 365.659C300.827 365.659 301.55 365.925 302.082 366.457C302.614 366.989 302.88 367.755 302.88 368.753V373.023H302.18V368.809C302.18 367.988 301.97 367.363 301.55 366.933C301.14 366.504 300.561 366.289 299.814 366.289C298.956 366.289 298.279 366.546 297.784 367.059C297.29 367.573 297.042 368.263 297.042 369.131V373.023H296.342V365.715H297.014V367.297C297.266 366.784 297.64 366.383 298.134 366.093C298.638 365.804 299.231 365.659 299.912 365.659ZM308.882 366.247H314.832V366.835H308.882V366.247ZM308.882 369.411H314.832V369.999H308.882V369.411ZM322.674 363.223V373.023H321.96V363.867H319.566V363.223H322.674ZM329.066 367.227C329.71 367.227 330.279 367.349 330.774 367.591C331.278 367.825 331.665 368.165 331.936 368.613C332.207 369.052 332.342 369.561 332.342 370.139C332.342 370.727 332.202 371.245 331.922 371.693C331.642 372.141 331.255 372.487 330.76 372.729C330.265 372.972 329.705 373.093 329.08 373.093C327.811 373.093 326.835 372.664 326.154 371.805C325.482 370.937 325.146 369.729 325.146 368.179C325.146 367.097 325.323 366.182 325.678 365.435C326.042 364.679 326.551 364.11 327.204 363.727C327.857 363.345 328.623 363.153 329.5 363.153C330.424 363.153 331.166 363.321 331.726 363.657L331.432 364.231C330.965 363.933 330.321 363.783 329.5 363.783C328.371 363.783 327.479 364.152 326.826 364.889C326.182 365.617 325.86 366.677 325.86 368.067C325.86 368.497 325.888 368.889 325.944 369.243C326.14 368.609 326.518 368.114 327.078 367.759C327.647 367.405 328.31 367.227 329.066 367.227ZM329.052 372.477C329.817 372.477 330.438 372.267 330.914 371.847C331.39 371.418 331.628 370.853 331.628 370.153C331.628 369.453 331.39 368.893 330.914 368.473C330.438 368.053 329.789 367.843 328.968 367.843C328.445 367.843 327.974 367.946 327.554 368.151C327.143 368.357 326.821 368.637 326.588 368.991C326.364 369.346 326.252 369.743 326.252 370.181C326.252 370.573 326.359 370.947 326.574 371.301C326.798 371.656 327.12 371.941 327.54 372.155C327.96 372.37 328.464 372.477 329.052 372.477ZM340.179 363.223V363.727L335.965 373.023H335.181L339.353 363.867H333.851V365.743H333.151V363.223H340.179Z" fill="#4A4646"/>
<path d="M251.587 341.823V353.023H250.019V343.215H243.523V353.023H241.939V341.823H251.587ZM259.32 344.463C260.141 344.463 260.877 344.645 261.528 345.007C262.179 345.37 262.685 345.877 263.048 346.527C263.421 347.178 263.608 347.93 263.608 348.783C263.608 349.637 263.421 350.394 263.048 351.055C262.685 351.706 262.179 352.213 261.528 352.575C260.877 352.938 260.141 353.119 259.32 353.119C258.712 353.119 258.152 353.002 257.64 352.767C257.139 352.533 256.712 352.191 256.36 351.743V356.127H254.824V344.543H256.296V345.887C256.637 345.418 257.069 345.066 257.592 344.831C258.115 344.586 258.691 344.463 259.32 344.463ZM259.192 351.775C259.736 351.775 260.221 351.653 260.648 351.407C261.085 351.151 261.427 350.799 261.672 350.351C261.928 349.893 262.056 349.37 262.056 348.783C262.056 348.197 261.928 347.679 261.672 347.231C261.427 346.773 261.085 346.421 260.648 346.175C260.221 345.93 259.736 345.807 259.192 345.807C258.659 345.807 258.173 345.935 257.736 346.191C257.309 346.437 256.968 346.783 256.712 347.231C256.467 347.679 256.344 348.197 256.344 348.783C256.344 349.37 256.467 349.893 256.712 350.351C256.957 350.799 257.299 351.151 257.736 351.407C258.173 351.653 258.659 351.775 259.192 351.775ZM269.472 353.119C268.629 353.119 267.872 352.933 267.2 352.559C266.528 352.186 266 351.674 265.616 351.023C265.242 350.362 265.056 349.615 265.056 348.783C265.056 347.951 265.242 347.21 265.616 346.559C266 345.898 266.528 345.386 267.2 345.023C267.872 344.65 268.629 344.463 269.472 344.463C270.314 344.463 271.066 344.65 271.728 345.023C272.4 345.386 272.922 345.898 273.296 346.559C273.68 347.21 273.872 347.951 273.872 348.783C273.872 349.615 273.68 350.362 273.296 351.023C272.922 351.674 272.4 352.186 271.728 352.559C271.066 352.933 270.314 353.119 269.472 353.119ZM269.472 351.775C270.016 351.775 270.501 351.653 270.928 351.407C271.365 351.151 271.706 350.799 271.952 350.351C272.197 349.893 272.32 349.37 272.32 348.783C272.32 348.197 272.197 347.679 271.952 347.231C271.706 346.773 271.365 346.421 270.928 346.175C270.501 345.93 270.016 345.807 269.472 345.807C268.928 345.807 268.437 345.93 268 346.175C267.573 346.421 267.232 346.773 266.976 347.231C266.73 347.679 266.608 348.197 266.608 348.783C266.608 349.37 266.73 349.893 266.976 350.351C267.232 350.799 267.573 351.151 268 351.407C268.437 351.653 268.928 351.775 269.472 351.775ZM280.41 344.831C281.199 344.831 281.903 345.007 282.522 345.359C283.14 345.711 283.62 346.202 283.962 346.831C284.314 347.45 284.49 348.159 284.49 348.959C284.49 349.781 284.303 350.511 283.93 351.151C283.567 351.781 283.05 352.271 282.378 352.623C281.716 352.975 280.959 353.151 280.106 353.151C278.666 353.151 277.551 352.661 276.762 351.679C275.983 350.687 275.594 349.295 275.594 347.503C275.594 345.765 275.951 344.405 276.666 343.423C277.38 342.431 278.474 341.775 279.946 341.455L283.818 340.591L284.042 341.999L280.474 342.767C279.364 343.013 278.538 343.429 277.994 344.015C277.45 344.602 277.14 345.445 277.066 346.543C277.428 345.999 277.898 345.578 278.474 345.279C279.05 344.981 279.695 344.831 280.41 344.831ZM280.138 351.871C280.682 351.871 281.162 351.749 281.578 351.503C282.004 351.258 282.335 350.922 282.57 350.495C282.804 350.058 282.922 349.562 282.922 349.007C282.922 348.165 282.666 347.487 282.154 346.975C281.642 346.463 280.97 346.207 280.138 346.207C279.306 346.207 278.628 346.463 278.106 346.975C277.594 347.487 277.338 348.165 277.338 349.007C277.338 349.562 277.455 350.058 277.69 350.495C277.935 350.922 278.271 351.258 278.698 351.503C279.124 351.749 279.604 351.871 280.138 351.871ZM286.683 344.543H288.219V350.719L293.419 344.543H294.811V353.023H293.275V346.847L288.091 353.023H286.683V344.543ZM301.425 353.119C300.582 353.119 299.825 352.933 299.153 352.559C298.481 352.186 297.953 351.674 297.569 351.023C297.195 350.362 297.009 349.615 297.009 348.783C297.009 347.951 297.195 347.21 297.569 346.559C297.953 345.898 298.481 345.386 299.153 345.023C299.825 344.65 300.582 344.463 301.425 344.463C302.267 344.463 303.019 344.65 303.681 345.023C304.353 345.386 304.875 345.898 305.249 346.559C305.633 347.21 305.825 347.951 305.825 348.783C305.825 349.615 305.633 350.362 305.249 351.023C304.875 351.674 304.353 352.186 303.681 352.559C303.019 352.933 302.267 353.119 301.425 353.119ZM301.425 351.775C301.969 351.775 302.454 351.653 302.881 351.407C303.318 351.151 303.659 350.799 303.905 350.351C304.15 349.893 304.273 349.37 304.273 348.783C304.273 348.197 304.15 347.679 303.905 347.231C303.659 346.773 303.318 346.421 302.881 346.175C302.454 345.93 301.969 345.807 301.425 345.807C300.881 345.807 300.39 345.93 299.953 346.175C299.526 346.421 299.185 346.773 298.929 347.231C298.683 347.679 298.561 348.197 298.561 348.783C298.561 349.37 298.683 349.893 298.929 350.351C299.185 350.799 299.526 351.151 299.953 351.407C300.39 351.653 300.881 351.775 301.425 351.775ZM314.05 345.887H310.946V353.023H309.41V345.887H306.306V344.543H314.05V345.887ZM315.621 344.543H317.157V350.719L322.357 344.543H323.749V353.023H322.213V346.847L317.029 353.023H315.621V344.543ZM330.026 349.439H328.266V353.023H326.73V344.543H328.266V348.127H330.058L332.81 344.543H334.458L331.242 348.623L334.682 353.023H332.874L330.026 349.439Z" fill="#4A4646"/>
<path d="M271 250.5C271 233.655 284.655 220 301.5 220C318.345 220 332 233.655 332 250.5V333.023H271V250.5Z" fill="#932727"/>
<path d="M293.945 283.608V285H285.897V283.912L290.457 279.512C291.011 278.979 291.385 278.52 291.577 278.136C291.769 277.741 291.865 277.347 291.865 276.952C291.865 276.365 291.657 275.912 291.241 275.592C290.835 275.261 290.249 275.096 289.481 275.096C288.243 275.096 287.289 275.501 286.617 276.312L285.529 275.368C285.966 274.835 286.537 274.419 287.241 274.12C287.955 273.821 288.75 273.672 289.625 273.672C290.798 273.672 291.731 273.955 292.425 274.52C293.118 275.075 293.465 275.832 293.465 276.792C293.465 277.389 293.337 277.955 293.081 278.488C292.825 279.021 292.339 279.629 291.625 280.312L288.201 283.608H293.945ZM296.488 282.904C296.787 282.904 297.032 283.011 297.224 283.224C297.427 283.427 297.528 283.683 297.528 283.992C297.528 284.152 297.507 284.307 297.464 284.456C297.432 284.605 297.363 284.835 297.256 285.144L296.504 287.368H295.496L296.088 284.984C295.886 284.909 295.72 284.787 295.592 284.616C295.475 284.435 295.416 284.227 295.416 283.992C295.416 283.672 295.518 283.411 295.72 283.208C295.923 283.005 296.179 282.904 296.488 282.904ZM303.486 278.504C304.584 278.611 305.422 278.952 305.998 279.528C306.574 280.093 306.862 280.819 306.862 281.704C306.862 282.344 306.702 282.925 306.382 283.448C306.062 283.96 305.582 284.371 304.942 284.68C304.312 284.979 303.539 285.128 302.622 285.128C301.822 285.128 301.054 285.011 300.318 284.776C299.582 284.531 298.979 284.195 298.51 283.768L299.246 282.504C299.63 282.867 300.12 283.16 300.718 283.384C301.315 283.597 301.95 283.704 302.622 283.704C303.454 283.704 304.099 283.528 304.558 283.176C305.027 282.824 305.262 282.339 305.262 281.72C305.262 281.101 305.032 280.621 304.574 280.28C304.115 279.939 303.422 279.768 302.494 279.768H301.598V278.648L304.414 275.192H299.022V273.8H306.414V274.888L303.486 278.504ZM316.148 283.608V285H308.1V283.912L312.66 279.512C313.214 278.979 313.588 278.52 313.78 278.136C313.972 277.741 314.068 277.347 314.068 276.952C314.068 276.365 313.86 275.912 313.444 275.592C313.038 275.261 312.452 275.096 311.684 275.096C310.446 275.096 309.492 275.501 308.82 276.312L307.732 275.368C308.169 274.835 308.74 274.419 309.444 274.12C310.158 273.821 310.953 273.672 311.828 273.672C313.001 273.672 313.934 273.955 314.628 274.52C315.321 275.075 315.668 275.832 315.668 276.792C315.668 277.389 315.54 277.955 315.284 278.488C315.028 279.021 314.542 279.629 313.828 280.312L310.404 283.608H316.148Z" fill="white"/>
<rect x="145" y="98" width="142" height="2" fill="#5A5858"/>
<path d="M286.759 152.241C286.892 152.374 287.108 152.374 287.241 152.241L289.41 150.072C289.543 149.939 289.543 149.723 289.41 149.59C289.277 149.457 289.061 149.457 288.928 149.59L287 151.518L285.072 149.59C284.939 149.457 284.723 149.457 284.59 149.59C284.457 149.723 284.457 149.939 284.59 150.072L286.759 152.241ZM286.659 100L286.659 152L287.341 152L287.341 100L286.659 100Z" fill="#313131"/>
<path d="M300.646 219.354C300.842 219.549 301.158 219.549 301.354 219.354L304.536 216.172C304.731 215.976 304.731 215.66 304.536 215.464C304.34 215.269 304.024 215.269 303.828 215.464L301 218.293L298.172 215.464C297.976 215.269 297.66 215.269 297.464 215.464C297.269 215.66 297.269 215.976 297.464 216.172L300.646 219.354ZM300.5 195L300.5 219L301.5 219L301.5 195L300.5 195Z" fill="#2BB362"/>
<defs>
<filter id="filter0_d" x="0.976624" y="44.7325" width="397.047" height="420.047" filterUnits="userSpaceOnUse" color-interpolation-filters="sRGB">
<feFlood flood-opacity="0" result="BackgroundImageFix"/>
<feColorMatrix in="SourceAlpha" type="matrix" values="0 0 0 0 0 0 0 0 0 0 0 0 0 0 0 0 0 0 127 0"/>
<feOffset dy="2.75584"/>
<feGaussianBlur stdDeviation="5.51169"/>
<feColorMatrix type="matrix" values="0 0 0 0 0 0 0 0 0 0 0 0 0 0 0 0 0 0 0.15 0"/>
<feBlend mode="normal" in2="BackgroundImageFix" result="effect1_dropShadow"/>
<feBlend mode="normal" in="SourceGraphic" in2="effect1_dropShadow" result="shape"/>
</filter>
<linearGradient id="paint0_linear" x1="232.5" y1="152" x2="345.529" y2="176.126" gradientUnits="userSpaceOnUse">
<stop stop-color="#F17922"/>
<stop offset="1" stop-color="#F7A318"/>
</linearGradient>
</defs>
</svg>
