<svg width="66" height="66" viewBox="0 0 66 66" fill="none" xmlns="http://www.w3.org/2000/svg">
<path d="M33 66C51.2254 66 66 51.2254 66 33C66 14.7746 51.2254 0 33 0C14.7746 0 0 14.7746 0 33C0 51.2254 14.7746 66 33 66Z" fill="#FFCA28"/>
<path d="M45.375 37.125C40.8251 37.125 37.125 33.4249 37.125 28.875C37.125 27.7365 38.049 26.8125 39.1875 26.8125C40.326 26.8125 41.25 27.7365 41.25 28.875C41.25 31.1479 43.098 33 45.375 33C47.652 33 49.5 31.1479 49.5 28.875C49.5 27.7365 50.424 26.8125 51.5625 26.8125C52.701 26.8125 53.625 27.7365 53.625 28.875C53.625 33.4249 49.9249 37.125 45.375 37.125Z" fill="#6D4C41"/>
<path d="M20.625 37.125C16.0751 37.125 12.375 33.4249 12.375 28.875C12.375 27.7365 13.299 26.8125 14.4375 26.8125C15.576 26.8125 16.5 27.7365 16.5 28.875C16.5 31.1479 18.3521 33 20.625 33C22.8979 33 24.75 31.1479 24.75 28.875C24.75 27.7365 25.674 26.8125 26.8125 26.8125C27.951 26.8125 28.875 27.7365 28.875 28.875C28.875 33.4249 25.1749 37.125 20.625 37.125Z" fill="#6D4C41"/>
<path d="M46.1236 54.9368C45.5956 54.9368 45.0676 54.7346 44.6634 54.3345C38.4264 48.0975 27.5611 48.0975 21.3282 54.3345C20.5239 55.1389 19.2162 55.1389 18.4119 54.3345C17.6075 53.5301 17.6075 52.2225 18.4119 51.4181C22.31 47.5241 27.4869 45.375 32.9979 45.375C38.5089 45.375 43.6857 47.5241 47.5797 51.4181C48.3841 52.2225 48.3841 53.5301 47.5797 54.3345C47.1755 54.7388 46.6516 54.9368 46.1236 54.9368Z" fill="#6D4C41"/>
<path d="M16.236 1.0518C15.5059 -0.247573 13.3691 -0.247573 12.639 1.0518C11.5624 2.96993 6.1875 12.7338 6.1875 16.4999C6.1875 21.0498 9.88762 24.7499 14.4375 24.7499C18.9874 24.7499 22.6875 21.0498 22.6875 16.4999C22.6875 12.7338 17.3126 2.96993 16.236 1.0518Z" fill="#03A9F4"/>
</svg>
