<svg width="170" height="47" viewBox="0 0 170 47" fill="none" xmlns="http://www.w3.org/2000/svg">
<path d="M19.3106 39.1231C29.9756 39.1231 38.6212 30.3651 38.6212 19.5616C38.6212 8.75802 29.9756 0 19.3106 0C8.64566 0 0 8.75802 0 19.5616C0 30.3651 8.64566 39.1231 19.3106 39.1231Z" fill="black"/>
<path d="M37.7308 31.874C37.7308 31.9764 37.7092 32.0656 37.6652 32.1424C37.6212 32.2192 37.5276 32.2828 37.3824 32.334C37.2373 32.3853 37.0341 32.4232 36.7738 32.4488C36.5125 32.4744 36.1651 32.4867 35.7297 32.4867C35.3523 32.4867 35.0442 32.4735 34.8054 32.4488C34.5667 32.4232 34.3737 32.3815 34.2295 32.3245C34.0844 32.2667 33.972 32.187 33.8924 32.0846C33.8128 31.9821 33.7435 31.855 33.6855 31.7013L31.0972 25.8543C30.7929 25.1903 30.4773 24.5794 30.1515 24.0235C29.8256 23.4677 29.437 22.9886 28.9885 22.5855C28.539 22.1833 28.0099 21.8703 27.4012 21.6464C26.7926 21.4225 26.0603 21.3106 25.2044 21.3106H22.7033V31.874C22.7033 31.9764 22.6705 32.0656 22.6059 32.1424C22.5413 32.2192 22.4392 32.28 22.3016 32.3245C22.1639 32.3691 21.9757 32.408 21.736 32.4393C21.4972 32.4706 21.1957 32.4867 20.8333 32.4867C20.4709 32.4867 20.1703 32.4706 19.9306 32.4393C19.6918 32.4071 19.4989 32.3691 19.3547 32.3245C19.2095 32.28 19.1084 32.2192 19.0503 32.1424C18.9923 32.0656 18.9633 31.9764 18.9633 31.874V8.90794C18.9633 8.40994 19.1121 8.06181 19.409 7.86356C19.7058 7.6653 20.0214 7.56665 20.3548 7.56665H26.3356C27.0454 7.56665 27.6372 7.58278 28.1082 7.61408C28.5792 7.64633 29.0034 7.68143 29.3808 7.71937C30.468 7.88537 31.4287 8.14813 32.2621 8.50574C33.0955 8.86336 33.7951 9.31773 34.3606 9.86695C34.9262 10.4162 35.3504 11.046 35.6332 11.7556C35.916 12.4651 36.0574 13.2477 36.0574 14.1042C36.0574 14.9352 35.9301 15.6798 35.6772 16.3372C35.4235 16.9955 35.0573 17.577 34.5788 18.0816C34.1003 18.5863 33.5272 19.0245 32.8605 19.3945C32.1938 19.7654 31.4465 20.0784 30.6206 20.3336C31.0841 20.5128 31.5046 20.7396 31.882 21.0137C32.2584 21.2888 32.6105 21.6179 32.9364 22.0012C33.2622 22.3844 33.5703 22.8255 33.8606 23.3244C34.1509 23.8224 34.4402 24.3849 34.7305 25.011L37.2532 30.4748C37.4564 30.9349 37.5866 31.2574 37.6446 31.4433C37.7018 31.6283 37.7308 31.7715 37.7308 31.874ZM32.0983 14.4486C32.0983 13.4772 31.852 12.6558 31.3585 11.9851C30.865 11.3145 30.0391 10.8317 28.8789 10.5376C28.5165 10.4484 28.1073 10.3839 27.6503 10.346C27.1934 10.308 26.5959 10.2881 25.8562 10.2881H22.7023V18.646H26.3562C27.3422 18.646 28.1934 18.5408 28.9117 18.3302C29.6299 18.1196 30.2273 17.8255 30.7058 17.448C31.1843 17.0714 31.5355 16.6265 31.7602 16.1152C31.9859 15.6049 32.0983 15.049 32.0983 14.4486Z" fill="white"/>
<path d="M58.8038 31.0117C58.8038 31.2413 58.7888 31.4433 58.7607 31.6159C58.7317 31.7886 58.6811 31.9318 58.6081 32.0476C58.535 32.1623 58.4517 32.2458 58.3581 32.297C58.2635 32.3483 58.1586 32.3739 58.0425 32.3739H44.5376C44.2043 32.3739 43.8887 32.2752 43.5918 32.077C43.2941 31.8787 43.1461 31.5306 43.1461 31.0326V8.90794C43.1461 8.40994 43.295 8.06181 43.5918 7.86356C43.8887 7.6653 44.2043 7.56665 44.5376 7.56665H57.8908C58.0069 7.56665 58.1118 7.59226 58.2064 7.64348C58.3 7.69471 58.3768 7.77723 58.4348 7.89296C58.4929 8.00774 58.5397 8.15192 58.5762 8.32456C58.6118 8.4972 58.6306 8.71158 58.6306 8.96675C58.6306 9.19631 58.6118 9.39835 58.5762 9.571C58.5397 9.74364 58.4929 9.88403 58.4348 9.99311C58.3768 10.1022 58.3009 10.1819 58.2064 10.2331C58.1118 10.2843 58.0069 10.3099 57.8908 10.3099H46.8861V18.093H56.3242C56.4403 18.093 56.5452 18.1215 56.6398 18.1793C56.7343 18.2372 56.8139 18.3169 56.8785 18.4193C56.9441 18.5218 56.9909 18.6622 57.0199 18.8414C57.049 19.0207 57.063 19.2313 57.063 19.4742C57.063 19.7037 57.048 19.902 57.0199 20.068C56.9909 20.234 56.9441 20.3687 56.8785 20.4702C56.813 20.5726 56.7334 20.6456 56.6398 20.6902C56.5452 20.7348 56.4403 20.7576 56.3242 20.7576H46.8861V29.6334H58.0425C58.1586 29.6334 58.2635 29.659 58.3581 29.7103C58.4526 29.7615 58.535 29.8412 58.6081 29.9502C58.6802 30.0593 58.7308 30.1997 58.7607 30.3724C58.7898 30.5422 58.8038 30.7556 58.8038 31.0117Z" fill="black"/>
<path d="M79.5734 25.4145C79.5734 26.5774 79.3308 27.6123 78.8448 28.5201C78.3589 29.4279 77.6846 30.1972 76.8222 30.8299C75.9598 31.4626 74.9447 31.9388 73.7779 32.2584C72.6102 32.5781 71.3526 32.7375 70.0052 32.7375C69.0622 32.7375 68.1895 32.6673 67.3842 32.5269C66.5798 32.3865 65.8616 32.2139 65.2314 32.009C64.6002 31.805 64.0711 31.5935 63.6441 31.3763C63.2162 31.159 62.9194 30.9741 62.7527 30.8204C62.586 30.6667 62.4624 30.4723 62.3828 30.2361C62.3032 29.9999 62.2629 29.6831 62.2629 29.2875C62.2629 29.0067 62.277 28.7734 62.306 28.5874C62.335 28.4025 62.3781 28.2517 62.4362 28.1369C62.4942 28.0221 62.5663 27.9424 62.6534 27.8969C62.7405 27.8523 62.8416 27.8295 62.9578 27.8295C63.161 27.8295 63.4475 27.9386 63.8164 28.1558C64.1863 28.3731 64.6611 28.6093 65.2407 28.8654C65.8204 29.1215 66.5199 29.3605 67.3392 29.5844C68.1586 29.8083 69.1043 29.9202 70.1775 29.9202C70.9893 29.9202 71.7328 29.8244 72.407 29.6328C73.0813 29.4412 73.6609 29.1699 74.1469 28.818C74.6329 28.467 75.0056 28.0354 75.2668 27.5241C75.5281 27.0128 75.6582 26.4313 75.6582 25.7797C75.6582 25.0768 75.4766 24.4763 75.1142 23.9774C74.7518 23.4794 74.2733 23.0411 73.6787 22.6645C73.0841 22.2879 72.4061 21.9427 71.6457 21.6296C70.8844 21.3166 70.1054 20.9969 69.3075 20.6716C68.5097 20.3453 67.7344 19.9848 66.9806 19.5883C66.2268 19.1927 65.5525 18.726 64.9579 18.1891C64.3633 17.6522 63.8811 17.0233 63.5121 16.3005C63.1422 15.5786 62.9578 14.7126 62.9578 13.7033C62.9578 12.6684 63.1713 11.7445 63.5992 10.9335C64.0262 10.1224 64.6218 9.44134 65.3821 8.89211C66.1434 8.34289 67.0489 7.92361 68.1005 7.63619C69.1512 7.34877 70.2861 7.20459 71.5043 7.20459C72.128 7.20459 72.7544 7.25202 73.3856 7.34878C74.0167 7.44458 74.6104 7.57264 75.1685 7.732C75.7266 7.89231 76.2229 8.07064 76.6583 8.2689C77.0928 8.46715 77.3794 8.62651 77.517 8.74793C77.6547 8.86935 77.7455 8.96515 77.7886 9.03535C77.8317 9.10554 77.8682 9.19566 77.8972 9.30379C77.9262 9.41288 77.9478 9.54379 77.9627 9.69651C77.9768 9.85018 77.9843 10.0484 77.9843 10.2903C77.9843 10.5208 77.973 10.7248 77.9515 10.904C77.93 11.0833 77.8972 11.2332 77.8541 11.3546C77.8111 11.476 77.7483 11.5652 77.6697 11.6231C77.5901 11.6809 77.4992 11.7094 77.3981 11.7094C77.238 11.7094 76.988 11.6202 76.648 11.4409C76.3072 11.2617 75.8905 11.0606 75.3979 10.8367C74.9044 10.6128 74.3211 10.4089 73.6468 10.223C72.9726 10.038 72.2151 9.94503 71.3742 9.94503C70.5913 9.94503 69.9096 10.038 69.33 10.223C68.7504 10.4079 68.2719 10.6546 67.8945 10.961C67.5171 11.2674 67.2343 11.6316 67.0461 12.0537C66.8579 12.4758 66.7633 12.9226 66.7633 13.396C66.7633 14.0865 66.944 14.6803 67.3074 15.1783C67.6698 15.6763 68.152 16.1174 68.7532 16.5007C69.3544 16.8839 70.0398 17.2358 70.8086 17.5555C71.5774 17.8751 72.3602 18.1977 73.1571 18.524C73.954 18.8503 74.7368 19.2079 75.5056 19.5978C76.2735 19.9876 76.9589 20.4477 77.561 20.978C78.1622 21.5082 78.6482 22.1352 79.0181 22.8571C79.388 23.5771 79.5734 24.4298 79.5734 25.4145Z" fill="black"/>
<path d="M102.256 8.98472C102.256 9.22756 102.241 9.43814 102.213 9.61742C102.184 9.7967 102.137 9.93994 102.072 10.049C102.006 10.1581 101.927 10.2378 101.833 10.289C101.738 10.3402 101.634 10.3658 101.517 10.3658H93.601V31.8748C93.601 31.9773 93.572 32.0665 93.5139 32.1433C93.4559 32.2201 93.3538 32.2808 93.2096 32.3254C93.0644 32.37 92.8725 32.4089 92.6337 32.4402C92.3949 32.4715 92.0934 32.4876 91.731 32.4876C91.3827 32.4876 91.0858 32.4715 90.8395 32.4402C90.5933 32.4079 90.3976 32.37 90.2524 32.3254C90.1073 32.2808 90.0061 32.2201 89.9481 32.1433C89.89 32.0665 89.861 31.9773 89.861 31.8748V10.3649H81.9446C81.8285 10.3649 81.7236 10.3393 81.629 10.2881C81.5345 10.2368 81.4586 10.1572 81.4006 10.0481C81.3425 9.93994 81.2947 9.79575 81.2592 9.61647C81.2226 9.43719 81.2048 9.22661 81.2048 8.98377C81.2048 8.74094 81.2226 8.52656 81.2592 8.34158C81.2947 8.15661 81.3425 8.00579 81.4006 7.89101C81.4586 7.77623 81.5345 7.69275 81.629 7.64153C81.7236 7.59031 81.8285 7.5647 81.9446 7.5647H101.517C101.634 7.5647 101.738 7.59031 101.833 7.64153C101.927 7.69275 102.007 7.77528 102.072 7.89101C102.137 8.00579 102.184 8.15661 102.213 8.34158C102.241 8.5275 102.256 8.74188 102.256 8.98472Z" fill="black"/>
<path d="M123.916 31.2033C124.032 31.4841 124.093 31.7118 124.101 31.8835C124.108 32.0561 124.054 32.187 123.938 32.2762C123.822 32.3653 123.63 32.4232 123.362 32.4488C123.093 32.4744 122.735 32.4868 122.285 32.4868C121.836 32.4868 121.477 32.4773 121.208 32.4583C120.939 32.4393 120.737 32.4071 120.599 32.3625C120.462 32.3179 120.361 32.2572 120.295 32.1804C120.23 32.1035 120.168 32.0077 120.111 31.8929L117.697 25.8543H105.996L103.691 31.8161C103.648 31.9309 103.59 32.0305 103.517 32.113C103.444 32.1965 103.339 32.2667 103.201 32.3236C103.063 32.3815 102.868 32.4222 102.614 32.4479C102.36 32.4735 102.031 32.4858 101.624 32.4858C101.204 32.4858 100.859 32.4697 100.591 32.4384C100.322 32.4061 100.134 32.3454 100.026 32.2562C99.917 32.1671 99.8655 32.0362 99.873 31.8635C99.8805 31.6909 99.9414 31.4642 100.057 31.1834L109.496 8.14054C109.554 8.00015 109.629 7.88538 109.724 7.79526C109.819 7.7061 109.955 7.6359 110.137 7.58467C110.318 7.53345 110.55 7.49836 110.833 7.47938C111.116 7.46041 111.474 7.45093 111.91 7.45093C112.373 7.45093 112.758 7.46041 113.062 7.47938C113.367 7.49836 113.613 7.53345 113.802 7.58467C113.99 7.6359 114.135 7.70894 114.238 7.80475C114.339 7.90055 114.418 8.01912 114.476 8.15951L123.916 31.2033ZM111.803 10.863H111.781L106.932 23.2277H116.718L111.803 10.863Z" fill="black"/>
<path d="M147.382 31.874C147.382 31.9764 147.36 32.0656 147.316 32.1424C147.273 32.2192 147.179 32.2828 147.033 32.334C146.888 32.3853 146.685 32.4232 146.425 32.4488C146.163 32.4744 145.816 32.4867 145.381 32.4867C145.003 32.4867 144.695 32.4735 144.456 32.4488C144.218 32.4232 144.025 32.3815 143.881 32.3245C143.735 32.2667 143.623 32.187 143.543 32.0846C143.464 31.9821 143.395 31.855 143.336 31.7013L140.748 25.8543C140.444 25.1903 140.128 24.5794 139.802 24.0235C139.477 23.4677 139.088 22.9886 138.639 22.5855C138.19 22.1833 137.661 21.8703 137.052 21.6464C136.444 21.4225 135.711 21.3106 134.855 21.3106H132.354V31.874C132.354 31.9764 132.321 32.0656 132.257 32.1424C132.191 32.2192 132.09 32.28 131.953 32.3245C131.815 32.3691 131.627 32.408 131.387 32.4393C131.148 32.4706 130.847 32.4867 130.484 32.4867C130.122 32.4867 129.821 32.4706 129.582 32.4393C129.343 32.4071 129.15 32.3691 129.005 32.3245C128.86 32.28 128.758 32.2192 128.7 32.1424C128.642 32.0656 128.613 31.9764 128.613 31.874V8.90794C128.613 8.40994 128.762 8.06181 129.059 7.86356C129.356 7.6653 129.671 7.56665 130.005 7.56665H135.986C136.695 7.56665 137.286 7.58278 137.758 7.61408C138.229 7.64633 138.653 7.68143 139.031 7.71937C140.118 7.88537 141.079 8.14813 141.912 8.50574C142.746 8.86336 143.445 9.31773 144.011 9.86695C144.576 10.4162 145 11.046 145.283 11.7556C145.566 12.4651 145.707 13.2477 145.707 14.1042C145.707 14.9352 145.58 15.6798 145.327 16.3372C145.074 16.9955 144.707 17.577 144.229 18.0816C143.75 18.5863 143.177 19.0245 142.511 19.3945C141.844 19.7654 141.097 20.0784 140.271 20.3336C140.734 20.5128 141.155 20.7396 141.532 21.0137C141.908 21.2888 142.261 21.6179 142.586 22.0012C142.912 22.3844 143.22 22.8255 143.511 23.3244C143.801 23.8224 144.09 24.3849 144.381 25.011L146.903 30.4748C147.106 30.9349 147.237 31.2574 147.295 31.4433C147.353 31.6283 147.382 31.7715 147.382 31.874ZM141.749 14.4486C141.749 13.4772 141.503 12.6558 141.009 11.9851C140.516 11.3145 139.69 10.8317 138.53 10.5376C138.167 10.4484 137.757 10.3839 137.301 10.346C136.845 10.308 136.247 10.2881 135.507 10.2881H132.353V18.646H136.007C136.993 18.646 137.845 18.5408 138.563 18.3302C139.28 18.1196 139.878 17.8255 140.357 17.448C140.835 17.0714 141.186 16.6265 141.411 16.1152C141.637 15.6049 141.749 15.049 141.749 14.4486Z" fill="black"/>
<path d="M170 8.98472C170 9.22756 169.985 9.43814 169.957 9.61742C169.928 9.7967 169.881 9.93994 169.815 10.049C169.75 10.1581 169.67 10.2378 169.577 10.289C169.482 10.3402 169.377 10.3658 169.261 10.3658H161.345V31.8748C161.345 31.9773 161.316 32.0665 161.258 32.1433C161.2 32.2201 161.097 32.2808 160.953 32.3254C160.808 32.37 160.616 32.4089 160.377 32.4402C160.139 32.4715 159.837 32.4876 159.475 32.4876C159.126 32.4876 158.829 32.4715 158.583 32.4402C158.337 32.4079 158.141 32.37 157.996 32.3254C157.851 32.2808 157.75 32.2201 157.692 32.1433C157.634 32.0665 157.605 31.9773 157.605 31.8748V10.3649H149.688C149.572 10.3649 149.467 10.3393 149.373 10.2881C149.278 10.2368 149.202 10.1572 149.144 10.0481C149.086 9.93994 149.038 9.79575 149.003 9.61647C148.966 9.43719 148.948 9.22661 148.948 8.98377C148.948 8.74094 148.966 8.52656 149.003 8.34158C149.038 8.15661 149.086 8.00579 149.144 7.89101C149.202 7.77623 149.278 7.69275 149.373 7.64153C149.466 7.59031 149.572 7.5647 149.688 7.5647H169.261C169.377 7.5647 169.482 7.59031 169.577 7.64153C169.67 7.69275 169.751 7.77528 169.815 7.89101C169.881 8.00579 169.928 8.15661 169.957 8.34158C169.985 8.5275 170 8.74188 170 8.98472Z" fill="black"/>
<path d="M9.34997 45.5735C9.34997 45.5935 9.34154 45.6086 9.32469 45.6191C9.30783 45.6295 9.28536 45.638 9.2582 45.6428C9.23105 45.6475 9.19359 45.6504 9.14771 45.6504C9.1037 45.6504 9.06624 45.6475 9.0344 45.6428C9.00256 45.638 8.97915 45.6304 8.9623 45.6191C8.94544 45.6086 8.93702 45.5925 8.93702 45.5735V45.2747C8.77876 45.4047 8.60459 45.5052 8.41356 45.5764C8.22254 45.6475 8.02496 45.6826 7.81988 45.6826C7.63541 45.6826 7.47061 45.6646 7.32359 45.6276C7.17657 45.5916 7.05297 45.5384 6.95184 45.4711C6.85071 45.4028 6.77299 45.3212 6.71867 45.2245C6.66436 45.1277 6.63721 45.0196 6.63721 44.8991C6.63721 44.7511 6.67747 44.6221 6.758 44.513C6.83853 44.4039 6.95277 44.3119 7.10073 44.2389C7.24868 44.1659 7.42659 44.1108 7.63354 44.0748C7.84142 44.0387 8.07178 44.0198 8.32648 44.0198H8.88739V43.7893C8.88739 43.6745 8.87147 43.5739 8.84057 43.4857C8.80967 43.3975 8.7591 43.3245 8.68887 43.2657C8.61864 43.2068 8.52781 43.1623 8.41638 43.1329C8.30494 43.1034 8.16823 43.0883 8.0081 43.0883C7.85266 43.0883 7.7122 43.1025 7.58766 43.131C7.46312 43.1594 7.35449 43.1917 7.26085 43.2268C7.16721 43.2619 7.09042 43.2941 7.02956 43.3226C6.96869 43.351 6.92468 43.3653 6.8994 43.3653C6.88348 43.3653 6.86944 43.3634 6.85633 43.3596C6.84322 43.3558 6.83198 43.3482 6.82355 43.3377C6.81419 43.3273 6.80763 43.3131 6.80389 43.296C6.80014 43.2789 6.79827 43.259 6.79827 43.2353C6.79827 43.1936 6.80201 43.1604 6.81044 43.1366C6.81793 43.112 6.83853 43.0873 6.87037 43.0627C6.90315 43.038 6.96027 43.0086 7.04361 42.9754C7.12695 42.9422 7.22152 42.9109 7.33015 42.8824C7.43783 42.854 7.55395 42.8303 7.67849 42.8132C7.80303 42.7952 7.92757 42.7866 8.05211 42.7866C8.29371 42.7866 8.49691 42.8084 8.66359 42.853C8.82933 42.8976 8.96417 42.9612 9.06624 43.0437C9.16831 43.1262 9.24228 43.2287 9.28629 43.3501C9.33031 43.4715 9.35278 43.609 9.35278 43.7627V45.5735H9.34997ZM8.88739 44.31H8.24501C8.05773 44.31 7.8948 44.3233 7.75434 44.3489C7.61388 44.3745 7.49776 44.4125 7.40412 44.4618C7.31048 44.5111 7.24119 44.5699 7.19624 44.6392C7.15129 44.7084 7.12788 44.7872 7.12788 44.8763C7.12788 45.03 7.19249 45.1533 7.32078 45.2444C7.44907 45.3364 7.62979 45.3819 7.8639 45.3819C8.04837 45.3819 8.21973 45.3459 8.37986 45.2738C8.53904 45.2017 8.70853 45.0907 8.88739 44.9408V44.31Z" fill="black"/>
<path d="M14.5936 42.9934C14.5936 43.019 14.5908 43.0417 14.5861 43.0616C14.5805 43.0816 14.573 43.0977 14.5627 43.1119C14.5524 43.1262 14.5402 43.1356 14.5281 43.1432C14.515 43.1499 14.499 43.1537 14.4812 43.1537H13.0607V45.5744C13.0607 45.5868 13.0569 45.5972 13.0495 45.6067C13.042 45.6162 13.0289 45.6247 13.012 45.6304C12.9951 45.6361 12.9717 45.6408 12.9418 45.6456C12.9118 45.6494 12.8734 45.6513 12.8266 45.6513C12.7826 45.6513 12.7451 45.6494 12.7161 45.6456C12.6861 45.6418 12.6618 45.637 12.644 45.6304C12.6262 45.6247 12.6131 45.6171 12.6065 45.6067C12.6 45.5972 12.5972 45.5858 12.5972 45.5744V42.9734C12.5972 42.926 12.6131 42.8909 12.644 42.8681C12.6749 42.8454 12.7123 42.834 12.7573 42.834H14.4822C14.5 42.834 14.5159 42.8378 14.529 42.8463C14.5421 42.8539 14.5533 42.8653 14.5636 42.8786C14.5739 42.8919 14.5814 42.9089 14.5871 42.9288C14.5908 42.9478 14.5936 42.9696 14.5936 42.9934Z" fill="black"/>
<path d="M20.0733 44.0976C20.0733 44.1687 20.0489 44.2171 19.9993 44.2436C19.9497 44.2702 19.9019 44.2835 19.8551 44.2835H17.4532C17.4532 44.4495 17.4747 44.5994 17.5178 44.7331C17.5609 44.8668 17.6311 44.9826 17.7304 45.0774C17.8296 45.1723 17.957 45.2463 18.1162 45.2975C18.2744 45.3487 18.4692 45.3743 18.6996 45.3743C18.8634 45.3743 19.0095 45.3639 19.1397 45.3421C19.2698 45.3203 19.3813 45.2966 19.4768 45.27C19.5714 45.2434 19.6491 45.2188 19.7099 45.1979C19.7708 45.1761 19.8139 45.1657 19.8401 45.1657C19.856 45.1657 19.8701 45.1685 19.8832 45.1742C19.8963 45.1799 19.9066 45.1894 19.9141 45.2026C19.9216 45.215 19.9281 45.232 19.9319 45.251C19.9356 45.27 19.9375 45.2956 19.9375 45.325C19.9375 45.3392 19.9366 45.3525 19.9338 45.3649C19.9309 45.3781 19.9281 45.3895 19.9244 45.4009C19.9206 45.4123 19.915 45.4218 19.9066 45.4322C19.8991 45.4417 19.8888 45.4521 19.8757 45.4616C19.8626 45.4711 19.8223 45.4891 19.7549 45.5138C19.6875 45.5384 19.5995 45.5631 19.4899 45.5878C19.3813 45.6124 19.2539 45.6342 19.1107 45.6542C18.9664 45.6741 18.8119 45.6836 18.6453 45.6836C18.3728 45.6836 18.1312 45.6523 17.9214 45.5906C17.7117 45.529 17.5347 45.4369 17.3923 45.3155C17.25 45.1941 17.1414 45.0442 17.0674 44.864C16.9934 44.6847 16.9569 44.476 16.9569 44.2398C16.9569 44.0131 16.9953 43.8101 17.0721 43.6299C17.1489 43.4497 17.2584 43.2979 17.4008 43.1727C17.5431 43.0475 17.7154 42.9517 17.9167 42.8853C18.1181 42.8189 18.3419 42.7866 18.5881 42.7866C18.8531 42.7866 19.0788 42.8198 19.2652 42.8872C19.4524 42.9545 19.606 43.0446 19.7268 43.1575C19.8476 43.2713 19.9356 43.4022 19.9918 43.5531C20.048 43.7029 20.0752 43.8604 20.0752 44.0264V44.0976H20.0733ZM19.5948 43.9942C19.6023 43.7096 19.5171 43.4886 19.3382 43.3283C19.1593 43.168 18.8981 43.0883 18.5563 43.0883C18.3793 43.0883 18.2248 43.1129 18.0909 43.1632C17.957 43.2135 17.8446 43.2799 17.7519 43.3634C17.6602 43.4459 17.589 43.5426 17.5394 43.6517C17.4897 43.7608 17.4616 43.8746 17.4541 43.9932H19.5948V43.9942Z" fill="black"/>
<path d="M26.0166 45.5735C26.0166 45.5858 26.0128 45.5963 26.0053 45.6057C25.9978 45.6152 25.9847 45.6238 25.9679 45.6295C25.951 45.6352 25.9276 45.6399 25.8976 45.6446C25.8677 45.6484 25.8312 45.6503 25.7872 45.6503C25.7403 45.6503 25.7019 45.6484 25.672 45.6446C25.642 45.6408 25.6186 45.6361 25.6017 45.6295C25.5849 45.6238 25.5727 45.6162 25.5643 45.6057C25.5568 45.5963 25.553 45.5849 25.553 45.5735V44.3337H23.5641V45.5735C23.5641 45.5858 23.5604 45.5963 23.5529 45.6057C23.5454 45.6152 23.5323 45.6238 23.5154 45.6295C23.4986 45.6352 23.4752 45.6399 23.4452 45.6446C23.4152 45.6484 23.3768 45.6503 23.33 45.6503C23.286 45.6503 23.2485 45.6484 23.2195 45.6446C23.1895 45.6408 23.1652 45.6361 23.1474 45.6295C23.1296 45.6238 23.1165 45.6162 23.1099 45.6057C23.1034 45.5963 23.1006 45.5849 23.1006 45.5735V42.8957C23.1006 42.8833 23.1034 42.8729 23.1099 42.8634C23.1165 42.8539 23.1287 42.8454 23.1474 42.8378C23.1652 42.8312 23.1895 42.8264 23.2195 42.8226C23.2495 42.8198 23.286 42.8179 23.33 42.8179C23.3768 42.8179 23.4152 42.8198 23.4452 42.8226C23.4752 42.8255 23.4986 42.8302 23.5154 42.8378C23.5323 42.8444 23.5444 42.853 23.5529 42.8634C23.5604 42.8729 23.5641 42.8843 23.5641 42.8957V44.0321H25.553V42.8957C25.553 42.8833 25.5568 42.8729 25.5643 42.8634C25.5718 42.8539 25.5839 42.8454 25.6017 42.8378C25.6186 42.8312 25.642 42.8264 25.672 42.8226C25.7019 42.8198 25.7403 42.8179 25.7872 42.8179C25.8312 42.8179 25.8686 42.8198 25.8976 42.8226C25.9276 42.8255 25.951 42.8302 25.9679 42.8378C25.9847 42.8444 25.9969 42.853 26.0053 42.8634C26.0128 42.8729 26.0166 42.8843 26.0166 42.8957V45.5735Z" fill="black"/>
<path d="M31.6639 42.9993C31.6639 43.023 31.661 43.0448 31.6564 43.0647C31.6507 43.0846 31.6432 43.1007 31.6329 43.115C31.6226 43.1292 31.6105 43.1396 31.5955 43.1472C31.5814 43.1548 31.5646 43.1596 31.5468 43.1596H30.3988V45.5737C30.3988 45.586 30.395 45.5965 30.3866 45.6059C30.3782 45.6154 30.3669 45.624 30.3491 45.6297C30.3313 45.6353 30.3089 45.6401 30.2789 45.6448C30.2489 45.6486 30.2106 45.6505 30.1637 45.6505C30.1197 45.6505 30.0823 45.6486 30.0523 45.6448C30.0223 45.641 29.998 45.6363 29.9802 45.6297C29.9624 45.623 29.9493 45.6164 29.9437 45.6059C29.9371 45.5965 29.9343 45.5851 29.9343 45.5737V43.1596H28.7863C28.7685 43.1596 28.7516 43.1558 28.7376 43.1472C28.7235 43.1396 28.7114 43.1283 28.7011 43.115C28.6908 43.1007 28.6833 43.0846 28.6777 43.0647C28.672 43.0448 28.6702 43.023 28.6702 42.9993C28.6702 42.9755 28.673 42.9537 28.6777 42.9329C28.6833 42.912 28.6908 42.894 28.7011 42.8797C28.7114 42.8646 28.7235 42.8532 28.7376 42.8456C28.7516 42.838 28.7685 42.8333 28.7863 42.8333H31.5459C31.5637 42.8333 31.5805 42.837 31.5946 42.8456C31.6086 42.8532 31.6208 42.8646 31.632 42.8797C31.6423 42.8949 31.6498 42.912 31.6554 42.9329C31.661 42.9537 31.6639 42.9755 31.6639 42.9993Z" fill="black"/>
<path d="M36.7772 45.177C36.7772 45.2007 36.7763 45.2216 36.7735 45.2406C36.7707 45.2596 36.7669 45.2757 36.7622 45.289C36.7566 45.3032 36.7501 45.3155 36.7407 45.326C36.7313 45.3364 36.7098 45.3554 36.6761 45.381C36.6424 45.4066 36.5862 45.4388 36.5066 45.4787C36.427 45.5185 36.339 45.5527 36.2397 45.5821C36.1414 45.6115 36.0347 45.6361 35.9204 45.6542C35.8062 45.6731 35.6882 45.6826 35.5665 45.6826C35.323 45.6826 35.1067 45.6513 34.9185 45.5897C34.7302 45.528 34.5729 45.436 34.4456 45.3146C34.3182 45.1932 34.2218 45.0442 34.1553 44.8678C34.0888 44.6914 34.056 44.4874 34.056 44.2569C34.056 43.9961 34.0972 43.7741 34.1787 43.5882C34.2602 43.4022 34.3725 43.2505 34.5158 43.1329C34.6581 43.0143 34.8248 42.927 35.0158 42.871C35.2069 42.8151 35.411 42.7866 35.6292 42.7866C35.7462 42.7866 35.8577 42.7952 35.9644 42.8122C36.0712 42.8293 36.1686 42.8511 36.2584 42.8786C36.3483 42.9061 36.4279 42.9374 36.4982 42.9735C36.5684 43.0086 36.619 43.0389 36.6517 43.0636C36.6845 43.0883 36.7061 43.1072 36.7182 43.1196C36.7295 43.1329 36.7388 43.1471 36.7454 43.1623C36.7519 43.1784 36.7566 43.1955 36.7594 43.2144C36.7622 43.2334 36.7632 43.2552 36.7632 43.2808C36.7632 43.3377 36.7519 43.3776 36.7304 43.4004C36.7079 43.4231 36.6845 43.4345 36.6583 43.4345C36.6218 43.4345 36.5768 43.4165 36.5244 43.3814C36.471 43.3463 36.4027 43.3064 36.3203 43.2647C36.2369 43.222 36.1367 43.1831 36.0187 43.148C35.9007 43.1129 35.7603 43.0949 35.5964 43.0949C35.2593 43.0949 34.999 43.1936 34.8164 43.3909C34.6338 43.5882 34.542 43.8727 34.542 44.2455C34.542 44.4333 34.5664 44.5975 34.616 44.7378C34.6656 44.8792 34.7359 44.9959 34.8286 45.0898C34.9203 45.1837 35.0327 45.2539 35.1657 45.2994C35.2977 45.3459 35.4475 45.3686 35.6133 45.3686C35.7687 45.3686 35.9064 45.3497 36.0262 45.3127C36.1451 45.2757 36.2491 45.2339 36.338 45.1884C36.4261 45.1429 36.5 45.1011 36.5581 45.0641C36.6162 45.0272 36.6602 45.0082 36.6883 45.0082C36.7042 45.0082 36.7173 45.012 36.7295 45.0186C36.7407 45.0253 36.751 45.0366 36.7585 45.0509C36.766 45.0661 36.7725 45.0831 36.7763 45.104C36.7753 45.1258 36.7772 45.1495 36.7772 45.177Z" fill="black"/>
<path d="M42.0551 42.9993C42.0551 43.023 42.0523 43.0448 42.0476 43.0647C42.042 43.0846 42.0345 43.1007 42.0242 43.115C42.0139 43.1292 42.0018 43.1396 41.9868 43.1472C41.9727 43.1548 41.9559 43.1596 41.9381 43.1596H40.79V45.5737C40.79 45.586 40.7863 45.5965 40.7779 45.6059C40.7694 45.6154 40.7582 45.624 40.7404 45.6297C40.7226 45.6353 40.7002 45.6401 40.6702 45.6448C40.6402 45.6486 40.6018 45.6505 40.555 45.6505C40.511 45.6505 40.4735 45.6486 40.4436 45.6448C40.4136 45.641 40.3893 45.6363 40.3715 45.6297C40.3537 45.623 40.3406 45.6164 40.335 45.6059C40.3284 45.5965 40.3256 45.5851 40.3256 45.5737V43.1596H39.1785C39.1607 43.1596 39.1438 43.1558 39.1298 43.1472C39.1158 43.1396 39.1036 43.1283 39.0933 43.115C39.083 43.1007 39.0755 43.0846 39.0699 43.0647C39.0643 43.0448 39.0624 43.023 39.0624 42.9993C39.0624 42.9755 39.0652 42.9537 39.0699 42.9329C39.0755 42.912 39.083 42.894 39.0933 42.8797C39.1036 42.8646 39.1158 42.8532 39.1298 42.8456C39.1438 42.838 39.1607 42.8333 39.1785 42.8333H41.9381C41.9559 42.8333 41.9727 42.837 41.9868 42.8456C42.0008 42.8532 42.013 42.8646 42.0242 42.8797C42.0345 42.8949 42.042 42.912 42.0476 42.9329C42.0523 42.9537 42.0551 42.9755 42.0551 42.9993Z" fill="black"/>
<path d="M47.4143 44.8099C47.4143 44.9446 47.3816 45.0641 47.3151 45.1713C47.2486 45.2785 47.1503 45.3677 47.0192 45.4407C46.8881 45.5138 46.7261 45.5697 46.5322 45.6077C46.3393 45.6466 46.1137 45.6655 45.8571 45.6655C45.7822 45.6655 45.7063 45.6646 45.6296 45.6636C45.5528 45.6627 45.4788 45.6608 45.4058 45.6579C45.3327 45.6551 45.2625 45.6513 45.1932 45.6475C45.1248 45.6437 45.0593 45.639 44.9965 45.6323C44.9029 45.6228 44.8317 45.5972 44.7821 45.5574C44.7325 45.5166 44.7081 45.4587 44.7081 45.381V43.0816C44.7081 43.0048 44.7325 42.945 44.7821 42.9042C44.8317 42.8625 44.9029 42.8378 44.9965 42.8302C45.0696 42.8245 45.1408 42.8198 45.2129 42.8151C45.284 42.8113 45.3552 42.8075 45.4273 42.8046C45.4994 42.8018 45.5706 42.7989 45.6436 42.797C45.7166 42.7951 45.7915 42.7942 45.8693 42.7942C46.1052 42.7942 46.3113 42.8103 46.4864 42.8426C46.6615 42.8748 46.8076 42.9222 46.9246 42.983C47.0417 43.0437 47.1287 43.1186 47.1859 43.2078C47.243 43.2969 47.2711 43.3984 47.2711 43.5123C47.2711 43.6564 47.2196 43.7817 47.1175 43.8879C47.0145 43.9941 46.8637 44.0719 46.6643 44.1212C46.919 44.1668 47.1072 44.2493 47.2308 44.3688C47.3525 44.4902 47.4143 44.6373 47.4143 44.8099ZM46.8029 43.5379C46.8029 43.4648 46.7851 43.3994 46.7504 43.3425C46.7158 43.2856 46.6587 43.2372 46.5791 43.1992C46.4995 43.1603 46.3974 43.1319 46.2719 43.112C46.1465 43.092 45.9938 43.0826 45.815 43.0826C45.6801 43.0826 45.5584 43.0854 45.4488 43.0911C45.3402 43.0968 45.2475 43.1034 45.1726 43.1091V44.0264H45.9002C46.1933 44.0264 46.4171 43.9837 46.5716 43.8993C46.7261 43.8139 46.8029 43.6934 46.8029 43.5379ZM46.9321 44.8251C46.9321 44.7378 46.9115 44.6619 46.8694 44.5955C46.8282 44.5291 46.7626 44.4741 46.6746 44.4295C46.5866 44.385 46.4751 44.3518 46.3422 44.3299C46.2083 44.3081 46.0509 44.2977 45.8693 44.2977H45.1726V45.3421C45.2269 45.3478 45.2831 45.3525 45.3421 45.3572C45.4001 45.361 45.4601 45.3648 45.5209 45.3677C45.5818 45.3705 45.6427 45.3734 45.7035 45.3753C45.7644 45.3772 45.8225 45.3781 45.8768 45.3781C46.0584 45.3781 46.2157 45.3658 46.3478 45.3411C46.4798 45.3165 46.5894 45.2804 46.6765 45.233C46.7635 45.1856 46.8272 45.1277 46.8694 45.0584C46.9106 44.9901 46.9321 44.9124 46.9321 44.8251Z" fill="black"/>
<path d="M53.54 44.2062C53.54 44.4196 53.5034 44.616 53.4313 44.7953C53.3583 44.9745 53.2506 45.131 53.1064 45.2629C52.9622 45.3947 52.7824 45.4981 52.567 45.5721C52.3517 45.6461 52.1016 45.6831 51.816 45.6831C51.5407 45.6831 51.3001 45.6499 51.0941 45.5845C50.888 45.519 50.7148 45.4242 50.5762 45.3008C50.4376 45.1775 50.3337 45.0276 50.2644 44.8522C50.196 44.6767 50.1614 44.4784 50.1614 44.2574C50.1614 44.044 50.197 43.8476 50.2681 43.6683C50.3393 43.4891 50.447 43.3335 50.5912 43.2026C50.7354 43.0717 50.9152 42.9692 51.1306 42.8962C51.3459 42.8232 51.5978 42.7871 51.8853 42.7871C52.1606 42.7871 52.4013 42.8194 52.6073 42.8848C52.8133 42.9503 52.9856 43.0442 53.1233 43.1675C53.2609 43.2908 53.3649 43.4407 53.4351 43.6162C53.5053 43.7898 53.54 43.9871 53.54 44.2062ZM53.0493 44.2384C53.0493 44.0867 53.0296 43.9415 52.9912 43.804C52.9519 43.6655 52.8873 43.5441 52.7965 43.4388C52.7056 43.3335 52.5839 43.2491 52.4303 43.1874C52.2767 43.1248 52.0867 43.0944 51.8582 43.0944C51.6484 43.0944 51.4667 43.1229 51.3132 43.1808C51.1596 43.2377 51.0351 43.3174 50.9377 43.4189C50.8403 43.5204 50.7682 43.6399 50.7214 43.7784C50.6745 43.9169 50.6511 44.0658 50.6511 44.2252C50.6511 44.3788 50.6708 44.5259 50.7092 44.6643C50.7476 44.8028 50.8131 44.9252 50.904 45.0295C50.9948 45.1339 51.1165 45.2174 51.2701 45.2781C51.4227 45.3388 51.6138 45.3701 51.8422 45.3701C52.052 45.3701 52.2337 45.3416 52.3872 45.2847C52.5408 45.2278 52.6654 45.1491 52.7627 45.0476C52.8601 44.947 52.9322 44.8275 52.9791 44.69C53.0259 44.5505 53.0493 44.4006 53.0493 44.2384Z" fill="black"/>
<path d="M63.2396 45.5735C63.2396 45.5859 63.2358 45.5963 63.2274 45.6058C63.219 45.6153 63.2077 45.6238 63.1899 45.6295C63.1721 45.6352 63.1497 45.6399 63.1197 45.6447C63.0897 45.6485 63.0513 45.6504 63.0045 45.6504C62.9605 45.6504 62.9231 45.6485 62.8931 45.6447C62.8631 45.6409 62.8388 45.6361 62.821 45.6295C62.8032 45.6229 62.7901 45.6162 62.7845 45.6058C62.7779 45.5963 62.7751 45.5849 62.7751 45.5735V43.8481C62.7751 43.7731 62.777 43.6982 62.7807 43.6233C62.7845 43.5483 62.7891 43.4734 62.7948 43.3985C62.7348 43.4753 62.6702 43.5512 62.6 43.6252C62.5298 43.6992 62.4586 43.7741 62.3856 43.849L60.7272 45.5745C60.7141 45.5887 60.7019 45.6001 60.6897 45.6105C60.6775 45.621 60.6635 45.6286 60.6466 45.6343C60.6298 45.6399 60.6092 45.6447 60.5867 45.6475C60.5642 45.6504 60.5333 45.6523 60.4968 45.6523C60.4603 45.6523 60.4303 45.6504 60.405 45.6466C60.3807 45.6428 60.3601 45.638 60.3451 45.6314C60.3292 45.6257 60.3189 45.6181 60.3123 45.6077C60.3058 45.5982 60.303 45.5868 60.303 45.5754V42.8976C60.303 42.8853 60.3058 42.8748 60.3123 42.8654C60.3189 42.8559 60.3311 42.8473 60.3498 42.8397C60.3676 42.8331 60.3919 42.8284 60.4219 42.8246C60.4519 42.8217 60.4884 42.8198 60.5324 42.8198C60.6232 42.8198 60.685 42.8265 60.7169 42.8388C60.7496 42.8521 60.7656 42.871 60.7656 42.8967V44.6392C60.7656 44.7122 60.7637 44.7843 60.7599 44.8555C60.7562 44.9266 60.7506 44.9978 60.7422 45.0689C60.8021 44.9978 60.8611 44.9276 60.9191 44.8593C60.9772 44.79 61.0418 44.7208 61.112 44.6525L62.7938 42.8976C62.8069 42.8834 62.8201 42.872 62.8332 42.8625C62.8463 42.853 62.8622 42.8445 62.8819 42.8388C62.9015 42.8331 62.9231 42.8284 62.9483 42.8255C62.9727 42.8227 63.0045 42.8208 63.0439 42.8208C63.0804 42.8208 63.1103 42.8227 63.1356 42.8255C63.16 42.8284 63.1806 42.8331 63.1956 42.8407C63.2115 42.8473 63.2218 42.8559 63.2283 42.8663C63.2349 42.8758 63.2377 42.8872 63.2377 42.8986V45.5735H63.2396Z" fill="black"/>
<path d="M69.4162 45.5735C69.4162 45.5858 69.4124 45.5963 69.4049 45.6057C69.3975 45.6152 69.3844 45.6238 69.3675 45.6295C69.3506 45.6352 69.3272 45.6399 69.2973 45.6446C69.2673 45.6484 69.2308 45.6503 69.1868 45.6503C69.1399 45.6503 69.1016 45.6484 69.0716 45.6446C69.0416 45.6408 69.0182 45.6361 69.0014 45.6295C68.9845 45.6238 68.9723 45.6162 68.9639 45.6057C68.9564 45.5963 68.9527 45.5849 68.9527 45.5735V44.3337H66.9638V45.5735C66.9638 45.5858 66.96 45.5963 66.9525 45.6057C66.945 45.6152 66.9319 45.6238 66.9151 45.6295C66.8982 45.6352 66.8748 45.6399 66.8448 45.6446C66.8149 45.6484 66.7765 45.6503 66.7297 45.6503C66.6856 45.6503 66.6482 45.6484 66.6192 45.6446C66.5892 45.6408 66.5649 45.6361 66.5471 45.6295C66.5293 45.6238 66.5162 45.6162 66.5096 45.6057C66.5031 45.5963 66.5002 45.5849 66.5002 45.5735V42.8957C66.5002 42.8833 66.5031 42.8729 66.5096 42.8634C66.5162 42.8539 66.5283 42.8454 66.5471 42.8378C66.5649 42.8312 66.5892 42.8264 66.6192 42.8226C66.6491 42.8198 66.6856 42.8179 66.7297 42.8179C66.7765 42.8179 66.8149 42.8198 66.8448 42.8226C66.8748 42.8255 66.8982 42.8302 66.9151 42.8378C66.9319 42.8444 66.9441 42.853 66.9525 42.8634C66.96 42.8729 66.9638 42.8843 66.9638 42.8957V44.0321H68.9527V42.8957C68.9527 42.8833 68.9564 42.8729 68.9639 42.8634C68.9714 42.8539 68.9836 42.8454 69.0014 42.8378C69.0182 42.8312 69.0416 42.8264 69.0716 42.8226C69.1016 42.8198 69.1399 42.8179 69.1868 42.8179C69.2308 42.8179 69.2682 42.8198 69.2973 42.8226C69.3272 42.8255 69.3506 42.8302 69.3675 42.8378C69.3844 42.8444 69.3965 42.853 69.4049 42.8634C69.4124 42.8729 69.4162 42.8843 69.4162 42.8957V45.5735Z" fill="black"/>
<path d="M75.0635 42.9993C75.0635 43.023 75.0607 43.0448 75.056 43.0647C75.0504 43.0846 75.0429 43.1007 75.0326 43.115C75.0223 43.1292 75.0101 43.1396 74.9952 43.1472C74.9811 43.1548 74.9643 43.1596 74.9465 43.1596H73.7984V45.5737C73.7984 45.586 73.7947 45.5965 73.7863 45.6059C73.7778 45.6154 73.7666 45.624 73.7488 45.6297C73.731 45.6353 73.7085 45.6401 73.6786 45.6448C73.6486 45.6486 73.6102 45.6505 73.5634 45.6505C73.5194 45.6505 73.4819 45.6486 73.452 45.6448C73.422 45.641 73.3976 45.6363 73.3799 45.6297C73.3621 45.623 73.349 45.6164 73.3433 45.6059C73.3368 45.5965 73.334 45.5851 73.334 45.5737V43.1596H72.1859C72.1681 43.1596 72.1513 43.1558 72.1372 43.1472C72.1232 43.1396 72.111 43.1283 72.1007 43.115C72.0904 43.1007 72.0829 43.0846 72.0773 43.0647C72.0717 43.0448 72.0698 43.023 72.0698 42.9993C72.0698 42.9755 72.0726 42.9537 72.0773 42.9329C72.0829 42.912 72.0904 42.894 72.1007 42.8797C72.111 42.8646 72.1232 42.8532 72.1372 42.8456C72.1513 42.838 72.1681 42.8333 72.1859 42.8333H74.9455C74.9633 42.8333 74.9802 42.837 74.9942 42.8456C75.0083 42.8532 75.0204 42.8646 75.0317 42.8797C75.042 42.8949 75.0495 42.912 75.0551 42.9329C75.0607 42.9537 75.0635 42.9755 75.0635 42.9993Z" fill="black"/>
<path d="M80.5312 44.0976C80.5312 44.1687 80.5068 44.2171 80.4572 44.2436C80.4075 44.2702 80.3598 44.2835 80.313 44.2835H77.9111C77.9111 44.4495 77.9326 44.5994 77.9757 44.7331C78.0188 44.8668 78.089 44.9826 78.1883 45.0774C78.2875 45.1723 78.4149 45.2463 78.5741 45.2975C78.7323 45.3487 78.9271 45.3743 79.1574 45.3743C79.3213 45.3743 79.4674 45.3639 79.5976 45.3421C79.7277 45.3203 79.8392 45.2966 79.9347 45.27C80.0292 45.2434 80.107 45.2188 80.1678 45.1979C80.2287 45.1761 80.2718 45.1657 80.298 45.1657C80.3139 45.1657 80.328 45.1685 80.3411 45.1742C80.3542 45.1799 80.3645 45.1894 80.372 45.2026C80.3795 45.215 80.386 45.232 80.3898 45.251C80.3935 45.27 80.3954 45.2956 80.3954 45.325C80.3954 45.3392 80.3944 45.3525 80.3916 45.3649C80.3888 45.3781 80.386 45.3895 80.3823 45.4009C80.3785 45.4123 80.3729 45.4218 80.3645 45.4322C80.357 45.4417 80.3467 45.4521 80.3336 45.4616C80.3205 45.4711 80.2802 45.4891 80.2128 45.5138C80.1454 45.5384 80.0573 45.5631 79.9478 45.5878C79.8392 45.6124 79.7118 45.6342 79.5685 45.6542C79.4243 45.6741 79.2698 45.6836 79.1031 45.6836C78.8306 45.6836 78.5891 45.6523 78.3793 45.5906C78.1695 45.529 77.9926 45.4369 77.8502 45.3155C77.7079 45.1941 77.5993 45.0442 77.5253 44.864C77.4513 44.6847 77.4148 44.476 77.4148 44.2398C77.4148 44.0131 77.4532 43.8101 77.53 43.6299C77.6068 43.4497 77.7163 43.2979 77.8587 43.1727C78.001 43.0475 78.1733 42.9517 78.3746 42.8853C78.5759 42.8189 78.7997 42.7866 79.046 42.7866C79.311 42.7866 79.5367 42.8198 79.723 42.8872C79.9103 42.9545 80.0639 43.0446 80.1847 43.1575C80.3055 43.2713 80.3935 43.4022 80.4497 43.5531C80.5059 43.7029 80.533 43.8604 80.533 44.0264V44.0976H80.5312ZM80.0527 43.9942C80.0601 43.7096 79.9749 43.4886 79.7961 43.3283C79.6172 43.168 79.356 43.0883 79.0142 43.0883C78.8372 43.0883 78.6827 43.1129 78.5488 43.1632C78.4149 43.2135 78.3025 43.2799 78.2098 43.3634C78.118 43.4459 78.0469 43.5426 77.9972 43.6517C77.9476 43.7608 77.9195 43.8746 77.912 43.9932H80.0527V43.9942Z" fill="black"/>
<path d="M86.6343 44.1948C86.6343 44.4234 86.6015 44.6302 86.535 44.8133C86.4685 44.9964 86.3711 45.1529 86.2428 45.2809C86.1146 45.409 85.9554 45.5086 85.7662 45.5778C85.5771 45.648 85.3598 45.6831 85.1163 45.6831C85.0124 45.6831 84.915 45.6746 84.8242 45.6585C84.7333 45.6414 84.6444 45.6158 84.5573 45.5797C84.4702 45.5446 84.3831 45.5 84.296 45.4469C84.209 45.3938 84.1172 45.3293 84.0217 45.2544V46.6365C84.0217 46.6488 84.0179 46.6592 84.0095 46.6687C84.0011 46.6782 83.9898 46.6867 83.973 46.6943C83.9561 46.701 83.9327 46.7057 83.9027 46.7095C83.8728 46.7123 83.8344 46.7142 83.7876 46.7142C83.7436 46.7142 83.7061 46.7123 83.6771 46.7095C83.6471 46.7066 83.6228 46.7019 83.605 46.6943C83.5872 46.6877 83.5741 46.6791 83.5684 46.6687C83.5628 46.6583 83.5591 46.6478 83.5591 46.6365V42.8962C83.5591 42.882 83.5619 42.8706 83.5684 42.8611C83.575 42.8516 83.5862 42.8431 83.6031 42.8374C83.62 42.8317 83.6424 42.827 83.6696 42.8241C83.6967 42.8213 83.7295 42.8194 83.7688 42.8194C83.8082 42.8194 83.84 42.8213 83.8662 42.8241C83.8924 42.827 83.914 42.8317 83.9327 42.8374C83.9505 42.8431 83.9636 42.8516 83.972 42.8611C83.9795 42.8706 83.9833 42.8829 83.9833 42.8962V43.2842C84.0919 43.1997 84.1958 43.1258 84.2951 43.0641C84.3934 43.0015 84.4927 42.9503 84.591 42.9085C84.6893 42.8668 84.7905 42.8364 84.8944 42.8165C84.9983 42.7966 85.1088 42.7871 85.225 42.7871C85.4797 42.7871 85.696 42.8241 85.8748 42.8981C86.0537 42.9721 86.1998 43.0736 86.3131 43.2016C86.4264 43.3297 86.5078 43.4796 86.5584 43.6503C86.609 43.8192 86.6343 44.0013 86.6343 44.1948ZM86.1483 44.2508C86.1483 44.1009 86.1323 43.9567 86.1014 43.8173C86.0705 43.6778 86.0181 43.5545 85.9441 43.4464C85.8702 43.3382 85.7718 43.251 85.6482 43.1855C85.5246 43.1201 85.3701 43.0878 85.1828 43.0878C85.0892 43.0878 84.9984 43.0973 84.9085 43.1172C84.8186 43.1371 84.7277 43.1694 84.6341 43.2149C84.5404 43.2605 84.4431 43.3193 84.3419 43.3914C84.2408 43.4634 84.134 43.5526 84.0226 43.6589V44.8247C84.2174 45.0039 84.4037 45.1415 84.5807 45.2373C84.7577 45.3331 84.945 45.3805 85.1397 45.3805C85.3186 45.3805 85.4722 45.3473 85.6014 45.2819C85.7297 45.2155 85.8346 45.1292 85.9151 45.021C85.9956 44.9138 86.0546 44.7924 86.0921 44.6568C86.1295 44.5221 86.1483 44.3864 86.1483 44.2508Z" fill="black"/>
<path d="M92.5774 45.5735C92.5774 45.5858 92.5736 45.5963 92.5652 45.6057C92.5568 45.6152 92.5455 45.6238 92.5287 45.6295C92.5118 45.6352 92.4884 45.6399 92.4585 45.6446C92.4285 45.6484 92.392 45.6503 92.348 45.6503C92.3011 45.6503 92.2627 45.6484 92.2328 45.6446C92.2028 45.6408 92.1794 45.6361 92.1626 45.6295C92.1457 45.6238 92.1335 45.6162 92.1251 45.6057C92.1167 45.5953 92.1139 45.5849 92.1139 45.5735V44.3337H90.1249V45.5735C90.1249 45.5858 90.1212 45.5963 90.1128 45.6057C90.1043 45.6152 90.0931 45.6238 90.0762 45.6295C90.0594 45.6352 90.036 45.6399 90.006 45.6446C89.976 45.6484 89.9377 45.6503 89.8908 45.6503C89.8468 45.6503 89.8094 45.6484 89.7803 45.6446C89.7504 45.6408 89.726 45.6361 89.7082 45.6295C89.6904 45.6238 89.6773 45.6162 89.6717 45.6057C89.6661 45.5953 89.6624 45.5849 89.6624 45.5735V42.8957C89.6624 42.8833 89.6652 42.8729 89.6717 42.8634C89.6783 42.8539 89.6904 42.8454 89.7082 42.8378C89.726 42.8312 89.7504 42.8264 89.7803 42.8226C89.8103 42.8198 89.8468 42.8179 89.8908 42.8179C89.9377 42.8179 89.976 42.8198 90.006 42.8226C90.036 42.8255 90.0594 42.8302 90.0762 42.8378C90.0931 42.8444 90.1053 42.853 90.1128 42.8634C90.1202 42.8729 90.1249 42.8843 90.1249 42.8957V44.0321H92.1139V42.8957C92.1139 42.8833 92.1176 42.8729 92.1251 42.8634C92.1326 42.8539 92.1448 42.8454 92.1626 42.8378C92.1794 42.8312 92.2028 42.8264 92.2328 42.8226C92.2627 42.8198 92.3011 42.8179 92.348 42.8179C92.392 42.8179 92.4294 42.8198 92.4585 42.8226C92.4884 42.8255 92.5118 42.8302 92.5287 42.8378C92.5455 42.8444 92.5577 42.853 92.5652 42.8634C92.5727 42.8729 92.5774 42.8843 92.5774 42.8957V45.5735Z" fill="black"/>
<path d="M98.7116 44.0976C98.7116 44.1687 98.6872 44.2171 98.6376 44.2436C98.588 44.2702 98.5402 44.2835 98.4934 44.2835H96.0915C96.0915 44.4495 96.1131 44.5994 96.1562 44.7331C96.1992 44.8668 96.2695 44.9826 96.3687 45.0774C96.467 45.1732 96.5953 45.2463 96.7545 45.2975C96.9128 45.3487 97.1075 45.3743 97.3388 45.3743C97.5027 45.3743 97.6488 45.3639 97.7789 45.3421C97.9081 45.3203 98.0205 45.2966 98.116 45.27C98.2106 45.2434 98.2883 45.2188 98.3492 45.1979C98.4101 45.1761 98.4541 45.1657 98.4794 45.1657C98.4953 45.1657 98.5093 45.1685 98.5224 45.1742C98.5355 45.1799 98.5458 45.1894 98.5533 45.2026C98.5608 45.215 98.5664 45.232 98.5711 45.251C98.5758 45.27 98.5767 45.2956 98.5767 45.325C98.5767 45.3392 98.5758 45.3525 98.573 45.3649C98.5702 45.3781 98.5674 45.3895 98.5636 45.4009C98.5599 45.4113 98.5543 45.4218 98.5458 45.4322C98.5384 45.4417 98.5281 45.4521 98.5149 45.4616C98.5018 45.4711 98.4616 45.4891 98.3941 45.5138C98.3267 45.5384 98.2387 45.5631 98.1291 45.5878C98.0205 45.6124 97.8932 45.6342 97.7499 45.6542C97.6057 45.6741 97.4512 45.6836 97.2845 45.6836C97.012 45.6836 96.7704 45.6523 96.5607 45.5906C96.3509 45.528 96.174 45.4369 96.0316 45.3155C95.8893 45.1941 95.7807 45.0442 95.7067 44.864C95.6327 44.6847 95.5962 44.476 95.5962 44.2398C95.5962 44.0131 95.6346 43.8101 95.7114 43.6299C95.7882 43.4506 95.8977 43.2979 96.04 43.1727C96.1824 43.0475 96.3547 42.9517 96.556 42.8853C96.7573 42.8189 96.9811 42.7866 97.2274 42.7866C97.4924 42.7866 97.7181 42.8198 97.9044 42.8872C98.0917 42.9545 98.2453 43.0446 98.366 43.1575C98.4868 43.2713 98.5749 43.4022 98.6311 43.5531C98.6863 43.7029 98.7144 43.8604 98.7144 44.0264V44.0976H98.7116ZM98.2322 43.9942C98.2396 43.7096 98.1544 43.4886 97.9756 43.3283C97.7967 43.168 97.5355 43.0883 97.1927 43.0883C97.0167 43.0883 96.8613 43.1129 96.7274 43.1632C96.5935 43.2135 96.4811 43.2799 96.3884 43.3634C96.2966 43.4459 96.2254 43.5426 96.1758 43.6517C96.1262 43.7608 96.0981 43.8746 96.0897 43.9932H98.2322V43.9942Z" fill="black"/>
<path d="M104.087 42.9993C104.087 43.023 104.084 43.0448 104.079 43.0647C104.073 43.0846 104.066 43.1007 104.056 43.115C104.045 43.1292 104.033 43.1396 104.019 43.1472C104.005 43.1548 103.988 43.1596 103.97 43.1596H102.822V45.5737C102.822 45.586 102.819 45.5965 102.81 45.6059C102.802 45.6154 102.791 45.624 102.774 45.6297C102.757 45.6353 102.733 45.6401 102.704 45.6448C102.674 45.6486 102.635 45.6505 102.588 45.6505C102.544 45.6505 102.507 45.6486 102.478 45.6448C102.448 45.641 102.424 45.6363 102.406 45.6297C102.388 45.624 102.375 45.6164 102.369 45.6059C102.363 45.5965 102.36 45.5851 102.36 45.5737V43.1596H101.212C101.194 43.1596 101.177 43.1558 101.163 43.1472C101.149 43.1396 101.137 43.1283 101.127 43.115C101.116 43.1007 101.109 43.0846 101.103 43.0647C101.098 43.0448 101.096 43.023 101.096 42.9993C101.096 42.9755 101.099 42.9537 101.103 42.9329C101.109 42.912 101.116 42.894 101.127 42.8797C101.137 42.8646 101.149 42.8532 101.163 42.8456C101.177 42.838 101.194 42.8333 101.212 42.8333H103.971C103.989 42.8333 104.006 42.837 104.02 42.8456C104.034 42.8532 104.046 42.8646 104.057 42.8797C104.067 42.8949 104.074 42.912 104.08 42.9329C104.084 42.9537 104.087 42.9755 104.087 42.9993Z" fill="black"/>
<path d="M108.044 44.1355C108.044 44.1924 108.034 44.2313 108.013 44.2522C107.992 44.2731 107.965 44.2835 107.931 44.2835H106.3C106.266 44.2835 106.238 44.2731 106.217 44.2512C106.194 44.2294 106.184 44.1915 106.184 44.1355C106.184 44.0805 106.195 44.0416 106.217 44.0198C106.239 43.998 106.266 43.9875 106.3 43.9875H107.931C107.947 43.9875 107.962 43.9904 107.976 43.9951C107.99 43.9999 108.003 44.0084 108.013 44.0198C108.023 44.0321 108.031 44.0473 108.036 44.0653C108.041 44.0853 108.044 44.108 108.044 44.1355Z" fill="black"/>
<path d="M115.112 45.5386C115.115 45.5803 115.104 45.6088 115.079 45.6259C115.055 45.6429 114.996 45.6515 114.902 45.6515C114.855 45.6515 114.817 45.6505 114.785 45.6486C114.754 45.6467 114.729 45.6429 114.711 45.6382C114.693 45.6335 114.68 45.6259 114.672 45.6173C114.664 45.6088 114.659 45.5974 114.656 45.5832L114.38 43.9554C114.372 43.8985 114.364 43.8378 114.354 43.7733C114.345 43.7088 114.337 43.6443 114.329 43.5798C114.322 43.5153 114.313 43.4498 114.306 43.3844C114.298 43.3189 114.289 43.2573 114.279 43.1975L114.275 43.1321C114.249 43.189 114.221 43.2497 114.193 43.3142C114.165 43.3787 114.135 43.4432 114.103 43.5077C114.073 43.5731 114.042 43.6386 114.012 43.705C113.982 43.7714 113.954 43.834 113.928 43.8928L113.127 45.5348C113.116 45.5566 113.105 45.5746 113.094 45.5898C113.083 45.605 113.068 45.6164 113.051 45.6249C113.034 45.6335 113.013 45.6401 112.986 45.6439C112.96 45.6477 112.928 45.6496 112.889 45.6496C112.85 45.6496 112.819 45.6477 112.793 45.6448C112.768 45.642 112.748 45.6363 112.729 45.6287C112.711 45.6211 112.695 45.6097 112.682 45.5946C112.669 45.5794 112.658 45.5604 112.647 45.5367L111.877 43.8919C111.848 43.8349 111.819 43.7742 111.789 43.7097C111.759 43.6462 111.73 43.5807 111.702 43.5143C111.673 43.4479 111.645 43.3825 111.618 43.318C111.591 43.2535 111.567 43.1909 111.546 43.1321L111.539 43.1975C111.531 43.2563 111.523 43.3189 111.513 43.3844C111.504 43.4498 111.495 43.5143 111.484 43.5798C111.474 43.6452 111.465 43.7097 111.455 43.7733C111.446 43.8378 111.437 43.8985 111.43 43.9554L111.169 45.55C111.166 45.5718 111.161 45.5898 111.153 45.6031C111.144 45.6164 111.131 45.6268 111.112 45.6344C111.092 45.641 111.067 45.6458 111.036 45.6477C111.005 45.6496 110.965 45.6505 110.915 45.6505C110.865 45.6505 110.827 45.6486 110.798 45.6448C110.769 45.641 110.748 45.6344 110.735 45.6259C110.722 45.6173 110.715 45.6059 110.712 45.5917C110.709 45.5775 110.711 45.5604 110.716 45.5386L111.125 42.9936C111.138 42.9423 111.163 42.9025 111.201 42.875C111.238 42.8475 111.294 42.8333 111.37 42.8333H111.572C111.632 42.8333 111.683 42.837 111.724 42.8437C111.765 42.8503 111.801 42.8627 111.831 42.8807C111.861 42.8987 111.886 42.9215 111.907 42.9499C111.927 42.9784 111.948 43.0144 111.969 43.0581L112.554 44.3159C112.587 44.3908 112.621 44.4648 112.655 44.5378C112.689 44.6109 112.721 44.683 112.752 44.7541C112.783 44.8253 112.812 44.8945 112.839 44.9609C112.866 45.0283 112.892 45.0928 112.915 45.1563H112.923C112.949 45.0909 112.976 45.0235 113.004 44.9524C113.032 44.8812 113.062 44.8091 113.094 44.7361C113.125 44.6631 113.158 44.591 113.191 44.5189C113.225 44.4468 113.258 44.3775 113.289 44.3102L113.877 43.0581C113.895 43.0182 113.914 42.985 113.935 42.9556C113.955 42.9272 113.98 42.9034 114.009 42.8864C114.037 42.8683 114.072 42.8551 114.11 42.8465C114.149 42.838 114.196 42.8333 114.25 42.8333H114.453C114.528 42.8333 114.586 42.8446 114.626 42.8655C114.666 42.8864 114.691 42.9262 114.698 42.9841L115.112 45.5386Z" fill="black"/>
<path d="M120.608 45.5735C120.608 45.5935 120.599 45.6086 120.582 45.6191C120.565 45.6295 120.543 45.638 120.516 45.6428C120.489 45.6475 120.451 45.6504 120.404 45.6504C120.36 45.6504 120.323 45.6475 120.291 45.6428C120.26 45.638 120.236 45.6304 120.219 45.6191C120.202 45.6086 120.194 45.5925 120.194 45.5735V45.2747C120.035 45.4047 119.861 45.5052 119.67 45.5764C119.479 45.6475 119.282 45.6826 119.076 45.6826C118.892 45.6826 118.727 45.6646 118.58 45.6276C118.433 45.5916 118.31 45.5384 118.208 45.4711C118.107 45.4028 118.03 45.3212 117.975 45.2245C117.921 45.1277 117.894 45.0196 117.894 44.8991C117.894 44.7511 117.934 44.6221 118.015 44.513C118.095 44.4039 118.209 44.3119 118.357 44.2389C118.505 44.1659 118.683 44.1108 118.891 44.0748C119.099 44.0387 119.329 44.0198 119.584 44.0198H120.145V43.7893C120.145 43.6745 120.129 43.5739 120.098 43.4857C120.067 43.3975 120.017 43.3245 119.946 43.2657C119.876 43.2068 119.785 43.1623 119.674 43.1329C119.562 43.1034 119.426 43.0883 119.265 43.0883C119.109 43.0883 118.969 43.1025 118.844 43.131C118.72 43.1594 118.611 43.1917 118.517 43.2268C118.424 43.2619 118.347 43.2941 118.286 43.3226C118.225 43.351 118.181 43.3653 118.156 43.3653C118.14 43.3653 118.126 43.3634 118.113 43.3596C118.1 43.3558 118.089 43.3482 118.08 43.3377C118.071 43.3273 118.064 43.3131 118.06 43.296C118.057 43.2789 118.055 43.259 118.055 43.2353C118.055 43.1936 118.059 43.1604 118.067 43.1366C118.075 43.1129 118.095 43.0873 118.127 43.0627C118.16 43.038 118.217 43.0086 118.3 42.9754C118.384 42.9422 118.479 42.9109 118.586 42.8824C118.693 42.854 118.81 42.8303 118.934 42.8132C119.059 42.7952 119.183 42.7866 119.308 42.7866C119.549 42.7866 119.753 42.8084 119.919 42.853C120.085 42.8976 120.22 42.9612 120.322 43.0437C120.424 43.1262 120.498 43.2287 120.542 43.3501C120.586 43.4715 120.608 43.609 120.608 43.7627V45.5735H120.608ZM120.144 44.31H119.502C119.314 44.31 119.151 44.3233 119.011 44.3489C118.87 44.3745 118.754 44.4125 118.661 44.4618C118.567 44.5111 118.498 44.5699 118.453 44.6392C118.407 44.7084 118.384 44.7872 118.384 44.8763C118.384 45.03 118.449 45.1533 118.577 45.2444C118.706 45.3364 118.886 45.3819 119.12 45.3819C119.305 45.3819 119.476 45.3459 119.636 45.2738C119.797 45.2017 119.965 45.0907 120.144 44.9408V44.31Z" fill="black"/>
<path d="M126.928 44.1948C126.928 44.4234 126.895 44.6302 126.829 44.8133C126.762 44.9964 126.665 45.1529 126.537 45.2809C126.408 45.409 126.249 45.5086 126.06 45.5778C125.871 45.648 125.654 45.6831 125.41 45.6831C125.306 45.6831 125.209 45.6746 125.118 45.6585C125.027 45.6414 124.938 45.6158 124.851 45.5797C124.764 45.5446 124.677 45.5 124.59 45.4469C124.503 45.3938 124.411 45.3293 124.316 45.2544V46.6365C124.316 46.6488 124.312 46.6592 124.303 46.6687C124.295 46.6782 124.284 46.6867 124.267 46.6943C124.25 46.701 124.227 46.7057 124.197 46.7095C124.167 46.7123 124.128 46.7142 124.082 46.7142C124.037 46.7142 124 46.7123 123.971 46.7095C123.941 46.7066 123.917 46.7019 123.899 46.6943C123.881 46.6877 123.868 46.6791 123.862 46.6687C123.857 46.6583 123.853 46.6478 123.853 46.6365V42.8962C123.853 42.882 123.856 42.8706 123.862 42.8611C123.869 42.8516 123.88 42.8431 123.897 42.8374C123.914 42.8317 123.936 42.827 123.964 42.8241C123.991 42.8213 124.023 42.8194 124.063 42.8194C124.102 42.8194 124.134 42.8213 124.16 42.8241C124.186 42.827 124.208 42.8317 124.227 42.8374C124.244 42.8431 124.258 42.8516 124.266 42.8611C124.273 42.8706 124.277 42.8829 124.277 42.8962V43.2842C124.386 43.1997 124.49 43.1258 124.589 43.0641C124.687 43.0015 124.787 42.9503 124.885 42.9085C124.983 42.8668 125.084 42.8364 125.188 42.8165C125.292 42.7966 125.403 42.7871 125.519 42.7871C125.774 42.7871 125.99 42.8241 126.169 42.8981C126.348 42.9721 126.494 43.0736 126.607 43.2016C126.72 43.3297 126.802 43.4796 126.852 43.6503C126.903 43.8192 126.928 44.0013 126.928 44.1948ZM126.441 44.2508C126.441 44.1009 126.425 43.9567 126.394 43.8173C126.363 43.6778 126.311 43.5545 126.237 43.4464C126.163 43.3382 126.065 43.251 125.941 43.1855C125.818 43.1201 125.663 43.0878 125.476 43.0878C125.382 43.0878 125.291 43.0973 125.201 43.1172C125.112 43.1371 125.021 43.1694 124.927 43.2149C124.833 43.2605 124.736 43.3193 124.635 43.3914C124.534 43.4634 124.427 43.5526 124.316 43.6589V44.8247C124.51 45.0039 124.697 45.1415 124.874 45.2373C125.051 45.3331 125.238 45.3805 125.433 45.3805C125.612 45.3805 125.765 45.3473 125.894 45.2819C126.023 45.2155 126.128 45.1292 126.208 45.021C126.289 44.9138 126.348 44.7924 126.385 44.6568C126.422 44.5221 126.441 44.3864 126.441 44.2508Z" fill="black"/>
<path d="M132.596 45.5887C132.596 45.5982 132.592 45.6076 132.586 45.6152C132.581 45.6228 132.568 45.6295 132.55 45.6342C132.532 45.6389 132.509 45.6427 132.48 45.6465C132.45 45.6494 132.416 45.6513 132.375 45.6513C132.323 45.6513 132.281 45.6494 132.248 45.6456C132.215 45.6418 132.189 45.637 132.169 45.6304C132.148 45.6238 132.132 45.6171 132.122 45.6067C132.112 45.5972 132.104 45.5858 132.098 45.5744L131.698 44.8554C131.651 44.7625 131.597 44.6828 131.538 44.6154C131.478 44.5481 131.41 44.494 131.332 44.4513C131.255 44.4086 131.167 44.3783 131.067 44.3584C130.969 44.3384 130.856 44.329 130.728 44.329H130.421V45.5953C130.421 45.6029 130.416 45.6105 130.405 45.6171C130.395 45.6238 130.379 45.6295 130.359 45.6352C130.338 45.6408 130.313 45.6437 130.285 45.6475C130.256 45.6513 130.224 45.6522 130.187 45.6522C130.151 45.6522 130.119 45.6503 130.09 45.6475C130.061 45.6446 130.037 45.6408 130.018 45.6352C129.998 45.6304 129.983 45.6247 129.973 45.6171C129.962 45.6105 129.957 45.6029 129.957 45.5953V42.8729C129.957 42.8653 129.961 42.8577 129.973 42.8511C129.983 42.8444 129.998 42.8387 130.018 42.8349C130.037 42.8312 130.061 42.8274 130.09 42.8245C130.118 42.8217 130.151 42.8198 130.187 42.8198C130.224 42.8198 130.256 42.8217 130.285 42.8245C130.314 42.8274 130.338 42.8312 130.359 42.8349C130.379 42.8387 130.395 42.8444 130.405 42.8511C130.416 42.8577 130.421 42.8653 130.421 42.8729V44.0358H130.728C130.84 44.0358 130.941 44.0264 131.032 44.0074C131.123 43.9884 131.205 43.959 131.279 43.9182C131.353 43.8774 131.419 43.8262 131.478 43.7627C131.536 43.6991 131.587 43.6242 131.631 43.5378L131.978 42.9013C131.982 42.8871 131.991 42.8748 132.001 42.8644C132.011 42.8539 132.025 42.8444 132.044 42.8378C132.062 42.8312 132.087 42.8264 132.118 42.8226C132.149 42.8198 132.189 42.8179 132.239 42.8179C132.283 42.8179 132.319 42.8198 132.347 42.8226C132.376 42.8255 132.398 42.8293 132.414 42.834C132.43 42.8387 132.44 42.8454 132.445 42.852C132.45 42.8587 132.452 42.8672 132.452 42.8776C132.452 42.8938 132.45 42.9089 132.445 42.9232C132.439 42.9383 132.433 42.9526 132.425 42.9658L132.063 43.5957C132.011 43.6944 131.954 43.7769 131.893 43.8423C131.832 43.9087 131.771 43.9628 131.709 44.0055C131.647 44.0482 131.583 44.0804 131.52 44.1041C131.456 44.1279 131.394 44.1468 131.335 44.1601V44.1658C131.429 44.1876 131.516 44.2161 131.596 44.2512C131.677 44.2863 131.751 44.3299 131.818 44.3802C131.886 44.4305 131.949 44.4893 132.006 44.5566C132.063 44.624 132.113 44.6989 132.157 44.7814L132.57 45.5005C132.575 45.5099 132.58 45.5194 132.584 45.527C132.588 45.5346 132.591 45.5431 132.592 45.5507C132.593 45.5583 132.595 45.5659 132.596 45.5716C132.595 45.5801 132.596 45.5849 132.596 45.5887Z" fill="black"/>
<path d="M138.297 44.0976C138.297 44.1687 138.273 44.2171 138.223 44.2436C138.174 44.2702 138.126 44.2835 138.079 44.2835H135.677C135.677 44.4495 135.699 44.5994 135.742 44.7331C135.785 44.8668 135.855 44.9826 135.954 45.0774C136.053 45.1732 136.181 45.2463 136.34 45.2975C136.498 45.3487 136.693 45.3743 136.925 45.3743C137.088 45.3743 137.234 45.3639 137.365 45.3421C137.494 45.3203 137.606 45.2966 137.702 45.27C137.796 45.2434 137.874 45.2188 137.935 45.1979C137.996 45.1761 138.04 45.1657 138.065 45.1657C138.081 45.1657 138.095 45.1685 138.108 45.1742C138.121 45.1799 138.132 45.1894 138.139 45.2026C138.147 45.215 138.152 45.232 138.157 45.251C138.162 45.27 138.162 45.2956 138.162 45.325C138.162 45.3392 138.162 45.3525 138.159 45.3649C138.156 45.3781 138.153 45.3895 138.149 45.4009C138.146 45.4113 138.14 45.4218 138.132 45.4322C138.124 45.4417 138.114 45.4521 138.101 45.4616C138.088 45.4711 138.047 45.4891 137.98 45.5138C137.912 45.5384 137.824 45.5631 137.715 45.5878C137.606 45.6124 137.479 45.6342 137.336 45.6542C137.191 45.6741 137.037 45.6836 136.87 45.6836C136.598 45.6836 136.356 45.6523 136.146 45.5906C135.937 45.528 135.76 45.4369 135.617 45.3155C135.475 45.1941 135.366 45.0442 135.292 44.864C135.218 44.6847 135.182 44.476 135.182 44.2398C135.182 44.0131 135.22 43.8101 135.297 43.6299C135.374 43.4506 135.483 43.2979 135.626 43.1727C135.768 43.0475 135.94 42.9517 136.142 42.8853C136.343 42.8189 136.567 42.7866 136.813 42.7866C137.078 42.7866 137.304 42.8198 137.49 42.8872C137.677 42.9545 137.831 43.0446 137.952 43.1575C138.073 43.2713 138.161 43.4022 138.217 43.5531C138.272 43.7029 138.3 43.8604 138.3 44.0264V44.0976H138.297ZM137.819 43.9942C137.826 43.7096 137.741 43.4886 137.562 43.3283C137.383 43.168 137.122 43.0883 136.779 43.0883C136.603 43.0883 136.448 43.1129 136.314 43.1632C136.18 43.2135 136.068 43.2799 135.975 43.3634C135.883 43.4459 135.812 43.5426 135.762 43.6517C135.713 43.7608 135.685 43.8746 135.676 43.9932H137.819V43.9942Z" fill="black"/>
<path d="M143.673 42.9993C143.673 43.023 143.67 43.0448 143.665 43.0647C143.659 43.0846 143.652 43.1007 143.642 43.115C143.631 43.1292 143.619 43.1396 143.605 43.1472C143.591 43.1548 143.574 43.1596 143.556 43.1596H142.408V45.5737C142.408 45.586 142.405 45.5965 142.396 45.6059C142.388 45.6154 142.377 45.624 142.36 45.6297C142.343 45.6353 142.319 45.6401 142.289 45.6448C142.259 45.6486 142.221 45.6505 142.174 45.6505C142.13 45.6505 142.093 45.6486 142.064 45.6448C142.034 45.641 142.009 45.6363 141.992 45.6297C141.974 45.624 141.961 45.6164 141.955 45.6059C141.949 45.5965 141.946 45.5851 141.946 45.5737V43.1596H140.798C140.78 43.1596 140.763 43.1558 140.749 43.1472C140.735 43.1396 140.723 43.1283 140.713 43.115C140.702 43.1007 140.695 43.0846 140.689 43.0647C140.684 43.0448 140.682 43.023 140.682 42.9993C140.682 42.9755 140.684 42.9537 140.689 42.9329C140.695 42.912 140.702 42.894 140.713 42.8797C140.723 42.8646 140.735 42.8532 140.749 42.8456C140.763 42.838 140.78 42.8333 140.798 42.8333H143.557C143.575 42.8333 143.592 42.837 143.606 42.8456C143.62 42.8532 143.632 42.8646 143.643 42.8797C143.653 42.8949 143.66 42.912 143.666 42.9329C143.67 42.9537 143.673 42.9755 143.673 42.9993Z" fill="black"/>
<path d="M149.261 45.5735C149.261 45.5859 149.257 45.5963 149.249 45.6058C149.24 45.6153 149.229 45.6238 149.212 45.6295C149.195 45.6352 149.172 45.6399 149.142 45.6447C149.112 45.6485 149.074 45.6504 149.027 45.6504C148.983 45.6504 148.945 45.6485 148.916 45.6447C148.886 45.6409 148.862 45.6361 148.844 45.6295C148.826 45.6238 148.813 45.6162 148.808 45.6058C148.801 45.5963 148.798 45.5849 148.798 45.5735V43.8481C148.798 43.7731 148.8 43.6982 148.804 43.6233C148.808 43.5483 148.812 43.4734 148.818 43.3985C148.758 43.4753 148.693 43.5512 148.623 43.6252C148.553 43.6992 148.482 43.7741 148.409 43.849L146.75 45.5745C146.737 45.5887 146.725 45.6001 146.714 45.6105C146.703 45.621 146.688 45.6286 146.671 45.6343C146.654 45.6399 146.633 45.6447 146.611 45.6475C146.588 45.6504 146.557 45.6523 146.521 45.6523C146.484 45.6523 146.454 45.6504 146.429 45.6466C146.405 45.6428 146.384 45.638 146.369 45.6314C146.354 45.6248 146.343 45.6181 146.337 45.6077C146.33 45.5973 146.327 45.5868 146.327 45.5754V42.8976C146.327 42.8853 146.33 42.8748 146.337 42.8654C146.343 42.8559 146.355 42.8473 146.373 42.8397C146.391 42.8331 146.415 42.8284 146.445 42.8246C146.475 42.8217 146.512 42.8198 146.556 42.8198C146.646 42.8198 146.708 42.8265 146.74 42.8388C146.773 42.8521 146.789 42.871 146.789 42.8967V44.6392C146.789 44.7122 146.787 44.7843 146.783 44.8555C146.779 44.9266 146.774 44.9978 146.765 45.0689C146.825 44.9978 146.884 44.9276 146.942 44.8593C147 44.79 147.065 44.7208 147.135 44.6525L148.817 42.8976C148.83 42.8834 148.843 42.872 148.856 42.8625C148.869 42.853 148.885 42.8445 148.905 42.8388C148.925 42.8331 148.946 42.8284 148.972 42.8255C148.996 42.8227 149.028 42.8208 149.067 42.8208C149.104 42.8208 149.134 42.8227 149.159 42.8255C149.183 42.8284 149.204 42.8331 149.219 42.8407C149.235 42.8473 149.245 42.8559 149.251 42.8663C149.258 42.8758 149.261 42.8872 149.261 42.8986V45.5735Z" fill="black"/>
<path d="M155.437 45.5735C155.437 45.5858 155.434 45.5963 155.425 45.6057C155.417 45.6152 155.405 45.6238 155.389 45.6295C155.372 45.6352 155.348 45.6399 155.318 45.6446C155.288 45.6484 155.252 45.6503 155.208 45.6503C155.161 45.6503 155.123 45.6484 155.093 45.6446C155.063 45.6408 155.039 45.6361 155.022 45.6295C155.006 45.6238 154.993 45.6162 154.985 45.6057C154.977 45.5953 154.974 45.5849 154.974 45.5735V44.3337H152.985V45.5735C152.985 45.5858 152.981 45.5963 152.973 45.6057C152.964 45.6152 152.953 45.6238 152.936 45.6295C152.919 45.6352 152.896 45.6399 152.866 45.6446C152.836 45.6484 152.798 45.6503 152.751 45.6503C152.707 45.6503 152.669 45.6484 152.64 45.6446C152.61 45.6408 152.586 45.6361 152.568 45.6295C152.55 45.6238 152.537 45.6162 152.532 45.6057C152.526 45.5953 152.522 45.5849 152.522 45.5735V42.8957C152.522 42.8833 152.525 42.8729 152.532 42.8634C152.538 42.8539 152.55 42.8454 152.568 42.8378C152.586 42.8312 152.61 42.8264 152.64 42.8226C152.67 42.8198 152.707 42.8179 152.751 42.8179C152.798 42.8179 152.836 42.8198 152.866 42.8226C152.896 42.8255 152.919 42.8302 152.936 42.8378C152.953 42.8444 152.965 42.853 152.973 42.8634C152.98 42.8729 152.985 42.8843 152.985 42.8957V44.0321H154.974V42.8957C154.974 42.8833 154.977 42.8729 154.985 42.8634C154.992 42.8539 155.005 42.8454 155.022 42.8378C155.039 42.8312 155.063 42.8264 155.093 42.8226C155.123 42.8198 155.161 42.8179 155.208 42.8179C155.252 42.8179 155.289 42.8198 155.318 42.8226C155.348 42.8255 155.372 42.8302 155.389 42.8378C155.405 42.8444 155.418 42.853 155.425 42.8634C155.433 42.8729 155.437 42.8843 155.437 42.8957V45.5735Z" fill="black"/>
<path d="M160.695 42.9934C160.695 43.019 160.692 43.0417 160.688 43.0616C160.683 43.0816 160.675 43.0977 160.664 43.1119C160.654 43.1262 160.642 43.1356 160.63 43.1432C160.617 43.1499 160.601 43.1537 160.583 43.1537H159.162V45.5744C159.162 45.5868 159.159 45.5972 159.15 45.6067C159.142 45.6162 159.13 45.6247 159.114 45.6304C159.097 45.6361 159.073 45.6408 159.043 45.6456C159.013 45.6494 158.975 45.6513 158.928 45.6513C158.884 45.6513 158.847 45.6494 158.818 45.6456C158.788 45.6418 158.763 45.637 158.746 45.6304C158.728 45.6247 158.715 45.6171 158.709 45.6067C158.703 45.5962 158.7 45.5858 158.7 45.5744V42.9734C158.7 42.926 158.716 42.8909 158.747 42.8681C158.777 42.8454 158.815 42.834 158.86 42.834H160.585C160.603 42.834 160.618 42.8378 160.632 42.8463C160.645 42.8539 160.656 42.8653 160.666 42.8786C160.677 42.8928 160.684 42.9089 160.69 42.9288C160.695 42.9488 160.695 42.9696 160.695 42.9934Z" fill="black"/>
<path d="M165.615 45.5735C165.615 45.5935 165.607 45.6086 165.59 45.6191C165.573 45.6295 165.55 45.638 165.523 45.6428C165.496 45.6475 165.459 45.6504 165.412 45.6504C165.368 45.6504 165.33 45.6475 165.299 45.6428C165.268 45.638 165.243 45.6304 165.226 45.6191C165.21 45.6086 165.201 45.5925 165.201 45.5735V45.2747C165.043 45.4047 164.869 45.5052 164.678 45.5764C164.487 45.6475 164.289 45.6826 164.084 45.6826C163.9 45.6826 163.735 45.6646 163.588 45.6276C163.441 45.5916 163.317 45.5384 163.216 45.4711C163.115 45.4028 163.037 45.3212 162.983 45.2245C162.929 45.1277 162.901 45.0196 162.901 44.8991C162.901 44.7511 162.942 44.6221 163.022 44.513C163.103 44.4039 163.217 44.3119 163.365 44.2389C163.513 44.1659 163.691 44.1108 163.899 44.0748C164.107 44.0387 164.337 44.0198 164.592 44.0198H165.153V43.7893C165.153 43.6745 165.137 43.5739 165.106 43.4857C165.075 43.3975 165.024 43.3245 164.954 43.2657C164.884 43.2068 164.793 43.1623 164.681 43.1329C164.57 43.1034 164.433 43.0883 164.272 43.0883C164.117 43.0883 163.976 43.1025 163.852 43.131C163.727 43.1594 163.619 43.1917 163.525 43.2268C163.431 43.2619 163.355 43.2941 163.294 43.3226C163.233 43.351 163.189 43.3653 163.164 43.3653C163.148 43.3653 163.134 43.3634 163.12 43.3596C163.107 43.3558 163.096 43.3482 163.088 43.3377C163.078 43.3273 163.072 43.3131 163.068 43.296C163.064 43.2789 163.062 43.259 163.062 43.2353C163.062 43.1936 163.066 43.1604 163.075 43.1366C163.083 43.1129 163.103 43.0873 163.135 43.0627C163.167 43.038 163.224 43.0086 163.308 42.9754C163.391 42.9422 163.487 42.9109 163.593 42.8824C163.701 42.854 163.817 42.8303 163.942 42.8132C164.066 42.7952 164.191 42.7866 164.315 42.7866C164.557 42.7866 164.76 42.8084 164.927 42.853C165.093 42.8976 165.227 42.9612 165.33 43.0437C165.432 43.1262 165.506 43.2287 165.55 43.3501C165.594 43.4715 165.616 43.609 165.616 43.7627V45.5735H165.615ZM165.152 44.31H164.509C164.322 44.31 164.159 44.3233 164.019 44.3489C163.878 44.3745 163.762 44.4125 163.668 44.4618C163.575 44.5111 163.505 44.5699 163.46 44.6392C163.415 44.7084 163.392 44.7872 163.392 44.8763C163.392 45.03 163.457 45.1533 163.585 45.2444C163.713 45.3364 163.894 45.3819 164.128 45.3819C164.313 45.3819 164.484 45.3459 164.644 45.2738C164.804 45.2017 164.973 45.0907 165.152 44.9408V44.31Z" fill="black"/>
</svg>
