<svg width="158" height="158" viewBox="0 0 158 158" fill="none" xmlns="http://www.w3.org/2000/svg">
<path d="M92.6411 155.081C50.3029 162.546 9.78831 134.173 2.32293 91.8346C-1.24431 71.4744 3.41073 50.5306 15.2668 33.5985C27.1226 16.6664 45.2112 5.12897 65.5637 1.51752C107.914 -5.94995 148.421 22.419 155.887 64.7572C159.453 85.1187 154.796 106.063 142.94 122.996C131.083 139.929 112.994 151.468 92.6411 155.081ZM66.1064 4.59534C51.5281 7.16583 38.0397 14.0016 27.3468 24.2382C16.6536 34.4748 9.23617 47.6525 6.03255 62.1047C2.82891 76.5569 3.98284 91.6345 9.34849 105.431C14.714 119.227 24.0502 131.123 36.1765 139.613C48.3029 148.103 62.6743 152.806 77.474 153.129C92.2734 153.451 106.836 149.377 119.32 141.423C131.805 133.468 141.65 121.99 147.611 108.441C153.572 94.8909 155.381 79.8778 152.809 65.2999C149.341 45.7628 138.265 28.3991 122.011 17.0187C105.756 5.63804 85.651 1.17026 66.1064 4.59534Z" fill="#8C0000"/>
<path d="M86.9162 154.424C87.7802 155.035 87.943 154.981 88.4866 154.018C87.8587 153.631 87.4706 154.081 86.9162 154.424Z" fill="#8C0000"/>
<path d="M90.2498 153.763C90.4475 153.696 90.6383 153.611 90.82 153.508C90.6001 152.785 91.6531 152.408 91.2907 152.097L89.3209 152.506C90.6642 152.939 90.0056 153.529 90.2498 153.763Z" fill="#8C0000"/>
<path d="M89.2852 152.512L89.3215 152.505C89.3215 152.505 89.2841 152.506 89.2852 152.512Z" fill="#8C0000"/>
<path d="M89.539 153.359C89.5491 153.905 89.5529 154.31 89.5613 154.776C90.2615 154.597 90.2357 154.171 90.2498 153.763C90.0982 153.636 90.2873 153.731 89.539 153.359Z" fill="#8C0000"/>
<path d="M83.2253 155.537C83.354 155.569 83.5376 155.389 83.7 155.299C83.3823 154.439 83.489 154.66 83.2751 154.494C82.5781 154.482 82.5705 155.381 83.2253 155.537Z" fill="#8C0000"/>
<path d="M122.902 140.858C122.669 141.041 122.264 141.18 122.324 141.803C122.337 141.874 122.644 142.011 122.675 141.981C123.169 141.469 122.985 141.329 122.902 140.858Z" fill="#8C0000"/>
<path d="M66.4299 123.515L66.2383 123.444L66.1512 123.546L66.4299 123.515Z" fill="#8C0000"/>
<path d="M61.8679 157.119L61.8731 157.112L61.8666 157.113L61.8679 157.119Z" fill="#8C0000"/>
<path d="M129.909 127.747L129.611 128.053C129.689 128.047 129.763 128.013 129.818 127.956C129.873 127.9 129.905 127.826 129.909 127.747Z" fill="#8C0000"/>
<path d="M39.3175 13.7783L40.129 13.9858L40.2846 13.577C39.8674 13.2693 39.601 13.4331 39.3175 13.7783Z" fill="#8C0000"/>
<path d="M68.0222 152.817C68.0138 152.769 67.9512 152.694 67.8412 152.523L67.2533 153.131C67.7793 153.358 67.9547 153.167 68.0222 152.817Z" fill="#8C0000"/>
<path d="M59.7559 122.957L59.8584 123.013C59.8488 122.959 59.8216 122.945 59.7559 122.957Z" fill="#8C0000"/>
<path d="M12.6145 114.449C12.6287 114.809 12.4937 114.74 13.3169 114.595C13.2867 114.355 13.4246 114.404 12.6145 114.449Z" fill="#8C0000"/>
<path d="M15.1971 33.7694L15.8883 34.2012C16.1217 33.3974 15.5311 33.7107 15.1971 33.7694Z" fill="#8C0000"/>
<path d="M25.0355 24.8637C24.8471 24.6324 24.9903 24.6071 24.4506 25.0344C24.652 25.2695 24.5208 25.2927 25.0355 24.8637Z" fill="#8C0000"/>
<path d="M23.7096 26.5177C24.2734 26.7504 24.0995 26.7748 24.3538 26.404C23.7419 26.2474 23.9181 26.2349 23.7096 26.5177Z" fill="#8C0000"/>
<path d="M50.6136 143.274C50.7201 143.212 50.7958 143.186 50.8195 143.145L50.4508 142.981L50.6136 143.274Z" fill="#8C0000"/>
<path d="M49.6005 111.507L49.5064 111.394L49.4703 111.401L49.6005 111.507Z" fill="#8C0000"/>
<path d="M3.87201 96.7836C4.05371 97.1513 4.10285 96.9766 4.33234 96.8131C4.2357 96.7436 4.12866 96.6898 4.01517 96.6538C3.96922 96.6373 3.86289 96.7668 3.87201 96.7836Z" fill="#8C0000"/>
<path d="M148.553 45.3115C147.768 45.1545 147.922 45.2258 147.925 44.9977C148.703 45.0512 148.579 44.9747 148.553 45.3115Z" fill="#8C0000"/>
<path d="M155.061 90.906C155.272 90.7456 156.893 89.2975 155.033 87.4359L154.123 88.1683C154.602 88.6559 155.002 89.0713 155.542 89.6278L153.801 89.935C154.273 91.0448 154.003 90.8712 155.061 90.906Z" fill="#8C0000"/>
<path d="M150.211 49.9392C150.345 50.3522 150.459 50.7196 150.576 51.1048L151.543 50.9344C150.97 50.8262 151.105 49.6709 150.211 49.9392Z" fill="#8C0000"/>
<path d="M121.294 14.1266L120.367 13.7182C120.405 14.2465 120.435 14.6226 120.47 14.9977C120.901 15.0695 120.721 15.2364 121.294 14.1266Z" fill="#8C0000"/>
<path d="M148.166 107.159C148.116 107.574 147.928 107.447 149.198 107.641C148.845 106.966 148.572 106.811 148.166 107.159Z" fill="#8C0000"/>
<path d="M152.572 94.8258C152.093 95.1438 152.093 95.1438 152.046 95.921C152.683 95.6302 152.744 95.312 152.572 94.8258Z" fill="#8C0000"/>
<path d="M147.103 43.0581C147.415 42.9049 147.07 41.994 146.205 42.6015C146.435 42.9977 146.647 43.2924 147.103 43.0581Z" fill="#8C0000"/>
<path d="M123.032 14.423L122.375 15.0246C123.008 15.196 123.221 15.0416 123.032 14.423Z" fill="#8C0000"/>
<path d="M39.5416 11.2469C39.9617 11.5358 39.7121 11.5859 40.5444 10.9348C39.8035 10.8132 40.0441 10.6786 39.5416 11.2469Z" fill="#8C0000"/>
<path d="M155.588 87.0244C155.456 87.392 155.362 87.2794 156.078 87.5037C156.145 87.1475 156.273 87.248 155.588 87.0244Z" fill="#8C0000"/>
<path d="M140.055 33.1503L140.546 32.6885C139.995 32.4965 139.995 32.4965 140.055 33.1503Z" fill="#8C0000"/>
<path d="M103.202 5.17038C102.832 5.20473 102.877 5.03702 102.922 5.88997C103.308 5.87743 103.234 6.01946 103.202 5.17038Z" fill="#8C0000"/>
<path d="M119.171 97.1669L119.145 97.2643L119.216 97.2145L119.171 97.1669Z" fill="#8C0000"/>
<path d="M145.103 52.8144C144.929 52.9293 144.732 53.0022 144.525 53.0271C144.674 52.8225 144.753 52.5379 144.889 52.2987C143.801 49.5605 142.541 46.8946 141.114 44.3171C140.4 44.6644 140.193 44.0121 140.066 43.8868L139.989 43.9005C140.018 43.8952 140.042 43.891 140.066 43.8868L140.855 43.8644C140.57 43.3612 140.285 42.8641 139.977 42.371L139.473 42.1278C139.442 41.9549 139.45 41.7198 139.445 41.4809C134.173 32.9155 127.135 25.5727 118.801 19.9417C118.76 20.0104 118.745 20.0916 118.759 20.1706C118.773 20.2494 118.815 20.3207 118.877 20.3712C119.052 20.5926 118.922 21.046 118.937 21.48C118.173 21.3994 117.727 21.5888 117.617 22.3278C117.586 22.5361 117.297 22.7101 117.024 23.0472C116.282 21.7329 117.087 20.613 117.046 19.4026C117.571 19.5927 117.696 19.6016 117.884 19.3409C107.609 12.6369 95.7676 8.72094 83.5221 7.97731C71.2764 7.23385 59.0481 9.68852 48.0379 15.1002C47.9582 15.2065 47.7983 15.3454 47.5996 15.614C47.4011 15.8828 47.0419 16.3582 46.5793 16.0707C46.5144 16.0315 46.4531 15.9867 46.3957 15.9371C43.0485 17.6928 39.8492 19.7172 36.8293 21.9905C37.0783 22.164 37.3741 22.2576 37.6775 22.2591C37.981 22.2605 38.2776 22.1697 38.5281 21.9984C39.0511 21.6848 39.7569 21.9909 40.2809 21.4743C40.4496 21.3153 40.9753 21.5055 40.9825 21.9655C40.9732 22.3412 40.9428 22.7163 40.8914 23.0886C40.2728 23.0685 39.7669 23.373 39.2908 22.9402C39.2316 22.8831 38.9329 23.0035 38.8034 23.1062C37.8888 23.8826 39.0195 23.8431 35.2426 23.3158L35.2299 23.2442C25.7526 30.8059 18.3804 40.679 13.8224 51.9138C9.26431 63.1488 7.67401 75.3676 9.2042 87.3948C10.7342 99.4222 15.3336 110.854 22.5595 120.589C29.7854 130.325 39.3949 138.037 50.4638 142.985L50.328 142.738C50.3836 142.703 50.4419 142.672 50.5025 142.646C50.7975 142.994 50.881 143.084 50.8308 143.148C52.3774 143.826 53.9496 144.453 55.5475 145.028L55.9329 144.598C56.0835 144.648 56.2126 144.748 56.2997 144.881C56.3868 145.014 56.4266 145.173 56.4127 145.331C66.0507 148.639 76.2927 149.811 86.4288 148.766L87.4893 148.117C87.525 148.32 87.5973 148.486 87.6414 148.632C88.9425 148.476 90.2431 148.284 91.5554 148.052C105.378 145.633 118.161 139.134 128.26 129.391L128.102 129.295C128.241 129.217 128.389 129.155 128.543 129.113L129.587 128.056L129.455 128.079L129.293 127.16C129.523 127.274 129.777 127.321 129.823 127.442C129.865 127.542 129.884 127.65 129.879 127.758C139.322 118.035 145.774 105.805 148.468 92.5209C151.162 79.2372 149.984 65.4593 145.074 52.8256L145.103 52.8144ZM142.963 47.8965L142.033 48.448C142.177 47.869 142.177 47.869 142.963 47.8965ZM142.089 50.5106C142.152 51.1144 142.231 51.039 141.74 50.9411L142.089 50.5106L142.083 50.4748C142.083 50.4748 142.108 50.4826 142.09 50.5166L142.089 50.5106ZM142.994 54.0412C142.457 54.1358 142.457 54.1358 142.445 53.16L142.994 54.0412ZM140.734 47.9204C141.085 48.0983 141.108 48.3341 140.854 48.6003C140.394 49.0628 140.114 49.0753 139.532 48.6735L140.734 47.9204ZM139.883 49.7556C139.973 50.0536 140.068 50.3873 140.18 50.7735L138.192 50.9087C138.846 50.7134 138.815 49.5256 139.885 49.7676L139.883 49.7556ZM139.097 47.2865C138.323 47.3616 138.447 47.4011 138.453 47.1232C139.209 47.0823 139.078 47.0377 139.099 47.2984L139.097 47.2865ZM139.797 52.9998C140.131 52.7317 140.406 52.7569 140.713 53.3795C139.604 53.2982 139.771 53.4102 139.798 53.0056L139.797 52.9998ZM140.979 54.2981C140.919 54.5854 141.021 54.5366 140.645 54.4923C140.687 54.2818 140.589 54.3177 140.981 54.31L140.979 54.2981ZM140.015 43.8404C139.703 43.9568 139.418 43.9457 139.344 43.5222C140.108 43.1107 139.933 43.9716 140.017 43.8524L140.015 43.8404ZM140.402 46.9089L138.895 46.7009C138.956 46.4503 138.987 46.3157 139.039 46.1219L138.047 45.9341L139.372 45.2516C139.701 45.7901 140 46.2664 140.404 46.9207L140.402 46.9089ZM138.596 45.0008L137.998 44.645C138.261 44.3219 138.365 44.1806 138.402 44.1433C138.035 44.2941 137.666 44.4391 137.51 43.5503C138.203 43.9939 138.354 44.1208 138.402 44.1433C138.931 44.2838 138.755 44.5792 138.596 45.0008ZM136.62 37.2863C136.688 38.123 136.688 38.123 135.873 38.5251L136.62 37.2863ZM136.369 46.8451C137.211 46.5982 137.202 47.35 137.436 47.8069C139.512 47.7238 138.85 47.49 139.185 48.7286C139.309 49.1865 139.163 49.4028 138.733 49.3003C138.393 49.2632 138.071 49.1272 137.807 48.9091C137.544 48.6912 137.35 48.4006 137.249 48.0736C136.473 48.4502 136.53 47.7578 136.369 46.8451ZM137.616 53.6426L136.823 52.6322C139.35 52.7648 139.682 52.5895 137.617 53.6484L137.616 53.6426ZM139.33 55.4438C138.931 55.9015 139.171 55.9023 138.465 55.5594C138.695 55.1559 138.464 55.1721 139.331 55.4496L139.33 55.4438ZM128.18 49.5189C127.902 50.0663 128.092 50.0266 127.505 49.7673C127.824 49.3111 127.689 49.415 128.18 49.5189ZM127.842 50.8087C128.92 51.3074 128.45 52.5835 129.342 53.2811C127.973 53.7499 127.97 53.2093 127.549 51.1371C127.521 51.0127 127.734 50.8953 127.842 50.8087ZM129.735 57.1479C129.319 56.6061 129.351 56.7483 129.522 56.6013C129.985 57.0669 129.964 56.9477 129.732 57.1301L129.735 57.1479ZM131.551 67.4492C131.682 67.9797 131.197 68.1265 130.879 68.6254C130.763 67.5143 130.763 67.5143 131.548 67.4312L131.551 67.4492ZM130.126 64.9452C130.472 65.4438 130.451 65.2568 130.203 65.6635C129.734 65.2357 129.816 65.424 130.122 64.9272L130.126 64.9452ZM123.044 31.4082C122.36 31.7192 122.227 31.0353 121.901 30.7178C122.374 30.7513 122.938 30.6702 123.04 31.3902L123.044 31.4082ZM125.928 52.8251C126.172 52.3269 126.391 52.2393 126.713 52.7421L125.928 52.8251ZM129.298 69.1441C128.947 68.8308 128.479 68.5444 128.98 67.9701C129.162 68.0924 129.296 68.2746 129.357 68.485C129.419 68.6953 129.405 68.9208 129.318 69.1221L129.298 69.1441ZM132.223 81.8945C131.97 81.9768 131.711 82.0369 131.448 82.0742C131.138 81.3601 130.001 81.782 129.861 80.9209C129.727 80.1574 130.695 79.5439 130.69 81.0884C132.165 81.3266 131.71 81.1485 132.219 81.8767L132.223 81.8945ZM131.285 82.9638C129.828 83.1717 129.629 84.2092 129.656 84.186C129.58 84.1968 129.502 84.1871 129.43 84.158C129.359 84.1288 129.297 84.0813 129.25 84.0201C129.202 83.9592 129.173 83.8867 129.163 83.8101C129.153 83.7337 129.163 83.656 129.193 83.5849C129.322 83.0579 130.57 82.3213 131.07 82.4729C131.181 82.5088 131.223 82.7841 131.291 82.9627L131.285 82.9638ZM129.165 78.7129L129.107 78.6675C129.002 78.0711 129.204 77.6788 129.989 77.565C129.837 78.1329 129.841 78.6428 129.165 78.7129ZM128.867 74.5154C128.872 74.5453 128.867 74.5154 128.867 74.5154C128.873 74.8649 128.874 75.2154 128.875 75.6396C128.239 75.524 128.336 75.0581 128.149 74.6607C128.518 74.5954 128.805 74.5449 128.87 74.5334C128.859 74.4677 128.741 74.2179 128.396 73.3438C129.039 72.6278 129.762 74.1486 128.867 74.5154ZM128.24 70.4376C127.786 70.2348 127.767 69.9492 128.067 69.4534C128.53 69.8146 128.681 70.077 128.237 70.4198L128.24 70.4376ZM120.626 27.4307C120.374 28.0227 120.465 27.9451 120.22 27.8468C120.378 27.21 120.281 27.2887 120.626 27.4307ZM119.215 21.8308C119.549 23.3093 119.13 23.6908 117.549 23.4098L119.215 21.8308ZM118.869 31.5229C118.912 31.8082 118.857 32.0994 118.712 32.3486C118.567 32.598 118.341 32.7902 118.072 32.8937C117.673 32.9322 117.273 32.8283 116.944 32.6006C116.615 32.3727 116.376 32.0356 116.272 31.649C115.912 29.6767 118.416 29.1981 118.869 31.5229ZM126.224 80.2092C125.014 80.0782 125.899 79.1348 126.185 79.2875C126.668 79.5529 126.418 79.8798 126.212 80.2113L126.224 80.2092ZM126.414 81.2888L125.82 82.6237C125.537 81.4743 125.537 81.4743 126.408 81.2898L126.414 81.2888ZM123.447 71.6826C123.383 72.0506 123.566 72.0061 122.571 71.8371C122.957 71.4122 123.216 71.4159 123.441 71.6836L123.447 71.6826ZM123.251 78.5195C123.209 78.0039 123.186 77.7005 123.159 77.3731C123.927 77.6438 123.927 77.6438 123.245 78.5205L123.251 78.5195ZM119.669 56.395C119.448 56.7784 119.615 56.749 119.091 56.6015C119.232 56.2875 119.065 56.3171 119.69 56.3729L119.669 56.395ZM120.062 63.4722C121.446 63.6096 121.233 63.5181 121.361 63.8583L120.583 64.6105C119.932 64.4055 120.236 63.8968 120.053 63.4554L120.062 63.4722ZM121.324 67.555C121.299 67.9038 121.279 68.141 121.243 68.5655C120.854 68.0683 120.745 67.8294 121.309 67.5084L121.324 67.555ZM112.114 31.1951L111.932 32.3279C111.653 31.7192 111.653 31.7192 112.114 31.1951ZM114.699 53.8765C114.403 54.8144 114.075 55.0136 112.997 54.9021C113.217 54.0517 113.578 53.8342 114.699 53.8765ZM108.272 35.1504C108.157 35.5768 108.426 35.5354 106.866 35.1277C107.065 34.9627 107.316 34.8741 107.573 34.8782C107.832 34.8825 108.08 34.979 108.272 35.1504ZM106.707 37.6406L107.431 37.5621C107.262 38.1024 106.969 37.9449 106.712 37.8797C106.583 37.8469 106.673 37.7266 106.707 37.6406ZM105.169 30.2794C104.62 30.3084 104.62 30.3084 104.338 29.8909C104.845 29.8383 104.845 29.8383 105.169 30.2794ZM104.266 34.0549C103.729 34.1495 103.837 34.2043 103.768 33.9829C104.261 33.7481 104.151 33.7184 104.266 34.0549ZM100.293 18.9494C101.336 19.079 101.182 18.9708 101.078 19.426C100.13 19.0395 100.246 19.1361 100.289 18.9315L100.293 18.9494ZM101.367 20.9986L100.737 20.4947C101.235 20.493 101.235 20.493 101.364 20.9807L101.367 20.9986ZM103.414 35.3982C103.442 35.7625 103.557 35.9266 103.081 35.9859C103.238 35.2694 103.146 35.3778 103.421 35.4339L103.414 35.3982ZM101.489 28.4926C101.123 28.9631 101.262 28.8771 100.923 28.7648C101.208 28.2901 101.059 28.39 101.489 28.4926ZM102.013 33.591C101.732 33.3885 101.719 33.563 101.944 32.9882C102.286 33.2908 102.294 33.1234 102.013 33.591ZM100.447 29.4514C100.644 29.7303 100.723 29.5503 99.9338 30.2737C99.7592 29.5972 100.096 29.5194 100.447 29.4514ZM96.5305 22.7616C95.7649 23.407 95.9498 23.3746 95.6646 23.0127C96.4887 22.4553 96.2979 22.4889 96.5476 22.7893L96.5305 22.7616ZM99.3975 32.7423C98.6861 33.6611 98.6861 33.6611 98.0931 33.0892L99.3975 32.7423ZM92.9116 28.6767C93.0711 29.0238 93.2276 29.3528 93.3803 29.6949C92.3782 29.8716 91.7147 29.5273 91.5286 28.4716C91.7675 28.3617 91.4465 28.32 92.9116 28.6767ZM91.887 29.8414C91.7903 30.1658 91.9416 30.1516 91.2988 29.9943C91.3634 29.7676 91.2412 29.8076 91.8961 29.8582L91.887 29.8414ZM87.277 9.20833L86.5904 9.46474C86.5322 8.89062 86.7989 9.0773 87.2861 9.22516L87.277 9.20833ZM79.1882 11.5387C78.6799 11.4806 78.7895 11.0554 78.814 10.9158L78.7723 10.9231C78.8245 10.8709 78.8266 10.8828 78.814 10.9158C79.1293 10.9955 79.427 11.0784 79.1882 11.5387ZM81.3061 21.0733L80.4966 21.7142C80.716 21.0051 80.4358 20.3226 80.7119 19.6221C80.9024 20.0743 81.087 20.5277 81.3121 21.0722L81.3061 21.0733ZM78.7639 10.8754L78.7936 10.8703C78.7936 10.8703 78.7936 10.8703 78.7639 10.8754L77.8523 10.9377C78.5801 10.1821 78.6866 10.8215 78.7639 10.8754ZM79.9928 24.2632C79.0615 24.9809 79.2611 24.9273 79.0383 24.6405C79.1749 24.3336 79.3433 24.0332 79.9949 24.275L79.9928 24.2632ZM75.7825 16.3951C76.5028 16.6433 76.4221 16.5346 76.3245 16.8531C75.5326 16.7221 75.6393 16.8387 75.7825 16.3951ZM76.0621 21.469C76.1268 21.4587 76.1931 21.4638 76.2555 21.4841C76.2912 21.6869 76.3279 21.8957 76.3606 22.0807L75.9539 22.0415C75.9972 21.8679 76.053 21.6613 76.086 21.4648L76.0621 21.469ZM76.4919 23.6626L76.0277 24.2735L74.8204 23.3916C75.3636 23.1237 75.3636 23.1237 76.5158 23.6585L76.4919 23.6626ZM68.9634 29.24C68.369 29.6707 68.5073 29.6525 68.3196 29.3904C68.9449 28.9604 68.8066 28.9786 68.9873 29.2357L68.9634 29.24ZM65.0926 22.1116C66.0442 22.067 65.8979 21.9698 65.8309 22.4613C64.9502 22.3151 65.1134 22.4032 65.1165 22.1075L65.0926 22.1116ZM62.8887 25.9014C62.8735 26.6175 62.5644 26.6782 62.1553 26.5904C62.0197 26.2392 61.8805 26.3927 62.9125 25.8973L62.8887 25.9014ZM63.6149 28.6947C63.6213 28.7304 63.5037 28.9357 63.4777 28.9279C62.9764 28.7705 63.142 28.6981 63.2606 28.3943C63.401 28.4733 63.5286 28.5731 63.6388 28.6904L63.6149 28.6947ZM62.2276 29.4067C61.9121 29.7452 62.0734 29.7537 61.631 29.5118C61.8644 29.2309 61.7033 29.2594 62.2513 29.4026L62.2276 29.4067ZM57.369 25.6754C57.4799 25.7111 57.5606 25.82 57.7332 25.9617L57.3583 26.243C57.2783 26.1334 57.2173 26.0111 57.1778 25.8813C57.191 25.8174 57.3538 25.6596 57.3928 25.6711L57.369 25.6754ZM54.9698 17.9985C55.1992 18.1487 55.2154 18.066 54.8715 18.3479C54.768 18.1448 54.7292 18.2377 54.9936 17.9943L54.9698 17.9985ZM57.2376 29.7085C56.7569 29.6333 56.4433 29.4243 56.6465 28.9025C56.8045 28.5426 57.9917 28.6837 57.2615 29.7044L57.2376 29.7085ZM55.4936 25.7477C55.4621 25.5687 55.3768 25.6084 55.7912 25.2033C55.8413 25.2397 55.8877 25.2809 55.9298 25.3264C55.8669 25.4683 55.7847 25.6007 55.6856 25.72C55.65 25.7631 55.5305 25.7473 55.4946 25.7537C55.5042 25.8074 55.5326 25.9684 55.5556 26.4133C55.1238 26.1265 55.1168 26.1217 55.4946 25.7537C55.5003 25.7157 55.5035 25.7338 55.5174 25.7435L55.4936 25.7477ZM55.9348 32.1216L56.6183 31.6381C56.7531 31.9833 56.8572 32.2602 56.947 32.4905L55.2325 33.4754C54.9117 32.179 53.2654 31.8418 53.4696 30.2438C55.7924 29.4651 55.0275 29.6616 56.3348 29.6463C56.5347 30.7796 55.1695 30.4667 54.8739 31.3369L55.9348 32.1216ZM53.7324 22.5957L54.8495 22.4786C54.4782 23.0239 54.2131 22.9846 53.7324 22.5957ZM52.7909 20.7444L53.8014 20.6154C53.5256 21.2483 53.2592 21.4121 52.8979 21.2114C52.8266 21.1564 52.8491 20.9002 52.8148 20.7403L52.7909 20.7444ZM54.8308 25.7908C54.5863 26.3567 54.582 26.2282 53.2565 26.1052C54.1808 24.9644 54.9808 25.5246 54.8547 25.7867L54.8308 25.7908ZM52.6882 27.3126C52.6015 27.3206 52.5141 27.3088 52.4325 27.2777C52.3511 27.2466 52.2779 27.1973 52.2185 27.1336C52.1591 27.0697 52.1151 26.9931 52.09 26.9097C52.065 26.8262 52.0593 26.7381 52.0737 26.652C52.0696 25.8964 52.6291 26.0006 53.1845 25.9766C53.3704 26.8909 53.2227 27.2736 52.7121 27.3083L52.6882 27.3126ZM53.0384 32.7861C52.6903 33.2534 52.8229 33.1683 52.4565 32.9746C52.8289 32.54 52.6903 32.626 53.0932 32.7824L53.0384 32.7861ZM52.0193 29.4478C52.1934 29.7109 52.3045 30.0108 52.3439 30.3238C52.383 30.6371 52.3494 30.955 52.2453 31.2529C52.1534 30.6972 51.5626 30.2417 52.0739 29.4444L52.0193 29.4478ZM51.9509 28.119C52.2283 27.5289 52.4833 27.65 52.7669 27.8276C52.8271 28.2044 52.9917 28.1263 52.0057 28.1156L51.9509 28.119ZM52.066 21.272L50.7962 21.047C50.8877 20.9512 51.0012 20.8792 51.1269 20.8373C51.2525 20.7956 51.3866 20.7851 51.5171 20.8069C51.6478 20.8287 51.7711 20.8823 51.8762 20.9627C51.9815 21.0432 52.0655 21.1482 52.1208 21.2685L52.066 21.272ZM50.5229 16.0089C49.8169 16.3302 49.3731 15.8364 48.7736 15.6101C49.6242 14.7835 49.9687 14.8888 50.5506 15.9917L50.5229 16.0089ZM50.2267 22.2114C50.8269 23.0342 50.4511 22.7867 51.6552 23.3371C50.5621 24.1141 50.0403 24.1201 49.2732 23.4311C49.3848 22.9133 50.4334 23.0359 49.7894 21.9993L50.2267 22.2114ZM49.0968 20.3379C48.7214 20.5541 48.2986 20.6745 47.8656 20.6886C47.4327 20.7027 47.0028 20.6101 46.614 20.4189C47.5927 19.8651 49.5066 18.3715 49.1214 20.3029L49.0968 20.3379ZM46.5245 26.6773L46.7119 25.6479C45.4142 24.985 46.2566 24.5658 47.3171 23.813C48.1402 23.6679 47.8247 24.5292 48.2319 24.7464C48.6393 24.9637 48.9872 25.2282 49.3357 25.4251C48.8141 26.7225 47.7662 26.6737 46.5669 26.639L46.5245 26.6773ZM50.7474 34.6168C49.0525 35.4691 49.4712 35.4015 48.939 34.8249L49.9117 33.8539L50.7474 34.6168ZM45.1229 20.1591C45.1071 19.756 44.8581 19.8429 46.5187 19.913C45.978 20.4389 45.5828 20.1519 45.1952 20.1157L45.1229 20.1591ZM46.2951 18.993C47.4711 18.6873 47.488 18.7826 47.4835 18.3038C47.511 17.6223 48.3827 17.893 48.1974 18.5161C47.9029 19.4967 47.406 19.609 46.2951 18.993C46.1223 18.8513 45.8365 18.7296 45.814 18.5674C45.8166 18.4194 45.7869 18.2726 45.7268 18.1372C45.6667 18.0017 45.5779 17.8812 45.4664 17.7836C45.3549 17.6862 45.2236 17.6143 45.0814 17.5729C44.9392 17.5313 44.7898 17.5215 44.6433 17.5437C46.1132 17.0201 46.5702 17.4499 46.3672 18.9495L46.2951 18.993ZM46.004 27.0397L46.9418 27.5447L45.9196 28.3399C46.0254 27.7185 46.0486 27.4316 46.0752 26.9902L46.004 27.0397ZM45.9688 38.3501C45.9808 38.0342 45.9888 37.7315 45.9966 37.3919C46.5724 37.5178 46.5724 37.5178 45.9688 38.3501ZM42.5695 18.7582C42.0874 19.0584 42.2478 19.0608 41.9499 18.7321C42.3945 18.463 42.2274 18.4926 42.5695 18.7582ZM41.2538 23.2952C41.6207 23.0031 42.1405 23.754 41.4328 24.1002C41.1475 23.8431 40.8209 23.63 41.2816 23.2781L41.2538 23.2952ZM42.9758 28.8405C42.7902 29.2177 43.0758 29.1981 41.5068 28.706C42.3026 28.3013 41.8936 28.2135 42.9738 28.8287L42.9758 28.8405ZM43.6705 34.5239C43.4344 34.1966 43.387 34.3463 43.7298 33.9539C44.0824 34.2792 44.0843 34.1497 43.6683 34.512L43.6705 34.5239ZM42.4192 32.6597C42.7342 32.7024 43.117 32.5365 43.1581 33.0828L41.7264 33.3353C41.8848 32.9076 41.9507 32.6193 42.4192 32.6597ZM38.4558 27.9708L37.9597 30.8074C37.763 30.6261 37.5805 30.4301 37.4134 30.2211C36.1461 28.2305 36.5762 28.4376 38.4589 27.9887L38.4558 27.9708ZM35.5071 23.9089C35.6582 24.2082 35.7278 24.0791 35.2697 24.4121C35.0961 24.1598 35.0544 24.2716 35.5102 23.9267L35.5071 23.9089ZM35.9855 26.6229C36.0639 26.7874 36.1363 26.8853 36.1157 26.9074C35.915 27.1642 35.915 27.1642 35.3329 27.0024L35.9855 26.6229ZM37.5123 36.2925C37.6913 36.2609 37.9178 36.43 38.3124 36.5757L37.1118 37.3349C37.2813 36.8314 37.0055 36.4187 37.5123 36.2925ZM34.2259 24.387C34.8837 25.5011 34.8577 25.2841 34.5658 25.4772C34.1995 25.2833 33.7361 25.1315 34.2259 24.387ZM38.01 49.3355C39.0659 49.1494 38.8802 49.1083 38.9606 49.3893C37.9468 49.7096 38.1124 49.7419 38.016 49.3345L38.01 49.3355ZM38.5972 53.5371C39.1936 53.432 39.1136 53.3968 39.1596 53.6225C41.9988 47.3509 46.3024 41.8529 51.7083 37.5901L51.6128 37.6069C53.2599 36.763 51.84 34.4303 54.7985 34.0133C53.6223 34.6328 53.5127 35.5808 53.4035 36.3565C58.8573 32.4845 65.1487 29.9561 71.7653 28.9777C78.3818 27.9992 85.1359 28.598 91.477 30.7255C91.7798 30.3154 91.725 30.4234 91.9541 30.6414L91.7937 30.848C99.8469 33.6308 106.89 38.7478 112.025 45.547L109.442 46.0024C103.723 38.8471 95.7345 33.8562 86.7959 31.854C77.8574 29.8519 68.5033 30.9582 60.2784 34.9905C60.4436 35.195 60.3248 35.2529 59.824 35.4827L59.8999 35.1803C50.4425 39.9421 43.2381 48.2331 39.8425 58.2624L37.2537 58.7188C37.7855 57.0016 38.4212 55.3184 39.1571 53.6783C38.5862 53.8588 38.6851 53.8967 38.6252 53.5569L38.5972 53.5371ZM116.564 77.6381C116.432 77.7252 116.293 77.7992 116.148 77.8592C116.118 77.8645 115.99 77.6964 116.011 77.6433C116.031 77.5967 116.063 77.5555 116.102 77.5231C116.141 77.4906 116.187 77.4676 116.236 77.4561C116.308 77.4434 116.396 77.5571 116.574 77.661L116.564 77.6381ZM116.765 96.2195C116.326 95.9955 116.373 96.1226 116.629 95.6591C117.013 95.9174 116.994 95.7733 116.757 96.2454L116.765 96.2195ZM114.828 94.6175C114.422 95.0336 114.582 94.9992 114.232 94.7227C114.584 94.3839 114.429 94.448 114.82 94.6436L114.828 94.6175ZM104.767 42.2693C104.639 42.3538 104.5 42.4218 104.354 42.4713C104.312 42.4787 104.184 42.3105 104.197 42.2776C104.367 41.9525 104.582 42.1974 104.761 42.3013L104.767 42.2693ZM112.588 90.4245C112.022 90.2843 112.105 90.3683 112.161 90.0629C112.759 90.3142 112.653 90.2347 112.581 90.4564L112.588 90.4245ZM107.126 66.4237C107.138 66.1447 107.021 65.8271 107.48 65.7093C107.54 65.7739 107.58 65.8551 107.594 65.9425C107.608 66.0299 107.596 66.1194 107.558 66.1996C107.52 66.2798 107.46 66.3468 107.384 66.3921C107.308 66.4373 107.22 66.4588 107.131 66.4535L107.126 66.4237ZM107.126 66.4237C107.141 67.3436 107.236 67.2222 106.84 67.1383C107.153 66.4006 107.11 66.4387 107.145 66.4632L107.126 66.4237ZM109.269 97.6581C109.973 97.288 109.819 97.2904 109.97 97.5837C109.27 97.9408 109.413 97.9525 109.289 97.6976L109.269 97.6581ZM109.632 98.7749C109.263 98.4588 109.26 98.619 109.527 98.1785C109.751 98.3665 109.734 98.2034 109.652 98.8146L109.632 98.7749ZM107.929 90.8954L108.604 89.7677C108.792 90.454 108.547 90.6635 107.949 90.935L107.929 90.8954ZM101.607 66.7942C102.616 66.2041 102.411 66.228 102.597 66.5149C101.655 67.204 101.867 67.1851 101.626 66.8337L101.607 66.7942ZM108.597 106.19C108.172 105.945 108.199 106.168 108.373 105.375C108.869 105.816 108.861 105.596 108.616 106.23L108.597 106.19ZM109.879 109.974C110.717 109.599 110.492 110.555 111.107 110.766C110.03 111.147 110.03 111.147 109.904 110.013L109.879 109.974ZM101.537 60.3979C101.978 59.4099 102.071 59.3812 102.909 60.1559L101.537 60.3979ZM103.463 96.886C103.209 96.4573 103.102 96.6175 104.049 96.1676C104.209 96.5145 104.341 96.356 103.463 96.886ZM106.667 111.358L106.15 110.835C106.599 110.799 106.599 110.799 106.661 111.359L106.667 111.358ZM100.688 93.4637C100.252 93.9219 100.437 93.8893 100.008 93.6513C100.278 93.2286 100.127 93.3165 100.682 93.4648L100.688 93.4637ZM96.3859 74.191C96.1241 73.9973 96.1154 74.1218 96.3038 73.7257C96.6792 73.9363 96.6543 73.83 96.3859 74.191ZM92.3914 47.5266L88.9013 46.3584L86.0271 48.6489L86.0521 44.9543L82.988 42.9238L86.4837 41.8216L87.4642 38.2783L88.0201 39.0597C88.3124 38.9036 88.2511 38.9391 88.3483 39.1064L88.1422 39.2288L89.5974 41.2725L93.2594 41.1127L91.0745 44.0688L92.3914 47.5266ZM98.5733 93.0493C98.2676 92.8511 98.3186 92.9652 98.4414 92.5806C98.7985 92.8621 98.7705 92.7378 98.6053 93.056L98.5733 93.0493ZM97.3674 95.5929L96.4645 96.3671C96.4954 95.7405 96.4954 95.7405 97.3993 95.5996L97.3674 95.5929ZM96.6868 93.0929C96.8557 93.3892 96.9473 93.2806 96.3572 93.6308C96.2011 93.3385 96.1423 93.4596 96.7185 93.0996L96.6868 93.0929ZM98.4411 100.287L97.114 100.121C97.8106 99.4325 97.8106 99.4325 98.4687 100.27L98.4411 100.287ZM96.7245 109.003C96.2459 109.044 95.8224 109.119 95.6515 108.534C96.0158 107.984 96.5176 108.492 96.9519 108.305C97.3862 108.118 97.1549 107.119 98.0284 107.678C97.8676 108.371 97.5932 108.942 96.7563 109.01L96.7245 109.003ZM97.5707 109.303L96.9219 109.67C96.9231 109.153 96.9231 109.153 97.6026 109.31L97.5707 109.303ZM94.6669 102.392C94.6202 102.72 94.5883 102.922 94.5488 103.187C92.8905 102.606 93.1002 102.68 94.6989 102.398L94.6669 102.392ZM95.0848 107.238L94.1441 106.961C94.6113 106.54 94.6113 106.54 95.1157 107.239L95.0848 107.238ZM80.7691 115.377C81.5765 115.666 81.4846 115.528 81.2795 115.97C80.5864 115.527 80.6662 115.666 80.8 115.378L80.7691 115.377ZM81.0355 117.342L80.7851 117.49C80.6142 116.905 80.3082 117.193 79.8348 117.473C80.466 115.855 80.3824 115.975 81.0664 117.342L81.0355 117.342ZM80.9446 114.768C80.7133 113.77 80.7595 113.719 81.8344 113.222C81.3006 113.752 81.8639 114.576 80.9755 114.769L80.9446 114.768ZM77.7441 112.836L80.8287 108.669L79.0136 103.817L83.9282 105.46L87.9787 102.236L87.9387 107.416L92.2564 110.277L87.316 111.837L85.933 116.829L82.92 112.612L77.7441 112.836ZM80.6461 124.446C80.5381 124.705 80.6286 124.695 80.2918 124.564C80.3925 124.368 80.2912 124.386 80.6461 124.446ZM75.0459 117.66L76.1292 118.816L77.1095 118.446C77.047 118.894 76.9934 119.217 76.9455 119.539L78.4496 120.744C78.2042 121.131 77.9488 121.392 77.4442 121.111C75.392 119.936 75.7083 120.231 73.9715 120.322C74.1106 119.959 74.2303 119.661 74.4008 119.268C72.7626 119.151 72.6519 119.324 75.0579 117.658L75.0459 117.66ZM69.3036 110.277C68.6768 109.582 68.6768 109.582 69.8343 109.31L69.3036 110.277ZM70.8486 117.33C70.8853 117.538 70.8446 117.761 70.8398 117.977C70.4376 117.894 70.4402 118.047 70.6629 117.289C70.7306 117.29 70.7976 117.303 70.8606 117.328L70.8486 117.33ZM65.2968 108.167C65.6138 107.453 64.7974 106.834 65.0916 105.817C66.1673 107.767 65.5899 107.353 67.588 107.837L67.6058 108.147C66.7554 108.451 67.3781 108.495 65.3088 108.165L65.2968 108.167ZM67.9491 111.525C67.5345 111.684 67.1025 112.234 66.5318 111.369L67.9491 111.525ZM61.4036 111.27C62.0835 111.15 62.2175 111.422 62.3259 111.723L63.2057 111.131C63.3137 111.395 63.3841 111.585 63.4473 111.734C62.8749 111.977 61.8069 112.546 62.2354 111.837C62.2108 111.872 62.1122 111.767 61.4155 111.268L61.4036 111.27ZM58.8157 115.743C60.3435 114.502 60.2092 116.008 61.0586 114.511L62.5598 115.212C58.6036 116.389 59.5205 116.252 58.8157 115.743ZM61.257 120.589C60.7332 121.106 60.8108 120.465 60.6588 120.301L61.257 120.589ZM56.3667 98.505C56.6961 97.8626 57.0147 97.9602 57.3561 98.1522C57.3844 98.5223 57.5567 98.4182 56.3428 98.5092L56.3667 98.505ZM59.6165 109.82C58.9004 110.119 59.0568 110.134 58.9071 109.878C59.594 109.449 59.4456 109.445 59.6165 109.82ZM58.8641 112.53C58.2344 113.004 58.3845 112.984 58.1724 112.652C58.872 112.295 58.7305 112.295 58.8641 112.53ZM56.5748 92.5702L57.7856 92.1475C57.5263 92.9437 57.2197 92.7395 56.6045 92.565L56.5748 92.5702ZM60.7852 106.822L61.421 107.706C61.2472 107.977 61.4618 107.939 60.3122 107.766L60.7852 106.822ZM64.0821 118.16C65.6246 116.898 65.7728 116.552 66.4081 117.19C65.5961 117.782 64.0328 119.171 64.112 118.155L64.0821 118.16ZM64.363 113.928C65.0845 113.451 64.8944 113.453 65.129 113.842C64.3694 114.173 64.5296 114.176 64.3929 113.923L64.363 113.928ZM64.7232 112.831L64.9803 111.673L66.0004 112.053C65.7368 112.929 65.7368 112.929 64.7531 112.826L64.7232 112.831ZM56.3059 63.0717C56.7133 62.6618 56.5645 62.7248 56.8877 62.8832C56.6319 63.3158 56.7775 63.2347 56.3358 63.0666L56.3059 63.0717ZM60.3263 66.5144L59.2935 66.5857C59.751 65.7978 59.751 65.7977 60.3562 66.5091L60.3263 66.5144ZM57.9575 55.0682C58.4188 55.7311 58.4087 55.6037 58.1521 55.7534C57.7066 55.0756 57.7318 55.2186 57.9575 55.0682ZM70.3811 118.55L70.6398 120.017C69.4264 121.228 69.3538 118.688 70.3811 118.55ZM67.9986 106.817L68.1363 105.889C68.5485 106.203 68.7092 106.452 67.9747 106.821L67.9986 106.817ZM68.9062 104.535C68.7723 104.891 68.6761 105.148 68.4855 105.637C68.1937 104.993 68.0685 104.597 68.8824 104.54L68.9062 104.535ZM59.1092 51.624L56.235 53.9143L56.26 50.2198L53.1959 48.1892L56.6916 47.0869L57.6721 43.5438L59.8113 46.5369L63.4733 46.377L61.2884 49.3331L62.5814 52.7952L59.1092 51.624ZM56.139 40.0808C56.0653 39.6633 56.043 39.292 55.9813 38.7679C56.2922 39.1006 56.5113 39.3326 56.8501 39.6848L56.139 40.0808ZM57.2802 43.0655C56.8726 42.6023 56.9046 42.7134 57.0782 42.5475C57.4991 42.9468 57.4674 42.8357 57.2603 43.0567L57.2802 43.0655ZM60.5839 38.885C60.8776 38.9809 60.7663 38.8036 61.158 40.0139L59.8879 40.3793L59.9675 39.7502C60.6104 39.9074 60.6248 39.4313 60.5638 38.8763L60.5839 38.885ZM59.6531 36.1525C60.6835 36.2413 60.2971 37.0843 60.6461 37.4596C60.7459 37.5711 60.5542 37.9492 60.5008 38.2048C60.1455 38.1076 60.2997 38.4246 59.633 36.1436L59.6531 36.1525ZM62.2745 42.5784C62.0092 42.8527 61.8692 43.105 61.7505 43.0952C61.6369 43.0854 61.5263 43.0524 61.4256 42.9982C61.3251 42.9439 61.2369 42.8697 61.1661 42.7801C61.1065 42.686 61.3265 42.2597 61.3942 42.26C61.6913 42.332 61.9798 42.4357 62.2544 42.5697L62.2745 42.5784ZM64.4245 37.925C65.0697 36.0031 64.8082 36.2643 65.5748 36.2521L65.3926 37.9387L64.4154 37.908C64.5216 37.9848 64.6076 38.0859 64.6663 38.2029C64.7249 38.32 64.7543 38.4495 64.752 38.5805C64.7496 38.7114 64.7158 38.8399 64.6531 38.9548C64.5904 39.0696 64.5008 39.1679 64.3921 39.2407C64.017 39.2761 63.8027 38.6188 63.3276 38.924C63.3276 38.924 63.0121 38.6351 63.035 38.5204C63.2024 37.6914 64.4298 38.0593 64.4199 37.9688C64.4101 37.8783 64.4199 37.9688 64.4199 37.9688L64.4245 37.925ZM70.6243 42.6006L72.0133 37.6078L75.0203 41.8255L80.1823 41.5918L77.1035 45.7572L78.9126 50.6105L74.004 48.9668L69.9475 52.1914L69.9935 47.0109L66.5094 44.6915C66.5125 44.7197 66.5175 44.7477 66.5242 44.7752C66.1861 44.601 65.8498 44.4389 65.3236 44.1749C65.6009 44.11 65.8817 44.0606 66.1646 44.0267L70.6243 42.6006ZM68.2617 39.979C68.6893 39.51 68.5701 39.5311 68.7918 39.8117C68.2699 40.1313 68.3833 40.1114 68.2416 39.9702L68.2617 39.979ZM71.9056 35.4619C72.2077 35.1871 72.0664 35.1875 72.4511 35.5564C72.1207 35.7745 72.2546 35.837 71.8866 35.459L71.9056 35.4619ZM78.4261 37.1781C78.4759 36.7649 78.6339 36.3723 78.8841 36.0398C79.1343 35.7073 79.468 35.4468 79.8512 35.2847C79.5807 35.9474 79.5345 36.7675 78.4062 37.1694L78.4261 37.1781ZM87.8461 94.6826C87.3532 94.468 87.3357 94.1945 87.6926 93.8117C88.1139 94.0387 88.1195 94.3145 87.8262 94.6738L87.8461 94.6826ZM81.6038 85.2663C80.9484 85.0375 81.0379 85.1263 81.1303 84.8824C81.7477 85.1057 81.6871 85.0056 81.5838 85.2575L81.6038 85.2663ZM78.6708 106.651C78.3989 106.435 78.3916 106.602 78.5657 106.055C78.9011 106.352 78.9133 106.178 78.6509 106.642L78.6708 106.651ZM76.5672 103.719C77.1865 103.186 76.9376 103.31 77.493 103.286C77.4039 103.861 77.1109 103.839 76.5471 103.711L76.5672 103.719ZM77.768 109.658C77.5806 110.374 77.2924 110.449 76.9412 110.271C76.8732 110.234 76.8749 109.895 76.8739 109.89C77.1581 109.784 77.4487 109.695 77.7438 109.625L77.768 109.658ZM64.7517 43.9314C64.4091 43.6966 64.0647 43.5235 64.3378 43.1187C64.6109 42.7138 64.8176 42.3514 65.3912 42.7792C65.1855 43.1476 64.9957 43.5009 64.7517 43.9314ZM65.0838 44.7338C64.558 45.2387 64.2952 45.039 63.9478 44.5344L65.0838 44.7338ZM64.5073 45.6842C65.0588 46.6141 63.3283 46.7409 62.8976 45.7283L64.5073 45.6842ZM77.1239 118.179C76.5199 117.787 76.7301 117.375 76.9611 116.836C77.3989 117.436 77.3989 117.436 77.1239 118.179ZM70.1381 94.6745C69.8563 95.6221 69.8046 95.6434 69.1589 95.0501L70.1381 94.6745ZM63.048 61.4402C62.9824 60.7199 63.9333 60.2877 64.0094 61.3813C64.0441 61.5783 63.8679 61.8 63.6998 62.2417C63.3445 61.8307 63.0367 61.6205 63.0249 61.4136L63.048 61.4402ZM74.4221 116.878C75.2334 116.212 75.783 115.562 76.2833 116.55C74.9483 117.665 74.5654 116.853 74.4221 116.878C74.4142 116.879 74.4062 116.878 74.3997 116.873C74.393 116.868 74.3885 116.861 74.3871 116.853L74.4221 116.878ZM73.6687 117.767C73.617 117.435 73.6476 117.095 73.7579 116.778C73.8681 116.46 74.0546 116.175 74.3009 115.946C74.3905 117.117 74.5535 116.646 73.6457 117.741L73.6687 117.767ZM62.9012 50.248C63.0868 49.9754 62.9325 49.972 63.4618 50.1492C63.1394 50.4827 63.3029 50.5032 62.878 50.2214L62.9012 50.248ZM69.1765 96.3017C69.1573 96.3458 69.1278 96.3847 69.0902 96.4149C69.0527 96.4451 69.0084 96.4657 68.961 96.475C68.8954 96.4865 68.8226 96.3517 68.7551 96.2837L68.9969 96.0505C69.0544 96.1325 69.1668 96.211 69.1534 96.2749L69.1765 96.3017ZM71.727 111.08C71.6355 110.875 71.4347 110.609 71.5026 110.505C71.6738 110.185 71.9769 110.23 72.3336 110.579L71.7301 111.098L71.7355 111.128L71.6996 111.134C71.3935 111.84 71.3817 111.842 70.3157 111.692C70.48 110.636 71.2147 111.139 71.7039 111.053L71.727 111.08ZM73.5239 114.748C73.5489 115.168 73.5736 115.588 73.6038 116.038C72.9946 116.072 72.4951 116.098 72.3891 115.428C72.3065 114.994 72.6917 114.772 73.5008 114.722L73.5239 114.748ZM76.1993 108.994L77.2565 109.059C76.8253 109.578 76.4815 109.442 76.1643 108.969L76.1993 108.994ZM79.1163 117.828C78.8194 118.341 78.6727 118.521 78.1509 118.213L79.1163 117.828ZM90.7312 104.906C91.1107 104.058 91.1911 103.503 91.9232 103.958C90.8203 105.167 91.0443 105.042 90.7312 104.906ZM91.0832 99.5424C92.4891 99.6328 92.5551 99.658 93.5304 100.341C93.478 100.602 93.6339 100.44 92.9885 100.965C92.571 100.307 92.7328 100.562 92.4024 100.048C91.3855 100.141 91.7508 100.224 91.1071 99.5383L91.0832 99.5424ZM92.7246 99.1546C92.7225 99.2168 92.7127 99.2785 92.6954 99.3381C92.0316 99.2706 92.1365 99.3075 92.232 98.9771C92.4197 99.03 92.5885 99.0803 92.7484 99.1504L92.7246 99.1546ZM92.1997 96.3872C92.0872 95.7491 92.3739 95.4217 93.0083 95.1131C93.0464 96.0965 93.0464 96.0965 92.2236 96.3831L92.1997 96.3872ZM91.8137 97.6854C91.3867 97.3917 91.3579 97.6121 91.8408 96.758C92.3515 96.9694 92.3357 96.7754 91.8441 97.6493L91.8137 97.6854ZM85.3307 50.7337C85.3286 50.6859 85.3389 50.6385 85.3604 50.5959C85.382 50.5533 85.4141 50.5171 85.4538 50.4905C85.5034 50.4846 85.5536 50.4913 85.6 50.51C85.6463 50.5288 85.687 50.5588 85.7186 50.5975C85.7291 50.6572 85.6705 50.7781 85.6261 50.909C85.5263 50.7975 85.3987 50.7707 85.3611 50.6974L85.3307 50.7337ZM95.545 99.629C95.2644 99.1188 95.2824 99.2202 95.3803 99.043C96.0048 99.3757 96.0283 99.2302 95.545 99.629C95.7643 100.279 95.8949 100.182 94.9759 99.8893C94.9869 99.6721 94.883 99.7458 95.545 99.629ZM95.1475 97.3744C96.1939 97.1345 96.0044 97.1063 96.1162 97.3572C95.684 97.661 95.9215 97.6129 95.2117 97.6335L95.1475 97.3744ZM94.0837 97.1314C94.7992 96.8638 94.6487 96.8473 94.7507 97.1121C94.0463 97.2672 94.1718 97.2818 94.1143 97.0953L94.0837 97.1314ZM88.1343 61.5065C87.4937 60.9429 87.38 60.5078 87.5107 59.1563C87.7706 59.4826 87.9627 59.8575 88.0758 60.2588C88.1888 60.6603 88.2205 61.0802 88.169 61.4941L88.1343 61.5065ZM87.8508 53.6903L88.8448 53.3982C88.6636 53.9405 88.4577 54.063 87.8508 53.6903ZM89.4589 35.325C90.122 35.1097 89.9864 35.0721 90.0891 35.4107C89.3732 35.537 89.4923 35.5837 89.4291 35.3302L89.4589 35.325ZM99.0739 70.9494C99.1266 70.9496 99.1783 70.9637 99.224 70.9901C99.2697 71.0167 99.3077 71.0547 99.3341 71.1002C99.4586 71.6319 99.0277 71.7693 98.761 72.0008C98.6566 71.8962 98.6085 71.8679 98.6162 71.8419C98.6358 71.5002 98.5532 71.0658 99.0441 70.9546L99.0739 70.9494ZM98.8021 62.1533C98.9393 61.9324 99.0653 61.7049 99.1801 61.4715C99.9299 61.8867 99.1842 62.3319 99.2616 62.7363C97.6143 63.0207 98.1737 63.0882 98.7724 62.1584L98.8021 62.1533ZM99.2656 62.7234C100.053 62.0987 99.7894 62.2067 100.471 62.5847C99.964 63.1968 100.278 63.2337 99.2656 62.7234ZM107.847 109.89C108.575 110.53 108.507 110.388 108.345 110.589C107.491 110.106 107.581 110.268 107.817 109.895L107.847 109.89ZM105.944 96.9713C106.313 96.5864 106.151 96.6457 106.644 96.9279C106.075 97.3296 106.265 97.2899 105.938 96.9724L105.944 96.9713ZM55.6516 110.39L54.633 109.112C55.9806 108.524 55.9806 108.524 56.5417 108.776L55.6516 110.39ZM56.688 111.524C56.4187 111.811 56.5159 111.769 56.3097 111.646C56.4873 111.362 56.3859 111.38 56.6581 111.529L56.688 111.524ZM48.1807 105.447L48.8948 105.241L49.5426 106.578C48.9378 106.636 48.7219 106.458 48.1807 105.447ZM48.935 108.573C48.2192 108.7 48.3491 108.738 48.3039 108.482C48.9841 108.294 48.8495 108.262 48.9441 108.59L48.935 108.573ZM41.5997 67.3563C41.7958 66.8296 41.8645 67.0451 42.286 67.2721C42.1512 67.3729 42.0009 67.4514 41.841 67.5043C41.7666 67.5359 41.594 67.3941 41.6028 67.3741L41.5997 67.3563ZM43.0559 71.2201C43.0411 71.1366 43.1292 70.9734 43.1739 70.8426L43.9759 71.2055C43.5337 71.5234 43.2517 71.5977 43.0591 71.2381L43.0559 71.2201ZM41.5358 57.5763C40.797 57.1531 40.8878 56.8665 41.4685 56.3581C41.4951 56.8577 41.5137 57.1375 41.5389 57.5943L41.5358 57.5763ZM45.8111 79.486C45.434 80.0323 45.5545 79.9496 45.2473 79.7763C45.6136 79.2381 45.4985 79.2829 45.8144 79.5041L45.8111 79.486ZM51.9482 110.804L52.7372 109.976L51.7943 109.791C51.7818 109.72 51.766 109.63 51.8273 109.595C52.2099 109.287 52.5944 109.097 53.0477 109.54C53.5009 109.982 53.8852 109.232 54.2191 109.8C55.0943 111.276 54.3421 112.067 53.8588 112.988C53.8181 113.078 53.7561 113.156 53.6785 113.216C53.6007 113.277 53.5093 113.317 53.4124 113.334C53.3154 113.351 53.2158 113.345 53.122 113.315C53.0284 113.284 52.9434 113.232 52.8745 113.162C52.2326 112.66 51.3318 112.505 51.1226 111.527C51.0857 111.318 50.7517 111.168 50.5581 111.012C50.9267 110.276 51.4742 110.801 51.9812 110.816L51.9482 110.804ZM50.6277 102.198C50.9461 101.527 50.8085 101.619 51.2442 101.788C50.8614 102.477 51.0021 102.403 50.6607 102.211L50.6277 102.198ZM50.9609 99.0646C51.0867 98.8026 51.1146 98.5762 51.2324 98.5123C51.7953 98.2163 51.818 98.6243 51.9947 99.1036L50.9609 99.0646ZM51.9063 99.7528C51.8433 99.3949 52.9032 98.8143 53.4317 98.4629C53.9838 98.839 54.1181 99.3566 53.8335 100.428C52.8368 100.321 51.9861 100.311 51.9382 99.7595L51.9063 99.7528ZM46.1924 105.262C45.6117 105.039 45.6107 105.033 45.5981 104.438C45.9775 104.636 46.4122 104.695 46.1924 105.262C46.9202 105.134 46.823 104.967 46.9767 105.21C46.1079 105.898 46.2653 105.92 46.2243 105.269L46.1924 105.262ZM47.0407 108.225L46.0173 107.723C46.6255 107.474 46.8626 107.598 47.0727 108.231L47.0407 108.225ZM47.4596 106.484C47.282 106.977 47.3981 106.938 46.9837 106.716C47.3725 106.34 47.2518 106.422 47.4916 106.491L47.4596 106.484ZM40.515 68.5992C40.4004 67.6354 40.316 66.9122 40.2315 66.1891C40.4922 66.4231 40.7032 66.7071 40.8521 67.0241C41.001 67.3413 41.0847 67.685 41.0982 68.0352C41.1403 68.1691 40.842 68.3263 40.5469 68.6059L40.515 68.5992ZM38.4978 61.5192C37.6585 61.9563 37.8398 61.9735 37.6255 61.63C38.4052 61.099 38.2168 61.0768 38.4978 61.5192ZM30.0119 30.3453C32.0019 31.446 31.7075 31.2765 31.0999 31.0391L30.3748 32.0895C29.9511 31.9183 30.2048 31.0556 30.0119 30.3453ZM32.6784 34.3403L31.972 35.2521C31.8482 34.585 31.8482 34.585 32.6784 34.3403ZM35.4018 58.7501C35.6797 58.652 36.0393 58.8775 36.4094 58.9538C36.4683 59.2878 36.7252 59.0704 34.4887 60.129L34.0011 59.526C34.1837 58.7128 34.9144 58.916 35.4018 58.7501ZM37.3308 72.4449C36.8377 72.2304 36.3072 72.2563 36.4709 71.6494C36.5344 71.5593 36.6193 71.4863 36.7178 71.4368C36.8164 71.3872 36.9255 71.3626 37.0357 71.3652C37.7021 71.4815 37.4283 71.9172 37.3308 72.4449ZM30.2453 37.8075C30.5105 38.4742 30.5294 38.3724 30.273 38.4177C30.038 37.7826 30.0253 37.9202 30.2453 37.8075ZM31.271 41.8458C30.9225 42.1716 30.6956 42.0703 30.4205 41.6267C30.849 41.3359 31.0798 41.4244 31.271 41.8458ZM42.5048 106.183C42.4306 106.298 42.3416 106.403 42.2398 106.494C42.2041 106.501 42.0167 106.38 42.0224 106.342C42.0648 106.224 42.1239 106.112 42.1974 106.01L42.5048 106.183ZM35.9711 72.9306C36.2608 73.6668 36.1063 73.8724 35.4671 73.9789L35.9711 72.9306ZM24.9159 34.4052C25.4001 34.8488 25.3867 34.7035 25.0305 35.0554C24.5948 34.5725 24.6453 34.7542 24.9159 34.4052ZM32.4135 74.136C31.8429 75.2946 32.0098 75.1605 31.6965 74.9882C31.6984 74.6497 31.643 74.2659 32.4135 74.136ZM27.5001 93.6377L27.1691 94.4464C26.9407 94.093 26.8636 93.8299 27.4822 93.6408L27.5001 93.6377ZM20.8854 75.5168C21.6797 75.6966 21.1979 76.1383 21.014 76.4906C20.8134 76.2245 20.6328 76.0719 20.6022 75.8989C20.5716 75.726 20.7966 75.5017 20.8675 75.5201L20.8854 75.5168ZM26.7209 111.297C27.0938 111.773 27.0474 111.615 26.826 111.894C26.3994 111.532 26.4566 111.682 26.7029 111.3L26.7209 111.297ZM15.1727 67.674C14.7663 68.1945 14.952 68.1312 14.4891 67.9483C14.7488 67.5026 14.5966 67.6156 15.1727 67.674ZM20.2355 100.608C20.2654 100.602 20.4746 100.707 20.4717 100.726C20.4239 100.867 20.3636 101.003 20.2913 101.133L19.9738 100.937C20.0442 100.808 20.1308 100.69 20.2314 100.584L20.2355 100.608ZM15.5184 95.1662C15.7208 95.1981 15.9144 95.25 16.1131 95.295L15.8151 95.6981C15.6755 95.5689 15.5369 95.4458 15.4021 95.3096C15.3952 95.3048 15.4864 95.1595 15.5184 95.1662ZM16.4724 99.217C16.1026 99.7004 16.2783 99.651 15.8076 99.4572C16.0999 98.8829 15.9384 98.9789 16.4724 99.217ZM13.5444 87.1806C13.4434 87.549 13.177 87.6083 12.7616 87.4846C12.9225 86.583 13.6248 86.9388 13.5444 87.1806ZM17.0321 109.401C16.9843 109.41 16.8134 109.243 16.831 109.203C16.8952 109.09 16.9739 108.985 17.065 108.891L17.3563 109.147C17.261 109.247 17.1518 109.333 17.0321 109.401ZM17.2062 105.681C16.4169 104.971 16.4169 104.971 16.9065 103.981L17.8516 104.946L17.2062 105.681ZM18.5806 105.801C18.9205 105.741 19.2848 105.505 19.6576 105.98C18.7893 106.601 18.7893 106.601 18.5837 105.819L18.5806 105.801ZM17.5099 102.066L19.0689 101.49C18.6775 102.654 18.2416 102.798 17.5131 102.084L17.5099 102.066ZM11.696 60.6176C11.2745 60.286 11.2936 59.9751 11.7274 59.5051C11.8413 59.977 12.2356 60.2949 11.6991 60.6356L11.696 60.6176ZM20.5263 105.046C20.8758 104.726 21.1887 104.443 21.5845 104.072C21.7101 104.61 21.8087 105.029 21.9215 105.495C21.1748 105.934 20.8857 105.481 20.5294 105.064L20.5263 105.046ZM23.5444 101.236L23.7837 100.185L24.5105 100.819C23.6614 101.48 23.8311 101.431 23.5595 101.252L23.5444 101.236ZM25.3719 108.355C26.0458 108.237 25.961 108.208 25.9915 108.381C25.3087 108.52 25.4184 108.55 25.387 108.371L25.3719 108.355ZM30.0356 127.829L29.1014 127.379C29.5603 126.842 29.9505 126.614 30.527 127.127L30.0356 127.829ZM31.5506 130.422C31.1343 129.978 31.1054 130.199 31.5787 129.605C31.9138 129.97 31.9555 129.754 31.5744 130.417L31.5506 130.422ZM27.2921 98.8405C28.1331 98.3785 27.8829 98.4596 28.3873 99.2625L27.3376 99.1339C27.333 98.9687 27.2931 98.8465 27.3158 98.8364L27.2921 98.8405ZM29.4141 108.922C29.9517 108.483 30.1794 108.553 30.4853 109.207L29.4141 108.922ZM21.1947 53.9364C21.9876 54.2825 22.136 54.8099 21.6355 55.7038C20.8419 54.8659 20.8366 54.836 21.2175 53.9263L21.1947 53.9364ZM31.2954 111.708C31.2177 111.722 31.0238 111.633 30.997 111.552C30.9704 111.47 31.0736 111.323 31.1483 111.119C31.327 111.26 31.4989 111.328 31.5087 111.419C31.5006 111.477 31.4791 111.532 31.4461 111.581C31.413 111.629 31.3692 111.669 31.3182 111.698L31.2954 111.708ZM30.7882 107.333C31.0747 107.64 31.3379 107.967 31.5761 108.313C30.6165 108.242 30.6165 108.242 30.811 107.323L30.7882 107.333ZM22.2049 48.5737C22.3256 48.6147 22.4395 48.6735 22.543 48.7477L22.2705 49.1894C22.1626 49.0705 22.0761 48.9338 22.0147 48.7856C22.0209 48.7167 22.1659 48.562 22.2277 48.5636L22.2049 48.5737ZM30.5778 96.3732L31.8484 96.3582L31.017 97.2243C30.8883 96.8781 30.777 96.7008 30.6007 96.3629L30.5778 96.3732ZM34.285 112.27C34.1661 111.596 34.0255 111.042 34.7952 110.839C35.0786 111.748 35.0786 111.748 34.3078 112.26L34.285 112.27ZM25.3944 55.2562C26.2213 55.7254 26.3388 56.043 25.9962 56.9953C25.0827 56.2092 25.0703 56.1745 25.3944 55.2562ZM30.922 84.756L31.7472 84.3092C31.6891 85.0267 31.6891 85.0267 30.9338 84.754L30.922 84.756ZM36.0767 107.538L36.5051 108.397C36.0819 108.195 36.0819 108.195 36.0888 107.536L36.0767 107.538ZM37.6717 115.572C37.3577 115.012 37.3378 115.108 37.65 114.961C37.8769 115.585 37.9095 115.456 37.6837 115.57L37.6717 115.572ZM24.3437 38.4852C24.9659 38.0373 24.8216 38.0566 25.0154 38.3176C24.4072 38.7755 24.5513 38.7562 24.3437 38.4852ZM38.1445 113.859C38.6664 113.539 38.5221 113.558 38.7536 113.825C38.201 114.144 38.3315 114.152 38.1445 113.859ZM34.3751 88.9935C34.3751 88.9935 34.1412 88.8872 34.1447 88.8374C34.179 88.6863 34.2364 88.5413 34.3149 88.4077C34.5938 88.6291 34.7899 88.6253 34.4169 88.9863L34.3751 88.9935ZM39.5105 111.281C39.3549 110.398 39.3193 110.546 39.5569 110.498C39.7104 111.368 39.749 111.239 39.5105 111.281ZM32.5245 75.4634C33.2317 74.4161 33.0306 74.5315 33.3983 74.768C33.2284 75.0256 33.2655 75.4804 32.5245 75.4634ZM39.9144 109.979L41.3563 109.018C41.2021 110.515 40.9754 110.66 39.9144 109.979ZM44.4215 125.391C43.7294 124.953 43.7856 125.097 43.947 124.792C44.7212 125.172 44.6354 125.033 44.4258 125.414L44.4215 125.391ZM46.5362 133.093C45.8975 132.714 45.9682 132.836 46.0852 132.558C46.8089 132.861 46.7304 132.764 46.5405 133.117L46.5362 133.093ZM42.777 108.774C42.5685 108.952 41.7455 108.574 42.5941 107.736C42.9255 108.151 43.1883 108.455 42.7813 108.797L42.777 108.774ZM47.5048 134.54C47.8641 134.101 48.0561 134.178 48.1728 134.84C47.856 134.718 47.703 134.652 47.5091 134.564L47.5048 134.54ZM45.6699 118.657C45.1839 118.657 45.4085 118.814 44.8251 118.191L45.6181 117.805C45.6436 118.195 45.6576 118.413 45.674 118.681L45.6699 118.657ZM44.8636 113.701L44.8971 112.6C45.4345 113.102 45.339 113.328 44.8677 113.725L44.8636 113.701ZM43.9055 108.476C44.6573 108.171 44.5107 108.142 44.6208 108.522C43.8612 108.749 44.0068 108.772 43.9096 108.5L43.9055 108.476ZM42.1917 96.9083L40.4618 95.8172C41.1705 94.9542 41.6237 96.0245 42.5271 96.5786C43.025 96.8906 43.5747 97.1135 44.1009 97.3773C43.7633 98.1134 43.376 98.3232 43.0023 97.8786C42.219 96.959 41.2473 98.4588 42.1958 96.9322L42.1917 96.9083ZM46.8917 115.89C47.3226 115.648 47.5628 115.685 47.6473 116.199C47.2449 116.393 47.0418 116.287 46.8958 115.913L46.8917 115.89ZM55.7337 144.165C55.3888 143.919 55.3831 144.061 55.6411 143.641C55.9574 143.935 55.9045 143.809 55.7378 144.189L55.7337 144.165ZM52.8287 125.353C52.0679 125.365 52.189 125.423 52.1859 125.196C52.9542 125.159 52.8244 125.121 52.8328 125.377L52.8287 125.353ZM51.6459 122.413C52.6171 122.445 52.4818 122.34 52.4378 122.753C51.4869 122.663 51.6322 122.754 51.6502 122.437L51.6459 122.413ZM54.0063 131.37C54.6864 131.25 54.5566 131.211 54.6428 131.491C53.9481 131.737 54.079 131.781 54.0106 131.394L54.0063 131.37ZM51.6762 119.48L52.7481 119.211C52.4869 120.241 52.0516 119.691 51.6772 119.486L51.6762 119.48ZM56.8574 141.679C56.5123 141.082 56.4976 141.208 56.8477 141.066C57.0658 141.71 57.0816 141.591 56.8586 141.685L56.8574 141.679ZM55.6224 129.025C55.2435 128.655 55.3168 128.826 55.4951 128.303C55.8676 128.951 55.842 128.771 55.6224 129.025ZM57.0162 129.953C55.9616 129.623 56.1032 129.764 56.2071 129.377C57.2506 129.679 57.1241 129.553 57.0162 129.953ZM57.7878 124.528C57.8825 124.751 57.4201 125.024 56.9317 124.87C57.3037 124.189 57.3137 123.339 58.3918 123.001C58.1935 123.725 57.4859 123.862 57.77 124.531L57.7878 124.528ZM59.2948 136.563C59.4302 136.659 59.5291 136.798 59.575 136.958C59.621 137.117 59.6115 137.288 59.548 137.441C59.5116 137.478 59.5063 137.448 59.548 137.441C59.051 137.307 58.9548 137.041 59.3046 136.549L59.2948 136.563ZM59.5533 137.471C60.0229 137.308 60.2648 137.53 60.4058 138.015C59.5712 138.304 59.6617 137.353 59.5691 137.456L59.5533 137.471ZM62.453 139.37L61.699 138.931C61.8282 138.792 61.8878 138.677 61.9692 138.65C62.4854 138.473 62.5636 138.742 62.4627 139.356L62.453 139.37ZM59.3252 134.817C59.0412 134.043 59.723 133.585 60.1077 132.976L61.9927 133.203L59.3252 134.817ZM63.5684 133.454C63.3798 132.663 63.9394 132.663 64.6184 132.432C64.4242 133.18 64.1631 133.478 63.5856 133.482L63.5684 133.454ZM66.7614 135.308C66.9065 136.131 66.0935 136.717 65.2259 135.843C65.0107 135.468 64.8559 135.062 64.7675 134.639C67.6354 135.8 64.5133 134.069 65.4495 133.448C65.9995 133.081 66.8991 133.752 67.1794 133.912C66.5419 134.307 66.5416 134.27 66.7755 135.318L66.7614 135.308ZM65.1072 131.473C65.2578 131.176 65.094 131.223 65.6774 131.219C65.4532 131.621 65.6262 131.59 65.1213 131.483L65.1072 131.473ZM66.236 126.434C66.2159 126.32 66.3315 126.208 66.4371 126.004L66.789 126.361C66.7002 126.459 66.5931 126.538 66.4735 126.595C66.3911 126.615 66.2455 126.487 66.236 126.434ZM67.9739 133.674C68.2787 133.484 68.1138 133.421 68.6144 133.819C68.1492 134.005 68.3103 134.082 67.956 133.677L67.9739 133.674ZM68.8219 131.507C68.8157 130.321 67.6438 130.128 67.0643 129.492C67.3123 129.294 66.9429 129.292 69.7526 129.774L68.8219 131.507ZM70.969 129.941C71.1533 129.626 70.97 129.633 71.6563 129.863C71.3166 130.273 71.5015 130.241 70.9273 129.948L70.969 129.941ZM79.1293 144.271C79.4373 142.809 79.3383 142.771 80.115 144.35L79.1293 144.271ZM79.8644 142.475C79.3679 141.997 79.1561 141.702 79.5578 141.225C80.0174 141.495 79.9044 141.865 79.8644 142.475ZM86.2764 147.169C86.2369 146.561 86.2369 146.561 86.9764 146.535L86.2764 147.169ZM89.2587 148.107C89.0464 147.566 88.9262 147.267 88.7658 146.847C89.6233 147.071 89.3157 146.861 90.032 147.54L89.2587 148.107ZM88.5218 145.776C88.7053 145.492 88.5391 145.491 89.1266 145.719C88.7455 145.965 88.8912 145.988 88.5218 145.776ZM88.5176 133.126L88.7138 132.286C89.078 132.677 89.1204 132.952 88.5176 133.126ZM93.1699 143.641C92.532 143.686 92.639 143.734 92.6268 143.386C93.2707 143.445 93.1725 143.376 93.1699 143.641ZM92.2459 142.377C92.5379 141.975 92.2849 141.97 93.1522 142.285C92.7034 142.739 92.9585 142.756 92.2449 142.371L92.2459 142.377ZM99.443 140.745C100.764 139.688 100.502 139.777 100.756 140.101C100.565 140.553 100.23 140.778 99.442 140.739L99.443 140.745ZM100.569 129.691C100.559 129.632 100.739 129.366 100.864 129.338C100.988 129.31 101.13 129.488 101.548 129.734C101.213 129.922 100.907 130.388 100.538 129.691L100.569 129.691ZM105.066 136.186C105.075 135.889 104.991 135.584 105.099 135.498C105.452 135.128 105.741 135.305 106.04 135.849L105.066 136.186ZM106.114 125.737C106.801 125.234 106.646 125.262 106.849 125.546C106.142 126.033 106.301 126.03 106.089 125.735L106.114 125.737ZM106.074 124.428C106.706 124.525 106.614 124.455 106.574 124.715C105.893 124.62 106.019 124.671 106.043 124.427L106.074 124.428ZM107.578 127.656C106.915 127.379 106.914 127.379 107.064 126.516C107.67 126.779 107.376 127.242 107.547 127.655L107.578 127.656ZM108.526 122.568C108.691 122.414 108.874 122.281 109.071 122.171C109.107 122.165 109.269 122.351 109.255 122.378C109.036 122.737 108.826 122.595 108.517 122.552L108.526 122.568ZM113.769 130.433C113.092 131.093 112.163 130.808 111.758 129.772C110.883 129.693 111.221 129.726 110.4 129.637C110.99 128.973 110.823 127.988 111.866 127.49C112.084 128.725 111.994 128.599 112.211 128.29L113.521 129.548C112.596 130.092 113.852 130.067 113.76 130.416L113.769 130.433ZM110.478 127.151C111.418 126.831 111.233 126.79 111.355 127.242C110.416 127.463 110.587 127.525 110.469 127.134L110.478 127.151ZM114.107 123.103C113.633 123.31 113.456 123.458 113.298 123.437C112.49 123.33 111.692 123.156 110.912 122.916C111.471 122.742 111.957 122.391 112.298 121.916C112.576 121.673 112.889 121.474 113.228 121.327C113.508 122.078 112.955 122.815 114.097 123.087L114.107 123.103ZM115.463 132.33C115.281 132.171 114.914 132.217 114.635 132.168C114.641 131.853 114.5 131.964 115.332 131.695C115.203 131.379 115.089 131.08 114.926 130.678L115.788 130.476C115.698 130.978 115.378 131.428 116.128 131.604C116.585 131.78 117.017 132.019 117.409 132.312C116.827 132.704 116.18 132.978 115.463 132.33ZM114.454 120.121C114.49 119.764 114.49 119.764 115.195 119.756L115.486 121.403C115.334 121.389 115.186 121.344 115.051 121.272C114.916 121.2 114.797 121.101 114.701 120.982C114.605 120.863 114.534 120.726 114.492 120.579C114.449 120.433 114.437 120.279 114.455 120.127L114.454 120.121ZM116.922 133.665C117.958 133.157 117.674 134.443 118.326 134.648L117.315 135.404C117.174 134.709 117.046 134.191 116.923 133.671L116.922 133.665ZM117.194 130.917L117.446 129.557C118.479 129.59 118.479 129.59 118.88 130.885L117.194 130.917ZM121.318 134.944C120.38 135.14 119.463 135.622 118.478 135.863C118.478 135.845 118.475 135.827 118.469 135.81C118.431 135.872 118.367 135.932 118.335 135.925C118.304 135.919 118.106 135.812 117.894 135.69C118.057 135.568 118.258 135.312 118.404 135.477C119.967 134.365 120.148 134.345 119.385 133.539C119.278 133.422 119.319 133.169 119.268 132.876C120.24 133.332 121.559 133.241 121.319 134.95L121.318 134.944ZM119.592 123.902C119.418 123.822 119.248 123.765 119.256 123.739C119.279 123.607 119.33 123.48 119.406 123.368C119.406 123.368 119.661 123.422 119.668 123.464C119.665 123.614 119.64 123.764 119.593 123.907L119.592 123.902ZM120.507 122.781C120.235 122.81 119.961 122.817 119.687 122.802C119.598 122.818 119.417 122.561 119.439 122.477C119.957 120.67 120.01 121.042 120.518 120.817C120.52 121.456 120.517 122.035 120.509 122.787L120.507 122.781ZM119.147 120.228C119.48 119.954 119.36 120.006 119.612 120.146C119.302 120.441 119.432 120.381 119.148 120.234L119.147 120.228ZM124.268 129.356C125.039 129.085 125.338 129.875 125.411 129.77C124.659 129.896 124.659 129.896 124.27 129.362L124.268 129.356ZM123.24 121.253C123.884 121.035 123.884 121.035 123.982 121.768L123.24 121.253ZM125.423 129.799L126.526 129.813C125.913 130.524 125.86 130.497 125.424 129.804L125.423 129.799ZM126.272 128.579C126.074 128.331 126.053 128.42 126.319 128.183C126.495 128.379 126.532 128.275 126.272 128.579ZM87.9993 127.781C81.3932 128.952 74.6028 128.535 68.1899 126.563C68.2773 126.698 68.3366 126.85 68.3646 127.008C68.3926 127.167 68.3886 127.33 68.3529 127.487L67.2491 127.436L67.4408 126.326C64.8219 125.466 62.2924 124.355 59.8877 123.008C59.8949 123.068 59.9054 123.128 59.9191 123.187C58.9926 123.443 59.1662 123.486 59.0585 123.154C59.4985 123.033 59.701 122.961 59.8094 122.948C53.8253 119.604 48.7308 114.873 44.9534 109.152L47.4704 108.709C48.1131 109.633 48.7935 110.538 49.5114 111.424C49.6665 111.187 49.543 111.185 50.1162 111.366C49.8226 111.689 49.9275 111.726 49.617 111.534C54.0462 116.876 59.7761 120.987 66.2549 123.472C66.5771 123.101 66.9192 122.74 67.5799 122.999C67.4504 123.176 67.279 123.318 67.0812 123.413C66.8833 123.508 66.665 123.553 66.4459 123.543C71.6206 125.483 77.1396 126.336 82.6586 126.048C88.1776 125.76 93.5779 124.338 98.5226 121.87C103.467 119.401 107.85 115.94 111.398 111.703C114.945 107.465 117.581 102.542 119.141 97.2398C119.063 97.3103 118.972 97.3641 118.873 97.3976C118.819 97.407 118.676 97.2233 118.695 97.1893C118.764 97.0806 118.851 96.9842 118.952 96.904L119.167 97.1429C119.284 96.7594 119.393 96.3711 119.491 95.9849L122.008 95.5409C120.108 103.649 115.874 111.023 109.831 116.752C103.787 122.482 96.1975 126.316 87.9993 127.781ZM116.786 64.9478C116.34 64.5468 116.403 64.6955 116.681 64.3514C117.005 64.7247 116.936 64.577 116.756 64.9531L116.786 64.9478ZM117.999 65.6873C117.869 65.6664 117.751 65.6003 117.665 65.5003C117.665 65.5003 117.753 65.2326 117.791 65.2382C117.948 65.275 118.1 65.3306 118.244 65.4041C118.092 65.5541 118.02 65.7021 117.969 65.6926L117.999 65.6873ZM119.619 72.991C120.204 72.5435 120.079 72.5655 120.229 72.7544C119.679 73.2265 119.814 73.1904 119.589 72.9964L119.619 72.991ZM119.082 65.269C118.44 64.6993 118.44 64.6993 118.978 63.9157C119.674 64.5803 119.674 64.5803 119.082 65.269ZM121.128 71.3657C121.443 71.1047 121.68 70.7631 121.815 70.3775L122.48 71.3918L120.961 72.0903C121.038 71.6893 121.014 71.4475 121.1 71.3461L121.128 71.3657ZM123.658 82.6052C123.277 83.029 123.461 83.0273 122.967 82.807C123.205 82.3774 123.014 82.4111 123.649 82.5576L123.658 82.6052ZM127.907 106.703C127.366 106.743 127.235 106.206 126.932 105.743C127.594 105.627 128.164 105.335 128.746 106.094C128.487 106.262 128.202 106.633 127.94 106.648L127.907 106.703ZM126.797 88.7615L126.946 88.5939C126.472 89.151 125.908 88.3219 125.633 88.1242L125.723 87.8685C127.161 88.1747 126.848 88.0022 126.928 88.597C127.337 88.6847 127.855 88.4828 128.184 89.1259C127.669 89.0322 127.133 89.4466 126.813 88.7096L126.797 88.7615ZM124.199 67.9891C124.064 67.853 124.405 67.2762 124.527 66.8857C126.367 67.1394 127.018 67.0614 126.288 68.7462C126.446 68.9814 126.581 69.2317 126.69 69.4932C127.22 71.1402 127.209 71.4251 126.997 71.7209C126.784 72.0166 126.16 71.438 126.042 71.3664L126.343 70.6985C125.624 70.4931 125.45 69.9949 125.821 69.2713C124.765 69.4208 124.67 68.4657 124.199 67.9891ZM126.568 76.7537C126.861 76.499 126.675 76.5565 127.314 76.6221C126.648 76.9979 126.83 76.9842 126.586 76.7504L126.568 76.7537ZM127.232 77.8667C127.198 78.3708 127.169 78.874 127.141 79.3772C126.972 79.158 126.889 78.8841 126.91 78.6079C126.93 78.3316 127.053 78.0728 127.253 77.8815L127.232 77.8667ZM127.435 80.0634C128.557 79.4534 128.798 78.4146 129.143 78.6981C129.74 79.7799 128.878 80.1594 128.228 80.4832C128.63 80.7384 129.309 80.8584 129.441 82.059C129.526 82.5421 128.995 83.0172 128.403 83.1463C128.199 82.5178 128.4 81.7013 127.42 81.4437C127.009 81.3499 126.99 80.3326 127.456 80.0782L127.435 80.0634ZM129.539 88.7886C128.987 88.7261 129.082 88.777 129.086 88.5549C129.663 88.5145 129.572 88.4507 129.56 88.8034L129.539 88.7886ZM132.405 83.1415L133.139 83.3258C133.065 83.5666 133.055 83.6851 133.014 83.6985C132.319 83.9439 131.639 84.1683 131.346 84.9827C131.265 85.2185 130.901 85.3504 130.619 85.5661C130.788 86.0345 130.964 86.5138 131.142 86.9991C130.72 87.4302 130.375 87.3558 130.09 86.8217C129.627 87.0202 129.662 87.8813 128.823 87.6601L129.52 86.59C128.922 86.3388 128.42 86.0338 128.639 85.2879C127.962 85.1121 128.011 85.2142 128.324 84.8268C128.53 85.1227 128.605 85.2384 128.639 85.2879C128.731 85.1856 129.481 84.3092 129.595 84.1905C131.081 83.615 131.347 82.8607 131.225 82.9684C133.736 82.2488 133.514 82.1035 132.409 83.1594L132.405 83.1415ZM131.699 73.3457C131.447 73.6608 131.149 73.7134 130.849 73.2681L131.364 72.4209C131.755 72.7209 132.059 72.944 131.72 73.3605L131.699 73.3457ZM134.302 81.7616C133.53 81.6024 133.64 81.7001 133.723 81.3716C134.492 81.6173 134.385 81.4949 134.323 81.7762L134.302 81.7616ZM128.101 46.3103C127.749 46.0955 127.822 46.1934 127.984 45.8573C128.378 46.0338 128.335 45.9306 128.122 46.3249L128.101 46.3103ZM135.66 77.1801C135.923 76.8631 135.799 76.9278 136.192 77.0248C135.977 77.3764 136.129 77.368 135.66 77.1801ZM132.149 58.4566C132.295 57.9264 132.295 57.9264 132.834 57.8746L132.149 58.4566ZM138.202 87.7285C138.818 87.1401 138.66 87.1865 138.942 87.4257C138.326 88.045 138.483 87.9986 138.202 87.7285ZM136.938 62.4894L136.391 61.7617C137.04 61.6042 137.113 60.6257 138.016 60.8601L136.938 62.4894ZM137.161 58.6615C136.288 57.5854 136.614 57.7246 135.742 58.0137C135.798 56.8292 136.955 57.1847 137.214 56.4873C137.494 56.6101 137.464 56.2649 137.159 58.6556L137.161 58.6615ZM138.875 61.6188C139.475 61.2547 139.288 61.3063 139.573 61.4957C139.187 61.9575 139.352 61.9529 138.874 61.6128L138.875 61.6188ZM140.351 60.8173C140.725 61.3665 140.557 61.5991 140.17 61.778C139.875 61.6025 139.856 61.7779 140.35 60.8113L140.351 60.8173ZM140.931 65.986L141.605 66.0761C141.299 66.4684 141.299 66.4684 140.93 65.98L140.931 65.986ZM139.471 59.3797L140.131 60.407C139.119 60.6964 138.787 59.9308 138.006 59.6873L138.987 58.973L138.18 57.6393C138.834 57.3394 139.439 57.3188 139.88 56.8167C140.075 56.5979 140.649 56.681 140.962 56.6751C141.362 56.1187 141.738 55.6033 142.155 55.0378L142.79 55.3933C142.603 56.0412 142.015 56.3356 141.498 57.1709C141.359 57.3923 141.496 57.7863 141.513 58.1277C140.11 58.2275 140.582 57.9721 139.47 59.3737L139.471 59.3797ZM141.322 59.4161L142.335 60.2769C141.429 60.4058 141.371 60.3547 141.309 59.4123L141.322 59.4161ZM145.473 82.295L146.537 81.351C146.673 82.0896 146.673 82.0896 145.46 82.2911L145.473 82.295ZM143.214 57.9385C143.131 57.9512 143.046 57.9419 142.967 57.9117C142.888 57.8813 142.819 57.8309 142.765 57.7655C142.616 57.3736 142.457 56.9219 143.295 56.8295C143.296 57.2537 143.831 57.6331 143.214 57.9385ZM143.746 56.1043C143.175 56.0758 143.286 56.1117 143.265 55.9246C143.849 55.8893 143.755 55.8443 143.746 56.1043ZM143.604 55.0591C143.059 55.0014 143.159 55.0453 143.166 54.8042C143.73 54.8647 143.643 54.7879 143.604 55.0591ZM142.105 50.4956C141.719 50.1944 141.699 49.8351 141.894 49.3026C142.396 49.5821 142.795 50.0168 143.029 50.5416C142.722 50.5042 142.413 50.4889 142.105 50.4956ZM143.071 50.5712C143.024 50.5796 143.041 50.5763 143.071 50.5712C143.155 50.5564 143.418 50.5837 144.197 50.6064C143.575 50.9866 143.563 50.9887 143.073 50.583L143.071 50.5712Z" fill="#8C0000"/>
<path d="M53.0921 110.35C53.0379 110.571 53.0537 110.804 53.1375 111.016C53.2211 111.229 53.3685 111.41 53.5593 111.535C53.3027 110.079 53.4282 110.303 53.0921 110.35Z" fill="#8C0000"/>
<path d="M130.392 84.3144C130.495 84.4807 130.375 84.4958 131.007 84.1382C130.924 83.9131 131.049 83.8909 130.392 84.3144Z" fill="#8C0000"/>
<path d="M64.3976 37.9109L64.4052 37.9163L64.3976 37.9109Z" fill="#8C0000"/>
<path d="M71.7418 111.053C71.7418 111.053 71.7263 111.048 71.7418 111.053V111.053Z" fill="#8C0000"/>
<path d="M62.3312 111.715L62.2632 111.82C62.2891 111.787 62.312 111.752 62.3312 111.715Z" fill="#8C0000"/>
<path d="M95.5969 99.6075L95.5756 99.5927L95.5969 99.6075Z" fill="#8C0000"/>
<path d="M118.396 135.503L118.349 135.511L118.457 135.813C118.484 135.785 118.502 135.75 118.508 135.712C118.487 135.635 118.449 135.563 118.396 135.503Z" fill="#8C0000"/>
<path d="M10.3044 73.1533L142.723 49.8043L148.823 84.4002L16.4046 107.749L10.3044 73.1533Z" fill="#8C0000"/>
<path d="M30.6314 72.9406L31.6251 78.576L23.9851 79.9231L22.9915 74.2877L24.5613 74.0108L25.3321 78.3823L26.8054 78.1226L26.0345 73.7512L27.6044 73.4743L28.3751 77.8458L29.8323 77.5888L29.0616 73.2174L30.6314 72.9406Z" fill="white"/>
<path d="M37.324 73.0637L35.6012 73.3675L36.372 77.739L34.8021 78.0158L34.0314 73.6443L32.3004 73.9495L32.0777 72.6855L37.1012 71.7999L37.324 73.0637Z" fill="white"/>
<path d="M42.9664 75.4473L40.5835 75.8675L40.3338 77.0403L38.7076 77.3271L40.2016 71.253L41.7715 70.9762L45.2607 76.1716L43.6024 76.4641L42.9664 75.4473ZM42.2924 74.3541L41.2497 72.6786L40.8432 74.6097L42.2924 74.3541Z" fill="white"/>
<path d="M51.711 75.0342L51.1762 72.0489L50.1559 74.7357L49.4475 74.8606L47.5811 72.7492L48.0963 75.6717L46.6312 75.93L45.6375 70.2946L46.9497 70.0632L49.5037 72.9665L50.8623 69.3734L52.1746 69.1418L53.1842 74.7745L51.711 75.0342Z" fill="white"/>
<path d="M60.1874 73.5396L59.6528 70.5543L58.6323 73.2411L57.9239 73.366L56.0574 71.2546L56.5726 74.1771L55.1075 74.4354L54.1138 68.7999L55.4261 68.5686L57.98 71.4719L59.3387 67.8787L60.6509 67.6474L61.6606 73.2799L60.1874 73.5396Z" fill="white"/>
<path d="M65.7808 68.5938C66.4732 68.4717 67.0346 68.5332 67.4652 68.7783C67.8949 69.018 68.1631 69.441 68.2701 70.0476C68.3845 70.697 68.2627 71.2304 67.9047 71.6477C67.5466 72.0649 66.9946 72.3393 66.2486 72.4709L63.5839 72.9407L62.5902 67.3055L64.1601 67.0286L64.4766 68.8238L65.7808 68.5938ZM65.9424 71.3461C66.2108 71.2989 66.41 71.189 66.54 71.0167C66.6755 70.8435 66.72 70.6252 66.6737 70.3622C66.5876 69.8738 66.252 69.6813 65.6669 69.7843L64.6768 69.959L64.9521 71.5208L65.9424 71.3461ZM68.2497 66.3075L69.8196 66.0306L70.8133 71.6661L69.2434 71.9429L68.2497 66.3075Z" fill="white"/>
<path d="M79.4057 67.1128C79.7574 67.1615 80.0391 67.2835 80.2505 67.4786C80.4674 67.6728 80.6051 67.9362 80.6639 68.2689C80.7518 68.7681 80.6254 69.1972 80.2848 69.5561C79.9486 69.9087 79.4234 70.1479 78.7096 70.2736L75.8194 70.7833L74.8257 65.1479L77.5629 64.6653C78.2392 64.5459 78.7852 64.5825 79.201 64.7749C79.6212 64.9609 79.8725 65.2873 79.9547 65.7543C80.003 66.0281 79.9784 66.2814 79.8812 66.5142C79.7894 66.7464 79.6308 66.9458 79.4057 67.1128ZM76.7932 67.1253L77.8075 66.9463C78.2583 66.8668 78.4512 66.642 78.3857 66.2716C78.3205 65.9013 78.0625 65.7558 77.6115 65.8354L76.5972 66.0143L76.7932 67.1253ZM78.4436 69.1419C78.9052 69.0604 79.1015 68.824 79.0323 68.4321C78.9652 68.051 78.7009 67.9012 78.2392 67.9826L76.9833 68.204L77.1878 69.3632L78.4436 69.1419Z" fill="white"/>
<path d="M84.4327 67.0399L83.7081 67.1677L84.0885 69.3253L82.5027 69.6048L81.509 63.9694L83.0948 63.6898L83.4811 65.8796L84.2458 65.7447L85.2041 63.3178L86.8786 63.0226L85.5953 66.0547L87.8884 68.6551L86.0932 68.9718L84.4327 67.0399Z" fill="white"/>
<path d="M93.5449 61.8472L94.5386 67.4827L92.9687 67.7593L92.1978 63.3879L90.5797 63.6733L90.7093 64.5968C90.8244 65.4065 90.8728 66.0732 90.8545 66.5965C90.8414 67.1191 90.7334 67.5421 90.5304 67.8657C90.3264 68.1839 89.9935 68.3836 89.5321 68.465C89.3174 68.5028 89.0701 68.5133 88.7905 68.4961L88.649 67.1763C88.7216 67.1801 88.7955 67.1754 88.8707 67.1622C89.0799 67.1253 89.2264 67.0137 89.3097 66.8275C89.393 66.6412 89.4328 66.3963 89.429 66.0924C89.4244 65.7835 89.388 65.3887 89.3198 64.9081L89.0043 62.6479L93.5449 61.8472Z" fill="white"/>
<path d="M100.599 60.487C101.174 60.3859 101.714 60.4206 102.22 60.5915C102.726 60.7623 103.15 61.0474 103.491 61.4464C103.833 61.8455 104.053 62.3241 104.151 62.8823C104.249 63.4404 104.207 63.9655 104.022 64.4573C103.838 64.9492 103.537 65.3619 103.12 65.6956C102.703 66.0292 102.207 66.2467 101.633 66.348C101.128 66.437 100.647 66.4222 100.189 66.3037C99.7362 66.1843 99.3396 65.9748 98.9989 65.6751C98.6637 65.3746 98.4107 65.0069 98.24 64.572L97.6523 64.6758L98.0384 66.8654L96.4685 67.1423L95.475 61.5068L97.0448 61.2302L97.4167 63.3393L98.0205 63.2328C98.0449 62.7748 98.1672 62.3547 98.3877 61.9728C98.6072 61.5855 98.9074 61.2642 99.2884 61.0088C99.6687 60.7481 100.106 60.5741 100.599 60.487ZM101.4 65.0277C101.668 64.9803 101.898 64.8707 102.089 64.6986C102.28 64.5265 102.416 64.3089 102.497 64.0457C102.583 63.7814 102.598 63.4884 102.541 63.1662C102.484 62.8442 102.37 62.5738 102.199 62.3551C102.033 62.1352 101.831 61.9772 101.592 61.8809C101.354 61.7845 101.1 61.7602 100.832 61.8074C100.564 61.8548 100.331 61.9649 100.135 62.1378C99.9431 62.3046 99.8045 62.5227 99.7192 62.7923C99.6383 63.0556 99.6262 63.3482 99.6831 63.6702C99.7398 63.9922 99.8517 64.2658 100.019 64.491C100.19 64.7098 100.395 64.8673 100.633 64.9636C100.876 65.0536 101.132 65.0749 101.4 65.0277Z" fill="white"/>
<path d="M110.009 58.9441L111.003 64.5794L109.433 64.8562L109.095 62.9402C108.686 63.1619 108.299 63.3047 107.934 63.3692C107.145 63.5083 106.508 63.4269 106.023 63.1249C105.543 62.8168 105.24 62.3057 105.114 61.592L104.809 59.861L106.379 59.5842L106.653 61.1381C106.78 61.8625 107.198 62.1623 107.907 62.0375C108.293 61.9693 108.615 61.8462 108.871 61.6682L108.44 59.2208L110.009 58.9441Z" fill="white"/>
<path d="M117.241 62.2094L117.458 63.4413L112.934 64.239L111.94 58.6036L116.36 57.8242L116.577 59.0559L113.735 59.5571L113.903 60.5071L116.407 60.0656L116.617 61.2571L114.113 61.6985L114.295 62.7291L117.241 62.2094Z" fill="white"/>
<path d="M123.459 56.5726L124.453 62.2079L122.859 62.489L122.471 60.2913L120.297 60.6744L120.685 62.8723L119.091 63.1533L118.097 57.518L119.691 57.2369L120.065 59.3543L122.238 58.971L121.865 56.8536L123.459 56.5726Z" fill="white"/>
<path d="M128.585 57.5197C129.277 57.3976 129.839 57.4591 130.269 57.7042C130.699 57.9439 130.967 58.3669 131.074 58.9735C131.189 59.6228 131.067 60.1563 130.709 60.5736C130.351 60.9907 129.799 61.2652 129.053 61.3967L126.388 61.8666L125.394 56.2313L126.964 55.9545L127.281 57.7497L128.585 57.5197ZM128.747 60.272C129.015 60.2248 129.214 60.1149 129.344 59.9426C129.48 59.7693 129.524 59.5511 129.478 59.2881C129.392 58.7997 129.056 58.6072 128.471 58.7102L127.481 58.8849L127.756 60.4467L128.747 60.272ZM131.054 55.2334L132.624 54.9565L133.618 60.592L132.048 60.8688L131.054 55.2334Z" fill="white"/>
<path d="M36.892 84.5187C37.2437 84.5675 37.5252 84.6892 37.7368 84.8845C37.9537 85.0786 38.0914 85.342 38.15 85.6749C38.2381 86.1739 38.1117 86.6029 37.7711 86.9619C37.4347 87.3144 36.9097 87.5537 36.1959 87.6796L33.3058 88.1893L32.3121 82.5538L35.0492 82.0711C35.7256 81.9519 36.2715 81.9885 36.6873 82.1808C37.1075 82.3668 37.3588 82.6933 37.4411 83.1603C37.4893 83.4338 37.4648 83.6873 37.3676 83.9202C37.2757 84.1522 37.1172 84.3518 36.892 84.5187ZM34.2793 84.5311L35.2938 84.3523C35.7446 84.2728 35.9373 84.048 35.8721 83.6775C35.8068 83.3073 35.5487 83.1618 35.0979 83.2413L34.0836 83.4201L34.2793 84.5311ZM35.9299 86.5478C36.3916 86.4664 36.5877 86.2297 36.5186 85.838C36.4515 85.4569 36.187 85.3072 35.7256 85.3886L34.4696 85.6099L34.674 86.7692L35.9299 86.5478Z" fill="white"/>
<path d="M44.6709 80.3746C45.1808 80.2846 45.6389 80.2925 46.0447 80.398C46.4498 80.4981 46.7821 80.6885 47.042 80.9692C47.3008 81.2445 47.4675 81.5941 47.5424 82.0182C47.6171 82.4422 47.58 82.8277 47.431 83.175C47.2819 83.5222 47.0346 83.8149 46.6892 84.0529C46.3428 84.2856 45.9147 84.4469 45.4049 84.5367L44.4228 84.7098L44.6824 86.1832L43.0885 86.4641L42.0948 80.8289L44.6709 80.3746ZM45.0869 83.2978C45.4142 83.2401 45.6488 83.1269 45.7905 82.9579C45.9313 82.7838 45.9786 82.5651 45.9322 82.302C45.8858 82.0391 45.7668 81.8498 45.5748 81.7343C45.3828 81.6187 45.1233 81.5898 44.7958 81.6475L43.9103 81.8037L44.2012 83.4541L45.0869 83.2978Z" fill="white"/>
<path d="M53.9224 83.2839L54.1396 84.5156L49.6151 85.3133L48.6215 79.678L53.0412 78.8987L53.2584 80.1304L50.4165 80.6315L50.5841 81.5814L53.0877 81.1401L53.2979 82.3314L50.7941 82.7729L50.9758 83.8034L53.9224 83.2839Z" fill="white"/>
<path d="M57.67 81.6685L56.9455 81.7963L57.326 83.9538L55.74 84.2334L54.7463 78.598L56.3323 78.3184L56.7184 80.508L57.4832 80.3732L58.4415 77.9464L60.1161 77.6512L58.8329 80.6832L61.1258 83.2837L59.3306 83.6002L57.67 81.6685Z" fill="white"/>
<path d="M65.1195 82.6959C64.5238 82.8008 63.9648 82.7694 63.4427 82.6012C62.9259 82.4324 62.4914 82.1492 62.1392 81.752C61.7923 81.3539 61.5695 80.8758 61.4711 80.3176C61.3727 79.7595 61.4184 79.2339 61.6082 78.7411C61.8034 78.2475 62.115 77.8327 62.5428 77.4973C62.9759 77.1607 63.4904 76.94 64.0862 76.8349C64.6818 76.73 65.238 76.7619 65.755 76.9309C66.2771 77.0989 66.7116 77.3819 67.0585 77.7802C67.4107 78.1772 67.636 78.655 67.7344 79.2132C67.8328 79.7713 67.7846 80.2974 67.5893 80.7911C67.3996 81.2838 67.088 81.6984 66.6549 82.0348C66.2271 82.3704 65.7153 82.5908 65.1195 82.6959ZM64.8867 81.3755C65.1712 81.3254 65.417 81.2129 65.6241 81.0379C65.8312 80.8631 65.9806 80.6431 66.0722 80.3779C66.1629 80.1074 66.1802 79.8137 66.1244 79.497C66.0686 79.1804 65.9523 78.9131 65.7754 78.6954C65.5978 78.4721 65.3818 78.3138 65.1273 78.2202C64.8728 78.1267 64.6033 78.1051 64.3189 78.1552C64.0345 78.2054 63.7887 78.3179 63.5816 78.4927C63.3745 78.6677 63.2256 78.8903 63.1349 79.161C63.0434 79.4261 63.0254 79.717 63.0813 80.0337C63.1372 80.3502 63.2539 80.6202 63.4315 80.8435C63.6084 81.0614 63.8239 81.217 64.0785 81.3104C64.3328 81.404 64.6023 81.4257 64.8867 81.3755Z" fill="white"/>
<path d="M74.8881 80.857L74.3535 77.8717L73.333 80.5586L72.6246 80.6834L70.7581 78.5721L71.2733 81.4945L69.8082 81.7528L68.8145 76.1174L70.1268 75.8861L72.6807 78.7893L74.0393 75.1962L75.3516 74.9648L76.3614 80.5974L74.8881 80.857Z" fill="white"/>
<path d="M82.5918 78.2288L82.809 79.4605L78.2846 80.2582L77.2909 74.6227L81.7106 73.8436L81.9278 75.0753L79.0861 75.5762L79.2535 76.5263L81.7573 76.0848L81.9673 77.2763L79.4636 77.7178L79.6453 78.7483L82.5918 78.2288Z" fill="white"/>
<path d="M88.8098 72.5917L89.8034 78.2272L88.2094 78.5081L87.8217 76.3104L85.6482 76.6937L86.0357 78.8915L84.4417 79.1726L83.4481 73.5372L85.042 73.256L85.4153 75.3734L87.589 74.9901L87.2157 72.8727L88.8098 72.5917Z" fill="white"/>
<path d="M97.5542 75.5572L97.9772 77.9564L96.5202 78.2133L96.3199 77.0781L92.7132 77.714L92.9135 78.8492L91.4482 79.1075L91.0252 76.7085L91.2265 76.673C91.5583 76.6089 91.7515 76.3396 91.8063 75.8651C91.8662 75.3897 91.8377 74.7251 91.7202 73.8715L91.4781 72.1212L96.0187 71.3205L96.7895 75.692L97.5542 75.5572ZM93.1373 73.7628C93.2218 74.3677 93.2633 74.886 93.2619 75.3179C93.2607 75.7499 93.202 76.0921 93.0861 76.3451L95.2196 75.9688L94.6716 72.8614L93.0534 73.1466L93.1373 73.7628Z" fill="white"/>
<path d="M103.022 74.7673L100.639 75.1876L100.389 76.3606L98.7632 76.6472L100.257 70.5733L101.827 70.2964L105.316 75.4917L103.658 75.7842L103.022 74.7673ZM102.348 73.6744L101.305 71.9987L100.899 73.9298L102.348 73.6744Z" fill="white"/>
<path d="M112.542 72.9144L112.968 75.3296L111.511 75.5865L111.308 74.4353L106.687 75.2501L105.693 69.6146L107.263 69.338L108.034 73.7094L110.199 73.3275L109.429 68.956L110.998 68.6792L111.769 73.0508L112.542 72.9144Z" fill="white"/>
<path d="M113.25 68.2823L114.819 68.0054L115.403 71.3143L117.146 67.5953L118.643 67.3312L119.637 72.9666L118.067 73.2435L117.485 69.9426L115.749 73.6522L114.243 73.9177L113.25 68.2823Z" fill="white"/>
<path d="M120.578 66.9901L122.148 66.7133L122.732 70.022L124.475 66.303L125.972 66.039L126.966 71.6745L125.396 71.9512L124.814 68.6505L123.077 72.3601L121.572 72.6256L120.578 66.9901Z" fill="white"/>
<path d="M21.5188 95.6697L18.9668 96.1196L19.7375 100.491L18.1677 100.768L17.174 95.1326L21.304 94.4043L21.5188 95.6697Z" fill="white"/>
<path d="M26.3219 98.2013L23.9389 98.6214L23.6892 99.7944L22.063 100.081L23.5569 94.0071L25.1268 93.7303L28.6162 98.9257L26.9577 99.218L26.3219 98.2013ZM25.6477 97.1082L24.6052 95.4327L24.1986 97.3638L25.6477 97.1082Z" fill="white"/>
<path d="M32.6731 98.3266C32.0826 98.4306 31.5296 98.4009 31.0137 98.2372C30.5023 98.0674 30.0731 97.7833 29.7264 97.3852C29.3795 96.987 29.1562 96.5063 29.057 95.9426C28.9575 95.3791 29.0027 94.8509 29.1926 94.3582C29.3824 93.8654 29.689 93.4545 30.1123 93.1252C30.5403 92.7897 31.0493 92.5698 31.6397 92.4658C32.155 92.3749 32.6353 92.3842 33.0806 92.4939C33.5261 92.6035 33.916 92.806 34.2503 93.1012L33.3977 94.1978C32.9551 93.822 32.4735 93.68 31.953 93.7718C31.6471 93.8258 31.3852 93.9412 31.1673 94.1179C30.9548 94.2938 30.8032 94.5168 30.7127 94.7875C30.6263 95.0516 30.6112 95.3421 30.667 95.6587C30.7228 95.9754 30.837 96.2457 31.0093 96.47C31.186 96.6878 31.4043 96.8431 31.6641 96.9356C31.9293 97.0272 32.2149 97.0461 32.5208 96.9921C33.0415 96.9002 33.4454 96.6021 33.7327 96.0977L34.909 96.8365C34.6958 97.2284 34.3987 97.5518 34.0176 97.8072C33.6365 98.0626 33.1883 98.2357 32.6731 98.3266Z" fill="white"/>
<path d="M40.2437 92.368L38.5208 92.6718L39.2915 97.0433L37.7217 97.3201L36.9509 92.9487L35.2199 93.2539L34.9972 91.9898L40.0207 91.1042L40.2437 92.368Z" fill="white"/>
<path d="M44.0563 90.3925C44.5662 90.3027 45.024 90.3104 45.43 90.4159C45.8352 90.516 46.1675 90.7065 46.4273 90.9873C46.6861 91.2625 46.8529 91.6122 46.9276 92.0362C47.0025 92.4601 46.9652 92.8458 46.8163 93.1931C46.6672 93.5403 46.4199 93.833 46.0746 94.0708C45.7282 94.3035 45.3 94.4648 44.7901 94.5546L43.808 94.7279L44.0678 96.2011L42.4737 96.4822L41.48 90.8468L44.0563 90.3925ZM44.4721 93.3159C44.7996 93.2582 45.0342 93.1448 45.1759 92.976C45.3167 92.8017 45.3639 92.5831 45.3176 92.3201C45.2712 92.057 45.152 91.8678 44.9602 91.7522C44.7682 91.6366 44.5085 91.6077 44.1812 91.6655L43.2955 91.8216L43.5866 93.472L44.4721 93.3159Z" fill="white"/>
<path d="M51.8684 94.9419C51.2726 95.047 50.7136 95.0154 50.1915 94.8474C49.6748 94.6784 49.2403 94.3954 48.8879 93.9982C48.5409 93.6001 48.3184 93.1218 48.22 92.5636C48.1216 92.0055 48.1672 91.4799 48.357 90.9872C48.5521 90.4935 48.8636 90.0789 49.2914 89.7433C49.7247 89.4069 50.2391 89.186 50.8349 89.0811C51.4306 88.976 51.9869 89.0079 52.5037 89.1769C53.0257 89.345 53.4604 89.6281 53.8073 90.0262C54.1596 90.4234 54.3849 90.9012 54.4833 91.4593C54.5817 92.0175 54.5333 92.5433 54.3382 93.0371C54.1484 93.53 53.8369 93.9446 53.4037 94.281C52.9758 94.6166 52.464 94.8368 51.8684 94.9419ZM51.6355 93.6215C51.9199 93.5714 52.1658 93.4589 52.373 93.2841C52.5801 93.1092 52.7293 92.8892 52.821 92.6239C52.9115 92.3534 52.9291 92.0599 52.8732 91.7432C52.8172 91.4265 52.701 91.1593 52.5243 90.9414C52.3465 90.7181 52.1305 90.5598 51.8761 90.4663C51.6216 90.3729 51.3521 90.3513 51.0677 90.4014C50.7832 90.4516 50.5374 90.5641 50.3303 90.7389C50.1232 90.9137 49.9743 91.1365 49.8836 91.407C49.7921 91.6721 49.7742 91.963 49.83 92.2797C49.8858 92.5964 50.0026 92.8664 50.1804 93.0897C50.3571 93.3074 50.5728 93.4632 50.8271 93.5566C51.0817 93.65 51.3511 93.6717 51.6355 93.6215Z" fill="white"/>
<path d="M57.3342 87.9351C57.9032 87.8348 58.4353 87.8709 58.9307 88.0436C59.425 88.2111 59.8375 88.4953 60.1685 88.8963C60.5045 89.2963 60.7223 89.778 60.8217 90.3417C60.921 90.9052 60.8812 91.4324 60.7022 91.9232C60.5284 92.4132 60.2384 92.8242 59.832 93.1558C59.4248 93.4823 58.9366 93.6956 58.3678 93.7959C57.8471 93.8876 57.3614 93.8792 56.9106 93.7706C56.4652 93.6609 56.0754 93.4586 55.741 93.1634L56.5855 92.0682C57.0389 92.4419 57.5285 92.5825 58.0545 92.4898C58.3925 92.4302 58.6637 92.2883 58.8675 92.0642C59.076 91.8337 59.1969 91.5468 59.2304 91.2033L57.1936 91.5624L56.9865 90.387L59.0072 90.0307C58.861 89.7356 58.6542 89.5202 58.3868 89.3847C58.1194 89.2492 57.8194 89.2108 57.4866 89.2695C56.9607 89.3622 56.5485 89.6618 56.2506 90.1682L55.0824 89.4279C55.2955 89.0361 55.5926 88.7126 55.9737 88.4572C56.3601 88.2009 56.8137 88.0268 57.3342 87.9351Z" fill="white"/>
<path d="M67.2707 86.2993L68.2644 91.9346L66.6703 92.2157L66.2829 90.018L64.1092 90.4011L64.4966 92.599L62.9027 92.88L61.9091 87.2445L63.503 86.9636L63.8763 89.0808L66.05 88.6976L65.6767 86.5803L67.2707 86.2993Z" fill="white"/>
<path d="M73.9694 86.4212L72.2467 86.725L73.0175 91.0965L71.4476 91.3733L70.6768 87.0019L68.9459 87.307L68.7231 86.043L73.7467 85.1574L73.9694 86.4212Z" fill="white"/>
<path d="M80.5069 88.5059L80.7242 89.7377L76.1997 90.5354L75.206 84.8999L79.6259 84.1206L79.843 85.3525L77.0012 85.8534L77.1686 86.8035L79.6724 86.3619L79.8825 87.5535L77.3787 87.995L77.5604 89.0255L80.5069 88.5059Z" fill="white"/>
<path d="M83.9392 83.3601C84.4491 83.2701 84.9072 83.278 85.3132 83.3835C85.7181 83.4836 86.0504 83.6741 86.3103 83.9547C86.5691 84.23 86.736 84.5796 86.8107 85.0037C86.8854 85.4277 86.8483 85.8132 86.6993 86.1605C86.5502 86.5078 86.3029 86.8004 85.9575 87.0384C85.6111 87.271 85.1832 87.4322 84.6733 87.5222L83.6911 87.6953L83.9508 89.1687L82.3568 89.4497L81.3632 83.8144L83.9392 83.3601ZM84.3552 86.2833C84.6825 86.2256 84.9171 86.1124 85.0588 85.9434C85.1996 85.7693 85.2469 85.5507 85.2005 85.2875C85.1541 85.0246 85.0351 84.8354 84.8431 84.7198C84.6513 84.6042 84.3916 84.5753 84.0641 84.633L83.1786 84.7892L83.4695 86.4396L84.3552 86.2833Z" fill="white"/>
<path d="M91.7513 87.9095C91.1556 88.0144 90.5967 87.983 90.0745 87.815C89.5577 87.646 89.1232 87.3628 88.771 86.9656C88.424 86.5675 88.2013 86.0894 88.1029 85.5312C88.0045 84.9731 88.0502 84.4476 88.2399 83.9548C88.4352 83.4611 88.7467 83.0463 89.1745 82.7109C89.6077 82.3743 90.1222 82.1536 90.718 82.0485C91.3136 81.9436 91.8698 81.9756 92.3868 82.1445C92.9088 82.3125 93.3433 82.5955 93.6903 82.9938C94.0425 83.391 94.2678 83.8686 94.3662 84.4268C94.4646 84.9849 94.4164 85.511 94.2211 86.0047C94.0313 86.4974 93.7198 86.912 93.2867 87.2486C92.8589 87.584 92.3471 87.8044 91.7513 87.9095ZM91.5184 86.5892C91.803 86.539 92.0488 86.4265 92.2559 86.2515C92.463 86.0767 92.6124 85.8567 92.704 85.5915C92.7946 85.321 92.812 85.0274 92.7562 84.7107C92.7003 84.394 92.5841 84.1268 92.4072 83.909C92.2296 83.6857 92.0136 83.5274 91.759 83.434C91.5045 83.3404 91.2352 83.3187 90.9507 83.3689C90.6663 83.419 90.4205 83.5315 90.2134 83.7065C90.0063 83.8813 89.8574 84.1041 89.7667 84.3746C89.6752 84.6397 89.6571 84.9307 89.7131 85.2474C89.7689 85.564 89.8857 85.8338 90.0633 86.0571C90.2402 86.275 90.4557 86.4306 90.7102 86.5241C90.9646 86.6177 91.234 86.6393 91.5184 86.5892Z" fill="white"/>
<path d="M100.546 80.4318L101.54 86.0673L99.9699 86.3441L99.1991 81.9727L97.5808 82.2579L97.7105 83.1814C97.8257 83.9911 97.874 84.6578 97.8556 85.1813C97.8426 85.7037 97.7345 86.1267 97.5315 86.4502C97.3275 86.7685 96.9949 86.9682 96.5332 87.0496C96.3186 87.0876 96.0714 87.0979 95.7917 87.0809L95.6501 85.761C95.7228 85.7648 95.7966 85.76 95.8719 85.7468C96.0812 85.7099 96.2275 85.5984 96.3108 85.4121C96.3943 85.2259 96.4341 84.9808 96.4304 84.6772C96.4255 84.3681 96.3891 83.9733 96.3211 83.4927L96.0055 81.2325L100.546 80.4318Z" fill="white"/>
<path d="M106.259 85.3512C105.663 85.4563 105.104 85.4249 104.582 85.2568C104.065 85.0878 103.631 84.8048 103.279 84.4075C102.932 84.0094 102.709 83.5313 102.611 82.9732C102.512 82.4148 102.558 81.8895 102.748 81.3966C102.943 80.9028 103.254 80.4883 103.682 80.1527C104.115 79.8163 104.63 79.5956 105.226 79.4905C105.821 79.3854 106.378 79.4175 106.894 79.5863C107.416 79.7544 107.851 80.0375 108.198 80.4355C108.55 80.8328 108.775 81.3106 108.874 81.8687C108.972 82.4269 108.924 82.9529 108.729 83.4465C108.539 83.9394 108.228 84.354 107.794 84.6904C107.366 85.026 106.855 85.2463 106.259 85.3512ZM106.026 84.0311C106.311 83.9809 106.556 83.8683 106.764 83.6934C106.971 83.5186 107.12 83.2986 107.212 83.0334C107.302 82.7628 107.32 82.4693 107.264 82.1526C107.208 81.8359 107.092 81.5687 106.915 81.3507C106.737 81.1277 106.521 80.9693 106.267 80.8757C106.012 80.7823 105.743 80.7607 105.458 80.8108C105.174 80.8609 104.928 80.9734 104.721 81.1483C104.514 81.3233 104.365 81.5458 104.274 81.8165C104.183 82.0817 104.165 82.3726 104.221 82.6891C104.277 83.0058 104.393 83.2758 104.571 83.499C104.748 83.7168 104.963 83.8726 105.218 83.966C105.472 84.0594 105.742 84.0812 106.026 84.0311Z" fill="white"/>
<path d="M114.299 79.3102L111.747 79.7601L112.517 84.1316L110.948 84.4084L109.954 78.773L114.084 78.0448L114.299 79.3102Z" fill="white"/>
<path d="M118.817 83.137C118.221 83.2421 117.662 83.2105 117.14 83.0426C116.623 82.8736 116.189 82.5906 115.837 82.1933C115.49 81.7951 115.267 81.317 115.169 80.7588C115.07 80.2006 115.116 79.6751 115.306 79.1824C115.501 78.6887 115.812 78.2741 116.24 77.9385C116.673 77.6021 117.188 77.3812 117.784 77.2763C118.379 77.1712 118.936 77.2031 119.452 77.3721C119.974 77.5401 120.409 77.8233 120.756 78.2214C121.108 78.6186 121.334 79.0962 121.432 79.6543C121.53 80.2127 121.482 80.7385 121.287 81.2323C121.097 81.725 120.786 82.1398 120.352 82.4762C119.924 82.8118 119.413 83.0319 118.817 83.137ZM118.584 81.8167C118.869 81.7666 119.114 81.6541 119.322 81.4792C119.529 81.3044 119.678 81.0842 119.77 80.8191C119.86 80.5486 119.878 80.2549 119.822 79.9384C119.766 79.6217 119.65 79.3545 119.473 79.1365C119.295 78.9133 119.079 78.7549 118.825 78.6615C118.57 78.5681 118.301 78.5463 118.016 78.5964C117.732 78.6468 117.486 78.7592 117.279 78.9341C117.072 79.1089 116.923 79.3317 116.832 79.6021C116.741 79.8673 116.723 80.1582 116.779 80.4749C116.835 80.7916 116.951 81.0616 117.129 81.2847C117.306 81.5026 117.522 81.6582 117.776 81.7518C118.03 81.8452 118.3 81.8669 118.584 81.8167Z" fill="white"/>
<path d="M127.092 78.5236C127.444 78.5722 127.725 78.6942 127.937 78.8893C128.154 79.0835 128.291 79.3469 128.35 79.6798C128.438 80.1788 128.312 80.6078 127.971 80.9668C127.635 81.3194 127.11 81.5586 126.396 81.6845L123.506 82.194L122.512 76.5588L125.249 76.076C125.925 75.9568 126.471 75.9934 126.887 76.1857C127.307 76.3717 127.559 76.6982 127.641 77.1652C127.689 77.4387 127.665 77.6921 127.567 77.9251C127.476 78.1571 127.317 78.3567 127.092 78.5236ZM124.479 78.536L125.494 78.3572C125.944 78.2777 126.137 78.0527 126.072 77.6824C126.007 77.3122 125.749 77.1667 125.298 77.2462L124.283 77.425L124.479 78.536ZM126.13 80.5527C126.591 80.4713 126.788 80.2347 126.718 79.8429C126.651 79.4618 126.387 79.3119 125.925 79.3933L124.669 79.6149L124.874 80.7741L126.13 80.5527Z" fill="white"/>
<path d="M132.299 77.1655L131.703 77.2706L131.834 78.0111L131.125 78.1361L130.995 77.3954L129.159 77.7191L129.077 77.2522L130.271 74.842L131.068 74.7014L129.928 76.9942L130.958 76.8125L130.849 76.1926L131.493 76.079L131.602 76.699L132.198 76.5939L132.299 77.1655Z" fill="white"/>
<path d="M133.961 75.5443C134.149 75.5111 134.316 75.5455 134.461 75.6472C134.611 75.7478 134.703 75.8895 134.735 76.0719C134.75 76.1577 134.755 76.2482 134.749 76.3432C134.744 76.4384 134.722 76.5806 134.684 76.77L134.49 77.742L133.838 77.8571L133.919 76.8134C133.794 76.7913 133.687 76.7355 133.599 76.6456C133.511 76.5507 133.454 76.4361 133.431 76.3018C133.398 76.1141 133.432 75.9503 133.535 75.8103C133.637 75.6652 133.779 75.5764 133.961 75.5443Z" fill="white"/>
<path d="M137.239 74.9664C138.269 74.7847 138.844 75.032 138.963 75.7081C139.017 76.014 138.931 76.2922 138.704 76.5424C138.477 76.7928 138.122 76.9606 137.639 77.0458C137.349 77.0968 137.066 77.1107 136.791 77.0873C136.52 77.0576 136.302 76.9965 136.136 76.9039L136.324 76.3229C136.481 76.3949 136.666 76.4425 136.881 76.4655C137.095 76.4887 137.312 76.4808 137.532 76.4419C137.79 76.3964 137.979 76.3217 138.099 76.2175C138.219 76.1134 138.266 75.9889 138.24 75.8439C138.214 75.6937 138.124 75.5932 137.971 75.5427C137.819 75.4922 137.57 75.4972 137.227 75.5578L136.237 75.7323L136.106 73.8131L138.32 73.4228L138.421 73.9943L136.802 74.2796L136.852 75.0344L137.239 74.9664Z" fill="white"/>
<path d="M140.835 74.3323C141.023 74.2992 141.189 74.3334 141.335 74.435C141.485 74.5358 141.577 74.6774 141.609 74.8599C141.624 74.9458 141.629 75.0363 141.623 75.1313C141.618 75.2262 141.596 75.3684 141.557 75.5579L141.364 76.5301L140.712 76.6451L140.793 75.6013C140.668 75.5793 140.561 75.5233 140.473 75.4337C140.384 75.3387 140.328 75.224 140.305 75.0899C140.271 74.902 140.306 74.7382 140.409 74.5984C140.511 74.4531 140.653 74.3645 140.835 74.3323Z" fill="white"/>
<path d="M144.507 73.635C144.872 73.5706 145.192 73.6137 145.468 73.7643C145.742 73.9096 145.907 74.1353 145.96 74.4412C146.018 74.7685 145.936 75.0569 145.715 75.3064C145.493 75.5558 145.184 75.7153 144.786 75.7854C144.271 75.8762 143.846 75.8019 143.51 75.5623C143.175 75.3225 142.961 74.9425 142.869 74.4218C142.772 73.8689 142.866 73.4013 143.153 73.0187C143.439 72.6307 143.871 72.3856 144.451 72.2834C144.628 72.2522 144.803 72.2407 144.976 72.2489C145.155 72.2563 145.311 72.2812 145.446 72.3238L145.285 72.9166C145.051 72.8473 144.806 72.8352 144.548 72.8806C144.188 72.9439 143.919 73.0939 143.739 73.3304C143.564 73.5605 143.505 73.8392 143.563 74.1667C143.646 74.0414 143.768 73.9313 143.928 73.8366C144.094 73.741 144.287 73.6738 144.507 73.635ZM144.659 75.2518C144.868 75.2149 145.026 75.1372 145.133 75.0187C145.239 74.9004 145.278 74.7608 145.25 74.5997C145.221 74.4388 145.137 74.3208 144.996 74.2459C144.855 74.1657 144.674 74.1451 144.454 74.1839C144.234 74.2226 144.063 74.3053 143.942 74.4319C143.825 74.5574 143.781 74.6981 143.809 74.8539C143.834 74.9986 143.921 75.1135 144.068 75.1982C144.215 75.2774 144.412 75.2952 144.659 75.2518Z" fill="white"/>
</svg>
