<svg width="16" height="14" viewBox="0 0 16 14" fill="none" xmlns="http://www.w3.org/2000/svg">
<path d="M15.9955 7.00783C16.0015 6.94015 16.0015 6.87204 15.9955 6.80436V6.71827V6.62436C15.9799 6.58064 15.9602 6.53871 15.9368 6.49917L15.9002 6.42093C15.8674 6.37317 15.8306 6.32864 15.7903 6.28788L10.1483 0.293654C9.768 -0.0978845 9.16577 -0.0978845 8.78545 0.293654C8.41187 0.693738 8.41187 1.34124 8.78545 1.74136L12.1267 5.30974C12.2683 5.46402 12.2661 5.71177 12.1216 5.86304C12.0543 5.93343 11.9644 5.97349 11.8702 5.97488H0.95995C0.429812 5.97481 3.43485e-05 6.43377 2.05883e-09 6.99991C-3.43444e-05 7.56609 0.429674 8.02508 0.959812 8.02512C0.959847 8.02512 0.959916 8.02512 0.95995 8.02512H11.8702C12.0725 8.02816 12.2343 8.20578 12.2314 8.42183C12.2301 8.52234 12.1926 8.61848 12.1267 8.69026L8.78545 12.2508C8.41104 12.6536 8.41104 13.3036 8.78545 13.7063C9.16577 14.0979 9.768 14.0979 10.1483 13.7063L15.7537 7.71993C15.7979 7.67243 15.8372 7.61994 15.8709 7.56341C15.9031 7.50776 15.9324 7.45028 15.9588 7.39126L15.9955 7.28955C15.9968 7.26086 15.9968 7.23214 15.9955 7.20345C16.0012 7.13838 16.0012 7.07287 15.9955 7.00783Z" fill="#2BB663"/>
</svg>
